%TF.GenerationSoftware,KiCad,Pcbnew,(7.0.0)*%
%TF.CreationDate,2023-04-04T21:04:00-04:00*%
%TF.ProjectId,StackLight,53746163-6b4c-4696-9768-742e6b696361,rev?*%
%TF.SameCoordinates,Original*%
%TF.FileFunction,Drillmap*%
%TF.FilePolarity,Positive*%
%FSLAX45Y45*%
G04 Gerber Fmt 4.5, Leading zero omitted, Abs format (unit mm)*
G04 Created by KiCad (PCBNEW (7.0.0)) date 2023-04-04 21:04:00*
%MOMM*%
%LPD*%
G01*
G04 APERTURE LIST*
%ADD10C,0.100000*%
%ADD11C,0.200000*%
%ADD12C,0.076200*%
G04 APERTURE END LIST*
D10*
X11506201Y-9931400D02*
G75*
G03*
X13411200Y-10718800I1115229J0D01*
G01*
X13627100Y-9791700D02*
G75*
G03*
X13627100Y-9791700I-952500J0D01*
G01*
X11506200Y-7975600D02*
X11506200Y-9931400D01*
X14478000Y-10718800D02*
X13411200Y-10718800D01*
X11988800Y-7493000D02*
X11506200Y-7975600D01*
X15570200Y-10718800D02*
X15570200Y-7493000D01*
X15570200Y-7493000D02*
X11988800Y-7493000D01*
X14478000Y-10718800D02*
X15570200Y-10718800D01*
D11*
D12*
X13874100Y-7845900D02*
X13950300Y-7922100D01*
X13950300Y-7845900D02*
X13874100Y-7922100D01*
X13874100Y-8099900D02*
X13950300Y-8176100D01*
X13950300Y-8099900D02*
X13874100Y-8176100D01*
X13874100Y-8353900D02*
X13950300Y-8430100D01*
X13950300Y-8353900D02*
X13874100Y-8430100D01*
X13874100Y-8607900D02*
X13950300Y-8684100D01*
X13950300Y-8607900D02*
X13874100Y-8684100D01*
X14128100Y-7972900D02*
X14204300Y-8049100D01*
X14204300Y-7972900D02*
X14128100Y-8049100D01*
X14128100Y-8226900D02*
X14204300Y-8303100D01*
X14204300Y-8226900D02*
X14128100Y-8303100D01*
X14128100Y-8480900D02*
X14204300Y-8557100D01*
X14204300Y-8480900D02*
X14128100Y-8557100D01*
X14128100Y-8734900D02*
X14204300Y-8811100D01*
X14204300Y-8734900D02*
X14128100Y-8811100D01*
D10*
X15442400Y-9398000D02*
G75*
G03*
X15442400Y-9398000I-50000J0D01*
G01*
X15442400Y-9652000D02*
G75*
G03*
X15442400Y-9652000I-50000J0D01*
G01*
X15442400Y-9906000D02*
G75*
G03*
X15442400Y-9906000I-50000J0D01*
G01*
X15442400Y-10160000D02*
G75*
G03*
X15442400Y-10160000I-50000J0D01*
G01*
X15442400Y-10414000D02*
G75*
G03*
X15442400Y-10414000I-50000J0D01*
G01*
D11*
X11748819Y-11345105D02*
X11748819Y-11145105D01*
X11748819Y-11145105D02*
X11796438Y-11145105D01*
X11796438Y-11145105D02*
X11825009Y-11154629D01*
X11825009Y-11154629D02*
X11844057Y-11173677D01*
X11844057Y-11173677D02*
X11853581Y-11192724D01*
X11853581Y-11192724D02*
X11863105Y-11230819D01*
X11863105Y-11230819D02*
X11863105Y-11259391D01*
X11863105Y-11259391D02*
X11853581Y-11297486D01*
X11853581Y-11297486D02*
X11844057Y-11316534D01*
X11844057Y-11316534D02*
X11825009Y-11335581D01*
X11825009Y-11335581D02*
X11796438Y-11345105D01*
X11796438Y-11345105D02*
X11748819Y-11345105D01*
X11948819Y-11345105D02*
X11948819Y-11211772D01*
X11948819Y-11249867D02*
X11958343Y-11230819D01*
X11958343Y-11230819D02*
X11967867Y-11221295D01*
X11967867Y-11221295D02*
X11986914Y-11211772D01*
X11986914Y-11211772D02*
X12005962Y-11211772D01*
X12072628Y-11345105D02*
X12072628Y-11211772D01*
X12072628Y-11145105D02*
X12063105Y-11154629D01*
X12063105Y-11154629D02*
X12072628Y-11164153D01*
X12072628Y-11164153D02*
X12082152Y-11154629D01*
X12082152Y-11154629D02*
X12072628Y-11145105D01*
X12072628Y-11145105D02*
X12072628Y-11164153D01*
X12196438Y-11345105D02*
X12177390Y-11335581D01*
X12177390Y-11335581D02*
X12167867Y-11316534D01*
X12167867Y-11316534D02*
X12167867Y-11145105D01*
X12301200Y-11345105D02*
X12282152Y-11335581D01*
X12282152Y-11335581D02*
X12272628Y-11316534D01*
X12272628Y-11316534D02*
X12272628Y-11145105D01*
X12497390Y-11345105D02*
X12497390Y-11145105D01*
X12497390Y-11145105D02*
X12564057Y-11287962D01*
X12564057Y-11287962D02*
X12630724Y-11145105D01*
X12630724Y-11145105D02*
X12630724Y-11345105D01*
X12811676Y-11345105D02*
X12811676Y-11240343D01*
X12811676Y-11240343D02*
X12802152Y-11221295D01*
X12802152Y-11221295D02*
X12783105Y-11211772D01*
X12783105Y-11211772D02*
X12745009Y-11211772D01*
X12745009Y-11211772D02*
X12725962Y-11221295D01*
X12811676Y-11335581D02*
X12792628Y-11345105D01*
X12792628Y-11345105D02*
X12745009Y-11345105D01*
X12745009Y-11345105D02*
X12725962Y-11335581D01*
X12725962Y-11335581D02*
X12716438Y-11316534D01*
X12716438Y-11316534D02*
X12716438Y-11297486D01*
X12716438Y-11297486D02*
X12725962Y-11278438D01*
X12725962Y-11278438D02*
X12745009Y-11268915D01*
X12745009Y-11268915D02*
X12792628Y-11268915D01*
X12792628Y-11268915D02*
X12811676Y-11259391D01*
X12906914Y-11211772D02*
X12906914Y-11411772D01*
X12906914Y-11221295D02*
X12925962Y-11211772D01*
X12925962Y-11211772D02*
X12964057Y-11211772D01*
X12964057Y-11211772D02*
X12983105Y-11221295D01*
X12983105Y-11221295D02*
X12992628Y-11230819D01*
X12992628Y-11230819D02*
X13002152Y-11249867D01*
X13002152Y-11249867D02*
X13002152Y-11307010D01*
X13002152Y-11307010D02*
X12992628Y-11326057D01*
X12992628Y-11326057D02*
X12983105Y-11335581D01*
X12983105Y-11335581D02*
X12964057Y-11345105D01*
X12964057Y-11345105D02*
X12925962Y-11345105D01*
X12925962Y-11345105D02*
X12906914Y-11335581D01*
X13087867Y-11326057D02*
X13097390Y-11335581D01*
X13097390Y-11335581D02*
X13087867Y-11345105D01*
X13087867Y-11345105D02*
X13078343Y-11335581D01*
X13078343Y-11335581D02*
X13087867Y-11326057D01*
X13087867Y-11326057D02*
X13087867Y-11345105D01*
X13087867Y-11221295D02*
X13097390Y-11230819D01*
X13097390Y-11230819D02*
X13087867Y-11240343D01*
X13087867Y-11240343D02*
X13078343Y-11230819D01*
X13078343Y-11230819D02*
X13087867Y-11221295D01*
X13087867Y-11221295D02*
X13087867Y-11240343D01*
D12*
X11425000Y-11653529D02*
X11501200Y-11729729D01*
X11501200Y-11653529D02*
X11425000Y-11729729D01*
D11*
X11786914Y-11565105D02*
X11805962Y-11565105D01*
X11805962Y-11565105D02*
X11825009Y-11574629D01*
X11825009Y-11574629D02*
X11834533Y-11584153D01*
X11834533Y-11584153D02*
X11844057Y-11603200D01*
X11844057Y-11603200D02*
X11853581Y-11641295D01*
X11853581Y-11641295D02*
X11853581Y-11688915D01*
X11853581Y-11688915D02*
X11844057Y-11727010D01*
X11844057Y-11727010D02*
X11834533Y-11746057D01*
X11834533Y-11746057D02*
X11825009Y-11755581D01*
X11825009Y-11755581D02*
X11805962Y-11765105D01*
X11805962Y-11765105D02*
X11786914Y-11765105D01*
X11786914Y-11765105D02*
X11767867Y-11755581D01*
X11767867Y-11755581D02*
X11758343Y-11746057D01*
X11758343Y-11746057D02*
X11748819Y-11727010D01*
X11748819Y-11727010D02*
X11739295Y-11688915D01*
X11739295Y-11688915D02*
X11739295Y-11641295D01*
X11739295Y-11641295D02*
X11748819Y-11603200D01*
X11748819Y-11603200D02*
X11758343Y-11584153D01*
X11758343Y-11584153D02*
X11767867Y-11574629D01*
X11767867Y-11574629D02*
X11786914Y-11565105D01*
X11939295Y-11746057D02*
X11948819Y-11755581D01*
X11948819Y-11755581D02*
X11939295Y-11765105D01*
X11939295Y-11765105D02*
X11929771Y-11755581D01*
X11929771Y-11755581D02*
X11939295Y-11746057D01*
X11939295Y-11746057D02*
X11939295Y-11765105D01*
X12015486Y-11565105D02*
X12148819Y-11565105D01*
X12148819Y-11565105D02*
X12063105Y-11765105D01*
X12310724Y-11565105D02*
X12272628Y-11565105D01*
X12272628Y-11565105D02*
X12253581Y-11574629D01*
X12253581Y-11574629D02*
X12244057Y-11584153D01*
X12244057Y-11584153D02*
X12225009Y-11612724D01*
X12225009Y-11612724D02*
X12215486Y-11650819D01*
X12215486Y-11650819D02*
X12215486Y-11727010D01*
X12215486Y-11727010D02*
X12225009Y-11746057D01*
X12225009Y-11746057D02*
X12234533Y-11755581D01*
X12234533Y-11755581D02*
X12253581Y-11765105D01*
X12253581Y-11765105D02*
X12291676Y-11765105D01*
X12291676Y-11765105D02*
X12310724Y-11755581D01*
X12310724Y-11755581D02*
X12320248Y-11746057D01*
X12320248Y-11746057D02*
X12329771Y-11727010D01*
X12329771Y-11727010D02*
X12329771Y-11679391D01*
X12329771Y-11679391D02*
X12320248Y-11660343D01*
X12320248Y-11660343D02*
X12310724Y-11650819D01*
X12310724Y-11650819D02*
X12291676Y-11641295D01*
X12291676Y-11641295D02*
X12253581Y-11641295D01*
X12253581Y-11641295D02*
X12234533Y-11650819D01*
X12234533Y-11650819D02*
X12225009Y-11660343D01*
X12225009Y-11660343D02*
X12215486Y-11679391D01*
X12405962Y-11584153D02*
X12415486Y-11574629D01*
X12415486Y-11574629D02*
X12434533Y-11565105D01*
X12434533Y-11565105D02*
X12482152Y-11565105D01*
X12482152Y-11565105D02*
X12501200Y-11574629D01*
X12501200Y-11574629D02*
X12510724Y-11584153D01*
X12510724Y-11584153D02*
X12520248Y-11603200D01*
X12520248Y-11603200D02*
X12520248Y-11622248D01*
X12520248Y-11622248D02*
X12510724Y-11650819D01*
X12510724Y-11650819D02*
X12396438Y-11765105D01*
X12396438Y-11765105D02*
X12520248Y-11765105D01*
X12605962Y-11765105D02*
X12605962Y-11631772D01*
X12605962Y-11650819D02*
X12615486Y-11641295D01*
X12615486Y-11641295D02*
X12634533Y-11631772D01*
X12634533Y-11631772D02*
X12663105Y-11631772D01*
X12663105Y-11631772D02*
X12682152Y-11641295D01*
X12682152Y-11641295D02*
X12691676Y-11660343D01*
X12691676Y-11660343D02*
X12691676Y-11765105D01*
X12691676Y-11660343D02*
X12701200Y-11641295D01*
X12701200Y-11641295D02*
X12720248Y-11631772D01*
X12720248Y-11631772D02*
X12748819Y-11631772D01*
X12748819Y-11631772D02*
X12767867Y-11641295D01*
X12767867Y-11641295D02*
X12777390Y-11660343D01*
X12777390Y-11660343D02*
X12777390Y-11765105D01*
X12872629Y-11765105D02*
X12872629Y-11631772D01*
X12872629Y-11650819D02*
X12882152Y-11641295D01*
X12882152Y-11641295D02*
X12901200Y-11631772D01*
X12901200Y-11631772D02*
X12929771Y-11631772D01*
X12929771Y-11631772D02*
X12948819Y-11641295D01*
X12948819Y-11641295D02*
X12958343Y-11660343D01*
X12958343Y-11660343D02*
X12958343Y-11765105D01*
X12958343Y-11660343D02*
X12967867Y-11641295D01*
X12967867Y-11641295D02*
X12986914Y-11631772D01*
X12986914Y-11631772D02*
X13015486Y-11631772D01*
X13015486Y-11631772D02*
X13034533Y-11641295D01*
X13034533Y-11641295D02*
X13044057Y-11660343D01*
X13044057Y-11660343D02*
X13044057Y-11765105D01*
X13402152Y-11555581D02*
X13230724Y-11812724D01*
X13626914Y-11565105D02*
X13645962Y-11565105D01*
X13645962Y-11565105D02*
X13665010Y-11574629D01*
X13665010Y-11574629D02*
X13674533Y-11584153D01*
X13674533Y-11584153D02*
X13684057Y-11603200D01*
X13684057Y-11603200D02*
X13693581Y-11641295D01*
X13693581Y-11641295D02*
X13693581Y-11688915D01*
X13693581Y-11688915D02*
X13684057Y-11727010D01*
X13684057Y-11727010D02*
X13674533Y-11746057D01*
X13674533Y-11746057D02*
X13665010Y-11755581D01*
X13665010Y-11755581D02*
X13645962Y-11765105D01*
X13645962Y-11765105D02*
X13626914Y-11765105D01*
X13626914Y-11765105D02*
X13607867Y-11755581D01*
X13607867Y-11755581D02*
X13598343Y-11746057D01*
X13598343Y-11746057D02*
X13588819Y-11727010D01*
X13588819Y-11727010D02*
X13579295Y-11688915D01*
X13579295Y-11688915D02*
X13579295Y-11641295D01*
X13579295Y-11641295D02*
X13588819Y-11603200D01*
X13588819Y-11603200D02*
X13598343Y-11584153D01*
X13598343Y-11584153D02*
X13607867Y-11574629D01*
X13607867Y-11574629D02*
X13626914Y-11565105D01*
X13779295Y-11746057D02*
X13788819Y-11755581D01*
X13788819Y-11755581D02*
X13779295Y-11765105D01*
X13779295Y-11765105D02*
X13769771Y-11755581D01*
X13769771Y-11755581D02*
X13779295Y-11746057D01*
X13779295Y-11746057D02*
X13779295Y-11765105D01*
X13912629Y-11565105D02*
X13931676Y-11565105D01*
X13931676Y-11565105D02*
X13950724Y-11574629D01*
X13950724Y-11574629D02*
X13960248Y-11584153D01*
X13960248Y-11584153D02*
X13969771Y-11603200D01*
X13969771Y-11603200D02*
X13979295Y-11641295D01*
X13979295Y-11641295D02*
X13979295Y-11688915D01*
X13979295Y-11688915D02*
X13969771Y-11727010D01*
X13969771Y-11727010D02*
X13960248Y-11746057D01*
X13960248Y-11746057D02*
X13950724Y-11755581D01*
X13950724Y-11755581D02*
X13931676Y-11765105D01*
X13931676Y-11765105D02*
X13912629Y-11765105D01*
X13912629Y-11765105D02*
X13893581Y-11755581D01*
X13893581Y-11755581D02*
X13884057Y-11746057D01*
X13884057Y-11746057D02*
X13874533Y-11727010D01*
X13874533Y-11727010D02*
X13865010Y-11688915D01*
X13865010Y-11688915D02*
X13865010Y-11641295D01*
X13865010Y-11641295D02*
X13874533Y-11603200D01*
X13874533Y-11603200D02*
X13884057Y-11584153D01*
X13884057Y-11584153D02*
X13893581Y-11574629D01*
X13893581Y-11574629D02*
X13912629Y-11565105D01*
X14045962Y-11565105D02*
X14169771Y-11565105D01*
X14169771Y-11565105D02*
X14103105Y-11641295D01*
X14103105Y-11641295D02*
X14131676Y-11641295D01*
X14131676Y-11641295D02*
X14150724Y-11650819D01*
X14150724Y-11650819D02*
X14160248Y-11660343D01*
X14160248Y-11660343D02*
X14169771Y-11679391D01*
X14169771Y-11679391D02*
X14169771Y-11727010D01*
X14169771Y-11727010D02*
X14160248Y-11746057D01*
X14160248Y-11746057D02*
X14150724Y-11755581D01*
X14150724Y-11755581D02*
X14131676Y-11765105D01*
X14131676Y-11765105D02*
X14074533Y-11765105D01*
X14074533Y-11765105D02*
X14055486Y-11755581D01*
X14055486Y-11755581D02*
X14045962Y-11746057D01*
X14293581Y-11565105D02*
X14312629Y-11565105D01*
X14312629Y-11565105D02*
X14331676Y-11574629D01*
X14331676Y-11574629D02*
X14341200Y-11584153D01*
X14341200Y-11584153D02*
X14350724Y-11603200D01*
X14350724Y-11603200D02*
X14360248Y-11641295D01*
X14360248Y-11641295D02*
X14360248Y-11688915D01*
X14360248Y-11688915D02*
X14350724Y-11727010D01*
X14350724Y-11727010D02*
X14341200Y-11746057D01*
X14341200Y-11746057D02*
X14331676Y-11755581D01*
X14331676Y-11755581D02*
X14312629Y-11765105D01*
X14312629Y-11765105D02*
X14293581Y-11765105D01*
X14293581Y-11765105D02*
X14274533Y-11755581D01*
X14274533Y-11755581D02*
X14265010Y-11746057D01*
X14265010Y-11746057D02*
X14255486Y-11727010D01*
X14255486Y-11727010D02*
X14245962Y-11688915D01*
X14245962Y-11688915D02*
X14245962Y-11641295D01*
X14245962Y-11641295D02*
X14255486Y-11603200D01*
X14255486Y-11603200D02*
X14265010Y-11584153D01*
X14265010Y-11584153D02*
X14274533Y-11574629D01*
X14274533Y-11574629D02*
X14293581Y-11565105D01*
X14484057Y-11565105D02*
X14503105Y-11565105D01*
X14503105Y-11565105D02*
X14522152Y-11574629D01*
X14522152Y-11574629D02*
X14531676Y-11584153D01*
X14531676Y-11584153D02*
X14541200Y-11603200D01*
X14541200Y-11603200D02*
X14550724Y-11641295D01*
X14550724Y-11641295D02*
X14550724Y-11688915D01*
X14550724Y-11688915D02*
X14541200Y-11727010D01*
X14541200Y-11727010D02*
X14531676Y-11746057D01*
X14531676Y-11746057D02*
X14522152Y-11755581D01*
X14522152Y-11755581D02*
X14503105Y-11765105D01*
X14503105Y-11765105D02*
X14484057Y-11765105D01*
X14484057Y-11765105D02*
X14465010Y-11755581D01*
X14465010Y-11755581D02*
X14455486Y-11746057D01*
X14455486Y-11746057D02*
X14445962Y-11727010D01*
X14445962Y-11727010D02*
X14436438Y-11688915D01*
X14436438Y-11688915D02*
X14436438Y-11641295D01*
X14436438Y-11641295D02*
X14445962Y-11603200D01*
X14445962Y-11603200D02*
X14455486Y-11584153D01*
X14455486Y-11584153D02*
X14465010Y-11574629D01*
X14465010Y-11574629D02*
X14484057Y-11565105D01*
X14626914Y-11565105D02*
X14626914Y-11603200D01*
X14703105Y-11565105D02*
X14703105Y-11603200D01*
X14965962Y-11841295D02*
X14956438Y-11831772D01*
X14956438Y-11831772D02*
X14937391Y-11803200D01*
X14937391Y-11803200D02*
X14927867Y-11784153D01*
X14927867Y-11784153D02*
X14918343Y-11755581D01*
X14918343Y-11755581D02*
X14908819Y-11707962D01*
X14908819Y-11707962D02*
X14908819Y-11669867D01*
X14908819Y-11669867D02*
X14918343Y-11622248D01*
X14918343Y-11622248D02*
X14927867Y-11593676D01*
X14927867Y-11593676D02*
X14937391Y-11574629D01*
X14937391Y-11574629D02*
X14956438Y-11546057D01*
X14956438Y-11546057D02*
X14965962Y-11536534D01*
X15070724Y-11650819D02*
X15051676Y-11641295D01*
X15051676Y-11641295D02*
X15042152Y-11631772D01*
X15042152Y-11631772D02*
X15032629Y-11612724D01*
X15032629Y-11612724D02*
X15032629Y-11603200D01*
X15032629Y-11603200D02*
X15042152Y-11584153D01*
X15042152Y-11584153D02*
X15051676Y-11574629D01*
X15051676Y-11574629D02*
X15070724Y-11565105D01*
X15070724Y-11565105D02*
X15108819Y-11565105D01*
X15108819Y-11565105D02*
X15127867Y-11574629D01*
X15127867Y-11574629D02*
X15137391Y-11584153D01*
X15137391Y-11584153D02*
X15146914Y-11603200D01*
X15146914Y-11603200D02*
X15146914Y-11612724D01*
X15146914Y-11612724D02*
X15137391Y-11631772D01*
X15137391Y-11631772D02*
X15127867Y-11641295D01*
X15127867Y-11641295D02*
X15108819Y-11650819D01*
X15108819Y-11650819D02*
X15070724Y-11650819D01*
X15070724Y-11650819D02*
X15051676Y-11660343D01*
X15051676Y-11660343D02*
X15042152Y-11669867D01*
X15042152Y-11669867D02*
X15032629Y-11688915D01*
X15032629Y-11688915D02*
X15032629Y-11727010D01*
X15032629Y-11727010D02*
X15042152Y-11746057D01*
X15042152Y-11746057D02*
X15051676Y-11755581D01*
X15051676Y-11755581D02*
X15070724Y-11765105D01*
X15070724Y-11765105D02*
X15108819Y-11765105D01*
X15108819Y-11765105D02*
X15127867Y-11755581D01*
X15127867Y-11755581D02*
X15137391Y-11746057D01*
X15137391Y-11746057D02*
X15146914Y-11727010D01*
X15146914Y-11727010D02*
X15146914Y-11688915D01*
X15146914Y-11688915D02*
X15137391Y-11669867D01*
X15137391Y-11669867D02*
X15127867Y-11660343D01*
X15127867Y-11660343D02*
X15108819Y-11650819D01*
X15352629Y-11765105D02*
X15352629Y-11565105D01*
X15438343Y-11765105D02*
X15438343Y-11660343D01*
X15438343Y-11660343D02*
X15428819Y-11641295D01*
X15428819Y-11641295D02*
X15409772Y-11631772D01*
X15409772Y-11631772D02*
X15381200Y-11631772D01*
X15381200Y-11631772D02*
X15362152Y-11641295D01*
X15362152Y-11641295D02*
X15352629Y-11650819D01*
X15562152Y-11765105D02*
X15543105Y-11755581D01*
X15543105Y-11755581D02*
X15533581Y-11746057D01*
X15533581Y-11746057D02*
X15524057Y-11727010D01*
X15524057Y-11727010D02*
X15524057Y-11669867D01*
X15524057Y-11669867D02*
X15533581Y-11650819D01*
X15533581Y-11650819D02*
X15543105Y-11641295D01*
X15543105Y-11641295D02*
X15562152Y-11631772D01*
X15562152Y-11631772D02*
X15590724Y-11631772D01*
X15590724Y-11631772D02*
X15609772Y-11641295D01*
X15609772Y-11641295D02*
X15619295Y-11650819D01*
X15619295Y-11650819D02*
X15628819Y-11669867D01*
X15628819Y-11669867D02*
X15628819Y-11727010D01*
X15628819Y-11727010D02*
X15619295Y-11746057D01*
X15619295Y-11746057D02*
X15609772Y-11755581D01*
X15609772Y-11755581D02*
X15590724Y-11765105D01*
X15590724Y-11765105D02*
X15562152Y-11765105D01*
X15743105Y-11765105D02*
X15724057Y-11755581D01*
X15724057Y-11755581D02*
X15714533Y-11736534D01*
X15714533Y-11736534D02*
X15714533Y-11565105D01*
X15895486Y-11755581D02*
X15876438Y-11765105D01*
X15876438Y-11765105D02*
X15838343Y-11765105D01*
X15838343Y-11765105D02*
X15819295Y-11755581D01*
X15819295Y-11755581D02*
X15809772Y-11736534D01*
X15809772Y-11736534D02*
X15809772Y-11660343D01*
X15809772Y-11660343D02*
X15819295Y-11641295D01*
X15819295Y-11641295D02*
X15838343Y-11631772D01*
X15838343Y-11631772D02*
X15876438Y-11631772D01*
X15876438Y-11631772D02*
X15895486Y-11641295D01*
X15895486Y-11641295D02*
X15905010Y-11660343D01*
X15905010Y-11660343D02*
X15905010Y-11679391D01*
X15905010Y-11679391D02*
X15809772Y-11698438D01*
X15981200Y-11755581D02*
X16000248Y-11765105D01*
X16000248Y-11765105D02*
X16038343Y-11765105D01*
X16038343Y-11765105D02*
X16057391Y-11755581D01*
X16057391Y-11755581D02*
X16066914Y-11736534D01*
X16066914Y-11736534D02*
X16066914Y-11727010D01*
X16066914Y-11727010D02*
X16057391Y-11707962D01*
X16057391Y-11707962D02*
X16038343Y-11698438D01*
X16038343Y-11698438D02*
X16009772Y-11698438D01*
X16009772Y-11698438D02*
X15990724Y-11688915D01*
X15990724Y-11688915D02*
X15981200Y-11669867D01*
X15981200Y-11669867D02*
X15981200Y-11660343D01*
X15981200Y-11660343D02*
X15990724Y-11641295D01*
X15990724Y-11641295D02*
X16009772Y-11631772D01*
X16009772Y-11631772D02*
X16038343Y-11631772D01*
X16038343Y-11631772D02*
X16057391Y-11641295D01*
X16133581Y-11841295D02*
X16143105Y-11831772D01*
X16143105Y-11831772D02*
X16162153Y-11803200D01*
X16162153Y-11803200D02*
X16171676Y-11784153D01*
X16171676Y-11784153D02*
X16181200Y-11755581D01*
X16181200Y-11755581D02*
X16190724Y-11707962D01*
X16190724Y-11707962D02*
X16190724Y-11669867D01*
X16190724Y-11669867D02*
X16181200Y-11622248D01*
X16181200Y-11622248D02*
X16171676Y-11593676D01*
X16171676Y-11593676D02*
X16162153Y-11574629D01*
X16162153Y-11574629D02*
X16143105Y-11546057D01*
X16143105Y-11546057D02*
X16133581Y-11536534D01*
D10*
X11501200Y-11955629D02*
G75*
G03*
X11501200Y-11955629I-50000J0D01*
G01*
D11*
X11853581Y-12029105D02*
X11739295Y-12029105D01*
X11796438Y-12029105D02*
X11796438Y-11829105D01*
X11796438Y-11829105D02*
X11777390Y-11857676D01*
X11777390Y-11857676D02*
X11758343Y-11876724D01*
X11758343Y-11876724D02*
X11739295Y-11886248D01*
X11939295Y-12010057D02*
X11948819Y-12019581D01*
X11948819Y-12019581D02*
X11939295Y-12029105D01*
X11939295Y-12029105D02*
X11929771Y-12019581D01*
X11929771Y-12019581D02*
X11939295Y-12010057D01*
X11939295Y-12010057D02*
X11939295Y-12029105D01*
X12072628Y-11829105D02*
X12091676Y-11829105D01*
X12091676Y-11829105D02*
X12110724Y-11838629D01*
X12110724Y-11838629D02*
X12120248Y-11848153D01*
X12120248Y-11848153D02*
X12129771Y-11867200D01*
X12129771Y-11867200D02*
X12139295Y-11905295D01*
X12139295Y-11905295D02*
X12139295Y-11952915D01*
X12139295Y-11952915D02*
X12129771Y-11991010D01*
X12129771Y-11991010D02*
X12120248Y-12010057D01*
X12120248Y-12010057D02*
X12110724Y-12019581D01*
X12110724Y-12019581D02*
X12091676Y-12029105D01*
X12091676Y-12029105D02*
X12072628Y-12029105D01*
X12072628Y-12029105D02*
X12053581Y-12019581D01*
X12053581Y-12019581D02*
X12044057Y-12010057D01*
X12044057Y-12010057D02*
X12034533Y-11991010D01*
X12034533Y-11991010D02*
X12025009Y-11952915D01*
X12025009Y-11952915D02*
X12025009Y-11905295D01*
X12025009Y-11905295D02*
X12034533Y-11867200D01*
X12034533Y-11867200D02*
X12044057Y-11848153D01*
X12044057Y-11848153D02*
X12053581Y-11838629D01*
X12053581Y-11838629D02*
X12072628Y-11829105D01*
X12263105Y-11829105D02*
X12282152Y-11829105D01*
X12282152Y-11829105D02*
X12301200Y-11838629D01*
X12301200Y-11838629D02*
X12310724Y-11848153D01*
X12310724Y-11848153D02*
X12320248Y-11867200D01*
X12320248Y-11867200D02*
X12329771Y-11905295D01*
X12329771Y-11905295D02*
X12329771Y-11952915D01*
X12329771Y-11952915D02*
X12320248Y-11991010D01*
X12320248Y-11991010D02*
X12310724Y-12010057D01*
X12310724Y-12010057D02*
X12301200Y-12019581D01*
X12301200Y-12019581D02*
X12282152Y-12029105D01*
X12282152Y-12029105D02*
X12263105Y-12029105D01*
X12263105Y-12029105D02*
X12244057Y-12019581D01*
X12244057Y-12019581D02*
X12234533Y-12010057D01*
X12234533Y-12010057D02*
X12225009Y-11991010D01*
X12225009Y-11991010D02*
X12215486Y-11952915D01*
X12215486Y-11952915D02*
X12215486Y-11905295D01*
X12215486Y-11905295D02*
X12225009Y-11867200D01*
X12225009Y-11867200D02*
X12234533Y-11848153D01*
X12234533Y-11848153D02*
X12244057Y-11838629D01*
X12244057Y-11838629D02*
X12263105Y-11829105D01*
X12453581Y-11829105D02*
X12472629Y-11829105D01*
X12472629Y-11829105D02*
X12491676Y-11838629D01*
X12491676Y-11838629D02*
X12501200Y-11848153D01*
X12501200Y-11848153D02*
X12510724Y-11867200D01*
X12510724Y-11867200D02*
X12520248Y-11905295D01*
X12520248Y-11905295D02*
X12520248Y-11952915D01*
X12520248Y-11952915D02*
X12510724Y-11991010D01*
X12510724Y-11991010D02*
X12501200Y-12010057D01*
X12501200Y-12010057D02*
X12491676Y-12019581D01*
X12491676Y-12019581D02*
X12472629Y-12029105D01*
X12472629Y-12029105D02*
X12453581Y-12029105D01*
X12453581Y-12029105D02*
X12434533Y-12019581D01*
X12434533Y-12019581D02*
X12425009Y-12010057D01*
X12425009Y-12010057D02*
X12415486Y-11991010D01*
X12415486Y-11991010D02*
X12405962Y-11952915D01*
X12405962Y-11952915D02*
X12405962Y-11905295D01*
X12405962Y-11905295D02*
X12415486Y-11867200D01*
X12415486Y-11867200D02*
X12425009Y-11848153D01*
X12425009Y-11848153D02*
X12434533Y-11838629D01*
X12434533Y-11838629D02*
X12453581Y-11829105D01*
X12605962Y-12029105D02*
X12605962Y-11895772D01*
X12605962Y-11914819D02*
X12615486Y-11905295D01*
X12615486Y-11905295D02*
X12634533Y-11895772D01*
X12634533Y-11895772D02*
X12663105Y-11895772D01*
X12663105Y-11895772D02*
X12682152Y-11905295D01*
X12682152Y-11905295D02*
X12691676Y-11924343D01*
X12691676Y-11924343D02*
X12691676Y-12029105D01*
X12691676Y-11924343D02*
X12701200Y-11905295D01*
X12701200Y-11905295D02*
X12720248Y-11895772D01*
X12720248Y-11895772D02*
X12748819Y-11895772D01*
X12748819Y-11895772D02*
X12767867Y-11905295D01*
X12767867Y-11905295D02*
X12777390Y-11924343D01*
X12777390Y-11924343D02*
X12777390Y-12029105D01*
X12872629Y-12029105D02*
X12872629Y-11895772D01*
X12872629Y-11914819D02*
X12882152Y-11905295D01*
X12882152Y-11905295D02*
X12901200Y-11895772D01*
X12901200Y-11895772D02*
X12929771Y-11895772D01*
X12929771Y-11895772D02*
X12948819Y-11905295D01*
X12948819Y-11905295D02*
X12958343Y-11924343D01*
X12958343Y-11924343D02*
X12958343Y-12029105D01*
X12958343Y-11924343D02*
X12967867Y-11905295D01*
X12967867Y-11905295D02*
X12986914Y-11895772D01*
X12986914Y-11895772D02*
X13015486Y-11895772D01*
X13015486Y-11895772D02*
X13034533Y-11905295D01*
X13034533Y-11905295D02*
X13044057Y-11924343D01*
X13044057Y-11924343D02*
X13044057Y-12029105D01*
X13402152Y-11819581D02*
X13230724Y-12076724D01*
X13626914Y-11829105D02*
X13645962Y-11829105D01*
X13645962Y-11829105D02*
X13665010Y-11838629D01*
X13665010Y-11838629D02*
X13674533Y-11848153D01*
X13674533Y-11848153D02*
X13684057Y-11867200D01*
X13684057Y-11867200D02*
X13693581Y-11905295D01*
X13693581Y-11905295D02*
X13693581Y-11952915D01*
X13693581Y-11952915D02*
X13684057Y-11991010D01*
X13684057Y-11991010D02*
X13674533Y-12010057D01*
X13674533Y-12010057D02*
X13665010Y-12019581D01*
X13665010Y-12019581D02*
X13645962Y-12029105D01*
X13645962Y-12029105D02*
X13626914Y-12029105D01*
X13626914Y-12029105D02*
X13607867Y-12019581D01*
X13607867Y-12019581D02*
X13598343Y-12010057D01*
X13598343Y-12010057D02*
X13588819Y-11991010D01*
X13588819Y-11991010D02*
X13579295Y-11952915D01*
X13579295Y-11952915D02*
X13579295Y-11905295D01*
X13579295Y-11905295D02*
X13588819Y-11867200D01*
X13588819Y-11867200D02*
X13598343Y-11848153D01*
X13598343Y-11848153D02*
X13607867Y-11838629D01*
X13607867Y-11838629D02*
X13626914Y-11829105D01*
X13779295Y-12010057D02*
X13788819Y-12019581D01*
X13788819Y-12019581D02*
X13779295Y-12029105D01*
X13779295Y-12029105D02*
X13769771Y-12019581D01*
X13769771Y-12019581D02*
X13779295Y-12010057D01*
X13779295Y-12010057D02*
X13779295Y-12029105D01*
X13912629Y-11829105D02*
X13931676Y-11829105D01*
X13931676Y-11829105D02*
X13950724Y-11838629D01*
X13950724Y-11838629D02*
X13960248Y-11848153D01*
X13960248Y-11848153D02*
X13969771Y-11867200D01*
X13969771Y-11867200D02*
X13979295Y-11905295D01*
X13979295Y-11905295D02*
X13979295Y-11952915D01*
X13979295Y-11952915D02*
X13969771Y-11991010D01*
X13969771Y-11991010D02*
X13960248Y-12010057D01*
X13960248Y-12010057D02*
X13950724Y-12019581D01*
X13950724Y-12019581D02*
X13931676Y-12029105D01*
X13931676Y-12029105D02*
X13912629Y-12029105D01*
X13912629Y-12029105D02*
X13893581Y-12019581D01*
X13893581Y-12019581D02*
X13884057Y-12010057D01*
X13884057Y-12010057D02*
X13874533Y-11991010D01*
X13874533Y-11991010D02*
X13865010Y-11952915D01*
X13865010Y-11952915D02*
X13865010Y-11905295D01*
X13865010Y-11905295D02*
X13874533Y-11867200D01*
X13874533Y-11867200D02*
X13884057Y-11848153D01*
X13884057Y-11848153D02*
X13893581Y-11838629D01*
X13893581Y-11838629D02*
X13912629Y-11829105D01*
X14045962Y-11829105D02*
X14169771Y-11829105D01*
X14169771Y-11829105D02*
X14103105Y-11905295D01*
X14103105Y-11905295D02*
X14131676Y-11905295D01*
X14131676Y-11905295D02*
X14150724Y-11914819D01*
X14150724Y-11914819D02*
X14160248Y-11924343D01*
X14160248Y-11924343D02*
X14169771Y-11943391D01*
X14169771Y-11943391D02*
X14169771Y-11991010D01*
X14169771Y-11991010D02*
X14160248Y-12010057D01*
X14160248Y-12010057D02*
X14150724Y-12019581D01*
X14150724Y-12019581D02*
X14131676Y-12029105D01*
X14131676Y-12029105D02*
X14074533Y-12029105D01*
X14074533Y-12029105D02*
X14055486Y-12019581D01*
X14055486Y-12019581D02*
X14045962Y-12010057D01*
X14265010Y-12029105D02*
X14303105Y-12029105D01*
X14303105Y-12029105D02*
X14322152Y-12019581D01*
X14322152Y-12019581D02*
X14331676Y-12010057D01*
X14331676Y-12010057D02*
X14350724Y-11981486D01*
X14350724Y-11981486D02*
X14360248Y-11943391D01*
X14360248Y-11943391D02*
X14360248Y-11867200D01*
X14360248Y-11867200D02*
X14350724Y-11848153D01*
X14350724Y-11848153D02*
X14341200Y-11838629D01*
X14341200Y-11838629D02*
X14322152Y-11829105D01*
X14322152Y-11829105D02*
X14284057Y-11829105D01*
X14284057Y-11829105D02*
X14265010Y-11838629D01*
X14265010Y-11838629D02*
X14255486Y-11848153D01*
X14255486Y-11848153D02*
X14245962Y-11867200D01*
X14245962Y-11867200D02*
X14245962Y-11914819D01*
X14245962Y-11914819D02*
X14255486Y-11933867D01*
X14255486Y-11933867D02*
X14265010Y-11943391D01*
X14265010Y-11943391D02*
X14284057Y-11952915D01*
X14284057Y-11952915D02*
X14322152Y-11952915D01*
X14322152Y-11952915D02*
X14341200Y-11943391D01*
X14341200Y-11943391D02*
X14350724Y-11933867D01*
X14350724Y-11933867D02*
X14360248Y-11914819D01*
X14531676Y-11895772D02*
X14531676Y-12029105D01*
X14484057Y-11819581D02*
X14436438Y-11962438D01*
X14436438Y-11962438D02*
X14560248Y-11962438D01*
X14626914Y-11829105D02*
X14626914Y-11867200D01*
X14703105Y-11829105D02*
X14703105Y-11867200D01*
X14965962Y-12105295D02*
X14956438Y-12095772D01*
X14956438Y-12095772D02*
X14937391Y-12067200D01*
X14937391Y-12067200D02*
X14927867Y-12048153D01*
X14927867Y-12048153D02*
X14918343Y-12019581D01*
X14918343Y-12019581D02*
X14908819Y-11971962D01*
X14908819Y-11971962D02*
X14908819Y-11933867D01*
X14908819Y-11933867D02*
X14918343Y-11886248D01*
X14918343Y-11886248D02*
X14927867Y-11857676D01*
X14927867Y-11857676D02*
X14937391Y-11838629D01*
X14937391Y-11838629D02*
X14956438Y-11810057D01*
X14956438Y-11810057D02*
X14965962Y-11800534D01*
X15137391Y-11829105D02*
X15042152Y-11829105D01*
X15042152Y-11829105D02*
X15032629Y-11924343D01*
X15032629Y-11924343D02*
X15042152Y-11914819D01*
X15042152Y-11914819D02*
X15061200Y-11905295D01*
X15061200Y-11905295D02*
X15108819Y-11905295D01*
X15108819Y-11905295D02*
X15127867Y-11914819D01*
X15127867Y-11914819D02*
X15137391Y-11924343D01*
X15137391Y-11924343D02*
X15146914Y-11943391D01*
X15146914Y-11943391D02*
X15146914Y-11991010D01*
X15146914Y-11991010D02*
X15137391Y-12010057D01*
X15137391Y-12010057D02*
X15127867Y-12019581D01*
X15127867Y-12019581D02*
X15108819Y-12029105D01*
X15108819Y-12029105D02*
X15061200Y-12029105D01*
X15061200Y-12029105D02*
X15042152Y-12019581D01*
X15042152Y-12019581D02*
X15032629Y-12010057D01*
X15352629Y-12029105D02*
X15352629Y-11829105D01*
X15438343Y-12029105D02*
X15438343Y-11924343D01*
X15438343Y-11924343D02*
X15428819Y-11905295D01*
X15428819Y-11905295D02*
X15409772Y-11895772D01*
X15409772Y-11895772D02*
X15381200Y-11895772D01*
X15381200Y-11895772D02*
X15362152Y-11905295D01*
X15362152Y-11905295D02*
X15352629Y-11914819D01*
X15562152Y-12029105D02*
X15543105Y-12019581D01*
X15543105Y-12019581D02*
X15533581Y-12010057D01*
X15533581Y-12010057D02*
X15524057Y-11991010D01*
X15524057Y-11991010D02*
X15524057Y-11933867D01*
X15524057Y-11933867D02*
X15533581Y-11914819D01*
X15533581Y-11914819D02*
X15543105Y-11905295D01*
X15543105Y-11905295D02*
X15562152Y-11895772D01*
X15562152Y-11895772D02*
X15590724Y-11895772D01*
X15590724Y-11895772D02*
X15609772Y-11905295D01*
X15609772Y-11905295D02*
X15619295Y-11914819D01*
X15619295Y-11914819D02*
X15628819Y-11933867D01*
X15628819Y-11933867D02*
X15628819Y-11991010D01*
X15628819Y-11991010D02*
X15619295Y-12010057D01*
X15619295Y-12010057D02*
X15609772Y-12019581D01*
X15609772Y-12019581D02*
X15590724Y-12029105D01*
X15590724Y-12029105D02*
X15562152Y-12029105D01*
X15743105Y-12029105D02*
X15724057Y-12019581D01*
X15724057Y-12019581D02*
X15714533Y-12000534D01*
X15714533Y-12000534D02*
X15714533Y-11829105D01*
X15895486Y-12019581D02*
X15876438Y-12029105D01*
X15876438Y-12029105D02*
X15838343Y-12029105D01*
X15838343Y-12029105D02*
X15819295Y-12019581D01*
X15819295Y-12019581D02*
X15809772Y-12000534D01*
X15809772Y-12000534D02*
X15809772Y-11924343D01*
X15809772Y-11924343D02*
X15819295Y-11905295D01*
X15819295Y-11905295D02*
X15838343Y-11895772D01*
X15838343Y-11895772D02*
X15876438Y-11895772D01*
X15876438Y-11895772D02*
X15895486Y-11905295D01*
X15895486Y-11905295D02*
X15905010Y-11924343D01*
X15905010Y-11924343D02*
X15905010Y-11943391D01*
X15905010Y-11943391D02*
X15809772Y-11962438D01*
X15981200Y-12019581D02*
X16000248Y-12029105D01*
X16000248Y-12029105D02*
X16038343Y-12029105D01*
X16038343Y-12029105D02*
X16057391Y-12019581D01*
X16057391Y-12019581D02*
X16066914Y-12000534D01*
X16066914Y-12000534D02*
X16066914Y-11991010D01*
X16066914Y-11991010D02*
X16057391Y-11971962D01*
X16057391Y-11971962D02*
X16038343Y-11962438D01*
X16038343Y-11962438D02*
X16009772Y-11962438D01*
X16009772Y-11962438D02*
X15990724Y-11952915D01*
X15990724Y-11952915D02*
X15981200Y-11933867D01*
X15981200Y-11933867D02*
X15981200Y-11924343D01*
X15981200Y-11924343D02*
X15990724Y-11905295D01*
X15990724Y-11905295D02*
X16009772Y-11895772D01*
X16009772Y-11895772D02*
X16038343Y-11895772D01*
X16038343Y-11895772D02*
X16057391Y-11905295D01*
X16133581Y-12105295D02*
X16143105Y-12095772D01*
X16143105Y-12095772D02*
X16162153Y-12067200D01*
X16162153Y-12067200D02*
X16171676Y-12048153D01*
X16171676Y-12048153D02*
X16181200Y-12019581D01*
X16181200Y-12019581D02*
X16190724Y-11971962D01*
X16190724Y-11971962D02*
X16190724Y-11933867D01*
X16190724Y-11933867D02*
X16181200Y-11886248D01*
X16181200Y-11886248D02*
X16171676Y-11857676D01*
X16171676Y-11857676D02*
X16162153Y-11838629D01*
X16162153Y-11838629D02*
X16143105Y-11810057D01*
X16143105Y-11810057D02*
X16133581Y-11800534D01*
M02*
