%TF.GenerationSoftware,KiCad,Pcbnew,7.0.2*%
%TF.CreationDate,2023-05-10T12:42:33-04:00*%
%TF.ProjectId,StackLight,53746163-6b4c-4696-9768-742e6b696361,0.5*%
%TF.SameCoordinates,Original*%
%TF.FileFunction,Legend,Bot*%
%TF.FilePolarity,Positive*%
%FSLAX46Y46*%
G04 Gerber Fmt 4.6, Leading zero omitted, Abs format (unit mm)*
G04 Created by KiCad (PCBNEW 7.0.2) date 2023-05-10 12:42:33*
%MOMM*%
%LPD*%
G01*
G04 APERTURE LIST*
%ADD10C,0.200000*%
%ADD11C,0.150000*%
G04 APERTURE END LIST*
D10*
G36*
X136478558Y-78895094D02*
G01*
X136459321Y-78895700D01*
X136440513Y-78897528D01*
X136422237Y-78900592D01*
X136404595Y-78904905D01*
X136387690Y-78910483D01*
X136371624Y-78917337D01*
X136356502Y-78925484D01*
X136342424Y-78934936D01*
X136329493Y-78945707D01*
X136317814Y-78957812D01*
X136307487Y-78971264D01*
X136298616Y-78986078D01*
X136291304Y-79002267D01*
X136285653Y-79019845D01*
X136281766Y-79038826D01*
X136280515Y-79048848D01*
X136279745Y-79059225D01*
X136066765Y-79059225D01*
X136067455Y-79037914D01*
X136069230Y-79017348D01*
X136072058Y-78997521D01*
X136075907Y-78978429D01*
X136080747Y-78960068D01*
X136086544Y-78942433D01*
X136093268Y-78925520D01*
X136100887Y-78909325D01*
X136109369Y-78893842D01*
X136118682Y-78879069D01*
X136128796Y-78864999D01*
X136139679Y-78851629D01*
X136151298Y-78838955D01*
X136163622Y-78826972D01*
X136176620Y-78815675D01*
X136190260Y-78805060D01*
X136204511Y-78795122D01*
X136219340Y-78785858D01*
X136234716Y-78777263D01*
X136250608Y-78769332D01*
X136266984Y-78762061D01*
X136283811Y-78755445D01*
X136301060Y-78749481D01*
X136318698Y-78744163D01*
X136336693Y-78739487D01*
X136355014Y-78735450D01*
X136373629Y-78732045D01*
X136392506Y-78729270D01*
X136411615Y-78727118D01*
X136430923Y-78725587D01*
X136450398Y-78724672D01*
X136470010Y-78724368D01*
X136488270Y-78724612D01*
X136506525Y-78725350D01*
X136524737Y-78726593D01*
X136542869Y-78728351D01*
X136560884Y-78730636D01*
X136578742Y-78733458D01*
X136596408Y-78736827D01*
X136613842Y-78740755D01*
X136631008Y-78745252D01*
X136647867Y-78750328D01*
X136664383Y-78755994D01*
X136680516Y-78762261D01*
X136696230Y-78769139D01*
X136711487Y-78776640D01*
X136726249Y-78784773D01*
X136740478Y-78793550D01*
X136754137Y-78802980D01*
X136767188Y-78813076D01*
X136779594Y-78823846D01*
X136791316Y-78835303D01*
X136802317Y-78847456D01*
X136812559Y-78860316D01*
X136822004Y-78873895D01*
X136830615Y-78888201D01*
X136838355Y-78903247D01*
X136845185Y-78919043D01*
X136851067Y-78935599D01*
X136855965Y-78952927D01*
X136859840Y-78971036D01*
X136862654Y-78989937D01*
X136864370Y-79009642D01*
X136864951Y-79030160D01*
X136863372Y-79062570D01*
X136858771Y-79092298D01*
X136851348Y-79119487D01*
X136841306Y-79144278D01*
X136828845Y-79166811D01*
X136814168Y-79187228D01*
X136797476Y-79205671D01*
X136778970Y-79222280D01*
X136758851Y-79237197D01*
X136737322Y-79250562D01*
X136714584Y-79262518D01*
X136690839Y-79273205D01*
X136666287Y-79282765D01*
X136641131Y-79291339D01*
X136615572Y-79299068D01*
X136589811Y-79306093D01*
X136564050Y-79312556D01*
X136538491Y-79318598D01*
X136513335Y-79324359D01*
X136488783Y-79329982D01*
X136465038Y-79335608D01*
X136442300Y-79341377D01*
X136420771Y-79347431D01*
X136400653Y-79353912D01*
X136382147Y-79360959D01*
X136365454Y-79368716D01*
X136350777Y-79377322D01*
X136338316Y-79386920D01*
X136328274Y-79397649D01*
X136320851Y-79409653D01*
X136316250Y-79423071D01*
X136314672Y-79438046D01*
X136315613Y-79450826D01*
X136318334Y-79462622D01*
X136322678Y-79473454D01*
X136328490Y-79483345D01*
X136335615Y-79492317D01*
X136343896Y-79500393D01*
X136353179Y-79507595D01*
X136363306Y-79513944D01*
X136374124Y-79519463D01*
X136385476Y-79524175D01*
X136397206Y-79528100D01*
X136409159Y-79531262D01*
X136421180Y-79533683D01*
X136433112Y-79535385D01*
X136444800Y-79536390D01*
X136456088Y-79536720D01*
X136475222Y-79536336D01*
X136493243Y-79535152D01*
X136510151Y-79533115D01*
X136525949Y-79530175D01*
X136540640Y-79526280D01*
X136554225Y-79521380D01*
X136566707Y-79515422D01*
X136578087Y-79508357D01*
X136588369Y-79500132D01*
X136597553Y-79490698D01*
X136605643Y-79480001D01*
X136612640Y-79467992D01*
X136618547Y-79454619D01*
X136623365Y-79439831D01*
X136627097Y-79423577D01*
X136629745Y-79405806D01*
X136832711Y-79405806D01*
X136831555Y-79425715D01*
X136829436Y-79444874D01*
X136826379Y-79463290D01*
X136822413Y-79480970D01*
X136817565Y-79497924D01*
X136811862Y-79514157D01*
X136805331Y-79529679D01*
X136798001Y-79544497D01*
X136789899Y-79558619D01*
X136781051Y-79572052D01*
X136771486Y-79584805D01*
X136761231Y-79596885D01*
X136750313Y-79608299D01*
X136738759Y-79619056D01*
X136726598Y-79629164D01*
X136713856Y-79638630D01*
X136700561Y-79647462D01*
X136686740Y-79655668D01*
X136672421Y-79663255D01*
X136657631Y-79670232D01*
X136642397Y-79676606D01*
X136626748Y-79682384D01*
X136610710Y-79687576D01*
X136594310Y-79692188D01*
X136577577Y-79696228D01*
X136560538Y-79699704D01*
X136543219Y-79702625D01*
X136525649Y-79704996D01*
X136507855Y-79706827D01*
X136489864Y-79708126D01*
X136471704Y-79708899D01*
X136453401Y-79709155D01*
X136437103Y-79708884D01*
X136420790Y-79708068D01*
X136404498Y-79706706D01*
X136388263Y-79704796D01*
X136372117Y-79702336D01*
X136356098Y-79699324D01*
X136340239Y-79695759D01*
X136324575Y-79691638D01*
X136309141Y-79686960D01*
X136293972Y-79681723D01*
X136279103Y-79675924D01*
X136264568Y-79669562D01*
X136250403Y-79662635D01*
X136236641Y-79655142D01*
X136223319Y-79647080D01*
X136210471Y-79638447D01*
X136198132Y-79629242D01*
X136186336Y-79619462D01*
X136175119Y-79609106D01*
X136164515Y-79598173D01*
X136154559Y-79586659D01*
X136145286Y-79574563D01*
X136136731Y-79561884D01*
X136128929Y-79548619D01*
X136121914Y-79534766D01*
X136115721Y-79520325D01*
X136110385Y-79505292D01*
X136105942Y-79489666D01*
X136102425Y-79473445D01*
X136099870Y-79456627D01*
X136098311Y-79439210D01*
X136097784Y-79421193D01*
X136099362Y-79389795D01*
X136103961Y-79360996D01*
X136111380Y-79334654D01*
X136121418Y-79310628D01*
X136133873Y-79288778D01*
X136148544Y-79268963D01*
X136165229Y-79251042D01*
X136183727Y-79234874D01*
X136203836Y-79220318D01*
X136225355Y-79207233D01*
X136248083Y-79195478D01*
X136271818Y-79184914D01*
X136296359Y-79175397D01*
X136321504Y-79166789D01*
X136347052Y-79158947D01*
X136372801Y-79151732D01*
X136398551Y-79145002D01*
X136424099Y-79138615D01*
X136449244Y-79132433D01*
X136473784Y-79126312D01*
X136497519Y-79120114D01*
X136520247Y-79113696D01*
X136541767Y-79106918D01*
X136561876Y-79099639D01*
X136580374Y-79091719D01*
X136597059Y-79083015D01*
X136611729Y-79073388D01*
X136624184Y-79062697D01*
X136634222Y-79050800D01*
X136641642Y-79037557D01*
X136646241Y-79022827D01*
X136647819Y-79006468D01*
X136646640Y-78991211D01*
X136643241Y-78977280D01*
X136637829Y-78964628D01*
X136630611Y-78953208D01*
X136621795Y-78942974D01*
X136611587Y-78933877D01*
X136600196Y-78925870D01*
X136587827Y-78918907D01*
X136574688Y-78912940D01*
X136560986Y-78907922D01*
X136546929Y-78903806D01*
X136532723Y-78900543D01*
X136518576Y-78898088D01*
X136504695Y-78896393D01*
X136491287Y-78895411D01*
X136478558Y-78895094D01*
G37*
G36*
X137394713Y-79518646D02*
G01*
X137666311Y-79518646D01*
X137666311Y-79709155D01*
X136913066Y-79709155D01*
X136913066Y-79518646D01*
X137184665Y-79518646D01*
X137184665Y-78724368D01*
X137394713Y-78724368D01*
X137394713Y-79518646D01*
G37*
G36*
X137909577Y-78927090D02*
G01*
X138272278Y-78927090D01*
X138340910Y-78724368D01*
X138566102Y-78724368D01*
X138179710Y-79709155D01*
X138001901Y-79709155D01*
X137762706Y-79099525D01*
X137969661Y-79099525D01*
X138090073Y-79450746D01*
X138210484Y-79099525D01*
X137969661Y-79099525D01*
X137762706Y-79099525D01*
X137615509Y-78724368D01*
X137840945Y-78724368D01*
X137909577Y-78927090D01*
G37*
G36*
X139249494Y-79065087D02*
G01*
X139241521Y-79049292D01*
X139232310Y-79034180D01*
X139221938Y-79019795D01*
X139210483Y-79006186D01*
X139198024Y-78993398D01*
X139184639Y-78981478D01*
X139170404Y-78970473D01*
X139155399Y-78960429D01*
X139139701Y-78951392D01*
X139123389Y-78943409D01*
X139106540Y-78936527D01*
X139089232Y-78930791D01*
X139071544Y-78926250D01*
X139053553Y-78922948D01*
X139035337Y-78920933D01*
X139016974Y-78920251D01*
X139002641Y-78920643D01*
X138988504Y-78921806D01*
X138974579Y-78923721D01*
X138960884Y-78926369D01*
X138947437Y-78929732D01*
X138934253Y-78933791D01*
X138921350Y-78938526D01*
X138908744Y-78943919D01*
X138896454Y-78949952D01*
X138884495Y-78956604D01*
X138872886Y-78963857D01*
X138861642Y-78971693D01*
X138850781Y-78980093D01*
X138840319Y-78989037D01*
X138830275Y-78998507D01*
X138820664Y-79008483D01*
X138811504Y-79018948D01*
X138802812Y-79029882D01*
X138794605Y-79041266D01*
X138786900Y-79053082D01*
X138779713Y-79065310D01*
X138773062Y-79077931D01*
X138766964Y-79090928D01*
X138761435Y-79104280D01*
X138756494Y-79117969D01*
X138752156Y-79131977D01*
X138748439Y-79146284D01*
X138745359Y-79160871D01*
X138742934Y-79175720D01*
X138741182Y-79190811D01*
X138740117Y-79206126D01*
X138739759Y-79221646D01*
X138740117Y-79236944D01*
X138741182Y-79252007D01*
X138742934Y-79266818D01*
X138745359Y-79281360D01*
X138748439Y-79295618D01*
X138752156Y-79309575D01*
X138756494Y-79323215D01*
X138761435Y-79336521D01*
X138766964Y-79349476D01*
X138773062Y-79362065D01*
X138779713Y-79374271D01*
X138786900Y-79386077D01*
X138794605Y-79397467D01*
X138802812Y-79408425D01*
X138811504Y-79418934D01*
X138820664Y-79428978D01*
X138830275Y-79438540D01*
X138840319Y-79447605D01*
X138850781Y-79456155D01*
X138861642Y-79464174D01*
X138872886Y-79471646D01*
X138884495Y-79478555D01*
X138896454Y-79484883D01*
X138908744Y-79490615D01*
X138921350Y-79495734D01*
X138934253Y-79500224D01*
X138947437Y-79504068D01*
X138960884Y-79507250D01*
X138974579Y-79509753D01*
X138988504Y-79511562D01*
X139002641Y-79512659D01*
X139016974Y-79513028D01*
X139035079Y-79512438D01*
X139053069Y-79510686D01*
X139070864Y-79507804D01*
X139088385Y-79503819D01*
X139105551Y-79498763D01*
X139122281Y-79492665D01*
X139138497Y-79485554D01*
X139154117Y-79477460D01*
X139169061Y-79468413D01*
X139183250Y-79458443D01*
X139196604Y-79447579D01*
X139209041Y-79435851D01*
X139220482Y-79423289D01*
X139230847Y-79409922D01*
X139240056Y-79395780D01*
X139248028Y-79380893D01*
X139482013Y-79380893D01*
X139475622Y-79398381D01*
X139468550Y-79415572D01*
X139460812Y-79432448D01*
X139452424Y-79448994D01*
X139443401Y-79465191D01*
X139433759Y-79481023D01*
X139423515Y-79496473D01*
X139412682Y-79511524D01*
X139401278Y-79526160D01*
X139389316Y-79540363D01*
X139376815Y-79554117D01*
X139363787Y-79567404D01*
X139350250Y-79580207D01*
X139336220Y-79592511D01*
X139321710Y-79604297D01*
X139306738Y-79615549D01*
X139291319Y-79626250D01*
X139275468Y-79636384D01*
X139259201Y-79645932D01*
X139242533Y-79654879D01*
X139225481Y-79663207D01*
X139208060Y-79670900D01*
X139190285Y-79677940D01*
X139172172Y-79684311D01*
X139153736Y-79689996D01*
X139134994Y-79694977D01*
X139115961Y-79699239D01*
X139096652Y-79702764D01*
X139077084Y-79705535D01*
X139057271Y-79707535D01*
X139037229Y-79708747D01*
X139016974Y-79709155D01*
X138991802Y-79708519D01*
X138966956Y-79706632D01*
X138942466Y-79703524D01*
X138918364Y-79699227D01*
X138894681Y-79693771D01*
X138871449Y-79687188D01*
X138848697Y-79679509D01*
X138826457Y-79670763D01*
X138804761Y-79660983D01*
X138783638Y-79650199D01*
X138763121Y-79638443D01*
X138743240Y-79625744D01*
X138724026Y-79612135D01*
X138705511Y-79597646D01*
X138687725Y-79582307D01*
X138670699Y-79566151D01*
X138654465Y-79549207D01*
X138639053Y-79531508D01*
X138624494Y-79513083D01*
X138610820Y-79493964D01*
X138598062Y-79474181D01*
X138586250Y-79453767D01*
X138575416Y-79432750D01*
X138565591Y-79411164D01*
X138556805Y-79389037D01*
X138549090Y-79366402D01*
X138542477Y-79343290D01*
X138536996Y-79319731D01*
X138532680Y-79295756D01*
X138529558Y-79271396D01*
X138527662Y-79246683D01*
X138527023Y-79221646D01*
X138527662Y-79195851D01*
X138529558Y-79170418D01*
X138532680Y-79145377D01*
X138536996Y-79120758D01*
X138542477Y-79096591D01*
X138549090Y-79072905D01*
X138556805Y-79049731D01*
X138565591Y-79027099D01*
X138575416Y-79005039D01*
X138586250Y-78983581D01*
X138598062Y-78962754D01*
X138610820Y-78942588D01*
X138624494Y-78923115D01*
X138639053Y-78904363D01*
X138654465Y-78886362D01*
X138670699Y-78869143D01*
X138687725Y-78852735D01*
X138705511Y-78837169D01*
X138724026Y-78822474D01*
X138743240Y-78808680D01*
X138763121Y-78795818D01*
X138783638Y-78783917D01*
X138804761Y-78773007D01*
X138826457Y-78763119D01*
X138848697Y-78754281D01*
X138871449Y-78746525D01*
X138894681Y-78739879D01*
X138918364Y-78734375D01*
X138942466Y-78730042D01*
X138966956Y-78726910D01*
X138991802Y-78725008D01*
X139016974Y-78724368D01*
X139037233Y-78724779D01*
X139057287Y-78726002D01*
X139077120Y-78728022D01*
X139096715Y-78730824D01*
X139116056Y-78734392D01*
X139135128Y-78738711D01*
X139153913Y-78743767D01*
X139172397Y-78749544D01*
X139190562Y-78756027D01*
X139208392Y-78763200D01*
X139225871Y-78771049D01*
X139242984Y-78779559D01*
X139259713Y-78788713D01*
X139276043Y-78798498D01*
X139291958Y-78808898D01*
X139307440Y-78819897D01*
X139322475Y-78831482D01*
X139337045Y-78843635D01*
X139351136Y-78856343D01*
X139364729Y-78869590D01*
X139377810Y-78883361D01*
X139390363Y-78897641D01*
X139402370Y-78912414D01*
X139413816Y-78927666D01*
X139424684Y-78943381D01*
X139434959Y-78959544D01*
X139444624Y-78976141D01*
X139453662Y-78993155D01*
X139462059Y-79010572D01*
X139469797Y-79028376D01*
X139476861Y-79046553D01*
X139483234Y-79065087D01*
X139249494Y-79065087D01*
G37*
G36*
X139782187Y-79164494D02*
G01*
X140083339Y-78724368D01*
X140366172Y-78724368D01*
X139986618Y-79216762D01*
X140352006Y-79709155D01*
X140083339Y-79709155D01*
X139782187Y-79268785D01*
X139782187Y-79709155D01*
X139572138Y-79709155D01*
X139572138Y-78724368D01*
X139782187Y-78724368D01*
X139782187Y-79164494D01*
G37*
G36*
X140435781Y-78724368D02*
G01*
X140987526Y-78724368D01*
X140987526Y-78914633D01*
X140645830Y-78914633D01*
X140645830Y-79709155D01*
X140435781Y-79709155D01*
X140435781Y-78724368D01*
G37*
G36*
X141329710Y-78724368D02*
G01*
X141329710Y-79709155D01*
X141119661Y-79709155D01*
X141119661Y-78724368D01*
X141329710Y-78724368D01*
G37*
G36*
X141973778Y-79513028D02*
G01*
X141991154Y-79512599D01*
X142008516Y-79511287D01*
X142025790Y-79509059D01*
X142042899Y-79505880D01*
X142059768Y-79501715D01*
X142076320Y-79496529D01*
X142092481Y-79490287D01*
X142108173Y-79482956D01*
X142123321Y-79474499D01*
X142137850Y-79464883D01*
X142151684Y-79454073D01*
X142164746Y-79442034D01*
X142176960Y-79428731D01*
X142188252Y-79414129D01*
X142198545Y-79398195D01*
X142207763Y-79380893D01*
X142438817Y-79380893D01*
X142432277Y-79398639D01*
X142425034Y-79416055D01*
X142417108Y-79433125D01*
X142408516Y-79449835D01*
X142399278Y-79466169D01*
X142389412Y-79482111D01*
X142378937Y-79497647D01*
X142367872Y-79512761D01*
X142356235Y-79527438D01*
X142344044Y-79541662D01*
X142331320Y-79555418D01*
X142318080Y-79568692D01*
X142304342Y-79581467D01*
X142290127Y-79593728D01*
X142275452Y-79605460D01*
X142260336Y-79616648D01*
X142244798Y-79627277D01*
X142228857Y-79637330D01*
X142212530Y-79646794D01*
X142195838Y-79655652D01*
X142178798Y-79663889D01*
X142161430Y-79671490D01*
X142143751Y-79678440D01*
X142125781Y-79684723D01*
X142107539Y-79690325D01*
X142089042Y-79695229D01*
X142070311Y-79699420D01*
X142051363Y-79702884D01*
X142032217Y-79705605D01*
X142012891Y-79707567D01*
X141993406Y-79708756D01*
X141973778Y-79709155D01*
X141948735Y-79708515D01*
X141924001Y-79706615D01*
X141899608Y-79703485D01*
X141875589Y-79699154D01*
X141851974Y-79693650D01*
X141828797Y-79687005D01*
X141806088Y-79679246D01*
X141783879Y-79670404D01*
X141762203Y-79660509D01*
X141741092Y-79649588D01*
X141720576Y-79637673D01*
X141700688Y-79624791D01*
X141681460Y-79610974D01*
X141662923Y-79596249D01*
X141645110Y-79580647D01*
X141628053Y-79564197D01*
X141611782Y-79546928D01*
X141596330Y-79528871D01*
X141581729Y-79510053D01*
X141568011Y-79490505D01*
X141555207Y-79470257D01*
X141543349Y-79449336D01*
X141532470Y-79427774D01*
X141522601Y-79405599D01*
X141513773Y-79382841D01*
X141506019Y-79359530D01*
X141499371Y-79335694D01*
X141493860Y-79311363D01*
X141489518Y-79286566D01*
X141486378Y-79261334D01*
X141484470Y-79235695D01*
X141483827Y-79209678D01*
X141484470Y-79184971D01*
X141486378Y-79160557D01*
X141489518Y-79136469D01*
X141493860Y-79112740D01*
X141499371Y-79089402D01*
X141506019Y-79066486D01*
X141513773Y-79044025D01*
X141522601Y-79022050D01*
X141532470Y-79000595D01*
X141543349Y-78979692D01*
X141555207Y-78959371D01*
X141568011Y-78939667D01*
X141581729Y-78920610D01*
X141596330Y-78902233D01*
X141611782Y-78884568D01*
X141628053Y-78867647D01*
X141645110Y-78851503D01*
X141662923Y-78836167D01*
X141681460Y-78821672D01*
X141700688Y-78808049D01*
X141720576Y-78795332D01*
X141741092Y-78783552D01*
X141762203Y-78772741D01*
X141783879Y-78762932D01*
X141806088Y-78754156D01*
X141828797Y-78746446D01*
X141851974Y-78739834D01*
X141875589Y-78734352D01*
X141899608Y-78730032D01*
X141924001Y-78726907D01*
X141948735Y-78725008D01*
X141973778Y-78724368D01*
X141999098Y-78725004D01*
X142024065Y-78726891D01*
X142048652Y-78729997D01*
X142072827Y-78734292D01*
X142096562Y-78739743D01*
X142119826Y-78746320D01*
X142142591Y-78753992D01*
X142164826Y-78762726D01*
X142186502Y-78772491D01*
X142207589Y-78783257D01*
X142228057Y-78794991D01*
X142247877Y-78807663D01*
X142267020Y-78821241D01*
X142285455Y-78835693D01*
X142303153Y-78850989D01*
X142320084Y-78867097D01*
X142336219Y-78883986D01*
X142351528Y-78901624D01*
X142365981Y-78919980D01*
X142379548Y-78939023D01*
X142392201Y-78958720D01*
X142403909Y-78979042D01*
X142414642Y-78999957D01*
X142424372Y-79021432D01*
X142433068Y-79043438D01*
X142440701Y-79065942D01*
X142447241Y-79088913D01*
X142452658Y-79112320D01*
X142456923Y-79136131D01*
X142460006Y-79160316D01*
X142461878Y-79184842D01*
X142462508Y-79209678D01*
X142462508Y-79241919D01*
X141993562Y-79241919D01*
X141993562Y-79083893D01*
X142235607Y-79083893D01*
X142230563Y-79071030D01*
X142225150Y-79058809D01*
X142219386Y-79047213D01*
X142213287Y-79036229D01*
X142206869Y-79025840D01*
X142200149Y-79016032D01*
X142193143Y-79006789D01*
X142185869Y-78998095D01*
X142178342Y-78989937D01*
X142170580Y-78982297D01*
X142162599Y-78975161D01*
X142154415Y-78968514D01*
X142146046Y-78962341D01*
X142137507Y-78956625D01*
X142128816Y-78951352D01*
X142119988Y-78946507D01*
X142111041Y-78942074D01*
X142101991Y-78938037D01*
X142092855Y-78934382D01*
X142083649Y-78931094D01*
X142065094Y-78925554D01*
X142046460Y-78921296D01*
X142027878Y-78918198D01*
X142009482Y-78916136D01*
X141991405Y-78914988D01*
X141973778Y-78914633D01*
X141959681Y-78915018D01*
X141945750Y-78916159D01*
X141932004Y-78918037D01*
X141918460Y-78920634D01*
X141905137Y-78923929D01*
X141892054Y-78927904D01*
X141879230Y-78932540D01*
X141866682Y-78937817D01*
X141854429Y-78943716D01*
X141842490Y-78950219D01*
X141830883Y-78957305D01*
X141819626Y-78964955D01*
X141808739Y-78973151D01*
X141798239Y-78981874D01*
X141788145Y-78991103D01*
X141778476Y-79000820D01*
X141769249Y-79011006D01*
X141760484Y-79021642D01*
X141752199Y-79032708D01*
X141744412Y-79044184D01*
X141737142Y-79056053D01*
X141730407Y-79068295D01*
X141724226Y-79080890D01*
X141718617Y-79093820D01*
X141713599Y-79107064D01*
X141709190Y-79120605D01*
X141705409Y-79134423D01*
X141702273Y-79148498D01*
X141699803Y-79162812D01*
X141698015Y-79177345D01*
X141696929Y-79192078D01*
X141696563Y-79206992D01*
X141696929Y-79223385D01*
X141698015Y-79239489D01*
X141699803Y-79255290D01*
X141702273Y-79270772D01*
X141705409Y-79285919D01*
X141709190Y-79300717D01*
X141713599Y-79315151D01*
X141718617Y-79329205D01*
X141724226Y-79342864D01*
X141730407Y-79356112D01*
X141737142Y-79368936D01*
X141744412Y-79381318D01*
X141752199Y-79393245D01*
X141760484Y-79404701D01*
X141769249Y-79415671D01*
X141778476Y-79426139D01*
X141788145Y-79436090D01*
X141798239Y-79445510D01*
X141808739Y-79454383D01*
X141819626Y-79462693D01*
X141830883Y-79470426D01*
X141842490Y-79477566D01*
X141854429Y-79484099D01*
X141866682Y-79490008D01*
X141879230Y-79495279D01*
X141892054Y-79499897D01*
X141905137Y-79503846D01*
X141918460Y-79507111D01*
X141932004Y-79509677D01*
X141945750Y-79511529D01*
X141959681Y-79512651D01*
X141973778Y-79513028D01*
G37*
G36*
X143118545Y-79709155D02*
G01*
X143118545Y-79318367D01*
X142804937Y-79318367D01*
X142804937Y-79709155D01*
X142594888Y-79709155D01*
X142594888Y-78724368D01*
X142804937Y-78724368D01*
X142804937Y-79127857D01*
X143118545Y-79127857D01*
X143118545Y-78724368D01*
X143342759Y-78724368D01*
X143342759Y-79709155D01*
X143118545Y-79709155D01*
G37*
G36*
X143915020Y-79518646D02*
G01*
X144186618Y-79518646D01*
X144186618Y-79709155D01*
X143433374Y-79709155D01*
X143433374Y-79518646D01*
X143704972Y-79518646D01*
X143704972Y-78724368D01*
X143915020Y-78724368D01*
X143915020Y-79518646D01*
G37*
G36*
X144844120Y-78927090D02*
G01*
X145206821Y-78927090D01*
X145275453Y-78724368D01*
X145500645Y-78724368D01*
X145114253Y-79709155D01*
X144936444Y-79709155D01*
X144697249Y-79099525D01*
X144904204Y-79099525D01*
X145024616Y-79450746D01*
X145145027Y-79099525D01*
X144904204Y-79099525D01*
X144697249Y-79099525D01*
X144550052Y-78724368D01*
X144775488Y-78724368D01*
X144844120Y-78927090D01*
G37*
G36*
X145899239Y-78724973D02*
G01*
X145923965Y-78726772D01*
X145948247Y-78729740D01*
X145972059Y-78733855D01*
X145995377Y-78739091D01*
X146018176Y-78745425D01*
X146040431Y-78752833D01*
X146062117Y-78761291D01*
X146083210Y-78770774D01*
X146103684Y-78781259D01*
X146123516Y-78792722D01*
X146142679Y-78805138D01*
X146161149Y-78818485D01*
X146178902Y-78832736D01*
X146195912Y-78847870D01*
X146212155Y-78863861D01*
X146227606Y-78880686D01*
X146242240Y-78898320D01*
X146256032Y-78916740D01*
X146268957Y-78935922D01*
X146280991Y-78955841D01*
X146292109Y-78976474D01*
X146302286Y-78997796D01*
X146311497Y-79019783D01*
X146319717Y-79042413D01*
X146326922Y-79065659D01*
X146333086Y-79089499D01*
X146338186Y-79113909D01*
X146342195Y-79138864D01*
X146345090Y-79164340D01*
X146346844Y-79190314D01*
X146347435Y-79216762D01*
X146346840Y-79243187D01*
X146345073Y-79269142D01*
X146342160Y-79294603D01*
X146338126Y-79319544D01*
X146332996Y-79343942D01*
X146326796Y-79367773D01*
X146319553Y-79391013D01*
X146311291Y-79413637D01*
X146302036Y-79435621D01*
X146291814Y-79456941D01*
X146280650Y-79477574D01*
X146268571Y-79497494D01*
X146255601Y-79516678D01*
X146241766Y-79535101D01*
X146227093Y-79552740D01*
X146211605Y-79569570D01*
X146195330Y-79585568D01*
X146178293Y-79600708D01*
X146160520Y-79614967D01*
X146142035Y-79628320D01*
X146122865Y-79640744D01*
X146103035Y-79652215D01*
X146082571Y-79662707D01*
X146061499Y-79672198D01*
X146039844Y-79680663D01*
X146017632Y-79688077D01*
X145994888Y-79694417D01*
X145971638Y-79699658D01*
X145947908Y-79703777D01*
X145923723Y-79706749D01*
X145899110Y-79708549D01*
X145874092Y-79709155D01*
X145591259Y-79709155D01*
X145591259Y-78917564D01*
X145798621Y-78917564D01*
X145798621Y-79514494D01*
X145861636Y-79514494D01*
X145876705Y-79514114D01*
X145891452Y-79512988D01*
X145905867Y-79511132D01*
X145919939Y-79508563D01*
X145933658Y-79505298D01*
X145947014Y-79501354D01*
X145959996Y-79496750D01*
X145972595Y-79491500D01*
X145984799Y-79485624D01*
X145996600Y-79479138D01*
X146007986Y-79472058D01*
X146018948Y-79464403D01*
X146029475Y-79456189D01*
X146039556Y-79447434D01*
X146049182Y-79438154D01*
X146058343Y-79428367D01*
X146067028Y-79418090D01*
X146075226Y-79407340D01*
X146082929Y-79396134D01*
X146090125Y-79384489D01*
X146096804Y-79372423D01*
X146102956Y-79359952D01*
X146108570Y-79347093D01*
X146113637Y-79333865D01*
X146118147Y-79320283D01*
X146122088Y-79306365D01*
X146125451Y-79292128D01*
X146128226Y-79277590D01*
X146130401Y-79262767D01*
X146131968Y-79247676D01*
X146132916Y-79232336D01*
X146133234Y-79216762D01*
X146132912Y-79201162D01*
X146131952Y-79185790D01*
X146130366Y-79170664D01*
X146128165Y-79155800D01*
X146125360Y-79141217D01*
X146121962Y-79126932D01*
X146117982Y-79112963D01*
X146113431Y-79099327D01*
X146108320Y-79086041D01*
X146102660Y-79073123D01*
X146096463Y-79060592D01*
X146089738Y-79048463D01*
X146082498Y-79036755D01*
X146074753Y-79025486D01*
X146066515Y-79014672D01*
X146057793Y-79004331D01*
X146048601Y-78994482D01*
X146038948Y-78985141D01*
X146028845Y-78976325D01*
X146018304Y-78968054D01*
X146007335Y-78960343D01*
X145995951Y-78953211D01*
X145984161Y-78946674D01*
X145971976Y-78940752D01*
X145959409Y-78935460D01*
X145946469Y-78930818D01*
X145933169Y-78926841D01*
X145919518Y-78923548D01*
X145905528Y-78920956D01*
X145891211Y-78919083D01*
X145876576Y-78917947D01*
X145861636Y-78917564D01*
X145798621Y-78917564D01*
X145591259Y-78917564D01*
X145591259Y-78724368D01*
X145874092Y-78724368D01*
X145899239Y-78724973D01*
G37*
G36*
X146667149Y-78927090D02*
G01*
X147029849Y-78927090D01*
X147098482Y-78724368D01*
X147323674Y-78724368D01*
X146937281Y-79709155D01*
X146759473Y-79709155D01*
X146520277Y-79099525D01*
X146727233Y-79099525D01*
X146847644Y-79450746D01*
X146968056Y-79099525D01*
X146727233Y-79099525D01*
X146520277Y-79099525D01*
X146373080Y-78724368D01*
X146598517Y-78724368D01*
X146667149Y-78927090D01*
G37*
G36*
X147594050Y-79083893D02*
G01*
X147741085Y-79083893D01*
X147755480Y-79084225D01*
X147769755Y-79085215D01*
X147783887Y-79086860D01*
X147797853Y-79089154D01*
X147811633Y-79092092D01*
X147825204Y-79095671D01*
X147838544Y-79099884D01*
X147851631Y-79104727D01*
X147864443Y-79110195D01*
X147876958Y-79116283D01*
X147889153Y-79122986D01*
X147901007Y-79130300D01*
X147912498Y-79138219D01*
X147923603Y-79146740D01*
X147934301Y-79155855D01*
X147944569Y-79165562D01*
X147954386Y-79175855D01*
X147963730Y-79186729D01*
X147972578Y-79198179D01*
X147980908Y-79210201D01*
X147988698Y-79222789D01*
X147995927Y-79235939D01*
X148002572Y-79249646D01*
X148008611Y-79263904D01*
X148014022Y-79278710D01*
X148018783Y-79294058D01*
X148022872Y-79309943D01*
X148026267Y-79326360D01*
X148028946Y-79343305D01*
X148030887Y-79360773D01*
X148032068Y-79378759D01*
X148032466Y-79397257D01*
X148032068Y-79414612D01*
X148030887Y-79431591D01*
X148028946Y-79448182D01*
X148026267Y-79464374D01*
X148022872Y-79480155D01*
X148018783Y-79495514D01*
X148014022Y-79510439D01*
X148008611Y-79524920D01*
X148002572Y-79538943D01*
X147995927Y-79552499D01*
X147988698Y-79565575D01*
X147980908Y-79578161D01*
X147972578Y-79590244D01*
X147963730Y-79601813D01*
X147954386Y-79612857D01*
X147944569Y-79623365D01*
X147934301Y-79633324D01*
X147923603Y-79642724D01*
X147912498Y-79651553D01*
X147901007Y-79659799D01*
X147889153Y-79667451D01*
X147876958Y-79674498D01*
X147864443Y-79680929D01*
X147851631Y-79686731D01*
X147838544Y-79691893D01*
X147825204Y-79696404D01*
X147811633Y-79700252D01*
X147797853Y-79703427D01*
X147783887Y-79705916D01*
X147769755Y-79707708D01*
X147755480Y-79708791D01*
X147741085Y-79709155D01*
X147594050Y-79709155D01*
X147542271Y-79709155D01*
X147384002Y-79709155D01*
X147384002Y-79249002D01*
X147594050Y-79249002D01*
X147594050Y-79543803D01*
X147706158Y-79543803D01*
X147717716Y-79543155D01*
X147729245Y-79541232D01*
X147740644Y-79538065D01*
X147751816Y-79533682D01*
X147762662Y-79528114D01*
X147773082Y-79521392D01*
X147782979Y-79513544D01*
X147792254Y-79504602D01*
X147800807Y-79494595D01*
X147808540Y-79483553D01*
X147815354Y-79471507D01*
X147821150Y-79458486D01*
X147825831Y-79444520D01*
X147829296Y-79429640D01*
X147831448Y-79413876D01*
X147832187Y-79397257D01*
X147831448Y-79379854D01*
X147829296Y-79363468D01*
X147825831Y-79348113D01*
X147821150Y-79333803D01*
X147815354Y-79320555D01*
X147808540Y-79308381D01*
X147800807Y-79297297D01*
X147792254Y-79287317D01*
X147782979Y-79278457D01*
X147773082Y-79270730D01*
X147762662Y-79264152D01*
X147751816Y-79258737D01*
X147740644Y-79254500D01*
X147729245Y-79251455D01*
X147717716Y-79249617D01*
X147706158Y-79249002D01*
X147594050Y-79249002D01*
X147384002Y-79249002D01*
X147384002Y-78724368D01*
X147594050Y-78724368D01*
X147594050Y-79083893D01*
G37*
G36*
X148541957Y-79518646D02*
G01*
X148813555Y-79518646D01*
X148813555Y-79709155D01*
X148060310Y-79709155D01*
X148060310Y-79518646D01*
X148331908Y-79518646D01*
X148331908Y-78724368D01*
X148541957Y-78724368D01*
X148541957Y-79518646D01*
G37*
G36*
X149455914Y-78914633D02*
G01*
X149114218Y-78914633D01*
X149114218Y-79127857D01*
X149441992Y-79127857D01*
X149441992Y-79318367D01*
X149114218Y-79318367D01*
X149114218Y-79518646D01*
X149455914Y-79518646D01*
X149455914Y-79709155D01*
X148904169Y-79709155D01*
X148904169Y-78724368D01*
X149455914Y-78724368D01*
X149455914Y-78914633D01*
G37*
G36*
X149833269Y-79078520D02*
G01*
X149834734Y-79078520D01*
X150061636Y-78724368D01*
X150327616Y-78724368D01*
X150054553Y-79088778D01*
X150065770Y-79091897D01*
X150076835Y-79095479D01*
X150087734Y-79099521D01*
X150098454Y-79104018D01*
X150108982Y-79108967D01*
X150119304Y-79114363D01*
X150129408Y-79120202D01*
X150139278Y-79126479D01*
X150148903Y-79133192D01*
X150158269Y-79140335D01*
X150167363Y-79147904D01*
X150176170Y-79155896D01*
X150184678Y-79164306D01*
X150192874Y-79173129D01*
X150200743Y-79182363D01*
X150208273Y-79192001D01*
X150215451Y-79202042D01*
X150222262Y-79212479D01*
X150228693Y-79223310D01*
X150234732Y-79234530D01*
X150240365Y-79246134D01*
X150245577Y-79258119D01*
X150250357Y-79270481D01*
X150254691Y-79283215D01*
X150258565Y-79296317D01*
X150261965Y-79309783D01*
X150264879Y-79323609D01*
X150267294Y-79337790D01*
X150269195Y-79352323D01*
X150270569Y-79367204D01*
X150271404Y-79382427D01*
X150271685Y-79397990D01*
X150271286Y-79415278D01*
X150270106Y-79432195D01*
X150268165Y-79448728D01*
X150265486Y-79464865D01*
X150262091Y-79480595D01*
X150258001Y-79495907D01*
X150253240Y-79510789D01*
X150247829Y-79525229D01*
X150241790Y-79539215D01*
X150235145Y-79552737D01*
X150227917Y-79565782D01*
X150220126Y-79578340D01*
X150211796Y-79590397D01*
X150202948Y-79601944D01*
X150193605Y-79612967D01*
X150183788Y-79623456D01*
X150173519Y-79633400D01*
X150162821Y-79642785D01*
X150151716Y-79651602D01*
X150140225Y-79659838D01*
X150128371Y-79667481D01*
X150116176Y-79674521D01*
X150103661Y-79680945D01*
X150090850Y-79686742D01*
X150077763Y-79691900D01*
X150064423Y-79696409D01*
X150050852Y-79700255D01*
X150037072Y-79703428D01*
X150023105Y-79705916D01*
X150008973Y-79707708D01*
X149994699Y-79708791D01*
X149980303Y-79709155D01*
X149833269Y-79709155D01*
X149781489Y-79709155D01*
X149623220Y-79709155D01*
X149623220Y-79250711D01*
X149833269Y-79250711D01*
X149833269Y-79543803D01*
X149945376Y-79543803D01*
X149956935Y-79543158D01*
X149968463Y-79541244D01*
X149979863Y-79538090D01*
X149991034Y-79533728D01*
X150001880Y-79528186D01*
X150012301Y-79521495D01*
X150022198Y-79513684D01*
X150031472Y-79504785D01*
X150040025Y-79494827D01*
X150047758Y-79483839D01*
X150054572Y-79471853D01*
X150060369Y-79458898D01*
X150065049Y-79445004D01*
X150068515Y-79430201D01*
X150070666Y-79414520D01*
X150071406Y-79397990D01*
X150070666Y-79380719D01*
X150068515Y-79364453D01*
X150065049Y-79349208D01*
X150060369Y-79334998D01*
X150054572Y-79321839D01*
X150047758Y-79309745D01*
X150040025Y-79298731D01*
X150031472Y-79288813D01*
X150022198Y-79280006D01*
X150012301Y-79272324D01*
X150001880Y-79265783D01*
X149991034Y-79260397D01*
X149979863Y-79256182D01*
X149968463Y-79253153D01*
X149956935Y-79251324D01*
X149945376Y-79250711D01*
X149833269Y-79250711D01*
X149623220Y-79250711D01*
X149623220Y-78724368D01*
X149833269Y-78724368D01*
X149833269Y-79078520D01*
G37*
G36*
X136982431Y-78029155D02*
G01*
X136755774Y-78029155D01*
X136558426Y-77475945D01*
X136506402Y-77320851D01*
X136454623Y-77475945D01*
X136258740Y-78029155D01*
X136031838Y-78029155D01*
X136417009Y-77044368D01*
X136597505Y-77044368D01*
X136982431Y-78029155D01*
G37*
G36*
X137624790Y-77234633D02*
G01*
X137283094Y-77234633D01*
X137283094Y-77447857D01*
X137610868Y-77447857D01*
X137610868Y-77638367D01*
X137283094Y-77638367D01*
X137283094Y-77838646D01*
X137624790Y-77838646D01*
X137624790Y-78029155D01*
X137073046Y-78029155D01*
X137073046Y-77044368D01*
X137624790Y-77044368D01*
X137624790Y-77234633D01*
G37*
G36*
X138002145Y-77398520D02*
G01*
X138003611Y-77398520D01*
X138230512Y-77044368D01*
X138496493Y-77044368D01*
X138223429Y-77408778D01*
X138234646Y-77411897D01*
X138245711Y-77415479D01*
X138256610Y-77419521D01*
X138267331Y-77424018D01*
X138277859Y-77428967D01*
X138288181Y-77434363D01*
X138298284Y-77440202D01*
X138308155Y-77446479D01*
X138317780Y-77453192D01*
X138327146Y-77460335D01*
X138336239Y-77467904D01*
X138345047Y-77475896D01*
X138353555Y-77484306D01*
X138361750Y-77493129D01*
X138369620Y-77502363D01*
X138377150Y-77512001D01*
X138384327Y-77522042D01*
X138391138Y-77532479D01*
X138397570Y-77543310D01*
X138403609Y-77554530D01*
X138409241Y-77566134D01*
X138414454Y-77578119D01*
X138419234Y-77590481D01*
X138423567Y-77603215D01*
X138427441Y-77616317D01*
X138430842Y-77629783D01*
X138433756Y-77643609D01*
X138436170Y-77657790D01*
X138438071Y-77672323D01*
X138439446Y-77687204D01*
X138440280Y-77702427D01*
X138440561Y-77717990D01*
X138440163Y-77735278D01*
X138438982Y-77752195D01*
X138437041Y-77768728D01*
X138434362Y-77784865D01*
X138430967Y-77800595D01*
X138426878Y-77815907D01*
X138422117Y-77830789D01*
X138416706Y-77845229D01*
X138410667Y-77859215D01*
X138404022Y-77872737D01*
X138396793Y-77885782D01*
X138389003Y-77898340D01*
X138380673Y-77910397D01*
X138371825Y-77921944D01*
X138362481Y-77932967D01*
X138352664Y-77943456D01*
X138342396Y-77953400D01*
X138331698Y-77962785D01*
X138320593Y-77971602D01*
X138309102Y-77979838D01*
X138297248Y-77987481D01*
X138285052Y-77994521D01*
X138272538Y-78000945D01*
X138259726Y-78006742D01*
X138246639Y-78011900D01*
X138233299Y-78016409D01*
X138219728Y-78020255D01*
X138205948Y-78023428D01*
X138191981Y-78025916D01*
X138177850Y-78027708D01*
X138163575Y-78028791D01*
X138149180Y-78029155D01*
X138002145Y-78029155D01*
X137950366Y-78029155D01*
X137792096Y-78029155D01*
X137792096Y-77570711D01*
X138002145Y-77570711D01*
X138002145Y-77863803D01*
X138114253Y-77863803D01*
X138125811Y-77863158D01*
X138137339Y-77861244D01*
X138148739Y-77858090D01*
X138159911Y-77853728D01*
X138170757Y-77848186D01*
X138181177Y-77841495D01*
X138191074Y-77833684D01*
X138200348Y-77824785D01*
X138208901Y-77814827D01*
X138216634Y-77803839D01*
X138223449Y-77791853D01*
X138229245Y-77778898D01*
X138233926Y-77765004D01*
X138237391Y-77750201D01*
X138239543Y-77734520D01*
X138240282Y-77717990D01*
X138239543Y-77700719D01*
X138237391Y-77684453D01*
X138233926Y-77669208D01*
X138229245Y-77654998D01*
X138223449Y-77641839D01*
X138216634Y-77629745D01*
X138208901Y-77618731D01*
X138200348Y-77608813D01*
X138191074Y-77600006D01*
X138181177Y-77592324D01*
X138170757Y-77585783D01*
X138159911Y-77580397D01*
X138148739Y-77576182D01*
X138137339Y-77573153D01*
X138125811Y-77571324D01*
X138114253Y-77570711D01*
X138002145Y-77570711D01*
X137792096Y-77570711D01*
X137792096Y-77044368D01*
X138002145Y-77044368D01*
X138002145Y-77398520D01*
G37*
G36*
X138932711Y-77215094D02*
G01*
X138913474Y-77215700D01*
X138894665Y-77217528D01*
X138876389Y-77220592D01*
X138858747Y-77224905D01*
X138841842Y-77230483D01*
X138825777Y-77237337D01*
X138810654Y-77245484D01*
X138796576Y-77254936D01*
X138783646Y-77265707D01*
X138771966Y-77277812D01*
X138761639Y-77291264D01*
X138752768Y-77306078D01*
X138745456Y-77322267D01*
X138739805Y-77339845D01*
X138735918Y-77358826D01*
X138734668Y-77368848D01*
X138733897Y-77379225D01*
X138520917Y-77379225D01*
X138521607Y-77357914D01*
X138523382Y-77337348D01*
X138526210Y-77317521D01*
X138530060Y-77298429D01*
X138534899Y-77280068D01*
X138540696Y-77262433D01*
X138547420Y-77245520D01*
X138555039Y-77229325D01*
X138563521Y-77213842D01*
X138572835Y-77199069D01*
X138582948Y-77184999D01*
X138593831Y-77171629D01*
X138605450Y-77158955D01*
X138617774Y-77146972D01*
X138630772Y-77135675D01*
X138644412Y-77125060D01*
X138658663Y-77115122D01*
X138673492Y-77105858D01*
X138688868Y-77097263D01*
X138704760Y-77089332D01*
X138721136Y-77082061D01*
X138737964Y-77075445D01*
X138755212Y-77069481D01*
X138772850Y-77064163D01*
X138790845Y-77059487D01*
X138809166Y-77055450D01*
X138827781Y-77052045D01*
X138846658Y-77049270D01*
X138865767Y-77047118D01*
X138885075Y-77045587D01*
X138904550Y-77044672D01*
X138924162Y-77044368D01*
X138942422Y-77044612D01*
X138960677Y-77045350D01*
X138978889Y-77046593D01*
X138997021Y-77048351D01*
X139015036Y-77050636D01*
X139032894Y-77053458D01*
X139050560Y-77056827D01*
X139067994Y-77060755D01*
X139085160Y-77065252D01*
X139102020Y-77070328D01*
X139118535Y-77075994D01*
X139134668Y-77082261D01*
X139150382Y-77089139D01*
X139165639Y-77096640D01*
X139180401Y-77104773D01*
X139194631Y-77113550D01*
X139208290Y-77122980D01*
X139221341Y-77133076D01*
X139233746Y-77143846D01*
X139245468Y-77155303D01*
X139256469Y-77167456D01*
X139266711Y-77180316D01*
X139276156Y-77193895D01*
X139284768Y-77208201D01*
X139292507Y-77223247D01*
X139299337Y-77239043D01*
X139305219Y-77255599D01*
X139310117Y-77272927D01*
X139313992Y-77291036D01*
X139316806Y-77309937D01*
X139318522Y-77329642D01*
X139319103Y-77350160D01*
X139317524Y-77382570D01*
X139312923Y-77412298D01*
X139305500Y-77439487D01*
X139295458Y-77464278D01*
X139282997Y-77486811D01*
X139268320Y-77507228D01*
X139251628Y-77525671D01*
X139233122Y-77542280D01*
X139213003Y-77557197D01*
X139191475Y-77570562D01*
X139168737Y-77582518D01*
X139144991Y-77593205D01*
X139120439Y-77602765D01*
X139095283Y-77611339D01*
X139069724Y-77619068D01*
X139043963Y-77626093D01*
X139018202Y-77632556D01*
X138992643Y-77638598D01*
X138967487Y-77644359D01*
X138942935Y-77649982D01*
X138919190Y-77655608D01*
X138896452Y-77661377D01*
X138874923Y-77667431D01*
X138854805Y-77673912D01*
X138836299Y-77680959D01*
X138819606Y-77688716D01*
X138804929Y-77697322D01*
X138792468Y-77706920D01*
X138782426Y-77717649D01*
X138775004Y-77729653D01*
X138770402Y-77743071D01*
X138768824Y-77758046D01*
X138769765Y-77770826D01*
X138772486Y-77782622D01*
X138776830Y-77793454D01*
X138782642Y-77803345D01*
X138789767Y-77812317D01*
X138798048Y-77820393D01*
X138807331Y-77827595D01*
X138817459Y-77833944D01*
X138828276Y-77839463D01*
X138839628Y-77844175D01*
X138851358Y-77848100D01*
X138863311Y-77851262D01*
X138875332Y-77853683D01*
X138887264Y-77855385D01*
X138898952Y-77856390D01*
X138910240Y-77856720D01*
X138929375Y-77856336D01*
X138947395Y-77855152D01*
X138964303Y-77853115D01*
X138980101Y-77850175D01*
X138994792Y-77846280D01*
X139008377Y-77841380D01*
X139020859Y-77835422D01*
X139032240Y-77828357D01*
X139042521Y-77820132D01*
X139051706Y-77810698D01*
X139059795Y-77800001D01*
X139066792Y-77787992D01*
X139072699Y-77774619D01*
X139077517Y-77759831D01*
X139081249Y-77743577D01*
X139083897Y-77725806D01*
X139286863Y-77725806D01*
X139285707Y-77745715D01*
X139283588Y-77764874D01*
X139280531Y-77783290D01*
X139276565Y-77800970D01*
X139271717Y-77817924D01*
X139266014Y-77834157D01*
X139259484Y-77849679D01*
X139252154Y-77864497D01*
X139244051Y-77878619D01*
X139235204Y-77892052D01*
X139225638Y-77904805D01*
X139215383Y-77916885D01*
X139204465Y-77928299D01*
X139192911Y-77939056D01*
X139180750Y-77949164D01*
X139168008Y-77958630D01*
X139154713Y-77967462D01*
X139140892Y-77975668D01*
X139126573Y-77983255D01*
X139111783Y-77990232D01*
X139096550Y-77996606D01*
X139080900Y-78002384D01*
X139064862Y-78007576D01*
X139048463Y-78012188D01*
X139031729Y-78016228D01*
X139014690Y-78019704D01*
X138997371Y-78022625D01*
X138979801Y-78024996D01*
X138962007Y-78026827D01*
X138944016Y-78028126D01*
X138925856Y-78028899D01*
X138907554Y-78029155D01*
X138891255Y-78028884D01*
X138874942Y-78028068D01*
X138858650Y-78026706D01*
X138842415Y-78024796D01*
X138826270Y-78022336D01*
X138810250Y-78019324D01*
X138794391Y-78015759D01*
X138778727Y-78011638D01*
X138763293Y-78006960D01*
X138748124Y-78001723D01*
X138733255Y-77995924D01*
X138718720Y-77989562D01*
X138704555Y-77982635D01*
X138690794Y-77975142D01*
X138677472Y-77967080D01*
X138664624Y-77958447D01*
X138652284Y-77949242D01*
X138640489Y-77939462D01*
X138629271Y-77929106D01*
X138618667Y-77918173D01*
X138608711Y-77906659D01*
X138599438Y-77894563D01*
X138590883Y-77881884D01*
X138583081Y-77868619D01*
X138576066Y-77854766D01*
X138569873Y-77840325D01*
X138564537Y-77825292D01*
X138560094Y-77809666D01*
X138556577Y-77793445D01*
X138554022Y-77776627D01*
X138552463Y-77759210D01*
X138551936Y-77741193D01*
X138553514Y-77709795D01*
X138558113Y-77680996D01*
X138565532Y-77654654D01*
X138575570Y-77630628D01*
X138588025Y-77608778D01*
X138602696Y-77588963D01*
X138619381Y-77571042D01*
X138637879Y-77554874D01*
X138657988Y-77540318D01*
X138679508Y-77527233D01*
X138702235Y-77515478D01*
X138725970Y-77504914D01*
X138750511Y-77495397D01*
X138775656Y-77486789D01*
X138801204Y-77478947D01*
X138826953Y-77471732D01*
X138852703Y-77465002D01*
X138878251Y-77458615D01*
X138903396Y-77452433D01*
X138927936Y-77446312D01*
X138951671Y-77440114D01*
X138974399Y-77433696D01*
X138995919Y-77426918D01*
X139016028Y-77419639D01*
X139034526Y-77411719D01*
X139051211Y-77403015D01*
X139065882Y-77393388D01*
X139078337Y-77382697D01*
X139088374Y-77370800D01*
X139095794Y-77357557D01*
X139100393Y-77342827D01*
X139101971Y-77326468D01*
X139100792Y-77311211D01*
X139097393Y-77297280D01*
X139091981Y-77284628D01*
X139084763Y-77273208D01*
X139075947Y-77262974D01*
X139065739Y-77253877D01*
X139054348Y-77245870D01*
X139041979Y-77238907D01*
X139028840Y-77232940D01*
X139015138Y-77227922D01*
X139001081Y-77223806D01*
X138986875Y-77220543D01*
X138972728Y-77218088D01*
X138958847Y-77216393D01*
X138945439Y-77215411D01*
X138932711Y-77215094D01*
G37*
G36*
X139654204Y-77044368D02*
G01*
X139654204Y-78029155D01*
X139444155Y-78029155D01*
X139444155Y-77044368D01*
X139654204Y-77044368D01*
G37*
G36*
X140301839Y-77045027D02*
G01*
X140326162Y-77046981D01*
X140350202Y-77050195D01*
X140373925Y-77054636D01*
X140397294Y-77060267D01*
X140420276Y-77067056D01*
X140442836Y-77074967D01*
X140464938Y-77083966D01*
X140486547Y-77094018D01*
X140507630Y-77105089D01*
X140528150Y-77117144D01*
X140548074Y-77130149D01*
X140567365Y-77144069D01*
X140585990Y-77158869D01*
X140603914Y-77174516D01*
X140621100Y-77190975D01*
X140637516Y-77208210D01*
X140653125Y-77226188D01*
X140667893Y-77244875D01*
X140681785Y-77264234D01*
X140694766Y-77284233D01*
X140706802Y-77304836D01*
X140717856Y-77326009D01*
X140727896Y-77347718D01*
X140736884Y-77369927D01*
X140744788Y-77392603D01*
X140751571Y-77415710D01*
X140757199Y-77439215D01*
X140761637Y-77463083D01*
X140764850Y-77487279D01*
X140766804Y-77511768D01*
X140767463Y-77536517D01*
X140766804Y-77561289D01*
X140764850Y-77585802D01*
X140761637Y-77610020D01*
X140757199Y-77633911D01*
X140751571Y-77657438D01*
X140744788Y-77680568D01*
X140736884Y-77703265D01*
X140727896Y-77725496D01*
X140717856Y-77747226D01*
X140706802Y-77768420D01*
X140694766Y-77789044D01*
X140681785Y-77809062D01*
X140667893Y-77828441D01*
X140653125Y-77847146D01*
X140637516Y-77865143D01*
X140621100Y-77882396D01*
X140603914Y-77898871D01*
X140585990Y-77914534D01*
X140567365Y-77929350D01*
X140548074Y-77943284D01*
X140528150Y-77956303D01*
X140507630Y-77968370D01*
X140486547Y-77979453D01*
X140464938Y-77989515D01*
X140442836Y-77998524D01*
X140420276Y-78006443D01*
X140397294Y-78013239D01*
X140373925Y-78018876D01*
X140350202Y-78023321D01*
X140326162Y-78026539D01*
X140301839Y-78028495D01*
X140277267Y-78029155D01*
X140252718Y-78028495D01*
X140228416Y-78026539D01*
X140204395Y-78023321D01*
X140180691Y-78018876D01*
X140157338Y-78013239D01*
X140134372Y-78006443D01*
X140111827Y-77998524D01*
X140089739Y-77989515D01*
X140068141Y-77979453D01*
X140047070Y-77968370D01*
X140026560Y-77956303D01*
X140006646Y-77943284D01*
X139987363Y-77929350D01*
X139968746Y-77914534D01*
X139950829Y-77898871D01*
X139933648Y-77882396D01*
X139917238Y-77865143D01*
X139901634Y-77847146D01*
X139886870Y-77828441D01*
X139872981Y-77809062D01*
X139860003Y-77789044D01*
X139847970Y-77768420D01*
X139836917Y-77747226D01*
X139826880Y-77725496D01*
X139817892Y-77703265D01*
X139809990Y-77680568D01*
X139803207Y-77657438D01*
X139797580Y-77633911D01*
X139793142Y-77610020D01*
X139789929Y-77585802D01*
X139787975Y-77561289D01*
X139787355Y-77537983D01*
X139997365Y-77537983D01*
X139997751Y-77551837D01*
X139998896Y-77565585D01*
X140000777Y-77579207D01*
X140003372Y-77592680D01*
X140006659Y-77605982D01*
X140010617Y-77619092D01*
X140015224Y-77631986D01*
X140020458Y-77644644D01*
X140026296Y-77657044D01*
X140032718Y-77669162D01*
X140039701Y-77680978D01*
X140047224Y-77692470D01*
X140055264Y-77703615D01*
X140063799Y-77714391D01*
X140072809Y-77724777D01*
X140082270Y-77734751D01*
X140092161Y-77744290D01*
X140102461Y-77753373D01*
X140113147Y-77761978D01*
X140124197Y-77770083D01*
X140135590Y-77777665D01*
X140147304Y-77784703D01*
X140159316Y-77791175D01*
X140171606Y-77797060D01*
X140184150Y-77802334D01*
X140196928Y-77806976D01*
X140209917Y-77810964D01*
X140223096Y-77814276D01*
X140236442Y-77816891D01*
X140249934Y-77818785D01*
X140263550Y-77819938D01*
X140277267Y-77820327D01*
X140291008Y-77819938D01*
X140304644Y-77818785D01*
X140318156Y-77816891D01*
X140331520Y-77814276D01*
X140344715Y-77810964D01*
X140357720Y-77806976D01*
X140370512Y-77802334D01*
X140383070Y-77797060D01*
X140395372Y-77791175D01*
X140407396Y-77784703D01*
X140419120Y-77777665D01*
X140430522Y-77770083D01*
X140441581Y-77761978D01*
X140452275Y-77753373D01*
X140462581Y-77744290D01*
X140472479Y-77734751D01*
X140481945Y-77724777D01*
X140490959Y-77714391D01*
X140499499Y-77703615D01*
X140507543Y-77692470D01*
X140515068Y-77680978D01*
X140522054Y-77669162D01*
X140528477Y-77657044D01*
X140534318Y-77644644D01*
X140539553Y-77631986D01*
X140544161Y-77619092D01*
X140548119Y-77605982D01*
X140551407Y-77592680D01*
X140554002Y-77579207D01*
X140555883Y-77565585D01*
X140557028Y-77551837D01*
X140557414Y-77537983D01*
X140557028Y-77524125D01*
X140555883Y-77510364D01*
X140554002Y-77496722D01*
X140551407Y-77483222D01*
X140548119Y-77469887D01*
X140544161Y-77456738D01*
X140539553Y-77443799D01*
X140534318Y-77431092D01*
X140528477Y-77418639D01*
X140522054Y-77406463D01*
X140515068Y-77394587D01*
X140507543Y-77383032D01*
X140499499Y-77371822D01*
X140490959Y-77360978D01*
X140481945Y-77350524D01*
X140472479Y-77340482D01*
X140462581Y-77330874D01*
X140452275Y-77321723D01*
X140441581Y-77313051D01*
X140430522Y-77304881D01*
X140419120Y-77297235D01*
X140407396Y-77290137D01*
X140395372Y-77283607D01*
X140383070Y-77277669D01*
X140370512Y-77272346D01*
X140357720Y-77267660D01*
X140344715Y-77263632D01*
X140331520Y-77260287D01*
X140318156Y-77257646D01*
X140304644Y-77255731D01*
X140291008Y-77254566D01*
X140277267Y-77254173D01*
X140263550Y-77254566D01*
X140249934Y-77255731D01*
X140236442Y-77257646D01*
X140223096Y-77260287D01*
X140209917Y-77263632D01*
X140196928Y-77267660D01*
X140184150Y-77272346D01*
X140171606Y-77277669D01*
X140159316Y-77283607D01*
X140147304Y-77290137D01*
X140135590Y-77297235D01*
X140124197Y-77304881D01*
X140113147Y-77313051D01*
X140102461Y-77321723D01*
X140092161Y-77330874D01*
X140082270Y-77340482D01*
X140072809Y-77350524D01*
X140063799Y-77360978D01*
X140055264Y-77371822D01*
X140047224Y-77383032D01*
X140039701Y-77394587D01*
X140032718Y-77406463D01*
X140026296Y-77418639D01*
X140020458Y-77431092D01*
X140015224Y-77443799D01*
X140010617Y-77456738D01*
X140006659Y-77469887D01*
X140003372Y-77483222D01*
X140000777Y-77496722D01*
X139998896Y-77510364D01*
X139997751Y-77524125D01*
X139997365Y-77537983D01*
X139787355Y-77537983D01*
X139787316Y-77536517D01*
X139787975Y-77511768D01*
X139789929Y-77487279D01*
X139793142Y-77463083D01*
X139797580Y-77439215D01*
X139803207Y-77415710D01*
X139809990Y-77392603D01*
X139817892Y-77369927D01*
X139826880Y-77347718D01*
X139836917Y-77326009D01*
X139847970Y-77304836D01*
X139860003Y-77284233D01*
X139872981Y-77264234D01*
X139886870Y-77244875D01*
X139901634Y-77226188D01*
X139917238Y-77208210D01*
X139933648Y-77190975D01*
X139950829Y-77174516D01*
X139968746Y-77158869D01*
X139987363Y-77144069D01*
X140006646Y-77130149D01*
X140026560Y-77117144D01*
X140047070Y-77105089D01*
X140068141Y-77094018D01*
X140089739Y-77083966D01*
X140111827Y-77074967D01*
X140134372Y-77067056D01*
X140157338Y-77060267D01*
X140180691Y-77054636D01*
X140204395Y-77050195D01*
X140228416Y-77046981D01*
X140252718Y-77045027D01*
X140277267Y-77044368D01*
X140301839Y-77045027D01*
G37*
G36*
X141647714Y-77044368D02*
G01*
X141647714Y-78029155D01*
X141437665Y-78029155D01*
X141437665Y-77415129D01*
X141109891Y-78029155D01*
X140899842Y-78029155D01*
X140899842Y-77044368D01*
X141109891Y-77044368D01*
X141109891Y-77658394D01*
X141437665Y-77044368D01*
X141647714Y-77044368D01*
G37*
G36*
X142757309Y-77241716D02*
G01*
X142891887Y-77241716D01*
X142891887Y-77435157D01*
X142757309Y-77435157D01*
X142757309Y-78029155D01*
X142568265Y-78029155D01*
X142169196Y-77435157D01*
X142354064Y-77435157D01*
X142548726Y-77738506D01*
X142548726Y-77435157D01*
X142354064Y-77435157D01*
X142169196Y-77435157D01*
X142039235Y-77241716D01*
X142548726Y-77241716D01*
X142548726Y-77044368D01*
X142757309Y-77044368D01*
X142757309Y-77241716D01*
G37*
G36*
X136318824Y-75804494D02*
G01*
X136619975Y-75364368D01*
X136902808Y-75364368D01*
X136523255Y-75856762D01*
X136888642Y-76349155D01*
X136619975Y-76349155D01*
X136318824Y-75908785D01*
X136318824Y-76349155D01*
X136108775Y-76349155D01*
X136108775Y-75364368D01*
X136318824Y-75364368D01*
X136318824Y-75804494D01*
G37*
G36*
X136961427Y-76225812D02*
G01*
X136962055Y-76213361D01*
X136963901Y-76201239D01*
X136966905Y-76189511D01*
X136971009Y-76178242D01*
X136976154Y-76167499D01*
X136982279Y-76157347D01*
X136989327Y-76147850D01*
X136997239Y-76139076D01*
X137005954Y-76131088D01*
X137015415Y-76123953D01*
X137025562Y-76117736D01*
X137036337Y-76112503D01*
X137047679Y-76108318D01*
X137059531Y-76105249D01*
X137071832Y-76103359D01*
X137084525Y-76102714D01*
X137096976Y-76103359D01*
X137109099Y-76105249D01*
X137120827Y-76108318D01*
X137132095Y-76112503D01*
X137142838Y-76117736D01*
X137152991Y-76123953D01*
X137162487Y-76131088D01*
X137171262Y-76139076D01*
X137179249Y-76147850D01*
X137186384Y-76157347D01*
X137192601Y-76167499D01*
X137197835Y-76178242D01*
X137202019Y-76189511D01*
X137205089Y-76201239D01*
X137206979Y-76213361D01*
X137207623Y-76225812D01*
X137206979Y-76238508D01*
X137205089Y-76250817D01*
X137202019Y-76262681D01*
X137197835Y-76274039D01*
X137192601Y-76284832D01*
X137186384Y-76295000D01*
X137179249Y-76304482D01*
X137171262Y-76313221D01*
X137162487Y-76321155D01*
X137152991Y-76328225D01*
X137142838Y-76334371D01*
X137132095Y-76339534D01*
X137120827Y-76343654D01*
X137109099Y-76346670D01*
X137096976Y-76348524D01*
X137084525Y-76349155D01*
X137071832Y-76348524D01*
X137059531Y-76346670D01*
X137047679Y-76343654D01*
X137036337Y-76339534D01*
X137025562Y-76334371D01*
X137015415Y-76328225D01*
X137005954Y-76321155D01*
X136997239Y-76313221D01*
X136989327Y-76304482D01*
X136982279Y-76295000D01*
X136976154Y-76284832D01*
X136971009Y-76274039D01*
X136966905Y-76262681D01*
X136963901Y-76250817D01*
X136962055Y-76238508D01*
X136961427Y-76225812D01*
G37*
G36*
X137189549Y-75364368D02*
G01*
X137189549Y-76005261D01*
X136979501Y-76005261D01*
X136979501Y-75364368D01*
X137189549Y-75364368D01*
G37*
G36*
X137987247Y-75684326D02*
G01*
X137987628Y-75697780D01*
X137988791Y-75711309D01*
X137990758Y-75724784D01*
X137993555Y-75738075D01*
X137997206Y-75751050D01*
X138001737Y-75763581D01*
X138007171Y-75775536D01*
X138013533Y-75786786D01*
X138020849Y-75797200D01*
X138029142Y-75806648D01*
X138038438Y-75815000D01*
X138048761Y-75822125D01*
X138060136Y-75827893D01*
X138072588Y-75832175D01*
X138086141Y-75834840D01*
X138100819Y-75835757D01*
X138113338Y-75835050D01*
X138124727Y-75832992D01*
X138135031Y-75829672D01*
X138144295Y-75825182D01*
X138152562Y-75819610D01*
X138159879Y-75813049D01*
X138166287Y-75805589D01*
X138171833Y-75797319D01*
X138176560Y-75788331D01*
X138180513Y-75778715D01*
X138183736Y-75768562D01*
X138186274Y-75757961D01*
X138188170Y-75747005D01*
X138189470Y-75735783D01*
X138190217Y-75724385D01*
X138190457Y-75712903D01*
X138190457Y-75364368D01*
X138400261Y-75364368D01*
X138400261Y-75712903D01*
X138400036Y-75727988D01*
X138399358Y-75742872D01*
X138398227Y-75757534D01*
X138396641Y-75771957D01*
X138394599Y-75786124D01*
X138392100Y-75800015D01*
X138389142Y-75813613D01*
X138385725Y-75826899D01*
X138381846Y-75839856D01*
X138377505Y-75852465D01*
X138372700Y-75864709D01*
X138367430Y-75876569D01*
X138361694Y-75888026D01*
X138355490Y-75899064D01*
X138348817Y-75909664D01*
X138341673Y-75919807D01*
X138334059Y-75929476D01*
X138325971Y-75938652D01*
X138317409Y-75947317D01*
X138308372Y-75955454D01*
X138298858Y-75963044D01*
X138288866Y-75970069D01*
X138278395Y-75976511D01*
X138267443Y-75982352D01*
X138256009Y-75987573D01*
X138244092Y-75992157D01*
X138231690Y-75996086D01*
X138218803Y-75999341D01*
X138205428Y-76001904D01*
X138191565Y-76003757D01*
X138177212Y-76004882D01*
X138162369Y-76005261D01*
X138144561Y-76004927D01*
X138127387Y-76003904D01*
X138110818Y-76002162D01*
X138094824Y-75999670D01*
X138079375Y-75996399D01*
X138064442Y-75992317D01*
X138049995Y-75987394D01*
X138036004Y-75981600D01*
X138022439Y-75974905D01*
X138009271Y-75967277D01*
X137996470Y-75958687D01*
X137984007Y-75949104D01*
X137971851Y-75938498D01*
X137959973Y-75926839D01*
X137948343Y-75914095D01*
X137936933Y-75900237D01*
X137928476Y-75912928D01*
X137919428Y-75924805D01*
X137909813Y-75935868D01*
X137899659Y-75946116D01*
X137888991Y-75955549D01*
X137877835Y-75964164D01*
X137866217Y-75971963D01*
X137854165Y-75978944D01*
X137841703Y-75985106D01*
X137828857Y-75990449D01*
X137815655Y-75994972D01*
X137802122Y-75998674D01*
X137788284Y-76001555D01*
X137774167Y-76003614D01*
X137759798Y-76004849D01*
X137745202Y-76005261D01*
X137732433Y-76004837D01*
X137719874Y-76003583D01*
X137707538Y-76001531D01*
X137695441Y-75998709D01*
X137683598Y-75995147D01*
X137672022Y-75990874D01*
X137660729Y-75985921D01*
X137649733Y-75980318D01*
X137639050Y-75974093D01*
X137628693Y-75967277D01*
X137618677Y-75959899D01*
X137609017Y-75951990D01*
X137599728Y-75943577D01*
X137590825Y-75934693D01*
X137582321Y-75925365D01*
X137574232Y-75915624D01*
X137574232Y-76005261D01*
X137364183Y-76005261D01*
X137364183Y-75364368D01*
X137574232Y-75364368D01*
X137574232Y-75684082D01*
X137574721Y-75695244D01*
X137576177Y-75707078D01*
X137578580Y-75719393D01*
X137581914Y-75731995D01*
X137586159Y-75744694D01*
X137591298Y-75757296D01*
X137597312Y-75769610D01*
X137604182Y-75781443D01*
X137611891Y-75792604D01*
X137620421Y-75802900D01*
X137629753Y-75812139D01*
X137639868Y-75820129D01*
X137650750Y-75826678D01*
X137662378Y-75831594D01*
X137674736Y-75834684D01*
X137687805Y-75835757D01*
X137700323Y-75835050D01*
X137711712Y-75832992D01*
X137722016Y-75829672D01*
X137731280Y-75825182D01*
X137739548Y-75819610D01*
X137746864Y-75813049D01*
X137753273Y-75805589D01*
X137758818Y-75797319D01*
X137763546Y-75788331D01*
X137767499Y-75778715D01*
X137770722Y-75768562D01*
X137773259Y-75757961D01*
X137775156Y-75747005D01*
X137776455Y-75735783D01*
X137777203Y-75724385D01*
X137777442Y-75712903D01*
X137777442Y-75364368D01*
X137987247Y-75364368D01*
X137987247Y-75684326D01*
G37*
G36*
X139584595Y-75705087D02*
G01*
X139576622Y-75689292D01*
X139567411Y-75674180D01*
X139557039Y-75659795D01*
X139545585Y-75646186D01*
X139533125Y-75633398D01*
X139519740Y-75621478D01*
X139505505Y-75610473D01*
X139490500Y-75600429D01*
X139474802Y-75591392D01*
X139458490Y-75583409D01*
X139441641Y-75576527D01*
X139424333Y-75570791D01*
X139406645Y-75566250D01*
X139388654Y-75562948D01*
X139370438Y-75560933D01*
X139352076Y-75560251D01*
X139337742Y-75560643D01*
X139323605Y-75561806D01*
X139309680Y-75563721D01*
X139295986Y-75566369D01*
X139282538Y-75569732D01*
X139269354Y-75573791D01*
X139256451Y-75578526D01*
X139243845Y-75583919D01*
X139231555Y-75589952D01*
X139219596Y-75596604D01*
X139207987Y-75603857D01*
X139196743Y-75611693D01*
X139185882Y-75620093D01*
X139175420Y-75629037D01*
X139165376Y-75638507D01*
X139155765Y-75648483D01*
X139146606Y-75658948D01*
X139137913Y-75669882D01*
X139129706Y-75681266D01*
X139122001Y-75693082D01*
X139114814Y-75705310D01*
X139108163Y-75717931D01*
X139102065Y-75730928D01*
X139096536Y-75744280D01*
X139091595Y-75757969D01*
X139087257Y-75771977D01*
X139083540Y-75786284D01*
X139080460Y-75800871D01*
X139078036Y-75815720D01*
X139076283Y-75830811D01*
X139075218Y-75846126D01*
X139074860Y-75861646D01*
X139075218Y-75876944D01*
X139076283Y-75892007D01*
X139078036Y-75906818D01*
X139080460Y-75921360D01*
X139083540Y-75935618D01*
X139087257Y-75949575D01*
X139091595Y-75963215D01*
X139096536Y-75976521D01*
X139102065Y-75989476D01*
X139108163Y-76002065D01*
X139114814Y-76014271D01*
X139122001Y-76026077D01*
X139129706Y-76037467D01*
X139137913Y-76048425D01*
X139146606Y-76058934D01*
X139155765Y-76068978D01*
X139165376Y-76078540D01*
X139175420Y-76087605D01*
X139185882Y-76096155D01*
X139196743Y-76104174D01*
X139207987Y-76111646D01*
X139219596Y-76118555D01*
X139231555Y-76124883D01*
X139243845Y-76130615D01*
X139256451Y-76135734D01*
X139269354Y-76140224D01*
X139282538Y-76144068D01*
X139295986Y-76147250D01*
X139309680Y-76149753D01*
X139323605Y-76151562D01*
X139337742Y-76152659D01*
X139352076Y-76153028D01*
X139370180Y-76152438D01*
X139388170Y-76150686D01*
X139405965Y-76147804D01*
X139423486Y-76143819D01*
X139440652Y-76138763D01*
X139457382Y-76132665D01*
X139473598Y-76125554D01*
X139489218Y-76117460D01*
X139504163Y-76108413D01*
X139518352Y-76098443D01*
X139531705Y-76087579D01*
X139544142Y-76075851D01*
X139555583Y-76063289D01*
X139565948Y-76049922D01*
X139575157Y-76035780D01*
X139583129Y-76020893D01*
X139817114Y-76020893D01*
X139810723Y-76038381D01*
X139803651Y-76055572D01*
X139795913Y-76072448D01*
X139787525Y-76088994D01*
X139778502Y-76105191D01*
X139768861Y-76121023D01*
X139758616Y-76136473D01*
X139747783Y-76151524D01*
X139736379Y-76166160D01*
X139724418Y-76180363D01*
X139711916Y-76194117D01*
X139698888Y-76207404D01*
X139685352Y-76220207D01*
X139671321Y-76232511D01*
X139656811Y-76244297D01*
X139641839Y-76255549D01*
X139626420Y-76266250D01*
X139610569Y-76276384D01*
X139594302Y-76285932D01*
X139577634Y-76294879D01*
X139560582Y-76303207D01*
X139543161Y-76310900D01*
X139525386Y-76317940D01*
X139507273Y-76324311D01*
X139488838Y-76329996D01*
X139470095Y-76334977D01*
X139451062Y-76339239D01*
X139431754Y-76342764D01*
X139412185Y-76345535D01*
X139392372Y-76347535D01*
X139372330Y-76348747D01*
X139352076Y-76349155D01*
X139326903Y-76348519D01*
X139302057Y-76346632D01*
X139277567Y-76343524D01*
X139253465Y-76339227D01*
X139229783Y-76333771D01*
X139206550Y-76327188D01*
X139183798Y-76319509D01*
X139161559Y-76310763D01*
X139139862Y-76300983D01*
X139118740Y-76290199D01*
X139098222Y-76278443D01*
X139078341Y-76265744D01*
X139059128Y-76252135D01*
X139040612Y-76237646D01*
X139022826Y-76222307D01*
X139005800Y-76206151D01*
X138989566Y-76189207D01*
X138974154Y-76171508D01*
X138959596Y-76153083D01*
X138945922Y-76133964D01*
X138933163Y-76114181D01*
X138921352Y-76093767D01*
X138910517Y-76072750D01*
X138900692Y-76051164D01*
X138891906Y-76029037D01*
X138884191Y-76006402D01*
X138877578Y-75983290D01*
X138872097Y-75959731D01*
X138867781Y-75935756D01*
X138864659Y-75911396D01*
X138862763Y-75886683D01*
X138862124Y-75861646D01*
X138862763Y-75835851D01*
X138864659Y-75810418D01*
X138867781Y-75785377D01*
X138872097Y-75760758D01*
X138877578Y-75736591D01*
X138884191Y-75712905D01*
X138891906Y-75689731D01*
X138900692Y-75667099D01*
X138910517Y-75645039D01*
X138921352Y-75623581D01*
X138933163Y-75602754D01*
X138945922Y-75582588D01*
X138959596Y-75563115D01*
X138974154Y-75544363D01*
X138989566Y-75526362D01*
X139005800Y-75509143D01*
X139022826Y-75492735D01*
X139040612Y-75477169D01*
X139059128Y-75462474D01*
X139078341Y-75448680D01*
X139098222Y-75435818D01*
X139118740Y-75423917D01*
X139139862Y-75413007D01*
X139161559Y-75403119D01*
X139183798Y-75394281D01*
X139206550Y-75386525D01*
X139229783Y-75379879D01*
X139253465Y-75374375D01*
X139277567Y-75370042D01*
X139302057Y-75366910D01*
X139326903Y-75365008D01*
X139352076Y-75364368D01*
X139372335Y-75364779D01*
X139392388Y-75366002D01*
X139412221Y-75368022D01*
X139431816Y-75370824D01*
X139451158Y-75374392D01*
X139470229Y-75378711D01*
X139489015Y-75383767D01*
X139507498Y-75389544D01*
X139525663Y-75396027D01*
X139543493Y-75403200D01*
X139560973Y-75411049D01*
X139578085Y-75419559D01*
X139594814Y-75428713D01*
X139611144Y-75438498D01*
X139627059Y-75448898D01*
X139642541Y-75459897D01*
X139657576Y-75471482D01*
X139672147Y-75483635D01*
X139686237Y-75496343D01*
X139699831Y-75509590D01*
X139712912Y-75523361D01*
X139725464Y-75537641D01*
X139737471Y-75552414D01*
X139748917Y-75567666D01*
X139759785Y-75583381D01*
X139770060Y-75599544D01*
X139779725Y-75616141D01*
X139788764Y-75633155D01*
X139797160Y-75650572D01*
X139804899Y-75668376D01*
X139811962Y-75686553D01*
X139818335Y-75705087D01*
X139584595Y-75705087D01*
G37*
G36*
X139925558Y-75486001D02*
G01*
X139926186Y-75473566D01*
X139928032Y-75461490D01*
X139931037Y-75449834D01*
X139935140Y-75438660D01*
X139940285Y-75428028D01*
X139946410Y-75417999D01*
X139953459Y-75408635D01*
X139961370Y-75399997D01*
X139970086Y-75392146D01*
X139979546Y-75385143D01*
X139989694Y-75379050D01*
X140000468Y-75373928D01*
X140011810Y-75369837D01*
X140023662Y-75366839D01*
X140035963Y-75364996D01*
X140048656Y-75364368D01*
X140061107Y-75364996D01*
X140073230Y-75366839D01*
X140084958Y-75369837D01*
X140096226Y-75373928D01*
X140106969Y-75379050D01*
X140117122Y-75385143D01*
X140126618Y-75392146D01*
X140135393Y-75399997D01*
X140143380Y-75408635D01*
X140150515Y-75417999D01*
X140156732Y-75428028D01*
X140161966Y-75438660D01*
X140166150Y-75449834D01*
X140169220Y-75461490D01*
X140171110Y-75473566D01*
X140171755Y-75486001D01*
X140171110Y-75498696D01*
X140169220Y-75511006D01*
X140166150Y-75522869D01*
X140161966Y-75534227D01*
X140156732Y-75545020D01*
X140150515Y-75555188D01*
X140143380Y-75564671D01*
X140135393Y-75573409D01*
X140126618Y-75581343D01*
X140117122Y-75588414D01*
X140106969Y-75594560D01*
X140096226Y-75599723D01*
X140084958Y-75603842D01*
X140073230Y-75606859D01*
X140061107Y-75608712D01*
X140048656Y-75609344D01*
X140035963Y-75608712D01*
X140023662Y-75606859D01*
X140011810Y-75603842D01*
X140000468Y-75599723D01*
X139989694Y-75594560D01*
X139979546Y-75588414D01*
X139970086Y-75581343D01*
X139961370Y-75573409D01*
X139953459Y-75564671D01*
X139946410Y-75555188D01*
X139940285Y-75545020D01*
X139935140Y-75534227D01*
X139931037Y-75522869D01*
X139928032Y-75511006D01*
X139926186Y-75498696D01*
X139925558Y-75486001D01*
G37*
D11*
%TO.C,H1*%
X110761904Y-76262619D02*
X110761904Y-75262619D01*
X110761904Y-75738809D02*
X110190476Y-75738809D01*
X110190476Y-76262619D02*
X110190476Y-75262619D01*
X109190476Y-76262619D02*
X109761904Y-76262619D01*
X109476190Y-76262619D02*
X109476190Y-75262619D01*
X109476190Y-75262619D02*
X109571428Y-75405476D01*
X109571428Y-75405476D02*
X109666666Y-75500714D01*
X109666666Y-75500714D02*
X109761904Y-75548333D01*
%TO.C,kibuzzard-631545B4*%
G36*
X151170313Y-87574633D02*
G01*
X151196589Y-87668475D01*
X151146853Y-87789532D01*
X151040811Y-87849591D01*
X151040811Y-87613108D01*
X151100870Y-87541788D01*
X151170313Y-87574633D01*
G37*
G36*
X153561867Y-84538631D02*
G01*
X153588537Y-84633881D01*
X153538055Y-84756753D01*
X153430422Y-84817713D01*
X153430422Y-84577683D01*
X153491382Y-84505293D01*
X153561867Y-84538631D01*
G37*
G36*
X151062864Y-90914014D02*
G01*
X151119638Y-90957650D01*
X151164683Y-91083399D01*
X151117761Y-91209148D01*
X151059814Y-91252784D01*
X150979813Y-91267330D01*
X150900047Y-91252315D01*
X150842803Y-91207271D01*
X150796821Y-91085276D01*
X150843742Y-90961404D01*
X150901924Y-90914952D01*
X150982628Y-90899468D01*
X151062864Y-90914014D01*
G37*
G36*
X153452806Y-90888472D02*
G01*
X153510432Y-90932763D01*
X153556152Y-91060398D01*
X153508527Y-91188033D01*
X153449710Y-91232325D01*
X153368510Y-91247088D01*
X153287547Y-91231848D01*
X153229445Y-91186128D01*
X153182772Y-91062303D01*
X153230397Y-90936573D01*
X153289452Y-90889425D01*
X153371367Y-90873708D01*
X153452806Y-90888472D01*
G37*
G36*
X153452806Y-86865112D02*
G01*
X153510432Y-86909403D01*
X153556152Y-87037038D01*
X153508527Y-87164673D01*
X153449710Y-87208965D01*
X153368510Y-87223728D01*
X153287547Y-87208488D01*
X153229445Y-87162768D01*
X153182772Y-87038943D01*
X153230397Y-86913213D01*
X153289452Y-86866065D01*
X153371367Y-86850348D01*
X153452806Y-86865112D01*
G37*
G36*
X151062864Y-84146102D02*
G01*
X151119638Y-84189739D01*
X151164683Y-84315488D01*
X151117761Y-84441236D01*
X151059814Y-84484873D01*
X150979813Y-84499419D01*
X150900047Y-84484404D01*
X150842803Y-84439360D01*
X150796821Y-84317365D01*
X150843742Y-84193493D01*
X150901924Y-84147041D01*
X150982628Y-84131557D01*
X151062864Y-84146102D01*
G37*
G36*
X152506925Y-80513467D02*
G01*
X152613593Y-80521335D01*
X152719746Y-80534428D01*
X152825129Y-80552714D01*
X152929487Y-80576148D01*
X153032570Y-80604675D01*
X153134129Y-80638226D01*
X153233920Y-80676719D01*
X153331701Y-80720063D01*
X153427238Y-80768152D01*
X153520300Y-80820871D01*
X153610664Y-80878093D01*
X153698110Y-80939680D01*
X153782430Y-81005483D01*
X153863419Y-81075345D01*
X153940883Y-81149097D01*
X154014634Y-81226560D01*
X154084496Y-81307549D01*
X154150299Y-81391869D01*
X154211886Y-81479316D01*
X154269108Y-81569679D01*
X154321827Y-81662741D01*
X154369917Y-81758278D01*
X154413260Y-81856060D01*
X154451754Y-81955850D01*
X154485304Y-82057409D01*
X154513831Y-82160492D01*
X154537266Y-82264851D01*
X154555551Y-82370233D01*
X154568644Y-82476386D01*
X154576512Y-82583054D01*
X154579137Y-82689979D01*
X154579137Y-82690138D01*
X154579137Y-92569862D01*
X154579137Y-92570021D01*
X154576512Y-92676946D01*
X154568644Y-92783614D01*
X154555551Y-92889767D01*
X154537266Y-92995149D01*
X154513831Y-93099508D01*
X154485304Y-93202591D01*
X154451754Y-93304150D01*
X154413260Y-93403940D01*
X154369917Y-93501722D01*
X154321827Y-93597259D01*
X154269108Y-93690321D01*
X154211886Y-93780684D01*
X154150299Y-93868131D01*
X154084496Y-93952451D01*
X154014634Y-94033440D01*
X153940883Y-94110903D01*
X153863419Y-94184655D01*
X153782430Y-94254517D01*
X153698110Y-94320320D01*
X153610664Y-94381907D01*
X153520300Y-94439129D01*
X153427238Y-94491848D01*
X153331701Y-94539937D01*
X153233920Y-94583281D01*
X153134129Y-94621774D01*
X153032570Y-94655325D01*
X152929487Y-94683852D01*
X152825129Y-94707286D01*
X152719746Y-94725572D01*
X152613593Y-94738665D01*
X152506925Y-94746533D01*
X152400000Y-94749158D01*
X152293075Y-94746533D01*
X152186407Y-94738665D01*
X152080254Y-94725572D01*
X151974871Y-94707286D01*
X151870513Y-94683852D01*
X151767430Y-94655325D01*
X151665871Y-94621774D01*
X151566080Y-94583281D01*
X151468299Y-94539937D01*
X151372762Y-94491848D01*
X151279700Y-94439129D01*
X151189336Y-94381907D01*
X151101890Y-94320320D01*
X151017570Y-94254517D01*
X150936581Y-94184655D01*
X150859117Y-94110903D01*
X150785366Y-94033440D01*
X150715504Y-93952451D01*
X150649701Y-93868131D01*
X150588114Y-93780684D01*
X150530892Y-93690321D01*
X150478173Y-93597259D01*
X150430083Y-93501722D01*
X150386740Y-93403940D01*
X150348246Y-93304150D01*
X150314696Y-93202591D01*
X150286169Y-93099508D01*
X150262734Y-92995149D01*
X150244449Y-92889767D01*
X150231356Y-92783614D01*
X150223488Y-92676946D01*
X150220863Y-92570021D01*
X150220863Y-92569862D01*
X150220863Y-92059360D01*
X150474003Y-92059360D01*
X150487975Y-92174264D01*
X150529891Y-92286250D01*
X150599752Y-92395315D01*
X150669899Y-92465228D01*
X150760222Y-92521064D01*
X150865795Y-92557663D01*
X150981690Y-92569862D01*
X151097116Y-92557663D01*
X151201281Y-92521064D01*
X151290197Y-92465228D01*
X151359875Y-92395315D01*
X151428692Y-92289169D01*
X151469983Y-92178435D01*
X151483747Y-92063113D01*
X151482028Y-92050998D01*
X152855112Y-92050998D01*
X152869294Y-92167627D01*
X152911839Y-92281292D01*
X152982747Y-92391993D01*
X153053946Y-92462955D01*
X153145625Y-92519628D01*
X153252781Y-92556776D01*
X153370415Y-92569158D01*
X153487572Y-92556776D01*
X153593300Y-92519628D01*
X153683549Y-92462955D01*
X153754272Y-92391993D01*
X153824122Y-92284255D01*
X153866032Y-92171860D01*
X153880002Y-92054808D01*
X153860000Y-91913838D01*
X153820947Y-91812873D01*
X153801897Y-91782393D01*
X153765702Y-91729053D01*
X153679025Y-91679523D01*
X153569487Y-91719528D01*
X153490906Y-91786680D01*
X153464712Y-91850973D01*
X153506622Y-91953843D01*
X153539007Y-92051951D01*
X153493287Y-92171013D01*
X153366605Y-92226258D01*
X153240875Y-92172918D01*
X153196107Y-92059571D01*
X153231350Y-91947176D01*
X153266592Y-91862403D01*
X153241351Y-91799062D01*
X153165627Y-91723338D01*
X153066567Y-91679523D01*
X152996558Y-91705717D01*
X152931312Y-91784298D01*
X152874162Y-91905266D01*
X152855112Y-92050998D01*
X151482028Y-92050998D01*
X151464040Y-91924227D01*
X151425564Y-91824754D01*
X151406796Y-91794724D01*
X151371136Y-91742172D01*
X151285739Y-91693374D01*
X151177821Y-91732788D01*
X151100401Y-91798947D01*
X151074594Y-91862291D01*
X151115885Y-91963640D01*
X151147791Y-92060298D01*
X151102747Y-92177601D01*
X150977936Y-92232030D01*
X150854064Y-92179478D01*
X150809958Y-92067805D01*
X150844680Y-91957071D01*
X150879402Y-91873552D01*
X150854534Y-91811147D01*
X150779929Y-91736542D01*
X150682333Y-91693374D01*
X150613359Y-91719181D01*
X150549077Y-91796601D01*
X150492771Y-91915781D01*
X150474003Y-92059360D01*
X150220863Y-92059360D01*
X150220863Y-91083399D01*
X150466495Y-91083399D01*
X150481745Y-91205394D01*
X150527493Y-91323635D01*
X150603036Y-91430850D01*
X150707670Y-91519766D01*
X150834592Y-91579591D01*
X150976998Y-91599532D01*
X151118387Y-91582015D01*
X151242259Y-91529463D01*
X151348614Y-91441877D01*
X151429944Y-91331768D01*
X151478742Y-91211650D01*
X151495008Y-91081522D01*
X151492380Y-91060398D01*
X152847492Y-91060398D01*
X152862970Y-91184223D01*
X152909405Y-91304238D01*
X152986081Y-91413061D01*
X153092285Y-91503311D01*
X153221110Y-91564033D01*
X153365652Y-91584273D01*
X153509162Y-91566493D01*
X153634892Y-91513153D01*
X153742842Y-91424253D01*
X153825392Y-91312493D01*
X153874922Y-91190573D01*
X153891432Y-91058493D01*
X153875028Y-90926625D01*
X153825815Y-90805340D01*
X153743795Y-90694638D01*
X153636374Y-90606797D01*
X153510961Y-90554092D01*
X153367557Y-90536523D01*
X153218253Y-90557002D01*
X153086570Y-90618438D01*
X152979890Y-90709164D01*
X152905595Y-90817511D01*
X152862018Y-90936811D01*
X152847492Y-91060398D01*
X151492380Y-91060398D01*
X151478846Y-90951603D01*
X151430361Y-90832110D01*
X151349552Y-90723044D01*
X151243719Y-90636501D01*
X151120160Y-90584575D01*
X150978875Y-90567266D01*
X150831777Y-90587442D01*
X150702040Y-90647970D01*
X150596936Y-90737355D01*
X150523739Y-90844101D01*
X150480806Y-90961639D01*
X150466495Y-91083399D01*
X150220863Y-91083399D01*
X150220863Y-89623212D01*
X150485264Y-89623212D01*
X150502625Y-89728315D01*
X150554707Y-89777113D01*
X150650426Y-89788374D01*
X150980752Y-89788374D01*
X151100870Y-89832480D01*
X151144037Y-89950722D01*
X151098993Y-90070840D01*
X150980752Y-90116823D01*
X150648550Y-90116823D01*
X150583798Y-90119638D01*
X150535939Y-90137468D01*
X150497933Y-90185797D01*
X150485264Y-90281985D01*
X150497933Y-90377235D01*
X150535939Y-90426502D01*
X150585675Y-90442456D01*
X150650426Y-90445271D01*
X151314830Y-90445271D01*
X151377705Y-90442456D01*
X151425564Y-90424626D01*
X151460755Y-90375358D01*
X151472486Y-90280108D01*
X151461694Y-90187674D01*
X151429318Y-90139345D01*
X151352367Y-90120576D01*
X151389904Y-90086793D01*
X151429318Y-90036118D01*
X151472486Y-89895355D01*
X151456532Y-89777218D01*
X151408673Y-89673053D01*
X151328907Y-89582860D01*
X151322165Y-89578308D01*
X152866542Y-89578308D01*
X152884163Y-89684988D01*
X152937027Y-89734518D01*
X153034182Y-89745948D01*
X153369462Y-89745948D01*
X153491382Y-89790716D01*
X153535197Y-89910731D01*
X153489477Y-90032651D01*
X153369462Y-90079323D01*
X153032277Y-90079323D01*
X152966555Y-90082181D01*
X152917977Y-90100278D01*
X152879401Y-90149332D01*
X152866542Y-90246963D01*
X152879401Y-90343642D01*
X152917977Y-90393648D01*
X152968460Y-90409841D01*
X153034182Y-90412698D01*
X153708552Y-90412698D01*
X153772370Y-90409841D01*
X153820947Y-90391743D01*
X153856666Y-90341737D01*
X153868572Y-90245058D01*
X153857618Y-90151237D01*
X153824757Y-90102183D01*
X153746652Y-90083133D01*
X153784752Y-90048843D01*
X153824757Y-89997408D01*
X153868572Y-89854533D01*
X153852380Y-89734624D01*
X153803802Y-89628897D01*
X153722840Y-89537351D01*
X153618594Y-89466972D01*
X153500166Y-89424744D01*
X153367557Y-89410668D01*
X153032277Y-89410668D01*
X152966555Y-89413526D01*
X152917977Y-89429718D01*
X152879401Y-89480201D01*
X152866542Y-89578308D01*
X151322165Y-89578308D01*
X151226201Y-89513521D01*
X151109524Y-89471917D01*
X150978875Y-89458049D01*
X150648550Y-89458049D01*
X150583798Y-89460865D01*
X150535939Y-89476818D01*
X150497933Y-89526554D01*
X150485264Y-89623212D01*
X150220863Y-89623212D01*
X150220863Y-88485842D01*
X150485264Y-88485842D01*
X150502625Y-88590946D01*
X150554707Y-88639744D01*
X150650426Y-88651005D01*
X150980752Y-88651005D01*
X151100870Y-88695111D01*
X151144037Y-88813352D01*
X151098993Y-88933470D01*
X150980752Y-88979453D01*
X150648550Y-88979453D01*
X150583798Y-88982268D01*
X150535939Y-89000099D01*
X150497933Y-89048427D01*
X150485264Y-89144616D01*
X150497933Y-89239866D01*
X150535939Y-89289133D01*
X150585675Y-89305086D01*
X150650426Y-89307901D01*
X151314830Y-89307901D01*
X151377705Y-89305086D01*
X151425564Y-89287256D01*
X151460755Y-89237989D01*
X151472486Y-89142739D01*
X151461694Y-89050304D01*
X151429318Y-89001975D01*
X151352367Y-88983207D01*
X151389904Y-88949424D01*
X151429318Y-88898749D01*
X151472486Y-88757985D01*
X151468271Y-88726773D01*
X152864637Y-88726773D01*
X152874585Y-88848270D01*
X152904430Y-88948600D01*
X152954172Y-89027763D01*
X153027620Y-89084913D01*
X153128585Y-89119203D01*
X153257067Y-89130633D01*
X153539007Y-89130633D01*
X153533292Y-89208738D01*
X153565677Y-89278271D01*
X153676167Y-89305893D01*
X153789515Y-89296368D01*
X153839997Y-89269698D01*
X153864762Y-89193498D01*
X153857142Y-89130633D01*
X154053357Y-89130633D01*
X154118127Y-89127776D01*
X154163847Y-89109678D01*
X154199566Y-89060625D01*
X154211472Y-88962993D01*
X154193851Y-88859647D01*
X154140987Y-88808688D01*
X154043832Y-88799163D01*
X153857142Y-88799163D01*
X153864762Y-88672481D01*
X153861905Y-88607711D01*
X153843807Y-88557228D01*
X153794753Y-88520081D01*
X153697122Y-88507698D01*
X153600443Y-88520557D01*
X153550437Y-88559133D01*
X153534245Y-88609616D01*
X153531387Y-88675338D01*
X153539007Y-88799163D01*
X153276117Y-88799163D01*
X153201822Y-88782971D01*
X153178962Y-88722011D01*
X153176105Y-88653431D01*
X153158007Y-88602948D01*
X153030372Y-88559133D01*
X152933693Y-88572468D01*
X152883687Y-88612473D01*
X152867495Y-88662956D01*
X152864637Y-88726773D01*
X151468271Y-88726773D01*
X151456532Y-88639848D01*
X151408673Y-88535683D01*
X151328907Y-88445490D01*
X151226201Y-88376151D01*
X151109524Y-88334548D01*
X150978875Y-88320680D01*
X150648550Y-88320680D01*
X150583798Y-88323495D01*
X150535939Y-88339448D01*
X150497933Y-88389185D01*
X150485264Y-88485842D01*
X150220863Y-88485842D01*
X150220863Y-88237188D01*
X152864637Y-88237188D01*
X152897022Y-88368633D01*
X152978937Y-88402923D01*
X153034182Y-88402923D01*
X153702837Y-88402923D01*
X153768560Y-88400066D01*
X153817137Y-88383873D01*
X153855713Y-88333391D01*
X153868572Y-88235283D01*
X153857618Y-88142415D01*
X153824757Y-88092408D01*
X153761892Y-88071453D01*
X153794277Y-88043831D01*
X153845712Y-87966678D01*
X153878097Y-87862856D01*
X153873335Y-87787608D01*
X153857142Y-87720933D01*
X153818090Y-87660926D01*
X153729507Y-87637113D01*
X153596157Y-87673308D01*
X153523767Y-87778083D01*
X153539007Y-87843806D01*
X153554247Y-87926673D01*
X153518052Y-88022876D01*
X153430422Y-88067643D01*
X153030372Y-88067643D01*
X152964650Y-88070501D01*
X152914167Y-88088598D01*
X152877020Y-88140033D01*
X152864637Y-88237188D01*
X150220863Y-88237188D01*
X150220863Y-87665660D01*
X150458988Y-87665660D01*
X150470953Y-87796805D01*
X150506848Y-87912466D01*
X150562449Y-88008419D01*
X150633535Y-88080443D01*
X150738847Y-88146133D01*
X150852083Y-88185547D01*
X150973244Y-88198685D01*
X151120368Y-88181689D01*
X151246430Y-88130701D01*
X151351429Y-88045722D01*
X151430152Y-87935300D01*
X151477386Y-87807988D01*
X151493131Y-87663783D01*
X151481635Y-87542023D01*
X151447148Y-87437623D01*
X151389670Y-87350584D01*
X151309200Y-87280906D01*
X151207146Y-87233047D01*
X151096178Y-87217094D01*
X150995766Y-87231405D01*
X150925385Y-87274337D01*
X150870018Y-87401025D01*
X150870018Y-87845837D01*
X150781806Y-87783901D01*
X150746146Y-87660030D01*
X150751776Y-87562903D01*
X150768668Y-87489236D01*
X150776175Y-87468591D01*
X150796821Y-87393517D01*
X150712362Y-87290291D01*
X150626027Y-87265892D01*
X150552948Y-87290877D01*
X150500748Y-87365834D01*
X150469428Y-87490761D01*
X150458988Y-87665660D01*
X150220863Y-87665660D01*
X150220863Y-86612749D01*
X150474003Y-86612749D01*
X150487975Y-86727654D01*
X150529891Y-86839639D01*
X150599752Y-86948704D01*
X150669899Y-87018617D01*
X150760222Y-87074453D01*
X150865795Y-87111052D01*
X150981690Y-87123251D01*
X151097116Y-87111052D01*
X151201281Y-87074453D01*
X151260862Y-87037038D01*
X152847492Y-87037038D01*
X152862970Y-87160863D01*
X152909405Y-87280878D01*
X152986081Y-87389701D01*
X153092285Y-87479951D01*
X153221110Y-87540673D01*
X153365652Y-87560913D01*
X153509162Y-87543133D01*
X153634892Y-87489793D01*
X153742842Y-87400893D01*
X153825392Y-87289133D01*
X153874922Y-87167213D01*
X153891432Y-87035133D01*
X153875028Y-86903265D01*
X153825815Y-86781980D01*
X153743795Y-86671278D01*
X153636374Y-86583437D01*
X153510961Y-86530732D01*
X153367557Y-86513163D01*
X153218253Y-86533642D01*
X153086570Y-86595078D01*
X152979890Y-86685804D01*
X152905595Y-86794151D01*
X152862018Y-86913451D01*
X152847492Y-87037038D01*
X151260862Y-87037038D01*
X151290197Y-87018617D01*
X151359875Y-86948704D01*
X151428692Y-86842558D01*
X151469983Y-86731824D01*
X151483747Y-86616502D01*
X151464040Y-86477616D01*
X151425564Y-86378143D01*
X151406796Y-86348113D01*
X151371136Y-86295562D01*
X151285739Y-86246764D01*
X151177821Y-86286177D01*
X151100401Y-86352336D01*
X151074594Y-86415680D01*
X151115885Y-86517030D01*
X151147791Y-86613687D01*
X151102747Y-86730990D01*
X150977936Y-86785419D01*
X150854064Y-86732867D01*
X150809958Y-86621195D01*
X150844680Y-86510461D01*
X150879402Y-86426941D01*
X150854534Y-86364536D01*
X150779929Y-86289931D01*
X150682333Y-86246764D01*
X150613359Y-86272570D01*
X150549077Y-86349990D01*
X150492771Y-86469170D01*
X150474003Y-86612749D01*
X150220863Y-86612749D01*
X150220863Y-85601128D01*
X150483387Y-85601128D01*
X150493188Y-85720829D01*
X150522592Y-85819677D01*
X150571599Y-85897670D01*
X150643962Y-85953975D01*
X150743435Y-85987759D01*
X150870018Y-85999020D01*
X151147791Y-85999020D01*
X151142160Y-86075970D01*
X151174067Y-86144475D01*
X151282924Y-86171690D01*
X151394596Y-86162305D01*
X151444333Y-86136030D01*
X151468732Y-86060956D01*
X151461224Y-85999020D01*
X151654540Y-85999020D01*
X151718353Y-85996204D01*
X151726200Y-85993098D01*
X152863685Y-85993098D01*
X152872257Y-86145498D01*
X152906071Y-86266466D01*
X152969412Y-86335998D01*
X153090380Y-86376003D01*
X153266592Y-86389338D01*
X154173372Y-86389338D01*
X154239095Y-86386481D01*
X154289577Y-86370288D01*
X154328153Y-86319806D01*
X154341012Y-86221698D01*
X154328153Y-86127401D01*
X154289577Y-86076918D01*
X154238142Y-86058821D01*
X154171467Y-86055963D01*
X153289452Y-86055963D01*
X153202775Y-86044533D01*
X153184677Y-85994051D01*
X153181820Y-85941663D01*
X153165627Y-85909278D01*
X153030372Y-85871178D01*
X152933693Y-85880703D01*
X152883687Y-85909278D01*
X152863685Y-85993098D01*
X151726200Y-85993098D01*
X151763397Y-85978374D01*
X151798588Y-85930046D01*
X151810318Y-85833857D01*
X151792957Y-85732038D01*
X151740875Y-85681833D01*
X151645155Y-85672448D01*
X151461224Y-85672448D01*
X151468732Y-85547638D01*
X151465917Y-85483825D01*
X151448087Y-85434089D01*
X151399758Y-85397490D01*
X151303569Y-85385291D01*
X151208319Y-85397959D01*
X151159052Y-85435966D01*
X151143099Y-85485702D01*
X151140284Y-85550453D01*
X151147791Y-85672448D01*
X150888786Y-85672448D01*
X150815589Y-85656495D01*
X150793067Y-85596436D01*
X150790252Y-85528869D01*
X150772421Y-85479133D01*
X150646673Y-85435966D01*
X150551423Y-85449103D01*
X150502155Y-85488517D01*
X150486202Y-85538254D01*
X150483387Y-85601128D01*
X150220863Y-85601128D01*
X150220863Y-85370163D01*
X152863685Y-85370163D01*
X152872257Y-85522563D01*
X152906071Y-85643531D01*
X152969412Y-85713063D01*
X153090380Y-85753068D01*
X153266592Y-85766403D01*
X154173372Y-85766403D01*
X154239095Y-85763546D01*
X154289577Y-85747353D01*
X154328153Y-85696871D01*
X154341012Y-85598763D01*
X154328153Y-85504466D01*
X154289577Y-85453983D01*
X154238142Y-85435886D01*
X154171467Y-85433028D01*
X153289452Y-85433028D01*
X153202775Y-85421598D01*
X153184677Y-85371116D01*
X153181820Y-85318728D01*
X153165627Y-85286343D01*
X153030372Y-85248243D01*
X152933693Y-85257768D01*
X152883687Y-85286343D01*
X152863685Y-85370163D01*
X150220863Y-85370163D01*
X150220863Y-85118778D01*
X150483387Y-85118778D01*
X150496056Y-85214028D01*
X150534062Y-85263296D01*
X150582860Y-85279249D01*
X150648550Y-85282064D01*
X151307323Y-85282064D01*
X151372074Y-85279249D01*
X151421811Y-85263296D01*
X151458409Y-85213559D01*
X151470490Y-85117840D01*
X151605742Y-85117840D01*
X151617003Y-85212621D01*
X151656417Y-85262357D01*
X151706153Y-85279249D01*
X151770904Y-85282064D01*
X151835655Y-85279249D01*
X151883515Y-85263296D01*
X151921521Y-85213559D01*
X151934190Y-85116901D01*
X151921521Y-85022121D01*
X151883515Y-84974261D01*
X151833779Y-84956431D01*
X151769027Y-84953616D01*
X151704276Y-84956431D01*
X151655478Y-84973323D01*
X151617003Y-85023059D01*
X151605742Y-85117840D01*
X151470490Y-85117840D01*
X151470609Y-85116901D01*
X151438702Y-84989276D01*
X151357998Y-84955493D01*
X151303569Y-84953616D01*
X150646673Y-84953616D01*
X150581921Y-84956431D01*
X150532185Y-84974261D01*
X150495587Y-85022590D01*
X150483387Y-85118778D01*
X150220863Y-85118778D01*
X150220863Y-84315488D01*
X150466495Y-84315488D01*
X150481745Y-84437483D01*
X150527493Y-84555724D01*
X150603036Y-84662939D01*
X150707670Y-84751855D01*
X150834592Y-84811679D01*
X150976998Y-84831621D01*
X151118387Y-84814103D01*
X151242259Y-84761552D01*
X151348614Y-84673966D01*
X151380332Y-84631023D01*
X152839872Y-84631023D01*
X152852016Y-84764135D01*
X152888450Y-84881531D01*
X152944885Y-84978924D01*
X153017037Y-85052028D01*
X153123929Y-85118703D01*
X153238864Y-85158708D01*
X153361842Y-85172043D01*
X153511173Y-85154792D01*
X153639125Y-85103040D01*
X153745700Y-85016786D01*
X153825604Y-84904708D01*
X153873546Y-84775486D01*
X153889527Y-84629118D01*
X153877859Y-84505531D01*
X153842855Y-84399566D01*
X153784514Y-84311221D01*
X153702837Y-84240498D01*
X153599253Y-84191921D01*
X153486620Y-84175728D01*
X153384702Y-84190254D01*
X153313265Y-84233831D01*
X153257067Y-84362418D01*
X153257067Y-84813903D01*
X153167532Y-84751038D01*
X153131337Y-84625308D01*
X153137052Y-84526725D01*
X153154197Y-84451953D01*
X153161817Y-84430998D01*
X153182772Y-84354798D01*
X153097047Y-84250023D01*
X153009417Y-84225258D01*
X152935241Y-84250619D01*
X152882258Y-84326700D01*
X152850469Y-84453501D01*
X152839872Y-84631023D01*
X151380332Y-84631023D01*
X151429944Y-84563857D01*
X151478742Y-84443739D01*
X151495008Y-84313611D01*
X151478846Y-84183691D01*
X151430361Y-84064199D01*
X151349552Y-83955133D01*
X151265216Y-83886168D01*
X152864637Y-83886168D01*
X152897022Y-84017613D01*
X152978937Y-84051903D01*
X153034182Y-84051903D01*
X153702837Y-84051903D01*
X153768560Y-84049046D01*
X153817137Y-84032853D01*
X153855713Y-83982371D01*
X153868572Y-83884263D01*
X153857618Y-83791395D01*
X153824757Y-83741388D01*
X153761892Y-83720433D01*
X153794277Y-83692811D01*
X153845712Y-83615658D01*
X153878097Y-83511836D01*
X153873335Y-83436588D01*
X153857142Y-83369913D01*
X153818090Y-83309906D01*
X153729507Y-83286093D01*
X153596157Y-83322288D01*
X153523767Y-83427063D01*
X153539007Y-83492786D01*
X153554247Y-83575653D01*
X153518052Y-83671856D01*
X153430422Y-83716623D01*
X153030372Y-83716623D01*
X152964650Y-83719481D01*
X152914167Y-83737578D01*
X152877020Y-83789013D01*
X152864637Y-83886168D01*
X151265216Y-83886168D01*
X151243719Y-83868589D01*
X151120160Y-83816663D01*
X150978875Y-83799355D01*
X150831777Y-83819531D01*
X150702040Y-83880059D01*
X150596936Y-83969444D01*
X150523739Y-84076190D01*
X150480806Y-84193727D01*
X150466495Y-84315488D01*
X150220863Y-84315488D01*
X150220863Y-82855300D01*
X150485264Y-82855300D01*
X150502625Y-82960404D01*
X150554707Y-83009202D01*
X150650426Y-83020463D01*
X150980752Y-83020463D01*
X151100870Y-83064569D01*
X151144037Y-83182810D01*
X151098993Y-83302929D01*
X150980752Y-83348911D01*
X150648550Y-83348911D01*
X150583798Y-83351727D01*
X150535939Y-83369557D01*
X150497933Y-83417885D01*
X150485264Y-83514074D01*
X150497933Y-83609324D01*
X150535939Y-83658591D01*
X150585675Y-83674544D01*
X150650426Y-83677360D01*
X151314830Y-83677360D01*
X151377705Y-83674544D01*
X151425564Y-83656714D01*
X151460755Y-83607447D01*
X151472486Y-83512197D01*
X151461694Y-83419762D01*
X151429318Y-83371433D01*
X151352367Y-83352665D01*
X151389904Y-83318882D01*
X151429318Y-83268207D01*
X151472486Y-83127443D01*
X151456532Y-83009306D01*
X151408673Y-82905141D01*
X151328907Y-82814948D01*
X151226201Y-82745609D01*
X151109524Y-82704006D01*
X150978875Y-82690138D01*
X150648550Y-82690138D01*
X150583798Y-82692953D01*
X150535939Y-82708906D01*
X150497933Y-82758643D01*
X150485264Y-82855300D01*
X150220863Y-82855300D01*
X150220863Y-82690138D01*
X150220863Y-82689979D01*
X150223488Y-82583054D01*
X150231356Y-82476386D01*
X150244449Y-82370233D01*
X150262734Y-82264851D01*
X150286169Y-82160492D01*
X150314696Y-82057409D01*
X150348246Y-81955850D01*
X150386740Y-81856060D01*
X150430083Y-81758278D01*
X150478173Y-81662741D01*
X150530892Y-81569679D01*
X150588114Y-81479316D01*
X150649701Y-81391869D01*
X150715504Y-81307549D01*
X150785366Y-81226560D01*
X150859117Y-81149097D01*
X150936581Y-81075345D01*
X151017570Y-81005483D01*
X151101890Y-80939680D01*
X151189336Y-80878093D01*
X151279700Y-80820871D01*
X151372762Y-80768152D01*
X151468299Y-80720063D01*
X151566080Y-80676719D01*
X151665871Y-80638226D01*
X151767430Y-80604675D01*
X151870513Y-80576148D01*
X151974871Y-80552714D01*
X152080254Y-80534428D01*
X152186407Y-80521335D01*
X152293075Y-80513467D01*
X152400000Y-80510842D01*
X152506925Y-80513467D01*
G37*
%TD*%
M02*
