%TF.GenerationSoftware,KiCad,Pcbnew,7.0.2*%
%TF.CreationDate,2023-05-10T12:42:35-04:00*%
%TF.ProjectId,StackLight,53746163-6b4c-4696-9768-742e6b696361,0.5*%
%TF.SameCoordinates,Original*%
%TF.FileFunction,Drillmap*%
%TF.FilePolarity,Positive*%
%FSLAX45Y45*%
G04 Gerber Fmt 4.5, Leading zero omitted, Abs format (unit mm)*
G04 Created by KiCad (PCBNEW 7.0.2) date 2023-05-10 12:42:35*
%MOMM*%
%LPD*%
G01*
G04 APERTURE LIST*
%ADD10C,0.200000*%
%ADD11C,0.320000*%
%ADD12C,0.350000*%
G04 APERTURE END LIST*
D10*
X15500000Y-8000000D02*
X15500000Y-10000000D01*
X11000000Y-7500000D02*
G75*
G03*
X10500000Y-8000000I0J-500000D01*
G01*
X15000000Y-10500000D02*
X11000000Y-10500000D01*
X11000000Y-7500000D02*
X15000000Y-7500000D01*
X15000000Y-10500000D02*
G75*
G03*
X15500000Y-10000000I0J500000D01*
G01*
X10500000Y-10000000D02*
G75*
G03*
X11000000Y-10500000I500000J0D01*
G01*
X15500000Y-8000000D02*
G75*
G03*
X15000000Y-7500000I-500000J0D01*
G01*
X10500000Y-10000000D02*
X10500000Y-8000000D01*
D11*
X10840000Y-7840000D02*
X11160000Y-8160000D01*
X11160000Y-7840000D02*
X10840000Y-8160000D01*
X14840000Y-9840000D02*
X15160000Y-10160000D01*
X15160000Y-9840000D02*
X14840000Y-10160000D01*
D12*
X11710000Y-7820000D02*
G75*
G03*
X11710000Y-7820000I-175000J0D01*
G01*
X11710000Y-8420000D02*
G75*
G03*
X11710000Y-8420000I-175000J0D01*
G01*
X11710000Y-9020000D02*
G75*
G03*
X11710000Y-9020000I-175000J0D01*
G01*
X11710000Y-9620000D02*
G75*
G03*
X11710000Y-9620000I-175000J0D01*
G01*
X11710000Y-10220000D02*
G75*
G03*
X11710000Y-10220000I-175000J0D01*
G01*
D10*
X10737619Y-10822524D02*
X10737619Y-10622524D01*
X10737619Y-10622524D02*
X10785238Y-10622524D01*
X10785238Y-10622524D02*
X10813810Y-10632048D01*
X10813810Y-10632048D02*
X10832857Y-10651095D01*
X10832857Y-10651095D02*
X10842381Y-10670143D01*
X10842381Y-10670143D02*
X10851905Y-10708238D01*
X10851905Y-10708238D02*
X10851905Y-10736810D01*
X10851905Y-10736810D02*
X10842381Y-10774905D01*
X10842381Y-10774905D02*
X10832857Y-10793952D01*
X10832857Y-10793952D02*
X10813810Y-10813000D01*
X10813810Y-10813000D02*
X10785238Y-10822524D01*
X10785238Y-10822524D02*
X10737619Y-10822524D01*
X10937619Y-10822524D02*
X10937619Y-10689190D01*
X10937619Y-10727286D02*
X10947143Y-10708238D01*
X10947143Y-10708238D02*
X10956667Y-10698714D01*
X10956667Y-10698714D02*
X10975714Y-10689190D01*
X10975714Y-10689190D02*
X10994762Y-10689190D01*
X11061429Y-10822524D02*
X11061429Y-10689190D01*
X11061429Y-10622524D02*
X11051905Y-10632048D01*
X11051905Y-10632048D02*
X11061429Y-10641571D01*
X11061429Y-10641571D02*
X11070952Y-10632048D01*
X11070952Y-10632048D02*
X11061429Y-10622524D01*
X11061429Y-10622524D02*
X11061429Y-10641571D01*
X11185238Y-10822524D02*
X11166190Y-10813000D01*
X11166190Y-10813000D02*
X11156667Y-10793952D01*
X11156667Y-10793952D02*
X11156667Y-10622524D01*
X11290000Y-10822524D02*
X11270952Y-10813000D01*
X11270952Y-10813000D02*
X11261428Y-10793952D01*
X11261428Y-10793952D02*
X11261428Y-10622524D01*
X11518571Y-10822524D02*
X11518571Y-10622524D01*
X11518571Y-10622524D02*
X11585238Y-10765381D01*
X11585238Y-10765381D02*
X11651905Y-10622524D01*
X11651905Y-10622524D02*
X11651905Y-10822524D01*
X11832857Y-10822524D02*
X11832857Y-10717762D01*
X11832857Y-10717762D02*
X11823333Y-10698714D01*
X11823333Y-10698714D02*
X11804286Y-10689190D01*
X11804286Y-10689190D02*
X11766190Y-10689190D01*
X11766190Y-10689190D02*
X11747143Y-10698714D01*
X11832857Y-10813000D02*
X11813809Y-10822524D01*
X11813809Y-10822524D02*
X11766190Y-10822524D01*
X11766190Y-10822524D02*
X11747143Y-10813000D01*
X11747143Y-10813000D02*
X11737619Y-10793952D01*
X11737619Y-10793952D02*
X11737619Y-10774905D01*
X11737619Y-10774905D02*
X11747143Y-10755857D01*
X11747143Y-10755857D02*
X11766190Y-10746333D01*
X11766190Y-10746333D02*
X11813809Y-10746333D01*
X11813809Y-10746333D02*
X11832857Y-10736810D01*
X11928095Y-10689190D02*
X11928095Y-10889190D01*
X11928095Y-10698714D02*
X11947143Y-10689190D01*
X11947143Y-10689190D02*
X11985238Y-10689190D01*
X11985238Y-10689190D02*
X12004286Y-10698714D01*
X12004286Y-10698714D02*
X12013809Y-10708238D01*
X12013809Y-10708238D02*
X12023333Y-10727286D01*
X12023333Y-10727286D02*
X12023333Y-10784429D01*
X12023333Y-10784429D02*
X12013809Y-10803476D01*
X12013809Y-10803476D02*
X12004286Y-10813000D01*
X12004286Y-10813000D02*
X11985238Y-10822524D01*
X11985238Y-10822524D02*
X11947143Y-10822524D01*
X11947143Y-10822524D02*
X11928095Y-10813000D01*
X12109048Y-10803476D02*
X12118571Y-10813000D01*
X12118571Y-10813000D02*
X12109048Y-10822524D01*
X12109048Y-10822524D02*
X12099524Y-10813000D01*
X12099524Y-10813000D02*
X12109048Y-10803476D01*
X12109048Y-10803476D02*
X12109048Y-10822524D01*
X12109048Y-10698714D02*
X12118571Y-10708238D01*
X12118571Y-10708238D02*
X12109048Y-10717762D01*
X12109048Y-10717762D02*
X12099524Y-10708238D01*
X12099524Y-10708238D02*
X12109048Y-10698714D01*
X12109048Y-10698714D02*
X12109048Y-10717762D01*
X10290000Y-11050000D02*
X10490000Y-11250000D01*
X10490000Y-11050000D02*
X10290000Y-11250000D01*
X10718571Y-11042524D02*
X10842381Y-11042524D01*
X10842381Y-11042524D02*
X10775714Y-11118714D01*
X10775714Y-11118714D02*
X10804286Y-11118714D01*
X10804286Y-11118714D02*
X10823333Y-11128238D01*
X10823333Y-11128238D02*
X10832857Y-11137762D01*
X10832857Y-11137762D02*
X10842381Y-11156810D01*
X10842381Y-11156810D02*
X10842381Y-11204428D01*
X10842381Y-11204428D02*
X10832857Y-11223476D01*
X10832857Y-11223476D02*
X10823333Y-11233000D01*
X10823333Y-11233000D02*
X10804286Y-11242524D01*
X10804286Y-11242524D02*
X10747143Y-11242524D01*
X10747143Y-11242524D02*
X10728095Y-11233000D01*
X10728095Y-11233000D02*
X10718571Y-11223476D01*
X10928095Y-11223476D02*
X10937619Y-11233000D01*
X10937619Y-11233000D02*
X10928095Y-11242524D01*
X10928095Y-11242524D02*
X10918571Y-11233000D01*
X10918571Y-11233000D02*
X10928095Y-11223476D01*
X10928095Y-11223476D02*
X10928095Y-11242524D01*
X11013810Y-11061571D02*
X11023333Y-11052048D01*
X11023333Y-11052048D02*
X11042381Y-11042524D01*
X11042381Y-11042524D02*
X11090000Y-11042524D01*
X11090000Y-11042524D02*
X11109048Y-11052048D01*
X11109048Y-11052048D02*
X11118571Y-11061571D01*
X11118571Y-11061571D02*
X11128095Y-11080619D01*
X11128095Y-11080619D02*
X11128095Y-11099667D01*
X11128095Y-11099667D02*
X11118571Y-11128238D01*
X11118571Y-11128238D02*
X11004286Y-11242524D01*
X11004286Y-11242524D02*
X11128095Y-11242524D01*
X11251905Y-11042524D02*
X11270952Y-11042524D01*
X11270952Y-11042524D02*
X11290000Y-11052048D01*
X11290000Y-11052048D02*
X11299524Y-11061571D01*
X11299524Y-11061571D02*
X11309048Y-11080619D01*
X11309048Y-11080619D02*
X11318571Y-11118714D01*
X11318571Y-11118714D02*
X11318571Y-11166333D01*
X11318571Y-11166333D02*
X11309048Y-11204428D01*
X11309048Y-11204428D02*
X11299524Y-11223476D01*
X11299524Y-11223476D02*
X11290000Y-11233000D01*
X11290000Y-11233000D02*
X11270952Y-11242524D01*
X11270952Y-11242524D02*
X11251905Y-11242524D01*
X11251905Y-11242524D02*
X11232857Y-11233000D01*
X11232857Y-11233000D02*
X11223333Y-11223476D01*
X11223333Y-11223476D02*
X11213809Y-11204428D01*
X11213809Y-11204428D02*
X11204286Y-11166333D01*
X11204286Y-11166333D02*
X11204286Y-11118714D01*
X11204286Y-11118714D02*
X11213809Y-11080619D01*
X11213809Y-11080619D02*
X11223333Y-11061571D01*
X11223333Y-11061571D02*
X11232857Y-11052048D01*
X11232857Y-11052048D02*
X11251905Y-11042524D01*
X11442381Y-11042524D02*
X11461429Y-11042524D01*
X11461429Y-11042524D02*
X11480476Y-11052048D01*
X11480476Y-11052048D02*
X11490000Y-11061571D01*
X11490000Y-11061571D02*
X11499524Y-11080619D01*
X11499524Y-11080619D02*
X11509048Y-11118714D01*
X11509048Y-11118714D02*
X11509048Y-11166333D01*
X11509048Y-11166333D02*
X11499524Y-11204428D01*
X11499524Y-11204428D02*
X11490000Y-11223476D01*
X11490000Y-11223476D02*
X11480476Y-11233000D01*
X11480476Y-11233000D02*
X11461429Y-11242524D01*
X11461429Y-11242524D02*
X11442381Y-11242524D01*
X11442381Y-11242524D02*
X11423333Y-11233000D01*
X11423333Y-11233000D02*
X11413809Y-11223476D01*
X11413809Y-11223476D02*
X11404286Y-11204428D01*
X11404286Y-11204428D02*
X11394762Y-11166333D01*
X11394762Y-11166333D02*
X11394762Y-11118714D01*
X11394762Y-11118714D02*
X11404286Y-11080619D01*
X11404286Y-11080619D02*
X11413809Y-11061571D01*
X11413809Y-11061571D02*
X11423333Y-11052048D01*
X11423333Y-11052048D02*
X11442381Y-11042524D01*
X11594762Y-11242524D02*
X11594762Y-11109190D01*
X11594762Y-11128238D02*
X11604286Y-11118714D01*
X11604286Y-11118714D02*
X11623333Y-11109190D01*
X11623333Y-11109190D02*
X11651905Y-11109190D01*
X11651905Y-11109190D02*
X11670952Y-11118714D01*
X11670952Y-11118714D02*
X11680476Y-11137762D01*
X11680476Y-11137762D02*
X11680476Y-11242524D01*
X11680476Y-11137762D02*
X11690000Y-11118714D01*
X11690000Y-11118714D02*
X11709048Y-11109190D01*
X11709048Y-11109190D02*
X11737619Y-11109190D01*
X11737619Y-11109190D02*
X11756667Y-11118714D01*
X11756667Y-11118714D02*
X11766190Y-11137762D01*
X11766190Y-11137762D02*
X11766190Y-11242524D01*
X11861429Y-11242524D02*
X11861429Y-11109190D01*
X11861429Y-11128238D02*
X11870952Y-11118714D01*
X11870952Y-11118714D02*
X11890000Y-11109190D01*
X11890000Y-11109190D02*
X11918571Y-11109190D01*
X11918571Y-11109190D02*
X11937619Y-11118714D01*
X11937619Y-11118714D02*
X11947143Y-11137762D01*
X11947143Y-11137762D02*
X11947143Y-11242524D01*
X11947143Y-11137762D02*
X11956667Y-11118714D01*
X11956667Y-11118714D02*
X11975714Y-11109190D01*
X11975714Y-11109190D02*
X12004286Y-11109190D01*
X12004286Y-11109190D02*
X12023333Y-11118714D01*
X12023333Y-11118714D02*
X12032857Y-11137762D01*
X12032857Y-11137762D02*
X12032857Y-11242524D01*
X12423333Y-11033000D02*
X12251905Y-11290143D01*
X12680476Y-11042524D02*
X12699524Y-11042524D01*
X12699524Y-11042524D02*
X12718572Y-11052048D01*
X12718572Y-11052048D02*
X12728095Y-11061571D01*
X12728095Y-11061571D02*
X12737619Y-11080619D01*
X12737619Y-11080619D02*
X12747143Y-11118714D01*
X12747143Y-11118714D02*
X12747143Y-11166333D01*
X12747143Y-11166333D02*
X12737619Y-11204428D01*
X12737619Y-11204428D02*
X12728095Y-11223476D01*
X12728095Y-11223476D02*
X12718572Y-11233000D01*
X12718572Y-11233000D02*
X12699524Y-11242524D01*
X12699524Y-11242524D02*
X12680476Y-11242524D01*
X12680476Y-11242524D02*
X12661429Y-11233000D01*
X12661429Y-11233000D02*
X12651905Y-11223476D01*
X12651905Y-11223476D02*
X12642381Y-11204428D01*
X12642381Y-11204428D02*
X12632857Y-11166333D01*
X12632857Y-11166333D02*
X12632857Y-11118714D01*
X12632857Y-11118714D02*
X12642381Y-11080619D01*
X12642381Y-11080619D02*
X12651905Y-11061571D01*
X12651905Y-11061571D02*
X12661429Y-11052048D01*
X12661429Y-11052048D02*
X12680476Y-11042524D01*
X12832857Y-11223476D02*
X12842381Y-11233000D01*
X12842381Y-11233000D02*
X12832857Y-11242524D01*
X12832857Y-11242524D02*
X12823333Y-11233000D01*
X12823333Y-11233000D02*
X12832857Y-11223476D01*
X12832857Y-11223476D02*
X12832857Y-11242524D01*
X13032857Y-11242524D02*
X12918572Y-11242524D01*
X12975714Y-11242524D02*
X12975714Y-11042524D01*
X12975714Y-11042524D02*
X12956667Y-11071095D01*
X12956667Y-11071095D02*
X12937619Y-11090143D01*
X12937619Y-11090143D02*
X12918572Y-11099667D01*
X13109048Y-11061571D02*
X13118572Y-11052048D01*
X13118572Y-11052048D02*
X13137619Y-11042524D01*
X13137619Y-11042524D02*
X13185238Y-11042524D01*
X13185238Y-11042524D02*
X13204286Y-11052048D01*
X13204286Y-11052048D02*
X13213810Y-11061571D01*
X13213810Y-11061571D02*
X13223333Y-11080619D01*
X13223333Y-11080619D02*
X13223333Y-11099667D01*
X13223333Y-11099667D02*
X13213810Y-11128238D01*
X13213810Y-11128238D02*
X13099524Y-11242524D01*
X13099524Y-11242524D02*
X13223333Y-11242524D01*
X13394762Y-11042524D02*
X13356667Y-11042524D01*
X13356667Y-11042524D02*
X13337619Y-11052048D01*
X13337619Y-11052048D02*
X13328095Y-11061571D01*
X13328095Y-11061571D02*
X13309048Y-11090143D01*
X13309048Y-11090143D02*
X13299524Y-11128238D01*
X13299524Y-11128238D02*
X13299524Y-11204428D01*
X13299524Y-11204428D02*
X13309048Y-11223476D01*
X13309048Y-11223476D02*
X13318572Y-11233000D01*
X13318572Y-11233000D02*
X13337619Y-11242524D01*
X13337619Y-11242524D02*
X13375714Y-11242524D01*
X13375714Y-11242524D02*
X13394762Y-11233000D01*
X13394762Y-11233000D02*
X13404286Y-11223476D01*
X13404286Y-11223476D02*
X13413810Y-11204428D01*
X13413810Y-11204428D02*
X13413810Y-11156810D01*
X13413810Y-11156810D02*
X13404286Y-11137762D01*
X13404286Y-11137762D02*
X13394762Y-11128238D01*
X13394762Y-11128238D02*
X13375714Y-11118714D01*
X13375714Y-11118714D02*
X13337619Y-11118714D01*
X13337619Y-11118714D02*
X13318572Y-11128238D01*
X13318572Y-11128238D02*
X13309048Y-11137762D01*
X13309048Y-11137762D02*
X13299524Y-11156810D01*
X13537619Y-11042524D02*
X13556667Y-11042524D01*
X13556667Y-11042524D02*
X13575714Y-11052048D01*
X13575714Y-11052048D02*
X13585238Y-11061571D01*
X13585238Y-11061571D02*
X13594762Y-11080619D01*
X13594762Y-11080619D02*
X13604286Y-11118714D01*
X13604286Y-11118714D02*
X13604286Y-11166333D01*
X13604286Y-11166333D02*
X13594762Y-11204428D01*
X13594762Y-11204428D02*
X13585238Y-11223476D01*
X13585238Y-11223476D02*
X13575714Y-11233000D01*
X13575714Y-11233000D02*
X13556667Y-11242524D01*
X13556667Y-11242524D02*
X13537619Y-11242524D01*
X13537619Y-11242524D02*
X13518572Y-11233000D01*
X13518572Y-11233000D02*
X13509048Y-11223476D01*
X13509048Y-11223476D02*
X13499524Y-11204428D01*
X13499524Y-11204428D02*
X13490000Y-11166333D01*
X13490000Y-11166333D02*
X13490000Y-11118714D01*
X13490000Y-11118714D02*
X13499524Y-11080619D01*
X13499524Y-11080619D02*
X13509048Y-11061571D01*
X13509048Y-11061571D02*
X13518572Y-11052048D01*
X13518572Y-11052048D02*
X13537619Y-11042524D01*
X13680476Y-11042524D02*
X13680476Y-11080619D01*
X13756667Y-11042524D02*
X13756667Y-11080619D01*
X14051905Y-11318714D02*
X14042381Y-11309190D01*
X14042381Y-11309190D02*
X14023334Y-11280619D01*
X14023334Y-11280619D02*
X14013810Y-11261571D01*
X14013810Y-11261571D02*
X14004286Y-11233000D01*
X14004286Y-11233000D02*
X13994762Y-11185381D01*
X13994762Y-11185381D02*
X13994762Y-11147286D01*
X13994762Y-11147286D02*
X14004286Y-11099667D01*
X14004286Y-11099667D02*
X14013810Y-11071095D01*
X14013810Y-11071095D02*
X14023334Y-11052048D01*
X14023334Y-11052048D02*
X14042381Y-11023476D01*
X14042381Y-11023476D02*
X14051905Y-11013952D01*
X14118572Y-11061571D02*
X14128095Y-11052048D01*
X14128095Y-11052048D02*
X14147143Y-11042524D01*
X14147143Y-11042524D02*
X14194762Y-11042524D01*
X14194762Y-11042524D02*
X14213810Y-11052048D01*
X14213810Y-11052048D02*
X14223334Y-11061571D01*
X14223334Y-11061571D02*
X14232857Y-11080619D01*
X14232857Y-11080619D02*
X14232857Y-11099667D01*
X14232857Y-11099667D02*
X14223334Y-11128238D01*
X14223334Y-11128238D02*
X14109048Y-11242524D01*
X14109048Y-11242524D02*
X14232857Y-11242524D01*
X14470953Y-11242524D02*
X14470953Y-11042524D01*
X14556667Y-11242524D02*
X14556667Y-11137762D01*
X14556667Y-11137762D02*
X14547143Y-11118714D01*
X14547143Y-11118714D02*
X14528096Y-11109190D01*
X14528096Y-11109190D02*
X14499524Y-11109190D01*
X14499524Y-11109190D02*
X14480476Y-11118714D01*
X14480476Y-11118714D02*
X14470953Y-11128238D01*
X14680476Y-11242524D02*
X14661429Y-11233000D01*
X14661429Y-11233000D02*
X14651905Y-11223476D01*
X14651905Y-11223476D02*
X14642381Y-11204428D01*
X14642381Y-11204428D02*
X14642381Y-11147286D01*
X14642381Y-11147286D02*
X14651905Y-11128238D01*
X14651905Y-11128238D02*
X14661429Y-11118714D01*
X14661429Y-11118714D02*
X14680476Y-11109190D01*
X14680476Y-11109190D02*
X14709048Y-11109190D01*
X14709048Y-11109190D02*
X14728096Y-11118714D01*
X14728096Y-11118714D02*
X14737619Y-11128238D01*
X14737619Y-11128238D02*
X14747143Y-11147286D01*
X14747143Y-11147286D02*
X14747143Y-11204428D01*
X14747143Y-11204428D02*
X14737619Y-11223476D01*
X14737619Y-11223476D02*
X14728096Y-11233000D01*
X14728096Y-11233000D02*
X14709048Y-11242524D01*
X14709048Y-11242524D02*
X14680476Y-11242524D01*
X14861429Y-11242524D02*
X14842381Y-11233000D01*
X14842381Y-11233000D02*
X14832857Y-11213952D01*
X14832857Y-11213952D02*
X14832857Y-11042524D01*
X15013810Y-11233000D02*
X14994762Y-11242524D01*
X14994762Y-11242524D02*
X14956667Y-11242524D01*
X14956667Y-11242524D02*
X14937619Y-11233000D01*
X14937619Y-11233000D02*
X14928096Y-11213952D01*
X14928096Y-11213952D02*
X14928096Y-11137762D01*
X14928096Y-11137762D02*
X14937619Y-11118714D01*
X14937619Y-11118714D02*
X14956667Y-11109190D01*
X14956667Y-11109190D02*
X14994762Y-11109190D01*
X14994762Y-11109190D02*
X15013810Y-11118714D01*
X15013810Y-11118714D02*
X15023334Y-11137762D01*
X15023334Y-11137762D02*
X15023334Y-11156810D01*
X15023334Y-11156810D02*
X14928096Y-11175857D01*
X15099524Y-11233000D02*
X15118572Y-11242524D01*
X15118572Y-11242524D02*
X15156667Y-11242524D01*
X15156667Y-11242524D02*
X15175715Y-11233000D01*
X15175715Y-11233000D02*
X15185238Y-11213952D01*
X15185238Y-11213952D02*
X15185238Y-11204428D01*
X15185238Y-11204428D02*
X15175715Y-11185381D01*
X15175715Y-11185381D02*
X15156667Y-11175857D01*
X15156667Y-11175857D02*
X15128096Y-11175857D01*
X15128096Y-11175857D02*
X15109048Y-11166333D01*
X15109048Y-11166333D02*
X15099524Y-11147286D01*
X15099524Y-11147286D02*
X15099524Y-11137762D01*
X15099524Y-11137762D02*
X15109048Y-11118714D01*
X15109048Y-11118714D02*
X15128096Y-11109190D01*
X15128096Y-11109190D02*
X15156667Y-11109190D01*
X15156667Y-11109190D02*
X15175715Y-11118714D01*
X15251905Y-11318714D02*
X15261429Y-11309190D01*
X15261429Y-11309190D02*
X15280477Y-11280619D01*
X15280477Y-11280619D02*
X15290000Y-11261571D01*
X15290000Y-11261571D02*
X15299524Y-11233000D01*
X15299524Y-11233000D02*
X15309048Y-11185381D01*
X15309048Y-11185381D02*
X15309048Y-11147286D01*
X15309048Y-11147286D02*
X15299524Y-11099667D01*
X15299524Y-11099667D02*
X15290000Y-11071095D01*
X15290000Y-11071095D02*
X15280477Y-11052048D01*
X15280477Y-11052048D02*
X15261429Y-11023476D01*
X15261429Y-11023476D02*
X15251905Y-11013952D01*
X15613810Y-11318714D02*
X15604286Y-11309190D01*
X15604286Y-11309190D02*
X15585238Y-11280619D01*
X15585238Y-11280619D02*
X15575715Y-11261571D01*
X15575715Y-11261571D02*
X15566191Y-11233000D01*
X15566191Y-11233000D02*
X15556667Y-11185381D01*
X15556667Y-11185381D02*
X15556667Y-11147286D01*
X15556667Y-11147286D02*
X15566191Y-11099667D01*
X15566191Y-11099667D02*
X15575715Y-11071095D01*
X15575715Y-11071095D02*
X15585238Y-11052048D01*
X15585238Y-11052048D02*
X15604286Y-11023476D01*
X15604286Y-11023476D02*
X15613810Y-11013952D01*
X15690000Y-11109190D02*
X15690000Y-11242524D01*
X15690000Y-11128238D02*
X15699524Y-11118714D01*
X15699524Y-11118714D02*
X15718572Y-11109190D01*
X15718572Y-11109190D02*
X15747143Y-11109190D01*
X15747143Y-11109190D02*
X15766191Y-11118714D01*
X15766191Y-11118714D02*
X15775715Y-11137762D01*
X15775715Y-11137762D02*
X15775715Y-11242524D01*
X15899524Y-11242524D02*
X15880477Y-11233000D01*
X15880477Y-11233000D02*
X15870953Y-11223476D01*
X15870953Y-11223476D02*
X15861429Y-11204428D01*
X15861429Y-11204428D02*
X15861429Y-11147286D01*
X15861429Y-11147286D02*
X15870953Y-11128238D01*
X15870953Y-11128238D02*
X15880477Y-11118714D01*
X15880477Y-11118714D02*
X15899524Y-11109190D01*
X15899524Y-11109190D02*
X15928096Y-11109190D01*
X15928096Y-11109190D02*
X15947143Y-11118714D01*
X15947143Y-11118714D02*
X15956667Y-11128238D01*
X15956667Y-11128238D02*
X15966191Y-11147286D01*
X15966191Y-11147286D02*
X15966191Y-11204428D01*
X15966191Y-11204428D02*
X15956667Y-11223476D01*
X15956667Y-11223476D02*
X15947143Y-11233000D01*
X15947143Y-11233000D02*
X15928096Y-11242524D01*
X15928096Y-11242524D02*
X15899524Y-11242524D01*
X16023334Y-11109190D02*
X16099524Y-11109190D01*
X16051905Y-11042524D02*
X16051905Y-11213952D01*
X16051905Y-11213952D02*
X16061429Y-11233000D01*
X16061429Y-11233000D02*
X16080477Y-11242524D01*
X16080477Y-11242524D02*
X16099524Y-11242524D01*
X16318572Y-11109190D02*
X16318572Y-11309190D01*
X16318572Y-11118714D02*
X16337619Y-11109190D01*
X16337619Y-11109190D02*
X16375715Y-11109190D01*
X16375715Y-11109190D02*
X16394762Y-11118714D01*
X16394762Y-11118714D02*
X16404286Y-11128238D01*
X16404286Y-11128238D02*
X16413810Y-11147286D01*
X16413810Y-11147286D02*
X16413810Y-11204428D01*
X16413810Y-11204428D02*
X16404286Y-11223476D01*
X16404286Y-11223476D02*
X16394762Y-11233000D01*
X16394762Y-11233000D02*
X16375715Y-11242524D01*
X16375715Y-11242524D02*
X16337619Y-11242524D01*
X16337619Y-11242524D02*
X16318572Y-11233000D01*
X16528096Y-11242524D02*
X16509048Y-11233000D01*
X16509048Y-11233000D02*
X16499524Y-11213952D01*
X16499524Y-11213952D02*
X16499524Y-11042524D01*
X16690000Y-11242524D02*
X16690000Y-11137762D01*
X16690000Y-11137762D02*
X16680477Y-11118714D01*
X16680477Y-11118714D02*
X16661429Y-11109190D01*
X16661429Y-11109190D02*
X16623334Y-11109190D01*
X16623334Y-11109190D02*
X16604286Y-11118714D01*
X16690000Y-11233000D02*
X16670953Y-11242524D01*
X16670953Y-11242524D02*
X16623334Y-11242524D01*
X16623334Y-11242524D02*
X16604286Y-11233000D01*
X16604286Y-11233000D02*
X16594762Y-11213952D01*
X16594762Y-11213952D02*
X16594762Y-11194905D01*
X16594762Y-11194905D02*
X16604286Y-11175857D01*
X16604286Y-11175857D02*
X16623334Y-11166333D01*
X16623334Y-11166333D02*
X16670953Y-11166333D01*
X16670953Y-11166333D02*
X16690000Y-11156810D01*
X16756667Y-11109190D02*
X16832858Y-11109190D01*
X16785239Y-11042524D02*
X16785239Y-11213952D01*
X16785239Y-11213952D02*
X16794762Y-11233000D01*
X16794762Y-11233000D02*
X16813810Y-11242524D01*
X16813810Y-11242524D02*
X16832858Y-11242524D01*
X16975715Y-11233000D02*
X16956667Y-11242524D01*
X16956667Y-11242524D02*
X16918572Y-11242524D01*
X16918572Y-11242524D02*
X16899524Y-11233000D01*
X16899524Y-11233000D02*
X16890001Y-11213952D01*
X16890001Y-11213952D02*
X16890001Y-11137762D01*
X16890001Y-11137762D02*
X16899524Y-11118714D01*
X16899524Y-11118714D02*
X16918572Y-11109190D01*
X16918572Y-11109190D02*
X16956667Y-11109190D01*
X16956667Y-11109190D02*
X16975715Y-11118714D01*
X16975715Y-11118714D02*
X16985239Y-11137762D01*
X16985239Y-11137762D02*
X16985239Y-11156810D01*
X16985239Y-11156810D02*
X16890001Y-11175857D01*
X17156667Y-11242524D02*
X17156667Y-11042524D01*
X17156667Y-11233000D02*
X17137620Y-11242524D01*
X17137620Y-11242524D02*
X17099524Y-11242524D01*
X17099524Y-11242524D02*
X17080477Y-11233000D01*
X17080477Y-11233000D02*
X17070953Y-11223476D01*
X17070953Y-11223476D02*
X17061429Y-11204428D01*
X17061429Y-11204428D02*
X17061429Y-11147286D01*
X17061429Y-11147286D02*
X17070953Y-11128238D01*
X17070953Y-11128238D02*
X17080477Y-11118714D01*
X17080477Y-11118714D02*
X17099524Y-11109190D01*
X17099524Y-11109190D02*
X17137620Y-11109190D01*
X17137620Y-11109190D02*
X17156667Y-11118714D01*
X17232858Y-11318714D02*
X17242382Y-11309190D01*
X17242382Y-11309190D02*
X17261429Y-11280619D01*
X17261429Y-11280619D02*
X17270953Y-11261571D01*
X17270953Y-11261571D02*
X17280477Y-11233000D01*
X17280477Y-11233000D02*
X17290001Y-11185381D01*
X17290001Y-11185381D02*
X17290001Y-11147286D01*
X17290001Y-11147286D02*
X17280477Y-11099667D01*
X17280477Y-11099667D02*
X17270953Y-11071095D01*
X17270953Y-11071095D02*
X17261429Y-11052048D01*
X17261429Y-11052048D02*
X17242382Y-11023476D01*
X17242382Y-11023476D02*
X17232858Y-11013952D01*
X10490000Y-11470000D02*
G75*
G03*
X10490000Y-11470000I-100000J0D01*
G01*
X10718571Y-11362524D02*
X10842381Y-11362524D01*
X10842381Y-11362524D02*
X10775714Y-11438714D01*
X10775714Y-11438714D02*
X10804286Y-11438714D01*
X10804286Y-11438714D02*
X10823333Y-11448238D01*
X10823333Y-11448238D02*
X10832857Y-11457762D01*
X10832857Y-11457762D02*
X10842381Y-11476809D01*
X10842381Y-11476809D02*
X10842381Y-11524428D01*
X10842381Y-11524428D02*
X10832857Y-11543476D01*
X10832857Y-11543476D02*
X10823333Y-11553000D01*
X10823333Y-11553000D02*
X10804286Y-11562524D01*
X10804286Y-11562524D02*
X10747143Y-11562524D01*
X10747143Y-11562524D02*
X10728095Y-11553000D01*
X10728095Y-11553000D02*
X10718571Y-11543476D01*
X10928095Y-11543476D02*
X10937619Y-11553000D01*
X10937619Y-11553000D02*
X10928095Y-11562524D01*
X10928095Y-11562524D02*
X10918571Y-11553000D01*
X10918571Y-11553000D02*
X10928095Y-11543476D01*
X10928095Y-11543476D02*
X10928095Y-11562524D01*
X11118571Y-11362524D02*
X11023333Y-11362524D01*
X11023333Y-11362524D02*
X11013810Y-11457762D01*
X11013810Y-11457762D02*
X11023333Y-11448238D01*
X11023333Y-11448238D02*
X11042381Y-11438714D01*
X11042381Y-11438714D02*
X11090000Y-11438714D01*
X11090000Y-11438714D02*
X11109048Y-11448238D01*
X11109048Y-11448238D02*
X11118571Y-11457762D01*
X11118571Y-11457762D02*
X11128095Y-11476809D01*
X11128095Y-11476809D02*
X11128095Y-11524428D01*
X11128095Y-11524428D02*
X11118571Y-11543476D01*
X11118571Y-11543476D02*
X11109048Y-11553000D01*
X11109048Y-11553000D02*
X11090000Y-11562524D01*
X11090000Y-11562524D02*
X11042381Y-11562524D01*
X11042381Y-11562524D02*
X11023333Y-11553000D01*
X11023333Y-11553000D02*
X11013810Y-11543476D01*
X11251905Y-11362524D02*
X11270952Y-11362524D01*
X11270952Y-11362524D02*
X11290000Y-11372048D01*
X11290000Y-11372048D02*
X11299524Y-11381571D01*
X11299524Y-11381571D02*
X11309048Y-11400619D01*
X11309048Y-11400619D02*
X11318571Y-11438714D01*
X11318571Y-11438714D02*
X11318571Y-11486333D01*
X11318571Y-11486333D02*
X11309048Y-11524428D01*
X11309048Y-11524428D02*
X11299524Y-11543476D01*
X11299524Y-11543476D02*
X11290000Y-11553000D01*
X11290000Y-11553000D02*
X11270952Y-11562524D01*
X11270952Y-11562524D02*
X11251905Y-11562524D01*
X11251905Y-11562524D02*
X11232857Y-11553000D01*
X11232857Y-11553000D02*
X11223333Y-11543476D01*
X11223333Y-11543476D02*
X11213809Y-11524428D01*
X11213809Y-11524428D02*
X11204286Y-11486333D01*
X11204286Y-11486333D02*
X11204286Y-11438714D01*
X11204286Y-11438714D02*
X11213809Y-11400619D01*
X11213809Y-11400619D02*
X11223333Y-11381571D01*
X11223333Y-11381571D02*
X11232857Y-11372048D01*
X11232857Y-11372048D02*
X11251905Y-11362524D01*
X11442381Y-11362524D02*
X11461429Y-11362524D01*
X11461429Y-11362524D02*
X11480476Y-11372048D01*
X11480476Y-11372048D02*
X11490000Y-11381571D01*
X11490000Y-11381571D02*
X11499524Y-11400619D01*
X11499524Y-11400619D02*
X11509048Y-11438714D01*
X11509048Y-11438714D02*
X11509048Y-11486333D01*
X11509048Y-11486333D02*
X11499524Y-11524428D01*
X11499524Y-11524428D02*
X11490000Y-11543476D01*
X11490000Y-11543476D02*
X11480476Y-11553000D01*
X11480476Y-11553000D02*
X11461429Y-11562524D01*
X11461429Y-11562524D02*
X11442381Y-11562524D01*
X11442381Y-11562524D02*
X11423333Y-11553000D01*
X11423333Y-11553000D02*
X11413809Y-11543476D01*
X11413809Y-11543476D02*
X11404286Y-11524428D01*
X11404286Y-11524428D02*
X11394762Y-11486333D01*
X11394762Y-11486333D02*
X11394762Y-11438714D01*
X11394762Y-11438714D02*
X11404286Y-11400619D01*
X11404286Y-11400619D02*
X11413809Y-11381571D01*
X11413809Y-11381571D02*
X11423333Y-11372048D01*
X11423333Y-11372048D02*
X11442381Y-11362524D01*
X11594762Y-11562524D02*
X11594762Y-11429190D01*
X11594762Y-11448238D02*
X11604286Y-11438714D01*
X11604286Y-11438714D02*
X11623333Y-11429190D01*
X11623333Y-11429190D02*
X11651905Y-11429190D01*
X11651905Y-11429190D02*
X11670952Y-11438714D01*
X11670952Y-11438714D02*
X11680476Y-11457762D01*
X11680476Y-11457762D02*
X11680476Y-11562524D01*
X11680476Y-11457762D02*
X11690000Y-11438714D01*
X11690000Y-11438714D02*
X11709048Y-11429190D01*
X11709048Y-11429190D02*
X11737619Y-11429190D01*
X11737619Y-11429190D02*
X11756667Y-11438714D01*
X11756667Y-11438714D02*
X11766190Y-11457762D01*
X11766190Y-11457762D02*
X11766190Y-11562524D01*
X11861429Y-11562524D02*
X11861429Y-11429190D01*
X11861429Y-11448238D02*
X11870952Y-11438714D01*
X11870952Y-11438714D02*
X11890000Y-11429190D01*
X11890000Y-11429190D02*
X11918571Y-11429190D01*
X11918571Y-11429190D02*
X11937619Y-11438714D01*
X11937619Y-11438714D02*
X11947143Y-11457762D01*
X11947143Y-11457762D02*
X11947143Y-11562524D01*
X11947143Y-11457762D02*
X11956667Y-11438714D01*
X11956667Y-11438714D02*
X11975714Y-11429190D01*
X11975714Y-11429190D02*
X12004286Y-11429190D01*
X12004286Y-11429190D02*
X12023333Y-11438714D01*
X12023333Y-11438714D02*
X12032857Y-11457762D01*
X12032857Y-11457762D02*
X12032857Y-11562524D01*
X12423333Y-11353000D02*
X12251905Y-11610143D01*
X12680476Y-11362524D02*
X12699524Y-11362524D01*
X12699524Y-11362524D02*
X12718572Y-11372048D01*
X12718572Y-11372048D02*
X12728095Y-11381571D01*
X12728095Y-11381571D02*
X12737619Y-11400619D01*
X12737619Y-11400619D02*
X12747143Y-11438714D01*
X12747143Y-11438714D02*
X12747143Y-11486333D01*
X12747143Y-11486333D02*
X12737619Y-11524428D01*
X12737619Y-11524428D02*
X12728095Y-11543476D01*
X12728095Y-11543476D02*
X12718572Y-11553000D01*
X12718572Y-11553000D02*
X12699524Y-11562524D01*
X12699524Y-11562524D02*
X12680476Y-11562524D01*
X12680476Y-11562524D02*
X12661429Y-11553000D01*
X12661429Y-11553000D02*
X12651905Y-11543476D01*
X12651905Y-11543476D02*
X12642381Y-11524428D01*
X12642381Y-11524428D02*
X12632857Y-11486333D01*
X12632857Y-11486333D02*
X12632857Y-11438714D01*
X12632857Y-11438714D02*
X12642381Y-11400619D01*
X12642381Y-11400619D02*
X12651905Y-11381571D01*
X12651905Y-11381571D02*
X12661429Y-11372048D01*
X12661429Y-11372048D02*
X12680476Y-11362524D01*
X12832857Y-11543476D02*
X12842381Y-11553000D01*
X12842381Y-11553000D02*
X12832857Y-11562524D01*
X12832857Y-11562524D02*
X12823333Y-11553000D01*
X12823333Y-11553000D02*
X12832857Y-11543476D01*
X12832857Y-11543476D02*
X12832857Y-11562524D01*
X13032857Y-11562524D02*
X12918572Y-11562524D01*
X12975714Y-11562524D02*
X12975714Y-11362524D01*
X12975714Y-11362524D02*
X12956667Y-11391095D01*
X12956667Y-11391095D02*
X12937619Y-11410143D01*
X12937619Y-11410143D02*
X12918572Y-11419667D01*
X13099524Y-11362524D02*
X13223333Y-11362524D01*
X13223333Y-11362524D02*
X13156667Y-11438714D01*
X13156667Y-11438714D02*
X13185238Y-11438714D01*
X13185238Y-11438714D02*
X13204286Y-11448238D01*
X13204286Y-11448238D02*
X13213810Y-11457762D01*
X13213810Y-11457762D02*
X13223333Y-11476809D01*
X13223333Y-11476809D02*
X13223333Y-11524428D01*
X13223333Y-11524428D02*
X13213810Y-11543476D01*
X13213810Y-11543476D02*
X13204286Y-11553000D01*
X13204286Y-11553000D02*
X13185238Y-11562524D01*
X13185238Y-11562524D02*
X13128095Y-11562524D01*
X13128095Y-11562524D02*
X13109048Y-11553000D01*
X13109048Y-11553000D02*
X13099524Y-11543476D01*
X13290000Y-11362524D02*
X13423333Y-11362524D01*
X13423333Y-11362524D02*
X13337619Y-11562524D01*
X13528095Y-11448238D02*
X13509048Y-11438714D01*
X13509048Y-11438714D02*
X13499524Y-11429190D01*
X13499524Y-11429190D02*
X13490000Y-11410143D01*
X13490000Y-11410143D02*
X13490000Y-11400619D01*
X13490000Y-11400619D02*
X13499524Y-11381571D01*
X13499524Y-11381571D02*
X13509048Y-11372048D01*
X13509048Y-11372048D02*
X13528095Y-11362524D01*
X13528095Y-11362524D02*
X13566191Y-11362524D01*
X13566191Y-11362524D02*
X13585238Y-11372048D01*
X13585238Y-11372048D02*
X13594762Y-11381571D01*
X13594762Y-11381571D02*
X13604286Y-11400619D01*
X13604286Y-11400619D02*
X13604286Y-11410143D01*
X13604286Y-11410143D02*
X13594762Y-11429190D01*
X13594762Y-11429190D02*
X13585238Y-11438714D01*
X13585238Y-11438714D02*
X13566191Y-11448238D01*
X13566191Y-11448238D02*
X13528095Y-11448238D01*
X13528095Y-11448238D02*
X13509048Y-11457762D01*
X13509048Y-11457762D02*
X13499524Y-11467286D01*
X13499524Y-11467286D02*
X13490000Y-11486333D01*
X13490000Y-11486333D02*
X13490000Y-11524428D01*
X13490000Y-11524428D02*
X13499524Y-11543476D01*
X13499524Y-11543476D02*
X13509048Y-11553000D01*
X13509048Y-11553000D02*
X13528095Y-11562524D01*
X13528095Y-11562524D02*
X13566191Y-11562524D01*
X13566191Y-11562524D02*
X13585238Y-11553000D01*
X13585238Y-11553000D02*
X13594762Y-11543476D01*
X13594762Y-11543476D02*
X13604286Y-11524428D01*
X13604286Y-11524428D02*
X13604286Y-11486333D01*
X13604286Y-11486333D02*
X13594762Y-11467286D01*
X13594762Y-11467286D02*
X13585238Y-11457762D01*
X13585238Y-11457762D02*
X13566191Y-11448238D01*
X13680476Y-11362524D02*
X13680476Y-11400619D01*
X13756667Y-11362524D02*
X13756667Y-11400619D01*
X14051905Y-11638714D02*
X14042381Y-11629190D01*
X14042381Y-11629190D02*
X14023334Y-11600619D01*
X14023334Y-11600619D02*
X14013810Y-11581571D01*
X14013810Y-11581571D02*
X14004286Y-11553000D01*
X14004286Y-11553000D02*
X13994762Y-11505381D01*
X13994762Y-11505381D02*
X13994762Y-11467286D01*
X13994762Y-11467286D02*
X14004286Y-11419667D01*
X14004286Y-11419667D02*
X14013810Y-11391095D01*
X14013810Y-11391095D02*
X14023334Y-11372048D01*
X14023334Y-11372048D02*
X14042381Y-11343476D01*
X14042381Y-11343476D02*
X14051905Y-11333952D01*
X14223334Y-11362524D02*
X14128095Y-11362524D01*
X14128095Y-11362524D02*
X14118572Y-11457762D01*
X14118572Y-11457762D02*
X14128095Y-11448238D01*
X14128095Y-11448238D02*
X14147143Y-11438714D01*
X14147143Y-11438714D02*
X14194762Y-11438714D01*
X14194762Y-11438714D02*
X14213810Y-11448238D01*
X14213810Y-11448238D02*
X14223334Y-11457762D01*
X14223334Y-11457762D02*
X14232857Y-11476809D01*
X14232857Y-11476809D02*
X14232857Y-11524428D01*
X14232857Y-11524428D02*
X14223334Y-11543476D01*
X14223334Y-11543476D02*
X14213810Y-11553000D01*
X14213810Y-11553000D02*
X14194762Y-11562524D01*
X14194762Y-11562524D02*
X14147143Y-11562524D01*
X14147143Y-11562524D02*
X14128095Y-11553000D01*
X14128095Y-11553000D02*
X14118572Y-11543476D01*
X14470953Y-11562524D02*
X14470953Y-11362524D01*
X14556667Y-11562524D02*
X14556667Y-11457762D01*
X14556667Y-11457762D02*
X14547143Y-11438714D01*
X14547143Y-11438714D02*
X14528096Y-11429190D01*
X14528096Y-11429190D02*
X14499524Y-11429190D01*
X14499524Y-11429190D02*
X14480476Y-11438714D01*
X14480476Y-11438714D02*
X14470953Y-11448238D01*
X14680476Y-11562524D02*
X14661429Y-11553000D01*
X14661429Y-11553000D02*
X14651905Y-11543476D01*
X14651905Y-11543476D02*
X14642381Y-11524428D01*
X14642381Y-11524428D02*
X14642381Y-11467286D01*
X14642381Y-11467286D02*
X14651905Y-11448238D01*
X14651905Y-11448238D02*
X14661429Y-11438714D01*
X14661429Y-11438714D02*
X14680476Y-11429190D01*
X14680476Y-11429190D02*
X14709048Y-11429190D01*
X14709048Y-11429190D02*
X14728096Y-11438714D01*
X14728096Y-11438714D02*
X14737619Y-11448238D01*
X14737619Y-11448238D02*
X14747143Y-11467286D01*
X14747143Y-11467286D02*
X14747143Y-11524428D01*
X14747143Y-11524428D02*
X14737619Y-11543476D01*
X14737619Y-11543476D02*
X14728096Y-11553000D01*
X14728096Y-11553000D02*
X14709048Y-11562524D01*
X14709048Y-11562524D02*
X14680476Y-11562524D01*
X14861429Y-11562524D02*
X14842381Y-11553000D01*
X14842381Y-11553000D02*
X14832857Y-11533952D01*
X14832857Y-11533952D02*
X14832857Y-11362524D01*
X15013810Y-11553000D02*
X14994762Y-11562524D01*
X14994762Y-11562524D02*
X14956667Y-11562524D01*
X14956667Y-11562524D02*
X14937619Y-11553000D01*
X14937619Y-11553000D02*
X14928096Y-11533952D01*
X14928096Y-11533952D02*
X14928096Y-11457762D01*
X14928096Y-11457762D02*
X14937619Y-11438714D01*
X14937619Y-11438714D02*
X14956667Y-11429190D01*
X14956667Y-11429190D02*
X14994762Y-11429190D01*
X14994762Y-11429190D02*
X15013810Y-11438714D01*
X15013810Y-11438714D02*
X15023334Y-11457762D01*
X15023334Y-11457762D02*
X15023334Y-11476809D01*
X15023334Y-11476809D02*
X14928096Y-11495857D01*
X15099524Y-11553000D02*
X15118572Y-11562524D01*
X15118572Y-11562524D02*
X15156667Y-11562524D01*
X15156667Y-11562524D02*
X15175715Y-11553000D01*
X15175715Y-11553000D02*
X15185238Y-11533952D01*
X15185238Y-11533952D02*
X15185238Y-11524428D01*
X15185238Y-11524428D02*
X15175715Y-11505381D01*
X15175715Y-11505381D02*
X15156667Y-11495857D01*
X15156667Y-11495857D02*
X15128096Y-11495857D01*
X15128096Y-11495857D02*
X15109048Y-11486333D01*
X15109048Y-11486333D02*
X15099524Y-11467286D01*
X15099524Y-11467286D02*
X15099524Y-11457762D01*
X15099524Y-11457762D02*
X15109048Y-11438714D01*
X15109048Y-11438714D02*
X15128096Y-11429190D01*
X15128096Y-11429190D02*
X15156667Y-11429190D01*
X15156667Y-11429190D02*
X15175715Y-11438714D01*
X15251905Y-11638714D02*
X15261429Y-11629190D01*
X15261429Y-11629190D02*
X15280477Y-11600619D01*
X15280477Y-11600619D02*
X15290000Y-11581571D01*
X15290000Y-11581571D02*
X15299524Y-11553000D01*
X15299524Y-11553000D02*
X15309048Y-11505381D01*
X15309048Y-11505381D02*
X15309048Y-11467286D01*
X15309048Y-11467286D02*
X15299524Y-11419667D01*
X15299524Y-11419667D02*
X15290000Y-11391095D01*
X15290000Y-11391095D02*
X15280477Y-11372048D01*
X15280477Y-11372048D02*
X15261429Y-11343476D01*
X15261429Y-11343476D02*
X15251905Y-11333952D01*
X15613810Y-11638714D02*
X15604286Y-11629190D01*
X15604286Y-11629190D02*
X15585238Y-11600619D01*
X15585238Y-11600619D02*
X15575715Y-11581571D01*
X15575715Y-11581571D02*
X15566191Y-11553000D01*
X15566191Y-11553000D02*
X15556667Y-11505381D01*
X15556667Y-11505381D02*
X15556667Y-11467286D01*
X15556667Y-11467286D02*
X15566191Y-11419667D01*
X15566191Y-11419667D02*
X15575715Y-11391095D01*
X15575715Y-11391095D02*
X15585238Y-11372048D01*
X15585238Y-11372048D02*
X15604286Y-11343476D01*
X15604286Y-11343476D02*
X15613810Y-11333952D01*
X15690000Y-11429190D02*
X15690000Y-11562524D01*
X15690000Y-11448238D02*
X15699524Y-11438714D01*
X15699524Y-11438714D02*
X15718572Y-11429190D01*
X15718572Y-11429190D02*
X15747143Y-11429190D01*
X15747143Y-11429190D02*
X15766191Y-11438714D01*
X15766191Y-11438714D02*
X15775715Y-11457762D01*
X15775715Y-11457762D02*
X15775715Y-11562524D01*
X15899524Y-11562524D02*
X15880477Y-11553000D01*
X15880477Y-11553000D02*
X15870953Y-11543476D01*
X15870953Y-11543476D02*
X15861429Y-11524428D01*
X15861429Y-11524428D02*
X15861429Y-11467286D01*
X15861429Y-11467286D02*
X15870953Y-11448238D01*
X15870953Y-11448238D02*
X15880477Y-11438714D01*
X15880477Y-11438714D02*
X15899524Y-11429190D01*
X15899524Y-11429190D02*
X15928096Y-11429190D01*
X15928096Y-11429190D02*
X15947143Y-11438714D01*
X15947143Y-11438714D02*
X15956667Y-11448238D01*
X15956667Y-11448238D02*
X15966191Y-11467286D01*
X15966191Y-11467286D02*
X15966191Y-11524428D01*
X15966191Y-11524428D02*
X15956667Y-11543476D01*
X15956667Y-11543476D02*
X15947143Y-11553000D01*
X15947143Y-11553000D02*
X15928096Y-11562524D01*
X15928096Y-11562524D02*
X15899524Y-11562524D01*
X16023334Y-11429190D02*
X16099524Y-11429190D01*
X16051905Y-11362524D02*
X16051905Y-11533952D01*
X16051905Y-11533952D02*
X16061429Y-11553000D01*
X16061429Y-11553000D02*
X16080477Y-11562524D01*
X16080477Y-11562524D02*
X16099524Y-11562524D01*
X16318572Y-11429190D02*
X16318572Y-11629190D01*
X16318572Y-11438714D02*
X16337619Y-11429190D01*
X16337619Y-11429190D02*
X16375715Y-11429190D01*
X16375715Y-11429190D02*
X16394762Y-11438714D01*
X16394762Y-11438714D02*
X16404286Y-11448238D01*
X16404286Y-11448238D02*
X16413810Y-11467286D01*
X16413810Y-11467286D02*
X16413810Y-11524428D01*
X16413810Y-11524428D02*
X16404286Y-11543476D01*
X16404286Y-11543476D02*
X16394762Y-11553000D01*
X16394762Y-11553000D02*
X16375715Y-11562524D01*
X16375715Y-11562524D02*
X16337619Y-11562524D01*
X16337619Y-11562524D02*
X16318572Y-11553000D01*
X16528096Y-11562524D02*
X16509048Y-11553000D01*
X16509048Y-11553000D02*
X16499524Y-11533952D01*
X16499524Y-11533952D02*
X16499524Y-11362524D01*
X16690000Y-11562524D02*
X16690000Y-11457762D01*
X16690000Y-11457762D02*
X16680477Y-11438714D01*
X16680477Y-11438714D02*
X16661429Y-11429190D01*
X16661429Y-11429190D02*
X16623334Y-11429190D01*
X16623334Y-11429190D02*
X16604286Y-11438714D01*
X16690000Y-11553000D02*
X16670953Y-11562524D01*
X16670953Y-11562524D02*
X16623334Y-11562524D01*
X16623334Y-11562524D02*
X16604286Y-11553000D01*
X16604286Y-11553000D02*
X16594762Y-11533952D01*
X16594762Y-11533952D02*
X16594762Y-11514905D01*
X16594762Y-11514905D02*
X16604286Y-11495857D01*
X16604286Y-11495857D02*
X16623334Y-11486333D01*
X16623334Y-11486333D02*
X16670953Y-11486333D01*
X16670953Y-11486333D02*
X16690000Y-11476809D01*
X16756667Y-11429190D02*
X16832858Y-11429190D01*
X16785239Y-11362524D02*
X16785239Y-11533952D01*
X16785239Y-11533952D02*
X16794762Y-11553000D01*
X16794762Y-11553000D02*
X16813810Y-11562524D01*
X16813810Y-11562524D02*
X16832858Y-11562524D01*
X16975715Y-11553000D02*
X16956667Y-11562524D01*
X16956667Y-11562524D02*
X16918572Y-11562524D01*
X16918572Y-11562524D02*
X16899524Y-11553000D01*
X16899524Y-11553000D02*
X16890001Y-11533952D01*
X16890001Y-11533952D02*
X16890001Y-11457762D01*
X16890001Y-11457762D02*
X16899524Y-11438714D01*
X16899524Y-11438714D02*
X16918572Y-11429190D01*
X16918572Y-11429190D02*
X16956667Y-11429190D01*
X16956667Y-11429190D02*
X16975715Y-11438714D01*
X16975715Y-11438714D02*
X16985239Y-11457762D01*
X16985239Y-11457762D02*
X16985239Y-11476809D01*
X16985239Y-11476809D02*
X16890001Y-11495857D01*
X17156667Y-11562524D02*
X17156667Y-11362524D01*
X17156667Y-11553000D02*
X17137620Y-11562524D01*
X17137620Y-11562524D02*
X17099524Y-11562524D01*
X17099524Y-11562524D02*
X17080477Y-11553000D01*
X17080477Y-11553000D02*
X17070953Y-11543476D01*
X17070953Y-11543476D02*
X17061429Y-11524428D01*
X17061429Y-11524428D02*
X17061429Y-11467286D01*
X17061429Y-11467286D02*
X17070953Y-11448238D01*
X17070953Y-11448238D02*
X17080477Y-11438714D01*
X17080477Y-11438714D02*
X17099524Y-11429190D01*
X17099524Y-11429190D02*
X17137620Y-11429190D01*
X17137620Y-11429190D02*
X17156667Y-11438714D01*
X17232858Y-11638714D02*
X17242382Y-11629190D01*
X17242382Y-11629190D02*
X17261429Y-11600619D01*
X17261429Y-11600619D02*
X17270953Y-11581571D01*
X17270953Y-11581571D02*
X17280477Y-11553000D01*
X17280477Y-11553000D02*
X17290001Y-11505381D01*
X17290001Y-11505381D02*
X17290001Y-11467286D01*
X17290001Y-11467286D02*
X17280477Y-11419667D01*
X17280477Y-11419667D02*
X17270953Y-11391095D01*
X17270953Y-11391095D02*
X17261429Y-11372048D01*
X17261429Y-11372048D02*
X17242382Y-11343476D01*
X17242382Y-11343476D02*
X17232858Y-11333952D01*
M02*
