%TF.GenerationSoftware,KiCad,Pcbnew,7.0.2*%
%TF.CreationDate,2023-05-10T12:42:33-04:00*%
%TF.ProjectId,StackLight,53746163-6b4c-4696-9768-742e6b696361,0.5*%
%TF.SameCoordinates,Original*%
%TF.FileFunction,Copper,L2,Bot*%
%TF.FilePolarity,Positive*%
%FSLAX46Y46*%
G04 Gerber Fmt 4.6, Leading zero omitted, Abs format (unit mm)*
G04 Created by KiCad (PCBNEW 7.0.2) date 2023-05-10 12:42:33*
%MOMM*%
%LPD*%
G01*
G04 APERTURE LIST*
G04 Aperture macros list*
%AMRoundRect*
0 Rectangle with rounded corners*
0 $1 Rounding radius*
0 $2 $3 $4 $5 $6 $7 $8 $9 X,Y pos of 4 corners*
0 Add a 4 corners polygon primitive as box body*
4,1,4,$2,$3,$4,$5,$6,$7,$8,$9,$2,$3,0*
0 Add four circle primitives for the rounded corners*
1,1,$1+$1,$2,$3*
1,1,$1+$1,$4,$5*
1,1,$1+$1,$6,$7*
1,1,$1+$1,$8,$9*
0 Add four rect primitives between the rounded corners*
20,1,$1+$1,$2,$3,$4,$5,0*
20,1,$1+$1,$4,$5,$6,$7,0*
20,1,$1+$1,$6,$7,$8,$9,0*
20,1,$1+$1,$8,$9,$2,$3,0*%
G04 Aperture macros list end*
%TA.AperFunction,ComponentPad*%
%ADD10C,3.100000*%
%TD*%
%TA.AperFunction,ComponentPad*%
%ADD11RoundRect,0.249999X-1.300001X1.300001X-1.300001X-1.300001X1.300001X-1.300001X1.300001X1.300001X0*%
%TD*%
%TA.AperFunction,ComponentPad*%
%ADD12C,1.524000*%
%TD*%
G04 APERTURE END LIST*
D10*
%TO.P,J2,5,Pin_5*%
%TO.N,/12V*%
X133350000Y-102200000D03*
%TO.P,J2,4,Pin_4*%
%TO.N,/RED*%
X133350000Y-96200000D03*
%TO.P,J2,3,Pin_3*%
%TO.N,/YEL*%
X133350000Y-90200000D03*
%TO.P,J2,2,Pin_2*%
%TO.N,/GRN*%
X133350000Y-84200000D03*
D11*
%TO.P,J2,1,Pin_1*%
%TO.N,/BZR*%
X133350000Y-78200000D03*
%TD*%
D12*
%TO.P,J1,1*%
%TO.N,/12V*%
X140900000Y-91801000D03*
%TO.P,J1,2*%
%TO.N,/RED*%
X138360000Y-90531000D03*
%TO.P,J1,3*%
%TO.N,/YEL*%
X140900000Y-89261000D03*
%TO.P,J1,4*%
%TO.N,/GRN*%
X138360000Y-87991000D03*
%TO.P,J1,5*%
%TO.N,/BZR*%
X140900000Y-86721000D03*
%TO.P,J1,6*%
%TO.N,unconnected-(J1-Pad6)*%
X138360000Y-85451000D03*
%TO.P,J1,7*%
%TO.N,unconnected-(J1-Pad7)*%
X140900000Y-84181000D03*
%TO.P,J1,8*%
%TO.N,GND*%
X138360000Y-82911000D03*
%TD*%
%TA.AperFunction,Conductor*%
%TO.N,GND*%
G36*
X150002611Y-75000608D02*
G01*
X150217318Y-75009488D01*
X150413375Y-75018048D01*
X150423423Y-75018893D01*
X150636792Y-75045489D01*
X150834878Y-75071568D01*
X150844277Y-75073171D01*
X151054183Y-75117183D01*
X151250333Y-75160669D01*
X151258934Y-75162899D01*
X151464544Y-75224112D01*
X151656629Y-75284677D01*
X151664503Y-75287450D01*
X151863268Y-75365008D01*
X151865621Y-75365955D01*
X152050950Y-75442721D01*
X152058044Y-75445921D01*
X152249605Y-75539569D01*
X152252354Y-75540957D01*
X152430373Y-75633627D01*
X152436681Y-75637145D01*
X152619781Y-75746248D01*
X152622957Y-75748205D01*
X152792204Y-75856028D01*
X152792228Y-75856043D01*
X152797745Y-75859765D01*
X152971164Y-75983585D01*
X152974619Y-75986142D01*
X153133880Y-76108347D01*
X153138610Y-76112162D01*
X153301195Y-76249865D01*
X153304885Y-76253116D01*
X153452875Y-76388723D01*
X153456846Y-76392525D01*
X153607473Y-76543152D01*
X153611275Y-76547123D01*
X153746882Y-76695113D01*
X153750133Y-76698803D01*
X153887836Y-76861388D01*
X153891651Y-76866118D01*
X154013844Y-77025363D01*
X154016426Y-77028851D01*
X154140233Y-77202254D01*
X154143955Y-77207770D01*
X154251776Y-77377014D01*
X154253750Y-77380217D01*
X154362853Y-77563317D01*
X154366375Y-77569633D01*
X154459010Y-77747582D01*
X154460444Y-77750424D01*
X154554071Y-77941941D01*
X154557283Y-77949062D01*
X154634030Y-78134346D01*
X154635002Y-78136762D01*
X154712541Y-78335478D01*
X154715328Y-78343391D01*
X154775899Y-78535496D01*
X154837091Y-78741034D01*
X154839339Y-78749705D01*
X154882818Y-78945825D01*
X154926828Y-79155723D01*
X154928431Y-79165128D01*
X154954524Y-79363319D01*
X154981104Y-79576556D01*
X154981951Y-79586642D01*
X154990513Y-79782727D01*
X154999392Y-79997388D01*
X154999500Y-80002595D01*
X154999500Y-99997404D01*
X154999392Y-100002611D01*
X154990513Y-100217271D01*
X154981951Y-100413355D01*
X154981103Y-100423443D01*
X154954524Y-100636680D01*
X154928431Y-100834868D01*
X154926828Y-100844275D01*
X154882819Y-101054172D01*
X154839340Y-101250291D01*
X154837090Y-101258967D01*
X154775899Y-101464503D01*
X154715327Y-101656612D01*
X154712543Y-101664515D01*
X154635002Y-101863236D01*
X154634030Y-101865652D01*
X154557283Y-102050936D01*
X154554071Y-102058057D01*
X154460444Y-102249574D01*
X154459010Y-102252416D01*
X154366375Y-102430365D01*
X154362853Y-102436681D01*
X154253750Y-102619781D01*
X154251776Y-102622984D01*
X154143955Y-102792228D01*
X154140233Y-102797744D01*
X154016426Y-102971147D01*
X154013844Y-102974635D01*
X153891651Y-103133880D01*
X153887836Y-103138610D01*
X153750133Y-103301195D01*
X153746882Y-103304885D01*
X153611275Y-103452875D01*
X153607473Y-103456846D01*
X153456846Y-103607473D01*
X153452875Y-103611275D01*
X153304885Y-103746882D01*
X153301195Y-103750133D01*
X153138610Y-103887836D01*
X153133880Y-103891651D01*
X152974635Y-104013844D01*
X152971147Y-104016426D01*
X152797744Y-104140233D01*
X152792228Y-104143955D01*
X152622984Y-104251776D01*
X152619781Y-104253750D01*
X152436681Y-104362853D01*
X152430365Y-104366375D01*
X152252416Y-104459010D01*
X152249574Y-104460444D01*
X152058057Y-104554071D01*
X152050936Y-104557283D01*
X151865652Y-104634030D01*
X151863236Y-104635002D01*
X151664520Y-104712541D01*
X151656607Y-104715328D01*
X151464503Y-104775899D01*
X151258964Y-104837091D01*
X151250293Y-104839339D01*
X151054174Y-104882818D01*
X150844275Y-104926828D01*
X150834870Y-104928431D01*
X150636680Y-104954524D01*
X150423442Y-104981104D01*
X150413356Y-104981951D01*
X150217272Y-104990513D01*
X150002611Y-104999392D01*
X149997404Y-104999500D01*
X110002596Y-104999500D01*
X109997389Y-104999392D01*
X109782728Y-104990513D01*
X109586643Y-104981951D01*
X109576555Y-104981103D01*
X109363319Y-104954524D01*
X109165130Y-104928431D01*
X109155723Y-104926828D01*
X108945853Y-104882824D01*
X108749706Y-104839339D01*
X108741031Y-104837090D01*
X108535496Y-104775899D01*
X108343387Y-104715327D01*
X108335483Y-104712543D01*
X108136762Y-104635002D01*
X108134346Y-104634030D01*
X107949062Y-104557283D01*
X107941941Y-104554071D01*
X107750424Y-104460444D01*
X107747582Y-104459010D01*
X107569633Y-104366375D01*
X107563317Y-104362853D01*
X107380217Y-104253750D01*
X107377014Y-104251776D01*
X107207770Y-104143955D01*
X107202254Y-104140233D01*
X107028851Y-104016426D01*
X107025363Y-104013844D01*
X106866118Y-103891651D01*
X106861388Y-103887836D01*
X106698803Y-103750133D01*
X106695113Y-103746882D01*
X106547123Y-103611275D01*
X106543152Y-103607473D01*
X106392525Y-103456846D01*
X106388723Y-103452875D01*
X106253116Y-103304885D01*
X106249865Y-103301195D01*
X106112162Y-103138610D01*
X106108347Y-103133880D01*
X105986142Y-102974619D01*
X105983572Y-102971147D01*
X105859765Y-102797744D01*
X105856043Y-102792228D01*
X105748205Y-102622957D01*
X105746248Y-102619781D01*
X105637145Y-102436681D01*
X105633623Y-102430365D01*
X105540957Y-102252354D01*
X105539554Y-102249574D01*
X105515319Y-102200000D01*
X113344389Y-102200000D01*
X113364803Y-102485424D01*
X113364804Y-102485428D01*
X113425631Y-102765046D01*
X113525633Y-103033161D01*
X113525634Y-103033162D01*
X113662775Y-103284317D01*
X113834262Y-103513397D01*
X114036602Y-103715737D01*
X114263596Y-103885662D01*
X114265685Y-103887226D01*
X114516839Y-104024367D01*
X114784954Y-104124369D01*
X115064572Y-104185196D01*
X115278552Y-104200500D01*
X115280809Y-104200500D01*
X115419191Y-104200500D01*
X115421448Y-104200500D01*
X115635428Y-104185196D01*
X115915046Y-104124369D01*
X116183161Y-104024367D01*
X116434315Y-103887226D01*
X116663395Y-103715739D01*
X116865739Y-103513395D01*
X117037226Y-103284315D01*
X117174367Y-103033161D01*
X117274369Y-102765046D01*
X117335196Y-102485428D01*
X117355610Y-102200000D01*
X131286690Y-102200000D01*
X131286984Y-102204298D01*
X131302879Y-102436681D01*
X131305908Y-102480954D01*
X131363203Y-102756674D01*
X131364639Y-102760716D01*
X131364641Y-102760721D01*
X131456069Y-103017975D01*
X131456072Y-103017982D01*
X131457509Y-103022025D01*
X131459483Y-103025835D01*
X131459485Y-103025839D01*
X131585085Y-103268237D01*
X131585088Y-103268242D01*
X131587068Y-103272063D01*
X131589553Y-103275583D01*
X131589554Y-103275585D01*
X131746983Y-103498612D01*
X131746988Y-103498618D01*
X131749467Y-103502130D01*
X131941681Y-103707941D01*
X132160130Y-103885662D01*
X132400743Y-104031982D01*
X132659040Y-104144176D01*
X132930207Y-104220154D01*
X133209195Y-104258500D01*
X133213500Y-104258500D01*
X133486500Y-104258500D01*
X133490805Y-104258500D01*
X133769793Y-104220154D01*
X134040960Y-104144176D01*
X134299257Y-104031982D01*
X134539870Y-103885662D01*
X134758319Y-103707941D01*
X134950533Y-103502130D01*
X135112932Y-103272063D01*
X135242491Y-103022025D01*
X135336797Y-102756674D01*
X135394092Y-102480954D01*
X135413310Y-102200000D01*
X135394092Y-101919046D01*
X135336797Y-101643326D01*
X135242491Y-101377975D01*
X135112932Y-101127937D01*
X134950533Y-100897870D01*
X134758319Y-100692059D01*
X134539870Y-100514338D01*
X134299257Y-100368018D01*
X134295317Y-100366306D01*
X134295312Y-100366304D01*
X134044907Y-100257538D01*
X134044901Y-100257536D01*
X134040960Y-100255824D01*
X134036824Y-100254665D01*
X134036818Y-100254663D01*
X133773934Y-100181006D01*
X133773930Y-100181005D01*
X133769793Y-100179846D01*
X133765530Y-100179260D01*
X133765525Y-100179259D01*
X133495073Y-100142086D01*
X133495063Y-100142085D01*
X133490805Y-100141500D01*
X133209195Y-100141500D01*
X133204937Y-100142085D01*
X133204926Y-100142086D01*
X132934474Y-100179259D01*
X132934466Y-100179260D01*
X132930207Y-100179846D01*
X132926072Y-100181004D01*
X132926065Y-100181006D01*
X132663181Y-100254663D01*
X132663171Y-100254666D01*
X132659040Y-100255824D01*
X132655102Y-100257534D01*
X132655092Y-100257538D01*
X132404687Y-100366304D01*
X132404676Y-100366309D01*
X132400743Y-100368018D01*
X132397076Y-100370247D01*
X132397070Y-100370251D01*
X132163803Y-100512104D01*
X132163798Y-100512106D01*
X132160130Y-100514338D01*
X132156803Y-100517044D01*
X132156794Y-100517051D01*
X131945017Y-100689344D01*
X131945008Y-100689351D01*
X131941681Y-100692059D01*
X131938749Y-100695197D01*
X131938744Y-100695203D01*
X131752406Y-100894722D01*
X131752399Y-100894730D01*
X131749467Y-100897870D01*
X131746993Y-100901373D01*
X131746983Y-100901387D01*
X131589554Y-101124414D01*
X131589548Y-101124422D01*
X131587068Y-101127937D01*
X131585092Y-101131750D01*
X131585085Y-101131762D01*
X131459485Y-101374160D01*
X131459481Y-101374169D01*
X131457509Y-101377975D01*
X131456074Y-101382011D01*
X131456069Y-101382024D01*
X131364641Y-101639278D01*
X131364638Y-101639286D01*
X131363203Y-101643326D01*
X131362329Y-101647528D01*
X131362329Y-101647531D01*
X131306838Y-101914572D01*
X131305908Y-101919046D01*
X131286690Y-102200000D01*
X117355610Y-102200000D01*
X117335196Y-101914572D01*
X117274369Y-101634954D01*
X117174367Y-101366839D01*
X117037226Y-101115685D01*
X116871816Y-100894722D01*
X116865737Y-100886602D01*
X116663397Y-100684262D01*
X116434317Y-100512775D01*
X116391961Y-100489647D01*
X116183161Y-100375633D01*
X115915046Y-100275631D01*
X115646769Y-100217271D01*
X115635424Y-100214803D01*
X115423698Y-100199660D01*
X115423672Y-100199659D01*
X115421448Y-100199500D01*
X115278552Y-100199500D01*
X115276328Y-100199659D01*
X115276301Y-100199660D01*
X115064575Y-100214803D01*
X114868126Y-100257538D01*
X114784954Y-100275631D01*
X114516839Y-100375633D01*
X114516837Y-100375633D01*
X114516837Y-100375634D01*
X114265682Y-100512775D01*
X114036602Y-100684262D01*
X113834262Y-100886602D01*
X113662775Y-101115682D01*
X113568781Y-101287820D01*
X113525633Y-101366839D01*
X113502805Y-101428044D01*
X113425631Y-101634954D01*
X113364803Y-101914575D01*
X113344389Y-102200000D01*
X105515319Y-102200000D01*
X105514380Y-102198080D01*
X105445921Y-102058044D01*
X105442721Y-102050950D01*
X105365955Y-101865621D01*
X105364996Y-101863236D01*
X105287453Y-101664509D01*
X105284670Y-101656607D01*
X105281808Y-101647531D01*
X105224100Y-101464503D01*
X105162895Y-101258922D01*
X105160666Y-101250320D01*
X105117175Y-101054145D01*
X105073166Y-100844256D01*
X105071569Y-100834883D01*
X105045476Y-100636680D01*
X105018890Y-100423398D01*
X105018048Y-100413377D01*
X105009486Y-100217271D01*
X105003303Y-100067766D01*
X148145787Y-100067766D01*
X148175413Y-100337015D01*
X148195240Y-100412855D01*
X148243928Y-100599088D01*
X148349870Y-100848390D01*
X148490982Y-101079610D01*
X148664255Y-101287820D01*
X148664256Y-101287821D01*
X148664258Y-101287823D01*
X148865993Y-101468578D01*
X148865995Y-101468579D01*
X148865998Y-101468582D01*
X149091910Y-101618044D01*
X149174183Y-101656612D01*
X149337171Y-101733018D01*
X149337173Y-101733018D01*
X149337176Y-101733020D01*
X149596569Y-101811060D01*
X149596572Y-101811060D01*
X149596574Y-101811061D01*
X149864558Y-101850500D01*
X149864561Y-101850500D01*
X150065330Y-101850500D01*
X150067631Y-101850500D01*
X150270156Y-101835677D01*
X150534553Y-101776780D01*
X150787558Y-101680014D01*
X151023777Y-101547441D01*
X151238177Y-101381888D01*
X151426186Y-101186881D01*
X151583799Y-100966579D01*
X151707656Y-100725675D01*
X151795118Y-100469305D01*
X151844319Y-100202933D01*
X151854212Y-99932235D01*
X151824586Y-99662982D01*
X151756072Y-99400912D01*
X151650130Y-99151610D01*
X151509018Y-98920390D01*
X151335745Y-98712180D01*
X151230759Y-98618112D01*
X151134006Y-98531421D01*
X151134003Y-98531419D01*
X151134002Y-98531418D01*
X150908090Y-98381956D01*
X150908086Y-98381954D01*
X150662828Y-98266981D01*
X150403425Y-98188938D01*
X150135442Y-98149500D01*
X150135439Y-98149500D01*
X149932369Y-98149500D01*
X149930099Y-98149666D01*
X149930075Y-98149667D01*
X149729839Y-98164323D01*
X149465449Y-98223219D01*
X149212441Y-98319985D01*
X148976225Y-98452557D01*
X148761820Y-98618114D01*
X148573815Y-98813117D01*
X148416200Y-99033422D01*
X148292342Y-99274328D01*
X148204882Y-99530693D01*
X148155681Y-99797065D01*
X148145787Y-100067766D01*
X105003303Y-100067766D01*
X105000608Y-100002611D01*
X105000500Y-99997404D01*
X105000500Y-96199999D01*
X113344389Y-96199999D01*
X113364803Y-96485424D01*
X113364804Y-96485428D01*
X113425631Y-96765046D01*
X113525633Y-97033161D01*
X113525634Y-97033162D01*
X113662775Y-97284317D01*
X113834262Y-97513397D01*
X114036602Y-97715737D01*
X114263596Y-97885662D01*
X114265685Y-97887226D01*
X114516839Y-98024367D01*
X114784954Y-98124369D01*
X115064572Y-98185196D01*
X115278552Y-98200500D01*
X115280809Y-98200500D01*
X115419191Y-98200500D01*
X115421448Y-98200500D01*
X115635428Y-98185196D01*
X115915046Y-98124369D01*
X116183161Y-98024367D01*
X116434315Y-97887226D01*
X116663395Y-97715739D01*
X116865739Y-97513395D01*
X117037226Y-97284315D01*
X117174367Y-97033161D01*
X117274369Y-96765046D01*
X117335196Y-96485428D01*
X117355610Y-96200000D01*
X131286690Y-96200000D01*
X131305908Y-96480954D01*
X131363203Y-96756674D01*
X131364639Y-96760716D01*
X131364641Y-96760721D01*
X131456069Y-97017975D01*
X131456072Y-97017982D01*
X131457509Y-97022025D01*
X131459483Y-97025835D01*
X131459485Y-97025839D01*
X131585085Y-97268237D01*
X131585088Y-97268242D01*
X131587068Y-97272063D01*
X131589553Y-97275583D01*
X131589554Y-97275585D01*
X131746983Y-97498612D01*
X131746988Y-97498618D01*
X131749467Y-97502130D01*
X131941681Y-97707941D01*
X132160130Y-97885662D01*
X132400743Y-98031982D01*
X132659040Y-98144176D01*
X132930207Y-98220154D01*
X133209195Y-98258500D01*
X133213500Y-98258500D01*
X133486500Y-98258500D01*
X133490805Y-98258500D01*
X133769793Y-98220154D01*
X134040960Y-98144176D01*
X134299257Y-98031982D01*
X134539870Y-97885662D01*
X134758319Y-97707941D01*
X134950533Y-97502130D01*
X135112932Y-97272063D01*
X135242491Y-97022025D01*
X135336797Y-96756674D01*
X135394092Y-96480954D01*
X135413310Y-96200000D01*
X135394092Y-95919046D01*
X135336797Y-95643326D01*
X135242491Y-95377975D01*
X135112932Y-95127937D01*
X134950533Y-94897870D01*
X134758319Y-94692059D01*
X134664819Y-94615991D01*
X134543205Y-94517051D01*
X134543202Y-94517049D01*
X134539870Y-94514338D01*
X134299257Y-94368018D01*
X134295317Y-94366306D01*
X134295312Y-94366304D01*
X134044907Y-94257538D01*
X134044901Y-94257536D01*
X134040960Y-94255824D01*
X134036824Y-94254665D01*
X134036818Y-94254663D01*
X133773934Y-94181006D01*
X133773930Y-94181005D01*
X133769793Y-94179846D01*
X133765530Y-94179260D01*
X133765525Y-94179259D01*
X133495073Y-94142086D01*
X133495063Y-94142085D01*
X133490805Y-94141500D01*
X133209195Y-94141500D01*
X133204937Y-94142085D01*
X133204926Y-94142086D01*
X132934474Y-94179259D01*
X132934466Y-94179260D01*
X132930207Y-94179846D01*
X132926072Y-94181004D01*
X132926065Y-94181006D01*
X132663181Y-94254663D01*
X132663171Y-94254666D01*
X132659040Y-94255824D01*
X132655102Y-94257534D01*
X132655092Y-94257538D01*
X132404687Y-94366304D01*
X132404676Y-94366309D01*
X132400743Y-94368018D01*
X132397076Y-94370247D01*
X132397070Y-94370251D01*
X132163803Y-94512104D01*
X132163798Y-94512106D01*
X132160130Y-94514338D01*
X132156803Y-94517044D01*
X132156794Y-94517051D01*
X131945017Y-94689344D01*
X131945008Y-94689351D01*
X131941681Y-94692059D01*
X131938749Y-94695197D01*
X131938744Y-94695203D01*
X131752406Y-94894722D01*
X131752399Y-94894730D01*
X131749467Y-94897870D01*
X131746993Y-94901373D01*
X131746983Y-94901387D01*
X131589554Y-95124414D01*
X131589548Y-95124422D01*
X131587068Y-95127937D01*
X131585092Y-95131750D01*
X131585085Y-95131762D01*
X131459485Y-95374160D01*
X131459481Y-95374169D01*
X131457509Y-95377975D01*
X131456074Y-95382011D01*
X131456069Y-95382024D01*
X131364641Y-95639278D01*
X131364638Y-95639286D01*
X131363203Y-95643326D01*
X131362329Y-95647528D01*
X131362329Y-95647531D01*
X131306838Y-95914572D01*
X131305908Y-95919046D01*
X131286690Y-96200000D01*
X117355610Y-96200000D01*
X117335196Y-95914572D01*
X117274369Y-95634954D01*
X117174367Y-95366839D01*
X117037226Y-95115685D01*
X116871816Y-94894722D01*
X116865737Y-94886602D01*
X116663397Y-94684262D01*
X116434317Y-94512775D01*
X116209697Y-94390123D01*
X116183161Y-94375633D01*
X115915046Y-94275631D01*
X115739946Y-94237540D01*
X115635424Y-94214803D01*
X115423698Y-94199660D01*
X115423672Y-94199659D01*
X115421448Y-94199500D01*
X115278552Y-94199500D01*
X115276328Y-94199659D01*
X115276301Y-94199660D01*
X115064575Y-94214803D01*
X114868126Y-94257538D01*
X114784954Y-94275631D01*
X114516839Y-94375633D01*
X114516837Y-94375633D01*
X114516837Y-94375634D01*
X114265682Y-94512775D01*
X114036602Y-94684262D01*
X113834262Y-94886602D01*
X113662775Y-95115682D01*
X113653995Y-95131762D01*
X113525633Y-95366839D01*
X113425631Y-95634954D01*
X113364803Y-95914575D01*
X113344389Y-96199999D01*
X105000500Y-96199999D01*
X105000500Y-90200000D01*
X113344389Y-90200000D01*
X113364803Y-90485424D01*
X113374935Y-90531999D01*
X113425631Y-90765046D01*
X113525633Y-91033161D01*
X113525634Y-91033162D01*
X113662775Y-91284317D01*
X113834262Y-91513397D01*
X114036602Y-91715737D01*
X114263596Y-91885662D01*
X114265685Y-91887226D01*
X114516839Y-92024367D01*
X114784954Y-92124369D01*
X115064572Y-92185196D01*
X115278552Y-92200500D01*
X115280809Y-92200500D01*
X115419191Y-92200500D01*
X115421448Y-92200500D01*
X115635428Y-92185196D01*
X115915046Y-92124369D01*
X116183161Y-92024367D01*
X116434315Y-91887226D01*
X116663395Y-91715739D01*
X116865739Y-91513395D01*
X117037226Y-91284315D01*
X117174367Y-91033161D01*
X117274369Y-90765046D01*
X117335196Y-90485428D01*
X117355610Y-90200000D01*
X131286690Y-90200000D01*
X131305908Y-90480954D01*
X131306782Y-90485164D01*
X131306783Y-90485165D01*
X131350701Y-90696512D01*
X131363203Y-90756674D01*
X131364639Y-90760716D01*
X131364641Y-90760721D01*
X131456069Y-91017975D01*
X131456072Y-91017982D01*
X131457509Y-91022025D01*
X131459483Y-91025835D01*
X131459485Y-91025839D01*
X131585085Y-91268237D01*
X131585088Y-91268242D01*
X131587068Y-91272063D01*
X131589553Y-91275583D01*
X131589554Y-91275585D01*
X131746983Y-91498612D01*
X131746988Y-91498618D01*
X131749467Y-91502130D01*
X131941681Y-91707941D01*
X132160130Y-91885662D01*
X132400743Y-92031982D01*
X132659040Y-92144176D01*
X132930207Y-92220154D01*
X133209195Y-92258500D01*
X133213500Y-92258500D01*
X133486500Y-92258500D01*
X133490805Y-92258500D01*
X133769793Y-92220154D01*
X134040960Y-92144176D01*
X134299257Y-92031982D01*
X134539870Y-91885662D01*
X134758319Y-91707941D01*
X134950533Y-91502130D01*
X135112932Y-91272063D01*
X135242491Y-91022025D01*
X135336797Y-90756674D01*
X135383692Y-90531000D01*
X137084647Y-90531000D01*
X137104022Y-90752467D01*
X137157946Y-90953709D01*
X137161560Y-90967196D01*
X137222609Y-91098117D01*
X137255512Y-91168678D01*
X137383025Y-91350784D01*
X137540215Y-91507974D01*
X137722321Y-91635487D01*
X137722322Y-91635487D01*
X137722323Y-91635488D01*
X137923804Y-91729440D01*
X138074739Y-91769883D01*
X138138532Y-91786977D01*
X138138533Y-91786977D01*
X138138537Y-91786978D01*
X138360000Y-91806353D01*
X138421198Y-91800999D01*
X139624647Y-91800999D01*
X139644022Y-92022467D01*
X139691684Y-92200339D01*
X139701560Y-92237196D01*
X139762609Y-92368117D01*
X139795512Y-92438678D01*
X139923025Y-92620784D01*
X140080215Y-92777974D01*
X140262321Y-92905487D01*
X140262322Y-92905487D01*
X140262323Y-92905488D01*
X140463804Y-92999440D01*
X140614739Y-93039883D01*
X140678532Y-93056977D01*
X140678533Y-93056977D01*
X140678537Y-93056978D01*
X140900000Y-93076353D01*
X140961187Y-93071000D01*
X145619474Y-93071000D01*
X145639548Y-93326070D01*
X145699278Y-93574860D01*
X145797191Y-93811243D01*
X145930877Y-94029399D01*
X145930878Y-94029401D01*
X145930880Y-94029403D01*
X146097043Y-94223956D01*
X146285893Y-94385248D01*
X146291601Y-94390123D01*
X146509757Y-94523809D01*
X146746140Y-94621722D01*
X146994930Y-94681452D01*
X147250000Y-94701526D01*
X147505070Y-94681452D01*
X147753860Y-94621722D01*
X147990243Y-94523809D01*
X148208399Y-94390123D01*
X148402956Y-94223956D01*
X148569123Y-94029399D01*
X148702809Y-93811243D01*
X148800722Y-93574860D01*
X148860452Y-93326070D01*
X148880526Y-93071000D01*
X148860452Y-92815930D01*
X148800722Y-92567140D01*
X148702809Y-92330757D01*
X148569123Y-92112601D01*
X148569119Y-92112596D01*
X148402956Y-91918043D01*
X148208403Y-91751880D01*
X148208401Y-91751878D01*
X148208399Y-91751877D01*
X147990243Y-91618191D01*
X147990241Y-91618190D01*
X147753861Y-91520278D01*
X147505070Y-91460548D01*
X147250000Y-91440474D01*
X146994929Y-91460548D01*
X146746138Y-91520278D01*
X146509758Y-91618190D01*
X146291596Y-91751880D01*
X146097043Y-91918043D01*
X145930880Y-92112596D01*
X145797190Y-92330758D01*
X145699278Y-92567138D01*
X145648660Y-92777977D01*
X145639548Y-92815930D01*
X145619474Y-93071000D01*
X140961187Y-93071000D01*
X141121463Y-93056978D01*
X141336196Y-92999440D01*
X141537677Y-92905488D01*
X141719781Y-92777977D01*
X141876977Y-92620781D01*
X142004488Y-92438677D01*
X142098440Y-92237196D01*
X142155978Y-92022463D01*
X142175353Y-91801000D01*
X142155978Y-91579537D01*
X142098440Y-91364804D01*
X142004488Y-91163324D01*
X141876977Y-90981219D01*
X141876976Y-90981218D01*
X141876974Y-90981215D01*
X141719784Y-90824025D01*
X141537678Y-90696512D01*
X141487247Y-90672996D01*
X141427624Y-90645193D01*
X141374341Y-90598278D01*
X141354880Y-90530001D01*
X141375422Y-90462041D01*
X141427624Y-90416806D01*
X141537677Y-90365488D01*
X141719781Y-90237977D01*
X141876977Y-90080781D01*
X142004488Y-89898677D01*
X142098440Y-89697196D01*
X142155978Y-89482463D01*
X142175353Y-89261000D01*
X142155978Y-89039537D01*
X142098440Y-88824804D01*
X142004488Y-88623324D01*
X141876977Y-88441219D01*
X141876976Y-88441218D01*
X141876974Y-88441215D01*
X141719784Y-88284025D01*
X141537678Y-88156512D01*
X141487247Y-88132996D01*
X141427624Y-88105193D01*
X141374341Y-88058278D01*
X141354880Y-87990001D01*
X141375422Y-87922041D01*
X141427624Y-87876806D01*
X141537677Y-87825488D01*
X141719781Y-87697977D01*
X141876977Y-87540781D01*
X142004488Y-87358677D01*
X142098440Y-87157196D01*
X142155978Y-86942463D01*
X142175353Y-86721000D01*
X142155978Y-86499537D01*
X142098440Y-86284804D01*
X142004488Y-86083324D01*
X141969737Y-86033695D01*
X141876974Y-85901215D01*
X141719784Y-85744025D01*
X141537678Y-85616512D01*
X141487247Y-85592996D01*
X141427624Y-85565193D01*
X141374341Y-85518278D01*
X141354880Y-85450001D01*
X141375422Y-85382041D01*
X141427624Y-85336806D01*
X141537677Y-85285488D01*
X141719781Y-85157977D01*
X141876977Y-85000781D01*
X142004488Y-84818677D01*
X142098440Y-84617196D01*
X142155978Y-84402463D01*
X142175353Y-84181000D01*
X142155978Y-83959537D01*
X142145128Y-83919046D01*
X142138883Y-83895739D01*
X142098440Y-83744804D01*
X142004488Y-83543324D01*
X141876977Y-83361219D01*
X141876976Y-83361218D01*
X141876974Y-83361215D01*
X141719784Y-83204025D01*
X141537678Y-83076512D01*
X141467117Y-83043609D01*
X141336196Y-82982560D01*
X141322709Y-82978946D01*
X141121467Y-82925022D01*
X140900000Y-82905647D01*
X140678532Y-82925022D01*
X140463807Y-82982559D01*
X140463806Y-82982559D01*
X140463804Y-82982560D01*
X140413917Y-83005823D01*
X140262322Y-83076512D01*
X140080215Y-83204025D01*
X139923025Y-83361215D01*
X139795512Y-83543322D01*
X139701559Y-83744807D01*
X139644022Y-83959532D01*
X139624647Y-84180999D01*
X139644022Y-84402467D01*
X139697946Y-84603709D01*
X139701560Y-84617196D01*
X139762609Y-84748117D01*
X139795512Y-84818678D01*
X139923025Y-85000784D01*
X140080215Y-85157974D01*
X140262321Y-85285487D01*
X140262322Y-85285487D01*
X140262323Y-85285488D01*
X140372375Y-85336806D01*
X140425659Y-85383722D01*
X140445120Y-85451999D01*
X140424578Y-85519959D01*
X140372374Y-85565194D01*
X140342991Y-85578895D01*
X140262322Y-85616512D01*
X140080215Y-85744025D01*
X139923025Y-85901215D01*
X139795512Y-86083322D01*
X139701559Y-86284807D01*
X139644022Y-86499532D01*
X139624647Y-86720999D01*
X139644022Y-86942467D01*
X139697946Y-87143709D01*
X139701560Y-87157196D01*
X139762609Y-87288117D01*
X139795512Y-87358678D01*
X139923025Y-87540784D01*
X140080215Y-87697974D01*
X140262321Y-87825487D01*
X140262322Y-87825487D01*
X140262323Y-87825488D01*
X140372375Y-87876806D01*
X140425659Y-87923722D01*
X140445120Y-87991999D01*
X140424578Y-88059959D01*
X140372374Y-88105194D01*
X140342991Y-88118895D01*
X140262322Y-88156512D01*
X140080215Y-88284025D01*
X139923025Y-88441215D01*
X139795512Y-88623322D01*
X139701559Y-88824807D01*
X139644022Y-89039532D01*
X139624647Y-89260999D01*
X139644022Y-89482467D01*
X139684882Y-89634954D01*
X139701560Y-89697196D01*
X139762609Y-89828117D01*
X139795512Y-89898678D01*
X139923025Y-90080784D01*
X140080215Y-90237974D01*
X140262321Y-90365487D01*
X140262322Y-90365487D01*
X140262323Y-90365488D01*
X140372375Y-90416806D01*
X140425659Y-90463722D01*
X140445120Y-90531999D01*
X140424578Y-90599959D01*
X140372374Y-90645194D01*
X140342991Y-90658895D01*
X140262322Y-90696512D01*
X140080215Y-90824025D01*
X139923025Y-90981215D01*
X139795512Y-91163322D01*
X139701559Y-91364807D01*
X139644022Y-91579532D01*
X139624647Y-91800999D01*
X138421198Y-91800999D01*
X138581463Y-91786978D01*
X138796196Y-91729440D01*
X138997677Y-91635488D01*
X139179781Y-91507977D01*
X139336977Y-91350781D01*
X139464488Y-91168677D01*
X139558440Y-90967196D01*
X139615978Y-90752463D01*
X139635353Y-90531000D01*
X139615978Y-90309537D01*
X139558440Y-90094804D01*
X139464488Y-89893324D01*
X139336977Y-89711219D01*
X139336976Y-89711218D01*
X139336974Y-89711215D01*
X139179784Y-89554025D01*
X138997678Y-89426512D01*
X138947247Y-89402996D01*
X138887624Y-89375193D01*
X138834341Y-89328278D01*
X138814880Y-89260001D01*
X138835422Y-89192041D01*
X138887624Y-89146806D01*
X138997677Y-89095488D01*
X139179781Y-88967977D01*
X139336977Y-88810781D01*
X139464488Y-88628677D01*
X139558440Y-88427196D01*
X139615978Y-88212463D01*
X139635353Y-87991000D01*
X139615978Y-87769537D01*
X139558440Y-87554804D01*
X139464488Y-87353324D01*
X139336977Y-87171219D01*
X139336976Y-87171218D01*
X139336974Y-87171215D01*
X139179784Y-87014025D01*
X138997678Y-86886512D01*
X138947247Y-86862996D01*
X138887624Y-86835193D01*
X138834341Y-86788278D01*
X138814880Y-86720001D01*
X138835422Y-86652041D01*
X138887624Y-86606806D01*
X138997677Y-86555488D01*
X139179781Y-86427977D01*
X139336977Y-86270781D01*
X139464488Y-86088677D01*
X139558440Y-85887196D01*
X139615978Y-85672463D01*
X139635353Y-85451000D01*
X139615978Y-85229537D01*
X139558440Y-85014804D01*
X139464488Y-84813324D01*
X139430683Y-84765046D01*
X139336974Y-84631215D01*
X139179784Y-84474025D01*
X138997676Y-84346511D01*
X138887035Y-84294919D01*
X138833749Y-84248002D01*
X138814288Y-84179725D01*
X138834830Y-84111765D01*
X138887035Y-84066529D01*
X138997425Y-84015053D01*
X139060603Y-83970814D01*
X139060603Y-83970812D01*
X138381791Y-83292000D01*
X138391569Y-83292000D01*
X138485421Y-83276339D01*
X138597251Y-83215820D01*
X138683371Y-83122269D01*
X138734448Y-83005823D01*
X138740538Y-82932329D01*
X139419812Y-83611603D01*
X139419814Y-83611603D01*
X139464052Y-83548427D01*
X139557968Y-83347024D01*
X139615482Y-83132376D01*
X139634850Y-82911000D01*
X139615482Y-82689623D01*
X139557968Y-82474975D01*
X139464051Y-82273571D01*
X139419815Y-82210395D01*
X139419813Y-82210395D01*
X138744392Y-82885816D01*
X138744949Y-82879102D01*
X138713734Y-82755838D01*
X138644187Y-82649388D01*
X138543843Y-82571287D01*
X138423578Y-82530000D01*
X138381790Y-82530000D01*
X139060603Y-81851185D01*
X139060603Y-81851184D01*
X138997426Y-81806947D01*
X138796024Y-81713031D01*
X138581376Y-81655517D01*
X138415447Y-81641000D01*
X145619474Y-81641000D01*
X145639548Y-81896070D01*
X145699278Y-82144861D01*
X145796058Y-82378508D01*
X145797191Y-82381243D01*
X145930877Y-82599399D01*
X145930878Y-82599401D01*
X145930880Y-82599403D01*
X146097043Y-82793956D01*
X146271433Y-82942898D01*
X146291601Y-82960123D01*
X146509757Y-83093809D01*
X146746140Y-83191722D01*
X146994930Y-83251452D01*
X147250000Y-83271526D01*
X147505070Y-83251452D01*
X147753860Y-83191722D01*
X147990243Y-83093809D01*
X148208399Y-82960123D01*
X148402956Y-82793956D01*
X148569123Y-82599399D01*
X148702809Y-82381243D01*
X148800722Y-82144860D01*
X148860452Y-81896070D01*
X148880526Y-81641000D01*
X148860452Y-81385930D01*
X148800722Y-81137140D01*
X148702809Y-80900757D01*
X148569123Y-80682601D01*
X148569119Y-80682596D01*
X148402956Y-80488043D01*
X148208403Y-80321880D01*
X148208401Y-80321878D01*
X148208399Y-80321877D01*
X147990243Y-80188191D01*
X147990241Y-80188190D01*
X147753861Y-80090278D01*
X147505070Y-80030548D01*
X147250000Y-80010474D01*
X146994929Y-80030548D01*
X146746138Y-80090278D01*
X146509758Y-80188190D01*
X146291596Y-80321880D01*
X146097043Y-80488043D01*
X145930880Y-80682596D01*
X145797190Y-80900758D01*
X145699278Y-81137138D01*
X145639548Y-81385929D01*
X145619474Y-81641000D01*
X138415447Y-81641000D01*
X138360000Y-81636149D01*
X138138623Y-81655517D01*
X137923975Y-81713031D01*
X137722572Y-81806948D01*
X137659394Y-81851185D01*
X138338209Y-82530000D01*
X138328431Y-82530000D01*
X138234579Y-82545661D01*
X138122749Y-82606180D01*
X138036629Y-82699731D01*
X137985552Y-82816177D01*
X137979461Y-82889670D01*
X137300185Y-82210394D01*
X137255948Y-82273572D01*
X137162031Y-82474975D01*
X137104517Y-82689623D01*
X137085149Y-82911000D01*
X137104517Y-83132376D01*
X137162031Y-83347024D01*
X137255947Y-83548426D01*
X137300184Y-83611603D01*
X137300185Y-83611603D01*
X137975607Y-82936181D01*
X137975051Y-82942898D01*
X138006266Y-83066162D01*
X138075813Y-83172612D01*
X138176157Y-83250713D01*
X138296422Y-83292000D01*
X138338210Y-83292000D01*
X137659395Y-83970813D01*
X137659395Y-83970814D01*
X137722573Y-84015052D01*
X137832965Y-84066529D01*
X137886250Y-84113446D01*
X137905711Y-84181724D01*
X137885169Y-84249683D01*
X137832965Y-84294919D01*
X137722323Y-84346512D01*
X137540215Y-84474025D01*
X137383025Y-84631215D01*
X137255512Y-84813322D01*
X137161559Y-85014807D01*
X137104022Y-85229532D01*
X137084647Y-85451000D01*
X137104022Y-85672467D01*
X137157946Y-85873709D01*
X137161560Y-85887196D01*
X137222609Y-86018117D01*
X137255512Y-86088678D01*
X137383025Y-86270784D01*
X137540215Y-86427974D01*
X137722321Y-86555487D01*
X137722322Y-86555487D01*
X137722323Y-86555488D01*
X137832375Y-86606806D01*
X137885659Y-86653722D01*
X137905120Y-86721999D01*
X137884578Y-86789959D01*
X137832374Y-86835194D01*
X137802991Y-86848895D01*
X137722322Y-86886512D01*
X137540215Y-87014025D01*
X137383025Y-87171215D01*
X137255512Y-87353322D01*
X137161559Y-87554807D01*
X137104022Y-87769532D01*
X137084647Y-87991000D01*
X137104022Y-88212467D01*
X137147744Y-88375634D01*
X137161560Y-88427196D01*
X137201153Y-88512104D01*
X137255512Y-88628678D01*
X137383025Y-88810784D01*
X137540215Y-88967974D01*
X137722321Y-89095487D01*
X137722322Y-89095487D01*
X137722323Y-89095488D01*
X137832375Y-89146806D01*
X137885659Y-89193722D01*
X137905120Y-89261999D01*
X137884578Y-89329959D01*
X137832374Y-89375194D01*
X137802991Y-89388895D01*
X137722322Y-89426512D01*
X137540215Y-89554025D01*
X137383025Y-89711215D01*
X137255512Y-89893322D01*
X137161559Y-90094807D01*
X137104022Y-90309532D01*
X137084647Y-90531000D01*
X135383692Y-90531000D01*
X135394092Y-90480954D01*
X135413310Y-90200000D01*
X135394092Y-89919046D01*
X135336797Y-89643326D01*
X135242491Y-89377975D01*
X135112932Y-89127937D01*
X135061311Y-89054806D01*
X134953016Y-88901387D01*
X134953012Y-88901383D01*
X134950533Y-88897870D01*
X134758319Y-88692059D01*
X134539870Y-88514338D01*
X134299257Y-88368018D01*
X134295317Y-88366306D01*
X134295312Y-88366304D01*
X134044907Y-88257538D01*
X134044901Y-88257536D01*
X134040960Y-88255824D01*
X134036824Y-88254665D01*
X134036818Y-88254663D01*
X133773934Y-88181006D01*
X133773930Y-88181005D01*
X133769793Y-88179846D01*
X133765530Y-88179260D01*
X133765525Y-88179259D01*
X133495073Y-88142086D01*
X133495063Y-88142085D01*
X133490805Y-88141500D01*
X133209195Y-88141500D01*
X133204937Y-88142085D01*
X133204926Y-88142086D01*
X132934474Y-88179259D01*
X132934466Y-88179260D01*
X132930207Y-88179846D01*
X132926072Y-88181004D01*
X132926065Y-88181006D01*
X132663181Y-88254663D01*
X132663171Y-88254666D01*
X132659040Y-88255824D01*
X132655102Y-88257534D01*
X132655092Y-88257538D01*
X132404687Y-88366304D01*
X132404676Y-88366309D01*
X132400743Y-88368018D01*
X132397076Y-88370247D01*
X132397070Y-88370251D01*
X132163803Y-88512104D01*
X132163798Y-88512106D01*
X132160130Y-88514338D01*
X132156803Y-88517044D01*
X132156794Y-88517051D01*
X131945017Y-88689344D01*
X131945008Y-88689351D01*
X131941681Y-88692059D01*
X131938749Y-88695197D01*
X131938744Y-88695203D01*
X131752406Y-88894722D01*
X131752399Y-88894730D01*
X131749467Y-88897870D01*
X131746993Y-88901373D01*
X131746983Y-88901387D01*
X131589554Y-89124414D01*
X131589548Y-89124422D01*
X131587068Y-89127937D01*
X131585092Y-89131750D01*
X131585085Y-89131762D01*
X131459485Y-89374160D01*
X131459481Y-89374169D01*
X131457509Y-89377975D01*
X131456074Y-89382011D01*
X131456069Y-89382024D01*
X131364641Y-89639278D01*
X131364638Y-89639286D01*
X131363203Y-89643326D01*
X131362329Y-89647528D01*
X131362329Y-89647531D01*
X131306838Y-89914572D01*
X131305908Y-89919046D01*
X131286690Y-90200000D01*
X117355610Y-90200000D01*
X117335196Y-89914572D01*
X117274369Y-89634954D01*
X117174367Y-89366839D01*
X117037226Y-89115685D01*
X116980223Y-89039537D01*
X116865737Y-88886602D01*
X116663397Y-88684262D01*
X116434317Y-88512775D01*
X116277591Y-88427196D01*
X116183161Y-88375633D01*
X115915046Y-88275631D01*
X115739946Y-88237540D01*
X115635424Y-88214803D01*
X115423698Y-88199660D01*
X115423672Y-88199659D01*
X115421448Y-88199500D01*
X115278552Y-88199500D01*
X115276328Y-88199659D01*
X115276301Y-88199660D01*
X115064575Y-88214803D01*
X114868126Y-88257538D01*
X114784954Y-88275631D01*
X114516839Y-88375633D01*
X114516837Y-88375633D01*
X114516837Y-88375634D01*
X114265682Y-88512775D01*
X114036602Y-88684262D01*
X113834262Y-88886602D01*
X113662775Y-89115682D01*
X113582880Y-89261999D01*
X113525633Y-89366839D01*
X113482506Y-89482467D01*
X113425631Y-89634954D01*
X113364803Y-89914575D01*
X113344389Y-90200000D01*
X105000500Y-90200000D01*
X105000500Y-84199999D01*
X113344389Y-84199999D01*
X113364803Y-84485424D01*
X113364804Y-84485428D01*
X113425631Y-84765046D01*
X113525633Y-85033161D01*
X113593788Y-85157977D01*
X113662775Y-85284317D01*
X113834262Y-85513397D01*
X114036602Y-85715737D01*
X114265640Y-85887192D01*
X114265685Y-85887226D01*
X114516839Y-86024367D01*
X114784954Y-86124369D01*
X115064572Y-86185196D01*
X115278552Y-86200500D01*
X115280809Y-86200500D01*
X115419191Y-86200500D01*
X115421448Y-86200500D01*
X115635428Y-86185196D01*
X115915046Y-86124369D01*
X116183161Y-86024367D01*
X116434315Y-85887226D01*
X116663395Y-85715739D01*
X116865739Y-85513395D01*
X117037226Y-85284315D01*
X117174367Y-85033161D01*
X117274369Y-84765046D01*
X117335196Y-84485428D01*
X117355610Y-84200000D01*
X131286690Y-84200000D01*
X131305908Y-84480954D01*
X131363203Y-84756674D01*
X131364639Y-84760716D01*
X131364641Y-84760721D01*
X131456069Y-85017975D01*
X131456072Y-85017982D01*
X131457509Y-85022025D01*
X131459483Y-85025835D01*
X131459485Y-85025839D01*
X131585085Y-85268237D01*
X131585088Y-85268242D01*
X131587068Y-85272063D01*
X131589553Y-85275583D01*
X131589554Y-85275585D01*
X131746983Y-85498612D01*
X131746988Y-85498618D01*
X131749467Y-85502130D01*
X131941681Y-85707941D01*
X132160130Y-85885662D01*
X132400743Y-86031982D01*
X132659040Y-86144176D01*
X132930207Y-86220154D01*
X133209195Y-86258500D01*
X133213500Y-86258500D01*
X133486500Y-86258500D01*
X133490805Y-86258500D01*
X133769793Y-86220154D01*
X134040960Y-86144176D01*
X134299257Y-86031982D01*
X134539870Y-85885662D01*
X134758319Y-85707941D01*
X134950533Y-85502130D01*
X135112932Y-85272063D01*
X135242491Y-85022025D01*
X135336797Y-84756674D01*
X135394092Y-84480954D01*
X135413310Y-84200000D01*
X135412969Y-84195022D01*
X135400659Y-84015052D01*
X135394092Y-83919046D01*
X135336797Y-83643326D01*
X135242491Y-83377975D01*
X135112932Y-83127937D01*
X134991035Y-82955248D01*
X134953016Y-82901387D01*
X134953012Y-82901383D01*
X134950533Y-82897870D01*
X134758319Y-82692059D01*
X134644429Y-82599403D01*
X134543205Y-82517051D01*
X134543202Y-82517049D01*
X134539870Y-82514338D01*
X134299257Y-82368018D01*
X134295317Y-82366306D01*
X134295312Y-82366304D01*
X134044907Y-82257538D01*
X134044901Y-82257536D01*
X134040960Y-82255824D01*
X134036824Y-82254665D01*
X134036818Y-82254663D01*
X133773934Y-82181006D01*
X133773930Y-82181005D01*
X133769793Y-82179846D01*
X133765530Y-82179260D01*
X133765525Y-82179259D01*
X133495073Y-82142086D01*
X133495063Y-82142085D01*
X133490805Y-82141500D01*
X133209195Y-82141500D01*
X133204937Y-82142085D01*
X133204926Y-82142086D01*
X132934474Y-82179259D01*
X132934466Y-82179260D01*
X132930207Y-82179846D01*
X132926072Y-82181004D01*
X132926065Y-82181006D01*
X132663181Y-82254663D01*
X132663171Y-82254666D01*
X132659040Y-82255824D01*
X132655102Y-82257534D01*
X132655092Y-82257538D01*
X132404687Y-82366304D01*
X132404676Y-82366309D01*
X132400743Y-82368018D01*
X132397076Y-82370247D01*
X132397070Y-82370251D01*
X132163803Y-82512104D01*
X132163798Y-82512106D01*
X132160130Y-82514338D01*
X132156803Y-82517044D01*
X132156794Y-82517051D01*
X131945017Y-82689344D01*
X131945008Y-82689351D01*
X131941681Y-82692059D01*
X131938749Y-82695197D01*
X131938744Y-82695203D01*
X131752406Y-82894722D01*
X131752399Y-82894730D01*
X131749467Y-82897870D01*
X131746993Y-82901373D01*
X131746983Y-82901387D01*
X131589554Y-83124414D01*
X131589548Y-83124422D01*
X131587068Y-83127937D01*
X131585092Y-83131750D01*
X131585085Y-83131762D01*
X131459485Y-83374160D01*
X131459481Y-83374169D01*
X131457509Y-83377975D01*
X131456074Y-83382011D01*
X131456069Y-83382024D01*
X131364641Y-83639278D01*
X131364638Y-83639286D01*
X131363203Y-83643326D01*
X131362329Y-83647528D01*
X131362329Y-83647531D01*
X131306838Y-83914572D01*
X131305908Y-83919046D01*
X131305614Y-83923337D01*
X131305614Y-83923341D01*
X131286984Y-84195701D01*
X131286690Y-84200000D01*
X117355610Y-84200000D01*
X117335196Y-83914572D01*
X117274369Y-83634954D01*
X117174367Y-83366839D01*
X117037226Y-83115685D01*
X117007902Y-83076512D01*
X116865737Y-82886602D01*
X116663397Y-82684262D01*
X116434317Y-82512775D01*
X116391961Y-82489647D01*
X116183161Y-82375633D01*
X115915046Y-82275631D01*
X115739946Y-82237540D01*
X115635424Y-82214803D01*
X115423698Y-82199660D01*
X115423672Y-82199659D01*
X115421448Y-82199500D01*
X115278552Y-82199500D01*
X115276328Y-82199659D01*
X115276301Y-82199660D01*
X115064575Y-82214803D01*
X114868126Y-82257538D01*
X114784954Y-82275631D01*
X114516839Y-82375633D01*
X114516837Y-82375633D01*
X114516837Y-82375634D01*
X114265682Y-82512775D01*
X114036602Y-82684262D01*
X113834262Y-82886602D01*
X113662775Y-83115682D01*
X113577678Y-83271526D01*
X113525633Y-83366839D01*
X113425631Y-83634953D01*
X113425631Y-83634954D01*
X113364803Y-83914575D01*
X113344389Y-84199999D01*
X105000500Y-84199999D01*
X105000500Y-80067766D01*
X108145787Y-80067766D01*
X108175413Y-80337015D01*
X108175414Y-80337018D01*
X108243928Y-80599088D01*
X108349870Y-80848390D01*
X108490982Y-81079610D01*
X108664255Y-81287820D01*
X108664256Y-81287821D01*
X108664258Y-81287823D01*
X108865993Y-81468578D01*
X108865995Y-81468579D01*
X108865998Y-81468582D01*
X109091910Y-81618044D01*
X109140880Y-81641000D01*
X109337171Y-81733018D01*
X109337173Y-81733018D01*
X109337176Y-81733020D01*
X109596569Y-81811060D01*
X109596572Y-81811060D01*
X109596574Y-81811061D01*
X109864558Y-81850500D01*
X109864561Y-81850500D01*
X110065330Y-81850500D01*
X110067631Y-81850500D01*
X110270156Y-81835677D01*
X110534553Y-81776780D01*
X110787558Y-81680014D01*
X111023777Y-81547441D01*
X111238177Y-81381888D01*
X111426186Y-81186881D01*
X111583799Y-80966579D01*
X111707656Y-80725675D01*
X111795118Y-80469305D01*
X111844319Y-80202933D01*
X111854212Y-79932235D01*
X111849259Y-79887224D01*
X111824586Y-79662984D01*
X111824586Y-79662982D01*
X111756072Y-79400912D01*
X111650130Y-79151610D01*
X111509018Y-78920390D01*
X111335745Y-78712180D01*
X111230759Y-78618112D01*
X111134006Y-78531421D01*
X111134003Y-78531419D01*
X111134002Y-78531418D01*
X110908090Y-78381956D01*
X110908086Y-78381954D01*
X110662828Y-78266981D01*
X110440193Y-78200000D01*
X113344389Y-78200000D01*
X113364803Y-78485424D01*
X113364804Y-78485428D01*
X113425631Y-78765046D01*
X113525633Y-79033161D01*
X113525634Y-79033162D01*
X113662775Y-79284317D01*
X113834262Y-79513397D01*
X114036602Y-79715737D01*
X114145247Y-79797067D01*
X114265685Y-79887226D01*
X114516839Y-80024367D01*
X114784954Y-80124369D01*
X115064572Y-80185196D01*
X115278552Y-80200500D01*
X115280809Y-80200500D01*
X115419191Y-80200500D01*
X115421448Y-80200500D01*
X115635428Y-80185196D01*
X115915046Y-80124369D01*
X116183161Y-80024367D01*
X116434315Y-79887226D01*
X116663395Y-79715739D01*
X116828588Y-79550546D01*
X131291500Y-79550546D01*
X131291824Y-79553726D01*
X131291826Y-79553747D01*
X131302112Y-79654422D01*
X131302113Y-79654427D01*
X131357885Y-79822739D01*
X131450970Y-79973652D01*
X131450972Y-79973655D01*
X131576344Y-80099027D01*
X131576346Y-80099028D01*
X131576348Y-80099030D01*
X131727261Y-80192115D01*
X131895573Y-80247887D01*
X131971636Y-80255658D01*
X131996252Y-80258173D01*
X131996254Y-80258173D01*
X131999454Y-80258500D01*
X132002659Y-80258500D01*
X134697341Y-80258500D01*
X134700546Y-80258500D01*
X134804427Y-80247887D01*
X134972739Y-80192115D01*
X135123652Y-80099030D01*
X135249030Y-79973652D01*
X135342115Y-79822739D01*
X135397887Y-79654427D01*
X135408500Y-79550546D01*
X135408500Y-76849454D01*
X135397887Y-76745573D01*
X135342115Y-76577261D01*
X135249030Y-76426348D01*
X135249028Y-76426346D01*
X135249027Y-76426344D01*
X135123655Y-76300972D01*
X135082571Y-76275631D01*
X134972739Y-76207885D01*
X134804427Y-76152113D01*
X134804424Y-76152112D01*
X134804422Y-76152112D01*
X134703747Y-76141826D01*
X134703726Y-76141824D01*
X134700546Y-76141500D01*
X131999454Y-76141500D01*
X131996274Y-76141824D01*
X131996252Y-76141826D01*
X131895577Y-76152112D01*
X131895574Y-76152112D01*
X131895573Y-76152113D01*
X131727261Y-76207885D01*
X131716044Y-76214804D01*
X131576344Y-76300972D01*
X131450972Y-76426344D01*
X131399828Y-76509260D01*
X131357885Y-76577261D01*
X131318819Y-76695157D01*
X131302112Y-76745577D01*
X131291826Y-76846252D01*
X131291824Y-76846274D01*
X131291500Y-76849454D01*
X131291500Y-79550546D01*
X116828588Y-79550546D01*
X116865739Y-79513395D01*
X117037226Y-79284315D01*
X117174367Y-79033161D01*
X117274369Y-78765046D01*
X117335196Y-78485428D01*
X117355610Y-78200000D01*
X117335196Y-77914572D01*
X117274369Y-77634954D01*
X117174367Y-77366839D01*
X117037226Y-77115685D01*
X116865739Y-76886605D01*
X116865737Y-76886602D01*
X116663397Y-76684262D01*
X116434317Y-76512775D01*
X116276038Y-76426348D01*
X116183161Y-76375633D01*
X115915046Y-76275631D01*
X115739946Y-76237540D01*
X115635424Y-76214803D01*
X115423698Y-76199660D01*
X115423672Y-76199659D01*
X115421448Y-76199500D01*
X115278552Y-76199500D01*
X115276328Y-76199659D01*
X115276301Y-76199660D01*
X115064575Y-76214803D01*
X114784954Y-76275631D01*
X114516839Y-76375633D01*
X114516837Y-76375633D01*
X114516837Y-76375634D01*
X114265682Y-76512775D01*
X114036602Y-76684262D01*
X113834262Y-76886602D01*
X113662775Y-77115682D01*
X113580950Y-77265533D01*
X113525633Y-77366839D01*
X113452350Y-77563317D01*
X113425631Y-77634954D01*
X113364803Y-77914575D01*
X113344389Y-78200000D01*
X110440193Y-78200000D01*
X110403425Y-78188938D01*
X110135442Y-78149500D01*
X110135439Y-78149500D01*
X109932369Y-78149500D01*
X109930099Y-78149666D01*
X109930075Y-78149667D01*
X109729839Y-78164323D01*
X109465449Y-78223219D01*
X109212441Y-78319985D01*
X108976225Y-78452557D01*
X108761820Y-78618114D01*
X108573815Y-78813117D01*
X108416200Y-79033422D01*
X108292342Y-79274328D01*
X108204882Y-79530693D01*
X108155681Y-79797065D01*
X108145787Y-80067766D01*
X105000500Y-80067766D01*
X105000500Y-80002595D01*
X105000608Y-79997388D01*
X105005164Y-79887226D01*
X105009513Y-79782082D01*
X105012410Y-79715737D01*
X105018046Y-79586642D01*
X105018889Y-79576606D01*
X105045525Y-79362922D01*
X105071568Y-79165106D01*
X105073154Y-79155800D01*
X105117226Y-78945612D01*
X105122818Y-78920390D01*
X105160661Y-78749690D01*
X105162889Y-78741099D01*
X105224151Y-78535325D01*
X105284685Y-78343339D01*
X105287428Y-78335554D01*
X105365108Y-78136476D01*
X105365923Y-78134450D01*
X105442722Y-77949041D01*
X105445887Y-77942024D01*
X105539638Y-77750253D01*
X105540987Y-77747582D01*
X105633622Y-77569633D01*
X105637117Y-77563363D01*
X105746325Y-77380089D01*
X105748221Y-77377014D01*
X105856042Y-77207770D01*
X105859741Y-77202289D01*
X105859766Y-77202254D01*
X105983645Y-77028750D01*
X105986153Y-77025363D01*
X106108363Y-76866094D01*
X106112083Y-76861481D01*
X106249945Y-76698707D01*
X106253074Y-76695157D01*
X106388752Y-76547090D01*
X106392464Y-76543214D01*
X106543221Y-76392457D01*
X106547099Y-76388744D01*
X106695157Y-76253074D01*
X106698727Y-76249928D01*
X106861438Y-76112120D01*
X106866118Y-76108346D01*
X107025388Y-75986134D01*
X107028749Y-75983646D01*
X107202293Y-75859738D01*
X107207769Y-75856043D01*
X107377061Y-75748192D01*
X107380120Y-75746306D01*
X107563358Y-75637120D01*
X107569601Y-75633639D01*
X107747689Y-75540932D01*
X107750250Y-75539640D01*
X107942002Y-75445898D01*
X107949037Y-75442725D01*
X108134463Y-75365919D01*
X108136624Y-75365050D01*
X108335526Y-75287439D01*
X108343328Y-75284689D01*
X108535413Y-75224125D01*
X108741069Y-75162898D01*
X108749691Y-75160662D01*
X108945715Y-75117204D01*
X109155764Y-75073162D01*
X109165101Y-75071571D01*
X109363187Y-75045492D01*
X109576605Y-75018889D01*
X109586641Y-75018047D01*
X109782174Y-75009509D01*
X109997388Y-75000608D01*
X110002596Y-75000500D01*
X149997404Y-75000500D01*
X150002611Y-75000608D01*
G37*
%TD.AperFunction*%
%TD*%
M02*
