%TF.GenerationSoftware,KiCad,Pcbnew,7.0.2*%
%TF.CreationDate,2023-05-10T12:42:33-04:00*%
%TF.ProjectId,StackLight,53746163-6b4c-4696-9768-742e6b696361,0.5*%
%TF.SameCoordinates,Original*%
%TF.FileFunction,Legend,Top*%
%TF.FilePolarity,Positive*%
%FSLAX46Y46*%
G04 Gerber Fmt 4.6, Leading zero omitted, Abs format (unit mm)*
G04 Created by KiCad (PCBNEW 7.0.2) date 2023-05-10 12:42:33*
%MOMM*%
%LPD*%
G01*
G04 APERTURE LIST*
%ADD10C,0.300000*%
%ADD11C,0.150000*%
%ADD12C,0.120000*%
%ADD13C,0.100000*%
G04 APERTURE END LIST*
D10*
G36*
X120628890Y-103020000D02*
G01*
X120628890Y-101636608D01*
X120525575Y-101636608D01*
X120516817Y-101622822D01*
X120517710Y-101607160D01*
X120520835Y-101589622D01*
X120524894Y-101572655D01*
X120528847Y-101558216D01*
X120530338Y-101553077D01*
X120535028Y-101537288D01*
X120539757Y-101521384D01*
X120544525Y-101505363D01*
X120549331Y-101489227D01*
X120554176Y-101472974D01*
X120559060Y-101456606D01*
X120563982Y-101440122D01*
X120568943Y-101423521D01*
X120573943Y-101406805D01*
X120578981Y-101389973D01*
X120582361Y-101378688D01*
X120639514Y-101378688D01*
X120886810Y-101378688D01*
X120886810Y-103020000D01*
X120628890Y-103020000D01*
G37*
G36*
X122239427Y-102762079D02*
G01*
X122239427Y-103020000D01*
X121020167Y-103020000D01*
X121020167Y-102769040D01*
X121786601Y-102316580D01*
X121802719Y-102307764D01*
X121818238Y-102298213D01*
X121833159Y-102287929D01*
X121847480Y-102276910D01*
X121861203Y-102265157D01*
X121874326Y-102252670D01*
X121886851Y-102239448D01*
X121898777Y-102225493D01*
X121910104Y-102210803D01*
X121920832Y-102195379D01*
X121927651Y-102184689D01*
X121937276Y-102168257D01*
X121945953Y-102151523D01*
X121953685Y-102134486D01*
X121960469Y-102117146D01*
X121966307Y-102099504D01*
X121971198Y-102081559D01*
X121975143Y-102063311D01*
X121978141Y-102044761D01*
X121980192Y-102025908D01*
X121981296Y-102006752D01*
X121981507Y-101993813D01*
X121981106Y-101975612D01*
X121979904Y-101957738D01*
X121977900Y-101940189D01*
X121975095Y-101922967D01*
X121971489Y-101906072D01*
X121967081Y-101889502D01*
X121961872Y-101873259D01*
X121955861Y-101857342D01*
X121949049Y-101841752D01*
X121941435Y-101826488D01*
X121933020Y-101811550D01*
X121923804Y-101796938D01*
X121913786Y-101782653D01*
X121902967Y-101768694D01*
X121891347Y-101755061D01*
X121878925Y-101741755D01*
X121865980Y-101729022D01*
X121852701Y-101717111D01*
X121839087Y-101706021D01*
X121825138Y-101695753D01*
X121810854Y-101686306D01*
X121796235Y-101677681D01*
X121781281Y-101669877D01*
X121765993Y-101662895D01*
X121750369Y-101656734D01*
X121734411Y-101651394D01*
X121718118Y-101646876D01*
X121701490Y-101643180D01*
X121684527Y-101640305D01*
X121667229Y-101638251D01*
X121649596Y-101637019D01*
X121631629Y-101636608D01*
X121616845Y-101636899D01*
X121595046Y-101638424D01*
X121573697Y-101641256D01*
X121552800Y-101645396D01*
X121532353Y-101650843D01*
X121512356Y-101657598D01*
X121492811Y-101665660D01*
X121473716Y-101675029D01*
X121455073Y-101685705D01*
X121436880Y-101697689D01*
X121425001Y-101706404D01*
X121419137Y-101710980D01*
X121407697Y-101720487D01*
X121396732Y-101730414D01*
X121386242Y-101740763D01*
X121376227Y-101751532D01*
X121366687Y-101762722D01*
X121357623Y-101774332D01*
X121349033Y-101786364D01*
X121340919Y-101798816D01*
X121333279Y-101811689D01*
X121326115Y-101824982D01*
X121319426Y-101838697D01*
X121313212Y-101852832D01*
X121307474Y-101867387D01*
X121302210Y-101882364D01*
X121297421Y-101897761D01*
X121293108Y-101913579D01*
X121038119Y-101841772D01*
X121042888Y-101824292D01*
X121048039Y-101807116D01*
X121053570Y-101790243D01*
X121059482Y-101773674D01*
X121065775Y-101757408D01*
X121072448Y-101741445D01*
X121079502Y-101725786D01*
X121086937Y-101710430D01*
X121094752Y-101695378D01*
X121102948Y-101680629D01*
X121111524Y-101666183D01*
X121120482Y-101652041D01*
X121129820Y-101638202D01*
X121139538Y-101624667D01*
X121149638Y-101611435D01*
X121160118Y-101598506D01*
X121170936Y-101585855D01*
X121182048Y-101573548D01*
X121193456Y-101561583D01*
X121205158Y-101549963D01*
X121217155Y-101538686D01*
X121229447Y-101527752D01*
X121242033Y-101517162D01*
X121254915Y-101506915D01*
X121268091Y-101497012D01*
X121281562Y-101487452D01*
X121295328Y-101478236D01*
X121309388Y-101469363D01*
X121323744Y-101460833D01*
X121338394Y-101452647D01*
X121353339Y-101444805D01*
X121368579Y-101437306D01*
X121384022Y-101430208D01*
X121399577Y-101423567D01*
X121415243Y-101417385D01*
X121431021Y-101411660D01*
X121446911Y-101406394D01*
X121462912Y-101401585D01*
X121479025Y-101397235D01*
X121495250Y-101393342D01*
X121511586Y-101389907D01*
X121528033Y-101386931D01*
X121544593Y-101384412D01*
X121561264Y-101382351D01*
X121578046Y-101380748D01*
X121594941Y-101379603D01*
X121611947Y-101378917D01*
X121629064Y-101378688D01*
X121649795Y-101379014D01*
X121670314Y-101379993D01*
X121690622Y-101381624D01*
X121710718Y-101383908D01*
X121730601Y-101386845D01*
X121750273Y-101390434D01*
X121769734Y-101394676D01*
X121788982Y-101399570D01*
X121808019Y-101405117D01*
X121826844Y-101411317D01*
X121845457Y-101418169D01*
X121863858Y-101425674D01*
X121882047Y-101433831D01*
X121900025Y-101442641D01*
X121917791Y-101452104D01*
X121935345Y-101462219D01*
X121952612Y-101472852D01*
X121969428Y-101483960D01*
X121985791Y-101495543D01*
X122001702Y-101507602D01*
X122017161Y-101520136D01*
X122032168Y-101533144D01*
X122046722Y-101546628D01*
X122060824Y-101560587D01*
X122074474Y-101575022D01*
X122087672Y-101589931D01*
X122100417Y-101605315D01*
X122112711Y-101621175D01*
X122124552Y-101637510D01*
X122135941Y-101654319D01*
X122146877Y-101671604D01*
X122157361Y-101689364D01*
X122167299Y-101707458D01*
X122176595Y-101725743D01*
X122185251Y-101744220D01*
X122193265Y-101762889D01*
X122200638Y-101781750D01*
X122207370Y-101800802D01*
X122213461Y-101820046D01*
X122218911Y-101839482D01*
X122223719Y-101859110D01*
X122227886Y-101878929D01*
X122231413Y-101898941D01*
X122234298Y-101919144D01*
X122236542Y-101939538D01*
X122238145Y-101960125D01*
X122239106Y-101980903D01*
X122239427Y-102001873D01*
X122239078Y-102023836D01*
X122238030Y-102045579D01*
X122236284Y-102067102D01*
X122233840Y-102088404D01*
X122230697Y-102109486D01*
X122226856Y-102130347D01*
X122222317Y-102150988D01*
X122217079Y-102171408D01*
X122211143Y-102191608D01*
X122204508Y-102211588D01*
X122197175Y-102231347D01*
X122189143Y-102250886D01*
X122180414Y-102270205D01*
X122170986Y-102289303D01*
X122160859Y-102308181D01*
X122150034Y-102326838D01*
X122138687Y-102345114D01*
X122126902Y-102362845D01*
X122114679Y-102380033D01*
X122102017Y-102396676D01*
X122088919Y-102412776D01*
X122075382Y-102428333D01*
X122061407Y-102443345D01*
X122046994Y-102457814D01*
X122032144Y-102471738D01*
X122016855Y-102485119D01*
X122001128Y-102497956D01*
X121984964Y-102510249D01*
X121968362Y-102521999D01*
X121951322Y-102533204D01*
X121933843Y-102543866D01*
X121915927Y-102553984D01*
X121526116Y-102785526D01*
X121517037Y-102773906D01*
X121516957Y-102773803D01*
X121522818Y-102762079D01*
X122239427Y-102762079D01*
G37*
G36*
X122640596Y-101378688D02*
G01*
X123101482Y-102697599D01*
X123554675Y-101378688D01*
X123833844Y-101378688D01*
X123272208Y-103020000D01*
X122927093Y-103020000D01*
X122361426Y-101378688D01*
X122640596Y-101378688D01*
G37*
G36*
X121137651Y-95279441D02*
G01*
X121153427Y-95281376D01*
X121169185Y-95284046D01*
X121184143Y-95287060D01*
X121189427Y-95288213D01*
X121205797Y-95291978D01*
X121222760Y-95296130D01*
X121237349Y-95299885D01*
X121252349Y-95303908D01*
X121267760Y-95308200D01*
X121283583Y-95312759D01*
X121299618Y-95318035D01*
X121315439Y-95324473D01*
X121331045Y-95332074D01*
X121346437Y-95340838D01*
X121361614Y-95350764D01*
X121373601Y-95359543D01*
X121382501Y-95366615D01*
X121394253Y-95376472D01*
X121405880Y-95386628D01*
X121417380Y-95397080D01*
X121428754Y-95407831D01*
X121440003Y-95418879D01*
X121451126Y-95430225D01*
X121462122Y-95441869D01*
X121472993Y-95453810D01*
X121483520Y-95466392D01*
X121493486Y-95479959D01*
X121502892Y-95494510D01*
X121511736Y-95510047D01*
X121520019Y-95526567D01*
X121527741Y-95544073D01*
X121533165Y-95557848D01*
X121538273Y-95572177D01*
X121541503Y-95582037D01*
X121546021Y-95597137D01*
X121550094Y-95612623D01*
X121553723Y-95628495D01*
X121556908Y-95644754D01*
X121559648Y-95661399D01*
X121561944Y-95678431D01*
X121563795Y-95695849D01*
X121565202Y-95713654D01*
X121566165Y-95731844D01*
X121566683Y-95750422D01*
X121566782Y-95763021D01*
X121566560Y-95781813D01*
X121565893Y-95800270D01*
X121564783Y-95818392D01*
X121563227Y-95836179D01*
X121561228Y-95853632D01*
X121558784Y-95870749D01*
X121555895Y-95887532D01*
X121552563Y-95903980D01*
X121548786Y-95920093D01*
X121544564Y-95935871D01*
X121541503Y-95946203D01*
X121536635Y-95961251D01*
X121531375Y-95975759D01*
X121525722Y-95989725D01*
X121519676Y-96003150D01*
X121511003Y-96020209D01*
X121501632Y-96036306D01*
X121491563Y-96051441D01*
X121480795Y-96065615D01*
X121469329Y-96078827D01*
X121457571Y-96091163D01*
X121445745Y-96102893D01*
X121433849Y-96114015D01*
X121421885Y-96124531D01*
X121409852Y-96134440D01*
X121397751Y-96143742D01*
X121385581Y-96152438D01*
X121373342Y-96160526D01*
X121358269Y-96169775D01*
X121343732Y-96178057D01*
X121329732Y-96185374D01*
X121316269Y-96191725D01*
X121300822Y-96198070D01*
X121286147Y-96203025D01*
X121692079Y-96920000D01*
X121394957Y-96920000D01*
X120999650Y-96240027D01*
X120722679Y-96240027D01*
X120722679Y-96920000D01*
X120464758Y-96920000D01*
X120464758Y-95560055D01*
X120722679Y-95560055D01*
X120722679Y-95982107D01*
X121104064Y-95982107D01*
X121122749Y-95982107D01*
X121137987Y-95980462D01*
X121152516Y-95976669D01*
X121166987Y-95971448D01*
X121174772Y-95968185D01*
X121188454Y-95961901D01*
X121201610Y-95955232D01*
X121216001Y-95947138D01*
X121229706Y-95938540D01*
X121233024Y-95936311D01*
X121244620Y-95927318D01*
X121256005Y-95916045D01*
X121265596Y-95904569D01*
X121275033Y-95891419D01*
X121284315Y-95876594D01*
X121291387Y-95863077D01*
X121297260Y-95848630D01*
X121301934Y-95833253D01*
X121305410Y-95816945D01*
X121307687Y-95799708D01*
X121308766Y-95781540D01*
X121308862Y-95774012D01*
X121308472Y-95759060D01*
X121306891Y-95741078D01*
X121304093Y-95723883D01*
X121300079Y-95707475D01*
X121294848Y-95691855D01*
X121288401Y-95677021D01*
X121283949Y-95668499D01*
X121276287Y-95655184D01*
X121267117Y-95640931D01*
X121257972Y-95628557D01*
X121247335Y-95616498D01*
X121235223Y-95605851D01*
X121222262Y-95597127D01*
X121209495Y-95589907D01*
X121195395Y-95583072D01*
X121179962Y-95576623D01*
X121172941Y-95573977D01*
X121157658Y-95568553D01*
X121143199Y-95563984D01*
X121128550Y-95560545D01*
X121123115Y-95560055D01*
X121104064Y-95560055D01*
X120722679Y-95560055D01*
X120464758Y-95560055D01*
X120464758Y-95278688D01*
X121104064Y-95278688D01*
X121122749Y-95278688D01*
X121137651Y-95279441D01*
G37*
G36*
X122989741Y-95278688D02*
G01*
X122989741Y-95536608D01*
X122016677Y-95536608D01*
X122016677Y-95958660D01*
X122509071Y-95958660D01*
X122509071Y-96240027D01*
X122016677Y-96240027D01*
X122016677Y-96662079D01*
X122989741Y-96662079D01*
X122989741Y-96920000D01*
X121758757Y-96920000D01*
X121758757Y-95278688D01*
X122989741Y-95278688D01*
G37*
G36*
X123518054Y-95278974D02*
G01*
X123537198Y-95279834D01*
X123556419Y-95281267D01*
X123575718Y-95283273D01*
X123595094Y-95285852D01*
X123614547Y-95289004D01*
X123634077Y-95292730D01*
X123653685Y-95297029D01*
X123673370Y-95301901D01*
X123693132Y-95307346D01*
X123706350Y-95311294D01*
X123726189Y-95317730D01*
X123746003Y-95324809D01*
X123765791Y-95332533D01*
X123785553Y-95340901D01*
X123805289Y-95349913D01*
X123825000Y-95359568D01*
X123838126Y-95366363D01*
X123851241Y-95373444D01*
X123864344Y-95380812D01*
X123877436Y-95388465D01*
X123890516Y-95396405D01*
X123903585Y-95404631D01*
X123916643Y-95413143D01*
X123929657Y-95421853D01*
X123942506Y-95430763D01*
X123955188Y-95439874D01*
X123967705Y-95449184D01*
X123980055Y-95458695D01*
X123992240Y-95468407D01*
X124004258Y-95478319D01*
X124016110Y-95488431D01*
X124027797Y-95498744D01*
X124039317Y-95509257D01*
X124050672Y-95519970D01*
X124061860Y-95530884D01*
X124072883Y-95541998D01*
X124083739Y-95553312D01*
X124094429Y-95564827D01*
X124104954Y-95576542D01*
X124115258Y-95588467D01*
X124125287Y-95600705D01*
X124135042Y-95613254D01*
X124144521Y-95626115D01*
X124153726Y-95639289D01*
X124162656Y-95652774D01*
X124171312Y-95666571D01*
X124179692Y-95680681D01*
X124187798Y-95695102D01*
X124195629Y-95709835D01*
X124203185Y-95724881D01*
X124210467Y-95740238D01*
X124217473Y-95755907D01*
X124224205Y-95771888D01*
X124230663Y-95788181D01*
X124236845Y-95804787D01*
X124242701Y-95821614D01*
X124248179Y-95838572D01*
X124253280Y-95855663D01*
X124258003Y-95872885D01*
X124262347Y-95890238D01*
X124266314Y-95907724D01*
X124269904Y-95925341D01*
X124273115Y-95943089D01*
X124275949Y-95960969D01*
X124278404Y-95978981D01*
X124280482Y-95997125D01*
X124282183Y-96015400D01*
X124283505Y-96033807D01*
X124284449Y-96052346D01*
X124285016Y-96071016D01*
X124285205Y-96089818D01*
X124284923Y-96113293D01*
X124284077Y-96136547D01*
X124282668Y-96159580D01*
X124280694Y-96182394D01*
X124278157Y-96204987D01*
X124275056Y-96227359D01*
X124271391Y-96249511D01*
X124267162Y-96271443D01*
X124262369Y-96293155D01*
X124257012Y-96314646D01*
X124251092Y-96335916D01*
X124244607Y-96356966D01*
X124237559Y-96377796D01*
X124229947Y-96398406D01*
X124221771Y-96418795D01*
X124213031Y-96438963D01*
X124203894Y-96458757D01*
X124194433Y-96478113D01*
X124184648Y-96497031D01*
X124174540Y-96515510D01*
X124164109Y-96533552D01*
X124153354Y-96551157D01*
X124142276Y-96568323D01*
X124130874Y-96585051D01*
X124119149Y-96601341D01*
X124107100Y-96617194D01*
X124094729Y-96632608D01*
X124082033Y-96647585D01*
X124069014Y-96662123D01*
X124055672Y-96676224D01*
X124042006Y-96689887D01*
X124028017Y-96703112D01*
X124013715Y-96715889D01*
X123999109Y-96728299D01*
X123984200Y-96740344D01*
X123968987Y-96752021D01*
X123953471Y-96763333D01*
X123937651Y-96774278D01*
X123921528Y-96784857D01*
X123905102Y-96795069D01*
X123888372Y-96804915D01*
X123871339Y-96814395D01*
X123854003Y-96823508D01*
X123836363Y-96832255D01*
X123818420Y-96840636D01*
X123800173Y-96848650D01*
X123781623Y-96856298D01*
X123762770Y-96863579D01*
X123743769Y-96870412D01*
X123724685Y-96876803D01*
X123705518Y-96882753D01*
X123686268Y-96888263D01*
X123666935Y-96893332D01*
X123647519Y-96897960D01*
X123628021Y-96902148D01*
X123608439Y-96905894D01*
X123588774Y-96909200D01*
X123569026Y-96912065D01*
X123549195Y-96914490D01*
X123529281Y-96916473D01*
X123509284Y-96918016D01*
X123489204Y-96919118D01*
X123469041Y-96919779D01*
X123448795Y-96920000D01*
X123065945Y-96920000D01*
X123065945Y-95560055D01*
X123347313Y-95560055D01*
X123347313Y-96662079D01*
X123511810Y-96662079D01*
X123526894Y-96661685D01*
X123542837Y-96660505D01*
X123559638Y-96658537D01*
X123577298Y-96655782D01*
X123592044Y-96653012D01*
X123607340Y-96649737D01*
X123623185Y-96645959D01*
X123639431Y-96641505D01*
X123655929Y-96636205D01*
X123672678Y-96630057D01*
X123689680Y-96623061D01*
X123706933Y-96615219D01*
X123724439Y-96606529D01*
X123737733Y-96599456D01*
X123751169Y-96591906D01*
X123760205Y-96586608D01*
X123773733Y-96578285D01*
X123786978Y-96569667D01*
X123799940Y-96560751D01*
X123812618Y-96551540D01*
X123825013Y-96542033D01*
X123837124Y-96532229D01*
X123848953Y-96522129D01*
X123860497Y-96511732D01*
X123871759Y-96501040D01*
X123882737Y-96490051D01*
X123889898Y-96482561D01*
X123900401Y-96470813D01*
X123910613Y-96458376D01*
X123920536Y-96445250D01*
X123930169Y-96431436D01*
X123939513Y-96416932D01*
X123948566Y-96401739D01*
X123957330Y-96385856D01*
X123965804Y-96369285D01*
X123973988Y-96352025D01*
X123981883Y-96334076D01*
X123986985Y-96321727D01*
X123994187Y-96302699D01*
X124000680Y-96283258D01*
X124006466Y-96263406D01*
X124011542Y-96243142D01*
X124015911Y-96222465D01*
X124019571Y-96201376D01*
X124022523Y-96179875D01*
X124024766Y-96157962D01*
X124025868Y-96143124D01*
X124026655Y-96128103D01*
X124027127Y-96112899D01*
X124027285Y-96097512D01*
X124027101Y-96081253D01*
X124026550Y-96065174D01*
X124025633Y-96049276D01*
X124024348Y-96033558D01*
X124022696Y-96018021D01*
X124020677Y-96002663D01*
X124018291Y-95987487D01*
X124015538Y-95972490D01*
X124012418Y-95957674D01*
X124008931Y-95943038D01*
X124006402Y-95933381D01*
X124002426Y-95919174D01*
X123996725Y-95900913D01*
X123990565Y-95883430D01*
X123983948Y-95866727D01*
X123976872Y-95850801D01*
X123969339Y-95835654D01*
X123961348Y-95821286D01*
X123952898Y-95807696D01*
X123950714Y-95804420D01*
X123941750Y-95791517D01*
X123932442Y-95778821D01*
X123922791Y-95766330D01*
X123912796Y-95754045D01*
X123902457Y-95741967D01*
X123891776Y-95730094D01*
X123880750Y-95718428D01*
X123869382Y-95706967D01*
X123857841Y-95695839D01*
X123846301Y-95685352D01*
X123834760Y-95675506D01*
X123823220Y-95666301D01*
X123808794Y-95655696D01*
X123794369Y-95646094D01*
X123779943Y-95637493D01*
X123777058Y-95635893D01*
X123762632Y-95628013D01*
X123748207Y-95620401D01*
X123733781Y-95613058D01*
X123719355Y-95605983D01*
X123704930Y-95599176D01*
X123690504Y-95592637D01*
X123684734Y-95590097D01*
X123670514Y-95584176D01*
X123656706Y-95579006D01*
X123640679Y-95573794D01*
X123625244Y-95569664D01*
X123610402Y-95566616D01*
X123600837Y-95565184D01*
X123585116Y-95563186D01*
X123569082Y-95561503D01*
X123553507Y-95560376D01*
X123541852Y-95560055D01*
X123347313Y-95560055D01*
X123065945Y-95560055D01*
X123065945Y-95278688D01*
X123498987Y-95278688D01*
X123518054Y-95278974D01*
G37*
G36*
X120772504Y-89403688D02*
G01*
X121085013Y-89945540D01*
X121399720Y-89403688D01*
X121703802Y-89403688D01*
X121215072Y-90247424D01*
X121215072Y-91045000D01*
X120957152Y-91045000D01*
X120957152Y-90247424D01*
X120469155Y-89403688D01*
X120772504Y-89403688D01*
G37*
G36*
X123032239Y-89403688D02*
G01*
X123032239Y-89661608D01*
X122059176Y-89661608D01*
X122059176Y-90083660D01*
X122551569Y-90083660D01*
X122551569Y-90365027D01*
X122059176Y-90365027D01*
X122059176Y-90787079D01*
X123032239Y-90787079D01*
X123032239Y-91045000D01*
X121801255Y-91045000D01*
X121801255Y-89403688D01*
X123032239Y-89403688D01*
G37*
G36*
X124351151Y-91045000D02*
G01*
X123131890Y-91045000D01*
X123131890Y-89403688D01*
X123389811Y-89403688D01*
X123389811Y-90787079D01*
X124351151Y-90787079D01*
X124351151Y-91045000D01*
G37*
G36*
X125697906Y-91045000D02*
G01*
X124478645Y-91045000D01*
X124478645Y-89403688D01*
X124736566Y-89403688D01*
X124736566Y-90787079D01*
X125697906Y-90787079D01*
X125697906Y-91045000D01*
G37*
G36*
X126655809Y-89403923D02*
G01*
X126676364Y-89404629D01*
X126696733Y-89405806D01*
X126716914Y-89407454D01*
X126736907Y-89409573D01*
X126756713Y-89412163D01*
X126776331Y-89415223D01*
X126795762Y-89418754D01*
X126815005Y-89422756D01*
X126834061Y-89427229D01*
X126852930Y-89432173D01*
X126871611Y-89437588D01*
X126890104Y-89443473D01*
X126908410Y-89449829D01*
X126926529Y-89456657D01*
X126944460Y-89463954D01*
X126962204Y-89471723D01*
X126979760Y-89479963D01*
X126997129Y-89488673D01*
X127014310Y-89497855D01*
X127031303Y-89507507D01*
X127048110Y-89517630D01*
X127064728Y-89528224D01*
X127081160Y-89539288D01*
X127097404Y-89550824D01*
X127113460Y-89562830D01*
X127129329Y-89575307D01*
X127145010Y-89588255D01*
X127160504Y-89601674D01*
X127175811Y-89615563D01*
X127190930Y-89629924D01*
X127205861Y-89644755D01*
X127220467Y-89659917D01*
X127234609Y-89675269D01*
X127248288Y-89690812D01*
X127261503Y-89706545D01*
X127274254Y-89722468D01*
X127286541Y-89738582D01*
X127298365Y-89754886D01*
X127309725Y-89771380D01*
X127320622Y-89788065D01*
X127331055Y-89804939D01*
X127341024Y-89822005D01*
X127350529Y-89839260D01*
X127359571Y-89856706D01*
X127368149Y-89874343D01*
X127376263Y-89892169D01*
X127383914Y-89910186D01*
X127391101Y-89928393D01*
X127397824Y-89946791D01*
X127404084Y-89965379D01*
X127409880Y-89984157D01*
X127415212Y-90003126D01*
X127420081Y-90022285D01*
X127424486Y-90041634D01*
X127428427Y-90061174D01*
X127431905Y-90080904D01*
X127434919Y-90100824D01*
X127437469Y-90120935D01*
X127439556Y-90141236D01*
X127441179Y-90161727D01*
X127442338Y-90182409D01*
X127443033Y-90203281D01*
X127443265Y-90224344D01*
X127443033Y-90245384D01*
X127442338Y-90266235D01*
X127441179Y-90286897D01*
X127439556Y-90307371D01*
X127437469Y-90327655D01*
X127434919Y-90347751D01*
X127431905Y-90367658D01*
X127428427Y-90387376D01*
X127424486Y-90406905D01*
X127420081Y-90426245D01*
X127415212Y-90445396D01*
X127409880Y-90464358D01*
X127404084Y-90483131D01*
X127397824Y-90501716D01*
X127391101Y-90520111D01*
X127383914Y-90538318D01*
X127376263Y-90556335D01*
X127368149Y-90574164D01*
X127359571Y-90591804D01*
X127350529Y-90609255D01*
X127341024Y-90626517D01*
X127331055Y-90643590D01*
X127320622Y-90660474D01*
X127309725Y-90677170D01*
X127298365Y-90693676D01*
X127286541Y-90709994D01*
X127274254Y-90726122D01*
X127261503Y-90742062D01*
X127248288Y-90757813D01*
X127234609Y-90773375D01*
X127220467Y-90788748D01*
X127205861Y-90803932D01*
X127190928Y-90818763D01*
X127175803Y-90833124D01*
X127160488Y-90847013D01*
X127144982Y-90860432D01*
X127129284Y-90873380D01*
X127113396Y-90885857D01*
X127097316Y-90897863D01*
X127081045Y-90909399D01*
X127064584Y-90920464D01*
X127047931Y-90931057D01*
X127031087Y-90941180D01*
X127014052Y-90950832D01*
X126996826Y-90960014D01*
X126979409Y-90968724D01*
X126961801Y-90976964D01*
X126944002Y-90984733D01*
X126926012Y-90992031D01*
X126907831Y-90998858D01*
X126889459Y-91005214D01*
X126870895Y-91011099D01*
X126852141Y-91016514D01*
X126833196Y-91021458D01*
X126814059Y-91025931D01*
X126794732Y-91029933D01*
X126775213Y-91033464D01*
X126755503Y-91036524D01*
X126735603Y-91039114D01*
X126715511Y-91041233D01*
X126695228Y-91042881D01*
X126674754Y-91044058D01*
X126654090Y-91044764D01*
X126633234Y-91045000D01*
X126612647Y-91044764D01*
X126592241Y-91044058D01*
X126572015Y-91042881D01*
X126551969Y-91041233D01*
X126532104Y-91039114D01*
X126512419Y-91036524D01*
X126492915Y-91033464D01*
X126473590Y-91029933D01*
X126454446Y-91025931D01*
X126435483Y-91021458D01*
X126416700Y-91016514D01*
X126398096Y-91011099D01*
X126379674Y-91005214D01*
X126361431Y-90998858D01*
X126343369Y-90992031D01*
X126325488Y-90984733D01*
X126307786Y-90976964D01*
X126290265Y-90968724D01*
X126272924Y-90960014D01*
X126255764Y-90950832D01*
X126238784Y-90941180D01*
X126221984Y-90931057D01*
X126205365Y-90920464D01*
X126188925Y-90909399D01*
X126172667Y-90897863D01*
X126156588Y-90885857D01*
X126140690Y-90873380D01*
X126124972Y-90860432D01*
X126109434Y-90847013D01*
X126094077Y-90833124D01*
X126078900Y-90818763D01*
X126063904Y-90803932D01*
X126049230Y-90788748D01*
X126035022Y-90773375D01*
X126021280Y-90757813D01*
X126008004Y-90742062D01*
X125995194Y-90726122D01*
X125982850Y-90709994D01*
X125970971Y-90693676D01*
X125959558Y-90677170D01*
X125948612Y-90660474D01*
X125938130Y-90643590D01*
X125928115Y-90626517D01*
X125918566Y-90609255D01*
X125909482Y-90591804D01*
X125900864Y-90574164D01*
X125892712Y-90556335D01*
X125885026Y-90538318D01*
X125877806Y-90520111D01*
X125871051Y-90501716D01*
X125864763Y-90483131D01*
X125858940Y-90464358D01*
X125853583Y-90445396D01*
X125848692Y-90426245D01*
X125844266Y-90406905D01*
X125840307Y-90387376D01*
X125836813Y-90367658D01*
X125833785Y-90347751D01*
X125831223Y-90327655D01*
X125829127Y-90307371D01*
X125827497Y-90286897D01*
X125826332Y-90266235D01*
X125825633Y-90245384D01*
X125825400Y-90224344D01*
X125825424Y-90222145D01*
X126083321Y-90222145D01*
X126083481Y-90236963D01*
X126083962Y-90251649D01*
X126085885Y-90280626D01*
X126089091Y-90309077D01*
X126093579Y-90337001D01*
X126099349Y-90364398D01*
X126106402Y-90391268D01*
X126114737Y-90417612D01*
X126124354Y-90443429D01*
X126135253Y-90468720D01*
X126147435Y-90493484D01*
X126160899Y-90517721D01*
X126175645Y-90541432D01*
X126191673Y-90564616D01*
X126208984Y-90587273D01*
X126227577Y-90609404D01*
X126247452Y-90631008D01*
X126257775Y-90641489D01*
X126278806Y-90661453D01*
X126300353Y-90680086D01*
X126322415Y-90697388D01*
X126344992Y-90713359D01*
X126368085Y-90728000D01*
X126391692Y-90741309D01*
X126415815Y-90753287D01*
X126440453Y-90763935D01*
X126465606Y-90773251D01*
X126491275Y-90781237D01*
X126517458Y-90787892D01*
X126544157Y-90793215D01*
X126571371Y-90797208D01*
X126599100Y-90799870D01*
X126627345Y-90801201D01*
X126641660Y-90801367D01*
X126670206Y-90800706D01*
X126698235Y-90798723D01*
X126725745Y-90795417D01*
X126752737Y-90790788D01*
X126779211Y-90784838D01*
X126805167Y-90777565D01*
X126830605Y-90768970D01*
X126855525Y-90759052D01*
X126879927Y-90747812D01*
X126903811Y-90735250D01*
X126927177Y-90721365D01*
X126950024Y-90706158D01*
X126972354Y-90689629D01*
X126994165Y-90671777D01*
X127015459Y-90652603D01*
X127036234Y-90632107D01*
X127046332Y-90621438D01*
X127065566Y-90599700D01*
X127083518Y-90577426D01*
X127100188Y-90554617D01*
X127115575Y-90531273D01*
X127129680Y-90507393D01*
X127142503Y-90482978D01*
X127154043Y-90458028D01*
X127164302Y-90432543D01*
X127173277Y-90406523D01*
X127180971Y-90379967D01*
X127187383Y-90352876D01*
X127192512Y-90325250D01*
X127196358Y-90297089D01*
X127198923Y-90268392D01*
X127200205Y-90239160D01*
X127200366Y-90224344D01*
X127200205Y-90209505D01*
X127199724Y-90194801D01*
X127197801Y-90165800D01*
X127194595Y-90137339D01*
X127190107Y-90109420D01*
X127184337Y-90082041D01*
X127177285Y-90055203D01*
X127168950Y-90028907D01*
X127159333Y-90003151D01*
X127148433Y-89977936D01*
X127136252Y-89953263D01*
X127122788Y-89929130D01*
X127108042Y-89905538D01*
X127092013Y-89882487D01*
X127074703Y-89859977D01*
X127056110Y-89838008D01*
X127036234Y-89816580D01*
X127025911Y-89806167D01*
X127004877Y-89786331D01*
X126983324Y-89767819D01*
X126961254Y-89750628D01*
X126938665Y-89734760D01*
X126915558Y-89720214D01*
X126891934Y-89706991D01*
X126867791Y-89695090D01*
X126843130Y-89684511D01*
X126817951Y-89675254D01*
X126792254Y-89667320D01*
X126766039Y-89660709D01*
X126739306Y-89655419D01*
X126712055Y-89651452D01*
X126684285Y-89648807D01*
X126655998Y-89647485D01*
X126641660Y-89647320D01*
X126613114Y-89647977D01*
X126585085Y-89649947D01*
X126557575Y-89653232D01*
X126530583Y-89657830D01*
X126504109Y-89663742D01*
X126478153Y-89670967D01*
X126452715Y-89679507D01*
X126427795Y-89689360D01*
X126403393Y-89700527D01*
X126379509Y-89713008D01*
X126356143Y-89726802D01*
X126333296Y-89741910D01*
X126310966Y-89758332D01*
X126289155Y-89776068D01*
X126267861Y-89795118D01*
X126247086Y-89815481D01*
X126227255Y-89836776D01*
X126208703Y-89858620D01*
X126191431Y-89881014D01*
X126175439Y-89903958D01*
X126160725Y-89927451D01*
X126147292Y-89951494D01*
X126135137Y-89976086D01*
X126124262Y-90001228D01*
X126114667Y-90026919D01*
X126106350Y-90053160D01*
X126099314Y-90079950D01*
X126093556Y-90107290D01*
X126089078Y-90135180D01*
X126085880Y-90163619D01*
X126083961Y-90192607D01*
X126083481Y-90207308D01*
X126083321Y-90222145D01*
X125825424Y-90222145D01*
X125825633Y-90203281D01*
X125826332Y-90182409D01*
X125827497Y-90161727D01*
X125829127Y-90141236D01*
X125831223Y-90120935D01*
X125833785Y-90100824D01*
X125836813Y-90080904D01*
X125840307Y-90061174D01*
X125844266Y-90041634D01*
X125848692Y-90022285D01*
X125853583Y-90003126D01*
X125858940Y-89984157D01*
X125864763Y-89965379D01*
X125871051Y-89946791D01*
X125877806Y-89928393D01*
X125885026Y-89910186D01*
X125892712Y-89892169D01*
X125900864Y-89874343D01*
X125909482Y-89856706D01*
X125918566Y-89839260D01*
X125928115Y-89822005D01*
X125938130Y-89804939D01*
X125948612Y-89788065D01*
X125959558Y-89771380D01*
X125970971Y-89754886D01*
X125982850Y-89738582D01*
X125995194Y-89722468D01*
X126008004Y-89706545D01*
X126021280Y-89690812D01*
X126035022Y-89675269D01*
X126049230Y-89659917D01*
X126063904Y-89644755D01*
X126078902Y-89629924D01*
X126094084Y-89615563D01*
X126109450Y-89601674D01*
X126125001Y-89588255D01*
X126140735Y-89575307D01*
X126156652Y-89562830D01*
X126172754Y-89550824D01*
X126189040Y-89539288D01*
X126205509Y-89528224D01*
X126222163Y-89517630D01*
X126239000Y-89507507D01*
X126256022Y-89497855D01*
X126273227Y-89488673D01*
X126290616Y-89479963D01*
X126308189Y-89471723D01*
X126325946Y-89463954D01*
X126343886Y-89456657D01*
X126362011Y-89449829D01*
X126380320Y-89443473D01*
X126398812Y-89437588D01*
X126417488Y-89432173D01*
X126436349Y-89427229D01*
X126455393Y-89422756D01*
X126474621Y-89418754D01*
X126494033Y-89415223D01*
X126513629Y-89412163D01*
X126533408Y-89409573D01*
X126553372Y-89407454D01*
X126573520Y-89405806D01*
X126593851Y-89404629D01*
X126614366Y-89403923D01*
X126635065Y-89403688D01*
X126655809Y-89403923D01*
G37*
G36*
X127965701Y-91045000D02*
G01*
X127562333Y-89403688D01*
X127836374Y-89403688D01*
X128123970Y-90584846D01*
X128119024Y-90598834D01*
X128115177Y-90601699D01*
X128110798Y-90587445D01*
X128110781Y-90585579D01*
X128398743Y-89403688D01*
X128675348Y-89403688D01*
X128969172Y-90592540D01*
X128957449Y-90612690D01*
X128950121Y-90591441D01*
X129237351Y-89403688D01*
X129511758Y-89403688D01*
X129118283Y-91045000D01*
X128800645Y-91045000D01*
X128529535Y-89946273D01*
X128535666Y-89932308D01*
X128542724Y-89927955D01*
X128545129Y-89942901D01*
X128544190Y-89946639D01*
X128279675Y-91045000D01*
X127965701Y-91045000D01*
G37*
G36*
X121986636Y-83751838D02*
G01*
X121763886Y-83889591D01*
X121755712Y-83876897D01*
X121747308Y-83864461D01*
X121738676Y-83852282D01*
X121729814Y-83840361D01*
X121720724Y-83828698D01*
X121711404Y-83817292D01*
X121701856Y-83806143D01*
X121687104Y-83789904D01*
X121671837Y-83774244D01*
X121656055Y-83759163D01*
X121639757Y-83744663D01*
X121622945Y-83730742D01*
X121605617Y-83717400D01*
X121588023Y-83704611D01*
X121570274Y-83692486D01*
X121552371Y-83681024D01*
X121534313Y-83670225D01*
X121516101Y-83660089D01*
X121497734Y-83650617D01*
X121479213Y-83641808D01*
X121460537Y-83633663D01*
X121441706Y-83626181D01*
X121422721Y-83619362D01*
X121409978Y-83615184D01*
X121391951Y-83610943D01*
X121373954Y-83607285D01*
X121355990Y-83604211D01*
X121338056Y-83601721D01*
X121320155Y-83599814D01*
X121302284Y-83598492D01*
X121284446Y-83597754D01*
X121266638Y-83597599D01*
X121248862Y-83598028D01*
X121231118Y-83599042D01*
X121213405Y-83600639D01*
X121195724Y-83602820D01*
X121178074Y-83605585D01*
X121160456Y-83608933D01*
X121142869Y-83612866D01*
X121125313Y-83617383D01*
X121107925Y-83622414D01*
X121090841Y-83627984D01*
X121074059Y-83634092D01*
X121057582Y-83640738D01*
X121041407Y-83647923D01*
X121025536Y-83655645D01*
X121009969Y-83663905D01*
X120994704Y-83672704D01*
X120979744Y-83682040D01*
X120965086Y-83691915D01*
X120950732Y-83702328D01*
X120936681Y-83713278D01*
X120922934Y-83724767D01*
X120909490Y-83736794D01*
X120896350Y-83749360D01*
X120883513Y-83762463D01*
X120871118Y-83775945D01*
X120859213Y-83789740D01*
X120847797Y-83803846D01*
X120836870Y-83818265D01*
X120826433Y-83832995D01*
X120816485Y-83848038D01*
X120807027Y-83863392D01*
X120798058Y-83879058D01*
X120789579Y-83895037D01*
X120781589Y-83911327D01*
X120774089Y-83927929D01*
X120767078Y-83944844D01*
X120760556Y-83962070D01*
X120754524Y-83979608D01*
X120748981Y-83997458D01*
X120743928Y-84015621D01*
X120739463Y-84033862D01*
X120735593Y-84052039D01*
X120732319Y-84070154D01*
X120729640Y-84088206D01*
X120727556Y-84106196D01*
X120726068Y-84124122D01*
X120725175Y-84141985D01*
X120724877Y-84159785D01*
X120725175Y-84177522D01*
X120726068Y-84195196D01*
X120727556Y-84212808D01*
X120729640Y-84230356D01*
X120732319Y-84247841D01*
X120735593Y-84265263D01*
X120739463Y-84282623D01*
X120743928Y-84299919D01*
X120749001Y-84317054D01*
X120754604Y-84333928D01*
X120760736Y-84350542D01*
X120767398Y-84366895D01*
X120774590Y-84382988D01*
X120782310Y-84398820D01*
X120790561Y-84414392D01*
X120799341Y-84429704D01*
X120808650Y-84444755D01*
X120818489Y-84459545D01*
X120828857Y-84474075D01*
X120839755Y-84488345D01*
X120851183Y-84502354D01*
X120863140Y-84516103D01*
X120875626Y-84529591D01*
X120888642Y-84542819D01*
X120902064Y-84555657D01*
X120915770Y-84567978D01*
X120929759Y-84579780D01*
X120944032Y-84591064D01*
X120958587Y-84601831D01*
X120973427Y-84612079D01*
X120988549Y-84621809D01*
X121003955Y-84631021D01*
X121019644Y-84639715D01*
X121035617Y-84647891D01*
X121051873Y-84655549D01*
X121068412Y-84662689D01*
X121085235Y-84669310D01*
X121102341Y-84675414D01*
X121119730Y-84681000D01*
X121137403Y-84686067D01*
X121155213Y-84690568D01*
X121173015Y-84694453D01*
X121190808Y-84697724D01*
X121208592Y-84700378D01*
X121226368Y-84702418D01*
X121244135Y-84703842D01*
X121261894Y-84704650D01*
X121279644Y-84704843D01*
X121297386Y-84704421D01*
X121315119Y-84703384D01*
X121332843Y-84701731D01*
X121350559Y-84699462D01*
X121368266Y-84696579D01*
X121385964Y-84693080D01*
X121403654Y-84688965D01*
X121421336Y-84684235D01*
X121438855Y-84678946D01*
X121456060Y-84673153D01*
X121472950Y-84666856D01*
X121489525Y-84660055D01*
X121505785Y-84652751D01*
X121521731Y-84644943D01*
X121537361Y-84636631D01*
X121552677Y-84627815D01*
X121567678Y-84618496D01*
X121582364Y-84608673D01*
X121596735Y-84598346D01*
X121610792Y-84587515D01*
X121624533Y-84576181D01*
X121637960Y-84564343D01*
X121651072Y-84552001D01*
X121663869Y-84539155D01*
X121676256Y-84525847D01*
X121688140Y-84512210D01*
X121699521Y-84498244D01*
X121710397Y-84483949D01*
X121720770Y-84469324D01*
X121730639Y-84454370D01*
X121740004Y-84439088D01*
X121748865Y-84423476D01*
X121757223Y-84407534D01*
X121765077Y-84391264D01*
X121772427Y-84374665D01*
X121779273Y-84357736D01*
X121785616Y-84340478D01*
X121791455Y-84322891D01*
X121796790Y-84304975D01*
X121801622Y-84286730D01*
X121810593Y-84274882D01*
X121815544Y-84268046D01*
X121822871Y-84266580D01*
X121808583Y-84266580D01*
X120981332Y-84266580D01*
X121057902Y-84008660D01*
X122058443Y-84008660D01*
X122070533Y-84008660D01*
X122074642Y-84023738D01*
X122077416Y-84040868D01*
X122079211Y-84057561D01*
X122080628Y-84076909D01*
X122081442Y-84093164D01*
X122082045Y-84110912D01*
X122082434Y-84130155D01*
X122082611Y-84150892D01*
X122082623Y-84158136D01*
X122082417Y-84173624D01*
X122081800Y-84189864D01*
X122080772Y-84206855D01*
X122079332Y-84224597D01*
X122077883Y-84239332D01*
X122076172Y-84254547D01*
X122074197Y-84270244D01*
X122071930Y-84286427D01*
X122069159Y-84303102D01*
X122065885Y-84320270D01*
X122062107Y-84337930D01*
X122057825Y-84356082D01*
X122053039Y-84374726D01*
X122049119Y-84389033D01*
X122044916Y-84403616D01*
X122041957Y-84413492D01*
X122037289Y-84428314D01*
X122032215Y-84443103D01*
X122026736Y-84457861D01*
X122020851Y-84472586D01*
X122014560Y-84487278D01*
X122007863Y-84501939D01*
X122000761Y-84516568D01*
X121993253Y-84531164D01*
X121985339Y-84545728D01*
X121977020Y-84560260D01*
X121971248Y-84569930D01*
X121962421Y-84584323D01*
X121953388Y-84598652D01*
X121944149Y-84612917D01*
X121934703Y-84627117D01*
X121925052Y-84641253D01*
X121915195Y-84655324D01*
X121905131Y-84669331D01*
X121894861Y-84683274D01*
X121884386Y-84697152D01*
X121873704Y-84710966D01*
X121866468Y-84720139D01*
X121855280Y-84733687D01*
X121843422Y-84746990D01*
X121830894Y-84760048D01*
X121817696Y-84772861D01*
X121803828Y-84785430D01*
X121789291Y-84797754D01*
X121774084Y-84809833D01*
X121758207Y-84821668D01*
X121741661Y-84833258D01*
X121724445Y-84844603D01*
X121712595Y-84852030D01*
X121694467Y-84862799D01*
X121675939Y-84873123D01*
X121657012Y-84883003D01*
X121637685Y-84892439D01*
X121617959Y-84901430D01*
X121597834Y-84909977D01*
X121584196Y-84915428D01*
X121570380Y-84920682D01*
X121556387Y-84925738D01*
X121542216Y-84930597D01*
X121527867Y-84935258D01*
X121513342Y-84939721D01*
X121498638Y-84943988D01*
X121483180Y-84948028D01*
X121467808Y-84951813D01*
X121452523Y-84955343D01*
X121437324Y-84958619D01*
X121422212Y-84961640D01*
X121407186Y-84964407D01*
X121392247Y-84966918D01*
X121377395Y-84969175D01*
X121362629Y-84971177D01*
X121347950Y-84972925D01*
X121333357Y-84974417D01*
X121304431Y-84976638D01*
X121275852Y-84977841D01*
X121247619Y-84978024D01*
X121219733Y-84977188D01*
X121192192Y-84975333D01*
X121164998Y-84972460D01*
X121138151Y-84968567D01*
X121111649Y-84963655D01*
X121085494Y-84957725D01*
X121059686Y-84950775D01*
X121046911Y-84946919D01*
X121021666Y-84938604D01*
X120996857Y-84929596D01*
X120972482Y-84919896D01*
X120948542Y-84909504D01*
X120925038Y-84898418D01*
X120901968Y-84886640D01*
X120879334Y-84874169D01*
X120857135Y-84861006D01*
X120835370Y-84847150D01*
X120814041Y-84832601D01*
X120793147Y-84817360D01*
X120772688Y-84801426D01*
X120752664Y-84784799D01*
X120733074Y-84767480D01*
X120713920Y-84749468D01*
X120695202Y-84730764D01*
X120677112Y-84711457D01*
X120659756Y-84691729D01*
X120643132Y-84671580D01*
X120627241Y-84651011D01*
X120612083Y-84630021D01*
X120597657Y-84608610D01*
X120583964Y-84586778D01*
X120571004Y-84564526D01*
X120558777Y-84541853D01*
X120547282Y-84518759D01*
X120536520Y-84495244D01*
X120526491Y-84471309D01*
X120517194Y-84446953D01*
X120508631Y-84422176D01*
X120500800Y-84396979D01*
X120493701Y-84371360D01*
X120488529Y-84352604D01*
X120483865Y-84333841D01*
X120479710Y-84315071D01*
X120476064Y-84296296D01*
X120472927Y-84277513D01*
X120470298Y-84258725D01*
X120468178Y-84239930D01*
X120466567Y-84221128D01*
X120465465Y-84202320D01*
X120464871Y-84183506D01*
X120464758Y-84170959D01*
X120464939Y-84152118D01*
X120465480Y-84133238D01*
X120466381Y-84114319D01*
X120467644Y-84095362D01*
X120469266Y-84076366D01*
X120471250Y-84057332D01*
X120473594Y-84038259D01*
X120476299Y-84019147D01*
X120479364Y-83999996D01*
X120482790Y-83980807D01*
X120485275Y-83967993D01*
X120489354Y-83948817D01*
X120493896Y-83929757D01*
X120498902Y-83910812D01*
X120504372Y-83891984D01*
X120510305Y-83873272D01*
X120516702Y-83854675D01*
X120523563Y-83836194D01*
X120530887Y-83817830D01*
X120538675Y-83799581D01*
X120546927Y-83781448D01*
X120552686Y-83769424D01*
X120561662Y-83751597D01*
X120571006Y-83734111D01*
X120580716Y-83716967D01*
X120590793Y-83700164D01*
X120601238Y-83683702D01*
X120612050Y-83667582D01*
X120623229Y-83651803D01*
X120634774Y-83636365D01*
X120646687Y-83621268D01*
X120658967Y-83606513D01*
X120667358Y-83596866D01*
X120680356Y-83582547D01*
X120693934Y-83568440D01*
X120708091Y-83554546D01*
X120722828Y-83540864D01*
X120738144Y-83527395D01*
X120754040Y-83514138D01*
X120770516Y-83501094D01*
X120787571Y-83488262D01*
X120805206Y-83475643D01*
X120823420Y-83463236D01*
X120835885Y-83455083D01*
X120848565Y-83447098D01*
X120861416Y-83439352D01*
X120874440Y-83431848D01*
X120887634Y-83424583D01*
X120901001Y-83417560D01*
X120914539Y-83410776D01*
X120928249Y-83404233D01*
X120942131Y-83397930D01*
X120956185Y-83391868D01*
X120970410Y-83386046D01*
X120984807Y-83380465D01*
X120999376Y-83375124D01*
X121014116Y-83370024D01*
X121029028Y-83365164D01*
X121044112Y-83360544D01*
X121059368Y-83356165D01*
X121078504Y-83351254D01*
X121097583Y-83346827D01*
X121116603Y-83342882D01*
X121135566Y-83339421D01*
X121154470Y-83336442D01*
X121173317Y-83333947D01*
X121192106Y-83331934D01*
X121210836Y-83330405D01*
X121229509Y-83329358D01*
X121248124Y-83328795D01*
X121260502Y-83328688D01*
X121278872Y-83328855D01*
X121296888Y-83329357D01*
X121314549Y-83330195D01*
X121331857Y-83331367D01*
X121348810Y-83332874D01*
X121365409Y-83334715D01*
X121381654Y-83336892D01*
X121397545Y-83339404D01*
X121413081Y-83342250D01*
X121428264Y-83345432D01*
X121438188Y-83347739D01*
X121452941Y-83351380D01*
X121467662Y-83355299D01*
X121482351Y-83359495D01*
X121497007Y-83363967D01*
X121511631Y-83368717D01*
X121526223Y-83373743D01*
X121540783Y-83379047D01*
X121555310Y-83384627D01*
X121569806Y-83390484D01*
X121584269Y-83396618D01*
X121593893Y-83400861D01*
X121608180Y-83407393D01*
X121622190Y-83414072D01*
X121635924Y-83420899D01*
X121649380Y-83427875D01*
X121662560Y-83434999D01*
X121675462Y-83442271D01*
X121692235Y-83452197D01*
X121708515Y-83462386D01*
X121724303Y-83472839D01*
X121732012Y-83478164D01*
X121747199Y-83488892D01*
X121761986Y-83499825D01*
X121776371Y-83510965D01*
X121790356Y-83522311D01*
X121803940Y-83533863D01*
X121817123Y-83545621D01*
X121829906Y-83557585D01*
X121842288Y-83569755D01*
X121854309Y-83581931D01*
X121865827Y-83593912D01*
X121876841Y-83605699D01*
X121887351Y-83617291D01*
X121897357Y-83628688D01*
X121906860Y-83639891D01*
X121918030Y-83653621D01*
X121924354Y-83661713D01*
X121934665Y-83675119D01*
X121944761Y-83688775D01*
X121954643Y-83702682D01*
X121964310Y-83716839D01*
X121973763Y-83731247D01*
X121983001Y-83745905D01*
X121986636Y-83751838D01*
G37*
G36*
X122872752Y-83329441D02*
G01*
X122888529Y-83331376D01*
X122904287Y-83334046D01*
X122919244Y-83337060D01*
X122924528Y-83338213D01*
X122940899Y-83341978D01*
X122957862Y-83346130D01*
X122972450Y-83349885D01*
X122987450Y-83353908D01*
X123002861Y-83358200D01*
X123018684Y-83362759D01*
X123034719Y-83368035D01*
X123050540Y-83374473D01*
X123066147Y-83382074D01*
X123081538Y-83390838D01*
X123096715Y-83400764D01*
X123108702Y-83409543D01*
X123117602Y-83416615D01*
X123129354Y-83426472D01*
X123140981Y-83436628D01*
X123152481Y-83447080D01*
X123163856Y-83457831D01*
X123175104Y-83468879D01*
X123186227Y-83480225D01*
X123197223Y-83491869D01*
X123208094Y-83503810D01*
X123218621Y-83516392D01*
X123228588Y-83529959D01*
X123237993Y-83544510D01*
X123246837Y-83560047D01*
X123255120Y-83576567D01*
X123262843Y-83594073D01*
X123268266Y-83607848D01*
X123273374Y-83622177D01*
X123276604Y-83632037D01*
X123281122Y-83647137D01*
X123285195Y-83662623D01*
X123288824Y-83678495D01*
X123292009Y-83694754D01*
X123294749Y-83711399D01*
X123297045Y-83728431D01*
X123298896Y-83745849D01*
X123300303Y-83763654D01*
X123301266Y-83781844D01*
X123301785Y-83800422D01*
X123301883Y-83813021D01*
X123301661Y-83831813D01*
X123300995Y-83850270D01*
X123299884Y-83868392D01*
X123298328Y-83886179D01*
X123296329Y-83903632D01*
X123293885Y-83920749D01*
X123290997Y-83937532D01*
X123287664Y-83953980D01*
X123283887Y-83970093D01*
X123279665Y-83985871D01*
X123276604Y-83996203D01*
X123271737Y-84011251D01*
X123266476Y-84025759D01*
X123260823Y-84039725D01*
X123254777Y-84053150D01*
X123246104Y-84070209D01*
X123236733Y-84086306D01*
X123226664Y-84101441D01*
X123215897Y-84115615D01*
X123204430Y-84128827D01*
X123192672Y-84141163D01*
X123180846Y-84152893D01*
X123168950Y-84164015D01*
X123156986Y-84174531D01*
X123144954Y-84184440D01*
X123132852Y-84193742D01*
X123120682Y-84202438D01*
X123108443Y-84210526D01*
X123093370Y-84219775D01*
X123078833Y-84228057D01*
X123064834Y-84235374D01*
X123051370Y-84241725D01*
X123035923Y-84248070D01*
X123021248Y-84253025D01*
X123427180Y-84970000D01*
X123130059Y-84970000D01*
X122734751Y-84290027D01*
X122457780Y-84290027D01*
X122457780Y-84970000D01*
X122199860Y-84970000D01*
X122199860Y-83610055D01*
X122457780Y-83610055D01*
X122457780Y-84032107D01*
X122839165Y-84032107D01*
X122857850Y-84032107D01*
X122873088Y-84030462D01*
X122887617Y-84026669D01*
X122902088Y-84021448D01*
X122909874Y-84018185D01*
X122923555Y-84011901D01*
X122936711Y-84005232D01*
X122951102Y-83997138D01*
X122964807Y-83988540D01*
X122968126Y-83986311D01*
X122979721Y-83977318D01*
X122991106Y-83966045D01*
X123000698Y-83954569D01*
X123010134Y-83941419D01*
X123019417Y-83926594D01*
X123026488Y-83913077D01*
X123032361Y-83898630D01*
X123037035Y-83883253D01*
X123040511Y-83866945D01*
X123042788Y-83849708D01*
X123043867Y-83831540D01*
X123043963Y-83824012D01*
X123043574Y-83809060D01*
X123041992Y-83791078D01*
X123039194Y-83773883D01*
X123035180Y-83757475D01*
X123029949Y-83741855D01*
X123023502Y-83727021D01*
X123019050Y-83718499D01*
X123011388Y-83705184D01*
X123002218Y-83690931D01*
X122993073Y-83678557D01*
X122982437Y-83666498D01*
X122970324Y-83655851D01*
X122957364Y-83647127D01*
X122944596Y-83639907D01*
X122930496Y-83633072D01*
X122915064Y-83626623D01*
X122908042Y-83623977D01*
X122892760Y-83618553D01*
X122878300Y-83613984D01*
X122863652Y-83610545D01*
X122858216Y-83610055D01*
X122839165Y-83610055D01*
X122457780Y-83610055D01*
X122199860Y-83610055D01*
X122199860Y-83328688D01*
X122839165Y-83328688D01*
X122857850Y-83328688D01*
X122872752Y-83329441D01*
G37*
G36*
X124724842Y-83328688D02*
G01*
X124724842Y-83586608D01*
X123751779Y-83586608D01*
X123751779Y-84008660D01*
X124244172Y-84008660D01*
X124244172Y-84290027D01*
X123751779Y-84290027D01*
X123751779Y-84712079D01*
X124724842Y-84712079D01*
X124724842Y-84970000D01*
X123493858Y-84970000D01*
X123493858Y-83328688D01*
X124724842Y-83328688D01*
G37*
G36*
X126055477Y-83328688D02*
G01*
X126055477Y-83586608D01*
X125082414Y-83586608D01*
X125082414Y-84008660D01*
X125574807Y-84008660D01*
X125574807Y-84290027D01*
X125082414Y-84290027D01*
X125082414Y-84712079D01*
X126055477Y-84712079D01*
X126055477Y-84970000D01*
X124824493Y-84970000D01*
X124824493Y-83328688D01*
X126055477Y-83328688D01*
G37*
G36*
X126413049Y-84970000D02*
G01*
X126155128Y-84970000D01*
X126155128Y-83328688D01*
X126482658Y-83328688D01*
X127116468Y-84537690D01*
X127116468Y-83328688D01*
X127374389Y-83328688D01*
X127374389Y-84970000D01*
X127046859Y-84970000D01*
X126413049Y-83770889D01*
X126413049Y-84970000D01*
G37*
G36*
X121115796Y-77304045D02*
G01*
X121132354Y-77305119D01*
X121149342Y-77306908D01*
X121166758Y-77309412D01*
X121184604Y-77312632D01*
X121199190Y-77315723D01*
X121210310Y-77318342D01*
X121225388Y-77322321D01*
X121240581Y-77326929D01*
X121255888Y-77332167D01*
X121271309Y-77338034D01*
X121286846Y-77344531D01*
X121302496Y-77351658D01*
X121318261Y-77359415D01*
X121334141Y-77367801D01*
X121349889Y-77376668D01*
X121365259Y-77386051D01*
X121380251Y-77395948D01*
X121394866Y-77406361D01*
X121409102Y-77417289D01*
X121422961Y-77428732D01*
X121436442Y-77440691D01*
X121449546Y-77453164D01*
X121462162Y-77466267D01*
X121474184Y-77480298D01*
X121485610Y-77495256D01*
X121496440Y-77511141D01*
X121504173Y-77523664D01*
X121511570Y-77536708D01*
X121518632Y-77550274D01*
X121525360Y-77564361D01*
X121531753Y-77578971D01*
X121533809Y-77583956D01*
X121539702Y-77599186D01*
X121545015Y-77614924D01*
X121549748Y-77631171D01*
X121553902Y-77647927D01*
X121557476Y-77665191D01*
X121560471Y-77682965D01*
X121562886Y-77701247D01*
X121564721Y-77720038D01*
X121565977Y-77739337D01*
X121566653Y-77759146D01*
X121566782Y-77772634D01*
X121566433Y-77795887D01*
X121565385Y-77818475D01*
X121563639Y-77840400D01*
X121561195Y-77861660D01*
X121558052Y-77882257D01*
X121554211Y-77902189D01*
X121549672Y-77921458D01*
X121544434Y-77940062D01*
X121538498Y-77958003D01*
X121531863Y-77975279D01*
X121524530Y-77991891D01*
X121516499Y-78007840D01*
X121507769Y-78023124D01*
X121498341Y-78037744D01*
X121488214Y-78051700D01*
X121477389Y-78064993D01*
X121494581Y-78075693D01*
X121511122Y-78087185D01*
X121527013Y-78099469D01*
X121542253Y-78112545D01*
X121556843Y-78126414D01*
X121570782Y-78141075D01*
X121584071Y-78156527D01*
X121596710Y-78172772D01*
X121608698Y-78189809D01*
X121620035Y-78207638D01*
X121627232Y-78219965D01*
X121637381Y-78239095D01*
X121646531Y-78258978D01*
X121652076Y-78272652D01*
X121657178Y-78286662D01*
X121661837Y-78301006D01*
X121666051Y-78315684D01*
X121669822Y-78330698D01*
X121673149Y-78346047D01*
X121676033Y-78361730D01*
X121678473Y-78377749D01*
X121680470Y-78394102D01*
X121682022Y-78410790D01*
X121683131Y-78427813D01*
X121683797Y-78445171D01*
X121684019Y-78462864D01*
X121683751Y-78480782D01*
X121682950Y-78498404D01*
X121681613Y-78515730D01*
X121679743Y-78532760D01*
X121677337Y-78549493D01*
X121674397Y-78565930D01*
X121670923Y-78582071D01*
X121666914Y-78597915D01*
X121662371Y-78613463D01*
X121657293Y-78628716D01*
X121653610Y-78638719D01*
X121647826Y-78653331D01*
X121641739Y-78667493D01*
X121635350Y-78681204D01*
X121628658Y-78694464D01*
X121619264Y-78711442D01*
X121609332Y-78727620D01*
X121598862Y-78742995D01*
X121587854Y-78757570D01*
X121576308Y-78771343D01*
X121564435Y-78784452D01*
X121552265Y-78797034D01*
X121539797Y-78809090D01*
X121527032Y-78820619D01*
X121513968Y-78831621D01*
X121500608Y-78842097D01*
X121486949Y-78852046D01*
X121472993Y-78861468D01*
X121458716Y-78870278D01*
X121444096Y-78878573D01*
X121429132Y-78886353D01*
X121413825Y-78893617D01*
X121398174Y-78900366D01*
X121382180Y-78906600D01*
X121365843Y-78912319D01*
X121349162Y-78917522D01*
X121332486Y-78922170D01*
X121316166Y-78926407D01*
X121300201Y-78930230D01*
X121284590Y-78933642D01*
X121269334Y-78936642D01*
X121254434Y-78939229D01*
X121239888Y-78941405D01*
X121225697Y-78943168D01*
X121208297Y-78944758D01*
X121191129Y-78945865D01*
X121174193Y-78946490D01*
X121157490Y-78946631D01*
X121141020Y-78946289D01*
X121124782Y-78945465D01*
X121118352Y-78945000D01*
X120464758Y-78945000D01*
X120464758Y-78265027D01*
X120722679Y-78265027D01*
X120722679Y-78687079D01*
X121108827Y-78687079D01*
X121128346Y-78686866D01*
X121147246Y-78686226D01*
X121165527Y-78685160D01*
X121183187Y-78683667D01*
X121200228Y-78681748D01*
X121216650Y-78679403D01*
X121232451Y-78676631D01*
X121247633Y-78673432D01*
X121262195Y-78669807D01*
X121289461Y-78661278D01*
X121314248Y-78651042D01*
X121336556Y-78639101D01*
X121356385Y-78625454D01*
X121373736Y-78610101D01*
X121388608Y-78593042D01*
X121401002Y-78574277D01*
X121410916Y-78553807D01*
X121418352Y-78531630D01*
X121423310Y-78507748D01*
X121425788Y-78482160D01*
X121426098Y-78468726D01*
X121425544Y-78452175D01*
X121423880Y-78436411D01*
X121421107Y-78421435D01*
X121417225Y-78407245D01*
X121411103Y-78391257D01*
X121403384Y-78376402D01*
X121394642Y-78362642D01*
X121385180Y-78349938D01*
X121374996Y-78338290D01*
X121364091Y-78327699D01*
X121352465Y-78318163D01*
X121348429Y-78315219D01*
X121335708Y-78306899D01*
X121321725Y-78299248D01*
X121306479Y-78292267D01*
X121292810Y-78286961D01*
X121278265Y-78282121D01*
X121265997Y-78278583D01*
X121250688Y-78274678D01*
X121236130Y-78271434D01*
X121219652Y-78268416D01*
X121204256Y-78266351D01*
X121187662Y-78265147D01*
X121181001Y-78265027D01*
X121165651Y-78265027D01*
X121150056Y-78265027D01*
X121134215Y-78265027D01*
X121118129Y-78265027D01*
X121108827Y-78265027D01*
X120722679Y-78265027D01*
X120464758Y-78265027D01*
X120464758Y-77561608D01*
X120722679Y-77561608D01*
X120722679Y-77983660D01*
X121108460Y-77983660D01*
X121123440Y-77982414D01*
X121139115Y-77978675D01*
X121153632Y-77973260D01*
X121164881Y-77967906D01*
X121178397Y-77960628D01*
X121192019Y-77952579D01*
X121205746Y-77943758D01*
X121219578Y-77934166D01*
X121227529Y-77928339D01*
X121239224Y-77918563D01*
X121250404Y-77907370D01*
X121261068Y-77894761D01*
X121271218Y-77880734D01*
X121279282Y-77867963D01*
X121283949Y-77859829D01*
X121291126Y-77845680D01*
X121297087Y-77830942D01*
X121301831Y-77815613D01*
X121305358Y-77799693D01*
X121307670Y-77783184D01*
X121308764Y-77766084D01*
X121308862Y-77759078D01*
X121308262Y-77741823D01*
X121306465Y-77725318D01*
X121303468Y-77709566D01*
X121299273Y-77694564D01*
X121293880Y-77680314D01*
X121287288Y-77666815D01*
X121284315Y-77661625D01*
X121276475Y-77649153D01*
X121266617Y-77635415D01*
X121256270Y-77623016D01*
X121245434Y-77611956D01*
X121234108Y-77602236D01*
X121228262Y-77597878D01*
X121214655Y-77588712D01*
X121201083Y-77581088D01*
X121187547Y-77575008D01*
X121172119Y-77569947D01*
X121166346Y-77568569D01*
X121151325Y-77565524D01*
X121136671Y-77563348D01*
X121120622Y-77561941D01*
X121108460Y-77561608D01*
X120722679Y-77561608D01*
X120464758Y-77561608D01*
X120464758Y-77303688D01*
X121099668Y-77303688D01*
X121115796Y-77304045D01*
G37*
G36*
X123028942Y-77303688D02*
G01*
X122246022Y-78687079D01*
X123020516Y-78687079D01*
X123020516Y-78945000D01*
X121792829Y-78945000D01*
X122569521Y-77585055D01*
X121801255Y-77585055D01*
X121801255Y-77303688D01*
X123028942Y-77303688D01*
G37*
G36*
X123810645Y-77304441D02*
G01*
X123826421Y-77306376D01*
X123842179Y-77309046D01*
X123857137Y-77312060D01*
X123862421Y-77313213D01*
X123878791Y-77316978D01*
X123895754Y-77321130D01*
X123910342Y-77324885D01*
X123925342Y-77328908D01*
X123940754Y-77333200D01*
X123956576Y-77337759D01*
X123972612Y-77343035D01*
X123988433Y-77349473D01*
X124004039Y-77357074D01*
X124019431Y-77365838D01*
X124034608Y-77375764D01*
X124046595Y-77384543D01*
X124055495Y-77391615D01*
X124067247Y-77401472D01*
X124078873Y-77411628D01*
X124090374Y-77422080D01*
X124101748Y-77432831D01*
X124112997Y-77443879D01*
X124124119Y-77455225D01*
X124135116Y-77466869D01*
X124145987Y-77478810D01*
X124156514Y-77491392D01*
X124166480Y-77504959D01*
X124175885Y-77519510D01*
X124184730Y-77535047D01*
X124193013Y-77551567D01*
X124200735Y-77569073D01*
X124206159Y-77582848D01*
X124211267Y-77597177D01*
X124214497Y-77607037D01*
X124219014Y-77622137D01*
X124223088Y-77637623D01*
X124226717Y-77653495D01*
X124229901Y-77669754D01*
X124232641Y-77686399D01*
X124234937Y-77703431D01*
X124236789Y-77720849D01*
X124238196Y-77738654D01*
X124239159Y-77756844D01*
X124239677Y-77775422D01*
X124239776Y-77788021D01*
X124239554Y-77806813D01*
X124238887Y-77825270D01*
X124237776Y-77843392D01*
X124236221Y-77861179D01*
X124234221Y-77878632D01*
X124231777Y-77895749D01*
X124228889Y-77912532D01*
X124225556Y-77928980D01*
X124221779Y-77945093D01*
X124217558Y-77960871D01*
X124214497Y-77971203D01*
X124209629Y-77986251D01*
X124204369Y-78000759D01*
X124198716Y-78014725D01*
X124192669Y-78028150D01*
X124183997Y-78045209D01*
X124174626Y-78061306D01*
X124164557Y-78076441D01*
X124153789Y-78090615D01*
X124142323Y-78103827D01*
X124130565Y-78116163D01*
X124118738Y-78127893D01*
X124106843Y-78139015D01*
X124094879Y-78149531D01*
X124082846Y-78159440D01*
X124070745Y-78168742D01*
X124058574Y-78177438D01*
X124046336Y-78185526D01*
X124031262Y-78194775D01*
X124016726Y-78203057D01*
X124002726Y-78210374D01*
X123989263Y-78216725D01*
X123973815Y-78223070D01*
X123959141Y-78228025D01*
X124365072Y-78945000D01*
X124067951Y-78945000D01*
X123672644Y-78265027D01*
X123395673Y-78265027D01*
X123395673Y-78945000D01*
X123137752Y-78945000D01*
X123137752Y-77585055D01*
X123395673Y-77585055D01*
X123395673Y-78007107D01*
X123777058Y-78007107D01*
X123795742Y-78007107D01*
X123810981Y-78005462D01*
X123825509Y-78001669D01*
X123839981Y-77996448D01*
X123847766Y-77993185D01*
X123861448Y-77986901D01*
X123874604Y-77980232D01*
X123888995Y-77972138D01*
X123902699Y-77963540D01*
X123906018Y-77961311D01*
X123917614Y-77952318D01*
X123928999Y-77941045D01*
X123938590Y-77929569D01*
X123948027Y-77916419D01*
X123957309Y-77901594D01*
X123964381Y-77888077D01*
X123970253Y-77873630D01*
X123974928Y-77858253D01*
X123978404Y-77841945D01*
X123980681Y-77824708D01*
X123981760Y-77806540D01*
X123981855Y-77799012D01*
X123981466Y-77784060D01*
X123979885Y-77766078D01*
X123977087Y-77748883D01*
X123973073Y-77732475D01*
X123967842Y-77716855D01*
X123961395Y-77702021D01*
X123956943Y-77693499D01*
X123949281Y-77680184D01*
X123940110Y-77665931D01*
X123930966Y-77653557D01*
X123920329Y-77641498D01*
X123908216Y-77630851D01*
X123895256Y-77622127D01*
X123882488Y-77614907D01*
X123868388Y-77608072D01*
X123852956Y-77601623D01*
X123845934Y-77598977D01*
X123830652Y-77593553D01*
X123816192Y-77588984D01*
X123801544Y-77585545D01*
X123796109Y-77585055D01*
X123777058Y-77585055D01*
X123395673Y-77585055D01*
X123137752Y-77585055D01*
X123137752Y-77303688D01*
X123777058Y-77303688D01*
X123795742Y-77303688D01*
X123810645Y-77304441D01*
G37*
D11*
%TO.C,J2*%
X135562619Y-90533333D02*
X136276904Y-90533333D01*
X136276904Y-90533333D02*
X136419761Y-90580952D01*
X136419761Y-90580952D02*
X136515000Y-90676190D01*
X136515000Y-90676190D02*
X136562619Y-90819047D01*
X136562619Y-90819047D02*
X136562619Y-90914285D01*
X135657857Y-90104761D02*
X135610238Y-90057142D01*
X135610238Y-90057142D02*
X135562619Y-89961904D01*
X135562619Y-89961904D02*
X135562619Y-89723809D01*
X135562619Y-89723809D02*
X135610238Y-89628571D01*
X135610238Y-89628571D02*
X135657857Y-89580952D01*
X135657857Y-89580952D02*
X135753095Y-89533333D01*
X135753095Y-89533333D02*
X135848333Y-89533333D01*
X135848333Y-89533333D02*
X135991190Y-89580952D01*
X135991190Y-89580952D02*
X136562619Y-90152380D01*
X136562619Y-90152380D02*
X136562619Y-89533333D01*
%TO.C,H2*%
X149238095Y-96262619D02*
X149238095Y-95262619D01*
X149238095Y-95738809D02*
X149809523Y-95738809D01*
X149809523Y-96262619D02*
X149809523Y-95262619D01*
X150238095Y-95357857D02*
X150285714Y-95310238D01*
X150285714Y-95310238D02*
X150380952Y-95262619D01*
X150380952Y-95262619D02*
X150619047Y-95262619D01*
X150619047Y-95262619D02*
X150714285Y-95310238D01*
X150714285Y-95310238D02*
X150761904Y-95357857D01*
X150761904Y-95357857D02*
X150809523Y-95453095D01*
X150809523Y-95453095D02*
X150809523Y-95548333D01*
X150809523Y-95548333D02*
X150761904Y-95691190D01*
X150761904Y-95691190D02*
X150190476Y-96262619D01*
X150190476Y-96262619D02*
X150809523Y-96262619D01*
%TO.C,J1*%
X162803380Y-81715666D02*
X162089095Y-81715666D01*
X162089095Y-81715666D02*
X161946238Y-81668047D01*
X161946238Y-81668047D02*
X161851000Y-81572809D01*
X161851000Y-81572809D02*
X161803380Y-81429952D01*
X161803380Y-81429952D02*
X161803380Y-81334714D01*
X161803380Y-82715666D02*
X161803380Y-82144238D01*
X161803380Y-82429952D02*
X162803380Y-82429952D01*
X162803380Y-82429952D02*
X162660523Y-82334714D01*
X162660523Y-82334714D02*
X162565285Y-82239476D01*
X162565285Y-82239476D02*
X162517666Y-82144238D01*
D12*
%TO.C,J2*%
X131540000Y-103810000D02*
X116960000Y-103810000D01*
X131540000Y-85810000D02*
X116960000Y-85810000D01*
X131540000Y-100590000D02*
X116960000Y-100590000D01*
X131540000Y-97810000D02*
X116960000Y-97810000D01*
X131540000Y-94590000D02*
X116960000Y-94590000D01*
X131540000Y-88590000D02*
X116960000Y-88590000D01*
X131540000Y-76590000D02*
X116960000Y-76590000D01*
X131540000Y-91810000D02*
X116960000Y-91810000D01*
X131540000Y-79810000D02*
X116960000Y-79810000D01*
X131540000Y-82590000D02*
X116960000Y-82590000D01*
%TO.C,J1*%
X154392000Y-80264000D02*
X153122000Y-80264000D01*
X154392000Y-80264000D02*
X154392000Y-81534000D01*
X153122000Y-80264000D02*
X154392000Y-80264000D01*
X154392000Y-81534000D02*
X153122000Y-80264000D01*
D13*
X154900000Y-79756000D02*
X137000000Y-79756000D01*
X137000000Y-79756000D02*
X137000000Y-94956000D01*
X137000000Y-94956000D02*
X154900000Y-94956000D01*
X154900000Y-94956000D02*
X154900000Y-79756000D01*
%TD*%
M02*
