%TF.GenerationSoftware,KiCad,Pcbnew,7.0.2*%
%TF.CreationDate,2023-05-10T12:33:54-04:00*%
%TF.ProjectId,TeamButton,5465616d-4275-4747-946f-6e2e6b696361,rev?*%
%TF.SameCoordinates,Original*%
%TF.FileFunction,Copper,L2,Bot*%
%TF.FilePolarity,Positive*%
%FSLAX46Y46*%
G04 Gerber Fmt 4.6, Leading zero omitted, Abs format (unit mm)*
G04 Created by KiCad (PCBNEW 7.0.2) date 2023-05-10 12:33:54*
%MOMM*%
%LPD*%
G01*
G04 APERTURE LIST*
G04 Aperture macros list*
%AMRoundRect*
0 Rectangle with rounded corners*
0 $1 Rounding radius*
0 $2 $3 $4 $5 $6 $7 $8 $9 X,Y pos of 4 corners*
0 Add a 4 corners polygon primitive as box body*
4,1,4,$2,$3,$4,$5,$6,$7,$8,$9,$2,$3,0*
0 Add four circle primitives for the rounded corners*
1,1,$1+$1,$2,$3*
1,1,$1+$1,$4,$5*
1,1,$1+$1,$6,$7*
1,1,$1+$1,$8,$9*
0 Add four rect primitives between the rounded corners*
20,1,$1+$1,$2,$3,$4,$5,0*
20,1,$1+$1,$4,$5,$6,$7,0*
20,1,$1+$1,$6,$7,$8,$9,0*
20,1,$1+$1,$8,$9,$2,$3,0*%
G04 Aperture macros list end*
%ADD10C,0.300000*%
%TA.AperFunction,NonConductor*%
%ADD11C,0.300000*%
%TD*%
%TA.AperFunction,ComponentPad*%
%ADD12C,1.524000*%
%TD*%
%TA.AperFunction,ComponentPad*%
%ADD13R,1.350000X1.350000*%
%TD*%
%TA.AperFunction,ComponentPad*%
%ADD14O,1.350000X1.350000*%
%TD*%
%TA.AperFunction,ComponentPad*%
%ADD15RoundRect,0.500000X1.500000X0.500000X-1.500000X0.500000X-1.500000X-0.500000X1.500000X-0.500000X0*%
%TD*%
%TA.AperFunction,Conductor*%
%ADD16C,0.762000*%
%TD*%
G04 APERTURE END LIST*
D10*
D11*
G36*
X98665316Y-95034000D02*
G01*
X98179517Y-95034000D01*
X98179517Y-94778705D01*
X98141775Y-94808600D01*
X98101458Y-94837651D01*
X98060030Y-94864699D01*
X98017492Y-94889744D01*
X97973843Y-94912784D01*
X97929084Y-94933822D01*
X97883214Y-94952856D01*
X97836233Y-94969886D01*
X97788142Y-94984912D01*
X97738941Y-94997936D01*
X97688629Y-95008955D01*
X97637206Y-95017971D01*
X97584673Y-95024984D01*
X97531029Y-95029992D01*
X97476275Y-95032998D01*
X97420410Y-95034000D01*
X97388231Y-95033644D01*
X97356356Y-95032577D01*
X97324787Y-95030799D01*
X97293522Y-95028309D01*
X97262562Y-95025109D01*
X97231907Y-95021197D01*
X97201557Y-95016574D01*
X97171511Y-95011239D01*
X97141770Y-95005193D01*
X97112335Y-94998436D01*
X97083204Y-94990968D01*
X97054378Y-94982789D01*
X97025856Y-94973898D01*
X96997640Y-94964296D01*
X96969728Y-94953983D01*
X96942121Y-94942958D01*
X96914819Y-94931222D01*
X96887822Y-94918775D01*
X96861130Y-94905617D01*
X96834742Y-94891747D01*
X96808659Y-94877166D01*
X96782882Y-94861874D01*
X96757409Y-94845871D01*
X96732240Y-94829156D01*
X96707377Y-94811730D01*
X96682818Y-94793593D01*
X96658565Y-94774745D01*
X96634616Y-94755185D01*
X96610972Y-94734914D01*
X96587632Y-94713932D01*
X96564598Y-94692238D01*
X96541868Y-94669833D01*
X96519599Y-94646873D01*
X96498036Y-94623603D01*
X96477181Y-94600024D01*
X96457032Y-94576136D01*
X96437590Y-94551939D01*
X96418856Y-94527432D01*
X96400828Y-94502617D01*
X96383507Y-94477492D01*
X96366894Y-94452058D01*
X96350987Y-94426316D01*
X96335787Y-94400264D01*
X96321294Y-94373903D01*
X96307508Y-94347233D01*
X96294429Y-94320253D01*
X96282057Y-94292965D01*
X96270392Y-94265367D01*
X96259434Y-94237461D01*
X96249183Y-94209245D01*
X96239639Y-94180720D01*
X96230802Y-94151886D01*
X96222672Y-94122743D01*
X96215249Y-94093291D01*
X96208533Y-94063529D01*
X96202523Y-94033459D01*
X96197221Y-94003079D01*
X96192626Y-93972390D01*
X96188738Y-93941392D01*
X96185556Y-93910086D01*
X96183082Y-93878469D01*
X96181314Y-93846544D01*
X96180254Y-93814310D01*
X96180059Y-93796421D01*
X96665699Y-93796421D01*
X96666552Y-93835339D01*
X96669111Y-93873506D01*
X96673376Y-93910924D01*
X96679346Y-93947592D01*
X96687023Y-93983510D01*
X96696405Y-94018678D01*
X96707494Y-94053096D01*
X96720288Y-94086765D01*
X96734788Y-94119683D01*
X96750994Y-94151852D01*
X96768905Y-94183270D01*
X96788523Y-94213939D01*
X96809847Y-94243858D01*
X96832876Y-94273027D01*
X96857611Y-94301446D01*
X96884053Y-94329115D01*
X96911644Y-94355467D01*
X96940015Y-94380119D01*
X96969164Y-94403072D01*
X96999091Y-94424324D01*
X97029797Y-94443875D01*
X97061281Y-94461727D01*
X97093544Y-94477879D01*
X97126586Y-94492330D01*
X97160406Y-94505081D01*
X97195004Y-94516132D01*
X97230381Y-94525483D01*
X97266537Y-94533134D01*
X97303471Y-94539084D01*
X97341184Y-94543335D01*
X97379675Y-94545885D01*
X97418944Y-94546735D01*
X97458142Y-94545885D01*
X97496602Y-94543335D01*
X97534323Y-94539084D01*
X97571306Y-94533134D01*
X97607550Y-94525483D01*
X97643056Y-94516132D01*
X97677824Y-94505081D01*
X97711853Y-94492330D01*
X97745143Y-94477879D01*
X97777695Y-94461727D01*
X97809509Y-94443875D01*
X97840584Y-94424324D01*
X97870921Y-94403072D01*
X97900519Y-94380119D01*
X97929379Y-94355467D01*
X97957500Y-94329115D01*
X97984385Y-94301446D01*
X98009535Y-94273027D01*
X98032951Y-94243858D01*
X98054632Y-94213939D01*
X98074579Y-94183270D01*
X98092791Y-94151852D01*
X98109269Y-94119683D01*
X98124012Y-94086765D01*
X98137021Y-94053096D01*
X98148295Y-94018678D01*
X98157835Y-93983510D01*
X98165641Y-93947592D01*
X98171711Y-93910924D01*
X98176048Y-93873506D01*
X98178649Y-93835339D01*
X98179517Y-93796421D01*
X98178649Y-93757449D01*
X98176048Y-93719118D01*
X98171711Y-93681428D01*
X98165641Y-93644380D01*
X98157835Y-93607972D01*
X98148295Y-93572206D01*
X98137021Y-93537081D01*
X98124012Y-93502597D01*
X98109269Y-93468754D01*
X98092791Y-93435552D01*
X98074579Y-93402992D01*
X98054632Y-93371072D01*
X98032951Y-93339794D01*
X98009535Y-93309157D01*
X97984385Y-93279160D01*
X97957500Y-93249806D01*
X97929293Y-93221678D01*
X97900358Y-93195366D01*
X97870697Y-93170868D01*
X97840309Y-93148185D01*
X97809194Y-93127317D01*
X97777352Y-93108263D01*
X97744782Y-93091024D01*
X97711486Y-93075599D01*
X97677463Y-93061989D01*
X97642713Y-93050194D01*
X97607236Y-93040214D01*
X97571031Y-93032048D01*
X97534100Y-93025696D01*
X97496442Y-93021160D01*
X97458057Y-93018438D01*
X97418944Y-93017531D01*
X97379761Y-93018438D01*
X97341344Y-93021160D01*
X97303694Y-93025696D01*
X97266812Y-93032048D01*
X97230696Y-93040214D01*
X97195348Y-93050194D01*
X97160766Y-93061989D01*
X97126952Y-93075599D01*
X97093905Y-93091024D01*
X97061625Y-93108263D01*
X97030112Y-93127317D01*
X96999366Y-93148185D01*
X96969387Y-93170868D01*
X96940175Y-93195366D01*
X96911730Y-93221678D01*
X96884053Y-93249806D01*
X96857611Y-93279160D01*
X96832876Y-93309157D01*
X96809847Y-93339794D01*
X96788523Y-93371072D01*
X96768905Y-93402992D01*
X96750994Y-93435552D01*
X96734788Y-93468754D01*
X96720288Y-93502597D01*
X96707494Y-93537081D01*
X96696405Y-93572206D01*
X96687023Y-93607972D01*
X96679346Y-93644380D01*
X96673376Y-93681428D01*
X96669111Y-93719118D01*
X96666552Y-93757449D01*
X96665699Y-93796421D01*
X96180059Y-93796421D01*
X96179900Y-93781766D01*
X96179945Y-93772242D01*
X96181027Y-93734175D01*
X96183552Y-93696153D01*
X96187519Y-93658177D01*
X96192929Y-93620247D01*
X96199781Y-93582363D01*
X96208075Y-93544524D01*
X96217813Y-93506731D01*
X96226062Y-93478417D01*
X96238985Y-93426894D01*
X96253757Y-93376556D01*
X96270378Y-93327403D01*
X96288848Y-93279435D01*
X96309167Y-93232652D01*
X96331335Y-93187054D01*
X96355352Y-93142641D01*
X96381218Y-93099413D01*
X96408932Y-93057370D01*
X96438496Y-93016512D01*
X96469909Y-92976838D01*
X96503171Y-92938350D01*
X96538282Y-92901047D01*
X96575242Y-92864928D01*
X96614051Y-92829995D01*
X96654709Y-92796247D01*
X96696597Y-92764038D01*
X96739281Y-92733907D01*
X96782761Y-92705855D01*
X96827037Y-92679880D01*
X96872108Y-92655983D01*
X96917976Y-92634165D01*
X96964638Y-92614424D01*
X97012097Y-92596761D01*
X97060351Y-92581176D01*
X97109401Y-92567670D01*
X97159246Y-92556241D01*
X97209888Y-92546890D01*
X97261325Y-92539617D01*
X97313557Y-92534422D01*
X97366586Y-92531305D01*
X97420410Y-92530266D01*
X97477256Y-92531271D01*
X97532941Y-92534285D01*
X97587463Y-92539308D01*
X97640824Y-92546340D01*
X97693022Y-92555382D01*
X97744058Y-92566433D01*
X97793933Y-92579493D01*
X97842645Y-92594563D01*
X97890195Y-92611642D01*
X97936583Y-92630730D01*
X97981809Y-92651827D01*
X98025873Y-92674934D01*
X98068774Y-92700050D01*
X98110514Y-92727175D01*
X98151092Y-92756310D01*
X98179517Y-92778769D01*
X98179517Y-91751376D01*
X98665316Y-91751376D01*
X98665316Y-95034000D01*
G37*
G36*
X94752848Y-92548947D02*
G01*
X94786454Y-92550035D01*
X94819658Y-92551849D01*
X94852460Y-92554389D01*
X94884859Y-92557654D01*
X94916857Y-92561645D01*
X94948452Y-92566361D01*
X94979645Y-92571803D01*
X95010436Y-92577970D01*
X95040825Y-92584863D01*
X95070812Y-92592481D01*
X95100397Y-92600826D01*
X95129579Y-92609895D01*
X95158359Y-92619690D01*
X95186738Y-92630211D01*
X95214714Y-92641458D01*
X95242288Y-92653430D01*
X95269459Y-92666127D01*
X95296229Y-92679550D01*
X95322597Y-92693699D01*
X95348562Y-92708573D01*
X95374125Y-92724173D01*
X95399286Y-92740498D01*
X95424045Y-92757549D01*
X95448402Y-92775326D01*
X95472357Y-92793828D01*
X95495909Y-92813056D01*
X95519059Y-92833009D01*
X95541808Y-92853688D01*
X95564154Y-92875092D01*
X95586098Y-92897222D01*
X95607639Y-92920078D01*
X95628602Y-92943368D01*
X95648898Y-92966895D01*
X95668530Y-92990658D01*
X95687495Y-93014657D01*
X95705796Y-93038892D01*
X95723431Y-93063363D01*
X95740400Y-93088071D01*
X95756704Y-93113014D01*
X95772342Y-93138194D01*
X95787315Y-93163610D01*
X95815265Y-93215150D01*
X95840553Y-93267634D01*
X95863178Y-93321063D01*
X95883142Y-93375437D01*
X95900445Y-93430755D01*
X95915085Y-93487018D01*
X95927063Y-93544225D01*
X95932054Y-93573183D01*
X95936380Y-93602377D01*
X95940040Y-93631807D01*
X95943034Y-93661473D01*
X95945364Y-93691375D01*
X95947027Y-93721514D01*
X95948025Y-93751888D01*
X95948358Y-93782499D01*
X95948031Y-93813700D01*
X95947050Y-93844655D01*
X95945415Y-93875364D01*
X95943126Y-93905827D01*
X95940183Y-93936043D01*
X95936586Y-93966013D01*
X95932335Y-93995737D01*
X95927430Y-94025215D01*
X95921870Y-94054447D01*
X95915657Y-94083433D01*
X95908790Y-94112173D01*
X95901269Y-94140666D01*
X95893094Y-94168913D01*
X95884264Y-94196914D01*
X95874781Y-94224669D01*
X95864644Y-94252178D01*
X95853853Y-94279441D01*
X95842407Y-94306457D01*
X95830308Y-94333228D01*
X95817555Y-94359752D01*
X95804147Y-94386030D01*
X95790086Y-94412062D01*
X95775371Y-94437848D01*
X95760001Y-94463387D01*
X95743978Y-94488681D01*
X95727300Y-94513728D01*
X95709969Y-94538529D01*
X95691983Y-94563084D01*
X95673344Y-94587393D01*
X95654050Y-94611456D01*
X95634103Y-94635272D01*
X95613501Y-94658842D01*
X95592353Y-94681923D01*
X95570765Y-94704272D01*
X95548738Y-94725887D01*
X95526272Y-94746770D01*
X95503367Y-94766920D01*
X95480022Y-94786337D01*
X95456237Y-94805022D01*
X95432014Y-94822974D01*
X95407351Y-94840193D01*
X95382248Y-94856679D01*
X95356706Y-94872433D01*
X95330725Y-94887454D01*
X95304305Y-94901742D01*
X95277445Y-94915297D01*
X95250146Y-94928120D01*
X95222407Y-94940210D01*
X95194230Y-94951568D01*
X95165612Y-94962192D01*
X95136556Y-94972084D01*
X95107060Y-94981243D01*
X95077125Y-94989669D01*
X95046750Y-94997363D01*
X95015936Y-95004324D01*
X94984683Y-95010552D01*
X94952990Y-95016048D01*
X94920858Y-95020810D01*
X94888287Y-95024840D01*
X94855276Y-95028138D01*
X94821826Y-95030702D01*
X94787937Y-95032534D01*
X94753608Y-95033633D01*
X94718840Y-95034000D01*
X94683348Y-95033590D01*
X94648315Y-95032362D01*
X94613739Y-95030316D01*
X94579621Y-95027451D01*
X94545962Y-95023767D01*
X94512760Y-95019265D01*
X94480016Y-95013944D01*
X94447730Y-95007804D01*
X94415902Y-95000846D01*
X94384532Y-94993070D01*
X94353620Y-94984474D01*
X94323166Y-94975061D01*
X94293170Y-94964828D01*
X94263632Y-94953777D01*
X94234552Y-94941908D01*
X94205930Y-94929219D01*
X94177803Y-94915856D01*
X94150391Y-94902143D01*
X94123695Y-94888081D01*
X94097715Y-94873669D01*
X94060086Y-94851398D01*
X94024067Y-94828340D01*
X93989658Y-94804497D01*
X93956859Y-94779869D01*
X93925670Y-94754454D01*
X93896091Y-94728254D01*
X93868123Y-94701268D01*
X93841764Y-94673497D01*
X93824859Y-94654672D01*
X93800340Y-94626596D01*
X93776826Y-94598713D01*
X93754316Y-94571023D01*
X93732810Y-94543526D01*
X93712310Y-94516223D01*
X93692814Y-94489113D01*
X93674322Y-94462196D01*
X93656836Y-94435472D01*
X93640353Y-94408941D01*
X93624876Y-94382604D01*
X93610169Y-94356187D01*
X93596274Y-94329693D01*
X93583190Y-94303121D01*
X93570917Y-94276473D01*
X93555816Y-94240821D01*
X93542158Y-94205032D01*
X93529942Y-94169105D01*
X93519168Y-94133041D01*
X93509838Y-94096840D01*
X93973655Y-93973741D01*
X93986054Y-94007599D01*
X93999254Y-94040477D01*
X94013256Y-94072376D01*
X94028060Y-94103297D01*
X94043665Y-94133239D01*
X94060071Y-94162201D01*
X94077279Y-94190185D01*
X94095288Y-94217190D01*
X94114098Y-94243217D01*
X94133710Y-94268264D01*
X94154124Y-94292332D01*
X94175338Y-94315422D01*
X94197355Y-94337532D01*
X94220172Y-94358664D01*
X94243791Y-94378817D01*
X94268212Y-94397991D01*
X94293242Y-94416003D01*
X94318690Y-94432853D01*
X94344556Y-94448541D01*
X94370839Y-94463067D01*
X94397541Y-94476430D01*
X94424661Y-94488632D01*
X94452198Y-94499672D01*
X94480153Y-94509549D01*
X94508527Y-94518265D01*
X94537318Y-94525818D01*
X94566527Y-94532209D01*
X94596153Y-94537439D01*
X94626198Y-94541506D01*
X94656661Y-94544411D01*
X94687541Y-94546154D01*
X94718840Y-94546735D01*
X94767769Y-94545353D01*
X94815457Y-94541205D01*
X94861902Y-94534293D01*
X94907105Y-94524616D01*
X94951066Y-94512174D01*
X94993785Y-94496967D01*
X95035261Y-94478995D01*
X95075495Y-94458258D01*
X95114487Y-94434756D01*
X95152237Y-94408490D01*
X95188745Y-94379458D01*
X95224010Y-94347662D01*
X95258033Y-94313101D01*
X95290814Y-94275774D01*
X95322353Y-94235683D01*
X95352650Y-94192827D01*
X95352650Y-94184767D01*
X93497381Y-93693839D01*
X93468805Y-93693839D01*
X93469211Y-93682316D01*
X93472456Y-93652778D01*
X93477640Y-93621551D01*
X93483411Y-93592242D01*
X93490624Y-93559086D01*
X93499279Y-93522083D01*
X93506717Y-93491806D01*
X93514967Y-93459366D01*
X93516356Y-93451659D01*
X93523145Y-93420558D01*
X93531904Y-93389022D01*
X93540282Y-93364053D01*
X94083801Y-93364053D01*
X95456697Y-93739268D01*
X95459628Y-93752457D01*
X95462559Y-93724614D01*
X95462384Y-93717887D01*
X95458896Y-93688710D01*
X95457751Y-93682248D01*
X95451568Y-93653539D01*
X95435448Y-93613239D01*
X95423916Y-93580850D01*
X95411486Y-93549262D01*
X95398156Y-93518476D01*
X95383928Y-93488492D01*
X95368801Y-93459309D01*
X95352776Y-93430927D01*
X95335852Y-93403346D01*
X95318028Y-93376568D01*
X95299307Y-93350590D01*
X95279686Y-93325414D01*
X95259167Y-93301039D01*
X95237749Y-93277466D01*
X95215432Y-93254694D01*
X95192217Y-93232724D01*
X95168102Y-93211555D01*
X95143090Y-93191187D01*
X95130371Y-93181630D01*
X95104731Y-93163427D01*
X95078822Y-93146436D01*
X95052644Y-93130660D01*
X95026197Y-93116097D01*
X94999481Y-93102747D01*
X94972496Y-93090612D01*
X94931514Y-93074683D01*
X94889927Y-93061486D01*
X94847734Y-93051019D01*
X94804936Y-93043282D01*
X94761533Y-93038276D01*
X94732261Y-93036456D01*
X94702720Y-93035849D01*
X94669686Y-93036511D01*
X94637905Y-93038496D01*
X94607376Y-93041806D01*
X94578099Y-93046439D01*
X94544619Y-93053746D01*
X94512943Y-93062960D01*
X94478974Y-93074535D01*
X94445944Y-93087094D01*
X94413853Y-93100638D01*
X94382700Y-93115167D01*
X94352487Y-93130680D01*
X94323212Y-93147178D01*
X94294876Y-93164660D01*
X94267479Y-93183127D01*
X94241021Y-93202579D01*
X94215501Y-93223015D01*
X94190920Y-93244436D01*
X94167278Y-93266841D01*
X94144575Y-93290232D01*
X94122811Y-93314606D01*
X94101985Y-93339965D01*
X94083801Y-93364053D01*
X93540282Y-93364053D01*
X93542631Y-93357051D01*
X93555328Y-93324645D01*
X93569994Y-93291804D01*
X93586630Y-93258527D01*
X93605234Y-93224816D01*
X93620480Y-93199247D01*
X93631219Y-93181959D01*
X93648100Y-93155770D01*
X93665909Y-93129272D01*
X93684645Y-93102464D01*
X93704308Y-93075347D01*
X93724899Y-93047922D01*
X93746417Y-93020187D01*
X93768863Y-92992143D01*
X93792236Y-92963789D01*
X93816536Y-92935127D01*
X93841764Y-92906156D01*
X93859197Y-92886950D01*
X93886840Y-92858936D01*
X93916273Y-92831875D01*
X93947496Y-92805768D01*
X93980510Y-92780613D01*
X94015314Y-92756412D01*
X94051908Y-92733163D01*
X94077299Y-92718194D01*
X94103485Y-92703648D01*
X94130467Y-92689526D01*
X94158245Y-92675827D01*
X94186819Y-92662552D01*
X94216188Y-92649701D01*
X94245972Y-92637456D01*
X94275974Y-92626002D01*
X94306193Y-92615337D01*
X94336630Y-92605462D01*
X94367285Y-92596378D01*
X94398156Y-92588083D01*
X94429246Y-92580578D01*
X94460553Y-92573863D01*
X94492077Y-92567939D01*
X94523819Y-92562804D01*
X94555779Y-92558459D01*
X94587956Y-92554904D01*
X94620351Y-92552139D01*
X94652963Y-92550164D01*
X94685792Y-92548979D01*
X94718840Y-92548584D01*
X94752848Y-92548947D01*
G37*
G36*
X91044008Y-92548904D02*
G01*
X91074371Y-92549864D01*
X91104521Y-92551463D01*
X91134458Y-92553702D01*
X91164181Y-92556581D01*
X91193691Y-92560099D01*
X91222988Y-92564257D01*
X91252072Y-92569055D01*
X91280942Y-92574492D01*
X91338044Y-92587287D01*
X91394292Y-92602639D01*
X91449688Y-92620551D01*
X91504230Y-92641022D01*
X91557920Y-92664051D01*
X91584445Y-92676526D01*
X91610756Y-92689640D01*
X91636855Y-92703393D01*
X91662740Y-92717787D01*
X91688412Y-92732820D01*
X91713871Y-92748493D01*
X91739116Y-92764805D01*
X91764148Y-92781757D01*
X91788967Y-92799349D01*
X91813573Y-92817581D01*
X91837966Y-92836452D01*
X91862145Y-92855963D01*
X91886111Y-92876114D01*
X91909553Y-92896834D01*
X91932250Y-92918054D01*
X91954203Y-92939773D01*
X91975412Y-92961992D01*
X91995877Y-92984710D01*
X92015598Y-93007928D01*
X92034575Y-93031645D01*
X92052807Y-93055861D01*
X92070295Y-93080577D01*
X92087039Y-93105793D01*
X92103039Y-93131508D01*
X92118295Y-93157722D01*
X92132806Y-93184436D01*
X92146573Y-93211649D01*
X92159596Y-93239362D01*
X92171875Y-93267574D01*
X92183410Y-93296286D01*
X92194201Y-93325497D01*
X92204247Y-93355208D01*
X92213549Y-93385418D01*
X92222107Y-93416127D01*
X92229921Y-93447336D01*
X92236991Y-93479044D01*
X92243316Y-93511252D01*
X92248898Y-93543960D01*
X92253735Y-93577166D01*
X92257828Y-93610873D01*
X92261177Y-93645078D01*
X92263781Y-93679783D01*
X92265642Y-93714988D01*
X92266758Y-93750692D01*
X92267130Y-93786896D01*
X92266739Y-93822656D01*
X92265567Y-93857947D01*
X92263614Y-93892769D01*
X92260879Y-93927121D01*
X92257363Y-93961004D01*
X92253065Y-93994418D01*
X92247986Y-94027362D01*
X92242126Y-94059837D01*
X92235484Y-94091842D01*
X92228061Y-94123378D01*
X92219856Y-94154445D01*
X92210870Y-94185042D01*
X92201103Y-94215170D01*
X92190554Y-94244828D01*
X92179224Y-94274017D01*
X92167113Y-94302736D01*
X92154220Y-94330987D01*
X92140545Y-94358767D01*
X92126090Y-94386079D01*
X92110853Y-94412920D01*
X92094834Y-94439293D01*
X92078035Y-94465196D01*
X92060453Y-94490630D01*
X92042091Y-94515594D01*
X92022947Y-94540089D01*
X92003021Y-94564114D01*
X91982315Y-94587671D01*
X91960827Y-94610757D01*
X91938557Y-94633374D01*
X91915506Y-94655522D01*
X91891674Y-94677201D01*
X91867060Y-94698410D01*
X91841959Y-94719056D01*
X91816757Y-94739048D01*
X91791453Y-94758383D01*
X91766047Y-94777064D01*
X91740539Y-94795088D01*
X91714930Y-94812458D01*
X91689220Y-94829172D01*
X91663407Y-94845230D01*
X91637494Y-94860633D01*
X91611478Y-94875381D01*
X91585361Y-94889473D01*
X91559142Y-94902910D01*
X91506400Y-94927817D01*
X91453252Y-94950102D01*
X91399697Y-94969766D01*
X91345735Y-94986807D01*
X91291367Y-95001227D01*
X91236593Y-95013025D01*
X91181412Y-95022201D01*
X91125825Y-95028756D01*
X91069832Y-95032689D01*
X91013431Y-95034000D01*
X90982467Y-95033741D01*
X90951945Y-95032966D01*
X90921868Y-95031675D01*
X90892234Y-95029866D01*
X90834297Y-95024700D01*
X90778134Y-95017467D01*
X90723746Y-95008168D01*
X90671133Y-94996802D01*
X90620294Y-94983370D01*
X90571230Y-94967871D01*
X90523940Y-94950305D01*
X90478425Y-94930673D01*
X90434685Y-94908975D01*
X90392719Y-94885210D01*
X90352527Y-94859378D01*
X90314111Y-94831480D01*
X90277469Y-94801516D01*
X90267592Y-94792443D01*
X90267723Y-94807383D01*
X90268820Y-94843273D01*
X90270857Y-94879073D01*
X90273834Y-94914783D01*
X90277752Y-94950403D01*
X90282610Y-94985932D01*
X90288408Y-95021371D01*
X90295146Y-95056721D01*
X90302825Y-95091980D01*
X90311444Y-95127148D01*
X90321003Y-95162227D01*
X90328179Y-95185528D01*
X90340777Y-95220276D01*
X90355579Y-95254780D01*
X90372582Y-95289038D01*
X90391789Y-95323052D01*
X90413197Y-95356822D01*
X90436808Y-95390346D01*
X90462622Y-95423626D01*
X90490638Y-95456661D01*
X90510539Y-95478548D01*
X90531419Y-95500327D01*
X90553278Y-95521997D01*
X90575921Y-95543025D01*
X90599337Y-95562697D01*
X90623525Y-95581013D01*
X90648487Y-95597971D01*
X90674221Y-95613573D01*
X90700728Y-95627819D01*
X90728008Y-95640707D01*
X90756061Y-95652239D01*
X90784886Y-95662414D01*
X90814484Y-95671233D01*
X90844855Y-95678695D01*
X90875999Y-95684800D01*
X90907916Y-95689548D01*
X90940605Y-95692940D01*
X90974067Y-95694975D01*
X91008302Y-95695653D01*
X91043626Y-95695160D01*
X91078155Y-95693681D01*
X91111890Y-95691216D01*
X91144830Y-95687765D01*
X91176977Y-95683328D01*
X91208329Y-95677905D01*
X91238886Y-95671496D01*
X91268650Y-95664100D01*
X91297619Y-95655719D01*
X91353175Y-95635998D01*
X91405554Y-95612333D01*
X91454755Y-95584724D01*
X91500780Y-95553171D01*
X91543627Y-95517674D01*
X91583297Y-95478233D01*
X91619791Y-95434847D01*
X91653107Y-95387517D01*
X91668574Y-95362374D01*
X91683246Y-95336244D01*
X91697124Y-95309128D01*
X91710208Y-95281026D01*
X91722498Y-95251938D01*
X91733993Y-95221864D01*
X91744695Y-95190803D01*
X92234890Y-95310238D01*
X92221229Y-95355939D01*
X92206073Y-95400719D01*
X92189424Y-95444576D01*
X92171280Y-95487513D01*
X92151642Y-95529527D01*
X92130510Y-95570620D01*
X92107885Y-95610791D01*
X92083765Y-95650041D01*
X92058151Y-95688369D01*
X92031043Y-95725775D01*
X92002440Y-95762260D01*
X91972344Y-95797823D01*
X91940754Y-95832465D01*
X91907669Y-95866184D01*
X91873091Y-95898983D01*
X91837018Y-95930859D01*
X91818338Y-95946367D01*
X91779629Y-95975905D01*
X91739123Y-96003474D01*
X91696820Y-96029073D01*
X91652719Y-96052704D01*
X91606820Y-96074365D01*
X91559124Y-96094057D01*
X91509630Y-96111780D01*
X91458339Y-96127534D01*
X91405251Y-96141318D01*
X91350365Y-96153134D01*
X91293682Y-96162980D01*
X91264666Y-96167164D01*
X91235201Y-96170856D01*
X91205286Y-96174056D01*
X91174922Y-96176764D01*
X91144109Y-96178979D01*
X91112846Y-96180702D01*
X91081134Y-96181933D01*
X91048973Y-96182672D01*
X91016362Y-96182918D01*
X90980965Y-96182506D01*
X90946032Y-96181269D01*
X90911562Y-96179208D01*
X90877556Y-96176323D01*
X90844014Y-96172614D01*
X90810935Y-96168080D01*
X90778320Y-96162722D01*
X90746169Y-96156540D01*
X90714481Y-96149533D01*
X90683257Y-96141702D01*
X90652497Y-96133047D01*
X90622200Y-96123567D01*
X90592367Y-96113263D01*
X90562998Y-96102135D01*
X90534092Y-96090182D01*
X90505651Y-96077405D01*
X90477735Y-96064036D01*
X90450593Y-96050305D01*
X90424223Y-96036215D01*
X90398626Y-96021763D01*
X90361680Y-95999410D01*
X90326473Y-95976245D01*
X90293004Y-95952269D01*
X90261274Y-95927482D01*
X90231283Y-95901883D01*
X90203031Y-95875472D01*
X90176517Y-95848251D01*
X90151743Y-95820217D01*
X90135875Y-95801080D01*
X90112673Y-95771710D01*
X90090193Y-95741540D01*
X90068435Y-95710573D01*
X90047398Y-95678806D01*
X90027082Y-95646241D01*
X90007487Y-95612878D01*
X89988613Y-95578716D01*
X89970461Y-95543755D01*
X89953030Y-95507996D01*
X89936321Y-95471438D01*
X89925544Y-95446981D01*
X89910185Y-95410627D01*
X89895791Y-95374672D01*
X89882364Y-95339117D01*
X89869903Y-95303961D01*
X89858407Y-95269205D01*
X89847878Y-95234847D01*
X89838314Y-95200889D01*
X89829717Y-95167330D01*
X89822086Y-95134171D01*
X89815420Y-95101411D01*
X89811339Y-95079744D01*
X89805710Y-95047393D01*
X89800674Y-95015223D01*
X89796231Y-94983234D01*
X89792379Y-94951424D01*
X89789121Y-94919795D01*
X89786455Y-94888347D01*
X89784381Y-94857078D01*
X89782900Y-94825990D01*
X89782011Y-94795083D01*
X89781715Y-94764355D01*
X89781715Y-94735779D01*
X89781715Y-93800085D01*
X90267514Y-93800085D01*
X90268381Y-93838470D01*
X90270983Y-93876140D01*
X90275319Y-93913094D01*
X90281390Y-93949332D01*
X90289195Y-93984855D01*
X90298735Y-94019663D01*
X90310009Y-94053755D01*
X90323018Y-94087131D01*
X90337761Y-94119792D01*
X90354239Y-94151737D01*
X90372451Y-94182967D01*
X90392398Y-94213481D01*
X90414080Y-94243280D01*
X90437495Y-94272363D01*
X90462646Y-94300730D01*
X90489531Y-94328382D01*
X90517638Y-94354823D01*
X90546454Y-94379558D01*
X90575981Y-94402588D01*
X90606218Y-94423911D01*
X90637164Y-94443529D01*
X90668820Y-94461441D01*
X90701186Y-94477647D01*
X90734262Y-94492147D01*
X90768048Y-94504941D01*
X90802543Y-94516029D01*
X90837748Y-94525411D01*
X90873663Y-94533088D01*
X90910288Y-94539059D01*
X90947623Y-94543323D01*
X90985668Y-94545882D01*
X91024422Y-94546735D01*
X91063177Y-94545882D01*
X91101221Y-94543323D01*
X91138556Y-94539059D01*
X91175181Y-94533088D01*
X91211096Y-94525411D01*
X91246302Y-94516029D01*
X91280797Y-94504941D01*
X91314583Y-94492147D01*
X91347659Y-94477647D01*
X91380025Y-94461441D01*
X91411681Y-94443529D01*
X91442627Y-94423911D01*
X91472864Y-94402588D01*
X91502390Y-94379558D01*
X91531207Y-94354823D01*
X91559314Y-94328382D01*
X91586199Y-94300730D01*
X91611349Y-94272363D01*
X91634765Y-94243280D01*
X91656447Y-94213481D01*
X91676393Y-94182967D01*
X91694606Y-94151737D01*
X91711083Y-94119792D01*
X91725827Y-94087131D01*
X91738836Y-94053755D01*
X91750110Y-94019663D01*
X91759650Y-93984855D01*
X91767455Y-93949332D01*
X91773526Y-93913094D01*
X91777862Y-93876140D01*
X91780464Y-93838470D01*
X91781331Y-93800085D01*
X91780464Y-93761579D01*
X91777862Y-93723732D01*
X91773526Y-93686543D01*
X91767455Y-93650013D01*
X91759650Y-93614140D01*
X91750110Y-93578927D01*
X91738836Y-93544371D01*
X91725827Y-93510474D01*
X91711083Y-93477235D01*
X91694606Y-93444654D01*
X91676393Y-93412732D01*
X91656447Y-93381468D01*
X91634765Y-93350862D01*
X91611349Y-93320915D01*
X91586199Y-93291625D01*
X91559314Y-93262995D01*
X91531207Y-93235489D01*
X91502390Y-93209757D01*
X91472864Y-93185801D01*
X91442627Y-93163618D01*
X91411681Y-93143211D01*
X91380025Y-93124578D01*
X91347659Y-93107719D01*
X91314583Y-93092635D01*
X91280797Y-93079326D01*
X91246302Y-93067791D01*
X91211096Y-93058031D01*
X91175181Y-93050045D01*
X91138556Y-93043834D01*
X91101221Y-93039398D01*
X91063177Y-93036736D01*
X91024422Y-93035849D01*
X90985668Y-93036736D01*
X90947623Y-93039398D01*
X90910288Y-93043834D01*
X90873663Y-93050045D01*
X90837748Y-93058031D01*
X90802543Y-93067791D01*
X90768048Y-93079326D01*
X90734262Y-93092635D01*
X90701186Y-93107719D01*
X90668820Y-93124578D01*
X90637164Y-93143211D01*
X90606218Y-93163618D01*
X90575981Y-93185801D01*
X90546454Y-93209757D01*
X90517638Y-93235489D01*
X90489531Y-93262995D01*
X90462646Y-93291625D01*
X90437495Y-93320915D01*
X90414080Y-93350862D01*
X90392398Y-93381468D01*
X90372451Y-93412732D01*
X90354239Y-93444654D01*
X90337761Y-93477235D01*
X90323018Y-93510474D01*
X90310009Y-93544371D01*
X90298735Y-93578927D01*
X90289195Y-93614140D01*
X90281390Y-93650013D01*
X90275319Y-93686543D01*
X90270983Y-93723732D01*
X90268381Y-93761579D01*
X90267514Y-93800085D01*
X89781715Y-93800085D01*
X89781715Y-92586686D01*
X90267514Y-92586686D01*
X90267514Y-92796084D01*
X90281020Y-92782770D01*
X90309613Y-92758761D01*
X90333628Y-92740966D01*
X90359845Y-92723350D01*
X90388265Y-92705915D01*
X90418887Y-92688660D01*
X90451712Y-92671585D01*
X90486739Y-92654691D01*
X90523969Y-92637977D01*
X90549838Y-92627152D01*
X90589821Y-92612224D01*
X90631222Y-92598868D01*
X90659609Y-92590836D01*
X90688627Y-92583503D01*
X90718274Y-92576869D01*
X90748550Y-92570933D01*
X90779456Y-92565695D01*
X90810992Y-92561155D01*
X90843158Y-92557314D01*
X90875953Y-92554171D01*
X90909378Y-92551727D01*
X90943433Y-92549981D01*
X90978117Y-92548933D01*
X91013431Y-92548584D01*
X91044008Y-92548904D01*
G37*
G36*
X87535902Y-92769640D02*
G01*
X87560002Y-92749982D01*
X87598599Y-92722238D01*
X87639262Y-92696550D01*
X87681992Y-92672916D01*
X87726789Y-92651338D01*
X87773652Y-92631815D01*
X87822582Y-92614347D01*
X87873578Y-92598934D01*
X87926641Y-92585576D01*
X87981770Y-92574273D01*
X88038966Y-92565025D01*
X88068339Y-92561172D01*
X88098228Y-92557832D01*
X88128634Y-92555006D01*
X88159557Y-92552694D01*
X88190996Y-92550896D01*
X88222952Y-92549612D01*
X88255425Y-92548841D01*
X88288414Y-92548584D01*
X88317690Y-92548904D01*
X88375770Y-92551463D01*
X88433221Y-92556581D01*
X88490042Y-92564257D01*
X88546233Y-92574492D01*
X88601794Y-92587287D01*
X88656726Y-92602639D01*
X88711028Y-92620551D01*
X88764700Y-92641022D01*
X88817743Y-92664051D01*
X88870156Y-92689640D01*
X88896126Y-92703393D01*
X88921939Y-92717787D01*
X88947595Y-92732820D01*
X88973093Y-92748493D01*
X88998434Y-92764805D01*
X89023617Y-92781757D01*
X89048643Y-92799349D01*
X89073511Y-92817581D01*
X89098222Y-92836452D01*
X89122776Y-92855963D01*
X89147172Y-92876114D01*
X89171064Y-92896834D01*
X89194198Y-92918054D01*
X89216574Y-92939773D01*
X89238190Y-92961992D01*
X89259049Y-92984710D01*
X89279149Y-93007928D01*
X89298490Y-93031645D01*
X89317073Y-93055861D01*
X89334898Y-93080577D01*
X89351964Y-93105793D01*
X89368271Y-93131508D01*
X89383820Y-93157722D01*
X89398611Y-93184436D01*
X89412643Y-93211649D01*
X89425916Y-93239362D01*
X89438431Y-93267574D01*
X89450188Y-93296286D01*
X89461186Y-93325497D01*
X89471426Y-93355208D01*
X89480907Y-93385418D01*
X89489629Y-93416127D01*
X89497594Y-93447336D01*
X89504799Y-93479044D01*
X89511246Y-93511252D01*
X89516935Y-93543960D01*
X89521865Y-93577166D01*
X89526037Y-93610873D01*
X89529450Y-93645078D01*
X89532105Y-93679783D01*
X89534001Y-93714988D01*
X89535139Y-93750692D01*
X89535518Y-93786896D01*
X89535134Y-93822656D01*
X89533981Y-93857947D01*
X89532060Y-93892769D01*
X89529370Y-93927121D01*
X89525912Y-93961004D01*
X89521685Y-93994418D01*
X89516690Y-94027362D01*
X89510926Y-94059837D01*
X89504393Y-94091842D01*
X89497093Y-94123378D01*
X89489023Y-94154445D01*
X89480186Y-94185042D01*
X89470579Y-94215170D01*
X89460204Y-94244828D01*
X89449061Y-94274017D01*
X89437149Y-94302736D01*
X89424469Y-94330987D01*
X89411020Y-94358767D01*
X89396803Y-94386079D01*
X89381817Y-94412920D01*
X89366062Y-94439293D01*
X89349539Y-94465196D01*
X89332248Y-94490630D01*
X89314188Y-94515594D01*
X89295360Y-94540089D01*
X89275763Y-94564114D01*
X89255397Y-94587671D01*
X89234264Y-94610757D01*
X89212361Y-94633374D01*
X89189690Y-94655522D01*
X89166251Y-94677201D01*
X89142043Y-94698410D01*
X89117390Y-94719056D01*
X89092618Y-94739048D01*
X89067725Y-94758383D01*
X89042712Y-94777064D01*
X89017579Y-94795088D01*
X88992326Y-94812458D01*
X88966952Y-94829172D01*
X88941458Y-94845230D01*
X88915844Y-94860633D01*
X88890110Y-94875381D01*
X88838281Y-94902910D01*
X88785971Y-94927817D01*
X88733180Y-94950102D01*
X88679909Y-94969766D01*
X88626156Y-94986807D01*
X88571923Y-95001227D01*
X88517209Y-95013025D01*
X88462013Y-95022201D01*
X88406338Y-95028756D01*
X88350181Y-95032689D01*
X88293543Y-95034000D01*
X88262957Y-95033733D01*
X88232750Y-95032935D01*
X88202919Y-95031604D01*
X88173467Y-95029741D01*
X88115696Y-95024417D01*
X88059436Y-95016964D01*
X88004688Y-95007381D01*
X87951450Y-94995669D01*
X87899724Y-94981827D01*
X87849510Y-94965856D01*
X87800806Y-94947755D01*
X87753614Y-94927525D01*
X87707933Y-94905165D01*
X87663763Y-94880676D01*
X87621104Y-94854057D01*
X87579957Y-94825309D01*
X87540321Y-94794432D01*
X87535902Y-94790606D01*
X87535902Y-95034000D01*
X87050103Y-95034000D01*
X87050103Y-93800085D01*
X87535902Y-93800085D01*
X87536769Y-93838470D01*
X87539371Y-93876140D01*
X87543707Y-93913094D01*
X87549778Y-93949332D01*
X87557583Y-93984855D01*
X87567123Y-94019663D01*
X87578397Y-94053755D01*
X87591406Y-94087131D01*
X87606149Y-94119792D01*
X87622627Y-94151737D01*
X87640839Y-94182967D01*
X87660786Y-94213481D01*
X87682468Y-94243280D01*
X87705883Y-94272363D01*
X87731034Y-94300730D01*
X87757919Y-94328382D01*
X87786026Y-94354823D01*
X87814842Y-94379558D01*
X87844369Y-94402588D01*
X87874606Y-94423911D01*
X87905552Y-94443529D01*
X87937208Y-94461441D01*
X87969574Y-94477647D01*
X88002650Y-94492147D01*
X88036436Y-94504941D01*
X88070931Y-94516029D01*
X88106136Y-94525411D01*
X88142051Y-94533088D01*
X88178676Y-94539059D01*
X88216011Y-94543323D01*
X88254056Y-94545882D01*
X88292810Y-94546735D01*
X88331565Y-94545882D01*
X88369609Y-94543323D01*
X88406944Y-94539059D01*
X88443569Y-94533088D01*
X88479484Y-94525411D01*
X88514690Y-94516029D01*
X88549185Y-94504941D01*
X88582971Y-94492147D01*
X88616047Y-94477647D01*
X88648413Y-94461441D01*
X88680069Y-94443529D01*
X88711015Y-94423911D01*
X88741252Y-94402588D01*
X88770778Y-94379558D01*
X88799595Y-94354823D01*
X88827702Y-94328382D01*
X88854587Y-94300730D01*
X88879737Y-94272363D01*
X88903153Y-94243280D01*
X88924835Y-94213481D01*
X88944781Y-94182967D01*
X88962994Y-94151737D01*
X88979471Y-94119792D01*
X88994215Y-94087131D01*
X89007224Y-94053755D01*
X89018498Y-94019663D01*
X89028038Y-93984855D01*
X89035843Y-93949332D01*
X89041914Y-93913094D01*
X89046250Y-93876140D01*
X89048852Y-93838470D01*
X89049719Y-93800085D01*
X89048852Y-93761579D01*
X89046250Y-93723732D01*
X89041914Y-93686543D01*
X89035843Y-93650013D01*
X89028038Y-93614140D01*
X89018498Y-93578927D01*
X89007224Y-93544371D01*
X88994215Y-93510474D01*
X88979471Y-93477235D01*
X88962994Y-93444654D01*
X88944781Y-93412732D01*
X88924835Y-93381468D01*
X88903153Y-93350862D01*
X88879737Y-93320915D01*
X88854587Y-93291625D01*
X88827702Y-93262995D01*
X88799595Y-93235489D01*
X88770778Y-93209757D01*
X88741252Y-93185801D01*
X88711015Y-93163618D01*
X88680069Y-93143211D01*
X88648413Y-93124578D01*
X88616047Y-93107719D01*
X88582971Y-93092635D01*
X88549185Y-93079326D01*
X88514690Y-93067791D01*
X88479484Y-93058031D01*
X88443569Y-93050045D01*
X88406944Y-93043834D01*
X88369609Y-93039398D01*
X88331565Y-93036736D01*
X88292810Y-93035849D01*
X88254056Y-93036736D01*
X88216011Y-93039398D01*
X88178676Y-93043834D01*
X88142051Y-93050045D01*
X88106136Y-93058031D01*
X88070931Y-93067791D01*
X88036436Y-93079326D01*
X88002650Y-93092635D01*
X87969574Y-93107719D01*
X87937208Y-93124578D01*
X87905552Y-93143211D01*
X87874606Y-93163618D01*
X87844369Y-93185801D01*
X87814842Y-93209757D01*
X87786026Y-93235489D01*
X87757919Y-93262995D01*
X87731034Y-93291625D01*
X87705883Y-93320915D01*
X87682468Y-93350862D01*
X87660786Y-93381468D01*
X87640839Y-93412732D01*
X87622627Y-93444654D01*
X87606149Y-93477235D01*
X87591406Y-93510474D01*
X87578397Y-93544371D01*
X87567123Y-93578927D01*
X87557583Y-93614140D01*
X87549778Y-93650013D01*
X87543707Y-93686543D01*
X87539371Y-93723732D01*
X87536769Y-93761579D01*
X87535902Y-93800085D01*
X87050103Y-93800085D01*
X87050103Y-92548584D01*
X87535902Y-92548584D01*
X87535902Y-92769640D01*
G37*
G36*
X84898079Y-92595479D02*
G01*
X84412280Y-92595479D01*
X84412280Y-94734314D01*
X84412280Y-94762890D01*
X84412576Y-94793617D01*
X84413465Y-94824525D01*
X84414946Y-94855613D01*
X84417020Y-94886881D01*
X84419686Y-94918330D01*
X84422945Y-94949959D01*
X84426796Y-94981768D01*
X84431239Y-95013758D01*
X84436275Y-95045928D01*
X84441904Y-95078278D01*
X84445986Y-95099945D01*
X84452612Y-95132712D01*
X84460128Y-95165891D01*
X84468532Y-95199482D01*
X84477825Y-95233485D01*
X84488007Y-95267900D01*
X84499077Y-95302728D01*
X84511036Y-95337967D01*
X84523884Y-95373619D01*
X84537620Y-95409683D01*
X84552245Y-95446159D01*
X84562489Y-95470706D01*
X84578544Y-95507263D01*
X84595385Y-95543023D01*
X84613011Y-95577983D01*
X84631423Y-95612145D01*
X84650621Y-95645509D01*
X84670604Y-95678074D01*
X84691373Y-95709840D01*
X84712928Y-95740808D01*
X84735268Y-95770977D01*
X84758394Y-95800348D01*
X84774248Y-95819484D01*
X84799029Y-95847649D01*
X84825562Y-95874989D01*
X84853846Y-95901504D01*
X84883882Y-95927196D01*
X84915670Y-95952063D01*
X84949210Y-95976105D01*
X84984501Y-95999324D01*
X85021544Y-96021718D01*
X85047212Y-96036189D01*
X85073659Y-96050294D01*
X85100885Y-96064033D01*
X85128889Y-96077405D01*
X85157491Y-96090182D01*
X85186511Y-96102135D01*
X85215949Y-96113263D01*
X85245805Y-96123567D01*
X85276078Y-96133047D01*
X85306770Y-96141702D01*
X85337879Y-96149533D01*
X85369407Y-96156540D01*
X85401352Y-96162722D01*
X85433715Y-96168080D01*
X85466496Y-96172614D01*
X85499695Y-96176323D01*
X85533312Y-96179208D01*
X85567346Y-96181269D01*
X85601799Y-96182506D01*
X85636669Y-96182918D01*
X85669324Y-96182677D01*
X85701524Y-96181953D01*
X85733272Y-96180748D01*
X85764565Y-96179060D01*
X85795405Y-96176889D01*
X85825791Y-96174237D01*
X85855723Y-96171102D01*
X85885202Y-96167485D01*
X85914227Y-96163385D01*
X85970916Y-96153740D01*
X86025790Y-96142165D01*
X86078850Y-96128661D01*
X86130096Y-96113228D01*
X86179526Y-96095866D01*
X86227142Y-96076574D01*
X86272943Y-96055354D01*
X86316930Y-96032204D01*
X86359102Y-96007125D01*
X86399459Y-95980117D01*
X86438002Y-95951180D01*
X86456593Y-95935988D01*
X86492556Y-95904616D01*
X86526992Y-95872230D01*
X86559899Y-95838830D01*
X86591277Y-95804418D01*
X86621127Y-95768992D01*
X86649449Y-95732553D01*
X86676242Y-95695101D01*
X86701507Y-95656636D01*
X86725244Y-95617157D01*
X86747452Y-95576665D01*
X86768131Y-95535160D01*
X86787282Y-95492642D01*
X86804905Y-95449110D01*
X86820999Y-95404566D01*
X86835565Y-95359008D01*
X86848602Y-95312436D01*
X86403103Y-95191536D01*
X86392088Y-95222551D01*
X86380289Y-95252582D01*
X86367707Y-95281627D01*
X86354343Y-95309689D01*
X86340195Y-95336765D01*
X86325265Y-95362857D01*
X86309553Y-95387965D01*
X86275778Y-95435226D01*
X86238873Y-95478548D01*
X86198836Y-95517932D01*
X86155668Y-95553378D01*
X86109369Y-95584885D01*
X86059938Y-95612454D01*
X86007376Y-95636085D01*
X85979921Y-95646423D01*
X85951683Y-95655777D01*
X85922663Y-95664146D01*
X85892859Y-95671531D01*
X85862273Y-95677931D01*
X85830903Y-95683346D01*
X85798751Y-95687777D01*
X85765816Y-95691223D01*
X85732099Y-95693684D01*
X85697598Y-95695161D01*
X85662315Y-95695653D01*
X85636669Y-95695653D01*
X85600305Y-95694972D01*
X85564851Y-95692929D01*
X85530306Y-95689522D01*
X85496672Y-95684754D01*
X85463949Y-95678623D01*
X85432135Y-95671130D01*
X85401232Y-95662274D01*
X85371239Y-95652056D01*
X85342155Y-95640475D01*
X85313983Y-95627533D01*
X85286720Y-95613227D01*
X85260368Y-95597559D01*
X85234925Y-95580529D01*
X85210393Y-95562136D01*
X85186771Y-95542381D01*
X85164060Y-95521264D01*
X85142192Y-95499460D01*
X85121286Y-95477461D01*
X85101343Y-95455267D01*
X85082360Y-95432879D01*
X85055690Y-95398931D01*
X85031184Y-95364546D01*
X85008841Y-95329723D01*
X84988663Y-95294462D01*
X84970648Y-95258763D01*
X84954797Y-95222626D01*
X84941110Y-95186051D01*
X84929586Y-95149038D01*
X84919634Y-95111851D01*
X84910661Y-95074755D01*
X84902667Y-95037748D01*
X84895652Y-95000832D01*
X84889615Y-94964006D01*
X84884558Y-94927270D01*
X84880479Y-94890624D01*
X84877379Y-94854069D01*
X84875259Y-94817603D01*
X84874117Y-94781228D01*
X84873899Y-94757028D01*
X84873899Y-94740908D01*
X84845620Y-94750582D01*
X84840193Y-94755563D01*
X84857779Y-94773881D01*
X84891333Y-94805380D01*
X84926781Y-94834846D01*
X84964125Y-94862281D01*
X85003363Y-94887683D01*
X85044496Y-94911053D01*
X85087524Y-94932391D01*
X85132446Y-94951696D01*
X85179264Y-94968970D01*
X85227976Y-94984211D01*
X85278583Y-94997420D01*
X85331084Y-95008597D01*
X85385481Y-95017742D01*
X85441772Y-95024855D01*
X85499958Y-95029935D01*
X85529762Y-95031713D01*
X85560039Y-95032983D01*
X85590790Y-95033745D01*
X85622015Y-95034000D01*
X85678807Y-95032703D01*
X85735244Y-95028813D01*
X85791327Y-95022330D01*
X85847054Y-95013254D01*
X85902427Y-95001585D01*
X85957444Y-94987322D01*
X86012107Y-94970467D01*
X86066415Y-94951018D01*
X86120368Y-94928976D01*
X86147211Y-94916983D01*
X86173966Y-94904341D01*
X86200631Y-94891051D01*
X86227209Y-94877113D01*
X86253697Y-94862526D01*
X86280097Y-94847291D01*
X86306408Y-94831408D01*
X86332630Y-94814876D01*
X86358763Y-94797697D01*
X86384808Y-94779869D01*
X86410764Y-94761392D01*
X86436632Y-94742268D01*
X86462410Y-94722495D01*
X86488100Y-94702073D01*
X86513300Y-94681081D01*
X86537699Y-94659595D01*
X86561299Y-94637616D01*
X86584099Y-94615142D01*
X86606099Y-94592175D01*
X86627298Y-94568714D01*
X86647698Y-94544759D01*
X86667298Y-94520311D01*
X86686098Y-94495369D01*
X86704097Y-94469933D01*
X86721297Y-94444003D01*
X86737697Y-94417580D01*
X86753297Y-94390663D01*
X86768097Y-94363252D01*
X86782097Y-94335348D01*
X86795296Y-94306950D01*
X86807696Y-94278058D01*
X86819296Y-94248672D01*
X86830096Y-94218792D01*
X86840096Y-94188419D01*
X86849296Y-94157552D01*
X86857696Y-94126192D01*
X86865296Y-94094337D01*
X86872096Y-94061989D01*
X86878095Y-94029147D01*
X86883295Y-93995812D01*
X86887695Y-93961983D01*
X86891295Y-93927660D01*
X86894095Y-93892843D01*
X86896095Y-93857532D01*
X86897295Y-93821728D01*
X86897695Y-93785430D01*
X86897695Y-92595479D01*
X86411896Y-92595479D01*
X86411896Y-93789094D01*
X86411058Y-93829334D01*
X86408542Y-93868721D01*
X86404349Y-93907255D01*
X86398478Y-93944936D01*
X86390930Y-93981764D01*
X86381706Y-94017739D01*
X86370803Y-94052862D01*
X86358224Y-94087131D01*
X86343967Y-94120547D01*
X86328033Y-94153111D01*
X86310422Y-94184822D01*
X86291133Y-94215679D01*
X86270168Y-94245684D01*
X86247525Y-94274835D01*
X86223204Y-94303134D01*
X86197207Y-94330580D01*
X86169853Y-94356755D01*
X86141645Y-94381241D01*
X86112585Y-94404039D01*
X86082672Y-94425148D01*
X86051906Y-94444568D01*
X86020287Y-94462300D01*
X85987815Y-94478342D01*
X85954490Y-94492696D01*
X85920313Y-94505362D01*
X85885282Y-94516338D01*
X85849398Y-94525626D01*
X85812662Y-94533225D01*
X85775072Y-94539136D01*
X85736630Y-94543358D01*
X85697334Y-94545891D01*
X85657186Y-94546735D01*
X85617032Y-94545879D01*
X85577719Y-94543312D01*
X85539248Y-94539033D01*
X85501618Y-94533042D01*
X85464830Y-94525340D01*
X85428884Y-94515926D01*
X85393778Y-94504801D01*
X85359515Y-94491964D01*
X85326093Y-94477415D01*
X85293512Y-94461155D01*
X85261773Y-94443183D01*
X85230875Y-94423499D01*
X85200819Y-94402104D01*
X85171604Y-94378997D01*
X85143231Y-94354179D01*
X85115699Y-94327649D01*
X85089347Y-94299763D01*
X85064695Y-94271057D01*
X85041743Y-94241534D01*
X85020491Y-94211191D01*
X85000939Y-94180030D01*
X84983087Y-94148051D01*
X84966936Y-94115252D01*
X84952484Y-94081636D01*
X84939733Y-94047200D01*
X84928682Y-94011946D01*
X84919331Y-93975874D01*
X84911680Y-93938982D01*
X84905730Y-93901273D01*
X84901479Y-93862744D01*
X84898929Y-93823397D01*
X84898079Y-93783232D01*
X84898079Y-92595479D01*
G37*
G36*
X96648847Y-97828225D02*
G01*
X96670877Y-97810478D01*
X96712972Y-97779517D01*
X96756080Y-97750692D01*
X96800201Y-97724002D01*
X96845335Y-97699447D01*
X96891483Y-97677027D01*
X96938644Y-97656742D01*
X96986818Y-97638593D01*
X97036005Y-97622579D01*
X97086205Y-97608700D01*
X97137419Y-97596956D01*
X97189646Y-97587348D01*
X97242886Y-97579875D01*
X97297140Y-97574537D01*
X97352406Y-97571334D01*
X97408686Y-97570266D01*
X97440829Y-97570626D01*
X97472685Y-97571706D01*
X97504256Y-97573505D01*
X97535540Y-97576025D01*
X97566538Y-97579264D01*
X97597249Y-97583223D01*
X97627675Y-97587902D01*
X97657814Y-97593301D01*
X97687667Y-97599420D01*
X97717234Y-97606259D01*
X97746514Y-97613817D01*
X97775508Y-97622095D01*
X97804216Y-97631093D01*
X97832638Y-97640811D01*
X97860774Y-97651249D01*
X97888623Y-97662407D01*
X97916187Y-97674284D01*
X97943464Y-97686882D01*
X97970454Y-97700199D01*
X97997159Y-97714236D01*
X98023577Y-97728993D01*
X98049709Y-97744469D01*
X98075555Y-97760666D01*
X98101115Y-97777582D01*
X98126388Y-97795219D01*
X98151375Y-97813575D01*
X98176076Y-97832651D01*
X98200491Y-97852447D01*
X98224619Y-97872962D01*
X98248462Y-97894198D01*
X98272018Y-97916153D01*
X98295288Y-97938829D01*
X98318053Y-97962008D01*
X98340096Y-97985477D01*
X98361416Y-98009235D01*
X98382013Y-98033282D01*
X98401888Y-98057618D01*
X98421039Y-98082243D01*
X98439469Y-98107157D01*
X98457175Y-98132360D01*
X98474159Y-98157853D01*
X98490420Y-98183634D01*
X98505958Y-98209705D01*
X98520773Y-98236064D01*
X98534866Y-98262713D01*
X98548236Y-98289651D01*
X98560884Y-98316878D01*
X98572809Y-98344394D01*
X98584011Y-98372199D01*
X98594490Y-98400293D01*
X98604247Y-98428676D01*
X98613280Y-98457348D01*
X98621592Y-98486310D01*
X98629180Y-98515560D01*
X98636046Y-98545100D01*
X98642189Y-98574928D01*
X98647609Y-98605046D01*
X98652307Y-98635453D01*
X98656282Y-98666149D01*
X98659534Y-98697134D01*
X98662063Y-98728408D01*
X98663870Y-98759971D01*
X98664954Y-98791823D01*
X98665316Y-98823965D01*
X98664954Y-98856104D01*
X98663870Y-98887952D01*
X98662063Y-98919508D01*
X98659534Y-98950772D01*
X98656282Y-98981745D01*
X98652307Y-99012425D01*
X98647609Y-99042813D01*
X98642189Y-99072909D01*
X98636046Y-99102713D01*
X98629180Y-99132226D01*
X98621592Y-99161446D01*
X98613280Y-99190375D01*
X98604247Y-99219011D01*
X98594490Y-99247356D01*
X98584011Y-99275408D01*
X98572809Y-99303169D01*
X98560884Y-99330638D01*
X98548236Y-99357815D01*
X98534866Y-99384699D01*
X98520773Y-99411292D01*
X98505958Y-99437593D01*
X98490420Y-99463602D01*
X98474159Y-99489319D01*
X98457175Y-99514744D01*
X98439469Y-99539878D01*
X98421039Y-99564719D01*
X98401888Y-99589268D01*
X98382013Y-99613525D01*
X98361416Y-99637491D01*
X98340096Y-99661164D01*
X98318053Y-99684546D01*
X98295288Y-99707635D01*
X98272018Y-99730175D01*
X98248462Y-99752000D01*
X98224619Y-99773109D01*
X98200491Y-99793502D01*
X98176076Y-99813180D01*
X98151375Y-99832142D01*
X98126388Y-99850388D01*
X98101115Y-99867920D01*
X98075555Y-99884735D01*
X98049709Y-99900835D01*
X98023577Y-99916220D01*
X97997159Y-99930888D01*
X97970454Y-99944842D01*
X97943464Y-99958080D01*
X97916187Y-99970602D01*
X97888623Y-99982408D01*
X97860774Y-99993500D01*
X97832638Y-100003875D01*
X97804216Y-100013535D01*
X97775508Y-100022480D01*
X97746514Y-100030708D01*
X97717234Y-100038222D01*
X97687667Y-100045020D01*
X97657814Y-100051102D01*
X97627675Y-100056468D01*
X97597249Y-100061120D01*
X97566538Y-100065055D01*
X97535540Y-100068275D01*
X97504256Y-100070780D01*
X97472685Y-100072568D01*
X97440829Y-100073642D01*
X97408686Y-100074000D01*
X97351032Y-100072955D01*
X97294575Y-100069821D01*
X97239314Y-100064597D01*
X97185250Y-100057284D01*
X97132382Y-100047882D01*
X97080710Y-100036390D01*
X97030235Y-100022809D01*
X96980956Y-100007138D01*
X96932873Y-99989378D01*
X96885987Y-99969528D01*
X96840298Y-99947590D01*
X96795805Y-99923561D01*
X96752508Y-99897443D01*
X96710407Y-99869236D01*
X96669503Y-99838940D01*
X96648847Y-99822092D01*
X96648847Y-100074000D01*
X96163048Y-100074000D01*
X96163048Y-98832757D01*
X96648847Y-98832757D01*
X96649714Y-98872119D01*
X96652316Y-98910701D01*
X96656652Y-98948506D01*
X96662723Y-98985531D01*
X96670528Y-99021778D01*
X96680068Y-99057247D01*
X96691342Y-99091937D01*
X96704351Y-99125849D01*
X96719094Y-99158982D01*
X96735572Y-99191336D01*
X96753784Y-99222912D01*
X96773731Y-99253710D01*
X96795412Y-99283729D01*
X96818828Y-99312969D01*
X96843979Y-99341431D01*
X96870863Y-99369115D01*
X96898990Y-99395467D01*
X96927867Y-99420119D01*
X96957494Y-99443072D01*
X96987871Y-99464324D01*
X97018998Y-99483875D01*
X97050874Y-99501727D01*
X97083501Y-99517879D01*
X97116877Y-99532330D01*
X97151003Y-99545081D01*
X97185879Y-99556132D01*
X97221506Y-99565483D01*
X97257881Y-99573134D01*
X97295007Y-99579084D01*
X97332883Y-99583335D01*
X97371509Y-99585885D01*
X97410884Y-99586735D01*
X97450186Y-99585882D01*
X97488771Y-99583323D01*
X97526641Y-99579059D01*
X97563796Y-99573088D01*
X97600235Y-99565411D01*
X97635958Y-99556029D01*
X97670966Y-99544941D01*
X97705258Y-99532147D01*
X97738835Y-99517647D01*
X97771696Y-99501441D01*
X97803842Y-99483529D01*
X97835272Y-99463911D01*
X97865986Y-99442588D01*
X97895985Y-99419558D01*
X97925268Y-99394823D01*
X97953836Y-99368382D01*
X97981165Y-99340699D01*
X98006730Y-99312237D01*
X98030532Y-99282996D01*
X98052571Y-99252977D01*
X98072847Y-99222180D01*
X98091360Y-99190604D01*
X98108110Y-99158249D01*
X98123096Y-99125116D01*
X98136320Y-99091204D01*
X98147780Y-99056514D01*
X98157477Y-99021046D01*
X98165412Y-98984799D01*
X98171583Y-98947773D01*
X98175990Y-98909969D01*
X98178635Y-98871386D01*
X98179517Y-98832025D01*
X98178635Y-98792626D01*
X98175990Y-98753932D01*
X98171583Y-98715942D01*
X98165412Y-98678655D01*
X98157477Y-98642073D01*
X98147780Y-98606195D01*
X98136320Y-98571022D01*
X98123096Y-98536552D01*
X98108110Y-98502786D01*
X98091360Y-98469725D01*
X98072847Y-98437367D01*
X98052571Y-98405714D01*
X98030532Y-98374765D01*
X98006730Y-98344520D01*
X97981165Y-98314979D01*
X97953836Y-98286142D01*
X97925268Y-98258458D01*
X97895985Y-98232561D01*
X97865986Y-98208450D01*
X97835272Y-98186124D01*
X97803842Y-98165585D01*
X97771696Y-98146832D01*
X97738835Y-98129865D01*
X97705258Y-98114683D01*
X97670966Y-98101288D01*
X97635958Y-98089679D01*
X97600235Y-98079856D01*
X97563796Y-98071819D01*
X97526641Y-98065568D01*
X97488771Y-98061103D01*
X97450186Y-98058424D01*
X97410884Y-98057531D01*
X97371598Y-98058424D01*
X97333055Y-98061103D01*
X97295256Y-98065568D01*
X97258202Y-98071819D01*
X97221892Y-98079856D01*
X97186326Y-98089679D01*
X97151504Y-98101288D01*
X97117427Y-98114683D01*
X97084093Y-98129865D01*
X97051504Y-98146832D01*
X97019659Y-98165585D01*
X96988558Y-98186124D01*
X96958201Y-98208450D01*
X96928589Y-98232561D01*
X96899720Y-98258458D01*
X96871596Y-98286142D01*
X96844623Y-98314982D01*
X96819389Y-98344531D01*
X96795896Y-98374791D01*
X96774143Y-98405760D01*
X96754131Y-98437439D01*
X96735858Y-98469828D01*
X96719326Y-98502926D01*
X96704534Y-98536735D01*
X96691482Y-98571253D01*
X96680171Y-98606482D01*
X96670600Y-98642420D01*
X96662769Y-98679068D01*
X96656678Y-98716425D01*
X96652327Y-98754493D01*
X96649717Y-98793270D01*
X96648847Y-98832757D01*
X96163048Y-98832757D01*
X96163048Y-96791376D01*
X96648847Y-96791376D01*
X96648847Y-97828225D01*
G37*
G36*
X94778688Y-97570625D02*
G01*
X94810405Y-97571703D01*
X94841834Y-97573499D01*
X94872976Y-97576013D01*
X94903830Y-97579246D01*
X94934396Y-97583198D01*
X94964675Y-97587867D01*
X94994666Y-97593255D01*
X95024370Y-97599362D01*
X95053785Y-97606187D01*
X95082913Y-97613730D01*
X95111754Y-97621992D01*
X95140307Y-97630972D01*
X95168572Y-97640671D01*
X95196549Y-97651088D01*
X95224239Y-97662224D01*
X95251641Y-97674077D01*
X95278756Y-97686650D01*
X95305583Y-97699940D01*
X95332122Y-97713950D01*
X95358374Y-97728677D01*
X95384338Y-97744123D01*
X95410014Y-97760287D01*
X95435402Y-97777170D01*
X95460503Y-97794772D01*
X95485317Y-97813091D01*
X95509842Y-97832129D01*
X95534080Y-97851886D01*
X95558031Y-97872361D01*
X95581693Y-97893554D01*
X95605068Y-97915466D01*
X95628156Y-97938096D01*
X95650741Y-97961184D01*
X95672609Y-97984561D01*
X95693760Y-98008227D01*
X95714194Y-98032183D01*
X95733911Y-98056427D01*
X95752911Y-98080961D01*
X95771195Y-98105783D01*
X95788761Y-98130895D01*
X95805610Y-98156296D01*
X95821742Y-98181986D01*
X95837157Y-98207965D01*
X95851856Y-98234233D01*
X95865837Y-98260790D01*
X95879101Y-98287636D01*
X95891648Y-98314771D01*
X95903479Y-98342196D01*
X95914592Y-98369909D01*
X95924988Y-98397912D01*
X95934667Y-98426203D01*
X95943630Y-98454784D01*
X95951875Y-98483654D01*
X95959403Y-98512813D01*
X95966215Y-98542261D01*
X95972309Y-98571998D01*
X95977687Y-98602024D01*
X95982347Y-98632339D01*
X95986290Y-98662943D01*
X95989517Y-98693837D01*
X95992026Y-98725019D01*
X95993819Y-98756491D01*
X95994894Y-98788251D01*
X95995253Y-98820301D01*
X95994894Y-98852308D01*
X95993819Y-98884034D01*
X95992026Y-98915478D01*
X95989517Y-98946639D01*
X95986290Y-98977519D01*
X95982347Y-99008117D01*
X95977687Y-99038433D01*
X95972309Y-99068467D01*
X95966215Y-99098219D01*
X95959403Y-99127689D01*
X95951875Y-99156877D01*
X95943630Y-99185784D01*
X95934667Y-99214408D01*
X95924988Y-99242750D01*
X95914592Y-99270811D01*
X95903479Y-99298590D01*
X95891648Y-99326086D01*
X95879101Y-99353301D01*
X95865837Y-99380234D01*
X95851856Y-99406885D01*
X95837157Y-99433253D01*
X95821742Y-99459340D01*
X95805610Y-99485145D01*
X95788761Y-99510669D01*
X95771195Y-99535910D01*
X95752911Y-99560869D01*
X95733911Y-99585546D01*
X95714194Y-99609942D01*
X95693760Y-99634055D01*
X95672609Y-99657887D01*
X95650741Y-99681437D01*
X95628156Y-99704704D01*
X95605068Y-99727425D01*
X95581693Y-99749424D01*
X95558031Y-99770701D01*
X95534080Y-99791258D01*
X95509842Y-99811093D01*
X95485317Y-99830207D01*
X95460503Y-99848600D01*
X95435402Y-99866271D01*
X95410014Y-99883221D01*
X95384338Y-99899450D01*
X95358374Y-99914957D01*
X95332122Y-99929744D01*
X95305583Y-99943809D01*
X95278756Y-99957152D01*
X95251641Y-99969775D01*
X95224239Y-99981676D01*
X95196549Y-99992856D01*
X95168572Y-100003314D01*
X95140307Y-100013051D01*
X95111754Y-100022067D01*
X95082913Y-100030362D01*
X95053785Y-100037936D01*
X95024370Y-100044788D01*
X94994666Y-100050919D01*
X94964675Y-100056328D01*
X94934396Y-100061016D01*
X94903830Y-100064984D01*
X94872976Y-100068229D01*
X94841834Y-100070754D01*
X94810405Y-100072557D01*
X94778688Y-100073639D01*
X94746683Y-100074000D01*
X94714640Y-100073639D01*
X94682899Y-100072557D01*
X94651459Y-100070754D01*
X94620322Y-100068229D01*
X94589487Y-100064984D01*
X94558953Y-100061016D01*
X94528722Y-100056328D01*
X94498792Y-100050919D01*
X94469165Y-100044788D01*
X94439839Y-100037936D01*
X94410815Y-100030362D01*
X94382094Y-100022067D01*
X94353674Y-100013051D01*
X94325556Y-100003314D01*
X94297740Y-99992856D01*
X94270227Y-99981676D01*
X94243015Y-99969775D01*
X94216105Y-99957152D01*
X94189497Y-99943809D01*
X94163191Y-99929744D01*
X94137187Y-99914957D01*
X94111485Y-99899450D01*
X94086085Y-99883221D01*
X94060987Y-99866271D01*
X94036191Y-99848600D01*
X94011697Y-99830207D01*
X93987504Y-99811093D01*
X93963614Y-99791258D01*
X93940026Y-99770701D01*
X93916740Y-99749424D01*
X93893755Y-99727425D01*
X93871073Y-99704704D01*
X93848848Y-99681437D01*
X93827329Y-99657887D01*
X93806516Y-99634055D01*
X93786408Y-99609942D01*
X93767006Y-99585546D01*
X93748309Y-99560869D01*
X93730318Y-99535910D01*
X93713032Y-99510669D01*
X93696452Y-99485145D01*
X93680578Y-99459340D01*
X93665409Y-99433253D01*
X93650945Y-99406885D01*
X93637187Y-99380234D01*
X93624135Y-99353301D01*
X93611788Y-99326086D01*
X93600146Y-99298590D01*
X93589211Y-99270811D01*
X93578980Y-99242750D01*
X93569456Y-99214408D01*
X93560636Y-99185784D01*
X93552523Y-99156877D01*
X93545114Y-99127689D01*
X93538412Y-99098219D01*
X93532415Y-99068467D01*
X93527123Y-99038433D01*
X93522537Y-99008117D01*
X93518657Y-98977519D01*
X93515482Y-98946639D01*
X93513013Y-98915478D01*
X93511249Y-98884034D01*
X93510190Y-98852308D01*
X93509902Y-98826163D01*
X93995637Y-98826163D01*
X93996504Y-98864837D01*
X93999106Y-98902825D01*
X94003442Y-98940125D01*
X94009513Y-98976739D01*
X94017318Y-99012665D01*
X94026858Y-99047905D01*
X94038132Y-99082457D01*
X94051141Y-99116323D01*
X94065884Y-99149502D01*
X94082362Y-99181994D01*
X94100574Y-99213799D01*
X94120521Y-99244917D01*
X94142202Y-99275348D01*
X94165618Y-99305092D01*
X94190769Y-99334150D01*
X94217653Y-99362520D01*
X94245675Y-99389671D01*
X94274417Y-99415070D01*
X94303881Y-99438718D01*
X94334066Y-99460614D01*
X94364972Y-99480758D01*
X94396599Y-99499151D01*
X94428948Y-99515792D01*
X94462018Y-99530681D01*
X94495810Y-99543819D01*
X94530322Y-99555205D01*
X94565556Y-99564839D01*
X94601512Y-99572722D01*
X94638188Y-99578852D01*
X94675586Y-99583232D01*
X94713705Y-99585859D01*
X94752545Y-99586735D01*
X94791388Y-99585859D01*
X94829516Y-99583232D01*
X94866928Y-99578852D01*
X94903625Y-99572722D01*
X94939606Y-99564839D01*
X94974871Y-99555205D01*
X95009421Y-99543819D01*
X95043255Y-99530681D01*
X95076374Y-99515792D01*
X95108777Y-99499151D01*
X95140465Y-99480758D01*
X95171437Y-99460614D01*
X95201693Y-99438718D01*
X95231234Y-99415070D01*
X95260060Y-99389671D01*
X95288170Y-99362520D01*
X95314966Y-99334150D01*
X95340033Y-99305092D01*
X95363372Y-99275348D01*
X95384982Y-99244917D01*
X95404863Y-99213799D01*
X95423015Y-99181994D01*
X95439438Y-99149502D01*
X95454133Y-99116323D01*
X95467099Y-99082457D01*
X95478336Y-99047905D01*
X95487844Y-99012665D01*
X95495624Y-98976739D01*
X95501674Y-98940125D01*
X95505996Y-98902825D01*
X95508589Y-98864837D01*
X95509454Y-98826163D01*
X95508587Y-98787385D01*
X95505985Y-98749272D01*
X95501649Y-98711823D01*
X95495578Y-98675038D01*
X95487772Y-98638916D01*
X95478233Y-98603459D01*
X95466958Y-98568666D01*
X95453950Y-98534537D01*
X95439206Y-98501072D01*
X95422728Y-98468271D01*
X95404516Y-98436134D01*
X95384569Y-98404661D01*
X95362888Y-98373852D01*
X95339472Y-98343707D01*
X95314322Y-98314226D01*
X95287437Y-98285409D01*
X95259330Y-98257814D01*
X95230513Y-98232000D01*
X95200987Y-98207966D01*
X95170750Y-98185712D01*
X95139804Y-98165239D01*
X95108148Y-98146546D01*
X95075782Y-98129633D01*
X95042706Y-98114500D01*
X95008920Y-98101148D01*
X94974425Y-98089576D01*
X94939219Y-98079784D01*
X94903304Y-98071773D01*
X94866679Y-98065542D01*
X94829344Y-98061091D01*
X94791300Y-98058421D01*
X94752545Y-98057531D01*
X94713791Y-98058421D01*
X94675746Y-98061091D01*
X94638411Y-98065542D01*
X94601786Y-98071773D01*
X94565871Y-98079784D01*
X94530666Y-98089576D01*
X94496170Y-98101148D01*
X94462385Y-98114500D01*
X94429309Y-98129633D01*
X94396943Y-98146546D01*
X94365287Y-98165239D01*
X94334340Y-98185712D01*
X94304104Y-98207966D01*
X94274577Y-98232000D01*
X94245760Y-98257814D01*
X94217653Y-98285409D01*
X94190769Y-98314226D01*
X94165618Y-98343707D01*
X94142202Y-98373852D01*
X94120521Y-98404661D01*
X94100574Y-98436134D01*
X94082362Y-98468271D01*
X94065884Y-98501072D01*
X94051141Y-98534537D01*
X94038132Y-98568666D01*
X94026858Y-98603459D01*
X94017318Y-98638916D01*
X94009513Y-98675038D01*
X94003442Y-98711823D01*
X93999106Y-98749272D01*
X93996504Y-98787385D01*
X93995637Y-98826163D01*
X93509902Y-98826163D01*
X93509838Y-98820301D01*
X93510190Y-98788251D01*
X93511249Y-98756491D01*
X93513013Y-98725019D01*
X93515482Y-98693837D01*
X93518657Y-98662943D01*
X93522537Y-98632339D01*
X93527123Y-98602024D01*
X93532415Y-98571998D01*
X93538412Y-98542261D01*
X93545114Y-98512813D01*
X93552523Y-98483654D01*
X93560636Y-98454784D01*
X93569456Y-98426203D01*
X93578980Y-98397912D01*
X93589211Y-98369909D01*
X93600146Y-98342196D01*
X93611788Y-98314771D01*
X93624135Y-98287636D01*
X93637187Y-98260790D01*
X93650945Y-98234233D01*
X93665409Y-98207965D01*
X93680578Y-98181986D01*
X93696452Y-98156296D01*
X93713032Y-98130895D01*
X93730318Y-98105783D01*
X93748309Y-98080961D01*
X93767006Y-98056427D01*
X93786408Y-98032183D01*
X93806516Y-98008227D01*
X93827329Y-97984561D01*
X93848848Y-97961184D01*
X93871073Y-97938096D01*
X93893755Y-97915466D01*
X93916740Y-97893554D01*
X93940026Y-97872361D01*
X93963614Y-97851886D01*
X93987504Y-97832129D01*
X94011697Y-97813091D01*
X94036191Y-97794772D01*
X94060987Y-97777170D01*
X94086085Y-97760287D01*
X94111485Y-97744123D01*
X94137187Y-97728677D01*
X94163191Y-97713950D01*
X94189497Y-97699940D01*
X94216105Y-97686650D01*
X94243015Y-97674077D01*
X94270227Y-97662224D01*
X94297740Y-97651088D01*
X94325556Y-97640671D01*
X94353674Y-97630972D01*
X94382094Y-97621992D01*
X94410815Y-97613730D01*
X94439839Y-97606187D01*
X94469165Y-97599362D01*
X94498792Y-97593255D01*
X94528722Y-97587867D01*
X94558953Y-97583198D01*
X94589487Y-97579246D01*
X94620322Y-97576013D01*
X94651459Y-97573499D01*
X94682899Y-97571703D01*
X94714640Y-97570625D01*
X94746683Y-97570266D01*
X94778688Y-97570625D01*
G37*
G36*
X90007395Y-99422604D02*
G01*
X90022433Y-99452162D01*
X90038788Y-99481485D01*
X90056459Y-99510574D01*
X90075447Y-99539428D01*
X90095752Y-99568048D01*
X90117373Y-99596432D01*
X90140311Y-99624582D01*
X90164565Y-99652497D01*
X90190137Y-99680178D01*
X90217024Y-99707624D01*
X90245229Y-99734835D01*
X90274750Y-99761811D01*
X90305587Y-99788553D01*
X90337741Y-99815060D01*
X90371212Y-99841332D01*
X90406000Y-99867370D01*
X90441875Y-99892392D01*
X90478792Y-99915799D01*
X90516750Y-99937592D01*
X90555751Y-99957770D01*
X90595793Y-99976335D01*
X90636878Y-99993285D01*
X90679004Y-100008621D01*
X90722172Y-100022342D01*
X90766382Y-100034449D01*
X90811633Y-100044942D01*
X90857927Y-100053821D01*
X90905262Y-100061085D01*
X90953640Y-100066735D01*
X91003059Y-100070771D01*
X91053520Y-100073192D01*
X91105023Y-100074000D01*
X91139796Y-100073630D01*
X91174142Y-100072523D01*
X91208060Y-100070676D01*
X91241550Y-100068092D01*
X91274613Y-100064769D01*
X91307247Y-100060707D01*
X91339453Y-100055907D01*
X91371232Y-100050369D01*
X91402583Y-100044092D01*
X91433505Y-100037077D01*
X91464000Y-100029323D01*
X91494067Y-100020831D01*
X91523706Y-100011600D01*
X91552917Y-100001631D01*
X91581700Y-99990924D01*
X91610056Y-99979478D01*
X91637983Y-99967293D01*
X91665483Y-99954370D01*
X91692554Y-99940709D01*
X91719198Y-99926309D01*
X91745414Y-99911171D01*
X91771202Y-99895294D01*
X91796562Y-99878679D01*
X91821494Y-99861325D01*
X91845998Y-99843233D01*
X91870074Y-99824402D01*
X91893723Y-99804833D01*
X91916943Y-99784526D01*
X91939736Y-99763480D01*
X91962100Y-99741696D01*
X91984037Y-99719173D01*
X92005546Y-99695912D01*
X92026508Y-99672179D01*
X92046805Y-99648244D01*
X92066436Y-99624106D01*
X92085402Y-99599764D01*
X92103702Y-99575219D01*
X92121337Y-99550471D01*
X92138306Y-99525519D01*
X92154610Y-99500365D01*
X92170249Y-99475007D01*
X92185222Y-99449446D01*
X92199529Y-99423681D01*
X92213171Y-99397714D01*
X92238459Y-99345169D01*
X92261085Y-99291812D01*
X92281049Y-99237641D01*
X92298351Y-99182658D01*
X92312991Y-99126862D01*
X92324970Y-99070253D01*
X92334286Y-99012831D01*
X92340941Y-98954596D01*
X92343270Y-98925174D01*
X92344934Y-98895549D01*
X92345932Y-98865720D01*
X92346265Y-98835688D01*
X92345928Y-98805608D01*
X92344919Y-98775725D01*
X92343238Y-98746039D01*
X92340884Y-98716551D01*
X92337857Y-98687261D01*
X92334157Y-98658168D01*
X92324741Y-98600574D01*
X92312634Y-98543770D01*
X92297836Y-98487757D01*
X92280348Y-98432533D01*
X92260169Y-98378099D01*
X92237300Y-98324456D01*
X92211740Y-98271602D01*
X92197952Y-98245471D01*
X92183490Y-98219538D01*
X92168356Y-98193802D01*
X92152550Y-98168264D01*
X92136070Y-98142923D01*
X92118918Y-98117780D01*
X92101094Y-98092835D01*
X92082597Y-98068086D01*
X92063427Y-98043536D01*
X92043585Y-98019183D01*
X92023070Y-97995027D01*
X92001882Y-97971069D01*
X91980112Y-97947537D01*
X91957941Y-97924752D01*
X91935370Y-97902714D01*
X91912398Y-97881424D01*
X91889025Y-97860880D01*
X91865251Y-97841084D01*
X91841077Y-97822034D01*
X91816502Y-97803732D01*
X91791526Y-97786176D01*
X91766150Y-97769368D01*
X91740373Y-97753307D01*
X91714195Y-97737992D01*
X91687616Y-97723425D01*
X91660637Y-97709605D01*
X91633257Y-97696532D01*
X91605476Y-97684205D01*
X91577295Y-97672626D01*
X91548713Y-97661794D01*
X91519730Y-97651709D01*
X91490346Y-97642371D01*
X91460562Y-97633780D01*
X91430377Y-97625936D01*
X91399791Y-97618839D01*
X91368805Y-97612490D01*
X91337418Y-97606887D01*
X91305630Y-97602031D01*
X91273441Y-97597922D01*
X91240852Y-97594561D01*
X91207862Y-97591946D01*
X91174471Y-97590078D01*
X91140680Y-97588958D01*
X91106488Y-97588584D01*
X91055071Y-97589374D01*
X91004685Y-97591744D01*
X90955328Y-97595694D01*
X90907003Y-97601224D01*
X90859707Y-97608334D01*
X90813442Y-97617023D01*
X90768208Y-97627293D01*
X90724004Y-97639143D01*
X90680830Y-97652572D01*
X90638687Y-97667582D01*
X90597574Y-97684171D01*
X90557491Y-97702340D01*
X90518439Y-97722090D01*
X90480417Y-97743419D01*
X90443426Y-97766328D01*
X90407465Y-97790817D01*
X90372586Y-97816237D01*
X90339024Y-97841937D01*
X90306778Y-97867917D01*
X90275849Y-97894178D01*
X90246236Y-97920719D01*
X90217940Y-97947541D01*
X90190961Y-97974643D01*
X90165298Y-98002026D01*
X90140952Y-98029690D01*
X90117923Y-98057634D01*
X90096210Y-98085858D01*
X90075814Y-98114363D01*
X90056734Y-98143148D01*
X90038971Y-98172214D01*
X90022525Y-98201560D01*
X90007395Y-98231187D01*
X90444101Y-98465660D01*
X90476548Y-98418457D01*
X90510139Y-98374298D01*
X90544874Y-98333185D01*
X90580755Y-98295118D01*
X90617781Y-98260096D01*
X90655952Y-98228119D01*
X90695267Y-98199188D01*
X90735727Y-98173302D01*
X90777333Y-98150461D01*
X90820083Y-98130666D01*
X90863978Y-98113916D01*
X90909018Y-98100212D01*
X90955202Y-98089553D01*
X91002532Y-98081940D01*
X91051007Y-98077371D01*
X91100626Y-98075849D01*
X91137729Y-98076676D01*
X91174300Y-98079157D01*
X91210338Y-98083293D01*
X91245844Y-98089084D01*
X91280817Y-98096528D01*
X91315258Y-98105627D01*
X91349167Y-98116381D01*
X91382543Y-98128788D01*
X91415387Y-98142850D01*
X91447699Y-98158567D01*
X91479478Y-98175938D01*
X91510725Y-98194963D01*
X91541440Y-98215642D01*
X91571622Y-98237976D01*
X91601272Y-98261965D01*
X91630389Y-98287607D01*
X91658250Y-98314564D01*
X91684313Y-98342493D01*
X91708579Y-98371396D01*
X91731047Y-98401272D01*
X91751718Y-98432121D01*
X91770592Y-98463943D01*
X91787668Y-98496738D01*
X91802946Y-98530507D01*
X91816428Y-98565248D01*
X91828111Y-98600963D01*
X91837997Y-98637651D01*
X91846086Y-98675312D01*
X91852377Y-98713947D01*
X91856871Y-98753554D01*
X91859567Y-98794135D01*
X91860466Y-98835688D01*
X91859567Y-98877139D01*
X91856871Y-98917594D01*
X91852377Y-98957052D01*
X91846086Y-98995515D01*
X91837997Y-99032981D01*
X91828111Y-99069452D01*
X91816428Y-99104926D01*
X91802946Y-99139404D01*
X91787668Y-99172887D01*
X91770592Y-99205373D01*
X91751718Y-99236863D01*
X91731047Y-99267357D01*
X91708579Y-99296855D01*
X91684313Y-99325357D01*
X91658250Y-99352863D01*
X91630389Y-99379373D01*
X91601272Y-99404483D01*
X91571622Y-99427973D01*
X91541440Y-99449844D01*
X91510725Y-99470094D01*
X91479478Y-99488724D01*
X91447699Y-99505734D01*
X91415387Y-99521124D01*
X91382543Y-99534894D01*
X91349167Y-99547045D01*
X91315258Y-99557575D01*
X91280817Y-99566485D01*
X91245844Y-99573775D01*
X91210338Y-99579445D01*
X91174300Y-99583495D01*
X91137729Y-99585925D01*
X91100626Y-99586735D01*
X91052861Y-99585149D01*
X91005921Y-99580392D01*
X90959805Y-99572464D01*
X90914513Y-99561364D01*
X90870046Y-99547093D01*
X90826403Y-99529651D01*
X90783584Y-99509037D01*
X90741589Y-99485252D01*
X90700419Y-99458296D01*
X90660073Y-99428168D01*
X90620552Y-99394869D01*
X90581854Y-99358398D01*
X90543981Y-99318757D01*
X90506933Y-99275944D01*
X90470709Y-99229959D01*
X90452906Y-99205778D01*
X90435309Y-99180803D01*
X90007395Y-99422604D01*
G37*
G36*
X89819817Y-100074000D02*
G01*
X89819817Y-98563846D01*
X89819817Y-97588584D01*
X89303976Y-97588584D01*
X89303976Y-97670650D01*
X89270432Y-97655984D01*
X89234647Y-97642760D01*
X89196621Y-97630980D01*
X89156354Y-97620641D01*
X89113846Y-97611745D01*
X89084262Y-97606616D01*
X89053682Y-97602128D01*
X89022106Y-97598281D01*
X88989534Y-97595076D01*
X88955965Y-97592511D01*
X88921401Y-97590588D01*
X88885841Y-97589306D01*
X88849285Y-97588664D01*
X88830633Y-97588584D01*
X88797504Y-97588681D01*
X88764336Y-97588971D01*
X88731129Y-97589454D01*
X88697883Y-97590130D01*
X88664599Y-97590999D01*
X88631277Y-97592062D01*
X88597915Y-97593318D01*
X88564515Y-97594767D01*
X88531077Y-97596409D01*
X88497599Y-97598244D01*
X88475260Y-97599575D01*
X88639391Y-98109554D01*
X88668614Y-98101969D01*
X88698124Y-98095243D01*
X88727919Y-98089376D01*
X88758001Y-98084367D01*
X88788370Y-98080217D01*
X88819024Y-98076925D01*
X88831366Y-98075849D01*
X88888596Y-98077815D01*
X88942134Y-98083714D01*
X88991979Y-98093546D01*
X89038133Y-98107310D01*
X89080594Y-98125007D01*
X89119363Y-98146637D01*
X89154439Y-98172200D01*
X89185823Y-98201695D01*
X89213515Y-98235123D01*
X89237515Y-98272483D01*
X89257822Y-98313777D01*
X89274438Y-98359003D01*
X89287361Y-98408161D01*
X89296591Y-98461253D01*
X89302130Y-98518277D01*
X89303514Y-98548263D01*
X89303976Y-98579233D01*
X89303976Y-100074000D01*
X89819817Y-100074000D01*
G37*
G36*
X87900801Y-96862450D02*
G01*
X87878847Y-96885359D01*
X87860615Y-96909663D01*
X87846104Y-96935362D01*
X87833601Y-96968043D01*
X87827276Y-96996812D01*
X87824671Y-97026976D01*
X87824597Y-97033176D01*
X87826457Y-97063462D01*
X87832039Y-97092496D01*
X87843648Y-97125683D01*
X87857415Y-97151962D01*
X87874903Y-97176988D01*
X87896112Y-97200763D01*
X87900801Y-97205367D01*
X87924868Y-97226476D01*
X87949902Y-97244007D01*
X87975902Y-97257961D01*
X88008376Y-97269982D01*
X88042242Y-97276851D01*
X88071526Y-97278640D01*
X88106199Y-97276064D01*
X88139327Y-97268336D01*
X88170908Y-97255456D01*
X88200945Y-97237424D01*
X88224794Y-97218462D01*
X88238588Y-97205367D01*
X88259275Y-97181650D01*
X88276456Y-97156752D01*
X88290130Y-97130674D01*
X88301911Y-97097821D01*
X88308643Y-97063269D01*
X88310396Y-97033176D01*
X88308643Y-97002944D01*
X88303383Y-96974071D01*
X88292444Y-96941219D01*
X88276456Y-96910324D01*
X88259275Y-96886074D01*
X88238588Y-96863183D01*
X88215383Y-96842496D01*
X88191104Y-96825316D01*
X88160553Y-96809327D01*
X88128456Y-96798388D01*
X88094813Y-96792498D01*
X88071526Y-96791376D01*
X88042242Y-96793111D01*
X88008376Y-96799774D01*
X87975902Y-96811435D01*
X87949902Y-96824970D01*
X87924868Y-96841975D01*
X87900801Y-96862450D01*
G37*
G36*
X87824597Y-97635479D02*
G01*
X87824597Y-100074000D01*
X88310396Y-100074000D01*
X88310396Y-97635479D01*
X87824597Y-97635479D01*
G37*
G36*
X86880110Y-100074000D02*
G01*
X87395951Y-100074000D01*
X87395951Y-98559450D01*
X87394860Y-98507881D01*
X87391589Y-98457406D01*
X87386136Y-98408024D01*
X87378503Y-98359735D01*
X87368688Y-98312540D01*
X87356692Y-98266438D01*
X87342516Y-98221430D01*
X87326158Y-98177515D01*
X87307620Y-98134693D01*
X87286900Y-98092965D01*
X87263999Y-98052330D01*
X87238918Y-98012788D01*
X87211655Y-97974340D01*
X87182211Y-97936985D01*
X87150587Y-97900724D01*
X87116781Y-97865556D01*
X87081327Y-97832016D01*
X87044756Y-97800641D01*
X87007069Y-97771429D01*
X86968266Y-97744381D01*
X86928347Y-97719497D01*
X86887311Y-97696776D01*
X86845159Y-97676220D01*
X86801891Y-97657827D01*
X86757507Y-97641598D01*
X86712006Y-97627533D01*
X86665389Y-97615632D01*
X86617656Y-97605895D01*
X86568806Y-97598322D01*
X86518840Y-97592912D01*
X86467758Y-97589666D01*
X86415560Y-97588584D01*
X86384053Y-97588882D01*
X86353095Y-97589775D01*
X86322687Y-97591263D01*
X86292828Y-97593347D01*
X86263519Y-97596026D01*
X86220585Y-97601161D01*
X86178889Y-97607635D01*
X86138428Y-97615449D01*
X86099204Y-97624602D01*
X86061217Y-97635095D01*
X86024466Y-97646928D01*
X85988952Y-97660100D01*
X85977388Y-97664788D01*
X85940706Y-97679377D01*
X85906497Y-97694017D01*
X85874760Y-97708709D01*
X85845497Y-97723452D01*
X85818707Y-97738247D01*
X85786833Y-97758054D01*
X85759356Y-97777952D01*
X85736275Y-97797941D01*
X85713606Y-97823057D01*
X85669642Y-97882408D01*
X85648354Y-97859405D01*
X85625399Y-97836021D01*
X85611024Y-97821592D01*
X85587926Y-97801439D01*
X85561515Y-97782402D01*
X85535697Y-97765704D01*
X85505713Y-97747700D01*
X85471561Y-97728392D01*
X85443212Y-97713054D01*
X85412519Y-97696982D01*
X85379482Y-97680175D01*
X85344497Y-97663807D01*
X85308238Y-97649049D01*
X85270704Y-97635900D01*
X85231894Y-97624362D01*
X85191809Y-97614434D01*
X85150450Y-97606115D01*
X85107815Y-97599407D01*
X85078683Y-97595829D01*
X85048985Y-97592967D01*
X85018720Y-97590820D01*
X84987888Y-97589389D01*
X84956489Y-97588674D01*
X84940577Y-97588584D01*
X84884618Y-97589577D01*
X84830130Y-97592557D01*
X84777113Y-97597523D01*
X84725567Y-97604475D01*
X84675493Y-97613414D01*
X84626889Y-97624339D01*
X84579757Y-97637251D01*
X84534096Y-97652148D01*
X84489906Y-97669033D01*
X84447188Y-97687903D01*
X84405940Y-97708760D01*
X84366164Y-97731604D01*
X84327859Y-97756434D01*
X84291025Y-97783250D01*
X84255662Y-97812052D01*
X84221771Y-97842841D01*
X84189562Y-97875350D01*
X84159431Y-97909496D01*
X84131379Y-97945280D01*
X84105404Y-97982701D01*
X84081507Y-98021759D01*
X84059689Y-98062454D01*
X84039948Y-98104786D01*
X84022285Y-98148755D01*
X84006700Y-98194362D01*
X83993194Y-98241606D01*
X83981765Y-98290487D01*
X83972414Y-98341005D01*
X83965141Y-98393160D01*
X83959946Y-98446953D01*
X83956829Y-98502383D01*
X83955790Y-98559450D01*
X83955790Y-100074000D01*
X84441589Y-100074000D01*
X84441589Y-98563113D01*
X84445253Y-98516219D01*
X84452466Y-98486079D01*
X84460709Y-98456816D01*
X84469725Y-98427454D01*
X84478792Y-98399496D01*
X84480424Y-98394586D01*
X84491037Y-98365125D01*
X84503093Y-98336643D01*
X84516591Y-98309140D01*
X84531532Y-98282616D01*
X84547915Y-98257070D01*
X84553697Y-98248773D01*
X84572862Y-98224258D01*
X84595737Y-98200722D01*
X84622321Y-98178165D01*
X84647308Y-98160115D01*
X84674872Y-98142745D01*
X84698777Y-98129338D01*
X84730462Y-98113928D01*
X84764150Y-98101131D01*
X84792543Y-98092773D01*
X84822219Y-98086087D01*
X84853177Y-98081072D01*
X84885417Y-98077729D01*
X84918939Y-98076058D01*
X84936181Y-98075849D01*
X84970184Y-98076685D01*
X85002951Y-98079192D01*
X85034481Y-98083371D01*
X85064775Y-98089221D01*
X85093832Y-98096743D01*
X85128415Y-98108496D01*
X85161066Y-98122861D01*
X85173585Y-98129338D01*
X85203209Y-98146003D01*
X85230257Y-98163026D01*
X85254729Y-98180407D01*
X85280695Y-98201736D01*
X85302952Y-98223581D01*
X85318665Y-98242178D01*
X85337949Y-98269231D01*
X85355410Y-98298458D01*
X85368926Y-98325240D01*
X85381102Y-98353619D01*
X85391938Y-98383595D01*
X85401280Y-98412472D01*
X85410096Y-98442059D01*
X85417423Y-98470464D01*
X85422713Y-98500099D01*
X85425217Y-98529330D01*
X85426362Y-98558960D01*
X85426376Y-98562381D01*
X85426376Y-100074000D01*
X85912175Y-100074000D01*
X85912175Y-98563113D01*
X85915839Y-98511090D01*
X85920919Y-98478804D01*
X85929002Y-98448029D01*
X85939005Y-98417495D01*
X85949756Y-98388644D01*
X85951743Y-98383595D01*
X85963970Y-98353842D01*
X85977022Y-98325583D01*
X85990898Y-98298819D01*
X86008128Y-98269482D01*
X86026481Y-98242178D01*
X86048270Y-98216242D01*
X86071522Y-98194569D01*
X86099000Y-98173412D01*
X86125125Y-98156174D01*
X86154183Y-98139294D01*
X86173027Y-98129338D01*
X86205871Y-98113928D01*
X86233279Y-98103481D01*
X86261695Y-98094706D01*
X86291119Y-98087602D01*
X86321550Y-98082169D01*
X86352989Y-98078408D01*
X86385435Y-98076319D01*
X86410431Y-98075849D01*
X86445430Y-98076673D01*
X86478987Y-98079146D01*
X86511101Y-98083268D01*
X86541772Y-98089038D01*
X86571001Y-98096457D01*
X86605509Y-98108049D01*
X86637763Y-98122217D01*
X86650033Y-98128605D01*
X86678795Y-98145521D01*
X86705088Y-98163295D01*
X86728912Y-98181928D01*
X86754243Y-98205422D01*
X86776019Y-98230151D01*
X86791450Y-98251704D01*
X86807412Y-98277859D01*
X86821778Y-98304117D01*
X86836519Y-98334881D01*
X86849086Y-98365786D01*
X86858128Y-98392387D01*
X86866693Y-98422466D01*
X86873906Y-98454351D01*
X86878371Y-98483580D01*
X86880110Y-98513288D01*
X86880110Y-98562381D01*
X86880110Y-100074000D01*
G37*
G36*
X82525074Y-97588947D02*
G01*
X82558680Y-97590035D01*
X82591884Y-97591849D01*
X82624686Y-97594389D01*
X82657085Y-97597654D01*
X82689083Y-97601645D01*
X82720678Y-97606361D01*
X82751871Y-97611803D01*
X82782662Y-97617970D01*
X82813051Y-97624863D01*
X82843038Y-97632481D01*
X82872623Y-97640826D01*
X82901805Y-97649895D01*
X82930586Y-97659690D01*
X82958964Y-97670211D01*
X82986940Y-97681458D01*
X83014514Y-97693430D01*
X83041686Y-97706127D01*
X83068455Y-97719550D01*
X83094823Y-97733699D01*
X83120788Y-97748573D01*
X83146351Y-97764173D01*
X83171512Y-97780498D01*
X83196271Y-97797549D01*
X83220628Y-97815326D01*
X83244583Y-97833828D01*
X83268135Y-97853056D01*
X83291286Y-97873009D01*
X83314034Y-97893688D01*
X83336380Y-97915092D01*
X83358324Y-97937222D01*
X83379866Y-97960078D01*
X83400828Y-97983368D01*
X83421124Y-98006895D01*
X83440756Y-98030658D01*
X83459721Y-98054657D01*
X83478022Y-98078892D01*
X83495657Y-98103363D01*
X83512626Y-98128071D01*
X83528930Y-98153014D01*
X83544568Y-98178194D01*
X83559541Y-98203610D01*
X83587491Y-98255150D01*
X83612779Y-98307634D01*
X83635405Y-98361063D01*
X83655369Y-98415437D01*
X83672671Y-98470755D01*
X83687311Y-98527018D01*
X83699289Y-98584225D01*
X83704280Y-98613183D01*
X83708606Y-98642377D01*
X83712266Y-98671807D01*
X83715261Y-98701473D01*
X83717590Y-98731375D01*
X83719253Y-98761514D01*
X83720252Y-98791888D01*
X83720584Y-98822499D01*
X83720257Y-98853700D01*
X83719276Y-98884655D01*
X83717641Y-98915364D01*
X83715352Y-98945827D01*
X83712409Y-98976043D01*
X83708812Y-99006013D01*
X83704561Y-99035737D01*
X83699656Y-99065215D01*
X83694097Y-99094447D01*
X83687883Y-99123433D01*
X83681016Y-99152173D01*
X83673495Y-99180666D01*
X83665320Y-99208913D01*
X83656491Y-99236914D01*
X83647007Y-99264669D01*
X83636870Y-99292178D01*
X83626079Y-99319441D01*
X83614633Y-99346457D01*
X83602534Y-99373228D01*
X83589781Y-99399752D01*
X83576373Y-99426030D01*
X83562312Y-99452062D01*
X83547597Y-99477848D01*
X83532227Y-99503387D01*
X83516204Y-99528681D01*
X83499526Y-99553728D01*
X83482195Y-99578529D01*
X83464209Y-99603084D01*
X83445570Y-99627393D01*
X83426276Y-99651456D01*
X83406329Y-99675272D01*
X83385727Y-99698842D01*
X83364579Y-99721923D01*
X83342992Y-99744272D01*
X83320965Y-99765887D01*
X83298498Y-99786770D01*
X83275593Y-99806920D01*
X83252248Y-99826337D01*
X83228463Y-99845022D01*
X83204240Y-99862974D01*
X83179577Y-99880193D01*
X83154474Y-99896679D01*
X83128932Y-99912433D01*
X83102951Y-99927454D01*
X83076531Y-99941742D01*
X83049671Y-99955297D01*
X83022372Y-99968120D01*
X82994633Y-99980210D01*
X82966456Y-99991568D01*
X82937838Y-100002192D01*
X82908782Y-100012084D01*
X82879286Y-100021243D01*
X82849351Y-100029669D01*
X82818976Y-100037363D01*
X82788162Y-100044324D01*
X82756909Y-100050552D01*
X82725216Y-100056048D01*
X82693084Y-100060810D01*
X82660513Y-100064840D01*
X82627502Y-100068138D01*
X82594052Y-100070702D01*
X82560163Y-100072534D01*
X82525834Y-100073633D01*
X82491066Y-100074000D01*
X82455574Y-100073590D01*
X82420541Y-100072362D01*
X82385965Y-100070316D01*
X82351847Y-100067451D01*
X82318188Y-100063767D01*
X82284986Y-100059265D01*
X82252242Y-100053944D01*
X82219956Y-100047804D01*
X82188128Y-100040846D01*
X82156758Y-100033070D01*
X82125846Y-100024474D01*
X82095392Y-100015061D01*
X82065396Y-100004828D01*
X82035858Y-99993777D01*
X82006778Y-99981908D01*
X81978156Y-99969219D01*
X81950029Y-99955856D01*
X81922617Y-99942143D01*
X81895921Y-99928081D01*
X81869941Y-99913669D01*
X81832312Y-99891398D01*
X81796293Y-99868340D01*
X81761884Y-99844497D01*
X81729085Y-99819869D01*
X81697896Y-99794454D01*
X81668318Y-99768254D01*
X81640349Y-99741268D01*
X81613990Y-99713497D01*
X81597085Y-99694672D01*
X81572566Y-99666596D01*
X81549052Y-99638713D01*
X81526542Y-99611023D01*
X81505036Y-99583526D01*
X81484536Y-99556223D01*
X81465040Y-99529113D01*
X81446548Y-99502196D01*
X81429062Y-99475472D01*
X81412580Y-99448941D01*
X81397102Y-99422604D01*
X81382395Y-99396187D01*
X81368500Y-99369693D01*
X81355416Y-99343121D01*
X81343143Y-99316473D01*
X81328042Y-99280821D01*
X81314384Y-99245032D01*
X81302168Y-99209105D01*
X81291395Y-99173041D01*
X81282064Y-99136840D01*
X81745881Y-99013741D01*
X81758280Y-99047599D01*
X81771481Y-99080477D01*
X81785483Y-99112376D01*
X81800286Y-99143297D01*
X81815891Y-99173239D01*
X81832297Y-99202201D01*
X81849505Y-99230185D01*
X81867514Y-99257190D01*
X81886324Y-99283217D01*
X81905936Y-99308264D01*
X81926350Y-99332332D01*
X81947564Y-99355422D01*
X81969581Y-99377532D01*
X81992398Y-99398664D01*
X82016017Y-99418817D01*
X82040438Y-99437991D01*
X82065468Y-99456003D01*
X82090916Y-99472853D01*
X82116782Y-99488541D01*
X82143066Y-99503067D01*
X82169767Y-99516430D01*
X82196887Y-99528632D01*
X82224424Y-99539672D01*
X82252379Y-99549549D01*
X82280753Y-99558265D01*
X82309544Y-99565818D01*
X82338753Y-99572209D01*
X82368380Y-99577439D01*
X82398424Y-99581506D01*
X82428887Y-99584411D01*
X82459767Y-99586154D01*
X82491066Y-99586735D01*
X82539995Y-99585353D01*
X82587683Y-99581205D01*
X82634128Y-99574293D01*
X82679331Y-99564616D01*
X82723292Y-99552174D01*
X82766011Y-99536967D01*
X82807487Y-99518995D01*
X82847721Y-99498258D01*
X82886713Y-99474756D01*
X82924463Y-99448490D01*
X82960971Y-99419458D01*
X82996236Y-99387662D01*
X83030260Y-99353101D01*
X83063041Y-99315774D01*
X83094579Y-99275683D01*
X83124876Y-99232827D01*
X83124876Y-99224767D01*
X81269607Y-98733839D01*
X81241031Y-98733839D01*
X81241437Y-98722316D01*
X81244682Y-98692778D01*
X81249867Y-98661551D01*
X81255637Y-98632242D01*
X81262850Y-98599086D01*
X81271505Y-98562083D01*
X81278943Y-98531806D01*
X81287193Y-98499366D01*
X81288582Y-98491659D01*
X81295372Y-98460558D01*
X81304130Y-98429022D01*
X81312508Y-98404053D01*
X81856027Y-98404053D01*
X83228923Y-98779268D01*
X83231854Y-98792457D01*
X83234785Y-98764614D01*
X83234610Y-98757887D01*
X83231122Y-98728710D01*
X83229977Y-98722248D01*
X83223794Y-98693539D01*
X83207674Y-98653239D01*
X83196142Y-98620850D01*
X83183712Y-98589262D01*
X83170382Y-98558476D01*
X83156154Y-98528492D01*
X83141027Y-98499309D01*
X83125002Y-98470927D01*
X83108078Y-98443346D01*
X83090255Y-98416568D01*
X83071533Y-98390590D01*
X83051912Y-98365414D01*
X83031393Y-98341039D01*
X83009975Y-98317466D01*
X82987658Y-98294694D01*
X82964443Y-98272724D01*
X82940329Y-98251555D01*
X82915316Y-98231187D01*
X82902597Y-98221630D01*
X82876957Y-98203427D01*
X82851048Y-98186436D01*
X82824870Y-98170660D01*
X82798423Y-98156097D01*
X82771707Y-98142747D01*
X82744722Y-98130612D01*
X82703740Y-98114683D01*
X82662153Y-98101486D01*
X82619960Y-98091019D01*
X82577162Y-98083282D01*
X82533759Y-98078276D01*
X82504487Y-98076456D01*
X82474946Y-98075849D01*
X82441912Y-98076511D01*
X82410131Y-98078496D01*
X82379602Y-98081806D01*
X82350325Y-98086439D01*
X82316845Y-98093746D01*
X82285169Y-98102960D01*
X82251200Y-98114535D01*
X82218170Y-98127094D01*
X82186079Y-98140638D01*
X82154927Y-98155167D01*
X82124713Y-98170680D01*
X82095438Y-98187178D01*
X82067102Y-98204660D01*
X82039705Y-98223127D01*
X82013247Y-98242579D01*
X81987727Y-98263015D01*
X81963146Y-98284436D01*
X81939504Y-98306841D01*
X81916801Y-98330232D01*
X81895037Y-98354606D01*
X81874211Y-98379965D01*
X81856027Y-98404053D01*
X81312508Y-98404053D01*
X81314858Y-98397051D01*
X81327554Y-98364645D01*
X81342220Y-98331804D01*
X81358856Y-98298527D01*
X81377460Y-98264816D01*
X81392706Y-98239247D01*
X81403445Y-98221959D01*
X81420326Y-98195770D01*
X81438135Y-98169272D01*
X81456871Y-98142464D01*
X81476534Y-98115347D01*
X81497125Y-98087922D01*
X81518643Y-98060187D01*
X81541089Y-98032143D01*
X81564462Y-98003789D01*
X81588762Y-97975127D01*
X81613990Y-97946156D01*
X81631424Y-97926950D01*
X81659066Y-97898936D01*
X81688499Y-97871875D01*
X81719722Y-97845768D01*
X81752736Y-97820613D01*
X81787540Y-97796412D01*
X81824134Y-97773163D01*
X81849525Y-97758194D01*
X81875711Y-97743648D01*
X81902693Y-97729526D01*
X81930471Y-97715827D01*
X81959045Y-97702552D01*
X81988414Y-97689701D01*
X82018198Y-97677456D01*
X82048200Y-97666002D01*
X82078419Y-97655337D01*
X82108856Y-97645462D01*
X82139511Y-97636378D01*
X82170383Y-97628083D01*
X82201472Y-97620578D01*
X82232779Y-97613863D01*
X82264303Y-97607939D01*
X82296046Y-97602804D01*
X82328005Y-97598459D01*
X82360182Y-97594904D01*
X82392577Y-97592139D01*
X82425189Y-97590164D01*
X82458019Y-97588979D01*
X82491066Y-97588584D01*
X82525074Y-97588947D01*
G37*
G36*
X80136076Y-97588584D02*
G01*
X80090421Y-97589389D01*
X80045962Y-97591801D01*
X80002700Y-97595823D01*
X79960634Y-97601453D01*
X79919764Y-97608691D01*
X79880091Y-97617539D01*
X79841614Y-97627994D01*
X79804333Y-97640058D01*
X79768249Y-97653731D01*
X79733362Y-97669013D01*
X79699671Y-97685903D01*
X79667176Y-97704401D01*
X79635877Y-97724508D01*
X79605775Y-97746224D01*
X79576870Y-97769548D01*
X79549161Y-97794481D01*
X79522657Y-97820261D01*
X79497366Y-97846310D01*
X79473289Y-97872628D01*
X79450426Y-97899215D01*
X79428776Y-97926072D01*
X79408339Y-97953197D01*
X79389117Y-97980591D01*
X79371108Y-98008255D01*
X79354312Y-98036187D01*
X79338730Y-98064388D01*
X79324362Y-98092859D01*
X79311207Y-98121599D01*
X79299266Y-98150607D01*
X79288538Y-98179885D01*
X79279024Y-98209431D01*
X79270724Y-98239247D01*
X79743334Y-98366742D01*
X79755859Y-98331517D01*
X79769987Y-98298564D01*
X79785718Y-98267884D01*
X79803051Y-98239476D01*
X79821988Y-98213341D01*
X79842527Y-98189479D01*
X79864669Y-98167889D01*
X79888414Y-98148572D01*
X79913762Y-98131528D01*
X79940713Y-98116756D01*
X79969266Y-98104256D01*
X79999422Y-98094030D01*
X80031182Y-98086075D01*
X80064544Y-98080394D01*
X80099509Y-98076985D01*
X80136076Y-98075849D01*
X80169712Y-98076589D01*
X80201378Y-98078811D01*
X80231073Y-98082514D01*
X80267600Y-98089756D01*
X80300625Y-98099630D01*
X80330146Y-98112138D01*
X80356163Y-98127279D01*
X80383759Y-98149909D01*
X80393264Y-98160113D01*
X80413951Y-98186681D01*
X80431131Y-98214180D01*
X80444805Y-98242609D01*
X80454973Y-98271968D01*
X80461635Y-98302258D01*
X80464791Y-98333477D01*
X80465071Y-98346226D01*
X80460812Y-98375523D01*
X80448035Y-98402600D01*
X80426741Y-98427455D01*
X80396928Y-98450090D01*
X80368978Y-98465608D01*
X80336237Y-98479877D01*
X80298705Y-98492897D01*
X80256381Y-98504667D01*
X80225503Y-98511819D01*
X80192496Y-98518417D01*
X80155860Y-98525744D01*
X80122466Y-98530650D01*
X80089697Y-98536025D01*
X80057551Y-98541870D01*
X80026030Y-98548184D01*
X79995132Y-98554967D01*
X79964858Y-98562220D01*
X79935208Y-98569943D01*
X79906183Y-98578134D01*
X79877781Y-98586795D01*
X79836348Y-98600667D01*
X79796319Y-98615595D01*
X79757694Y-98631579D01*
X79720473Y-98648619D01*
X79696439Y-98660566D01*
X79661659Y-98678624D01*
X79628759Y-98696527D01*
X79597740Y-98714276D01*
X79568601Y-98731870D01*
X79541343Y-98749309D01*
X79515965Y-98766594D01*
X79485053Y-98789400D01*
X79457484Y-98811932D01*
X79433258Y-98834188D01*
X79422399Y-98845214D01*
X79402203Y-98867505D01*
X79383381Y-98890414D01*
X79361785Y-98919920D01*
X79342337Y-98950392D01*
X79325034Y-98981830D01*
X79309879Y-99014234D01*
X79299300Y-99040852D01*
X79287529Y-99072977D01*
X79277404Y-99102490D01*
X79267427Y-99134458D01*
X79258781Y-99167001D01*
X79252851Y-99197924D01*
X79252406Y-99201320D01*
X79249218Y-99231929D01*
X79247073Y-99263582D01*
X79245972Y-99296278D01*
X79245811Y-99314893D01*
X79246418Y-99353212D01*
X79248238Y-99390135D01*
X79251272Y-99425661D01*
X79255520Y-99459790D01*
X79260981Y-99492522D01*
X79267656Y-99523858D01*
X79275544Y-99553797D01*
X79284646Y-99582339D01*
X79295326Y-99612587D01*
X79307034Y-99641876D01*
X79319769Y-99670204D01*
X79333532Y-99697572D01*
X79348323Y-99723979D01*
X79364141Y-99749427D01*
X79380987Y-99773914D01*
X79398860Y-99797440D01*
X79417760Y-99820007D01*
X79437689Y-99841613D01*
X79458644Y-99862259D01*
X79480628Y-99881944D01*
X79503639Y-99900670D01*
X79527677Y-99918435D01*
X79552743Y-99935240D01*
X79578836Y-99951084D01*
X79605957Y-99965969D01*
X79634106Y-99979893D01*
X79663282Y-99992856D01*
X79693485Y-100004860D01*
X79724716Y-100015903D01*
X79756975Y-100025986D01*
X79790261Y-100035108D01*
X79824575Y-100043271D01*
X79859916Y-100050473D01*
X79896285Y-100056715D01*
X79933681Y-100061996D01*
X79972105Y-100066317D01*
X80011557Y-100069678D01*
X80052036Y-100072079D01*
X80093542Y-100073519D01*
X80136076Y-100074000D01*
X80168076Y-100073636D01*
X80199595Y-100072545D01*
X80230633Y-100070728D01*
X80261190Y-100068183D01*
X80291266Y-100064912D01*
X80320861Y-100060913D01*
X80349976Y-100056188D01*
X80392746Y-100047736D01*
X80434434Y-100037649D01*
X80475040Y-100025926D01*
X80514565Y-100012568D01*
X80553007Y-99997573D01*
X80590368Y-99980943D01*
X80626305Y-99962932D01*
X80660478Y-99944072D01*
X80692886Y-99924361D01*
X80723530Y-99903800D01*
X80752409Y-99882390D01*
X80779524Y-99860129D01*
X80804874Y-99837018D01*
X80828459Y-99813057D01*
X80850280Y-99788245D01*
X80870336Y-99762584D01*
X80882727Y-99745004D01*
X80900273Y-99718266D01*
X80916919Y-99691630D01*
X80932662Y-99665097D01*
X80947504Y-99638667D01*
X80961445Y-99612340D01*
X80978630Y-99577398D01*
X80994212Y-99542640D01*
X81008191Y-99508064D01*
X81020567Y-99473672D01*
X81023411Y-99465102D01*
X81033886Y-99430595D01*
X81042965Y-99395951D01*
X81050647Y-99361169D01*
X81056933Y-99326250D01*
X81061822Y-99291194D01*
X81065313Y-99256000D01*
X81067409Y-99220668D01*
X81068107Y-99185200D01*
X80591101Y-99185200D01*
X80584100Y-99233823D01*
X80574271Y-99279310D01*
X80561614Y-99321659D01*
X80546129Y-99360871D01*
X80527817Y-99396947D01*
X80506677Y-99429885D01*
X80482708Y-99459687D01*
X80455912Y-99486351D01*
X80426288Y-99509879D01*
X80393836Y-99530269D01*
X80358557Y-99547523D01*
X80320449Y-99561639D01*
X80279514Y-99572619D01*
X80235750Y-99580461D01*
X80189159Y-99585167D01*
X80139740Y-99586735D01*
X80107500Y-99586735D01*
X80070680Y-99585896D01*
X80035692Y-99583380D01*
X80002536Y-99579187D01*
X79971212Y-99573317D01*
X79941720Y-99565769D01*
X79900916Y-99551303D01*
X79864234Y-99533063D01*
X79831673Y-99511049D01*
X79803234Y-99485261D01*
X79778917Y-99455699D01*
X79758721Y-99422363D01*
X79742647Y-99385254D01*
X79738205Y-99372046D01*
X79731610Y-99350064D01*
X79731610Y-99324418D01*
X79733368Y-99294124D01*
X79742594Y-99251517D01*
X79759729Y-99212311D01*
X79784772Y-99176504D01*
X79805860Y-99154522D01*
X79830464Y-99134052D01*
X79858583Y-99115093D01*
X79890216Y-99097644D01*
X79925364Y-99081708D01*
X79964027Y-99067282D01*
X80006204Y-99054368D01*
X80051897Y-99042965D01*
X80101104Y-99033073D01*
X80153826Y-99024692D01*
X80181505Y-99021069D01*
X80212875Y-99016664D01*
X80243604Y-99011875D01*
X80273692Y-99006703D01*
X80303138Y-99001148D01*
X80331944Y-98995208D01*
X80373950Y-98985581D01*
X80414513Y-98975090D01*
X80453634Y-98963736D01*
X80491312Y-98951519D01*
X80527548Y-98938440D01*
X80562341Y-98924497D01*
X80595692Y-98909692D01*
X80606488Y-98904565D01*
X80637578Y-98888600D01*
X80666826Y-98872030D01*
X80694233Y-98854854D01*
X80719798Y-98837074D01*
X80743520Y-98818687D01*
X80772286Y-98793231D01*
X80797777Y-98766698D01*
X80819993Y-98739089D01*
X80838935Y-98710404D01*
X80843159Y-98703064D01*
X80858776Y-98674110D01*
X80873018Y-98646232D01*
X80885887Y-98619430D01*
X80900040Y-98587441D01*
X80912047Y-98557134D01*
X80921908Y-98528508D01*
X80929621Y-98501564D01*
X80936843Y-98469321D01*
X80942570Y-98435790D01*
X80946803Y-98400971D01*
X80949190Y-98370972D01*
X80950538Y-98340078D01*
X80950870Y-98314718D01*
X80949685Y-98280200D01*
X80946888Y-98250333D01*
X80942444Y-98219464D01*
X80936355Y-98187593D01*
X80928619Y-98154720D01*
X80919239Y-98120846D01*
X80917165Y-98113951D01*
X80907823Y-98085912D01*
X80897015Y-98057485D01*
X80884742Y-98028668D01*
X80871003Y-97999462D01*
X80855799Y-97969866D01*
X80839129Y-97939882D01*
X80820994Y-97909508D01*
X80801394Y-97878745D01*
X80779595Y-97848428D01*
X80754866Y-97819394D01*
X80727205Y-97791642D01*
X80704536Y-97771669D01*
X80680219Y-97752418D01*
X80654253Y-97733888D01*
X80626638Y-97716079D01*
X80597375Y-97698992D01*
X80566463Y-97682625D01*
X80544939Y-97672115D01*
X80511464Y-97657187D01*
X80476984Y-97643728D01*
X80441500Y-97631737D01*
X80405011Y-97621214D01*
X80367517Y-97612159D01*
X80329019Y-97604573D01*
X80289516Y-97598455D01*
X80249008Y-97593805D01*
X80207496Y-97590624D01*
X80164979Y-97588911D01*
X80136076Y-97588584D01*
G37*
D12*
%TO.P,J1,1*%
%TO.N,unconnected-(J1-Pad1)*%
X140900000Y-62965000D03*
%TO.P,J1,2*%
%TO.N,unconnected-(J1-Pad2)*%
X138360000Y-61695000D03*
%TO.P,J1,3*%
%TO.N,unconnected-(J1-Pad3)*%
X140900000Y-60425000D03*
%TO.P,J1,4*%
%TO.N,/P_START*%
X138360000Y-59155000D03*
%TO.P,J1,5*%
%TO.N,/P_RST*%
X140900000Y-57885000D03*
%TO.P,J1,6*%
%TO.N,/P_PAUSE*%
X138360000Y-56615000D03*
%TO.P,J1,7*%
%TO.N,/P_END*%
X140900000Y-55345000D03*
%TO.P,J1,8*%
%TO.N,GND*%
X138360000Y-54075000D03*
%TD*%
D13*
%TO.P,SW4,1,C*%
%TO.N,/P_PAUSE*%
X131675000Y-63075000D03*
D14*
%TO.P,SW4,2,NC*%
%TO.N,unconnected-(SW4-NC-Pad2)*%
X131675000Y-65075000D03*
%TO.P,SW4,3,NO*%
%TO.N,GND*%
X131675000Y-67075000D03*
%TD*%
D15*
%TO.P,SW1,1,C*%
%TO.N,/P_START*%
X95000000Y-71000000D03*
%TO.P,SW1,2,NC*%
%TO.N,unconnected-(SW1-NC-Pad2)*%
X95000000Y-55000000D03*
%TO.P,SW1,3,NO*%
%TO.N,GND*%
X95000000Y-62000000D03*
%TD*%
D13*
%TO.P,SW3,1,C*%
%TO.N,/P_RST*%
X129700000Y-48700000D03*
D14*
%TO.P,SW3,2,NC*%
%TO.N,unconnected-(SW3-NC-Pad2)*%
X129700000Y-50700000D03*
%TO.P,SW3,3,NO*%
%TO.N,GND*%
X129700000Y-52700000D03*
%TD*%
D15*
%TO.P,SW2,1,C*%
%TO.N,/P_END*%
X120000000Y-107000000D03*
%TO.P,SW2,2,NC*%
%TO.N,unconnected-(SW2-NC-Pad2)*%
X120000000Y-91000000D03*
%TO.P,SW2,3,NO*%
%TO.N,GND*%
X120000000Y-98000000D03*
%TD*%
D16*
%TO.N,/P_RST*%
X139925000Y-48700000D02*
X129700000Y-48700000D01*
X143650000Y-56450000D02*
X143650000Y-52425000D01*
X143650000Y-52425000D02*
X139925000Y-48700000D01*
X142215000Y-57885000D02*
X143650000Y-56450000D01*
X140900000Y-57885000D02*
X142215000Y-57885000D01*
%TO.N,/P_START*%
X138360000Y-59155000D02*
X121693000Y-59155000D01*
X117856000Y-62992000D02*
X117856000Y-66548000D01*
X113284000Y-71120000D02*
X95120000Y-71120000D01*
X121693000Y-59155000D02*
G75*
G03*
X117856000Y-62992000I0J-3837000D01*
G01*
X95000000Y-71000000D02*
G75*
G03*
X95120000Y-71120000I120000J0D01*
G01*
X113284000Y-71120000D02*
G75*
G03*
X117856000Y-66548000I0J4572000D01*
G01*
%TD*%
%TA.AperFunction,Conductor*%
%TO.N,GND*%
G36*
X140002713Y-45000617D02*
G01*
X140104334Y-45004999D01*
X140410098Y-45019652D01*
X140420251Y-45020555D01*
X140593448Y-45043073D01*
X140827981Y-45076999D01*
X140836836Y-45078606D01*
X141019531Y-45118595D01*
X141022361Y-45119249D01*
X141239115Y-45172161D01*
X141246629Y-45174245D01*
X141429928Y-45231283D01*
X141433837Y-45232571D01*
X141640195Y-45304454D01*
X141646358Y-45306785D01*
X141825792Y-45380096D01*
X141830700Y-45382225D01*
X142028115Y-45472995D01*
X142032924Y-45475332D01*
X142158090Y-45539554D01*
X142205384Y-45563820D01*
X142211205Y-45567004D01*
X142400001Y-45676795D01*
X142403583Y-45678958D01*
X142566221Y-45780982D01*
X142572715Y-45785343D01*
X142753902Y-45915381D01*
X142756266Y-45917120D01*
X142905577Y-46029792D01*
X142912568Y-46035473D01*
X143091042Y-46191464D01*
X143209177Y-46297748D01*
X143220807Y-46308212D01*
X143228140Y-46315370D01*
X143439478Y-46539187D01*
X143507651Y-46612078D01*
X143511230Y-46616074D01*
X143545778Y-46656345D01*
X143637678Y-46763498D01*
X143639451Y-46765565D01*
X143641394Y-46767471D01*
X143641397Y-46767474D01*
X143824568Y-46947143D01*
X143827948Y-46950588D01*
X143873761Y-46999104D01*
X143884250Y-47005683D01*
X143924180Y-47044850D01*
X144180597Y-47256286D01*
X144183329Y-47258607D01*
X144203532Y-47276266D01*
X144206922Y-47277994D01*
X144231895Y-47298586D01*
X144560311Y-47524890D01*
X144906990Y-47722082D01*
X145269358Y-47888697D01*
X145644723Y-48023498D01*
X146030300Y-48125485D01*
X146062168Y-48131033D01*
X146064859Y-48132360D01*
X146092224Y-48136318D01*
X146095732Y-48136877D01*
X146423225Y-48193899D01*
X146478936Y-48198712D01*
X146488045Y-48202264D01*
X146557439Y-48205588D01*
X146562221Y-48205909D01*
X146820582Y-48228234D01*
X146994841Y-48228243D01*
X146994852Y-48228246D01*
X147019901Y-48228246D01*
X147020000Y-48228246D01*
X147020500Y-48228246D01*
X147027428Y-48228246D01*
X147033456Y-48228390D01*
X147034483Y-48228439D01*
X147035484Y-48228246D01*
X154813500Y-48228246D01*
X154881621Y-48248248D01*
X154928114Y-48301904D01*
X154939500Y-48354246D01*
X154939500Y-67183500D01*
X154919498Y-67251621D01*
X154865842Y-67298114D01*
X154813500Y-67309500D01*
X146328591Y-67309500D01*
X146316452Y-67305935D01*
X146281188Y-67309021D01*
X146270207Y-67309500D01*
X146270000Y-67309500D01*
X146170009Y-67309500D01*
X146085348Y-67322908D01*
X146077214Y-67321857D01*
X146062235Y-67325871D01*
X146049340Y-67328611D01*
X145972495Y-67340783D01*
X145972493Y-67340783D01*
X145972490Y-67340784D01*
X145907012Y-67362058D01*
X145873273Y-67373021D01*
X145864172Y-67373280D01*
X145852081Y-67378919D01*
X145837768Y-67384557D01*
X145815267Y-67391868D01*
X145808943Y-67393741D01*
X145775043Y-67402824D01*
X145757296Y-67415319D01*
X145676026Y-67456728D01*
X145665667Y-67458673D01*
X145655403Y-67465860D01*
X145640340Y-67474911D01*
X145595279Y-67497872D01*
X145595269Y-67497853D01*
X145588587Y-67501789D01*
X145585541Y-67503209D01*
X145571081Y-67517369D01*
X145496500Y-67571555D01*
X145485192Y-67575589D01*
X145476911Y-67583871D01*
X145461880Y-67596709D01*
X145442322Y-67610918D01*
X145436298Y-67616943D01*
X145419478Y-67631056D01*
X145415327Y-67633961D01*
X145404314Y-67648926D01*
X145338926Y-67714314D01*
X145327184Y-67720725D01*
X145321056Y-67729478D01*
X145306943Y-67746298D01*
X145300918Y-67752322D01*
X145286709Y-67771880D01*
X145273871Y-67786911D01*
X145269179Y-67791603D01*
X145261555Y-67806500D01*
X145207369Y-67881081D01*
X145195787Y-67890011D01*
X145191789Y-67898587D01*
X145187853Y-67905269D01*
X145187872Y-67905279D01*
X145164911Y-67950340D01*
X145155860Y-67965403D01*
X145151248Y-67971989D01*
X145146728Y-67986026D01*
X145105319Y-68067296D01*
X145094514Y-68078735D01*
X145083741Y-68118943D01*
X145081868Y-68125267D01*
X145074557Y-68147768D01*
X145068919Y-68162081D01*
X145064932Y-68170630D01*
X145063021Y-68183273D01*
X145030784Y-68282490D01*
X145030783Y-68282493D01*
X145030783Y-68282495D01*
X145018611Y-68359340D01*
X145015871Y-68372235D01*
X145012777Y-68383780D01*
X145012909Y-68395350D01*
X144999500Y-68480011D01*
X144999500Y-68580196D01*
X144999020Y-68591178D01*
X144996416Y-68620931D01*
X144999500Y-68638597D01*
X144999500Y-109997404D01*
X144999392Y-110002611D01*
X144990513Y-110217271D01*
X144981951Y-110413355D01*
X144981103Y-110423443D01*
X144954524Y-110636680D01*
X144928431Y-110834868D01*
X144926828Y-110844275D01*
X144882819Y-111054172D01*
X144839340Y-111250291D01*
X144837090Y-111258967D01*
X144775899Y-111464503D01*
X144715327Y-111656612D01*
X144712543Y-111664515D01*
X144635002Y-111863236D01*
X144634030Y-111865652D01*
X144557283Y-112050936D01*
X144554071Y-112058057D01*
X144460444Y-112249574D01*
X144459010Y-112252416D01*
X144366375Y-112430365D01*
X144362853Y-112436681D01*
X144253750Y-112619781D01*
X144251776Y-112622984D01*
X144143955Y-112792228D01*
X144140233Y-112797744D01*
X144016426Y-112971147D01*
X144013844Y-112974635D01*
X143891651Y-113133880D01*
X143887836Y-113138610D01*
X143750133Y-113301195D01*
X143746882Y-113304885D01*
X143611275Y-113452875D01*
X143607473Y-113456846D01*
X143456846Y-113607473D01*
X143452875Y-113611275D01*
X143304885Y-113746882D01*
X143301195Y-113750133D01*
X143138610Y-113887836D01*
X143133880Y-113891651D01*
X142974635Y-114013844D01*
X142971147Y-114016426D01*
X142797744Y-114140233D01*
X142792228Y-114143955D01*
X142622984Y-114251776D01*
X142619781Y-114253750D01*
X142436681Y-114362853D01*
X142430365Y-114366375D01*
X142252416Y-114459010D01*
X142249574Y-114460444D01*
X142058057Y-114554071D01*
X142050936Y-114557283D01*
X141865652Y-114634030D01*
X141863236Y-114635002D01*
X141664520Y-114712541D01*
X141656607Y-114715328D01*
X141464503Y-114775899D01*
X141258964Y-114837091D01*
X141250293Y-114839339D01*
X141054174Y-114882818D01*
X140844275Y-114926828D01*
X140834870Y-114928431D01*
X140636680Y-114954524D01*
X140423442Y-114981104D01*
X140413356Y-114981951D01*
X140217272Y-114990513D01*
X140002611Y-114999392D01*
X139997404Y-114999500D01*
X80002596Y-114999500D01*
X79997389Y-114999392D01*
X79782728Y-114990513D01*
X79586643Y-114981951D01*
X79576555Y-114981103D01*
X79363319Y-114954524D01*
X79165130Y-114928431D01*
X79155723Y-114926828D01*
X78945853Y-114882824D01*
X78749706Y-114839339D01*
X78741031Y-114837090D01*
X78535496Y-114775899D01*
X78343387Y-114715327D01*
X78335483Y-114712543D01*
X78136762Y-114635002D01*
X78134346Y-114634030D01*
X77949062Y-114557283D01*
X77941941Y-114554071D01*
X77750424Y-114460444D01*
X77747582Y-114459010D01*
X77569633Y-114366375D01*
X77563317Y-114362853D01*
X77380217Y-114253750D01*
X77377014Y-114251776D01*
X77207770Y-114143955D01*
X77202254Y-114140233D01*
X77028851Y-114016426D01*
X77025363Y-114013844D01*
X76866118Y-113891651D01*
X76861388Y-113887836D01*
X76698803Y-113750133D01*
X76695113Y-113746882D01*
X76547123Y-113611275D01*
X76543152Y-113607473D01*
X76392525Y-113456846D01*
X76388723Y-113452875D01*
X76253116Y-113304885D01*
X76249865Y-113301195D01*
X76112162Y-113138610D01*
X76108347Y-113133880D01*
X75986154Y-112974635D01*
X75983572Y-112971147D01*
X75859765Y-112797744D01*
X75856043Y-112792228D01*
X75748205Y-112622957D01*
X75746248Y-112619781D01*
X75637145Y-112436681D01*
X75633623Y-112430365D01*
X75540957Y-112252354D01*
X75539554Y-112249574D01*
X75514380Y-112198080D01*
X75445921Y-112058044D01*
X75442721Y-112050950D01*
X75365955Y-111865621D01*
X75364996Y-111863236D01*
X75287453Y-111664509D01*
X75284670Y-111656607D01*
X75272511Y-111618045D01*
X75224100Y-111464503D01*
X75162895Y-111258922D01*
X75160666Y-111250320D01*
X75117175Y-111054145D01*
X75073166Y-110844256D01*
X75071569Y-110834883D01*
X75045476Y-110636680D01*
X75018890Y-110423398D01*
X75018048Y-110413377D01*
X75009486Y-110217271D01*
X75003303Y-110067766D01*
X138145787Y-110067766D01*
X138175413Y-110337015D01*
X138175414Y-110337018D01*
X138243928Y-110599088D01*
X138349870Y-110848390D01*
X138490982Y-111079610D01*
X138664255Y-111287820D01*
X138664256Y-111287821D01*
X138664258Y-111287823D01*
X138865993Y-111468578D01*
X138865995Y-111468579D01*
X138865998Y-111468582D01*
X139091910Y-111618044D01*
X139174183Y-111656612D01*
X139337171Y-111733018D01*
X139337173Y-111733018D01*
X139337176Y-111733020D01*
X139596569Y-111811060D01*
X139596572Y-111811060D01*
X139596574Y-111811061D01*
X139864558Y-111850500D01*
X139864561Y-111850500D01*
X140065330Y-111850500D01*
X140067631Y-111850500D01*
X140270156Y-111835677D01*
X140534553Y-111776780D01*
X140787558Y-111680014D01*
X141023777Y-111547441D01*
X141238177Y-111381888D01*
X141426186Y-111186881D01*
X141583799Y-110966579D01*
X141707656Y-110725675D01*
X141795118Y-110469305D01*
X141844319Y-110202933D01*
X141854212Y-109932235D01*
X141824586Y-109662982D01*
X141756072Y-109400912D01*
X141650130Y-109151610D01*
X141509018Y-108920390D01*
X141335745Y-108712180D01*
X141230759Y-108618112D01*
X141134006Y-108531421D01*
X141134003Y-108531419D01*
X141134002Y-108531418D01*
X140908090Y-108381956D01*
X140908086Y-108381954D01*
X140662828Y-108266981D01*
X140403425Y-108188938D01*
X140135442Y-108149500D01*
X140135439Y-108149500D01*
X139932369Y-108149500D01*
X139930099Y-108149666D01*
X139930075Y-108149667D01*
X139729839Y-108164323D01*
X139465449Y-108223219D01*
X139212441Y-108319985D01*
X138976225Y-108452557D01*
X138761820Y-108618114D01*
X138573815Y-108813117D01*
X138416200Y-109033422D01*
X138292342Y-109274328D01*
X138204882Y-109530693D01*
X138155681Y-109797065D01*
X138145787Y-110067766D01*
X75003303Y-110067766D01*
X75000608Y-110002611D01*
X75000500Y-109997404D01*
X75000500Y-107546472D01*
X117491500Y-107546472D01*
X117491501Y-107549546D01*
X117491803Y-107552617D01*
X117491804Y-107552628D01*
X117506091Y-107697701D01*
X117563758Y-107887802D01*
X117657406Y-108063007D01*
X117783431Y-108216568D01*
X117936992Y-108342593D01*
X117936996Y-108342595D01*
X118112196Y-108436241D01*
X118207247Y-108465074D01*
X118302298Y-108493908D01*
X118324474Y-108496092D01*
X118450453Y-108508500D01*
X121549546Y-108508499D01*
X121697701Y-108493908D01*
X121887804Y-108436241D01*
X122063004Y-108342595D01*
X122063005Y-108342593D01*
X122063007Y-108342593D01*
X122216568Y-108216568D01*
X122342593Y-108063007D01*
X122342595Y-108063004D01*
X122436241Y-107887804D01*
X122493908Y-107697701D01*
X122508500Y-107549547D01*
X122508499Y-106450454D01*
X122493908Y-106302299D01*
X122436241Y-106112196D01*
X122342595Y-105936996D01*
X122342593Y-105936992D01*
X122216568Y-105783431D01*
X122063007Y-105657406D01*
X121887802Y-105563758D01*
X121697701Y-105506091D01*
X121552627Y-105491803D01*
X121552619Y-105491802D01*
X121549547Y-105491500D01*
X121546454Y-105491500D01*
X118453547Y-105491500D01*
X118453526Y-105491500D01*
X118450454Y-105491501D01*
X118447383Y-105491803D01*
X118447371Y-105491804D01*
X118302298Y-105506091D01*
X118112197Y-105563758D01*
X117936992Y-105657406D01*
X117783431Y-105783431D01*
X117657406Y-105936992D01*
X117563758Y-106112197D01*
X117506091Y-106302298D01*
X117491803Y-106447372D01*
X117491500Y-106450453D01*
X117491500Y-106453544D01*
X117491500Y-106453545D01*
X117491500Y-107546452D01*
X117491500Y-107546472D01*
X75000500Y-107546472D01*
X75000500Y-90814305D01*
X78308740Y-90814305D01*
X78308740Y-101011071D01*
X99602387Y-101011071D01*
X99602387Y-98067766D01*
X109145787Y-98067766D01*
X109175413Y-98337015D01*
X109175414Y-98337018D01*
X109243928Y-98599088D01*
X109349870Y-98848390D01*
X109490982Y-99079610D01*
X109664255Y-99287820D01*
X109664256Y-99287821D01*
X109664258Y-99287823D01*
X109865993Y-99468578D01*
X109865995Y-99468579D01*
X109865998Y-99468582D01*
X110091910Y-99618044D01*
X110224104Y-99680014D01*
X110337171Y-99733018D01*
X110337173Y-99733018D01*
X110337176Y-99733020D01*
X110596569Y-99811060D01*
X110596572Y-99811060D01*
X110596574Y-99811061D01*
X110864558Y-99850500D01*
X110864561Y-99850500D01*
X111065330Y-99850500D01*
X111067631Y-99850500D01*
X111270156Y-99835677D01*
X111534553Y-99776780D01*
X111787558Y-99680014D01*
X112023777Y-99547441D01*
X112238177Y-99381888D01*
X112426186Y-99186881D01*
X112583799Y-98966579D01*
X112707656Y-98725675D01*
X112768808Y-98546425D01*
X117492000Y-98546425D01*
X117492303Y-98552598D01*
X117506584Y-98697603D01*
X117564223Y-98887609D01*
X117657823Y-99062723D01*
X117783787Y-99216212D01*
X117937276Y-99342176D01*
X118112390Y-99435776D01*
X118302396Y-99493415D01*
X118447401Y-99507696D01*
X118453574Y-99508000D01*
X119746000Y-99508000D01*
X119746000Y-98400000D01*
X120254000Y-98400000D01*
X120254000Y-99508000D01*
X121546426Y-99508000D01*
X121552598Y-99507696D01*
X121697603Y-99493415D01*
X121887609Y-99435776D01*
X122062723Y-99342176D01*
X122216212Y-99216212D01*
X122342176Y-99062723D01*
X122435776Y-98887609D01*
X122493415Y-98697603D01*
X122507696Y-98552598D01*
X122508000Y-98546425D01*
X122508000Y-98254000D01*
X121311686Y-98254000D01*
X121327641Y-98238045D01*
X121385165Y-98125148D01*
X121394253Y-98067766D01*
X127145787Y-98067766D01*
X127175413Y-98337015D01*
X127175414Y-98337018D01*
X127243928Y-98599088D01*
X127349870Y-98848390D01*
X127490982Y-99079610D01*
X127664255Y-99287820D01*
X127664256Y-99287821D01*
X127664258Y-99287823D01*
X127865993Y-99468578D01*
X127865995Y-99468579D01*
X127865998Y-99468582D01*
X128091910Y-99618044D01*
X128224104Y-99680014D01*
X128337171Y-99733018D01*
X128337173Y-99733018D01*
X128337176Y-99733020D01*
X128596569Y-99811060D01*
X128596572Y-99811060D01*
X128596574Y-99811061D01*
X128864558Y-99850500D01*
X128864561Y-99850500D01*
X129065330Y-99850500D01*
X129067631Y-99850500D01*
X129270156Y-99835677D01*
X129534553Y-99776780D01*
X129787558Y-99680014D01*
X130023777Y-99547441D01*
X130238177Y-99381888D01*
X130426186Y-99186881D01*
X130583799Y-98966579D01*
X130707656Y-98725675D01*
X130795118Y-98469305D01*
X130844319Y-98202933D01*
X130854212Y-97932235D01*
X130824586Y-97662982D01*
X130756072Y-97400912D01*
X130650130Y-97151610D01*
X130509018Y-96920390D01*
X130335745Y-96712180D01*
X130170615Y-96564223D01*
X130134006Y-96531421D01*
X130134003Y-96531419D01*
X130134002Y-96531418D01*
X129908090Y-96381956D01*
X129908086Y-96381954D01*
X129662828Y-96266981D01*
X129403425Y-96188938D01*
X129135442Y-96149500D01*
X129135439Y-96149500D01*
X128932369Y-96149500D01*
X128930099Y-96149666D01*
X128930075Y-96149667D01*
X128729839Y-96164323D01*
X128465449Y-96223219D01*
X128212441Y-96319985D01*
X127976225Y-96452557D01*
X127761820Y-96618114D01*
X127573815Y-96813117D01*
X127416200Y-97033422D01*
X127292342Y-97274328D01*
X127204882Y-97530693D01*
X127155681Y-97797065D01*
X127145787Y-98067766D01*
X121394253Y-98067766D01*
X121404986Y-98000000D01*
X121385165Y-97874852D01*
X121327641Y-97761955D01*
X121311686Y-97746000D01*
X122508000Y-97746000D01*
X122508000Y-97453574D01*
X122507696Y-97447401D01*
X122493415Y-97302396D01*
X122435776Y-97112390D01*
X122342176Y-96937276D01*
X122216212Y-96783787D01*
X122062723Y-96657823D01*
X121887609Y-96564223D01*
X121697603Y-96506584D01*
X121552598Y-96492303D01*
X121546426Y-96492000D01*
X120254000Y-96492000D01*
X120254000Y-97600000D01*
X119746000Y-97600000D01*
X119746000Y-96492000D01*
X118453574Y-96492000D01*
X118447401Y-96492303D01*
X118302396Y-96506584D01*
X118112390Y-96564223D01*
X117937276Y-96657823D01*
X117783787Y-96783787D01*
X117657823Y-96937276D01*
X117564223Y-97112390D01*
X117506584Y-97302396D01*
X117492303Y-97447401D01*
X117492000Y-97453574D01*
X117492000Y-97746000D01*
X118688314Y-97746000D01*
X118672359Y-97761955D01*
X118614835Y-97874852D01*
X118595014Y-98000000D01*
X118614835Y-98125148D01*
X118672359Y-98238045D01*
X118688314Y-98254000D01*
X117492000Y-98254000D01*
X117492000Y-98546425D01*
X112768808Y-98546425D01*
X112795118Y-98469305D01*
X112844319Y-98202933D01*
X112854212Y-97932235D01*
X112824586Y-97662982D01*
X112756072Y-97400912D01*
X112650130Y-97151610D01*
X112509018Y-96920390D01*
X112335745Y-96712180D01*
X112170615Y-96564223D01*
X112134006Y-96531421D01*
X112134003Y-96531419D01*
X112134002Y-96531418D01*
X111908090Y-96381956D01*
X111908086Y-96381954D01*
X111662828Y-96266981D01*
X111403425Y-96188938D01*
X111135442Y-96149500D01*
X111135439Y-96149500D01*
X110932369Y-96149500D01*
X110930099Y-96149666D01*
X110930075Y-96149667D01*
X110729839Y-96164323D01*
X110465449Y-96223219D01*
X110212441Y-96319985D01*
X109976225Y-96452557D01*
X109761820Y-96618114D01*
X109573815Y-96813117D01*
X109416200Y-97033422D01*
X109292342Y-97274328D01*
X109204882Y-97530693D01*
X109155681Y-97797065D01*
X109145787Y-98067766D01*
X99602387Y-98067766D01*
X99602387Y-91546472D01*
X117491500Y-91546472D01*
X117491501Y-91549546D01*
X117491803Y-91552617D01*
X117491804Y-91552628D01*
X117506091Y-91697701D01*
X117563758Y-91887802D01*
X117657406Y-92063007D01*
X117783431Y-92216568D01*
X117936992Y-92342593D01*
X117936996Y-92342595D01*
X118112196Y-92436241D01*
X118207247Y-92465074D01*
X118302298Y-92493908D01*
X118324474Y-92496092D01*
X118450453Y-92508500D01*
X121549546Y-92508499D01*
X121697701Y-92493908D01*
X121887804Y-92436241D01*
X122063004Y-92342595D01*
X122063005Y-92342593D01*
X122063007Y-92342593D01*
X122216568Y-92216568D01*
X122342593Y-92063007D01*
X122342595Y-92063004D01*
X122436241Y-91887804D01*
X122493908Y-91697701D01*
X122508500Y-91549547D01*
X122508499Y-90450454D01*
X122493908Y-90302299D01*
X122436241Y-90112196D01*
X122342595Y-89936996D01*
X122342593Y-89936992D01*
X122216568Y-89783431D01*
X122063007Y-89657406D01*
X121887802Y-89563758D01*
X121697701Y-89506091D01*
X121552627Y-89491803D01*
X121552619Y-89491802D01*
X121549547Y-89491500D01*
X121546454Y-89491500D01*
X118453547Y-89491500D01*
X118453526Y-89491500D01*
X118450454Y-89491501D01*
X118447383Y-89491803D01*
X118447371Y-89491804D01*
X118302298Y-89506091D01*
X118112197Y-89563758D01*
X117936992Y-89657406D01*
X117783431Y-89783431D01*
X117657406Y-89936992D01*
X117563758Y-90112197D01*
X117506091Y-90302298D01*
X117491803Y-90447372D01*
X117491500Y-90450453D01*
X117491500Y-90453544D01*
X117491500Y-90453545D01*
X117491500Y-91546452D01*
X117491500Y-91546472D01*
X99602387Y-91546472D01*
X99602387Y-90814305D01*
X78308740Y-90814305D01*
X75000500Y-90814305D01*
X75000500Y-71546472D01*
X92491500Y-71546472D01*
X92491501Y-71549546D01*
X92491803Y-71552617D01*
X92491804Y-71552628D01*
X92506091Y-71697701D01*
X92563758Y-71887802D01*
X92657406Y-72063007D01*
X92783431Y-72216568D01*
X92936992Y-72342593D01*
X92936996Y-72342595D01*
X93112196Y-72436241D01*
X93207247Y-72465074D01*
X93302298Y-72493908D01*
X93324474Y-72496092D01*
X93450453Y-72508500D01*
X96549546Y-72508499D01*
X96697701Y-72493908D01*
X96887804Y-72436241D01*
X97063004Y-72342595D01*
X97063005Y-72342593D01*
X97063007Y-72342593D01*
X97216565Y-72216571D01*
X97216566Y-72216569D01*
X97216568Y-72216568D01*
X97342595Y-72063004D01*
X97342595Y-72063002D01*
X97348698Y-72055567D01*
X97407376Y-72015598D01*
X97446098Y-72009500D01*
X113507275Y-72009500D01*
X113509889Y-72009500D01*
X113960125Y-71972192D01*
X114405742Y-71897832D01*
X114843696Y-71786927D01*
X115270996Y-71640234D01*
X115684723Y-71458757D01*
X116082050Y-71243734D01*
X116460264Y-70996635D01*
X116816781Y-70719146D01*
X117149165Y-70413165D01*
X117455146Y-70080781D01*
X117732635Y-69724264D01*
X117979734Y-69346050D01*
X118194757Y-68948723D01*
X118376234Y-68534996D01*
X118522927Y-68107696D01*
X118633832Y-67669742D01*
X118708192Y-67224125D01*
X118745500Y-66773889D01*
X118745500Y-66548000D01*
X118745500Y-66460392D01*
X118745500Y-65075000D01*
X130486429Y-65075000D01*
X130506667Y-65293396D01*
X130566689Y-65504357D01*
X130664458Y-65700703D01*
X130796637Y-65875735D01*
X130913448Y-65982222D01*
X130950315Y-66042896D01*
X130948526Y-66113870D01*
X130913449Y-66168452D01*
X130797006Y-66274605D01*
X130664885Y-66449560D01*
X130567159Y-66645821D01*
X130517317Y-66821000D01*
X131363314Y-66821000D01*
X131347359Y-66836955D01*
X131289835Y-66949852D01*
X131270014Y-67075000D01*
X131289835Y-67200148D01*
X131347359Y-67313045D01*
X131363314Y-67329000D01*
X130517317Y-67329000D01*
X130567159Y-67504178D01*
X130664885Y-67700439D01*
X130797006Y-67875394D01*
X130959032Y-68023101D01*
X131145429Y-68138513D01*
X131349869Y-68217713D01*
X131421000Y-68231009D01*
X131420999Y-67386685D01*
X131436955Y-67402641D01*
X131549852Y-67460165D01*
X131643519Y-67475000D01*
X131706481Y-67475000D01*
X131800148Y-67460165D01*
X131913045Y-67402641D01*
X131929000Y-67386685D01*
X131929000Y-68231008D01*
X132000130Y-68217713D01*
X132204570Y-68138513D01*
X132390967Y-68023101D01*
X132552993Y-67875394D01*
X132685114Y-67700439D01*
X132782840Y-67504178D01*
X132832683Y-67329000D01*
X131986686Y-67329000D01*
X132002641Y-67313045D01*
X132060165Y-67200148D01*
X132079986Y-67075000D01*
X132060165Y-66949852D01*
X132002641Y-66836955D01*
X131986686Y-66821000D01*
X132832683Y-66821000D01*
X132782840Y-66645821D01*
X132685114Y-66449560D01*
X132552993Y-66274605D01*
X132436550Y-66168452D01*
X132399684Y-66107777D01*
X132401473Y-66036803D01*
X132436548Y-65982225D01*
X132553364Y-65875734D01*
X132685543Y-65700701D01*
X132783309Y-65504361D01*
X132843332Y-65293399D01*
X132863570Y-65075000D01*
X132843332Y-64856601D01*
X132783309Y-64645639D01*
X132685543Y-64449299D01*
X132609686Y-64348849D01*
X132584597Y-64282435D01*
X132599397Y-64212998D01*
X132634727Y-64172050D01*
X132713261Y-64113261D01*
X132800889Y-63996204D01*
X132851989Y-63859201D01*
X132858500Y-63798638D01*
X132858500Y-62351362D01*
X132851989Y-62290799D01*
X132800889Y-62153796D01*
X132800888Y-62153794D01*
X132713261Y-62036738D01*
X132596205Y-61949111D01*
X132508672Y-61916463D01*
X132459201Y-61898011D01*
X132398638Y-61891500D01*
X130951362Y-61891500D01*
X130948013Y-61891859D01*
X130948013Y-61891860D01*
X130890799Y-61898011D01*
X130753794Y-61949111D01*
X130636738Y-62036738D01*
X130549111Y-62153794D01*
X130530783Y-62202934D01*
X130498011Y-62290799D01*
X130491500Y-62351362D01*
X130491500Y-63798638D01*
X130492835Y-63811060D01*
X130498011Y-63859200D01*
X130549111Y-63996205D01*
X130636738Y-64113261D01*
X130715271Y-64172050D01*
X130757818Y-64228885D01*
X130762883Y-64299701D01*
X130740312Y-64348850D01*
X130664458Y-64449296D01*
X130566689Y-64645642D01*
X130506667Y-64856603D01*
X130486429Y-65075000D01*
X118745500Y-65075000D01*
X118745499Y-62995538D01*
X118745698Y-62988473D01*
X118757282Y-62782191D01*
X118763636Y-62669045D01*
X118765218Y-62655009D01*
X118818216Y-62343083D01*
X118821355Y-62329333D01*
X118908948Y-62025291D01*
X118913609Y-62011971D01*
X119034693Y-61719646D01*
X119040811Y-61706944D01*
X119193861Y-61430019D01*
X119201359Y-61418085D01*
X119384472Y-61160014D01*
X119393252Y-61149003D01*
X119604088Y-60913078D01*
X119614079Y-60903088D01*
X119850003Y-60692252D01*
X119861014Y-60683472D01*
X120119085Y-60500359D01*
X120131019Y-60492861D01*
X120407944Y-60339811D01*
X120420646Y-60333693D01*
X120712971Y-60212609D01*
X120726291Y-60207948D01*
X121030333Y-60120355D01*
X121044083Y-60117216D01*
X121356013Y-60064217D01*
X121370045Y-60062636D01*
X121689474Y-60044697D01*
X121696539Y-60044500D01*
X121780608Y-60044500D01*
X137400552Y-60044500D01*
X137468673Y-60064502D01*
X137489642Y-60081400D01*
X137540219Y-60131977D01*
X137670252Y-60223028D01*
X137722321Y-60259487D01*
X137722322Y-60259487D01*
X137722323Y-60259488D01*
X137832375Y-60310806D01*
X137885659Y-60357722D01*
X137905120Y-60425999D01*
X137884578Y-60493959D01*
X137832374Y-60539194D01*
X137802991Y-60552895D01*
X137722322Y-60590512D01*
X137540215Y-60718025D01*
X137383025Y-60875215D01*
X137255512Y-61057322D01*
X137161559Y-61258807D01*
X137104022Y-61473532D01*
X137084647Y-61695000D01*
X137104022Y-61916467D01*
X137144564Y-62067766D01*
X137161560Y-62131196D01*
X137218824Y-62254000D01*
X137255512Y-62332678D01*
X137383025Y-62514784D01*
X137540215Y-62671974D01*
X137722321Y-62799487D01*
X137722322Y-62799487D01*
X137722323Y-62799488D01*
X137923804Y-62893440D01*
X138074739Y-62933883D01*
X138138532Y-62950977D01*
X138138533Y-62950977D01*
X138138537Y-62950978D01*
X138360000Y-62970353D01*
X138581463Y-62950978D01*
X138796196Y-62893440D01*
X138997677Y-62799488D01*
X139179781Y-62671977D01*
X139336977Y-62514781D01*
X139464488Y-62332677D01*
X139558440Y-62131196D01*
X139615978Y-61916463D01*
X139635353Y-61695000D01*
X139615978Y-61473537D01*
X139558440Y-61258804D01*
X139464488Y-61057324D01*
X139336977Y-60875219D01*
X139336976Y-60875218D01*
X139336974Y-60875215D01*
X139179784Y-60718025D01*
X138997678Y-60590512D01*
X138941300Y-60564223D01*
X138887624Y-60539193D01*
X138834341Y-60492278D01*
X138814880Y-60424001D01*
X138835422Y-60356041D01*
X138887624Y-60310806D01*
X138997677Y-60259488D01*
X139179781Y-60131977D01*
X139336977Y-59974781D01*
X139464488Y-59792677D01*
X139558440Y-59591196D01*
X139615978Y-59376463D01*
X139635353Y-59155000D01*
X139615978Y-58933537D01*
X139558440Y-58718804D01*
X139464488Y-58517324D01*
X139440783Y-58483470D01*
X139336974Y-58335215D01*
X139179784Y-58178025D01*
X138997677Y-58050512D01*
X138887626Y-57999194D01*
X138834341Y-57952276D01*
X138814880Y-57883999D01*
X138835422Y-57816039D01*
X138887624Y-57770806D01*
X138997677Y-57719488D01*
X139179781Y-57591977D01*
X139336977Y-57434781D01*
X139464488Y-57252677D01*
X139558440Y-57051196D01*
X139615978Y-56836463D01*
X139635353Y-56615000D01*
X139615978Y-56393537D01*
X139602327Y-56342593D01*
X139596803Y-56321974D01*
X139558440Y-56178804D01*
X139464488Y-55977324D01*
X139336977Y-55795219D01*
X139336976Y-55795218D01*
X139336974Y-55795215D01*
X139179784Y-55638025D01*
X138997676Y-55510511D01*
X138887035Y-55458919D01*
X138833749Y-55412002D01*
X138814288Y-55343725D01*
X138834830Y-55275765D01*
X138887035Y-55230529D01*
X138997425Y-55179053D01*
X139060603Y-55134814D01*
X139060603Y-55134812D01*
X138381791Y-54456000D01*
X138391569Y-54456000D01*
X138485421Y-54440339D01*
X138597251Y-54379820D01*
X138683371Y-54286269D01*
X138734448Y-54169823D01*
X138740538Y-54096327D01*
X139419813Y-54775603D01*
X139419814Y-54775603D01*
X139464052Y-54712427D01*
X139557968Y-54511024D01*
X139615482Y-54296376D01*
X139634850Y-54075000D01*
X139615482Y-53853623D01*
X139557968Y-53638975D01*
X139464051Y-53437571D01*
X139419815Y-53374395D01*
X139419812Y-53374395D01*
X138744392Y-54049815D01*
X138744949Y-54043102D01*
X138713734Y-53919838D01*
X138644187Y-53813388D01*
X138543843Y-53735287D01*
X138423578Y-53694000D01*
X138381790Y-53694000D01*
X139060603Y-53015186D01*
X139060603Y-53015184D01*
X138997426Y-52970947D01*
X138796024Y-52877031D01*
X138581376Y-52819517D01*
X138360000Y-52800149D01*
X138138623Y-52819517D01*
X137923975Y-52877031D01*
X137722572Y-52970948D01*
X137659394Y-53015184D01*
X138338211Y-53694000D01*
X138328431Y-53694000D01*
X138234579Y-53709661D01*
X138122749Y-53770180D01*
X138036629Y-53863731D01*
X137985552Y-53980177D01*
X137979461Y-54053670D01*
X137300184Y-53374394D01*
X137255948Y-53437572D01*
X137162031Y-53638975D01*
X137104517Y-53853623D01*
X137085149Y-54075000D01*
X137104517Y-54296376D01*
X137162031Y-54511024D01*
X137255947Y-54712426D01*
X137300184Y-54775603D01*
X137300186Y-54775603D01*
X137975607Y-54100181D01*
X137975051Y-54106898D01*
X138006266Y-54230162D01*
X138075813Y-54336612D01*
X138176157Y-54414713D01*
X138296422Y-54456000D01*
X138338210Y-54456000D01*
X137659395Y-55134813D01*
X137659395Y-55134814D01*
X137722573Y-55179052D01*
X137832965Y-55230529D01*
X137886250Y-55277446D01*
X137905711Y-55345724D01*
X137885169Y-55413683D01*
X137832965Y-55458919D01*
X137722323Y-55510512D01*
X137540215Y-55638025D01*
X137383025Y-55795215D01*
X137255512Y-55977322D01*
X137161559Y-56178807D01*
X137104022Y-56393532D01*
X137084647Y-56615000D01*
X137104022Y-56836467D01*
X137146636Y-56995500D01*
X137161560Y-57051196D01*
X137200869Y-57135494D01*
X137255512Y-57252678D01*
X137383025Y-57434784D01*
X137540215Y-57591974D01*
X137722321Y-57719487D01*
X137722322Y-57719487D01*
X137722323Y-57719488D01*
X137832375Y-57770806D01*
X137885659Y-57817722D01*
X137905120Y-57885999D01*
X137884578Y-57953959D01*
X137832374Y-57999194D01*
X137802991Y-58012895D01*
X137722322Y-58050512D01*
X137540218Y-58178023D01*
X137540219Y-58178023D01*
X137489645Y-58228596D01*
X137427336Y-58262620D01*
X137400552Y-58265500D01*
X121780608Y-58265500D01*
X121693000Y-58265500D01*
X121486637Y-58265500D01*
X121483921Y-58265737D01*
X121483912Y-58265738D01*
X121078214Y-58301231D01*
X121078195Y-58301233D01*
X121075480Y-58301471D01*
X121072796Y-58301944D01*
X121072775Y-58301947D01*
X120671716Y-58372666D01*
X120671708Y-58372667D01*
X120669024Y-58373141D01*
X120666397Y-58373844D01*
X120666383Y-58373848D01*
X120273010Y-58479251D01*
X120272990Y-58479257D01*
X120270360Y-58479962D01*
X120267779Y-58480901D01*
X120267777Y-58480902D01*
X119885105Y-58620183D01*
X119885093Y-58620187D01*
X119882524Y-58621123D01*
X119880050Y-58622276D01*
X119880037Y-58622282D01*
X119510956Y-58794387D01*
X119510939Y-58794395D01*
X119508466Y-58795549D01*
X119506089Y-58796921D01*
X119506082Y-58796925D01*
X119153416Y-59000537D01*
X119153403Y-59000544D01*
X119151034Y-59001913D01*
X119148785Y-59003487D01*
X119148783Y-59003489D01*
X118833919Y-59223959D01*
X118812948Y-59238643D01*
X118810849Y-59240403D01*
X118810848Y-59240405D01*
X118498889Y-59502169D01*
X118498873Y-59502182D01*
X118496781Y-59503939D01*
X118494839Y-59505880D01*
X118494828Y-59505891D01*
X118206891Y-59793828D01*
X118206880Y-59793839D01*
X118204939Y-59795781D01*
X118203182Y-59797873D01*
X118203169Y-59797889D01*
X117941405Y-60109848D01*
X117939643Y-60111948D01*
X117938073Y-60114188D01*
X117938070Y-60114194D01*
X117720442Y-60425000D01*
X117702913Y-60450034D01*
X117701544Y-60452403D01*
X117701537Y-60452416D01*
X117510220Y-60783787D01*
X117496549Y-60807466D01*
X117495395Y-60809939D01*
X117495387Y-60809956D01*
X117323282Y-61179037D01*
X117323276Y-61179050D01*
X117322123Y-61181524D01*
X117321187Y-61184093D01*
X117321183Y-61184105D01*
X117195035Y-61530695D01*
X117180962Y-61569360D01*
X117180257Y-61571990D01*
X117180251Y-61572010D01*
X117074848Y-61965383D01*
X117074844Y-61965397D01*
X117074141Y-61968024D01*
X117073667Y-61970708D01*
X117073666Y-61970716D01*
X117002947Y-62371775D01*
X117002944Y-62371796D01*
X117002471Y-62374480D01*
X117002233Y-62377195D01*
X117002231Y-62377214D01*
X116966801Y-62782191D01*
X116966500Y-62785637D01*
X116966500Y-62788376D01*
X116966500Y-62788377D01*
X116966500Y-66544912D01*
X116966348Y-66551095D01*
X116949071Y-66902765D01*
X116947859Y-66915070D01*
X116896650Y-67260292D01*
X116894238Y-67272419D01*
X116809437Y-67610965D01*
X116805848Y-67622798D01*
X116688271Y-67951403D01*
X116683539Y-67962827D01*
X116534320Y-68278323D01*
X116528491Y-68289228D01*
X116349067Y-68588580D01*
X116342197Y-68598861D01*
X116134298Y-68879181D01*
X116126454Y-68888739D01*
X115892078Y-69147334D01*
X115883334Y-69156078D01*
X115624739Y-69390454D01*
X115615181Y-69398298D01*
X115334861Y-69606197D01*
X115324580Y-69613067D01*
X115025228Y-69792491D01*
X115014323Y-69798320D01*
X114698827Y-69947539D01*
X114687403Y-69952271D01*
X114358798Y-70069848D01*
X114346965Y-70073437D01*
X114008419Y-70158238D01*
X113996292Y-70160650D01*
X113651070Y-70211859D01*
X113638765Y-70213071D01*
X113307303Y-70229355D01*
X113287093Y-70230348D01*
X113280912Y-70230500D01*
X97565576Y-70230500D01*
X97497455Y-70210498D01*
X97450962Y-70156842D01*
X97445002Y-70141076D01*
X97436241Y-70112197D01*
X97436241Y-70112196D01*
X97342595Y-69936996D01*
X97342593Y-69936992D01*
X97216568Y-69783431D01*
X97063007Y-69657406D01*
X96887802Y-69563758D01*
X96697701Y-69506091D01*
X96552627Y-69491803D01*
X96552619Y-69491802D01*
X96549547Y-69491500D01*
X96546454Y-69491500D01*
X93453547Y-69491500D01*
X93453526Y-69491500D01*
X93450454Y-69491501D01*
X93447383Y-69491803D01*
X93447371Y-69491804D01*
X93302298Y-69506091D01*
X93112197Y-69563758D01*
X92936992Y-69657406D01*
X92783431Y-69783431D01*
X92657406Y-69936992D01*
X92563758Y-70112197D01*
X92506091Y-70302298D01*
X92494999Y-70414926D01*
X92491500Y-70450453D01*
X92491500Y-70453544D01*
X92491500Y-70453545D01*
X92491500Y-71546452D01*
X92491500Y-71546472D01*
X75000500Y-71546472D01*
X75000500Y-62067766D01*
X84145787Y-62067766D01*
X84175413Y-62337015D01*
X84188001Y-62385165D01*
X84243928Y-62599088D01*
X84349870Y-62848390D01*
X84490982Y-63079610D01*
X84664255Y-63287820D01*
X84664256Y-63287821D01*
X84664258Y-63287823D01*
X84865993Y-63468578D01*
X84865995Y-63468579D01*
X84865998Y-63468582D01*
X85091910Y-63618044D01*
X85224104Y-63680014D01*
X85337171Y-63733018D01*
X85337173Y-63733018D01*
X85337176Y-63733020D01*
X85596569Y-63811060D01*
X85596572Y-63811060D01*
X85596574Y-63811061D01*
X85864558Y-63850500D01*
X85864561Y-63850500D01*
X86065330Y-63850500D01*
X86067631Y-63850500D01*
X86270156Y-63835677D01*
X86534553Y-63776780D01*
X86787558Y-63680014D01*
X87023777Y-63547441D01*
X87238177Y-63381888D01*
X87426186Y-63186881D01*
X87583799Y-62966579D01*
X87707656Y-62725675D01*
X87768808Y-62546425D01*
X92492000Y-62546425D01*
X92492303Y-62552598D01*
X92506584Y-62697603D01*
X92564223Y-62887609D01*
X92657823Y-63062723D01*
X92783787Y-63216212D01*
X92937276Y-63342176D01*
X93112390Y-63435776D01*
X93302396Y-63493415D01*
X93447401Y-63507696D01*
X93453574Y-63508000D01*
X94746000Y-63508000D01*
X94746000Y-62400000D01*
X95254000Y-62400000D01*
X95254000Y-63508000D01*
X96546426Y-63508000D01*
X96552598Y-63507696D01*
X96697603Y-63493415D01*
X96887609Y-63435776D01*
X97062723Y-63342176D01*
X97216212Y-63216212D01*
X97342176Y-63062723D01*
X97435776Y-62887609D01*
X97493415Y-62697603D01*
X97507696Y-62552598D01*
X97508000Y-62546425D01*
X97508000Y-62254000D01*
X96311686Y-62254000D01*
X96327641Y-62238045D01*
X96385165Y-62125148D01*
X96394253Y-62067766D01*
X102145787Y-62067766D01*
X102175413Y-62337015D01*
X102188001Y-62385165D01*
X102243928Y-62599088D01*
X102349870Y-62848390D01*
X102490982Y-63079610D01*
X102664255Y-63287820D01*
X102664256Y-63287821D01*
X102664258Y-63287823D01*
X102865993Y-63468578D01*
X102865995Y-63468579D01*
X102865998Y-63468582D01*
X103091910Y-63618044D01*
X103224104Y-63680014D01*
X103337171Y-63733018D01*
X103337173Y-63733018D01*
X103337176Y-63733020D01*
X103596569Y-63811060D01*
X103596572Y-63811060D01*
X103596574Y-63811061D01*
X103864558Y-63850500D01*
X103864561Y-63850500D01*
X104065330Y-63850500D01*
X104067631Y-63850500D01*
X104270156Y-63835677D01*
X104534553Y-63776780D01*
X104787558Y-63680014D01*
X105023777Y-63547441D01*
X105238177Y-63381888D01*
X105426186Y-63186881D01*
X105583799Y-62966579D01*
X105707656Y-62725675D01*
X105795118Y-62469305D01*
X105844319Y-62202933D01*
X105854212Y-61932235D01*
X105824586Y-61662982D01*
X105756072Y-61400912D01*
X105650130Y-61151610D01*
X105509018Y-60920390D01*
X105335745Y-60712180D01*
X105335741Y-60712176D01*
X105134006Y-60531421D01*
X105134003Y-60531419D01*
X105134002Y-60531418D01*
X104908090Y-60381956D01*
X104908086Y-60381954D01*
X104662828Y-60266981D01*
X104403425Y-60188938D01*
X104135442Y-60149500D01*
X104135439Y-60149500D01*
X103932369Y-60149500D01*
X103930099Y-60149666D01*
X103930075Y-60149667D01*
X103729839Y-60164323D01*
X103465449Y-60223219D01*
X103212441Y-60319985D01*
X102976225Y-60452557D01*
X102761820Y-60618114D01*
X102573815Y-60813117D01*
X102416200Y-61033422D01*
X102292342Y-61274328D01*
X102204882Y-61530693D01*
X102155681Y-61797065D01*
X102145787Y-62067766D01*
X96394253Y-62067766D01*
X96404986Y-62000000D01*
X96385165Y-61874852D01*
X96327641Y-61761955D01*
X96311686Y-61746000D01*
X97508000Y-61746000D01*
X97508000Y-61453574D01*
X97507696Y-61447401D01*
X97493415Y-61302396D01*
X97435776Y-61112390D01*
X97342176Y-60937276D01*
X97216212Y-60783787D01*
X97062723Y-60657823D01*
X96887609Y-60564223D01*
X96697603Y-60506584D01*
X96552598Y-60492303D01*
X96546426Y-60492000D01*
X95254000Y-60492000D01*
X95254000Y-61600000D01*
X94746000Y-61600000D01*
X94746000Y-60492000D01*
X93453574Y-60492000D01*
X93447401Y-60492303D01*
X93302396Y-60506584D01*
X93112390Y-60564223D01*
X92937276Y-60657823D01*
X92783787Y-60783787D01*
X92657823Y-60937276D01*
X92564223Y-61112390D01*
X92506584Y-61302396D01*
X92492303Y-61447401D01*
X92492000Y-61453574D01*
X92492000Y-61746000D01*
X93688314Y-61746000D01*
X93672359Y-61761955D01*
X93614835Y-61874852D01*
X93595014Y-62000000D01*
X93614835Y-62125148D01*
X93672359Y-62238045D01*
X93688314Y-62254000D01*
X92492000Y-62254000D01*
X92492000Y-62546425D01*
X87768808Y-62546425D01*
X87795118Y-62469305D01*
X87844319Y-62202933D01*
X87854212Y-61932235D01*
X87824586Y-61662982D01*
X87756072Y-61400912D01*
X87650130Y-61151610D01*
X87509018Y-60920390D01*
X87335745Y-60712180D01*
X87335741Y-60712176D01*
X87134006Y-60531421D01*
X87134003Y-60531419D01*
X87134002Y-60531418D01*
X86908090Y-60381956D01*
X86908086Y-60381954D01*
X86662828Y-60266981D01*
X86403425Y-60188938D01*
X86135442Y-60149500D01*
X86135439Y-60149500D01*
X85932369Y-60149500D01*
X85930099Y-60149666D01*
X85930075Y-60149667D01*
X85729839Y-60164323D01*
X85465449Y-60223219D01*
X85212441Y-60319985D01*
X84976225Y-60452557D01*
X84761820Y-60618114D01*
X84573815Y-60813117D01*
X84416200Y-61033422D01*
X84292342Y-61274328D01*
X84204882Y-61530693D01*
X84155681Y-61797065D01*
X84145787Y-62067766D01*
X75000500Y-62067766D01*
X75000500Y-55546472D01*
X92491500Y-55546472D01*
X92491501Y-55549546D01*
X92491803Y-55552617D01*
X92491804Y-55552628D01*
X92506091Y-55697701D01*
X92563758Y-55887802D01*
X92657406Y-56063007D01*
X92783431Y-56216568D01*
X92936992Y-56342593D01*
X92936996Y-56342595D01*
X93112196Y-56436241D01*
X93155866Y-56449488D01*
X93302298Y-56493908D01*
X93324474Y-56496092D01*
X93450453Y-56508500D01*
X96549546Y-56508499D01*
X96697701Y-56493908D01*
X96887804Y-56436241D01*
X97063004Y-56342595D01*
X97063005Y-56342593D01*
X97063007Y-56342593D01*
X97216568Y-56216568D01*
X97342593Y-56063007D01*
X97360574Y-56029367D01*
X97436241Y-55887804D01*
X97493908Y-55697701D01*
X97508500Y-55549547D01*
X97508499Y-54450454D01*
X97493908Y-54302299D01*
X97492111Y-54296376D01*
X97436241Y-54112197D01*
X97436241Y-54112196D01*
X97342595Y-53936996D01*
X97342593Y-53936992D01*
X97216568Y-53783431D01*
X97063007Y-53657406D01*
X96887802Y-53563758D01*
X96697701Y-53506091D01*
X96552627Y-53491803D01*
X96552619Y-53491802D01*
X96549547Y-53491500D01*
X96546454Y-53491500D01*
X93453547Y-53491500D01*
X93453526Y-53491500D01*
X93450454Y-53491501D01*
X93447383Y-53491803D01*
X93447371Y-53491804D01*
X93302298Y-53506091D01*
X93112197Y-53563758D01*
X92936992Y-53657406D01*
X92783431Y-53783431D01*
X92657406Y-53936992D01*
X92563758Y-54112197D01*
X92506091Y-54302298D01*
X92491803Y-54447372D01*
X92491500Y-54450453D01*
X92491500Y-54453544D01*
X92491500Y-54453545D01*
X92491500Y-55546452D01*
X92491500Y-55546472D01*
X75000500Y-55546472D01*
X75000500Y-50067766D01*
X78145787Y-50067766D01*
X78175413Y-50337015D01*
X78175414Y-50337018D01*
X78243928Y-50599088D01*
X78349870Y-50848390D01*
X78490982Y-51079610D01*
X78664255Y-51287820D01*
X78664256Y-51287821D01*
X78664258Y-51287823D01*
X78865993Y-51468578D01*
X78865995Y-51468579D01*
X78865998Y-51468582D01*
X79091910Y-51618044D01*
X79198254Y-51667896D01*
X79337171Y-51733018D01*
X79337173Y-51733018D01*
X79337176Y-51733020D01*
X79596569Y-51811060D01*
X79596572Y-51811060D01*
X79596574Y-51811061D01*
X79864558Y-51850500D01*
X79864561Y-51850500D01*
X80065330Y-51850500D01*
X80067631Y-51850500D01*
X80270156Y-51835677D01*
X80534553Y-51776780D01*
X80787558Y-51680014D01*
X81023777Y-51547441D01*
X81238177Y-51381888D01*
X81426186Y-51186881D01*
X81583799Y-50966579D01*
X81707656Y-50725675D01*
X81716415Y-50700000D01*
X128511429Y-50700000D01*
X128531667Y-50918396D01*
X128591689Y-51129357D01*
X128689458Y-51325703D01*
X128778782Y-51443987D01*
X128810416Y-51485877D01*
X128821637Y-51500735D01*
X128938448Y-51607222D01*
X128975315Y-51667896D01*
X128973526Y-51738870D01*
X128938449Y-51793452D01*
X128822006Y-51899605D01*
X128689885Y-52074560D01*
X128592159Y-52270821D01*
X128542317Y-52446000D01*
X129388314Y-52446000D01*
X129372359Y-52461955D01*
X129314835Y-52574852D01*
X129295014Y-52700000D01*
X129314835Y-52825148D01*
X129372359Y-52938045D01*
X129388314Y-52954000D01*
X128542317Y-52954000D01*
X128592159Y-53129178D01*
X128689885Y-53325439D01*
X128822006Y-53500394D01*
X128984032Y-53648101D01*
X129170429Y-53763513D01*
X129374869Y-53842713D01*
X129446000Y-53856009D01*
X129446000Y-53011686D01*
X129461955Y-53027641D01*
X129574852Y-53085165D01*
X129668519Y-53100000D01*
X129731481Y-53100000D01*
X129825148Y-53085165D01*
X129938045Y-53027641D01*
X129954000Y-53011686D01*
X129954000Y-53856008D01*
X130025130Y-53842713D01*
X130229570Y-53763513D01*
X130415967Y-53648101D01*
X130577993Y-53500394D01*
X130710114Y-53325439D01*
X130807840Y-53129178D01*
X130857683Y-52954000D01*
X130011686Y-52954000D01*
X130027641Y-52938045D01*
X130085165Y-52825148D01*
X130104986Y-52700000D01*
X130085165Y-52574852D01*
X130027641Y-52461955D01*
X130011686Y-52446000D01*
X130857683Y-52446000D01*
X130807840Y-52270821D01*
X130710114Y-52074560D01*
X130577993Y-51899605D01*
X130461550Y-51793452D01*
X130424684Y-51732777D01*
X130426473Y-51661803D01*
X130461548Y-51607225D01*
X130578364Y-51500734D01*
X130710543Y-51325701D01*
X130808309Y-51129361D01*
X130868332Y-50918399D01*
X130888570Y-50700000D01*
X130868332Y-50481601D01*
X130808309Y-50270639D01*
X130710543Y-50074299D01*
X130705609Y-50067766D01*
X130675759Y-50028238D01*
X130634686Y-49973849D01*
X130609597Y-49907435D01*
X130624397Y-49837998D01*
X130659727Y-49797050D01*
X130738261Y-49738261D01*
X130794613Y-49662984D01*
X130811826Y-49639991D01*
X130868662Y-49597444D01*
X130912694Y-49589500D01*
X139504367Y-49589500D01*
X139572488Y-49609502D01*
X139593462Y-49626405D01*
X142723595Y-52756538D01*
X142757621Y-52818850D01*
X142760500Y-52845633D01*
X142760500Y-56029367D01*
X142740498Y-56097488D01*
X142723599Y-56118457D01*
X142318940Y-56523117D01*
X141916002Y-56926055D01*
X141853690Y-56960080D01*
X141782874Y-56955015D01*
X141737812Y-56926054D01*
X141719781Y-56908023D01*
X141676230Y-56877528D01*
X141537678Y-56780512D01*
X141487247Y-56756996D01*
X141427624Y-56729193D01*
X141374341Y-56682278D01*
X141354880Y-56614001D01*
X141375422Y-56546041D01*
X141427624Y-56500806D01*
X141537677Y-56449488D01*
X141719781Y-56321977D01*
X141876977Y-56164781D01*
X142004488Y-55982677D01*
X142098440Y-55781196D01*
X142155978Y-55566463D01*
X142175353Y-55345000D01*
X142155978Y-55123537D01*
X142098440Y-54908804D01*
X142004488Y-54707324D01*
X141876977Y-54525219D01*
X141876976Y-54525218D01*
X141876974Y-54525215D01*
X141719784Y-54368025D01*
X141537678Y-54240512D01*
X141467117Y-54207609D01*
X141336196Y-54146560D01*
X141322709Y-54142946D01*
X141121467Y-54089022D01*
X140900000Y-54069647D01*
X140678532Y-54089022D01*
X140463807Y-54146559D01*
X140463806Y-54146559D01*
X140463804Y-54146560D01*
X140413917Y-54169823D01*
X140262322Y-54240512D01*
X140080215Y-54368025D01*
X139923025Y-54525215D01*
X139795512Y-54707322D01*
X139701559Y-54908807D01*
X139644022Y-55123532D01*
X139624647Y-55344999D01*
X139644022Y-55566467D01*
X139679187Y-55697701D01*
X139701560Y-55781196D01*
X139751271Y-55887802D01*
X139795512Y-55982678D01*
X139923025Y-56164784D01*
X140080215Y-56321974D01*
X140080218Y-56321976D01*
X140080219Y-56321977D01*
X140140704Y-56364329D01*
X140262321Y-56449487D01*
X140262322Y-56449487D01*
X140262323Y-56449488D01*
X140372375Y-56500806D01*
X140425659Y-56547722D01*
X140445120Y-56615999D01*
X140424578Y-56683959D01*
X140372374Y-56729194D01*
X140342991Y-56742895D01*
X140262322Y-56780512D01*
X140080215Y-56908025D01*
X139923025Y-57065215D01*
X139795512Y-57247322D01*
X139701559Y-57448807D01*
X139644022Y-57663532D01*
X139624647Y-57884999D01*
X139644022Y-58106467D01*
X139676747Y-58228595D01*
X139701560Y-58321196D01*
X139762609Y-58452117D01*
X139795512Y-58522678D01*
X139923025Y-58704784D01*
X140080215Y-58861974D01*
X140262321Y-58989487D01*
X140262322Y-58989487D01*
X140262323Y-58989488D01*
X140372375Y-59040806D01*
X140425659Y-59087722D01*
X140445120Y-59155999D01*
X140424578Y-59223959D01*
X140372374Y-59269194D01*
X140342991Y-59282895D01*
X140262322Y-59320512D01*
X140080215Y-59448025D01*
X139923025Y-59605215D01*
X139795512Y-59787322D01*
X139701559Y-59988807D01*
X139644022Y-60203532D01*
X139624647Y-60424999D01*
X139644022Y-60646467D01*
X139680818Y-60783787D01*
X139701560Y-60861196D01*
X139729163Y-60920390D01*
X139795512Y-61062678D01*
X139923025Y-61244784D01*
X140080215Y-61401974D01*
X140262321Y-61529487D01*
X140262322Y-61529487D01*
X140262323Y-61529488D01*
X140372375Y-61580806D01*
X140425659Y-61627722D01*
X140445120Y-61695999D01*
X140424578Y-61763959D01*
X140372374Y-61809194D01*
X140342991Y-61822895D01*
X140262322Y-61860512D01*
X140080215Y-61988025D01*
X139923025Y-62145215D01*
X139795512Y-62327322D01*
X139701559Y-62528807D01*
X139644022Y-62743532D01*
X139624647Y-62964999D01*
X139644022Y-63186467D01*
X139696386Y-63381885D01*
X139701560Y-63401196D01*
X139762609Y-63532117D01*
X139795512Y-63602678D01*
X139923025Y-63784784D01*
X140080215Y-63941974D01*
X140262321Y-64069487D01*
X140262322Y-64069487D01*
X140262323Y-64069488D01*
X140463804Y-64163440D01*
X140614739Y-64203883D01*
X140678532Y-64220977D01*
X140678533Y-64220977D01*
X140678537Y-64220978D01*
X140900000Y-64240353D01*
X140961187Y-64235000D01*
X145619474Y-64235000D01*
X145639548Y-64490070D01*
X145699278Y-64738861D01*
X145796058Y-64972508D01*
X145797191Y-64975243D01*
X145930877Y-65193399D01*
X145930878Y-65193401D01*
X145930880Y-65193403D01*
X146097043Y-65387956D01*
X146233332Y-65504357D01*
X146291601Y-65554123D01*
X146509757Y-65687809D01*
X146746140Y-65785722D01*
X146994930Y-65845452D01*
X147250000Y-65865526D01*
X147505070Y-65845452D01*
X147753860Y-65785722D01*
X147990243Y-65687809D01*
X148208399Y-65554123D01*
X148402956Y-65387956D01*
X148569123Y-65193399D01*
X148702809Y-64975243D01*
X148800722Y-64738860D01*
X148860452Y-64490070D01*
X148880526Y-64235000D01*
X148860452Y-63979930D01*
X148800722Y-63731140D01*
X148702809Y-63494757D01*
X148569123Y-63276601D01*
X148492496Y-63186882D01*
X148402956Y-63082043D01*
X148208403Y-62915880D01*
X148208401Y-62915878D01*
X148208399Y-62915877D01*
X147990243Y-62782191D01*
X147990241Y-62782190D01*
X147753861Y-62684278D01*
X147505070Y-62624548D01*
X147250000Y-62604474D01*
X146994929Y-62624548D01*
X146746138Y-62684278D01*
X146509758Y-62782190D01*
X146291596Y-62915880D01*
X146097043Y-63082043D01*
X145930880Y-63276596D01*
X145797190Y-63494758D01*
X145699278Y-63731138D01*
X145639548Y-63979929D01*
X145619474Y-64235000D01*
X140961187Y-64235000D01*
X141121463Y-64220978D01*
X141336196Y-64163440D01*
X141537677Y-64069488D01*
X141719781Y-63941977D01*
X141876977Y-63784781D01*
X142004488Y-63602677D01*
X142098440Y-63401196D01*
X142155978Y-63186463D01*
X142175353Y-62965000D01*
X142155978Y-62743537D01*
X142098440Y-62528804D01*
X142004488Y-62327324D01*
X141876977Y-62145219D01*
X141876976Y-62145218D01*
X141876974Y-62145215D01*
X141719784Y-61988025D01*
X141537678Y-61860512D01*
X141487247Y-61836996D01*
X141427624Y-61809193D01*
X141374341Y-61762278D01*
X141354880Y-61694001D01*
X141375422Y-61626041D01*
X141427624Y-61580806D01*
X141537677Y-61529488D01*
X141719781Y-61401977D01*
X141876977Y-61244781D01*
X142004488Y-61062677D01*
X142098440Y-60861196D01*
X142155978Y-60646463D01*
X142175353Y-60425000D01*
X142155978Y-60203537D01*
X142141543Y-60149667D01*
X142132038Y-60114194D01*
X142098440Y-59988804D01*
X142004488Y-59787324D01*
X141876977Y-59605219D01*
X141876976Y-59605218D01*
X141876974Y-59605215D01*
X141719784Y-59448025D01*
X141537678Y-59320512D01*
X141487247Y-59296996D01*
X141427624Y-59269193D01*
X141374341Y-59222278D01*
X141354880Y-59154001D01*
X141375422Y-59086041D01*
X141427624Y-59040806D01*
X141537677Y-58989488D01*
X141719781Y-58861977D01*
X141770354Y-58811403D01*
X141832664Y-58777380D01*
X141859448Y-58774500D01*
X142135076Y-58774500D01*
X142154784Y-58776051D01*
X142158098Y-58776575D01*
X142168190Y-58778174D01*
X142234998Y-58774673D01*
X142241593Y-58774500D01*
X142258320Y-58774500D01*
X142261620Y-58774500D01*
X142281581Y-58772401D01*
X142288038Y-58771892D01*
X142354915Y-58768389D01*
X142368026Y-58764875D01*
X142387471Y-58761272D01*
X142400956Y-58759855D01*
X142464605Y-58739173D01*
X142470889Y-58737312D01*
X142535524Y-58719994D01*
X142547615Y-58713832D01*
X142565873Y-58706269D01*
X142578785Y-58702075D01*
X142636774Y-58668594D01*
X142642489Y-58665491D01*
X142702125Y-58635107D01*
X142712662Y-58626572D01*
X142728965Y-58615368D01*
X142740715Y-58608585D01*
X142790450Y-58563802D01*
X142795421Y-58559556D01*
X142811006Y-58546937D01*
X142825161Y-58532780D01*
X142829948Y-58528238D01*
X142836124Y-58522677D01*
X142879669Y-58483470D01*
X142887647Y-58472487D01*
X142900483Y-58457458D01*
X144222452Y-57135488D01*
X144237484Y-57122650D01*
X144248470Y-57114669D01*
X144293249Y-57064934D01*
X144297792Y-57060149D01*
X144311936Y-57046006D01*
X144324552Y-57030425D01*
X144328786Y-57025468D01*
X144373585Y-56975715D01*
X144380373Y-56963956D01*
X144391573Y-56947662D01*
X144400106Y-56937125D01*
X144430472Y-56877528D01*
X144433611Y-56871743D01*
X144467075Y-56813785D01*
X144471267Y-56800879D01*
X144478837Y-56782608D01*
X144484994Y-56770525D01*
X144502311Y-56705896D01*
X144504176Y-56699598D01*
X144524855Y-56635956D01*
X144526272Y-56622466D01*
X144529874Y-56603025D01*
X144533388Y-56589916D01*
X144536888Y-56523111D01*
X144537406Y-56516534D01*
X144539500Y-56496620D01*
X144539500Y-56476586D01*
X144539673Y-56469992D01*
X144543174Y-56403191D01*
X144541051Y-56389785D01*
X144539500Y-56370077D01*
X144539500Y-52805000D01*
X145619474Y-52805000D01*
X145639548Y-53060070D01*
X145699278Y-53308860D01*
X145797191Y-53545243D01*
X145930877Y-53763399D01*
X145930878Y-53763401D01*
X145930880Y-53763403D01*
X146097043Y-53957956D01*
X146271433Y-54106898D01*
X146291601Y-54124123D01*
X146509757Y-54257809D01*
X146746140Y-54355722D01*
X146994930Y-54415452D01*
X147250000Y-54435526D01*
X147505070Y-54415452D01*
X147753860Y-54355722D01*
X147990243Y-54257809D01*
X148208399Y-54124123D01*
X148402956Y-53957956D01*
X148569123Y-53763399D01*
X148702809Y-53545243D01*
X148800722Y-53308860D01*
X148860452Y-53060070D01*
X148880526Y-52805000D01*
X148860452Y-52549930D01*
X148800722Y-52301140D01*
X148702809Y-52064757D01*
X148569123Y-51846601D01*
X148559792Y-51835676D01*
X148402956Y-51652043D01*
X148208403Y-51485880D01*
X148208401Y-51485878D01*
X148208399Y-51485877D01*
X147990243Y-51352191D01*
X147990241Y-51352190D01*
X147753861Y-51254278D01*
X147505070Y-51194548D01*
X147326569Y-51180500D01*
X147250000Y-51174474D01*
X147249999Y-51174474D01*
X146994929Y-51194548D01*
X146746138Y-51254278D01*
X146509758Y-51352190D01*
X146291596Y-51485880D01*
X146097043Y-51652043D01*
X145930880Y-51846596D01*
X145797190Y-52064758D01*
X145699278Y-52301138D01*
X145639548Y-52549929D01*
X145620384Y-52793443D01*
X145619474Y-52805000D01*
X144539500Y-52805000D01*
X144539500Y-52504923D01*
X144541051Y-52485214D01*
X144541140Y-52484646D01*
X144543174Y-52471810D01*
X144539673Y-52405000D01*
X144539500Y-52398406D01*
X144539500Y-52381680D01*
X144539500Y-52378380D01*
X144537407Y-52358473D01*
X144536889Y-52351890D01*
X144533389Y-52285087D01*
X144533389Y-52285085D01*
X144529875Y-52271971D01*
X144526272Y-52252529D01*
X144524855Y-52239045D01*
X144504183Y-52175424D01*
X144502309Y-52169098D01*
X144484994Y-52104476D01*
X144478832Y-52092383D01*
X144471270Y-52074126D01*
X144467075Y-52061215D01*
X144467073Y-52061211D01*
X144433619Y-52003267D01*
X144430471Y-51997469D01*
X144427180Y-51991010D01*
X144400107Y-51937875D01*
X144391561Y-51927322D01*
X144380370Y-51911038D01*
X144373585Y-51899285D01*
X144328808Y-51849555D01*
X144324543Y-51844561D01*
X144323438Y-51843197D01*
X144311937Y-51828994D01*
X144297780Y-51814837D01*
X144293257Y-51810072D01*
X144248470Y-51760331D01*
X144248468Y-51760330D01*
X144248466Y-51760327D01*
X144237483Y-51752347D01*
X144222451Y-51739508D01*
X140610488Y-48127545D01*
X140597646Y-48112510D01*
X140589668Y-48101529D01*
X140539936Y-48056750D01*
X140535152Y-48052209D01*
X140523343Y-48040400D01*
X140521006Y-48038063D01*
X140505440Y-48025458D01*
X140500435Y-48021183D01*
X140450715Y-47976415D01*
X140450713Y-47976413D01*
X140450711Y-47976412D01*
X140438961Y-47969628D01*
X140422668Y-47958430D01*
X140412128Y-47949895D01*
X140412126Y-47949894D01*
X140412125Y-47949893D01*
X140352503Y-47919514D01*
X140346722Y-47916375D01*
X140288785Y-47882925D01*
X140275872Y-47878729D01*
X140257614Y-47871166D01*
X140245524Y-47865006D01*
X140180872Y-47847682D01*
X140174590Y-47845820D01*
X140146109Y-47836567D01*
X140110954Y-47825144D01*
X140097463Y-47823726D01*
X140078031Y-47820125D01*
X140064914Y-47816610D01*
X139998111Y-47813110D01*
X139991535Y-47812593D01*
X139974890Y-47810843D01*
X139974877Y-47810842D01*
X139971620Y-47810500D01*
X139968330Y-47810500D01*
X139951593Y-47810500D01*
X139944999Y-47810327D01*
X139929008Y-47809489D01*
X139878190Y-47806826D01*
X139878189Y-47806826D01*
X139864784Y-47808949D01*
X139845076Y-47810500D01*
X130912694Y-47810500D01*
X130844573Y-47790498D01*
X130811826Y-47760009D01*
X130738261Y-47661738D01*
X130621205Y-47574111D01*
X130552702Y-47548561D01*
X130484201Y-47523011D01*
X130423638Y-47516500D01*
X128976362Y-47516500D01*
X128973013Y-47516859D01*
X128973013Y-47516860D01*
X128915799Y-47523011D01*
X128778794Y-47574111D01*
X128661738Y-47661738D01*
X128574111Y-47778794D01*
X128523011Y-47915799D01*
X128518779Y-47955168D01*
X128516500Y-47976362D01*
X128516500Y-49423638D01*
X128516860Y-49426986D01*
X128523011Y-49484200D01*
X128574111Y-49621205D01*
X128661738Y-49738261D01*
X128740271Y-49797050D01*
X128782818Y-49853885D01*
X128787883Y-49924701D01*
X128765312Y-49973850D01*
X128689458Y-50074296D01*
X128591689Y-50270642D01*
X128531667Y-50481603D01*
X128511429Y-50700000D01*
X81716415Y-50700000D01*
X81795118Y-50469305D01*
X81844319Y-50202933D01*
X81854212Y-49932235D01*
X81850584Y-49899266D01*
X81824586Y-49662984D01*
X81824586Y-49662982D01*
X81756072Y-49400912D01*
X81650130Y-49151610D01*
X81509018Y-48920390D01*
X81335745Y-48712180D01*
X81230759Y-48618112D01*
X81134006Y-48531421D01*
X81134003Y-48531419D01*
X81134002Y-48531418D01*
X80908090Y-48381956D01*
X80908086Y-48381954D01*
X80662828Y-48266981D01*
X80403425Y-48188938D01*
X80135442Y-48149500D01*
X80135439Y-48149500D01*
X79932369Y-48149500D01*
X79930099Y-48149666D01*
X79930075Y-48149667D01*
X79729839Y-48164323D01*
X79465449Y-48223219D01*
X79212441Y-48319985D01*
X78976225Y-48452557D01*
X78761820Y-48618114D01*
X78573815Y-48813117D01*
X78416200Y-49033422D01*
X78292342Y-49274328D01*
X78204882Y-49530693D01*
X78155681Y-49797065D01*
X78145787Y-50067766D01*
X75000500Y-50067766D01*
X75000500Y-50002595D01*
X75000608Y-49997388D01*
X75009493Y-49782570D01*
X75018049Y-49586620D01*
X75018892Y-49576580D01*
X75045487Y-49363223D01*
X75071569Y-49165112D01*
X75073171Y-49155722D01*
X75074033Y-49151611D01*
X75117191Y-48945778D01*
X75160672Y-48749653D01*
X75162895Y-48741078D01*
X75224112Y-48535457D01*
X75284692Y-48343324D01*
X75287443Y-48335515D01*
X75365035Y-48136663D01*
X75365927Y-48134446D01*
X75442731Y-47949024D01*
X75445903Y-47941991D01*
X75539571Y-47750391D01*
X75540956Y-47747646D01*
X75633649Y-47569584D01*
X75637145Y-47563317D01*
X75746283Y-47380158D01*
X75748167Y-47377102D01*
X75856066Y-47207735D01*
X75859741Y-47202289D01*
X75983625Y-47028778D01*
X75986100Y-47025435D01*
X76108385Y-46866069D01*
X76112141Y-46861412D01*
X76249870Y-46698796D01*
X76253084Y-46695149D01*
X76388767Y-46547076D01*
X76392479Y-46543199D01*
X76543199Y-46392479D01*
X76547076Y-46388767D01*
X76695149Y-46253084D01*
X76698803Y-46249865D01*
X76767731Y-46191486D01*
X76861412Y-46112141D01*
X76866069Y-46108385D01*
X77025435Y-45986100D01*
X77028778Y-45983625D01*
X77202289Y-45859741D01*
X77207735Y-45856066D01*
X77377102Y-45748167D01*
X77380158Y-45746283D01*
X77563323Y-45637141D01*
X77569596Y-45633643D01*
X77747708Y-45540924D01*
X77750329Y-45539601D01*
X77941979Y-45445909D01*
X77949024Y-45442731D01*
X78134446Y-45365927D01*
X78136663Y-45365035D01*
X78335508Y-45287446D01*
X78343362Y-45284680D01*
X78535457Y-45224112D01*
X78741065Y-45162899D01*
X78749665Y-45160669D01*
X78945778Y-45117191D01*
X79155751Y-45073165D01*
X79165108Y-45071570D01*
X79363189Y-45045492D01*
X79576605Y-45018889D01*
X79586617Y-45018049D01*
X79782570Y-45009493D01*
X79997388Y-45000608D01*
X80002596Y-45000500D01*
X139997285Y-45000500D01*
X140002713Y-45000617D01*
G37*
%TD.AperFunction*%
%TD*%
M02*
