M48
; DRILL file {KiCad (7.0.0)} date Tue Apr  4 21:00:25 2023
; FORMAT={-:-/ absolute / inch / decimal}
; #@! TF.CreationDate,2023-04-04T21:00:25-04:00
; #@! TF.GenerationSoftware,Kicad,Pcbnew,(7.0.0)
; #@! TF.FileFunction,Plated,1,2,PTH
FMAT,2
INCH
; #@! TA.AperFunction,Plated,PTH,ComponentDrill
T1C0.0300
; #@! TA.AperFunction,Plated,PTH,ComponentDrill
T2C0.0315
%
G90
G05
T1
X5.4472Y-2.1289
X5.4472Y-2.2289
X5.4472Y-2.3289
X5.4472Y-2.4289
X5.5472Y-2.1789
X5.5472Y-2.2789
X5.5472Y-2.3789
X5.5472Y-2.4789
T2
G00X3.6894Y-2.5744
M15
G01X3.6106Y-2.5744
M16
G05
G00X3.6894Y-2.85
M15
G01X3.6106Y-2.85
M16
G05
G00X3.6894Y-3.2043
M15
G01X3.6106Y-3.2043
M16
G05
G00X4.9144Y-3.5528
M15
G01X4.8356Y-3.5528
M16
G05
G00X4.9144Y-3.8283
M15
G01X4.8356Y-3.8283
M16
G05
G00X4.9144Y-4.1827
M15
G01X4.8356Y-4.1827
M16
G05
T0
M30
