%TF.GenerationSoftware,KiCad,Pcbnew,(7.0.0)*%
%TF.CreationDate,2023-02-23T17:38:34-05:00*%
%TF.ProjectId,TeamButton,5465616d-4275-4747-946f-6e2e6b696361,rev?*%
%TF.SameCoordinates,Original*%
%TF.FileFunction,Drillmap*%
%TF.FilePolarity,Positive*%
%FSLAX45Y45*%
G04 Gerber Fmt 4.5, Leading zero omitted, Abs format (unit mm)*
G04 Created by KiCad (PCBNEW (7.0.0)) date 2023-02-23 17:38:34*
%MOMM*%
%LPD*%
G01*
G04 APERTURE LIST*
%ADD10C,0.100000*%
%ADD11C,0.200000*%
%ADD12C,0.076200*%
%ADD13C,0.080000*%
G04 APERTURE END LIST*
D10*
X15494000Y-6731000D02*
X15494000Y-4822775D01*
D11*
X7500000Y-5000000D02*
X7500000Y-11000000D01*
X14351001Y-4661387D02*
G75*
G03*
X14000000Y-4500000I-351001J-301003D01*
G01*
X14000000Y-11500000D02*
G75*
G03*
X14500000Y-11000000I0J500000D01*
G01*
X14627000Y-6731000D02*
G75*
G03*
X14500000Y-6858000I0J-127000D01*
G01*
X8000000Y-4500000D02*
X14000000Y-4500000D01*
X14627000Y-6731000D02*
X15494000Y-6731000D01*
X8000000Y-4500000D02*
G75*
G03*
X7500000Y-5000000I0J-500000D01*
G01*
X15494000Y-4822775D02*
X14702000Y-4822775D01*
X14000000Y-11500000D02*
X8000000Y-11500000D01*
X14351001Y-4661387D02*
G75*
G03*
X14702000Y-4822775I350999J300997D01*
G01*
X14500000Y-11000000D02*
X14500000Y-6858000D01*
X7500000Y-11000000D02*
G75*
G03*
X8000000Y-11500000I500000J0D01*
G01*
D12*
X13797900Y-5369400D02*
X13874100Y-5445600D01*
X13874100Y-5369400D02*
X13797900Y-5445600D01*
X13797900Y-5623400D02*
X13874100Y-5699600D01*
X13874100Y-5623400D02*
X13797900Y-5699600D01*
X13797900Y-5877400D02*
X13874100Y-5953600D01*
X13874100Y-5877400D02*
X13797900Y-5953600D01*
X13797900Y-6131400D02*
X13874100Y-6207600D01*
X13874100Y-6131400D02*
X13797900Y-6207600D01*
X14051900Y-5496400D02*
X14128100Y-5572600D01*
X14128100Y-5496400D02*
X14051900Y-5572600D01*
X14051900Y-5750400D02*
X14128100Y-5826600D01*
X14128100Y-5750400D02*
X14051900Y-5826600D01*
X14051900Y-6004400D02*
X14128100Y-6080600D01*
X14128100Y-6004400D02*
X14051900Y-6080600D01*
X14051900Y-6258400D02*
X14128100Y-6334600D01*
X14128100Y-6258400D02*
X14051900Y-6334600D01*
D13*
X9311000Y-6539000D02*
G75*
G03*
X9311000Y-6539000I-40000J0D01*
G01*
D11*
X9371000Y-6499000D02*
X9171000Y-6499000D01*
X9171000Y-6499000D02*
G75*
G03*
X9171000Y-6579000I0J-40000D01*
G01*
X9171000Y-6579000D02*
X9371000Y-6579000D01*
X9371000Y-6579000D02*
G75*
G03*
X9371000Y-6499000I0J40000D01*
G01*
D13*
X9311000Y-7239000D02*
G75*
G03*
X9311000Y-7239000I-40000J0D01*
G01*
D11*
X9371000Y-7199000D02*
X9171000Y-7199000D01*
X9171000Y-7199000D02*
G75*
G03*
X9171000Y-7279000I0J-40000D01*
G01*
X9171000Y-7279000D02*
X9371000Y-7279000D01*
X9371000Y-7279000D02*
G75*
G03*
X9371000Y-7199000I0J40000D01*
G01*
D13*
X9311000Y-8139000D02*
G75*
G03*
X9311000Y-8139000I-40000J0D01*
G01*
D11*
X9371000Y-8099000D02*
X9171000Y-8099000D01*
X9171000Y-8099000D02*
G75*
G03*
X9171000Y-8179000I0J-40000D01*
G01*
X9171000Y-8179000D02*
X9371000Y-8179000D01*
X9371000Y-8179000D02*
G75*
G03*
X9371000Y-8099000I0J40000D01*
G01*
D13*
X12422500Y-9024000D02*
G75*
G03*
X12422500Y-9024000I-40000J0D01*
G01*
D11*
X12482500Y-8984000D02*
X12282500Y-8984000D01*
X12282500Y-8984000D02*
G75*
G03*
X12282500Y-9064000I0J-40000D01*
G01*
X12282500Y-9064000D02*
X12482500Y-9064000D01*
X12482500Y-9064000D02*
G75*
G03*
X12482500Y-8984000I0J40000D01*
G01*
D13*
X12422500Y-9724000D02*
G75*
G03*
X12422500Y-9724000I-40000J0D01*
G01*
D11*
X12482500Y-9684000D02*
X12282500Y-9684000D01*
X12282500Y-9684000D02*
G75*
G03*
X12282500Y-9764000I0J-40000D01*
G01*
X12282500Y-9764000D02*
X12482500Y-9764000D01*
X12482500Y-9764000D02*
G75*
G03*
X12482500Y-9684000I0J40000D01*
G01*
D13*
X12422500Y-10624000D02*
G75*
G03*
X12422500Y-10624000I-40000J0D01*
G01*
D11*
X12482500Y-10584000D02*
X12282500Y-10584000D01*
X12282500Y-10584000D02*
G75*
G03*
X12282500Y-10664000I0J-40000D01*
G01*
X12282500Y-10664000D02*
X12482500Y-10664000D01*
X12482500Y-10664000D02*
G75*
G03*
X12482500Y-10584000I0J40000D01*
G01*
X7737619Y-11803476D02*
X7737619Y-11603476D01*
X7737619Y-11603476D02*
X7785238Y-11603476D01*
X7785238Y-11603476D02*
X7813809Y-11613000D01*
X7813809Y-11613000D02*
X7832857Y-11632048D01*
X7832857Y-11632048D02*
X7842381Y-11651095D01*
X7842381Y-11651095D02*
X7851905Y-11689190D01*
X7851905Y-11689190D02*
X7851905Y-11717762D01*
X7851905Y-11717762D02*
X7842381Y-11755857D01*
X7842381Y-11755857D02*
X7832857Y-11774905D01*
X7832857Y-11774905D02*
X7813809Y-11793952D01*
X7813809Y-11793952D02*
X7785238Y-11803476D01*
X7785238Y-11803476D02*
X7737619Y-11803476D01*
X7937619Y-11803476D02*
X7937619Y-11670143D01*
X7937619Y-11708238D02*
X7947143Y-11689190D01*
X7947143Y-11689190D02*
X7956667Y-11679667D01*
X7956667Y-11679667D02*
X7975714Y-11670143D01*
X7975714Y-11670143D02*
X7994762Y-11670143D01*
X8061428Y-11803476D02*
X8061428Y-11670143D01*
X8061428Y-11603476D02*
X8051905Y-11613000D01*
X8051905Y-11613000D02*
X8061428Y-11622524D01*
X8061428Y-11622524D02*
X8070952Y-11613000D01*
X8070952Y-11613000D02*
X8061428Y-11603476D01*
X8061428Y-11603476D02*
X8061428Y-11622524D01*
X8185238Y-11803476D02*
X8166190Y-11793952D01*
X8166190Y-11793952D02*
X8156667Y-11774905D01*
X8156667Y-11774905D02*
X8156667Y-11603476D01*
X8290000Y-11803476D02*
X8270952Y-11793952D01*
X8270952Y-11793952D02*
X8261428Y-11774905D01*
X8261428Y-11774905D02*
X8261428Y-11603476D01*
X8486190Y-11803476D02*
X8486190Y-11603476D01*
X8486190Y-11603476D02*
X8552857Y-11746333D01*
X8552857Y-11746333D02*
X8619524Y-11603476D01*
X8619524Y-11603476D02*
X8619524Y-11803476D01*
X8800476Y-11803476D02*
X8800476Y-11698714D01*
X8800476Y-11698714D02*
X8790952Y-11679667D01*
X8790952Y-11679667D02*
X8771905Y-11670143D01*
X8771905Y-11670143D02*
X8733809Y-11670143D01*
X8733809Y-11670143D02*
X8714762Y-11679667D01*
X8800476Y-11793952D02*
X8781429Y-11803476D01*
X8781429Y-11803476D02*
X8733809Y-11803476D01*
X8733809Y-11803476D02*
X8714762Y-11793952D01*
X8714762Y-11793952D02*
X8705238Y-11774905D01*
X8705238Y-11774905D02*
X8705238Y-11755857D01*
X8705238Y-11755857D02*
X8714762Y-11736809D01*
X8714762Y-11736809D02*
X8733809Y-11727286D01*
X8733809Y-11727286D02*
X8781429Y-11727286D01*
X8781429Y-11727286D02*
X8800476Y-11717762D01*
X8895714Y-11670143D02*
X8895714Y-11870143D01*
X8895714Y-11679667D02*
X8914762Y-11670143D01*
X8914762Y-11670143D02*
X8952857Y-11670143D01*
X8952857Y-11670143D02*
X8971905Y-11679667D01*
X8971905Y-11679667D02*
X8981429Y-11689190D01*
X8981429Y-11689190D02*
X8990952Y-11708238D01*
X8990952Y-11708238D02*
X8990952Y-11765381D01*
X8990952Y-11765381D02*
X8981429Y-11784428D01*
X8981429Y-11784428D02*
X8971905Y-11793952D01*
X8971905Y-11793952D02*
X8952857Y-11803476D01*
X8952857Y-11803476D02*
X8914762Y-11803476D01*
X8914762Y-11803476D02*
X8895714Y-11793952D01*
X9076667Y-11784428D02*
X9086190Y-11793952D01*
X9086190Y-11793952D02*
X9076667Y-11803476D01*
X9076667Y-11803476D02*
X9067143Y-11793952D01*
X9067143Y-11793952D02*
X9076667Y-11784428D01*
X9076667Y-11784428D02*
X9076667Y-11803476D01*
X9076667Y-11679667D02*
X9086190Y-11689190D01*
X9086190Y-11689190D02*
X9076667Y-11698714D01*
X9076667Y-11698714D02*
X9067143Y-11689190D01*
X9067143Y-11689190D02*
X9076667Y-11679667D01*
X9076667Y-11679667D02*
X9076667Y-11698714D01*
D12*
X7413800Y-12111900D02*
X7490000Y-12188100D01*
X7490000Y-12111900D02*
X7413800Y-12188100D01*
D11*
X7775714Y-12023476D02*
X7794762Y-12023476D01*
X7794762Y-12023476D02*
X7813809Y-12033000D01*
X7813809Y-12033000D02*
X7823333Y-12042524D01*
X7823333Y-12042524D02*
X7832857Y-12061571D01*
X7832857Y-12061571D02*
X7842381Y-12099667D01*
X7842381Y-12099667D02*
X7842381Y-12147286D01*
X7842381Y-12147286D02*
X7832857Y-12185381D01*
X7832857Y-12185381D02*
X7823333Y-12204428D01*
X7823333Y-12204428D02*
X7813809Y-12213952D01*
X7813809Y-12213952D02*
X7794762Y-12223476D01*
X7794762Y-12223476D02*
X7775714Y-12223476D01*
X7775714Y-12223476D02*
X7756667Y-12213952D01*
X7756667Y-12213952D02*
X7747143Y-12204428D01*
X7747143Y-12204428D02*
X7737619Y-12185381D01*
X7737619Y-12185381D02*
X7728095Y-12147286D01*
X7728095Y-12147286D02*
X7728095Y-12099667D01*
X7728095Y-12099667D02*
X7737619Y-12061571D01*
X7737619Y-12061571D02*
X7747143Y-12042524D01*
X7747143Y-12042524D02*
X7756667Y-12033000D01*
X7756667Y-12033000D02*
X7775714Y-12023476D01*
X7928095Y-12204428D02*
X7937619Y-12213952D01*
X7937619Y-12213952D02*
X7928095Y-12223476D01*
X7928095Y-12223476D02*
X7918571Y-12213952D01*
X7918571Y-12213952D02*
X7928095Y-12204428D01*
X7928095Y-12204428D02*
X7928095Y-12223476D01*
X8004286Y-12023476D02*
X8137619Y-12023476D01*
X8137619Y-12023476D02*
X8051905Y-12223476D01*
X8299524Y-12023476D02*
X8261428Y-12023476D01*
X8261428Y-12023476D02*
X8242381Y-12033000D01*
X8242381Y-12033000D02*
X8232857Y-12042524D01*
X8232857Y-12042524D02*
X8213809Y-12071095D01*
X8213809Y-12071095D02*
X8204286Y-12109190D01*
X8204286Y-12109190D02*
X8204286Y-12185381D01*
X8204286Y-12185381D02*
X8213809Y-12204428D01*
X8213809Y-12204428D02*
X8223333Y-12213952D01*
X8223333Y-12213952D02*
X8242381Y-12223476D01*
X8242381Y-12223476D02*
X8280476Y-12223476D01*
X8280476Y-12223476D02*
X8299524Y-12213952D01*
X8299524Y-12213952D02*
X8309048Y-12204428D01*
X8309048Y-12204428D02*
X8318571Y-12185381D01*
X8318571Y-12185381D02*
X8318571Y-12137762D01*
X8318571Y-12137762D02*
X8309048Y-12118714D01*
X8309048Y-12118714D02*
X8299524Y-12109190D01*
X8299524Y-12109190D02*
X8280476Y-12099667D01*
X8280476Y-12099667D02*
X8242381Y-12099667D01*
X8242381Y-12099667D02*
X8223333Y-12109190D01*
X8223333Y-12109190D02*
X8213809Y-12118714D01*
X8213809Y-12118714D02*
X8204286Y-12137762D01*
X8394762Y-12042524D02*
X8404286Y-12033000D01*
X8404286Y-12033000D02*
X8423333Y-12023476D01*
X8423333Y-12023476D02*
X8470952Y-12023476D01*
X8470952Y-12023476D02*
X8490000Y-12033000D01*
X8490000Y-12033000D02*
X8499524Y-12042524D01*
X8499524Y-12042524D02*
X8509048Y-12061571D01*
X8509048Y-12061571D02*
X8509048Y-12080619D01*
X8509048Y-12080619D02*
X8499524Y-12109190D01*
X8499524Y-12109190D02*
X8385238Y-12223476D01*
X8385238Y-12223476D02*
X8509048Y-12223476D01*
X8594762Y-12223476D02*
X8594762Y-12090143D01*
X8594762Y-12109190D02*
X8604286Y-12099667D01*
X8604286Y-12099667D02*
X8623333Y-12090143D01*
X8623333Y-12090143D02*
X8651905Y-12090143D01*
X8651905Y-12090143D02*
X8670952Y-12099667D01*
X8670952Y-12099667D02*
X8680476Y-12118714D01*
X8680476Y-12118714D02*
X8680476Y-12223476D01*
X8680476Y-12118714D02*
X8690000Y-12099667D01*
X8690000Y-12099667D02*
X8709048Y-12090143D01*
X8709048Y-12090143D02*
X8737619Y-12090143D01*
X8737619Y-12090143D02*
X8756667Y-12099667D01*
X8756667Y-12099667D02*
X8766191Y-12118714D01*
X8766191Y-12118714D02*
X8766191Y-12223476D01*
X8861429Y-12223476D02*
X8861429Y-12090143D01*
X8861429Y-12109190D02*
X8870952Y-12099667D01*
X8870952Y-12099667D02*
X8890000Y-12090143D01*
X8890000Y-12090143D02*
X8918572Y-12090143D01*
X8918572Y-12090143D02*
X8937619Y-12099667D01*
X8937619Y-12099667D02*
X8947143Y-12118714D01*
X8947143Y-12118714D02*
X8947143Y-12223476D01*
X8947143Y-12118714D02*
X8956667Y-12099667D01*
X8956667Y-12099667D02*
X8975714Y-12090143D01*
X8975714Y-12090143D02*
X9004286Y-12090143D01*
X9004286Y-12090143D02*
X9023333Y-12099667D01*
X9023333Y-12099667D02*
X9032857Y-12118714D01*
X9032857Y-12118714D02*
X9032857Y-12223476D01*
X9390952Y-12013952D02*
X9219524Y-12271095D01*
X9615714Y-12023476D02*
X9634762Y-12023476D01*
X9634762Y-12023476D02*
X9653810Y-12033000D01*
X9653810Y-12033000D02*
X9663333Y-12042524D01*
X9663333Y-12042524D02*
X9672857Y-12061571D01*
X9672857Y-12061571D02*
X9682381Y-12099667D01*
X9682381Y-12099667D02*
X9682381Y-12147286D01*
X9682381Y-12147286D02*
X9672857Y-12185381D01*
X9672857Y-12185381D02*
X9663333Y-12204428D01*
X9663333Y-12204428D02*
X9653810Y-12213952D01*
X9653810Y-12213952D02*
X9634762Y-12223476D01*
X9634762Y-12223476D02*
X9615714Y-12223476D01*
X9615714Y-12223476D02*
X9596667Y-12213952D01*
X9596667Y-12213952D02*
X9587143Y-12204428D01*
X9587143Y-12204428D02*
X9577619Y-12185381D01*
X9577619Y-12185381D02*
X9568095Y-12147286D01*
X9568095Y-12147286D02*
X9568095Y-12099667D01*
X9568095Y-12099667D02*
X9577619Y-12061571D01*
X9577619Y-12061571D02*
X9587143Y-12042524D01*
X9587143Y-12042524D02*
X9596667Y-12033000D01*
X9596667Y-12033000D02*
X9615714Y-12023476D01*
X9768095Y-12204428D02*
X9777619Y-12213952D01*
X9777619Y-12213952D02*
X9768095Y-12223476D01*
X9768095Y-12223476D02*
X9758572Y-12213952D01*
X9758572Y-12213952D02*
X9768095Y-12204428D01*
X9768095Y-12204428D02*
X9768095Y-12223476D01*
X9901429Y-12023476D02*
X9920476Y-12023476D01*
X9920476Y-12023476D02*
X9939524Y-12033000D01*
X9939524Y-12033000D02*
X9949048Y-12042524D01*
X9949048Y-12042524D02*
X9958572Y-12061571D01*
X9958572Y-12061571D02*
X9968095Y-12099667D01*
X9968095Y-12099667D02*
X9968095Y-12147286D01*
X9968095Y-12147286D02*
X9958572Y-12185381D01*
X9958572Y-12185381D02*
X9949048Y-12204428D01*
X9949048Y-12204428D02*
X9939524Y-12213952D01*
X9939524Y-12213952D02*
X9920476Y-12223476D01*
X9920476Y-12223476D02*
X9901429Y-12223476D01*
X9901429Y-12223476D02*
X9882381Y-12213952D01*
X9882381Y-12213952D02*
X9872857Y-12204428D01*
X9872857Y-12204428D02*
X9863333Y-12185381D01*
X9863333Y-12185381D02*
X9853810Y-12147286D01*
X9853810Y-12147286D02*
X9853810Y-12099667D01*
X9853810Y-12099667D02*
X9863333Y-12061571D01*
X9863333Y-12061571D02*
X9872857Y-12042524D01*
X9872857Y-12042524D02*
X9882381Y-12033000D01*
X9882381Y-12033000D02*
X9901429Y-12023476D01*
X10034762Y-12023476D02*
X10158572Y-12023476D01*
X10158572Y-12023476D02*
X10091905Y-12099667D01*
X10091905Y-12099667D02*
X10120476Y-12099667D01*
X10120476Y-12099667D02*
X10139524Y-12109190D01*
X10139524Y-12109190D02*
X10149048Y-12118714D01*
X10149048Y-12118714D02*
X10158572Y-12137762D01*
X10158572Y-12137762D02*
X10158572Y-12185381D01*
X10158572Y-12185381D02*
X10149048Y-12204428D01*
X10149048Y-12204428D02*
X10139524Y-12213952D01*
X10139524Y-12213952D02*
X10120476Y-12223476D01*
X10120476Y-12223476D02*
X10063333Y-12223476D01*
X10063333Y-12223476D02*
X10044286Y-12213952D01*
X10044286Y-12213952D02*
X10034762Y-12204428D01*
X10282381Y-12023476D02*
X10301429Y-12023476D01*
X10301429Y-12023476D02*
X10320476Y-12033000D01*
X10320476Y-12033000D02*
X10330000Y-12042524D01*
X10330000Y-12042524D02*
X10339524Y-12061571D01*
X10339524Y-12061571D02*
X10349048Y-12099667D01*
X10349048Y-12099667D02*
X10349048Y-12147286D01*
X10349048Y-12147286D02*
X10339524Y-12185381D01*
X10339524Y-12185381D02*
X10330000Y-12204428D01*
X10330000Y-12204428D02*
X10320476Y-12213952D01*
X10320476Y-12213952D02*
X10301429Y-12223476D01*
X10301429Y-12223476D02*
X10282381Y-12223476D01*
X10282381Y-12223476D02*
X10263333Y-12213952D01*
X10263333Y-12213952D02*
X10253810Y-12204428D01*
X10253810Y-12204428D02*
X10244286Y-12185381D01*
X10244286Y-12185381D02*
X10234762Y-12147286D01*
X10234762Y-12147286D02*
X10234762Y-12099667D01*
X10234762Y-12099667D02*
X10244286Y-12061571D01*
X10244286Y-12061571D02*
X10253810Y-12042524D01*
X10253810Y-12042524D02*
X10263333Y-12033000D01*
X10263333Y-12033000D02*
X10282381Y-12023476D01*
X10472857Y-12023476D02*
X10491905Y-12023476D01*
X10491905Y-12023476D02*
X10510953Y-12033000D01*
X10510953Y-12033000D02*
X10520476Y-12042524D01*
X10520476Y-12042524D02*
X10530000Y-12061571D01*
X10530000Y-12061571D02*
X10539524Y-12099667D01*
X10539524Y-12099667D02*
X10539524Y-12147286D01*
X10539524Y-12147286D02*
X10530000Y-12185381D01*
X10530000Y-12185381D02*
X10520476Y-12204428D01*
X10520476Y-12204428D02*
X10510953Y-12213952D01*
X10510953Y-12213952D02*
X10491905Y-12223476D01*
X10491905Y-12223476D02*
X10472857Y-12223476D01*
X10472857Y-12223476D02*
X10453810Y-12213952D01*
X10453810Y-12213952D02*
X10444286Y-12204428D01*
X10444286Y-12204428D02*
X10434762Y-12185381D01*
X10434762Y-12185381D02*
X10425238Y-12147286D01*
X10425238Y-12147286D02*
X10425238Y-12099667D01*
X10425238Y-12099667D02*
X10434762Y-12061571D01*
X10434762Y-12061571D02*
X10444286Y-12042524D01*
X10444286Y-12042524D02*
X10453810Y-12033000D01*
X10453810Y-12033000D02*
X10472857Y-12023476D01*
X10615714Y-12023476D02*
X10615714Y-12061571D01*
X10691905Y-12023476D02*
X10691905Y-12061571D01*
X10954762Y-12299667D02*
X10945238Y-12290143D01*
X10945238Y-12290143D02*
X10926191Y-12261571D01*
X10926191Y-12261571D02*
X10916667Y-12242524D01*
X10916667Y-12242524D02*
X10907143Y-12213952D01*
X10907143Y-12213952D02*
X10897619Y-12166333D01*
X10897619Y-12166333D02*
X10897619Y-12128238D01*
X10897619Y-12128238D02*
X10907143Y-12080619D01*
X10907143Y-12080619D02*
X10916667Y-12052048D01*
X10916667Y-12052048D02*
X10926191Y-12033000D01*
X10926191Y-12033000D02*
X10945238Y-12004428D01*
X10945238Y-12004428D02*
X10954762Y-11994905D01*
X11059524Y-12109190D02*
X11040476Y-12099667D01*
X11040476Y-12099667D02*
X11030953Y-12090143D01*
X11030953Y-12090143D02*
X11021429Y-12071095D01*
X11021429Y-12071095D02*
X11021429Y-12061571D01*
X11021429Y-12061571D02*
X11030953Y-12042524D01*
X11030953Y-12042524D02*
X11040476Y-12033000D01*
X11040476Y-12033000D02*
X11059524Y-12023476D01*
X11059524Y-12023476D02*
X11097619Y-12023476D01*
X11097619Y-12023476D02*
X11116667Y-12033000D01*
X11116667Y-12033000D02*
X11126191Y-12042524D01*
X11126191Y-12042524D02*
X11135714Y-12061571D01*
X11135714Y-12061571D02*
X11135714Y-12071095D01*
X11135714Y-12071095D02*
X11126191Y-12090143D01*
X11126191Y-12090143D02*
X11116667Y-12099667D01*
X11116667Y-12099667D02*
X11097619Y-12109190D01*
X11097619Y-12109190D02*
X11059524Y-12109190D01*
X11059524Y-12109190D02*
X11040476Y-12118714D01*
X11040476Y-12118714D02*
X11030953Y-12128238D01*
X11030953Y-12128238D02*
X11021429Y-12147286D01*
X11021429Y-12147286D02*
X11021429Y-12185381D01*
X11021429Y-12185381D02*
X11030953Y-12204428D01*
X11030953Y-12204428D02*
X11040476Y-12213952D01*
X11040476Y-12213952D02*
X11059524Y-12223476D01*
X11059524Y-12223476D02*
X11097619Y-12223476D01*
X11097619Y-12223476D02*
X11116667Y-12213952D01*
X11116667Y-12213952D02*
X11126191Y-12204428D01*
X11126191Y-12204428D02*
X11135714Y-12185381D01*
X11135714Y-12185381D02*
X11135714Y-12147286D01*
X11135714Y-12147286D02*
X11126191Y-12128238D01*
X11126191Y-12128238D02*
X11116667Y-12118714D01*
X11116667Y-12118714D02*
X11097619Y-12109190D01*
X11341429Y-12223476D02*
X11341429Y-12023476D01*
X11427143Y-12223476D02*
X11427143Y-12118714D01*
X11427143Y-12118714D02*
X11417619Y-12099667D01*
X11417619Y-12099667D02*
X11398572Y-12090143D01*
X11398572Y-12090143D02*
X11370000Y-12090143D01*
X11370000Y-12090143D02*
X11350952Y-12099667D01*
X11350952Y-12099667D02*
X11341429Y-12109190D01*
X11550952Y-12223476D02*
X11531905Y-12213952D01*
X11531905Y-12213952D02*
X11522381Y-12204428D01*
X11522381Y-12204428D02*
X11512857Y-12185381D01*
X11512857Y-12185381D02*
X11512857Y-12128238D01*
X11512857Y-12128238D02*
X11522381Y-12109190D01*
X11522381Y-12109190D02*
X11531905Y-12099667D01*
X11531905Y-12099667D02*
X11550952Y-12090143D01*
X11550952Y-12090143D02*
X11579524Y-12090143D01*
X11579524Y-12090143D02*
X11598572Y-12099667D01*
X11598572Y-12099667D02*
X11608095Y-12109190D01*
X11608095Y-12109190D02*
X11617619Y-12128238D01*
X11617619Y-12128238D02*
X11617619Y-12185381D01*
X11617619Y-12185381D02*
X11608095Y-12204428D01*
X11608095Y-12204428D02*
X11598572Y-12213952D01*
X11598572Y-12213952D02*
X11579524Y-12223476D01*
X11579524Y-12223476D02*
X11550952Y-12223476D01*
X11731905Y-12223476D02*
X11712857Y-12213952D01*
X11712857Y-12213952D02*
X11703333Y-12194905D01*
X11703333Y-12194905D02*
X11703333Y-12023476D01*
X11884286Y-12213952D02*
X11865238Y-12223476D01*
X11865238Y-12223476D02*
X11827143Y-12223476D01*
X11827143Y-12223476D02*
X11808095Y-12213952D01*
X11808095Y-12213952D02*
X11798572Y-12194905D01*
X11798572Y-12194905D02*
X11798572Y-12118714D01*
X11798572Y-12118714D02*
X11808095Y-12099667D01*
X11808095Y-12099667D02*
X11827143Y-12090143D01*
X11827143Y-12090143D02*
X11865238Y-12090143D01*
X11865238Y-12090143D02*
X11884286Y-12099667D01*
X11884286Y-12099667D02*
X11893810Y-12118714D01*
X11893810Y-12118714D02*
X11893810Y-12137762D01*
X11893810Y-12137762D02*
X11798572Y-12156809D01*
X11970000Y-12213952D02*
X11989048Y-12223476D01*
X11989048Y-12223476D02*
X12027143Y-12223476D01*
X12027143Y-12223476D02*
X12046191Y-12213952D01*
X12046191Y-12213952D02*
X12055714Y-12194905D01*
X12055714Y-12194905D02*
X12055714Y-12185381D01*
X12055714Y-12185381D02*
X12046191Y-12166333D01*
X12046191Y-12166333D02*
X12027143Y-12156809D01*
X12027143Y-12156809D02*
X11998572Y-12156809D01*
X11998572Y-12156809D02*
X11979524Y-12147286D01*
X11979524Y-12147286D02*
X11970000Y-12128238D01*
X11970000Y-12128238D02*
X11970000Y-12118714D01*
X11970000Y-12118714D02*
X11979524Y-12099667D01*
X11979524Y-12099667D02*
X11998572Y-12090143D01*
X11998572Y-12090143D02*
X12027143Y-12090143D01*
X12027143Y-12090143D02*
X12046191Y-12099667D01*
X12122381Y-12299667D02*
X12131905Y-12290143D01*
X12131905Y-12290143D02*
X12150953Y-12261571D01*
X12150953Y-12261571D02*
X12160476Y-12242524D01*
X12160476Y-12242524D02*
X12170000Y-12213952D01*
X12170000Y-12213952D02*
X12179524Y-12166333D01*
X12179524Y-12166333D02*
X12179524Y-12128238D01*
X12179524Y-12128238D02*
X12170000Y-12080619D01*
X12170000Y-12080619D02*
X12160476Y-12052048D01*
X12160476Y-12052048D02*
X12150953Y-12033000D01*
X12150953Y-12033000D02*
X12131905Y-12004428D01*
X12131905Y-12004428D02*
X12122381Y-11994905D01*
D13*
X7490000Y-12414000D02*
G75*
G03*
X7490000Y-12414000I-40000J0D01*
G01*
D11*
X7775714Y-12287476D02*
X7794762Y-12287476D01*
X7794762Y-12287476D02*
X7813809Y-12297000D01*
X7813809Y-12297000D02*
X7823333Y-12306524D01*
X7823333Y-12306524D02*
X7832857Y-12325571D01*
X7832857Y-12325571D02*
X7842381Y-12363667D01*
X7842381Y-12363667D02*
X7842381Y-12411286D01*
X7842381Y-12411286D02*
X7832857Y-12449381D01*
X7832857Y-12449381D02*
X7823333Y-12468428D01*
X7823333Y-12468428D02*
X7813809Y-12477952D01*
X7813809Y-12477952D02*
X7794762Y-12487476D01*
X7794762Y-12487476D02*
X7775714Y-12487476D01*
X7775714Y-12487476D02*
X7756667Y-12477952D01*
X7756667Y-12477952D02*
X7747143Y-12468428D01*
X7747143Y-12468428D02*
X7737619Y-12449381D01*
X7737619Y-12449381D02*
X7728095Y-12411286D01*
X7728095Y-12411286D02*
X7728095Y-12363667D01*
X7728095Y-12363667D02*
X7737619Y-12325571D01*
X7737619Y-12325571D02*
X7747143Y-12306524D01*
X7747143Y-12306524D02*
X7756667Y-12297000D01*
X7756667Y-12297000D02*
X7775714Y-12287476D01*
X7928095Y-12468428D02*
X7937619Y-12477952D01*
X7937619Y-12477952D02*
X7928095Y-12487476D01*
X7928095Y-12487476D02*
X7918571Y-12477952D01*
X7918571Y-12477952D02*
X7928095Y-12468428D01*
X7928095Y-12468428D02*
X7928095Y-12487476D01*
X8051905Y-12373190D02*
X8032857Y-12363667D01*
X8032857Y-12363667D02*
X8023333Y-12354143D01*
X8023333Y-12354143D02*
X8013809Y-12335095D01*
X8013809Y-12335095D02*
X8013809Y-12325571D01*
X8013809Y-12325571D02*
X8023333Y-12306524D01*
X8023333Y-12306524D02*
X8032857Y-12297000D01*
X8032857Y-12297000D02*
X8051905Y-12287476D01*
X8051905Y-12287476D02*
X8090000Y-12287476D01*
X8090000Y-12287476D02*
X8109048Y-12297000D01*
X8109048Y-12297000D02*
X8118571Y-12306524D01*
X8118571Y-12306524D02*
X8128095Y-12325571D01*
X8128095Y-12325571D02*
X8128095Y-12335095D01*
X8128095Y-12335095D02*
X8118571Y-12354143D01*
X8118571Y-12354143D02*
X8109048Y-12363667D01*
X8109048Y-12363667D02*
X8090000Y-12373190D01*
X8090000Y-12373190D02*
X8051905Y-12373190D01*
X8051905Y-12373190D02*
X8032857Y-12382714D01*
X8032857Y-12382714D02*
X8023333Y-12392238D01*
X8023333Y-12392238D02*
X8013809Y-12411286D01*
X8013809Y-12411286D02*
X8013809Y-12449381D01*
X8013809Y-12449381D02*
X8023333Y-12468428D01*
X8023333Y-12468428D02*
X8032857Y-12477952D01*
X8032857Y-12477952D02*
X8051905Y-12487476D01*
X8051905Y-12487476D02*
X8090000Y-12487476D01*
X8090000Y-12487476D02*
X8109048Y-12477952D01*
X8109048Y-12477952D02*
X8118571Y-12468428D01*
X8118571Y-12468428D02*
X8128095Y-12449381D01*
X8128095Y-12449381D02*
X8128095Y-12411286D01*
X8128095Y-12411286D02*
X8118571Y-12392238D01*
X8118571Y-12392238D02*
X8109048Y-12382714D01*
X8109048Y-12382714D02*
X8090000Y-12373190D01*
X8251905Y-12287476D02*
X8270952Y-12287476D01*
X8270952Y-12287476D02*
X8290000Y-12297000D01*
X8290000Y-12297000D02*
X8299524Y-12306524D01*
X8299524Y-12306524D02*
X8309048Y-12325571D01*
X8309048Y-12325571D02*
X8318571Y-12363667D01*
X8318571Y-12363667D02*
X8318571Y-12411286D01*
X8318571Y-12411286D02*
X8309048Y-12449381D01*
X8309048Y-12449381D02*
X8299524Y-12468428D01*
X8299524Y-12468428D02*
X8290000Y-12477952D01*
X8290000Y-12477952D02*
X8270952Y-12487476D01*
X8270952Y-12487476D02*
X8251905Y-12487476D01*
X8251905Y-12487476D02*
X8232857Y-12477952D01*
X8232857Y-12477952D02*
X8223333Y-12468428D01*
X8223333Y-12468428D02*
X8213809Y-12449381D01*
X8213809Y-12449381D02*
X8204286Y-12411286D01*
X8204286Y-12411286D02*
X8204286Y-12363667D01*
X8204286Y-12363667D02*
X8213809Y-12325571D01*
X8213809Y-12325571D02*
X8223333Y-12306524D01*
X8223333Y-12306524D02*
X8232857Y-12297000D01*
X8232857Y-12297000D02*
X8251905Y-12287476D01*
X8442381Y-12287476D02*
X8461429Y-12287476D01*
X8461429Y-12287476D02*
X8480476Y-12297000D01*
X8480476Y-12297000D02*
X8490000Y-12306524D01*
X8490000Y-12306524D02*
X8499524Y-12325571D01*
X8499524Y-12325571D02*
X8509048Y-12363667D01*
X8509048Y-12363667D02*
X8509048Y-12411286D01*
X8509048Y-12411286D02*
X8499524Y-12449381D01*
X8499524Y-12449381D02*
X8490000Y-12468428D01*
X8490000Y-12468428D02*
X8480476Y-12477952D01*
X8480476Y-12477952D02*
X8461429Y-12487476D01*
X8461429Y-12487476D02*
X8442381Y-12487476D01*
X8442381Y-12487476D02*
X8423333Y-12477952D01*
X8423333Y-12477952D02*
X8413810Y-12468428D01*
X8413810Y-12468428D02*
X8404286Y-12449381D01*
X8404286Y-12449381D02*
X8394762Y-12411286D01*
X8394762Y-12411286D02*
X8394762Y-12363667D01*
X8394762Y-12363667D02*
X8404286Y-12325571D01*
X8404286Y-12325571D02*
X8413810Y-12306524D01*
X8413810Y-12306524D02*
X8423333Y-12297000D01*
X8423333Y-12297000D02*
X8442381Y-12287476D01*
X8594762Y-12487476D02*
X8594762Y-12354143D01*
X8594762Y-12373190D02*
X8604286Y-12363667D01*
X8604286Y-12363667D02*
X8623333Y-12354143D01*
X8623333Y-12354143D02*
X8651905Y-12354143D01*
X8651905Y-12354143D02*
X8670952Y-12363667D01*
X8670952Y-12363667D02*
X8680476Y-12382714D01*
X8680476Y-12382714D02*
X8680476Y-12487476D01*
X8680476Y-12382714D02*
X8690000Y-12363667D01*
X8690000Y-12363667D02*
X8709048Y-12354143D01*
X8709048Y-12354143D02*
X8737619Y-12354143D01*
X8737619Y-12354143D02*
X8756667Y-12363667D01*
X8756667Y-12363667D02*
X8766191Y-12382714D01*
X8766191Y-12382714D02*
X8766191Y-12487476D01*
X8861429Y-12487476D02*
X8861429Y-12354143D01*
X8861429Y-12373190D02*
X8870952Y-12363667D01*
X8870952Y-12363667D02*
X8890000Y-12354143D01*
X8890000Y-12354143D02*
X8918572Y-12354143D01*
X8918572Y-12354143D02*
X8937619Y-12363667D01*
X8937619Y-12363667D02*
X8947143Y-12382714D01*
X8947143Y-12382714D02*
X8947143Y-12487476D01*
X8947143Y-12382714D02*
X8956667Y-12363667D01*
X8956667Y-12363667D02*
X8975714Y-12354143D01*
X8975714Y-12354143D02*
X9004286Y-12354143D01*
X9004286Y-12354143D02*
X9023333Y-12363667D01*
X9023333Y-12363667D02*
X9032857Y-12382714D01*
X9032857Y-12382714D02*
X9032857Y-12487476D01*
X9390952Y-12277952D02*
X9219524Y-12535095D01*
X9615714Y-12287476D02*
X9634762Y-12287476D01*
X9634762Y-12287476D02*
X9653810Y-12297000D01*
X9653810Y-12297000D02*
X9663333Y-12306524D01*
X9663333Y-12306524D02*
X9672857Y-12325571D01*
X9672857Y-12325571D02*
X9682381Y-12363667D01*
X9682381Y-12363667D02*
X9682381Y-12411286D01*
X9682381Y-12411286D02*
X9672857Y-12449381D01*
X9672857Y-12449381D02*
X9663333Y-12468428D01*
X9663333Y-12468428D02*
X9653810Y-12477952D01*
X9653810Y-12477952D02*
X9634762Y-12487476D01*
X9634762Y-12487476D02*
X9615714Y-12487476D01*
X9615714Y-12487476D02*
X9596667Y-12477952D01*
X9596667Y-12477952D02*
X9587143Y-12468428D01*
X9587143Y-12468428D02*
X9577619Y-12449381D01*
X9577619Y-12449381D02*
X9568095Y-12411286D01*
X9568095Y-12411286D02*
X9568095Y-12363667D01*
X9568095Y-12363667D02*
X9577619Y-12325571D01*
X9577619Y-12325571D02*
X9587143Y-12306524D01*
X9587143Y-12306524D02*
X9596667Y-12297000D01*
X9596667Y-12297000D02*
X9615714Y-12287476D01*
X9768095Y-12468428D02*
X9777619Y-12477952D01*
X9777619Y-12477952D02*
X9768095Y-12487476D01*
X9768095Y-12487476D02*
X9758572Y-12477952D01*
X9758572Y-12477952D02*
X9768095Y-12468428D01*
X9768095Y-12468428D02*
X9768095Y-12487476D01*
X9901429Y-12287476D02*
X9920476Y-12287476D01*
X9920476Y-12287476D02*
X9939524Y-12297000D01*
X9939524Y-12297000D02*
X9949048Y-12306524D01*
X9949048Y-12306524D02*
X9958572Y-12325571D01*
X9958572Y-12325571D02*
X9968095Y-12363667D01*
X9968095Y-12363667D02*
X9968095Y-12411286D01*
X9968095Y-12411286D02*
X9958572Y-12449381D01*
X9958572Y-12449381D02*
X9949048Y-12468428D01*
X9949048Y-12468428D02*
X9939524Y-12477952D01*
X9939524Y-12477952D02*
X9920476Y-12487476D01*
X9920476Y-12487476D02*
X9901429Y-12487476D01*
X9901429Y-12487476D02*
X9882381Y-12477952D01*
X9882381Y-12477952D02*
X9872857Y-12468428D01*
X9872857Y-12468428D02*
X9863333Y-12449381D01*
X9863333Y-12449381D02*
X9853810Y-12411286D01*
X9853810Y-12411286D02*
X9853810Y-12363667D01*
X9853810Y-12363667D02*
X9863333Y-12325571D01*
X9863333Y-12325571D02*
X9872857Y-12306524D01*
X9872857Y-12306524D02*
X9882381Y-12297000D01*
X9882381Y-12297000D02*
X9901429Y-12287476D01*
X10034762Y-12287476D02*
X10158572Y-12287476D01*
X10158572Y-12287476D02*
X10091905Y-12363667D01*
X10091905Y-12363667D02*
X10120476Y-12363667D01*
X10120476Y-12363667D02*
X10139524Y-12373190D01*
X10139524Y-12373190D02*
X10149048Y-12382714D01*
X10149048Y-12382714D02*
X10158572Y-12401762D01*
X10158572Y-12401762D02*
X10158572Y-12449381D01*
X10158572Y-12449381D02*
X10149048Y-12468428D01*
X10149048Y-12468428D02*
X10139524Y-12477952D01*
X10139524Y-12477952D02*
X10120476Y-12487476D01*
X10120476Y-12487476D02*
X10063333Y-12487476D01*
X10063333Y-12487476D02*
X10044286Y-12477952D01*
X10044286Y-12477952D02*
X10034762Y-12468428D01*
X10349048Y-12487476D02*
X10234762Y-12487476D01*
X10291905Y-12487476D02*
X10291905Y-12287476D01*
X10291905Y-12287476D02*
X10272857Y-12316048D01*
X10272857Y-12316048D02*
X10253810Y-12335095D01*
X10253810Y-12335095D02*
X10234762Y-12344619D01*
X10530000Y-12287476D02*
X10434762Y-12287476D01*
X10434762Y-12287476D02*
X10425238Y-12382714D01*
X10425238Y-12382714D02*
X10434762Y-12373190D01*
X10434762Y-12373190D02*
X10453810Y-12363667D01*
X10453810Y-12363667D02*
X10501429Y-12363667D01*
X10501429Y-12363667D02*
X10520476Y-12373190D01*
X10520476Y-12373190D02*
X10530000Y-12382714D01*
X10530000Y-12382714D02*
X10539524Y-12401762D01*
X10539524Y-12401762D02*
X10539524Y-12449381D01*
X10539524Y-12449381D02*
X10530000Y-12468428D01*
X10530000Y-12468428D02*
X10520476Y-12477952D01*
X10520476Y-12477952D02*
X10501429Y-12487476D01*
X10501429Y-12487476D02*
X10453810Y-12487476D01*
X10453810Y-12487476D02*
X10434762Y-12477952D01*
X10434762Y-12477952D02*
X10425238Y-12468428D01*
X10615714Y-12287476D02*
X10615714Y-12325571D01*
X10691905Y-12287476D02*
X10691905Y-12325571D01*
X10954762Y-12563667D02*
X10945238Y-12554143D01*
X10945238Y-12554143D02*
X10926191Y-12525571D01*
X10926191Y-12525571D02*
X10916667Y-12506524D01*
X10916667Y-12506524D02*
X10907143Y-12477952D01*
X10907143Y-12477952D02*
X10897619Y-12430333D01*
X10897619Y-12430333D02*
X10897619Y-12392238D01*
X10897619Y-12392238D02*
X10907143Y-12344619D01*
X10907143Y-12344619D02*
X10916667Y-12316048D01*
X10916667Y-12316048D02*
X10926191Y-12297000D01*
X10926191Y-12297000D02*
X10945238Y-12268428D01*
X10945238Y-12268428D02*
X10954762Y-12258905D01*
X11069048Y-12287476D02*
X11088095Y-12287476D01*
X11088095Y-12287476D02*
X11107143Y-12297000D01*
X11107143Y-12297000D02*
X11116667Y-12306524D01*
X11116667Y-12306524D02*
X11126191Y-12325571D01*
X11126191Y-12325571D02*
X11135714Y-12363667D01*
X11135714Y-12363667D02*
X11135714Y-12411286D01*
X11135714Y-12411286D02*
X11126191Y-12449381D01*
X11126191Y-12449381D02*
X11116667Y-12468428D01*
X11116667Y-12468428D02*
X11107143Y-12477952D01*
X11107143Y-12477952D02*
X11088095Y-12487476D01*
X11088095Y-12487476D02*
X11069048Y-12487476D01*
X11069048Y-12487476D02*
X11050000Y-12477952D01*
X11050000Y-12477952D02*
X11040476Y-12468428D01*
X11040476Y-12468428D02*
X11030953Y-12449381D01*
X11030953Y-12449381D02*
X11021429Y-12411286D01*
X11021429Y-12411286D02*
X11021429Y-12363667D01*
X11021429Y-12363667D02*
X11030953Y-12325571D01*
X11030953Y-12325571D02*
X11040476Y-12306524D01*
X11040476Y-12306524D02*
X11050000Y-12297000D01*
X11050000Y-12297000D02*
X11069048Y-12287476D01*
X11341429Y-12487476D02*
X11341429Y-12287476D01*
X11427143Y-12487476D02*
X11427143Y-12382714D01*
X11427143Y-12382714D02*
X11417619Y-12363667D01*
X11417619Y-12363667D02*
X11398572Y-12354143D01*
X11398572Y-12354143D02*
X11370000Y-12354143D01*
X11370000Y-12354143D02*
X11350952Y-12363667D01*
X11350952Y-12363667D02*
X11341429Y-12373190D01*
X11550952Y-12487476D02*
X11531905Y-12477952D01*
X11531905Y-12477952D02*
X11522381Y-12468428D01*
X11522381Y-12468428D02*
X11512857Y-12449381D01*
X11512857Y-12449381D02*
X11512857Y-12392238D01*
X11512857Y-12392238D02*
X11522381Y-12373190D01*
X11522381Y-12373190D02*
X11531905Y-12363667D01*
X11531905Y-12363667D02*
X11550952Y-12354143D01*
X11550952Y-12354143D02*
X11579524Y-12354143D01*
X11579524Y-12354143D02*
X11598572Y-12363667D01*
X11598572Y-12363667D02*
X11608095Y-12373190D01*
X11608095Y-12373190D02*
X11617619Y-12392238D01*
X11617619Y-12392238D02*
X11617619Y-12449381D01*
X11617619Y-12449381D02*
X11608095Y-12468428D01*
X11608095Y-12468428D02*
X11598572Y-12477952D01*
X11598572Y-12477952D02*
X11579524Y-12487476D01*
X11579524Y-12487476D02*
X11550952Y-12487476D01*
X11731905Y-12487476D02*
X11712857Y-12477952D01*
X11712857Y-12477952D02*
X11703333Y-12458905D01*
X11703333Y-12458905D02*
X11703333Y-12287476D01*
X11884286Y-12477952D02*
X11865238Y-12487476D01*
X11865238Y-12487476D02*
X11827143Y-12487476D01*
X11827143Y-12487476D02*
X11808095Y-12477952D01*
X11808095Y-12477952D02*
X11798572Y-12458905D01*
X11798572Y-12458905D02*
X11798572Y-12382714D01*
X11798572Y-12382714D02*
X11808095Y-12363667D01*
X11808095Y-12363667D02*
X11827143Y-12354143D01*
X11827143Y-12354143D02*
X11865238Y-12354143D01*
X11865238Y-12354143D02*
X11884286Y-12363667D01*
X11884286Y-12363667D02*
X11893810Y-12382714D01*
X11893810Y-12382714D02*
X11893810Y-12401762D01*
X11893810Y-12401762D02*
X11798572Y-12420809D01*
X11970000Y-12477952D02*
X11989048Y-12487476D01*
X11989048Y-12487476D02*
X12027143Y-12487476D01*
X12027143Y-12487476D02*
X12046191Y-12477952D01*
X12046191Y-12477952D02*
X12055714Y-12458905D01*
X12055714Y-12458905D02*
X12055714Y-12449381D01*
X12055714Y-12449381D02*
X12046191Y-12430333D01*
X12046191Y-12430333D02*
X12027143Y-12420809D01*
X12027143Y-12420809D02*
X11998572Y-12420809D01*
X11998572Y-12420809D02*
X11979524Y-12411286D01*
X11979524Y-12411286D02*
X11970000Y-12392238D01*
X11970000Y-12392238D02*
X11970000Y-12382714D01*
X11970000Y-12382714D02*
X11979524Y-12363667D01*
X11979524Y-12363667D02*
X11998572Y-12354143D01*
X11998572Y-12354143D02*
X12027143Y-12354143D01*
X12027143Y-12354143D02*
X12046191Y-12363667D01*
X12261429Y-12411286D02*
X12413810Y-12411286D01*
X12337619Y-12487476D02*
X12337619Y-12335095D01*
X12714762Y-12287476D02*
X12676667Y-12287476D01*
X12676667Y-12287476D02*
X12657619Y-12297000D01*
X12657619Y-12297000D02*
X12648095Y-12306524D01*
X12648095Y-12306524D02*
X12629048Y-12335095D01*
X12629048Y-12335095D02*
X12619524Y-12373190D01*
X12619524Y-12373190D02*
X12619524Y-12449381D01*
X12619524Y-12449381D02*
X12629048Y-12468428D01*
X12629048Y-12468428D02*
X12638572Y-12477952D01*
X12638572Y-12477952D02*
X12657619Y-12487476D01*
X12657619Y-12487476D02*
X12695714Y-12487476D01*
X12695714Y-12487476D02*
X12714762Y-12477952D01*
X12714762Y-12477952D02*
X12724286Y-12468428D01*
X12724286Y-12468428D02*
X12733810Y-12449381D01*
X12733810Y-12449381D02*
X12733810Y-12401762D01*
X12733810Y-12401762D02*
X12724286Y-12382714D01*
X12724286Y-12382714D02*
X12714762Y-12373190D01*
X12714762Y-12373190D02*
X12695714Y-12363667D01*
X12695714Y-12363667D02*
X12657619Y-12363667D01*
X12657619Y-12363667D02*
X12638572Y-12373190D01*
X12638572Y-12373190D02*
X12629048Y-12382714D01*
X12629048Y-12382714D02*
X12619524Y-12401762D01*
X12930000Y-12477952D02*
X12949048Y-12487476D01*
X12949048Y-12487476D02*
X12987143Y-12487476D01*
X12987143Y-12487476D02*
X13006191Y-12477952D01*
X13006191Y-12477952D02*
X13015714Y-12458905D01*
X13015714Y-12458905D02*
X13015714Y-12449381D01*
X13015714Y-12449381D02*
X13006191Y-12430333D01*
X13006191Y-12430333D02*
X12987143Y-12420809D01*
X12987143Y-12420809D02*
X12958572Y-12420809D01*
X12958572Y-12420809D02*
X12939524Y-12411286D01*
X12939524Y-12411286D02*
X12930000Y-12392238D01*
X12930000Y-12392238D02*
X12930000Y-12382714D01*
X12930000Y-12382714D02*
X12939524Y-12363667D01*
X12939524Y-12363667D02*
X12958572Y-12354143D01*
X12958572Y-12354143D02*
X12987143Y-12354143D01*
X12987143Y-12354143D02*
X13006191Y-12363667D01*
X13130000Y-12487476D02*
X13110953Y-12477952D01*
X13110953Y-12477952D02*
X13101429Y-12458905D01*
X13101429Y-12458905D02*
X13101429Y-12287476D01*
X13234762Y-12487476D02*
X13215714Y-12477952D01*
X13215714Y-12477952D02*
X13206191Y-12468428D01*
X13206191Y-12468428D02*
X13196667Y-12449381D01*
X13196667Y-12449381D02*
X13196667Y-12392238D01*
X13196667Y-12392238D02*
X13206191Y-12373190D01*
X13206191Y-12373190D02*
X13215714Y-12363667D01*
X13215714Y-12363667D02*
X13234762Y-12354143D01*
X13234762Y-12354143D02*
X13263334Y-12354143D01*
X13263334Y-12354143D02*
X13282381Y-12363667D01*
X13282381Y-12363667D02*
X13291905Y-12373190D01*
X13291905Y-12373190D02*
X13301429Y-12392238D01*
X13301429Y-12392238D02*
X13301429Y-12449381D01*
X13301429Y-12449381D02*
X13291905Y-12468428D01*
X13291905Y-12468428D02*
X13282381Y-12477952D01*
X13282381Y-12477952D02*
X13263334Y-12487476D01*
X13263334Y-12487476D02*
X13234762Y-12487476D01*
X13358572Y-12354143D02*
X13434762Y-12354143D01*
X13387143Y-12287476D02*
X13387143Y-12458905D01*
X13387143Y-12458905D02*
X13396667Y-12477952D01*
X13396667Y-12477952D02*
X13415714Y-12487476D01*
X13415714Y-12487476D02*
X13434762Y-12487476D01*
X13491905Y-12477952D02*
X13510953Y-12487476D01*
X13510953Y-12487476D02*
X13549048Y-12487476D01*
X13549048Y-12487476D02*
X13568095Y-12477952D01*
X13568095Y-12477952D02*
X13577619Y-12458905D01*
X13577619Y-12458905D02*
X13577619Y-12449381D01*
X13577619Y-12449381D02*
X13568095Y-12430333D01*
X13568095Y-12430333D02*
X13549048Y-12420809D01*
X13549048Y-12420809D02*
X13520476Y-12420809D01*
X13520476Y-12420809D02*
X13501429Y-12411286D01*
X13501429Y-12411286D02*
X13491905Y-12392238D01*
X13491905Y-12392238D02*
X13491905Y-12382714D01*
X13491905Y-12382714D02*
X13501429Y-12363667D01*
X13501429Y-12363667D02*
X13520476Y-12354143D01*
X13520476Y-12354143D02*
X13549048Y-12354143D01*
X13549048Y-12354143D02*
X13568095Y-12363667D01*
X13644286Y-12563667D02*
X13653810Y-12554143D01*
X13653810Y-12554143D02*
X13672857Y-12525571D01*
X13672857Y-12525571D02*
X13682381Y-12506524D01*
X13682381Y-12506524D02*
X13691905Y-12477952D01*
X13691905Y-12477952D02*
X13701429Y-12430333D01*
X13701429Y-12430333D02*
X13701429Y-12392238D01*
X13701429Y-12392238D02*
X13691905Y-12344619D01*
X13691905Y-12344619D02*
X13682381Y-12316048D01*
X13682381Y-12316048D02*
X13672857Y-12297000D01*
X13672857Y-12297000D02*
X13653810Y-12268428D01*
X13653810Y-12268428D02*
X13644286Y-12258905D01*
M02*
