M48
; DRILL file {KiCad 7.0.2} date Wed May 10 12:33:57 2023
; FORMAT={-:-/ absolute / inch / decimal}
; #@! TF.CreationDate,2023-05-10T12:33:57-04:00
; #@! TF.GenerationSoftware,Kicad,Pcbnew,7.0.2
; #@! TF.FileFunction,Plated,1,2,PTH
FMAT,2
INCH
; #@! TA.AperFunction,Plated,PTH,ComponentDrill
T1C0.0300
; #@! TA.AperFunction,Plated,PTH,ComponentDrill
T2C0.0315
%
G90
G05
T1
X5.4472Y-2.1289
X5.4472Y-2.2289
X5.4472Y-2.3289
X5.4472Y-2.4289
X5.5472Y-2.1789
X5.5472Y-2.2789
X5.5472Y-2.3789
X5.5472Y-2.4789
T2
X5.1063Y-1.9173
X5.1063Y-1.9961
X5.1063Y-2.0748
X5.1841Y-2.4833
X5.1841Y-2.562
X5.1841Y-2.6407
T2
G00X3.7795Y-2.1654
M15
G01X3.7008Y-2.1654
M16
G05
G00X3.7795Y-2.4409
M15
G01X3.7008Y-2.4409
M16
G05
G00X3.7795Y-2.7953
M15
G01X3.7008Y-2.7953
M16
G05
G00X4.7638Y-3.5827
M15
G01X4.685Y-3.5827
M16
G05
G00X4.7638Y-3.8583
M15
G01X4.685Y-3.8583
M16
G05
G00X4.7638Y-4.2126
M15
G01X4.685Y-4.2126
M16
G05
T0
M30
