%TF.GenerationSoftware,KiCad,Pcbnew,(7.0.0)*%
%TF.CreationDate,2023-04-04T21:00:23-04:00*%
%TF.ProjectId,TeamButton,5465616d-4275-4747-946f-6e2e6b696361,rev?*%
%TF.SameCoordinates,Original*%
%TF.FileFunction,Legend,Top*%
%TF.FilePolarity,Positive*%
%FSLAX46Y46*%
G04 Gerber Fmt 4.6, Leading zero omitted, Abs format (unit mm)*
G04 Created by KiCad (PCBNEW (7.0.0)) date 2023-04-04 21:00:23*
%MOMM*%
%LPD*%
G01*
G04 APERTURE LIST*
%ADD10C,0.150000*%
%ADD11C,0.120000*%
%ADD12C,0.100000*%
G04 APERTURE END LIST*
D10*
X143190000Y-92390000D02*
G75*
G03*
X143190000Y-92390000I-20000000J0D01*
G01*
X110490000Y-67310000D02*
G75*
G03*
X110490000Y-67310000I-17500000J0D01*
G01*
X151182380Y-63484190D02*
X151896666Y-63484190D01*
X151896666Y-63484190D02*
X152039523Y-63531809D01*
X152039523Y-63531809D02*
X152134761Y-63627047D01*
X152134761Y-63627047D02*
X152182380Y-63769904D01*
X152182380Y-63769904D02*
X152182380Y-63865142D01*
X152182380Y-62531809D02*
X152182380Y-63007999D01*
X152182380Y-63007999D02*
X151182380Y-63007999D01*
X152087142Y-61627047D02*
X152134761Y-61674666D01*
X152134761Y-61674666D02*
X152182380Y-61817523D01*
X152182380Y-61817523D02*
X152182380Y-61912761D01*
X152182380Y-61912761D02*
X152134761Y-62055618D01*
X152134761Y-62055618D02*
X152039523Y-62150856D01*
X152039523Y-62150856D02*
X151944285Y-62198475D01*
X151944285Y-62198475D02*
X151753809Y-62246094D01*
X151753809Y-62246094D02*
X151610952Y-62246094D01*
X151610952Y-62246094D02*
X151420476Y-62198475D01*
X151420476Y-62198475D02*
X151325238Y-62150856D01*
X151325238Y-62150856D02*
X151230000Y-62055618D01*
X151230000Y-62055618D02*
X151182380Y-61912761D01*
X151182380Y-61912761D02*
X151182380Y-61817523D01*
X151182380Y-61817523D02*
X151230000Y-61674666D01*
X151230000Y-61674666D02*
X151277619Y-61627047D01*
X151182380Y-60912761D02*
X151896666Y-60912761D01*
X151896666Y-60912761D02*
X152039523Y-60960380D01*
X152039523Y-60960380D02*
X152134761Y-61055618D01*
X152134761Y-61055618D02*
X152182380Y-61198475D01*
X152182380Y-61198475D02*
X152182380Y-61293713D01*
X152182380Y-59960380D02*
X152182380Y-60436570D01*
X152182380Y-60436570D02*
X151182380Y-60436570D01*
X152087142Y-59055618D02*
X152134761Y-59103237D01*
X152134761Y-59103237D02*
X152182380Y-59246094D01*
X152182380Y-59246094D02*
X152182380Y-59341332D01*
X152182380Y-59341332D02*
X152134761Y-59484189D01*
X152134761Y-59484189D02*
X152039523Y-59579427D01*
X152039523Y-59579427D02*
X151944285Y-59627046D01*
X151944285Y-59627046D02*
X151753809Y-59674665D01*
X151753809Y-59674665D02*
X151610952Y-59674665D01*
X151610952Y-59674665D02*
X151420476Y-59627046D01*
X151420476Y-59627046D02*
X151325238Y-59579427D01*
X151325238Y-59579427D02*
X151230000Y-59484189D01*
X151230000Y-59484189D02*
X151182380Y-59341332D01*
X151182380Y-59341332D02*
X151182380Y-59246094D01*
X151182380Y-59246094D02*
X151230000Y-59103237D01*
X151230000Y-59103237D02*
X151277619Y-59055618D01*
X151182380Y-58341332D02*
X151896666Y-58341332D01*
X151896666Y-58341332D02*
X152039523Y-58388951D01*
X152039523Y-58388951D02*
X152134761Y-58484189D01*
X152134761Y-58484189D02*
X152182380Y-58627046D01*
X152182380Y-58627046D02*
X152182380Y-58722284D01*
X152182380Y-57388951D02*
X152182380Y-57865141D01*
X152182380Y-57865141D02*
X151182380Y-57865141D01*
X152087142Y-56484189D02*
X152134761Y-56531808D01*
X152134761Y-56531808D02*
X152182380Y-56674665D01*
X152182380Y-56674665D02*
X152182380Y-56769903D01*
X152182380Y-56769903D02*
X152134761Y-56912760D01*
X152134761Y-56912760D02*
X152039523Y-57007998D01*
X152039523Y-57007998D02*
X151944285Y-57055617D01*
X151944285Y-57055617D02*
X151753809Y-57103236D01*
X151753809Y-57103236D02*
X151610952Y-57103236D01*
X151610952Y-57103236D02*
X151420476Y-57055617D01*
X151420476Y-57055617D02*
X151325238Y-57007998D01*
X151325238Y-57007998D02*
X151230000Y-56912760D01*
X151230000Y-56912760D02*
X151182380Y-56769903D01*
X151182380Y-56769903D02*
X151182380Y-56674665D01*
X151182380Y-56674665D02*
X151230000Y-56531808D01*
X151230000Y-56531808D02*
X151277619Y-56484189D01*
X151182380Y-55769903D02*
X151896666Y-55769903D01*
X151896666Y-55769903D02*
X152039523Y-55817522D01*
X152039523Y-55817522D02*
X152134761Y-55912760D01*
X152134761Y-55912760D02*
X152182380Y-56055617D01*
X152182380Y-56055617D02*
X152182380Y-56150855D01*
X152182380Y-54817522D02*
X152182380Y-55293712D01*
X152182380Y-55293712D02*
X151182380Y-55293712D01*
X152087142Y-53912760D02*
X152134761Y-53960379D01*
X152134761Y-53960379D02*
X152182380Y-54103236D01*
X152182380Y-54103236D02*
X152182380Y-54198474D01*
X152182380Y-54198474D02*
X152134761Y-54341331D01*
X152134761Y-54341331D02*
X152039523Y-54436569D01*
X152039523Y-54436569D02*
X151944285Y-54484188D01*
X151944285Y-54484188D02*
X151753809Y-54531807D01*
X151753809Y-54531807D02*
X151610952Y-54531807D01*
X151610952Y-54531807D02*
X151420476Y-54484188D01*
X151420476Y-54484188D02*
X151325238Y-54436569D01*
X151325238Y-54436569D02*
X151230000Y-54341331D01*
X151230000Y-54341331D02*
X151182380Y-54198474D01*
X151182380Y-54198474D02*
X151182380Y-54103236D01*
X151182380Y-54103236D02*
X151230000Y-53960379D01*
X151230000Y-53960379D02*
X151277619Y-53912760D01*
%TO.C,J1*%
X136522619Y-51736666D02*
X135808333Y-51736666D01*
X135808333Y-51736666D02*
X135665476Y-51689047D01*
X135665476Y-51689047D02*
X135570238Y-51593809D01*
X135570238Y-51593809D02*
X135522619Y-51450952D01*
X135522619Y-51450952D02*
X135522619Y-51355714D01*
X135522619Y-52736666D02*
X135522619Y-52165238D01*
X135522619Y-52450952D02*
X136522619Y-52450952D01*
X136522619Y-52450952D02*
X136379761Y-52355714D01*
X136379761Y-52355714D02*
X136284523Y-52260476D01*
X136284523Y-52260476D02*
X136236904Y-52165238D01*
%TO.C,H2*%
X139238095Y-107017380D02*
X139238095Y-106017380D01*
X139238095Y-106493571D02*
X139809523Y-106493571D01*
X139809523Y-107017380D02*
X139809523Y-106017380D01*
X140238095Y-106112619D02*
X140285714Y-106065000D01*
X140285714Y-106065000D02*
X140380952Y-106017380D01*
X140380952Y-106017380D02*
X140619047Y-106017380D01*
X140619047Y-106017380D02*
X140714285Y-106065000D01*
X140714285Y-106065000D02*
X140761904Y-106112619D01*
X140761904Y-106112619D02*
X140809523Y-106207857D01*
X140809523Y-106207857D02*
X140809523Y-106303095D01*
X140809523Y-106303095D02*
X140761904Y-106445952D01*
X140761904Y-106445952D02*
X140190476Y-107017380D01*
X140190476Y-107017380D02*
X140809523Y-107017380D01*
%TO.C,SW1*%
X88990761Y-82831332D02*
X89038380Y-82688475D01*
X89038380Y-82688475D02*
X89038380Y-82450380D01*
X89038380Y-82450380D02*
X88990761Y-82355142D01*
X88990761Y-82355142D02*
X88943142Y-82307523D01*
X88943142Y-82307523D02*
X88847904Y-82259904D01*
X88847904Y-82259904D02*
X88752666Y-82259904D01*
X88752666Y-82259904D02*
X88657428Y-82307523D01*
X88657428Y-82307523D02*
X88609809Y-82355142D01*
X88609809Y-82355142D02*
X88562190Y-82450380D01*
X88562190Y-82450380D02*
X88514571Y-82640856D01*
X88514571Y-82640856D02*
X88466952Y-82736094D01*
X88466952Y-82736094D02*
X88419333Y-82783713D01*
X88419333Y-82783713D02*
X88324095Y-82831332D01*
X88324095Y-82831332D02*
X88228857Y-82831332D01*
X88228857Y-82831332D02*
X88133619Y-82783713D01*
X88133619Y-82783713D02*
X88086000Y-82736094D01*
X88086000Y-82736094D02*
X88038380Y-82640856D01*
X88038380Y-82640856D02*
X88038380Y-82402761D01*
X88038380Y-82402761D02*
X88086000Y-82259904D01*
X88038380Y-81926570D02*
X89038380Y-81688475D01*
X89038380Y-81688475D02*
X88324095Y-81497999D01*
X88324095Y-81497999D02*
X89038380Y-81307523D01*
X89038380Y-81307523D02*
X88038380Y-81069428D01*
X89038380Y-80164666D02*
X89038380Y-80736094D01*
X89038380Y-80450380D02*
X88038380Y-80450380D01*
X88038380Y-80450380D02*
X88181238Y-80545618D01*
X88181238Y-80545618D02*
X88276476Y-80640856D01*
X88276476Y-80640856D02*
X88324095Y-80736094D01*
X90739380Y-75036904D02*
X89739380Y-75036904D01*
X89739380Y-75036904D02*
X90739380Y-74465476D01*
X90739380Y-74465476D02*
X89739380Y-74465476D01*
X89739380Y-73798809D02*
X89739380Y-73608333D01*
X89739380Y-73608333D02*
X89787000Y-73513095D01*
X89787000Y-73513095D02*
X89882238Y-73417857D01*
X89882238Y-73417857D02*
X90072714Y-73370238D01*
X90072714Y-73370238D02*
X90406047Y-73370238D01*
X90406047Y-73370238D02*
X90596523Y-73417857D01*
X90596523Y-73417857D02*
X90691761Y-73513095D01*
X90691761Y-73513095D02*
X90739380Y-73608333D01*
X90739380Y-73608333D02*
X90739380Y-73798809D01*
X90739380Y-73798809D02*
X90691761Y-73894047D01*
X90691761Y-73894047D02*
X90596523Y-73989285D01*
X90596523Y-73989285D02*
X90406047Y-74036904D01*
X90406047Y-74036904D02*
X90072714Y-74036904D01*
X90072714Y-74036904D02*
X89882238Y-73989285D01*
X89882238Y-73989285D02*
X89787000Y-73894047D01*
X89787000Y-73894047D02*
X89739380Y-73798809D01*
X90771142Y-82593476D02*
X90818761Y-82641095D01*
X90818761Y-82641095D02*
X90866380Y-82783952D01*
X90866380Y-82783952D02*
X90866380Y-82879190D01*
X90866380Y-82879190D02*
X90818761Y-83022047D01*
X90818761Y-83022047D02*
X90723523Y-83117285D01*
X90723523Y-83117285D02*
X90628285Y-83164904D01*
X90628285Y-83164904D02*
X90437809Y-83212523D01*
X90437809Y-83212523D02*
X90294952Y-83212523D01*
X90294952Y-83212523D02*
X90104476Y-83164904D01*
X90104476Y-83164904D02*
X90009238Y-83117285D01*
X90009238Y-83117285D02*
X89914000Y-83022047D01*
X89914000Y-83022047D02*
X89866380Y-82879190D01*
X89866380Y-82879190D02*
X89866380Y-82783952D01*
X89866380Y-82783952D02*
X89914000Y-82641095D01*
X89914000Y-82641095D02*
X89961619Y-82593476D01*
X90739380Y-68051904D02*
X89739380Y-68051904D01*
X89739380Y-68051904D02*
X90739380Y-67480476D01*
X90739380Y-67480476D02*
X89739380Y-67480476D01*
X90644142Y-66432857D02*
X90691761Y-66480476D01*
X90691761Y-66480476D02*
X90739380Y-66623333D01*
X90739380Y-66623333D02*
X90739380Y-66718571D01*
X90739380Y-66718571D02*
X90691761Y-66861428D01*
X90691761Y-66861428D02*
X90596523Y-66956666D01*
X90596523Y-66956666D02*
X90501285Y-67004285D01*
X90501285Y-67004285D02*
X90310809Y-67051904D01*
X90310809Y-67051904D02*
X90167952Y-67051904D01*
X90167952Y-67051904D02*
X89977476Y-67004285D01*
X89977476Y-67004285D02*
X89882238Y-66956666D01*
X89882238Y-66956666D02*
X89787000Y-66861428D01*
X89787000Y-66861428D02*
X89739380Y-66718571D01*
X89739380Y-66718571D02*
X89739380Y-66623333D01*
X89739380Y-66623333D02*
X89787000Y-66480476D01*
X89787000Y-66480476D02*
X89834619Y-66432857D01*
%TO.C,SW2*%
X120105761Y-107681332D02*
X120153380Y-107538475D01*
X120153380Y-107538475D02*
X120153380Y-107300380D01*
X120153380Y-107300380D02*
X120105761Y-107205142D01*
X120105761Y-107205142D02*
X120058142Y-107157523D01*
X120058142Y-107157523D02*
X119962904Y-107109904D01*
X119962904Y-107109904D02*
X119867666Y-107109904D01*
X119867666Y-107109904D02*
X119772428Y-107157523D01*
X119772428Y-107157523D02*
X119724809Y-107205142D01*
X119724809Y-107205142D02*
X119677190Y-107300380D01*
X119677190Y-107300380D02*
X119629571Y-107490856D01*
X119629571Y-107490856D02*
X119581952Y-107586094D01*
X119581952Y-107586094D02*
X119534333Y-107633713D01*
X119534333Y-107633713D02*
X119439095Y-107681332D01*
X119439095Y-107681332D02*
X119343857Y-107681332D01*
X119343857Y-107681332D02*
X119248619Y-107633713D01*
X119248619Y-107633713D02*
X119201000Y-107586094D01*
X119201000Y-107586094D02*
X119153380Y-107490856D01*
X119153380Y-107490856D02*
X119153380Y-107252761D01*
X119153380Y-107252761D02*
X119201000Y-107109904D01*
X119153380Y-106776570D02*
X120153380Y-106538475D01*
X120153380Y-106538475D02*
X119439095Y-106347999D01*
X119439095Y-106347999D02*
X120153380Y-106157523D01*
X120153380Y-106157523D02*
X119153380Y-105919428D01*
X119248619Y-105586094D02*
X119201000Y-105538475D01*
X119201000Y-105538475D02*
X119153380Y-105443237D01*
X119153380Y-105443237D02*
X119153380Y-105205142D01*
X119153380Y-105205142D02*
X119201000Y-105109904D01*
X119201000Y-105109904D02*
X119248619Y-105062285D01*
X119248619Y-105062285D02*
X119343857Y-105014666D01*
X119343857Y-105014666D02*
X119439095Y-105014666D01*
X119439095Y-105014666D02*
X119581952Y-105062285D01*
X119581952Y-105062285D02*
X120153380Y-105633713D01*
X120153380Y-105633713D02*
X120153380Y-105014666D01*
X121886142Y-107443476D02*
X121933761Y-107491095D01*
X121933761Y-107491095D02*
X121981380Y-107633952D01*
X121981380Y-107633952D02*
X121981380Y-107729190D01*
X121981380Y-107729190D02*
X121933761Y-107872047D01*
X121933761Y-107872047D02*
X121838523Y-107967285D01*
X121838523Y-107967285D02*
X121743285Y-108014904D01*
X121743285Y-108014904D02*
X121552809Y-108062523D01*
X121552809Y-108062523D02*
X121409952Y-108062523D01*
X121409952Y-108062523D02*
X121219476Y-108014904D01*
X121219476Y-108014904D02*
X121124238Y-107967285D01*
X121124238Y-107967285D02*
X121029000Y-107872047D01*
X121029000Y-107872047D02*
X120981380Y-107729190D01*
X120981380Y-107729190D02*
X120981380Y-107633952D01*
X120981380Y-107633952D02*
X121029000Y-107491095D01*
X121029000Y-107491095D02*
X121076619Y-107443476D01*
X121854380Y-92901904D02*
X120854380Y-92901904D01*
X120854380Y-92901904D02*
X121854380Y-92330476D01*
X121854380Y-92330476D02*
X120854380Y-92330476D01*
X121759142Y-91282857D02*
X121806761Y-91330476D01*
X121806761Y-91330476D02*
X121854380Y-91473333D01*
X121854380Y-91473333D02*
X121854380Y-91568571D01*
X121854380Y-91568571D02*
X121806761Y-91711428D01*
X121806761Y-91711428D02*
X121711523Y-91806666D01*
X121711523Y-91806666D02*
X121616285Y-91854285D01*
X121616285Y-91854285D02*
X121425809Y-91901904D01*
X121425809Y-91901904D02*
X121282952Y-91901904D01*
X121282952Y-91901904D02*
X121092476Y-91854285D01*
X121092476Y-91854285D02*
X120997238Y-91806666D01*
X120997238Y-91806666D02*
X120902000Y-91711428D01*
X120902000Y-91711428D02*
X120854380Y-91568571D01*
X120854380Y-91568571D02*
X120854380Y-91473333D01*
X120854380Y-91473333D02*
X120902000Y-91330476D01*
X120902000Y-91330476D02*
X120949619Y-91282857D01*
X121854380Y-99886904D02*
X120854380Y-99886904D01*
X120854380Y-99886904D02*
X121854380Y-99315476D01*
X121854380Y-99315476D02*
X120854380Y-99315476D01*
X120854380Y-98648809D02*
X120854380Y-98458333D01*
X120854380Y-98458333D02*
X120902000Y-98363095D01*
X120902000Y-98363095D02*
X120997238Y-98267857D01*
X120997238Y-98267857D02*
X121187714Y-98220238D01*
X121187714Y-98220238D02*
X121521047Y-98220238D01*
X121521047Y-98220238D02*
X121711523Y-98267857D01*
X121711523Y-98267857D02*
X121806761Y-98363095D01*
X121806761Y-98363095D02*
X121854380Y-98458333D01*
X121854380Y-98458333D02*
X121854380Y-98648809D01*
X121854380Y-98648809D02*
X121806761Y-98744047D01*
X121806761Y-98744047D02*
X121711523Y-98839285D01*
X121711523Y-98839285D02*
X121521047Y-98886904D01*
X121521047Y-98886904D02*
X121187714Y-98886904D01*
X121187714Y-98886904D02*
X120997238Y-98839285D01*
X120997238Y-98839285D02*
X120902000Y-98744047D01*
X120902000Y-98744047D02*
X120854380Y-98648809D01*
%TO.C,H1*%
X79238095Y-47017380D02*
X79238095Y-46017380D01*
X79238095Y-46493571D02*
X79809523Y-46493571D01*
X79809523Y-47017380D02*
X79809523Y-46017380D01*
X80809523Y-47017380D02*
X80238095Y-47017380D01*
X80523809Y-47017380D02*
X80523809Y-46017380D01*
X80523809Y-46017380D02*
X80428571Y-46160238D01*
X80428571Y-46160238D02*
X80333333Y-46255476D01*
X80333333Y-46255476D02*
X80238095Y-46303095D01*
D11*
%TO.C,J1*%
X154392000Y-51428000D02*
X153122000Y-51428000D01*
X154392000Y-51428000D02*
X154392000Y-52698000D01*
X153122000Y-51428000D02*
X154392000Y-51428000D01*
X154392000Y-52698000D02*
X153122000Y-51428000D01*
D12*
X154900000Y-50920000D02*
X137000000Y-50920000D01*
X137000000Y-50920000D02*
X137000000Y-66120000D01*
X137000000Y-66120000D02*
X154900000Y-66120000D01*
X154900000Y-66120000D02*
X154900000Y-50920000D01*
D11*
%TO.C,SW1*%
X89560000Y-83530000D02*
X95860000Y-83530000D01*
X95860000Y-83530000D02*
X95860000Y-63430000D01*
X95860000Y-63430000D02*
X89560000Y-63430000D01*
X89560000Y-63430000D02*
X89560000Y-83530000D01*
%TO.C,SW2*%
X120675000Y-108380000D02*
X126975000Y-108380000D01*
X126975000Y-108380000D02*
X126975000Y-88280000D01*
X126975000Y-88280000D02*
X120675000Y-88280000D01*
X120675000Y-88280000D02*
X120675000Y-108380000D01*
%TD*%
M02*
