%TF.GenerationSoftware,KiCad,Pcbnew,(7.0.0)*%
%TF.CreationDate,2023-04-04T21:00:25-04:00*%
%TF.ProjectId,TeamButton,5465616d-4275-4747-946f-6e2e6b696361,rev?*%
%TF.SameCoordinates,Original*%
%TF.FileFunction,Drillmap*%
%TF.FilePolarity,Positive*%
%FSLAX45Y45*%
G04 Gerber Fmt 4.5, Leading zero omitted, Abs format (unit mm)*
G04 Created by KiCad (PCBNEW (7.0.0)) date 2023-04-04 21:00:25*
%MOMM*%
%LPD*%
G01*
G04 APERTURE LIST*
%ADD10C,0.100000*%
%ADD11C,0.200000*%
%ADD12C,0.270000*%
G04 APERTURE END LIST*
D10*
X15494000Y-6731000D02*
X15494000Y-4822775D01*
D11*
X7500000Y-5000000D02*
X7500000Y-11000000D01*
X14351001Y-4661387D02*
G75*
G03*
X14000000Y-4500000I-351001J-301003D01*
G01*
X14000000Y-11500000D02*
G75*
G03*
X14500000Y-11000000I0J500000D01*
G01*
X14627000Y-6731000D02*
G75*
G03*
X14500000Y-6858000I0J-127000D01*
G01*
X8000000Y-4500000D02*
X14000000Y-4500000D01*
X14627000Y-6731000D02*
X15494000Y-6731000D01*
X8000000Y-4500000D02*
G75*
G03*
X7500000Y-5000000I0J-500000D01*
G01*
X15494000Y-4822775D02*
X14702000Y-4822775D01*
X14000000Y-11500000D02*
X8000000Y-11500000D01*
X14351001Y-4661387D02*
G75*
G03*
X14702000Y-4822775I350999J300997D01*
G01*
X14500000Y-11000000D02*
X14500000Y-6858000D01*
X7500000Y-11000000D02*
G75*
G03*
X8000000Y-11500000I500000J0D01*
G01*
D12*
X7865000Y-4865000D02*
X8135000Y-5135000D01*
X8135000Y-4865000D02*
X7865000Y-5135000D01*
X13865000Y-10865000D02*
X14135000Y-11135000D01*
X14135000Y-10865000D02*
X13865000Y-11135000D01*
D11*
X7737619Y-11803476D02*
X7737619Y-11603476D01*
X7737619Y-11603476D02*
X7785238Y-11603476D01*
X7785238Y-11603476D02*
X7813809Y-11613000D01*
X7813809Y-11613000D02*
X7832857Y-11632048D01*
X7832857Y-11632048D02*
X7842381Y-11651095D01*
X7842381Y-11651095D02*
X7851905Y-11689190D01*
X7851905Y-11689190D02*
X7851905Y-11717762D01*
X7851905Y-11717762D02*
X7842381Y-11755857D01*
X7842381Y-11755857D02*
X7832857Y-11774905D01*
X7832857Y-11774905D02*
X7813809Y-11793952D01*
X7813809Y-11793952D02*
X7785238Y-11803476D01*
X7785238Y-11803476D02*
X7737619Y-11803476D01*
X7937619Y-11803476D02*
X7937619Y-11670143D01*
X7937619Y-11708238D02*
X7947143Y-11689190D01*
X7947143Y-11689190D02*
X7956667Y-11679667D01*
X7956667Y-11679667D02*
X7975714Y-11670143D01*
X7975714Y-11670143D02*
X7994762Y-11670143D01*
X8061428Y-11803476D02*
X8061428Y-11670143D01*
X8061428Y-11603476D02*
X8051905Y-11613000D01*
X8051905Y-11613000D02*
X8061428Y-11622524D01*
X8061428Y-11622524D02*
X8070952Y-11613000D01*
X8070952Y-11613000D02*
X8061428Y-11603476D01*
X8061428Y-11603476D02*
X8061428Y-11622524D01*
X8185238Y-11803476D02*
X8166190Y-11793952D01*
X8166190Y-11793952D02*
X8156667Y-11774905D01*
X8156667Y-11774905D02*
X8156667Y-11603476D01*
X8290000Y-11803476D02*
X8270952Y-11793952D01*
X8270952Y-11793952D02*
X8261428Y-11774905D01*
X8261428Y-11774905D02*
X8261428Y-11603476D01*
X8486190Y-11803476D02*
X8486190Y-11603476D01*
X8486190Y-11603476D02*
X8552857Y-11746333D01*
X8552857Y-11746333D02*
X8619524Y-11603476D01*
X8619524Y-11603476D02*
X8619524Y-11803476D01*
X8800476Y-11803476D02*
X8800476Y-11698714D01*
X8800476Y-11698714D02*
X8790952Y-11679667D01*
X8790952Y-11679667D02*
X8771905Y-11670143D01*
X8771905Y-11670143D02*
X8733809Y-11670143D01*
X8733809Y-11670143D02*
X8714762Y-11679667D01*
X8800476Y-11793952D02*
X8781429Y-11803476D01*
X8781429Y-11803476D02*
X8733809Y-11803476D01*
X8733809Y-11803476D02*
X8714762Y-11793952D01*
X8714762Y-11793952D02*
X8705238Y-11774905D01*
X8705238Y-11774905D02*
X8705238Y-11755857D01*
X8705238Y-11755857D02*
X8714762Y-11736809D01*
X8714762Y-11736809D02*
X8733809Y-11727286D01*
X8733809Y-11727286D02*
X8781429Y-11727286D01*
X8781429Y-11727286D02*
X8800476Y-11717762D01*
X8895714Y-11670143D02*
X8895714Y-11870143D01*
X8895714Y-11679667D02*
X8914762Y-11670143D01*
X8914762Y-11670143D02*
X8952857Y-11670143D01*
X8952857Y-11670143D02*
X8971905Y-11679667D01*
X8971905Y-11679667D02*
X8981429Y-11689190D01*
X8981429Y-11689190D02*
X8990952Y-11708238D01*
X8990952Y-11708238D02*
X8990952Y-11765381D01*
X8990952Y-11765381D02*
X8981429Y-11784428D01*
X8981429Y-11784428D02*
X8971905Y-11793952D01*
X8971905Y-11793952D02*
X8952857Y-11803476D01*
X8952857Y-11803476D02*
X8914762Y-11803476D01*
X8914762Y-11803476D02*
X8895714Y-11793952D01*
X9076667Y-11784428D02*
X9086190Y-11793952D01*
X9086190Y-11793952D02*
X9076667Y-11803476D01*
X9076667Y-11803476D02*
X9067143Y-11793952D01*
X9067143Y-11793952D02*
X9076667Y-11784428D01*
X9076667Y-11784428D02*
X9076667Y-11803476D01*
X9076667Y-11679667D02*
X9086190Y-11689190D01*
X9086190Y-11689190D02*
X9076667Y-11698714D01*
X9076667Y-11698714D02*
X9067143Y-11689190D01*
X9067143Y-11689190D02*
X9076667Y-11679667D01*
X9076667Y-11679667D02*
X9076667Y-11698714D01*
X7290000Y-12050000D02*
X7490000Y-12250000D01*
X7490000Y-12050000D02*
X7290000Y-12250000D01*
X7728095Y-12042524D02*
X7737619Y-12033000D01*
X7737619Y-12033000D02*
X7756667Y-12023476D01*
X7756667Y-12023476D02*
X7804286Y-12023476D01*
X7804286Y-12023476D02*
X7823333Y-12033000D01*
X7823333Y-12033000D02*
X7832857Y-12042524D01*
X7832857Y-12042524D02*
X7842381Y-12061571D01*
X7842381Y-12061571D02*
X7842381Y-12080619D01*
X7842381Y-12080619D02*
X7832857Y-12109190D01*
X7832857Y-12109190D02*
X7718571Y-12223476D01*
X7718571Y-12223476D02*
X7842381Y-12223476D01*
X7928095Y-12204428D02*
X7937619Y-12213952D01*
X7937619Y-12213952D02*
X7928095Y-12223476D01*
X7928095Y-12223476D02*
X7918571Y-12213952D01*
X7918571Y-12213952D02*
X7928095Y-12204428D01*
X7928095Y-12204428D02*
X7928095Y-12223476D01*
X8004286Y-12023476D02*
X8137619Y-12023476D01*
X8137619Y-12023476D02*
X8051905Y-12223476D01*
X8251905Y-12023476D02*
X8270952Y-12023476D01*
X8270952Y-12023476D02*
X8290000Y-12033000D01*
X8290000Y-12033000D02*
X8299524Y-12042524D01*
X8299524Y-12042524D02*
X8309048Y-12061571D01*
X8309048Y-12061571D02*
X8318571Y-12099667D01*
X8318571Y-12099667D02*
X8318571Y-12147286D01*
X8318571Y-12147286D02*
X8309048Y-12185381D01*
X8309048Y-12185381D02*
X8299524Y-12204428D01*
X8299524Y-12204428D02*
X8290000Y-12213952D01*
X8290000Y-12213952D02*
X8270952Y-12223476D01*
X8270952Y-12223476D02*
X8251905Y-12223476D01*
X8251905Y-12223476D02*
X8232857Y-12213952D01*
X8232857Y-12213952D02*
X8223333Y-12204428D01*
X8223333Y-12204428D02*
X8213809Y-12185381D01*
X8213809Y-12185381D02*
X8204286Y-12147286D01*
X8204286Y-12147286D02*
X8204286Y-12099667D01*
X8204286Y-12099667D02*
X8213809Y-12061571D01*
X8213809Y-12061571D02*
X8223333Y-12042524D01*
X8223333Y-12042524D02*
X8232857Y-12033000D01*
X8232857Y-12033000D02*
X8251905Y-12023476D01*
X8442381Y-12023476D02*
X8461429Y-12023476D01*
X8461429Y-12023476D02*
X8480476Y-12033000D01*
X8480476Y-12033000D02*
X8490000Y-12042524D01*
X8490000Y-12042524D02*
X8499524Y-12061571D01*
X8499524Y-12061571D02*
X8509048Y-12099667D01*
X8509048Y-12099667D02*
X8509048Y-12147286D01*
X8509048Y-12147286D02*
X8499524Y-12185381D01*
X8499524Y-12185381D02*
X8490000Y-12204428D01*
X8490000Y-12204428D02*
X8480476Y-12213952D01*
X8480476Y-12213952D02*
X8461429Y-12223476D01*
X8461429Y-12223476D02*
X8442381Y-12223476D01*
X8442381Y-12223476D02*
X8423333Y-12213952D01*
X8423333Y-12213952D02*
X8413810Y-12204428D01*
X8413810Y-12204428D02*
X8404286Y-12185381D01*
X8404286Y-12185381D02*
X8394762Y-12147286D01*
X8394762Y-12147286D02*
X8394762Y-12099667D01*
X8394762Y-12099667D02*
X8404286Y-12061571D01*
X8404286Y-12061571D02*
X8413810Y-12042524D01*
X8413810Y-12042524D02*
X8423333Y-12033000D01*
X8423333Y-12033000D02*
X8442381Y-12023476D01*
X8594762Y-12223476D02*
X8594762Y-12090143D01*
X8594762Y-12109190D02*
X8604286Y-12099667D01*
X8604286Y-12099667D02*
X8623333Y-12090143D01*
X8623333Y-12090143D02*
X8651905Y-12090143D01*
X8651905Y-12090143D02*
X8670952Y-12099667D01*
X8670952Y-12099667D02*
X8680476Y-12118714D01*
X8680476Y-12118714D02*
X8680476Y-12223476D01*
X8680476Y-12118714D02*
X8690000Y-12099667D01*
X8690000Y-12099667D02*
X8709048Y-12090143D01*
X8709048Y-12090143D02*
X8737619Y-12090143D01*
X8737619Y-12090143D02*
X8756667Y-12099667D01*
X8756667Y-12099667D02*
X8766191Y-12118714D01*
X8766191Y-12118714D02*
X8766191Y-12223476D01*
X8861429Y-12223476D02*
X8861429Y-12090143D01*
X8861429Y-12109190D02*
X8870952Y-12099667D01*
X8870952Y-12099667D02*
X8890000Y-12090143D01*
X8890000Y-12090143D02*
X8918572Y-12090143D01*
X8918572Y-12090143D02*
X8937619Y-12099667D01*
X8937619Y-12099667D02*
X8947143Y-12118714D01*
X8947143Y-12118714D02*
X8947143Y-12223476D01*
X8947143Y-12118714D02*
X8956667Y-12099667D01*
X8956667Y-12099667D02*
X8975714Y-12090143D01*
X8975714Y-12090143D02*
X9004286Y-12090143D01*
X9004286Y-12090143D02*
X9023333Y-12099667D01*
X9023333Y-12099667D02*
X9032857Y-12118714D01*
X9032857Y-12118714D02*
X9032857Y-12223476D01*
X9390952Y-12013952D02*
X9219524Y-12271095D01*
X9615714Y-12023476D02*
X9634762Y-12023476D01*
X9634762Y-12023476D02*
X9653810Y-12033000D01*
X9653810Y-12033000D02*
X9663333Y-12042524D01*
X9663333Y-12042524D02*
X9672857Y-12061571D01*
X9672857Y-12061571D02*
X9682381Y-12099667D01*
X9682381Y-12099667D02*
X9682381Y-12147286D01*
X9682381Y-12147286D02*
X9672857Y-12185381D01*
X9672857Y-12185381D02*
X9663333Y-12204428D01*
X9663333Y-12204428D02*
X9653810Y-12213952D01*
X9653810Y-12213952D02*
X9634762Y-12223476D01*
X9634762Y-12223476D02*
X9615714Y-12223476D01*
X9615714Y-12223476D02*
X9596667Y-12213952D01*
X9596667Y-12213952D02*
X9587143Y-12204428D01*
X9587143Y-12204428D02*
X9577619Y-12185381D01*
X9577619Y-12185381D02*
X9568095Y-12147286D01*
X9568095Y-12147286D02*
X9568095Y-12099667D01*
X9568095Y-12099667D02*
X9577619Y-12061571D01*
X9577619Y-12061571D02*
X9587143Y-12042524D01*
X9587143Y-12042524D02*
X9596667Y-12033000D01*
X9596667Y-12033000D02*
X9615714Y-12023476D01*
X9768095Y-12204428D02*
X9777619Y-12213952D01*
X9777619Y-12213952D02*
X9768095Y-12223476D01*
X9768095Y-12223476D02*
X9758572Y-12213952D01*
X9758572Y-12213952D02*
X9768095Y-12204428D01*
X9768095Y-12204428D02*
X9768095Y-12223476D01*
X9968095Y-12223476D02*
X9853810Y-12223476D01*
X9910952Y-12223476D02*
X9910952Y-12023476D01*
X9910952Y-12023476D02*
X9891905Y-12052048D01*
X9891905Y-12052048D02*
X9872857Y-12071095D01*
X9872857Y-12071095D02*
X9853810Y-12080619D01*
X10091905Y-12023476D02*
X10110953Y-12023476D01*
X10110953Y-12023476D02*
X10130000Y-12033000D01*
X10130000Y-12033000D02*
X10139524Y-12042524D01*
X10139524Y-12042524D02*
X10149048Y-12061571D01*
X10149048Y-12061571D02*
X10158572Y-12099667D01*
X10158572Y-12099667D02*
X10158572Y-12147286D01*
X10158572Y-12147286D02*
X10149048Y-12185381D01*
X10149048Y-12185381D02*
X10139524Y-12204428D01*
X10139524Y-12204428D02*
X10130000Y-12213952D01*
X10130000Y-12213952D02*
X10110953Y-12223476D01*
X10110953Y-12223476D02*
X10091905Y-12223476D01*
X10091905Y-12223476D02*
X10072857Y-12213952D01*
X10072857Y-12213952D02*
X10063333Y-12204428D01*
X10063333Y-12204428D02*
X10053810Y-12185381D01*
X10053810Y-12185381D02*
X10044286Y-12147286D01*
X10044286Y-12147286D02*
X10044286Y-12099667D01*
X10044286Y-12099667D02*
X10053810Y-12061571D01*
X10053810Y-12061571D02*
X10063333Y-12042524D01*
X10063333Y-12042524D02*
X10072857Y-12033000D01*
X10072857Y-12033000D02*
X10091905Y-12023476D01*
X10330000Y-12023476D02*
X10291905Y-12023476D01*
X10291905Y-12023476D02*
X10272857Y-12033000D01*
X10272857Y-12033000D02*
X10263333Y-12042524D01*
X10263333Y-12042524D02*
X10244286Y-12071095D01*
X10244286Y-12071095D02*
X10234762Y-12109190D01*
X10234762Y-12109190D02*
X10234762Y-12185381D01*
X10234762Y-12185381D02*
X10244286Y-12204428D01*
X10244286Y-12204428D02*
X10253810Y-12213952D01*
X10253810Y-12213952D02*
X10272857Y-12223476D01*
X10272857Y-12223476D02*
X10310953Y-12223476D01*
X10310953Y-12223476D02*
X10330000Y-12213952D01*
X10330000Y-12213952D02*
X10339524Y-12204428D01*
X10339524Y-12204428D02*
X10349048Y-12185381D01*
X10349048Y-12185381D02*
X10349048Y-12137762D01*
X10349048Y-12137762D02*
X10339524Y-12118714D01*
X10339524Y-12118714D02*
X10330000Y-12109190D01*
X10330000Y-12109190D02*
X10310953Y-12099667D01*
X10310953Y-12099667D02*
X10272857Y-12099667D01*
X10272857Y-12099667D02*
X10253810Y-12109190D01*
X10253810Y-12109190D02*
X10244286Y-12118714D01*
X10244286Y-12118714D02*
X10234762Y-12137762D01*
X10415714Y-12023476D02*
X10539524Y-12023476D01*
X10539524Y-12023476D02*
X10472857Y-12099667D01*
X10472857Y-12099667D02*
X10501429Y-12099667D01*
X10501429Y-12099667D02*
X10520476Y-12109190D01*
X10520476Y-12109190D02*
X10530000Y-12118714D01*
X10530000Y-12118714D02*
X10539524Y-12137762D01*
X10539524Y-12137762D02*
X10539524Y-12185381D01*
X10539524Y-12185381D02*
X10530000Y-12204428D01*
X10530000Y-12204428D02*
X10520476Y-12213952D01*
X10520476Y-12213952D02*
X10501429Y-12223476D01*
X10501429Y-12223476D02*
X10444286Y-12223476D01*
X10444286Y-12223476D02*
X10425238Y-12213952D01*
X10425238Y-12213952D02*
X10415714Y-12204428D01*
X10615714Y-12023476D02*
X10615714Y-12061571D01*
X10691905Y-12023476D02*
X10691905Y-12061571D01*
X10954762Y-12299667D02*
X10945238Y-12290143D01*
X10945238Y-12290143D02*
X10926191Y-12261571D01*
X10926191Y-12261571D02*
X10916667Y-12242524D01*
X10916667Y-12242524D02*
X10907143Y-12213952D01*
X10907143Y-12213952D02*
X10897619Y-12166333D01*
X10897619Y-12166333D02*
X10897619Y-12128238D01*
X10897619Y-12128238D02*
X10907143Y-12080619D01*
X10907143Y-12080619D02*
X10916667Y-12052048D01*
X10916667Y-12052048D02*
X10926191Y-12033000D01*
X10926191Y-12033000D02*
X10945238Y-12004428D01*
X10945238Y-12004428D02*
X10954762Y-11994905D01*
X11021429Y-12042524D02*
X11030953Y-12033000D01*
X11030953Y-12033000D02*
X11050000Y-12023476D01*
X11050000Y-12023476D02*
X11097619Y-12023476D01*
X11097619Y-12023476D02*
X11116667Y-12033000D01*
X11116667Y-12033000D02*
X11126191Y-12042524D01*
X11126191Y-12042524D02*
X11135714Y-12061571D01*
X11135714Y-12061571D02*
X11135714Y-12080619D01*
X11135714Y-12080619D02*
X11126191Y-12109190D01*
X11126191Y-12109190D02*
X11011905Y-12223476D01*
X11011905Y-12223476D02*
X11135714Y-12223476D01*
X11341429Y-12223476D02*
X11341429Y-12023476D01*
X11427143Y-12223476D02*
X11427143Y-12118714D01*
X11427143Y-12118714D02*
X11417619Y-12099667D01*
X11417619Y-12099667D02*
X11398572Y-12090143D01*
X11398572Y-12090143D02*
X11370000Y-12090143D01*
X11370000Y-12090143D02*
X11350952Y-12099667D01*
X11350952Y-12099667D02*
X11341429Y-12109190D01*
X11550952Y-12223476D02*
X11531905Y-12213952D01*
X11531905Y-12213952D02*
X11522381Y-12204428D01*
X11522381Y-12204428D02*
X11512857Y-12185381D01*
X11512857Y-12185381D02*
X11512857Y-12128238D01*
X11512857Y-12128238D02*
X11522381Y-12109190D01*
X11522381Y-12109190D02*
X11531905Y-12099667D01*
X11531905Y-12099667D02*
X11550952Y-12090143D01*
X11550952Y-12090143D02*
X11579524Y-12090143D01*
X11579524Y-12090143D02*
X11598572Y-12099667D01*
X11598572Y-12099667D02*
X11608095Y-12109190D01*
X11608095Y-12109190D02*
X11617619Y-12128238D01*
X11617619Y-12128238D02*
X11617619Y-12185381D01*
X11617619Y-12185381D02*
X11608095Y-12204428D01*
X11608095Y-12204428D02*
X11598572Y-12213952D01*
X11598572Y-12213952D02*
X11579524Y-12223476D01*
X11579524Y-12223476D02*
X11550952Y-12223476D01*
X11731905Y-12223476D02*
X11712857Y-12213952D01*
X11712857Y-12213952D02*
X11703333Y-12194905D01*
X11703333Y-12194905D02*
X11703333Y-12023476D01*
X11884286Y-12213952D02*
X11865238Y-12223476D01*
X11865238Y-12223476D02*
X11827143Y-12223476D01*
X11827143Y-12223476D02*
X11808095Y-12213952D01*
X11808095Y-12213952D02*
X11798572Y-12194905D01*
X11798572Y-12194905D02*
X11798572Y-12118714D01*
X11798572Y-12118714D02*
X11808095Y-12099667D01*
X11808095Y-12099667D02*
X11827143Y-12090143D01*
X11827143Y-12090143D02*
X11865238Y-12090143D01*
X11865238Y-12090143D02*
X11884286Y-12099667D01*
X11884286Y-12099667D02*
X11893810Y-12118714D01*
X11893810Y-12118714D02*
X11893810Y-12137762D01*
X11893810Y-12137762D02*
X11798572Y-12156809D01*
X11970000Y-12213952D02*
X11989048Y-12223476D01*
X11989048Y-12223476D02*
X12027143Y-12223476D01*
X12027143Y-12223476D02*
X12046191Y-12213952D01*
X12046191Y-12213952D02*
X12055714Y-12194905D01*
X12055714Y-12194905D02*
X12055714Y-12185381D01*
X12055714Y-12185381D02*
X12046191Y-12166333D01*
X12046191Y-12166333D02*
X12027143Y-12156809D01*
X12027143Y-12156809D02*
X11998572Y-12156809D01*
X11998572Y-12156809D02*
X11979524Y-12147286D01*
X11979524Y-12147286D02*
X11970000Y-12128238D01*
X11970000Y-12128238D02*
X11970000Y-12118714D01*
X11970000Y-12118714D02*
X11979524Y-12099667D01*
X11979524Y-12099667D02*
X11998572Y-12090143D01*
X11998572Y-12090143D02*
X12027143Y-12090143D01*
X12027143Y-12090143D02*
X12046191Y-12099667D01*
X12122381Y-12299667D02*
X12131905Y-12290143D01*
X12131905Y-12290143D02*
X12150953Y-12261571D01*
X12150953Y-12261571D02*
X12160476Y-12242524D01*
X12160476Y-12242524D02*
X12170000Y-12213952D01*
X12170000Y-12213952D02*
X12179524Y-12166333D01*
X12179524Y-12166333D02*
X12179524Y-12128238D01*
X12179524Y-12128238D02*
X12170000Y-12080619D01*
X12170000Y-12080619D02*
X12160476Y-12052048D01*
X12160476Y-12052048D02*
X12150953Y-12033000D01*
X12150953Y-12033000D02*
X12131905Y-12004428D01*
X12131905Y-12004428D02*
X12122381Y-11994905D01*
X12451905Y-12299667D02*
X12442381Y-12290143D01*
X12442381Y-12290143D02*
X12423333Y-12261571D01*
X12423333Y-12261571D02*
X12413810Y-12242524D01*
X12413810Y-12242524D02*
X12404286Y-12213952D01*
X12404286Y-12213952D02*
X12394762Y-12166333D01*
X12394762Y-12166333D02*
X12394762Y-12128238D01*
X12394762Y-12128238D02*
X12404286Y-12080619D01*
X12404286Y-12080619D02*
X12413810Y-12052048D01*
X12413810Y-12052048D02*
X12423333Y-12033000D01*
X12423333Y-12033000D02*
X12442381Y-12004428D01*
X12442381Y-12004428D02*
X12451905Y-11994905D01*
X12528095Y-12090143D02*
X12528095Y-12223476D01*
X12528095Y-12109190D02*
X12537619Y-12099667D01*
X12537619Y-12099667D02*
X12556667Y-12090143D01*
X12556667Y-12090143D02*
X12585238Y-12090143D01*
X12585238Y-12090143D02*
X12604286Y-12099667D01*
X12604286Y-12099667D02*
X12613810Y-12118714D01*
X12613810Y-12118714D02*
X12613810Y-12223476D01*
X12737619Y-12223476D02*
X12718572Y-12213952D01*
X12718572Y-12213952D02*
X12709048Y-12204428D01*
X12709048Y-12204428D02*
X12699524Y-12185381D01*
X12699524Y-12185381D02*
X12699524Y-12128238D01*
X12699524Y-12128238D02*
X12709048Y-12109190D01*
X12709048Y-12109190D02*
X12718572Y-12099667D01*
X12718572Y-12099667D02*
X12737619Y-12090143D01*
X12737619Y-12090143D02*
X12766191Y-12090143D01*
X12766191Y-12090143D02*
X12785238Y-12099667D01*
X12785238Y-12099667D02*
X12794762Y-12109190D01*
X12794762Y-12109190D02*
X12804286Y-12128238D01*
X12804286Y-12128238D02*
X12804286Y-12185381D01*
X12804286Y-12185381D02*
X12794762Y-12204428D01*
X12794762Y-12204428D02*
X12785238Y-12213952D01*
X12785238Y-12213952D02*
X12766191Y-12223476D01*
X12766191Y-12223476D02*
X12737619Y-12223476D01*
X12861429Y-12090143D02*
X12937619Y-12090143D01*
X12890000Y-12023476D02*
X12890000Y-12194905D01*
X12890000Y-12194905D02*
X12899524Y-12213952D01*
X12899524Y-12213952D02*
X12918572Y-12223476D01*
X12918572Y-12223476D02*
X12937619Y-12223476D01*
X13124286Y-12090143D02*
X13124286Y-12290143D01*
X13124286Y-12099667D02*
X13143333Y-12090143D01*
X13143333Y-12090143D02*
X13181429Y-12090143D01*
X13181429Y-12090143D02*
X13200476Y-12099667D01*
X13200476Y-12099667D02*
X13210000Y-12109190D01*
X13210000Y-12109190D02*
X13219524Y-12128238D01*
X13219524Y-12128238D02*
X13219524Y-12185381D01*
X13219524Y-12185381D02*
X13210000Y-12204428D01*
X13210000Y-12204428D02*
X13200476Y-12213952D01*
X13200476Y-12213952D02*
X13181429Y-12223476D01*
X13181429Y-12223476D02*
X13143333Y-12223476D01*
X13143333Y-12223476D02*
X13124286Y-12213952D01*
X13333810Y-12223476D02*
X13314762Y-12213952D01*
X13314762Y-12213952D02*
X13305238Y-12194905D01*
X13305238Y-12194905D02*
X13305238Y-12023476D01*
X13495714Y-12223476D02*
X13495714Y-12118714D01*
X13495714Y-12118714D02*
X13486191Y-12099667D01*
X13486191Y-12099667D02*
X13467143Y-12090143D01*
X13467143Y-12090143D02*
X13429048Y-12090143D01*
X13429048Y-12090143D02*
X13410000Y-12099667D01*
X13495714Y-12213952D02*
X13476667Y-12223476D01*
X13476667Y-12223476D02*
X13429048Y-12223476D01*
X13429048Y-12223476D02*
X13410000Y-12213952D01*
X13410000Y-12213952D02*
X13400476Y-12194905D01*
X13400476Y-12194905D02*
X13400476Y-12175857D01*
X13400476Y-12175857D02*
X13410000Y-12156809D01*
X13410000Y-12156809D02*
X13429048Y-12147286D01*
X13429048Y-12147286D02*
X13476667Y-12147286D01*
X13476667Y-12147286D02*
X13495714Y-12137762D01*
X13562381Y-12090143D02*
X13638572Y-12090143D01*
X13590953Y-12023476D02*
X13590953Y-12194905D01*
X13590953Y-12194905D02*
X13600476Y-12213952D01*
X13600476Y-12213952D02*
X13619524Y-12223476D01*
X13619524Y-12223476D02*
X13638572Y-12223476D01*
X13781429Y-12213952D02*
X13762381Y-12223476D01*
X13762381Y-12223476D02*
X13724286Y-12223476D01*
X13724286Y-12223476D02*
X13705238Y-12213952D01*
X13705238Y-12213952D02*
X13695714Y-12194905D01*
X13695714Y-12194905D02*
X13695714Y-12118714D01*
X13695714Y-12118714D02*
X13705238Y-12099667D01*
X13705238Y-12099667D02*
X13724286Y-12090143D01*
X13724286Y-12090143D02*
X13762381Y-12090143D01*
X13762381Y-12090143D02*
X13781429Y-12099667D01*
X13781429Y-12099667D02*
X13790953Y-12118714D01*
X13790953Y-12118714D02*
X13790953Y-12137762D01*
X13790953Y-12137762D02*
X13695714Y-12156809D01*
X13962381Y-12223476D02*
X13962381Y-12023476D01*
X13962381Y-12213952D02*
X13943334Y-12223476D01*
X13943334Y-12223476D02*
X13905238Y-12223476D01*
X13905238Y-12223476D02*
X13886191Y-12213952D01*
X13886191Y-12213952D02*
X13876667Y-12204428D01*
X13876667Y-12204428D02*
X13867143Y-12185381D01*
X13867143Y-12185381D02*
X13867143Y-12128238D01*
X13867143Y-12128238D02*
X13876667Y-12109190D01*
X13876667Y-12109190D02*
X13886191Y-12099667D01*
X13886191Y-12099667D02*
X13905238Y-12090143D01*
X13905238Y-12090143D02*
X13943334Y-12090143D01*
X13943334Y-12090143D02*
X13962381Y-12099667D01*
X14038572Y-12299667D02*
X14048095Y-12290143D01*
X14048095Y-12290143D02*
X14067143Y-12261571D01*
X14067143Y-12261571D02*
X14076667Y-12242524D01*
X14076667Y-12242524D02*
X14086191Y-12213952D01*
X14086191Y-12213952D02*
X14095714Y-12166333D01*
X14095714Y-12166333D02*
X14095714Y-12128238D01*
X14095714Y-12128238D02*
X14086191Y-12080619D01*
X14086191Y-12080619D02*
X14076667Y-12052048D01*
X14076667Y-12052048D02*
X14067143Y-12033000D01*
X14067143Y-12033000D02*
X14048095Y-12004428D01*
X14048095Y-12004428D02*
X14038572Y-11994905D01*
M02*
