%TF.GenerationSoftware,KiCad,Pcbnew,7.0.2*%
%TF.CreationDate,2023-05-10T12:33:56-04:00*%
%TF.ProjectId,TeamButton,5465616d-4275-4747-946f-6e2e6b696361,rev?*%
%TF.SameCoordinates,Original*%
%TF.FileFunction,Drillmap*%
%TF.FilePolarity,Positive*%
%FSLAX45Y45*%
G04 Gerber Fmt 4.5, Leading zero omitted, Abs format (unit mm)*
G04 Created by KiCad (PCBNEW 7.0.2) date 2023-05-10 12:33:56*
%MOMM*%
%LPD*%
G01*
G04 APERTURE LIST*
%ADD10C,0.100000*%
%ADD11C,0.200000*%
%ADD12C,0.320000*%
G04 APERTURE END LIST*
D10*
X15494000Y-6731000D02*
X15494000Y-4822775D01*
D11*
X7500000Y-5000000D02*
X7500000Y-11000000D01*
X14351001Y-4661387D02*
G75*
G03*
X14000000Y-4500000I-351001J-301003D01*
G01*
X14000000Y-11500000D02*
G75*
G03*
X14500000Y-11000000I0J500000D01*
G01*
X14627000Y-6731000D02*
G75*
G03*
X14500000Y-6858000I0J-127000D01*
G01*
X8000000Y-4500000D02*
X14000000Y-4500000D01*
X14627000Y-6731000D02*
X15494000Y-6731000D01*
X8000000Y-4500000D02*
G75*
G03*
X7500000Y-5000000I0J-500000D01*
G01*
X15494000Y-4822775D02*
X14702000Y-4822775D01*
X14000000Y-11500000D02*
X8000000Y-11500000D01*
X14351001Y-4661387D02*
G75*
G03*
X14702000Y-4822775I350999J300997D01*
G01*
X14500000Y-11000000D02*
X14500000Y-6858000D01*
X7500000Y-11000000D02*
G75*
G03*
X8000000Y-11500000I500000J0D01*
G01*
D12*
X7840000Y-4840000D02*
X8160000Y-5160000D01*
X8160000Y-4840000D02*
X7840000Y-5160000D01*
X8440000Y-6040000D02*
X8760000Y-6360000D01*
X8760000Y-6040000D02*
X8440000Y-6360000D01*
X10240000Y-6040000D02*
X10560000Y-6360000D01*
X10560000Y-6040000D02*
X10240000Y-6360000D01*
X10940000Y-9640000D02*
X11260000Y-9960000D01*
X11260000Y-9640000D02*
X10940000Y-9960000D01*
X12740000Y-9640000D02*
X13060000Y-9960000D01*
X13060000Y-9640000D02*
X12740000Y-9960000D01*
X13840000Y-10840000D02*
X14160000Y-11160000D01*
X14160000Y-10840000D02*
X13840000Y-11160000D01*
D11*
X7737619Y-11822524D02*
X7737619Y-11622524D01*
X7737619Y-11622524D02*
X7785238Y-11622524D01*
X7785238Y-11622524D02*
X7813809Y-11632048D01*
X7813809Y-11632048D02*
X7832857Y-11651095D01*
X7832857Y-11651095D02*
X7842381Y-11670143D01*
X7842381Y-11670143D02*
X7851905Y-11708238D01*
X7851905Y-11708238D02*
X7851905Y-11736809D01*
X7851905Y-11736809D02*
X7842381Y-11774905D01*
X7842381Y-11774905D02*
X7832857Y-11793952D01*
X7832857Y-11793952D02*
X7813809Y-11813000D01*
X7813809Y-11813000D02*
X7785238Y-11822524D01*
X7785238Y-11822524D02*
X7737619Y-11822524D01*
X7937619Y-11822524D02*
X7937619Y-11689190D01*
X7937619Y-11727286D02*
X7947143Y-11708238D01*
X7947143Y-11708238D02*
X7956667Y-11698714D01*
X7956667Y-11698714D02*
X7975714Y-11689190D01*
X7975714Y-11689190D02*
X7994762Y-11689190D01*
X8061428Y-11822524D02*
X8061428Y-11689190D01*
X8061428Y-11622524D02*
X8051905Y-11632048D01*
X8051905Y-11632048D02*
X8061428Y-11641571D01*
X8061428Y-11641571D02*
X8070952Y-11632048D01*
X8070952Y-11632048D02*
X8061428Y-11622524D01*
X8061428Y-11622524D02*
X8061428Y-11641571D01*
X8185238Y-11822524D02*
X8166190Y-11813000D01*
X8166190Y-11813000D02*
X8156667Y-11793952D01*
X8156667Y-11793952D02*
X8156667Y-11622524D01*
X8290000Y-11822524D02*
X8270952Y-11813000D01*
X8270952Y-11813000D02*
X8261428Y-11793952D01*
X8261428Y-11793952D02*
X8261428Y-11622524D01*
X8518571Y-11822524D02*
X8518571Y-11622524D01*
X8518571Y-11622524D02*
X8585238Y-11765381D01*
X8585238Y-11765381D02*
X8651905Y-11622524D01*
X8651905Y-11622524D02*
X8651905Y-11822524D01*
X8832857Y-11822524D02*
X8832857Y-11717762D01*
X8832857Y-11717762D02*
X8823333Y-11698714D01*
X8823333Y-11698714D02*
X8804286Y-11689190D01*
X8804286Y-11689190D02*
X8766190Y-11689190D01*
X8766190Y-11689190D02*
X8747143Y-11698714D01*
X8832857Y-11813000D02*
X8813810Y-11822524D01*
X8813810Y-11822524D02*
X8766190Y-11822524D01*
X8766190Y-11822524D02*
X8747143Y-11813000D01*
X8747143Y-11813000D02*
X8737619Y-11793952D01*
X8737619Y-11793952D02*
X8737619Y-11774905D01*
X8737619Y-11774905D02*
X8747143Y-11755857D01*
X8747143Y-11755857D02*
X8766190Y-11746333D01*
X8766190Y-11746333D02*
X8813810Y-11746333D01*
X8813810Y-11746333D02*
X8832857Y-11736809D01*
X8928095Y-11689190D02*
X8928095Y-11889190D01*
X8928095Y-11698714D02*
X8947143Y-11689190D01*
X8947143Y-11689190D02*
X8985238Y-11689190D01*
X8985238Y-11689190D02*
X9004286Y-11698714D01*
X9004286Y-11698714D02*
X9013810Y-11708238D01*
X9013810Y-11708238D02*
X9023333Y-11727286D01*
X9023333Y-11727286D02*
X9023333Y-11784428D01*
X9023333Y-11784428D02*
X9013810Y-11803476D01*
X9013810Y-11803476D02*
X9004286Y-11813000D01*
X9004286Y-11813000D02*
X8985238Y-11822524D01*
X8985238Y-11822524D02*
X8947143Y-11822524D01*
X8947143Y-11822524D02*
X8928095Y-11813000D01*
X9109048Y-11803476D02*
X9118571Y-11813000D01*
X9118571Y-11813000D02*
X9109048Y-11822524D01*
X9109048Y-11822524D02*
X9099524Y-11813000D01*
X9099524Y-11813000D02*
X9109048Y-11803476D01*
X9109048Y-11803476D02*
X9109048Y-11822524D01*
X9109048Y-11698714D02*
X9118571Y-11708238D01*
X9118571Y-11708238D02*
X9109048Y-11717762D01*
X9109048Y-11717762D02*
X9099524Y-11708238D01*
X9099524Y-11708238D02*
X9109048Y-11698714D01*
X9109048Y-11698714D02*
X9109048Y-11717762D01*
X7290000Y-12050000D02*
X7490000Y-12250000D01*
X7490000Y-12050000D02*
X7290000Y-12250000D01*
X7718571Y-12042524D02*
X7842381Y-12042524D01*
X7842381Y-12042524D02*
X7775714Y-12118714D01*
X7775714Y-12118714D02*
X7804286Y-12118714D01*
X7804286Y-12118714D02*
X7823333Y-12128238D01*
X7823333Y-12128238D02*
X7832857Y-12137762D01*
X7832857Y-12137762D02*
X7842381Y-12156809D01*
X7842381Y-12156809D02*
X7842381Y-12204428D01*
X7842381Y-12204428D02*
X7832857Y-12223476D01*
X7832857Y-12223476D02*
X7823333Y-12233000D01*
X7823333Y-12233000D02*
X7804286Y-12242524D01*
X7804286Y-12242524D02*
X7747143Y-12242524D01*
X7747143Y-12242524D02*
X7728095Y-12233000D01*
X7728095Y-12233000D02*
X7718571Y-12223476D01*
X7928095Y-12223476D02*
X7937619Y-12233000D01*
X7937619Y-12233000D02*
X7928095Y-12242524D01*
X7928095Y-12242524D02*
X7918571Y-12233000D01*
X7918571Y-12233000D02*
X7928095Y-12223476D01*
X7928095Y-12223476D02*
X7928095Y-12242524D01*
X8013809Y-12061571D02*
X8023333Y-12052048D01*
X8023333Y-12052048D02*
X8042381Y-12042524D01*
X8042381Y-12042524D02*
X8090000Y-12042524D01*
X8090000Y-12042524D02*
X8109048Y-12052048D01*
X8109048Y-12052048D02*
X8118571Y-12061571D01*
X8118571Y-12061571D02*
X8128095Y-12080619D01*
X8128095Y-12080619D02*
X8128095Y-12099667D01*
X8128095Y-12099667D02*
X8118571Y-12128238D01*
X8118571Y-12128238D02*
X8004286Y-12242524D01*
X8004286Y-12242524D02*
X8128095Y-12242524D01*
X8251905Y-12042524D02*
X8270952Y-12042524D01*
X8270952Y-12042524D02*
X8290000Y-12052048D01*
X8290000Y-12052048D02*
X8299524Y-12061571D01*
X8299524Y-12061571D02*
X8309048Y-12080619D01*
X8309048Y-12080619D02*
X8318571Y-12118714D01*
X8318571Y-12118714D02*
X8318571Y-12166333D01*
X8318571Y-12166333D02*
X8309048Y-12204428D01*
X8309048Y-12204428D02*
X8299524Y-12223476D01*
X8299524Y-12223476D02*
X8290000Y-12233000D01*
X8290000Y-12233000D02*
X8270952Y-12242524D01*
X8270952Y-12242524D02*
X8251905Y-12242524D01*
X8251905Y-12242524D02*
X8232857Y-12233000D01*
X8232857Y-12233000D02*
X8223333Y-12223476D01*
X8223333Y-12223476D02*
X8213809Y-12204428D01*
X8213809Y-12204428D02*
X8204286Y-12166333D01*
X8204286Y-12166333D02*
X8204286Y-12118714D01*
X8204286Y-12118714D02*
X8213809Y-12080619D01*
X8213809Y-12080619D02*
X8223333Y-12061571D01*
X8223333Y-12061571D02*
X8232857Y-12052048D01*
X8232857Y-12052048D02*
X8251905Y-12042524D01*
X8442381Y-12042524D02*
X8461429Y-12042524D01*
X8461429Y-12042524D02*
X8480476Y-12052048D01*
X8480476Y-12052048D02*
X8490000Y-12061571D01*
X8490000Y-12061571D02*
X8499524Y-12080619D01*
X8499524Y-12080619D02*
X8509048Y-12118714D01*
X8509048Y-12118714D02*
X8509048Y-12166333D01*
X8509048Y-12166333D02*
X8499524Y-12204428D01*
X8499524Y-12204428D02*
X8490000Y-12223476D01*
X8490000Y-12223476D02*
X8480476Y-12233000D01*
X8480476Y-12233000D02*
X8461429Y-12242524D01*
X8461429Y-12242524D02*
X8442381Y-12242524D01*
X8442381Y-12242524D02*
X8423333Y-12233000D01*
X8423333Y-12233000D02*
X8413810Y-12223476D01*
X8413810Y-12223476D02*
X8404286Y-12204428D01*
X8404286Y-12204428D02*
X8394762Y-12166333D01*
X8394762Y-12166333D02*
X8394762Y-12118714D01*
X8394762Y-12118714D02*
X8404286Y-12080619D01*
X8404286Y-12080619D02*
X8413810Y-12061571D01*
X8413810Y-12061571D02*
X8423333Y-12052048D01*
X8423333Y-12052048D02*
X8442381Y-12042524D01*
X8594762Y-12242524D02*
X8594762Y-12109190D01*
X8594762Y-12128238D02*
X8604286Y-12118714D01*
X8604286Y-12118714D02*
X8623333Y-12109190D01*
X8623333Y-12109190D02*
X8651905Y-12109190D01*
X8651905Y-12109190D02*
X8670952Y-12118714D01*
X8670952Y-12118714D02*
X8680476Y-12137762D01*
X8680476Y-12137762D02*
X8680476Y-12242524D01*
X8680476Y-12137762D02*
X8690000Y-12118714D01*
X8690000Y-12118714D02*
X8709048Y-12109190D01*
X8709048Y-12109190D02*
X8737619Y-12109190D01*
X8737619Y-12109190D02*
X8756667Y-12118714D01*
X8756667Y-12118714D02*
X8766191Y-12137762D01*
X8766191Y-12137762D02*
X8766191Y-12242524D01*
X8861429Y-12242524D02*
X8861429Y-12109190D01*
X8861429Y-12128238D02*
X8870952Y-12118714D01*
X8870952Y-12118714D02*
X8890000Y-12109190D01*
X8890000Y-12109190D02*
X8918572Y-12109190D01*
X8918572Y-12109190D02*
X8937619Y-12118714D01*
X8937619Y-12118714D02*
X8947143Y-12137762D01*
X8947143Y-12137762D02*
X8947143Y-12242524D01*
X8947143Y-12137762D02*
X8956667Y-12118714D01*
X8956667Y-12118714D02*
X8975714Y-12109190D01*
X8975714Y-12109190D02*
X9004286Y-12109190D01*
X9004286Y-12109190D02*
X9023333Y-12118714D01*
X9023333Y-12118714D02*
X9032857Y-12137762D01*
X9032857Y-12137762D02*
X9032857Y-12242524D01*
X9423333Y-12033000D02*
X9251905Y-12290143D01*
X9680476Y-12042524D02*
X9699524Y-12042524D01*
X9699524Y-12042524D02*
X9718572Y-12052048D01*
X9718572Y-12052048D02*
X9728095Y-12061571D01*
X9728095Y-12061571D02*
X9737619Y-12080619D01*
X9737619Y-12080619D02*
X9747143Y-12118714D01*
X9747143Y-12118714D02*
X9747143Y-12166333D01*
X9747143Y-12166333D02*
X9737619Y-12204428D01*
X9737619Y-12204428D02*
X9728095Y-12223476D01*
X9728095Y-12223476D02*
X9718572Y-12233000D01*
X9718572Y-12233000D02*
X9699524Y-12242524D01*
X9699524Y-12242524D02*
X9680476Y-12242524D01*
X9680476Y-12242524D02*
X9661429Y-12233000D01*
X9661429Y-12233000D02*
X9651905Y-12223476D01*
X9651905Y-12223476D02*
X9642381Y-12204428D01*
X9642381Y-12204428D02*
X9632857Y-12166333D01*
X9632857Y-12166333D02*
X9632857Y-12118714D01*
X9632857Y-12118714D02*
X9642381Y-12080619D01*
X9642381Y-12080619D02*
X9651905Y-12061571D01*
X9651905Y-12061571D02*
X9661429Y-12052048D01*
X9661429Y-12052048D02*
X9680476Y-12042524D01*
X9832857Y-12223476D02*
X9842381Y-12233000D01*
X9842381Y-12233000D02*
X9832857Y-12242524D01*
X9832857Y-12242524D02*
X9823334Y-12233000D01*
X9823334Y-12233000D02*
X9832857Y-12223476D01*
X9832857Y-12223476D02*
X9832857Y-12242524D01*
X10032857Y-12242524D02*
X9918572Y-12242524D01*
X9975714Y-12242524D02*
X9975714Y-12042524D01*
X9975714Y-12042524D02*
X9956667Y-12071095D01*
X9956667Y-12071095D02*
X9937619Y-12090143D01*
X9937619Y-12090143D02*
X9918572Y-12099667D01*
X10109048Y-12061571D02*
X10118572Y-12052048D01*
X10118572Y-12052048D02*
X10137619Y-12042524D01*
X10137619Y-12042524D02*
X10185238Y-12042524D01*
X10185238Y-12042524D02*
X10204286Y-12052048D01*
X10204286Y-12052048D02*
X10213810Y-12061571D01*
X10213810Y-12061571D02*
X10223334Y-12080619D01*
X10223334Y-12080619D02*
X10223334Y-12099667D01*
X10223334Y-12099667D02*
X10213810Y-12128238D01*
X10213810Y-12128238D02*
X10099524Y-12242524D01*
X10099524Y-12242524D02*
X10223334Y-12242524D01*
X10394762Y-12042524D02*
X10356667Y-12042524D01*
X10356667Y-12042524D02*
X10337619Y-12052048D01*
X10337619Y-12052048D02*
X10328095Y-12061571D01*
X10328095Y-12061571D02*
X10309048Y-12090143D01*
X10309048Y-12090143D02*
X10299524Y-12128238D01*
X10299524Y-12128238D02*
X10299524Y-12204428D01*
X10299524Y-12204428D02*
X10309048Y-12223476D01*
X10309048Y-12223476D02*
X10318572Y-12233000D01*
X10318572Y-12233000D02*
X10337619Y-12242524D01*
X10337619Y-12242524D02*
X10375715Y-12242524D01*
X10375715Y-12242524D02*
X10394762Y-12233000D01*
X10394762Y-12233000D02*
X10404286Y-12223476D01*
X10404286Y-12223476D02*
X10413810Y-12204428D01*
X10413810Y-12204428D02*
X10413810Y-12156809D01*
X10413810Y-12156809D02*
X10404286Y-12137762D01*
X10404286Y-12137762D02*
X10394762Y-12128238D01*
X10394762Y-12128238D02*
X10375715Y-12118714D01*
X10375715Y-12118714D02*
X10337619Y-12118714D01*
X10337619Y-12118714D02*
X10318572Y-12128238D01*
X10318572Y-12128238D02*
X10309048Y-12137762D01*
X10309048Y-12137762D02*
X10299524Y-12156809D01*
X10537619Y-12042524D02*
X10556667Y-12042524D01*
X10556667Y-12042524D02*
X10575715Y-12052048D01*
X10575715Y-12052048D02*
X10585238Y-12061571D01*
X10585238Y-12061571D02*
X10594762Y-12080619D01*
X10594762Y-12080619D02*
X10604286Y-12118714D01*
X10604286Y-12118714D02*
X10604286Y-12166333D01*
X10604286Y-12166333D02*
X10594762Y-12204428D01*
X10594762Y-12204428D02*
X10585238Y-12223476D01*
X10585238Y-12223476D02*
X10575715Y-12233000D01*
X10575715Y-12233000D02*
X10556667Y-12242524D01*
X10556667Y-12242524D02*
X10537619Y-12242524D01*
X10537619Y-12242524D02*
X10518572Y-12233000D01*
X10518572Y-12233000D02*
X10509048Y-12223476D01*
X10509048Y-12223476D02*
X10499524Y-12204428D01*
X10499524Y-12204428D02*
X10490000Y-12166333D01*
X10490000Y-12166333D02*
X10490000Y-12118714D01*
X10490000Y-12118714D02*
X10499524Y-12080619D01*
X10499524Y-12080619D02*
X10509048Y-12061571D01*
X10509048Y-12061571D02*
X10518572Y-12052048D01*
X10518572Y-12052048D02*
X10537619Y-12042524D01*
X10680476Y-12042524D02*
X10680476Y-12080619D01*
X10756667Y-12042524D02*
X10756667Y-12080619D01*
X11051905Y-12318714D02*
X11042381Y-12309190D01*
X11042381Y-12309190D02*
X11023334Y-12280619D01*
X11023334Y-12280619D02*
X11013810Y-12261571D01*
X11013810Y-12261571D02*
X11004286Y-12233000D01*
X11004286Y-12233000D02*
X10994762Y-12185381D01*
X10994762Y-12185381D02*
X10994762Y-12147286D01*
X10994762Y-12147286D02*
X11004286Y-12099667D01*
X11004286Y-12099667D02*
X11013810Y-12071095D01*
X11013810Y-12071095D02*
X11023334Y-12052048D01*
X11023334Y-12052048D02*
X11042381Y-12023476D01*
X11042381Y-12023476D02*
X11051905Y-12013952D01*
X11213810Y-12042524D02*
X11175715Y-12042524D01*
X11175715Y-12042524D02*
X11156667Y-12052048D01*
X11156667Y-12052048D02*
X11147143Y-12061571D01*
X11147143Y-12061571D02*
X11128096Y-12090143D01*
X11128096Y-12090143D02*
X11118572Y-12128238D01*
X11118572Y-12128238D02*
X11118572Y-12204428D01*
X11118572Y-12204428D02*
X11128096Y-12223476D01*
X11128096Y-12223476D02*
X11137619Y-12233000D01*
X11137619Y-12233000D02*
X11156667Y-12242524D01*
X11156667Y-12242524D02*
X11194762Y-12242524D01*
X11194762Y-12242524D02*
X11213810Y-12233000D01*
X11213810Y-12233000D02*
X11223334Y-12223476D01*
X11223334Y-12223476D02*
X11232857Y-12204428D01*
X11232857Y-12204428D02*
X11232857Y-12156809D01*
X11232857Y-12156809D02*
X11223334Y-12137762D01*
X11223334Y-12137762D02*
X11213810Y-12128238D01*
X11213810Y-12128238D02*
X11194762Y-12118714D01*
X11194762Y-12118714D02*
X11156667Y-12118714D01*
X11156667Y-12118714D02*
X11137619Y-12128238D01*
X11137619Y-12128238D02*
X11128096Y-12137762D01*
X11128096Y-12137762D02*
X11118572Y-12156809D01*
X11470953Y-12242524D02*
X11470953Y-12042524D01*
X11556667Y-12242524D02*
X11556667Y-12137762D01*
X11556667Y-12137762D02*
X11547143Y-12118714D01*
X11547143Y-12118714D02*
X11528096Y-12109190D01*
X11528096Y-12109190D02*
X11499524Y-12109190D01*
X11499524Y-12109190D02*
X11480476Y-12118714D01*
X11480476Y-12118714D02*
X11470953Y-12128238D01*
X11680476Y-12242524D02*
X11661429Y-12233000D01*
X11661429Y-12233000D02*
X11651905Y-12223476D01*
X11651905Y-12223476D02*
X11642381Y-12204428D01*
X11642381Y-12204428D02*
X11642381Y-12147286D01*
X11642381Y-12147286D02*
X11651905Y-12128238D01*
X11651905Y-12128238D02*
X11661429Y-12118714D01*
X11661429Y-12118714D02*
X11680476Y-12109190D01*
X11680476Y-12109190D02*
X11709048Y-12109190D01*
X11709048Y-12109190D02*
X11728096Y-12118714D01*
X11728096Y-12118714D02*
X11737619Y-12128238D01*
X11737619Y-12128238D02*
X11747143Y-12147286D01*
X11747143Y-12147286D02*
X11747143Y-12204428D01*
X11747143Y-12204428D02*
X11737619Y-12223476D01*
X11737619Y-12223476D02*
X11728096Y-12233000D01*
X11728096Y-12233000D02*
X11709048Y-12242524D01*
X11709048Y-12242524D02*
X11680476Y-12242524D01*
X11861429Y-12242524D02*
X11842381Y-12233000D01*
X11842381Y-12233000D02*
X11832857Y-12213952D01*
X11832857Y-12213952D02*
X11832857Y-12042524D01*
X12013810Y-12233000D02*
X11994762Y-12242524D01*
X11994762Y-12242524D02*
X11956667Y-12242524D01*
X11956667Y-12242524D02*
X11937619Y-12233000D01*
X11937619Y-12233000D02*
X11928096Y-12213952D01*
X11928096Y-12213952D02*
X11928096Y-12137762D01*
X11928096Y-12137762D02*
X11937619Y-12118714D01*
X11937619Y-12118714D02*
X11956667Y-12109190D01*
X11956667Y-12109190D02*
X11994762Y-12109190D01*
X11994762Y-12109190D02*
X12013810Y-12118714D01*
X12013810Y-12118714D02*
X12023334Y-12137762D01*
X12023334Y-12137762D02*
X12023334Y-12156809D01*
X12023334Y-12156809D02*
X11928096Y-12175857D01*
X12099524Y-12233000D02*
X12118572Y-12242524D01*
X12118572Y-12242524D02*
X12156667Y-12242524D01*
X12156667Y-12242524D02*
X12175715Y-12233000D01*
X12175715Y-12233000D02*
X12185238Y-12213952D01*
X12185238Y-12213952D02*
X12185238Y-12204428D01*
X12185238Y-12204428D02*
X12175715Y-12185381D01*
X12175715Y-12185381D02*
X12156667Y-12175857D01*
X12156667Y-12175857D02*
X12128096Y-12175857D01*
X12128096Y-12175857D02*
X12109048Y-12166333D01*
X12109048Y-12166333D02*
X12099524Y-12147286D01*
X12099524Y-12147286D02*
X12099524Y-12137762D01*
X12099524Y-12137762D02*
X12109048Y-12118714D01*
X12109048Y-12118714D02*
X12128096Y-12109190D01*
X12128096Y-12109190D02*
X12156667Y-12109190D01*
X12156667Y-12109190D02*
X12175715Y-12118714D01*
X12251905Y-12318714D02*
X12261429Y-12309190D01*
X12261429Y-12309190D02*
X12280477Y-12280619D01*
X12280477Y-12280619D02*
X12290000Y-12261571D01*
X12290000Y-12261571D02*
X12299524Y-12233000D01*
X12299524Y-12233000D02*
X12309048Y-12185381D01*
X12309048Y-12185381D02*
X12309048Y-12147286D01*
X12309048Y-12147286D02*
X12299524Y-12099667D01*
X12299524Y-12099667D02*
X12290000Y-12071095D01*
X12290000Y-12071095D02*
X12280477Y-12052048D01*
X12280477Y-12052048D02*
X12261429Y-12023476D01*
X12261429Y-12023476D02*
X12251905Y-12013952D01*
X12613810Y-12318714D02*
X12604286Y-12309190D01*
X12604286Y-12309190D02*
X12585238Y-12280619D01*
X12585238Y-12280619D02*
X12575715Y-12261571D01*
X12575715Y-12261571D02*
X12566191Y-12233000D01*
X12566191Y-12233000D02*
X12556667Y-12185381D01*
X12556667Y-12185381D02*
X12556667Y-12147286D01*
X12556667Y-12147286D02*
X12566191Y-12099667D01*
X12566191Y-12099667D02*
X12575715Y-12071095D01*
X12575715Y-12071095D02*
X12585238Y-12052048D01*
X12585238Y-12052048D02*
X12604286Y-12023476D01*
X12604286Y-12023476D02*
X12613810Y-12013952D01*
X12690000Y-12109190D02*
X12690000Y-12242524D01*
X12690000Y-12128238D02*
X12699524Y-12118714D01*
X12699524Y-12118714D02*
X12718572Y-12109190D01*
X12718572Y-12109190D02*
X12747143Y-12109190D01*
X12747143Y-12109190D02*
X12766191Y-12118714D01*
X12766191Y-12118714D02*
X12775715Y-12137762D01*
X12775715Y-12137762D02*
X12775715Y-12242524D01*
X12899524Y-12242524D02*
X12880477Y-12233000D01*
X12880477Y-12233000D02*
X12870953Y-12223476D01*
X12870953Y-12223476D02*
X12861429Y-12204428D01*
X12861429Y-12204428D02*
X12861429Y-12147286D01*
X12861429Y-12147286D02*
X12870953Y-12128238D01*
X12870953Y-12128238D02*
X12880477Y-12118714D01*
X12880477Y-12118714D02*
X12899524Y-12109190D01*
X12899524Y-12109190D02*
X12928096Y-12109190D01*
X12928096Y-12109190D02*
X12947143Y-12118714D01*
X12947143Y-12118714D02*
X12956667Y-12128238D01*
X12956667Y-12128238D02*
X12966191Y-12147286D01*
X12966191Y-12147286D02*
X12966191Y-12204428D01*
X12966191Y-12204428D02*
X12956667Y-12223476D01*
X12956667Y-12223476D02*
X12947143Y-12233000D01*
X12947143Y-12233000D02*
X12928096Y-12242524D01*
X12928096Y-12242524D02*
X12899524Y-12242524D01*
X13023334Y-12109190D02*
X13099524Y-12109190D01*
X13051905Y-12042524D02*
X13051905Y-12213952D01*
X13051905Y-12213952D02*
X13061429Y-12233000D01*
X13061429Y-12233000D02*
X13080477Y-12242524D01*
X13080477Y-12242524D02*
X13099524Y-12242524D01*
X13318572Y-12109190D02*
X13318572Y-12309190D01*
X13318572Y-12118714D02*
X13337619Y-12109190D01*
X13337619Y-12109190D02*
X13375715Y-12109190D01*
X13375715Y-12109190D02*
X13394762Y-12118714D01*
X13394762Y-12118714D02*
X13404286Y-12128238D01*
X13404286Y-12128238D02*
X13413810Y-12147286D01*
X13413810Y-12147286D02*
X13413810Y-12204428D01*
X13413810Y-12204428D02*
X13404286Y-12223476D01*
X13404286Y-12223476D02*
X13394762Y-12233000D01*
X13394762Y-12233000D02*
X13375715Y-12242524D01*
X13375715Y-12242524D02*
X13337619Y-12242524D01*
X13337619Y-12242524D02*
X13318572Y-12233000D01*
X13528096Y-12242524D02*
X13509048Y-12233000D01*
X13509048Y-12233000D02*
X13499524Y-12213952D01*
X13499524Y-12213952D02*
X13499524Y-12042524D01*
X13690000Y-12242524D02*
X13690000Y-12137762D01*
X13690000Y-12137762D02*
X13680477Y-12118714D01*
X13680477Y-12118714D02*
X13661429Y-12109190D01*
X13661429Y-12109190D02*
X13623334Y-12109190D01*
X13623334Y-12109190D02*
X13604286Y-12118714D01*
X13690000Y-12233000D02*
X13670953Y-12242524D01*
X13670953Y-12242524D02*
X13623334Y-12242524D01*
X13623334Y-12242524D02*
X13604286Y-12233000D01*
X13604286Y-12233000D02*
X13594762Y-12213952D01*
X13594762Y-12213952D02*
X13594762Y-12194905D01*
X13594762Y-12194905D02*
X13604286Y-12175857D01*
X13604286Y-12175857D02*
X13623334Y-12166333D01*
X13623334Y-12166333D02*
X13670953Y-12166333D01*
X13670953Y-12166333D02*
X13690000Y-12156809D01*
X13756667Y-12109190D02*
X13832858Y-12109190D01*
X13785239Y-12042524D02*
X13785239Y-12213952D01*
X13785239Y-12213952D02*
X13794762Y-12233000D01*
X13794762Y-12233000D02*
X13813810Y-12242524D01*
X13813810Y-12242524D02*
X13832858Y-12242524D01*
X13975715Y-12233000D02*
X13956667Y-12242524D01*
X13956667Y-12242524D02*
X13918572Y-12242524D01*
X13918572Y-12242524D02*
X13899524Y-12233000D01*
X13899524Y-12233000D02*
X13890000Y-12213952D01*
X13890000Y-12213952D02*
X13890000Y-12137762D01*
X13890000Y-12137762D02*
X13899524Y-12118714D01*
X13899524Y-12118714D02*
X13918572Y-12109190D01*
X13918572Y-12109190D02*
X13956667Y-12109190D01*
X13956667Y-12109190D02*
X13975715Y-12118714D01*
X13975715Y-12118714D02*
X13985239Y-12137762D01*
X13985239Y-12137762D02*
X13985239Y-12156809D01*
X13985239Y-12156809D02*
X13890000Y-12175857D01*
X14156667Y-12242524D02*
X14156667Y-12042524D01*
X14156667Y-12233000D02*
X14137620Y-12242524D01*
X14137620Y-12242524D02*
X14099524Y-12242524D01*
X14099524Y-12242524D02*
X14080477Y-12233000D01*
X14080477Y-12233000D02*
X14070953Y-12223476D01*
X14070953Y-12223476D02*
X14061429Y-12204428D01*
X14061429Y-12204428D02*
X14061429Y-12147286D01*
X14061429Y-12147286D02*
X14070953Y-12128238D01*
X14070953Y-12128238D02*
X14080477Y-12118714D01*
X14080477Y-12118714D02*
X14099524Y-12109190D01*
X14099524Y-12109190D02*
X14137620Y-12109190D01*
X14137620Y-12109190D02*
X14156667Y-12118714D01*
X14232858Y-12318714D02*
X14242381Y-12309190D01*
X14242381Y-12309190D02*
X14261429Y-12280619D01*
X14261429Y-12280619D02*
X14270953Y-12261571D01*
X14270953Y-12261571D02*
X14280477Y-12233000D01*
X14280477Y-12233000D02*
X14290000Y-12185381D01*
X14290000Y-12185381D02*
X14290000Y-12147286D01*
X14290000Y-12147286D02*
X14280477Y-12099667D01*
X14280477Y-12099667D02*
X14270953Y-12071095D01*
X14270953Y-12071095D02*
X14261429Y-12052048D01*
X14261429Y-12052048D02*
X14242381Y-12023476D01*
X14242381Y-12023476D02*
X14232858Y-12013952D01*
M02*
