%TF.GenerationSoftware,KiCad,Pcbnew,(7.0.0)*%
%TF.CreationDate,2023-02-23T17:38:32-05:00*%
%TF.ProjectId,TeamButton,5465616d-4275-4747-946f-6e2e6b696361,rev?*%
%TF.SameCoordinates,Original*%
%TF.FileFunction,Copper,L1,Top*%
%TF.FilePolarity,Positive*%
%FSLAX46Y46*%
G04 Gerber Fmt 4.6, Leading zero omitted, Abs format (unit mm)*
G04 Created by KiCad (PCBNEW (7.0.0)) date 2023-02-23 17:38:32*
%MOMM*%
%LPD*%
G01*
G04 APERTURE LIST*
G04 Aperture macros list*
%AMRoundRect*
0 Rectangle with rounded corners*
0 $1 Rounding radius*
0 $2 $3 $4 $5 $6 $7 $8 $9 X,Y pos of 4 corners*
0 Add a 4 corners polygon primitive as box body*
4,1,4,$2,$3,$4,$5,$6,$7,$8,$9,$2,$3,0*
0 Add four circle primitives for the rounded corners*
1,1,$1+$1,$2,$3*
1,1,$1+$1,$4,$5*
1,1,$1+$1,$6,$7*
1,1,$1+$1,$8,$9*
0 Add four rect primitives between the rounded corners*
20,1,$1+$1,$2,$3,$4,$5,0*
20,1,$1+$1,$4,$5,$6,$7,0*
20,1,$1+$1,$6,$7,$8,$9,0*
20,1,$1+$1,$8,$9,$2,$3,0*%
G04 Aperture macros list end*
%TA.AperFunction,ComponentPad*%
%ADD10C,1.524000*%
%TD*%
%TA.AperFunction,ComponentPad*%
%ADD11RoundRect,0.500000X1.500000X0.500000X-1.500000X0.500000X-1.500000X-0.500000X1.500000X-0.500000X0*%
%TD*%
%TA.AperFunction,Conductor*%
%ADD12C,0.250000*%
%TD*%
%TA.AperFunction,Conductor*%
%ADD13C,0.762000*%
%TD*%
G04 APERTURE END LIST*
D10*
%TO.P,J1,1*%
%TO.N,GND*%
X140900000Y-62965000D03*
%TO.P,J1,2*%
%TO.N,Net-(SW2-C)*%
X138360000Y-61695000D03*
%TO.P,J1,3*%
%TO.N,unconnected-(J1-Pad3)*%
X140900000Y-60425000D03*
%TO.P,J1,4*%
%TO.N,unconnected-(J1-Pad4)*%
X138360000Y-59155000D03*
%TO.P,J1,5*%
%TO.N,Net-(SW1-C)*%
X140900000Y-57885000D03*
%TO.P,J1,6*%
%TO.N,unconnected-(J1-Pad6)*%
X138360000Y-56615000D03*
%TO.P,J1,7*%
%TO.N,unconnected-(J1-Pad7)*%
X140900000Y-55345000D03*
%TO.P,J1,8*%
%TO.N,unconnected-(J1-Pad8)*%
X138360000Y-54075000D03*
%TD*%
D11*
%TO.P,SW1,1,C*%
%TO.N,Net-(SW1-C)*%
X92710000Y-81390000D03*
%TO.P,SW1,2,NC*%
%TO.N,unconnected-(SW1-NC-Pad2)*%
X92710000Y-65390000D03*
%TO.P,SW1,3,NO*%
%TO.N,GND*%
X92710000Y-72390000D03*
%TD*%
%TO.P,SW2,1,C*%
%TO.N,Net-(SW2-C)*%
X123825000Y-106240000D03*
%TO.P,SW2,2,NC*%
%TO.N,unconnected-(SW2-NC-Pad2)*%
X123825000Y-90240000D03*
%TO.P,SW2,3,NO*%
%TO.N,GND*%
X123825000Y-97240000D03*
%TD*%
D12*
%TO.N,GND*%
X123825000Y-97155000D02*
X123825000Y-97240000D01*
X123825000Y-97240000D02*
X123825000Y-96520000D01*
D13*
%TO.N,Net-(SW2-C)*%
X134542993Y-106240000D02*
X123825000Y-106240000D01*
X138360000Y-61695000D02*
X138360000Y-102258944D01*
X137159987Y-105155987D02*
G75*
G03*
X138360000Y-102258944I-2897087J2897087D01*
G01*
X134542993Y-106239996D02*
G75*
G03*
X137159999Y-105155999I7J3700996D01*
G01*
%TO.N,Net-(SW1-C)*%
X143764000Y-56896000D02*
X143764000Y-52534420D01*
X143107211Y-58060789D02*
X143404790Y-57763210D01*
X87884000Y-53042420D02*
X87884000Y-79545580D01*
X89883983Y-81390000D02*
X92710000Y-81390000D01*
X142029580Y-50800000D02*
X90424000Y-50800000D01*
X88689579Y-51518421D02*
X88392000Y-51816000D01*
X142191604Y-58420000D02*
X142240000Y-58420000D01*
X90424000Y-50799988D02*
G75*
G03*
X88689579Y-51518421I0J-2452812D01*
G01*
X87884009Y-79545580D02*
G75*
G03*
X88392000Y-80772000I1734391J-20D01*
G01*
X142240000Y-58420006D02*
G75*
G03*
X143107211Y-58060789I0J1226406D01*
G01*
X88391994Y-51815994D02*
G75*
G03*
X87884000Y-53042420I1226406J-1226406D01*
G01*
X143763991Y-52534420D02*
G75*
G03*
X143256000Y-51308000I-1734391J20D01*
G01*
X143256006Y-51307994D02*
G75*
G03*
X142029580Y-50800000I-1226406J-1226406D01*
G01*
X143404786Y-57763206D02*
G75*
G03*
X143764000Y-56896000I-867186J867206D01*
G01*
X88392005Y-80771995D02*
G75*
G03*
X89883983Y-81390000I1491995J1491995D01*
G01*
X140899999Y-57885001D02*
G75*
G03*
X142191604Y-58420000I1291601J1291601D01*
G01*
%TD*%
%TA.AperFunction,Conductor*%
%TO.N,GND*%
G36*
X140002712Y-45000617D02*
G01*
X140007074Y-45000805D01*
X140104229Y-45004994D01*
X140410095Y-45019652D01*
X140420251Y-45020555D01*
X140592646Y-45042969D01*
X140594171Y-45043178D01*
X140827967Y-45076997D01*
X140836848Y-45078609D01*
X141019531Y-45118595D01*
X141022361Y-45119249D01*
X141239115Y-45172161D01*
X141246629Y-45174245D01*
X141429928Y-45231283D01*
X141433837Y-45232571D01*
X141640195Y-45304454D01*
X141646358Y-45306785D01*
X141825792Y-45380096D01*
X141830700Y-45382225D01*
X142028115Y-45472995D01*
X142032924Y-45475332D01*
X142158090Y-45539554D01*
X142205384Y-45563820D01*
X142211205Y-45567004D01*
X142400001Y-45676795D01*
X142403583Y-45678958D01*
X142566221Y-45780982D01*
X142572715Y-45785343D01*
X142753902Y-45915381D01*
X142756266Y-45917120D01*
X142905577Y-46029792D01*
X142912568Y-46035473D01*
X143090427Y-46190926D01*
X143091631Y-46191994D01*
X143208164Y-46296837D01*
X143220804Y-46308209D01*
X143228144Y-46315374D01*
X143439335Y-46539036D01*
X143439679Y-46539402D01*
X143507771Y-46612207D01*
X143511367Y-46616222D01*
X143639451Y-46765565D01*
X143641394Y-46767471D01*
X143641397Y-46767474D01*
X143737142Y-46861388D01*
X143924180Y-47044850D01*
X144231895Y-47298586D01*
X144560311Y-47524890D01*
X144906990Y-47722082D01*
X145269358Y-47888697D01*
X145644723Y-48023498D01*
X146030300Y-48125485D01*
X146423225Y-48193899D01*
X146820582Y-48228234D01*
X147019900Y-48228245D01*
X147019899Y-48231455D01*
X147019901Y-48231456D01*
X147019901Y-48228246D01*
X147020000Y-48228246D01*
X154813500Y-48228246D01*
X154876500Y-48245127D01*
X154922619Y-48291246D01*
X154939500Y-48354246D01*
X154939500Y-67183500D01*
X154922619Y-67246500D01*
X154876500Y-67292619D01*
X154813500Y-67309500D01*
X146270500Y-67309500D01*
X146270000Y-67309500D01*
X146170009Y-67309500D01*
X146165126Y-67310273D01*
X146165118Y-67310274D01*
X145977378Y-67340009D01*
X145977368Y-67340011D01*
X145972490Y-67340784D01*
X145967784Y-67342312D01*
X145967780Y-67342314D01*
X145787009Y-67401049D01*
X145786997Y-67401053D01*
X145782297Y-67402581D01*
X145777889Y-67404826D01*
X145777884Y-67404829D01*
X145608528Y-67491121D01*
X145608523Y-67491123D01*
X145604113Y-67493371D01*
X145600108Y-67496280D01*
X145600101Y-67496285D01*
X145446332Y-67608005D01*
X145446326Y-67608009D01*
X145442325Y-67610917D01*
X145438825Y-67614416D01*
X145438819Y-67614422D01*
X145304422Y-67748819D01*
X145304416Y-67748825D01*
X145300917Y-67752325D01*
X145298009Y-67756326D01*
X145298005Y-67756332D01*
X145186285Y-67910101D01*
X145186280Y-67910108D01*
X145183371Y-67914113D01*
X145181123Y-67918523D01*
X145181121Y-67918528D01*
X145094829Y-68087884D01*
X145094826Y-68087889D01*
X145092581Y-68092297D01*
X145091053Y-68096997D01*
X145091049Y-68097009D01*
X145032314Y-68277780D01*
X145030784Y-68282490D01*
X145030011Y-68287368D01*
X145030009Y-68287378D01*
X145000274Y-68475118D01*
X145000273Y-68475126D01*
X144999500Y-68480009D01*
X144999500Y-68484962D01*
X144999500Y-109997404D01*
X144999392Y-110002611D01*
X144990525Y-110216982D01*
X144990513Y-110217272D01*
X144981951Y-110413355D01*
X144981103Y-110423443D01*
X144954586Y-110636182D01*
X144954476Y-110637044D01*
X144928431Y-110834867D01*
X144926827Y-110844277D01*
X144882965Y-111053467D01*
X144882660Y-111054881D01*
X144839340Y-111250287D01*
X144837089Y-111258968D01*
X144776177Y-111463568D01*
X144775583Y-111465505D01*
X144715328Y-111656607D01*
X144712541Y-111664520D01*
X144635002Y-111863236D01*
X144634030Y-111865652D01*
X144557283Y-112050936D01*
X144554071Y-112058057D01*
X144460444Y-112249574D01*
X144459010Y-112252416D01*
X144366375Y-112430365D01*
X144362853Y-112436681D01*
X144253750Y-112619781D01*
X144251776Y-112622984D01*
X144143955Y-112792228D01*
X144140233Y-112797744D01*
X144016426Y-112971147D01*
X144013844Y-112974635D01*
X143891651Y-113133880D01*
X143887836Y-113138610D01*
X143750133Y-113301195D01*
X143746882Y-113304885D01*
X143611275Y-113452875D01*
X143607473Y-113456846D01*
X143456846Y-113607473D01*
X143452875Y-113611275D01*
X143304885Y-113746882D01*
X143301195Y-113750133D01*
X143138610Y-113887836D01*
X143133880Y-113891651D01*
X142974635Y-114013844D01*
X142971147Y-114016426D01*
X142797744Y-114140233D01*
X142792228Y-114143955D01*
X142622984Y-114251776D01*
X142619781Y-114253750D01*
X142436681Y-114362853D01*
X142430365Y-114366375D01*
X142252416Y-114459010D01*
X142249574Y-114460444D01*
X142058057Y-114554071D01*
X142050936Y-114557283D01*
X141865652Y-114634030D01*
X141863236Y-114635002D01*
X141664520Y-114712541D01*
X141656607Y-114715328D01*
X141465505Y-114775583D01*
X141463568Y-114776177D01*
X141258968Y-114837089D01*
X141250287Y-114839340D01*
X141054881Y-114882660D01*
X141053467Y-114882965D01*
X140844277Y-114926827D01*
X140834867Y-114928431D01*
X140637044Y-114954476D01*
X140636182Y-114954586D01*
X140423443Y-114981103D01*
X140413354Y-114981951D01*
X140217291Y-114990512D01*
X140217002Y-114990524D01*
X140002611Y-114999392D01*
X139997404Y-114999500D01*
X80002596Y-114999500D01*
X79997389Y-114999392D01*
X79782996Y-114990524D01*
X79782707Y-114990512D01*
X79586644Y-114981951D01*
X79576555Y-114981103D01*
X79363816Y-114954586D01*
X79362954Y-114954476D01*
X79165131Y-114928431D01*
X79155721Y-114926827D01*
X78946531Y-114882965D01*
X78945117Y-114882660D01*
X78749711Y-114839340D01*
X78741030Y-114837089D01*
X78536430Y-114776177D01*
X78534493Y-114775583D01*
X78343391Y-114715328D01*
X78335478Y-114712541D01*
X78136762Y-114635002D01*
X78134346Y-114634030D01*
X77949062Y-114557283D01*
X77941941Y-114554071D01*
X77750424Y-114460444D01*
X77747582Y-114459010D01*
X77569633Y-114366375D01*
X77563317Y-114362853D01*
X77380217Y-114253750D01*
X77377014Y-114251776D01*
X77207770Y-114143955D01*
X77202254Y-114140233D01*
X77028851Y-114016426D01*
X77025363Y-114013844D01*
X76866118Y-113891651D01*
X76861388Y-113887836D01*
X76698803Y-113750133D01*
X76695113Y-113746882D01*
X76547123Y-113611275D01*
X76543152Y-113607473D01*
X76392525Y-113456846D01*
X76388723Y-113452875D01*
X76253116Y-113304885D01*
X76249865Y-113301195D01*
X76112162Y-113138610D01*
X76108347Y-113133880D01*
X76067963Y-113081250D01*
X75986142Y-112974619D01*
X75983572Y-112971147D01*
X75859765Y-112797744D01*
X75856043Y-112792228D01*
X75761099Y-112643196D01*
X75748205Y-112622957D01*
X75746248Y-112619781D01*
X75637145Y-112436681D01*
X75633623Y-112430365D01*
X75597280Y-112360551D01*
X75540957Y-112252354D01*
X75539554Y-112249574D01*
X75533196Y-112236569D01*
X75445921Y-112058044D01*
X75442721Y-112050950D01*
X75365955Y-111865621D01*
X75364996Y-111863236D01*
X75360246Y-111851062D01*
X75287453Y-111664509D01*
X75284670Y-111656607D01*
X75224369Y-111465355D01*
X75223855Y-111463679D01*
X75191872Y-111356252D01*
X76238456Y-111356252D01*
X76291457Y-111492083D01*
X76354393Y-111644024D01*
X76431319Y-111801378D01*
X76507293Y-111947321D01*
X76596928Y-112097750D01*
X76685366Y-112236569D01*
X76787055Y-112378994D01*
X76887324Y-112509666D01*
X77000418Y-112643196D01*
X77111670Y-112764607D01*
X77235389Y-112888326D01*
X77356800Y-112999578D01*
X77490330Y-113112672D01*
X77621002Y-113212941D01*
X77763427Y-113314630D01*
X77902246Y-113403068D01*
X78052675Y-113492703D01*
X78198618Y-113568677D01*
X78313310Y-113624747D01*
X79005962Y-113224844D01*
X81001962Y-113224844D01*
X81450365Y-114001500D01*
X84916777Y-114001500D01*
X83601771Y-111723843D01*
X81001962Y-113224844D01*
X79005962Y-113224844D01*
X79638670Y-112859550D01*
X78137669Y-110259741D01*
X76238456Y-111356252D01*
X75191872Y-111356252D01*
X75162905Y-111258953D01*
X75160664Y-111250312D01*
X75117327Y-111054833D01*
X75117033Y-111053467D01*
X75111495Y-111027057D01*
X75073170Y-110844273D01*
X75071567Y-110834867D01*
X75069409Y-110818474D01*
X75045491Y-110636807D01*
X75018893Y-110423423D01*
X75018048Y-110413375D01*
X75009482Y-110217178D01*
X75000608Y-110002611D01*
X75000500Y-109997404D01*
X75000500Y-109979385D01*
X75998500Y-109979385D01*
X76006577Y-110174693D01*
X76013520Y-110333728D01*
X77005962Y-109760742D01*
X79001962Y-109760742D01*
X80502963Y-112360551D01*
X82470064Y-111224844D01*
X84466064Y-111224844D01*
X85967065Y-113824653D01*
X87934167Y-112688945D01*
X89930165Y-112688945D01*
X90687970Y-114001500D01*
X93660756Y-114001500D01*
X94030975Y-113787753D01*
X92529974Y-111187944D01*
X89930165Y-112688945D01*
X87934167Y-112688945D01*
X88566873Y-112323652D01*
X87065872Y-109723843D01*
X84466064Y-111224844D01*
X82470064Y-111224844D01*
X83102772Y-110859550D01*
X81601771Y-108259741D01*
X79001962Y-109760742D01*
X77005962Y-109760742D01*
X77638670Y-109395448D01*
X76137669Y-106795641D01*
X75998500Y-106875991D01*
X75998500Y-109979385D01*
X75000500Y-109979385D01*
X75000500Y-106296641D01*
X77001962Y-106296641D01*
X78502963Y-108896449D01*
X80470064Y-107760742D01*
X82466064Y-107760742D01*
X83967065Y-110360551D01*
X85934166Y-109224844D01*
X87930165Y-109224844D01*
X89431166Y-111824653D01*
X91398269Y-110688945D01*
X93394267Y-110688945D01*
X94895268Y-113288754D01*
X96862369Y-112153047D01*
X98858369Y-112153047D01*
X99925575Y-114001500D01*
X101660757Y-114001500D01*
X102326471Y-113617149D01*
X104322470Y-113617149D01*
X104544376Y-114001500D01*
X108010788Y-114001500D01*
X106922279Y-112116148D01*
X104322470Y-113617149D01*
X102326471Y-113617149D01*
X102959178Y-113251855D01*
X101458177Y-110652046D01*
X98858369Y-112153047D01*
X96862369Y-112153047D01*
X97495077Y-111787753D01*
X95994076Y-109187944D01*
X93394267Y-110688945D01*
X91398269Y-110688945D01*
X92030975Y-110323652D01*
X90529974Y-107723843D01*
X87930165Y-109224844D01*
X85934166Y-109224844D01*
X86566873Y-108859550D01*
X85065872Y-106259741D01*
X82466064Y-107760742D01*
X80470064Y-107760742D01*
X81102772Y-107395448D01*
X79601771Y-104795640D01*
X77001962Y-106296641D01*
X75000500Y-106296641D01*
X75000500Y-104558592D01*
X75998500Y-104558592D01*
X76502963Y-105432348D01*
X78470064Y-104296641D01*
X80466064Y-104296641D01*
X81967065Y-106896449D01*
X83934166Y-105760742D01*
X85930165Y-105760742D01*
X87431166Y-108360551D01*
X89398267Y-107224844D01*
X91394267Y-107224844D01*
X92895268Y-109824653D01*
X94862371Y-108688945D01*
X96858369Y-108688945D01*
X98359370Y-111288754D01*
X100326471Y-110153047D01*
X102322470Y-110153047D01*
X103823471Y-112752856D01*
X105790572Y-111617149D01*
X107786572Y-111617149D01*
X109163179Y-114001500D01*
X109660756Y-114001500D01*
X111254675Y-113081250D01*
X113250673Y-113081250D01*
X113781980Y-114001500D01*
X117248392Y-114001500D01*
X115850482Y-111580249D01*
X113250673Y-113081250D01*
X111254675Y-113081250D01*
X111887382Y-112715956D01*
X110386381Y-110116148D01*
X107786572Y-111617149D01*
X105790572Y-111617149D01*
X106423280Y-111251855D01*
X104922279Y-108652046D01*
X102322470Y-110153047D01*
X100326471Y-110153047D01*
X100959178Y-109787753D01*
X99458177Y-107187944D01*
X96858369Y-108688945D01*
X94862371Y-108688945D01*
X95495077Y-108323652D01*
X93994076Y-105723843D01*
X91394267Y-107224844D01*
X89398267Y-107224844D01*
X90030975Y-106859550D01*
X88529974Y-104259741D01*
X85930165Y-105760742D01*
X83934166Y-105760742D01*
X84566873Y-105395448D01*
X83065872Y-102795640D01*
X80466064Y-104296641D01*
X78470064Y-104296641D01*
X79102772Y-103931347D01*
X77601771Y-101331538D01*
X75998500Y-102257188D01*
X75998500Y-104558592D01*
X75000500Y-104558592D01*
X75000500Y-100832539D01*
X78466064Y-100832539D01*
X79967065Y-103432348D01*
X81934166Y-102296641D01*
X83930165Y-102296641D01*
X85431166Y-104896449D01*
X87398267Y-103760742D01*
X89394267Y-103760742D01*
X90895268Y-106360551D01*
X92862369Y-105224844D01*
X94858369Y-105224844D01*
X96359370Y-107824653D01*
X98326472Y-106688945D01*
X100322470Y-106688945D01*
X101823471Y-109288754D01*
X103790572Y-108153047D01*
X105786572Y-108153047D01*
X107287573Y-110752856D01*
X109254674Y-109617149D01*
X111250673Y-109617149D01*
X112751674Y-112216957D01*
X114718775Y-111081250D01*
X116714775Y-111081250D01*
X118215776Y-113681059D01*
X120182877Y-112545352D01*
X122178877Y-112545352D01*
X123019585Y-114001500D01*
X125660757Y-114001500D01*
X127656756Y-114001500D01*
X131104799Y-114001500D01*
X130242787Y-112508453D01*
X127656756Y-114001500D01*
X125660757Y-114001500D01*
X126279686Y-113644160D01*
X124778685Y-111044351D01*
X122178877Y-112545352D01*
X120182877Y-112545352D01*
X120815585Y-112180058D01*
X119314584Y-109580249D01*
X116714775Y-111081250D01*
X114718775Y-111081250D01*
X115351483Y-110715956D01*
X113850482Y-108116148D01*
X111250673Y-109617149D01*
X109254674Y-109617149D01*
X109887382Y-109251855D01*
X108386381Y-106652046D01*
X105786572Y-108153047D01*
X103790572Y-108153047D01*
X104423280Y-107787753D01*
X102922279Y-105187944D01*
X100322470Y-106688945D01*
X98326472Y-106688945D01*
X98959178Y-106323652D01*
X97458177Y-103723843D01*
X94858369Y-105224844D01*
X92862369Y-105224844D01*
X93495077Y-104859550D01*
X91994076Y-102259741D01*
X89394267Y-103760742D01*
X87398267Y-103760742D01*
X88030975Y-103395448D01*
X86529974Y-100795640D01*
X83930165Y-102296641D01*
X81934166Y-102296641D01*
X82566873Y-101931347D01*
X81065872Y-99331538D01*
X78466064Y-100832539D01*
X75000500Y-100832539D01*
X75000500Y-97368437D01*
X76466064Y-97368437D01*
X77967065Y-99968246D01*
X79934166Y-98832539D01*
X81930165Y-98832539D01*
X83431166Y-101432348D01*
X85398267Y-100296641D01*
X87394267Y-100296641D01*
X88895268Y-102896449D01*
X90862369Y-101760742D01*
X92858369Y-101760742D01*
X94359370Y-104360551D01*
X96326471Y-103224844D01*
X98322470Y-103224844D01*
X99823471Y-105824653D01*
X101790574Y-104688945D01*
X103786572Y-104688945D01*
X105287573Y-107288754D01*
X107254674Y-106153047D01*
X109250673Y-106153047D01*
X110751674Y-108752856D01*
X112718775Y-107617149D01*
X114714775Y-107617149D01*
X116215776Y-110216957D01*
X118182877Y-109081250D01*
X120178877Y-109081250D01*
X121679878Y-111681059D01*
X123646979Y-110545352D01*
X125642978Y-110545352D01*
X127143979Y-113145161D01*
X129111080Y-112009454D01*
X131107080Y-112009454D01*
X132257190Y-114001500D01*
X133660756Y-114001500D01*
X134575183Y-113473555D01*
X136571182Y-113473555D01*
X136875992Y-114001500D01*
X139979376Y-114001500D01*
X140174723Y-113993419D01*
X140333728Y-113986476D01*
X139506623Y-112553887D01*
X139361147Y-112518962D01*
X140638850Y-112518962D01*
X141356252Y-113761540D01*
X141492083Y-113708539D01*
X141644024Y-113645603D01*
X141801378Y-113568677D01*
X141947321Y-113492703D01*
X142097750Y-113403068D01*
X142236569Y-113314630D01*
X142378994Y-113212941D01*
X142509666Y-113112672D01*
X142643196Y-112999578D01*
X142764607Y-112888326D01*
X142888326Y-112764607D01*
X142999578Y-112643196D01*
X143112672Y-112509666D01*
X143212941Y-112378994D01*
X143314630Y-112236569D01*
X143403068Y-112097750D01*
X143492703Y-111947321D01*
X143568677Y-111801378D01*
X143624747Y-111686686D01*
X142635092Y-109972554D01*
X142603061Y-109991048D01*
X142603061Y-110009886D01*
X142602964Y-110014833D01*
X142600664Y-110073364D01*
X142600373Y-110078303D01*
X142580607Y-110329451D01*
X142580122Y-110334374D01*
X142573237Y-110392546D01*
X142572559Y-110397448D01*
X142569466Y-110416976D01*
X142568596Y-110421847D01*
X142557169Y-110479293D01*
X142556109Y-110484125D01*
X142497299Y-110729088D01*
X142496049Y-110733875D01*
X142480147Y-110790260D01*
X142478711Y-110794996D01*
X142472601Y-110813800D01*
X142470980Y-110818474D01*
X142450709Y-110873421D01*
X142448906Y-110878028D01*
X142352499Y-111110776D01*
X142350516Y-111115308D01*
X142325997Y-111168495D01*
X142323839Y-111172946D01*
X142314863Y-111190563D01*
X142312529Y-111194928D01*
X142283902Y-111246045D01*
X142281401Y-111250314D01*
X142149771Y-111465114D01*
X142147102Y-111469283D01*
X142114543Y-111518009D01*
X142111712Y-111522070D01*
X142100090Y-111538065D01*
X142097105Y-111542008D01*
X142060858Y-111587985D01*
X142057721Y-111591807D01*
X141894109Y-111783372D01*
X141890823Y-111787070D01*
X141851062Y-111830084D01*
X141847632Y-111833651D01*
X141833651Y-111847632D01*
X141830084Y-111851062D01*
X141787070Y-111890823D01*
X141783372Y-111894109D01*
X141591807Y-112057721D01*
X141587985Y-112060858D01*
X141542008Y-112097105D01*
X141538065Y-112100090D01*
X141522070Y-112111712D01*
X141518009Y-112114543D01*
X141469283Y-112147102D01*
X141465114Y-112149771D01*
X141250314Y-112281401D01*
X141246045Y-112283902D01*
X141194928Y-112312529D01*
X141190563Y-112314863D01*
X141172946Y-112323839D01*
X141168495Y-112325997D01*
X141115308Y-112350516D01*
X141110776Y-112352499D01*
X140878028Y-112448906D01*
X140873421Y-112450709D01*
X140818474Y-112470980D01*
X140813800Y-112472601D01*
X140794996Y-112478711D01*
X140790260Y-112480147D01*
X140733875Y-112496049D01*
X140729088Y-112497299D01*
X140638850Y-112518962D01*
X139361147Y-112518962D01*
X139270912Y-112497299D01*
X139266125Y-112496049D01*
X139209740Y-112480147D01*
X139205004Y-112478711D01*
X139186200Y-112472601D01*
X139181526Y-112470980D01*
X139126579Y-112450709D01*
X139121972Y-112448906D01*
X138889224Y-112352499D01*
X138884692Y-112350516D01*
X138831505Y-112325997D01*
X138827054Y-112323839D01*
X138809437Y-112314863D01*
X138805072Y-112312529D01*
X138753955Y-112283902D01*
X138749686Y-112281400D01*
X138694562Y-112247620D01*
X136571182Y-113473555D01*
X134575183Y-113473555D01*
X135207890Y-113108261D01*
X133706889Y-110508453D01*
X131107080Y-112009454D01*
X129111080Y-112009454D01*
X129743788Y-111644160D01*
X128242787Y-109044351D01*
X125642978Y-110545352D01*
X123646979Y-110545352D01*
X124279686Y-110180058D01*
X123452020Y-108746499D01*
X122275453Y-108746500D01*
X122272361Y-108746462D01*
X122235739Y-108745563D01*
X122232646Y-108745449D01*
X122220296Y-108744842D01*
X122217210Y-108744652D01*
X122180711Y-108741959D01*
X122177632Y-108741694D01*
X122029478Y-108727102D01*
X122023342Y-108726346D01*
X121950950Y-108715609D01*
X121944859Y-108714552D01*
X121920633Y-108709734D01*
X121914597Y-108708378D01*
X121843558Y-108690585D01*
X121837595Y-108688936D01*
X121647492Y-108631269D01*
X121641618Y-108629328D01*
X121572671Y-108604657D01*
X121566900Y-108602431D01*
X121544080Y-108592978D01*
X121538428Y-108590472D01*
X121472266Y-108559179D01*
X121466743Y-108556399D01*
X121446075Y-108545352D01*
X129107080Y-108545352D01*
X130608081Y-111145161D01*
X132575182Y-110009454D01*
X134571182Y-110009454D01*
X136072183Y-112609262D01*
X137908470Y-111549080D01*
X137902895Y-111542008D01*
X137899910Y-111538065D01*
X137888288Y-111522070D01*
X137885457Y-111518009D01*
X137852898Y-111469283D01*
X137850229Y-111465114D01*
X137718599Y-111250314D01*
X137716098Y-111246045D01*
X137687471Y-111194928D01*
X137685137Y-111190563D01*
X137676161Y-111172946D01*
X137674003Y-111168495D01*
X137649484Y-111115308D01*
X137647501Y-111110776D01*
X137551094Y-110878028D01*
X137549291Y-110873421D01*
X137529020Y-110818474D01*
X137527399Y-110813800D01*
X137521289Y-110794996D01*
X137519853Y-110790260D01*
X137503951Y-110733875D01*
X137502701Y-110729088D01*
X137443891Y-110484125D01*
X137442831Y-110479293D01*
X137431404Y-110421847D01*
X137430534Y-110416976D01*
X137427441Y-110397448D01*
X137426763Y-110392546D01*
X137419878Y-110334374D01*
X137419393Y-110329451D01*
X137399627Y-110078303D01*
X137399336Y-110073364D01*
X137397036Y-110014833D01*
X137396939Y-110009886D01*
X137396939Y-110000000D01*
X138394551Y-110000000D01*
X138394939Y-110004930D01*
X138413928Y-110246214D01*
X138413929Y-110246222D01*
X138414317Y-110251148D01*
X138415471Y-110255956D01*
X138415472Y-110255960D01*
X138471971Y-110491298D01*
X138471972Y-110491303D01*
X138473127Y-110496111D01*
X138475020Y-110500681D01*
X138475021Y-110500684D01*
X138531503Y-110637044D01*
X138569534Y-110728859D01*
X138701164Y-110943659D01*
X138864776Y-111135224D01*
X139056341Y-111298836D01*
X139271141Y-111430466D01*
X139503889Y-111526873D01*
X139748852Y-111585683D01*
X139937118Y-111600500D01*
X140060413Y-111600500D01*
X140062882Y-111600500D01*
X140251148Y-111585683D01*
X140496111Y-111526873D01*
X140728859Y-111430466D01*
X140943659Y-111298836D01*
X141135224Y-111135224D01*
X141298836Y-110943659D01*
X141430466Y-110728859D01*
X141526873Y-110496111D01*
X141585683Y-110251148D01*
X141605449Y-110000000D01*
X141585683Y-109748852D01*
X141526873Y-109503889D01*
X141430466Y-109271141D01*
X141298836Y-109056341D01*
X141135224Y-108864776D01*
X140943659Y-108701164D01*
X140923719Y-108688945D01*
X140733079Y-108572120D01*
X140733078Y-108572119D01*
X140728859Y-108569534D01*
X140670478Y-108545352D01*
X140500684Y-108475021D01*
X140500681Y-108475020D01*
X140496111Y-108473127D01*
X140491303Y-108471972D01*
X140491298Y-108471971D01*
X140255960Y-108415472D01*
X140255956Y-108415471D01*
X140251148Y-108414317D01*
X140246222Y-108413929D01*
X140246214Y-108413928D01*
X140065338Y-108399693D01*
X140065330Y-108399692D01*
X140062882Y-108399500D01*
X139937118Y-108399500D01*
X139934670Y-108399692D01*
X139934661Y-108399693D01*
X139753785Y-108413928D01*
X139753775Y-108413929D01*
X139748852Y-108414317D01*
X139744045Y-108415471D01*
X139744039Y-108415472D01*
X139508701Y-108471971D01*
X139508692Y-108471973D01*
X139503889Y-108473127D01*
X139499321Y-108475018D01*
X139499315Y-108475021D01*
X139275715Y-108567639D01*
X139275710Y-108567641D01*
X139271141Y-108569534D01*
X139266926Y-108572116D01*
X139266920Y-108572120D01*
X139060558Y-108698579D01*
X139060550Y-108698584D01*
X139056341Y-108701164D01*
X139052580Y-108704375D01*
X139052576Y-108704379D01*
X138868538Y-108861562D01*
X138868531Y-108861568D01*
X138864776Y-108864776D01*
X138861568Y-108868531D01*
X138861562Y-108868538D01*
X138704379Y-109052576D01*
X138704375Y-109052580D01*
X138701164Y-109056341D01*
X138698584Y-109060550D01*
X138698579Y-109060558D01*
X138572120Y-109266920D01*
X138572116Y-109266926D01*
X138569534Y-109271141D01*
X138567641Y-109275710D01*
X138567639Y-109275715D01*
X138475021Y-109499315D01*
X138475018Y-109499321D01*
X138473127Y-109503889D01*
X138471973Y-109508692D01*
X138471971Y-109508701D01*
X138420321Y-109723843D01*
X138414317Y-109748852D01*
X138413929Y-109753775D01*
X138413928Y-109753785D01*
X138400325Y-109926636D01*
X138394551Y-110000000D01*
X137396939Y-110000000D01*
X137396939Y-109990114D01*
X137397036Y-109985167D01*
X137399336Y-109926636D01*
X137399627Y-109921697D01*
X137419393Y-109670549D01*
X137419878Y-109665626D01*
X137426763Y-109607454D01*
X137427441Y-109602552D01*
X137430534Y-109583024D01*
X137431404Y-109578153D01*
X137442831Y-109520707D01*
X137443891Y-109515875D01*
X137502701Y-109270912D01*
X137503951Y-109266125D01*
X137519853Y-109209740D01*
X137521289Y-109205004D01*
X137527399Y-109186200D01*
X137529020Y-109181526D01*
X137540937Y-109149221D01*
X137170990Y-108508454D01*
X134571182Y-110009454D01*
X132575182Y-110009454D01*
X133207890Y-109644160D01*
X132332246Y-108127500D01*
X129830822Y-108127500D01*
X129107080Y-108545352D01*
X121446075Y-108545352D01*
X121291543Y-108462753D01*
X121286162Y-108459705D01*
X121271081Y-108450665D01*
X120178877Y-109081250D01*
X118182877Y-109081250D01*
X118815585Y-108715956D01*
X117314584Y-106116148D01*
X114714775Y-107617149D01*
X112718775Y-107617149D01*
X113351483Y-107251855D01*
X111850482Y-104652046D01*
X109250673Y-106153047D01*
X107254674Y-106153047D01*
X107887382Y-105787753D01*
X106386381Y-103187944D01*
X103786572Y-104688945D01*
X101790574Y-104688945D01*
X102423280Y-104323652D01*
X100922279Y-101723843D01*
X98322470Y-103224844D01*
X96326471Y-103224844D01*
X96959178Y-102859550D01*
X95458177Y-100259741D01*
X92858369Y-101760742D01*
X90862369Y-101760742D01*
X91495077Y-101395448D01*
X89994076Y-98795640D01*
X87394267Y-100296641D01*
X85398267Y-100296641D01*
X86030975Y-99931347D01*
X84529974Y-97331538D01*
X81930165Y-98832539D01*
X79934166Y-98832539D01*
X80566873Y-98467245D01*
X79065872Y-95867436D01*
X76466064Y-97368437D01*
X75000500Y-97368437D01*
X75000500Y-96485995D01*
X75998500Y-96485995D01*
X77934166Y-95368437D01*
X79930165Y-95368437D01*
X81431166Y-97968246D01*
X83398267Y-96832539D01*
X85394267Y-96832539D01*
X86895268Y-99432348D01*
X88862369Y-98296641D01*
X90858369Y-98296641D01*
X92359370Y-100896449D01*
X94326471Y-99760742D01*
X96322470Y-99760742D01*
X97823471Y-102360551D01*
X99790572Y-101224844D01*
X101786572Y-101224844D01*
X103287573Y-103824653D01*
X105254676Y-102688945D01*
X107250673Y-102688945D01*
X108751674Y-105288754D01*
X110718775Y-104153047D01*
X112714775Y-104153047D01*
X114215776Y-106752856D01*
X116182877Y-105617149D01*
X118178877Y-105617149D01*
X119679878Y-108216956D01*
X120565881Y-107705421D01*
X120508601Y-107598257D01*
X120505821Y-107592734D01*
X120474528Y-107526572D01*
X120472022Y-107520920D01*
X120462569Y-107498100D01*
X120460343Y-107492329D01*
X120435672Y-107423382D01*
X120433731Y-107417508D01*
X120376064Y-107227405D01*
X120374414Y-107221442D01*
X120356620Y-107150397D01*
X120355265Y-107144360D01*
X120350447Y-107120133D01*
X120349390Y-107114041D01*
X120338654Y-107041650D01*
X120337898Y-107035515D01*
X120323307Y-106887360D01*
X120323041Y-106884281D01*
X120320349Y-106847790D01*
X120320160Y-106844706D01*
X120319553Y-106832357D01*
X120319439Y-106829266D01*
X120318539Y-106792642D01*
X120318501Y-106789547D01*
X120318501Y-106786472D01*
X121316500Y-106786472D01*
X121316501Y-106789546D01*
X121316803Y-106792617D01*
X121316804Y-106792628D01*
X121325831Y-106884281D01*
X121331092Y-106937701D01*
X121388759Y-107127804D01*
X121482405Y-107303004D01*
X121608432Y-107456568D01*
X121761996Y-107582595D01*
X121937196Y-107676241D01*
X122127299Y-107733908D01*
X122133460Y-107734514D01*
X122133461Y-107734515D01*
X122153427Y-107736481D01*
X122275453Y-107748500D01*
X125374546Y-107748499D01*
X125522701Y-107733908D01*
X125712804Y-107676241D01*
X125888004Y-107582595D01*
X126041568Y-107456568D01*
X126167595Y-107303004D01*
X126224733Y-107196104D01*
X126271079Y-107147426D01*
X126335856Y-107129500D01*
X134589537Y-107129500D01*
X134589613Y-107129500D01*
X134589638Y-107129497D01*
X134589689Y-107129496D01*
X134740677Y-107129496D01*
X134743417Y-107129496D01*
X135142744Y-107094560D01*
X135537506Y-107024954D01*
X135924699Y-106921206D01*
X136301376Y-106784107D01*
X136664671Y-106614700D01*
X137011819Y-106414275D01*
X137340178Y-106184356D01*
X137548618Y-106009454D01*
X141499385Y-106009454D01*
X143000386Y-108609262D01*
X144001500Y-108031268D01*
X144001500Y-104564857D01*
X141499385Y-106009454D01*
X137548618Y-106009454D01*
X137647248Y-105926693D01*
X137727018Y-105846922D01*
X137727023Y-105846920D01*
X137788971Y-105784971D01*
X137850920Y-105723023D01*
X137850957Y-105722965D01*
X137851021Y-105722895D01*
X137927496Y-105646421D01*
X138181978Y-105348462D01*
X138412298Y-105031455D01*
X138617036Y-104697355D01*
X138794930Y-104348221D01*
X138944884Y-103986206D01*
X139065972Y-103613543D01*
X139072955Y-103584459D01*
X140099314Y-103584459D01*
X141000386Y-105145161D01*
X143600194Y-103644160D01*
X142099193Y-101044351D01*
X140247500Y-102113428D01*
X140247500Y-102171340D01*
X140247501Y-102171356D01*
X140247500Y-102258965D01*
X140247498Y-102454885D01*
X140247474Y-102457363D01*
X140246897Y-102486686D01*
X140246824Y-102489161D01*
X140246435Y-102499047D01*
X140246313Y-102501513D01*
X140244590Y-102530721D01*
X140244420Y-102533188D01*
X140213672Y-102923822D01*
X140213455Y-102926280D01*
X140210592Y-102955360D01*
X140210326Y-102957814D01*
X140209164Y-102967639D01*
X140208848Y-102970098D01*
X140204826Y-102999185D01*
X140204463Y-103001639D01*
X140143162Y-103388657D01*
X140142749Y-103391103D01*
X140137586Y-103420004D01*
X140137127Y-103422439D01*
X140135196Y-103432142D01*
X140134690Y-103434557D01*
X140128425Y-103463106D01*
X140127872Y-103465514D01*
X140099314Y-103584459D01*
X139072955Y-103584459D01*
X139157449Y-103232527D01*
X139218750Y-102845509D01*
X139249498Y-102454875D01*
X139249500Y-102258954D01*
X139249501Y-102171345D01*
X139249500Y-102171340D01*
X139249500Y-97081250D01*
X140963486Y-97081250D01*
X142464487Y-99681059D01*
X144001500Y-98793664D01*
X144001500Y-96339242D01*
X143563295Y-95580249D01*
X140963486Y-97081250D01*
X139249500Y-97081250D01*
X139249500Y-95841125D01*
X140247500Y-95841125D01*
X140464487Y-96216957D01*
X143064296Y-94715956D01*
X141563295Y-92116148D01*
X140247500Y-92875824D01*
X140247500Y-95841125D01*
X139249500Y-95841125D01*
X139249500Y-91617149D01*
X142427588Y-91617149D01*
X143928589Y-94216957D01*
X144001500Y-94174862D01*
X144001500Y-90708451D01*
X142427588Y-91617149D01*
X139249500Y-91617149D01*
X139249500Y-88153047D01*
X140427588Y-88153047D01*
X141928589Y-90752856D01*
X144001500Y-89556060D01*
X144001500Y-88339241D01*
X143027397Y-86652046D01*
X140427588Y-88153047D01*
X139249500Y-88153047D01*
X139249500Y-87104631D01*
X140247500Y-87104631D01*
X142528398Y-85787753D01*
X141027397Y-83187944D01*
X140247500Y-83638219D01*
X140247500Y-87104631D01*
X139249500Y-87104631D01*
X139249500Y-82688945D01*
X141891690Y-82688945D01*
X143392691Y-85288754D01*
X144001500Y-84937258D01*
X144001500Y-81470846D01*
X141891690Y-82688945D01*
X139249500Y-82688945D01*
X139249500Y-79841124D01*
X140247500Y-79841124D01*
X141392691Y-81824653D01*
X143992498Y-80323652D01*
X142491498Y-77723843D01*
X140247500Y-79019418D01*
X140247500Y-79841124D01*
X139249500Y-79841124D01*
X139249500Y-77867027D01*
X140247500Y-77867027D01*
X141992499Y-76859550D01*
X140491498Y-74259741D01*
X140247500Y-74400615D01*
X140247500Y-77867027D01*
X139249500Y-77867027D01*
X139249500Y-73760742D01*
X141355791Y-73760742D01*
X142856792Y-76360551D01*
X144001500Y-75699654D01*
X144001500Y-72339241D01*
X143955600Y-72259741D01*
X141355791Y-73760742D01*
X139249500Y-73760742D01*
X139249500Y-71841125D01*
X140247500Y-71841125D01*
X140856792Y-72896449D01*
X143456601Y-71395448D01*
X141955600Y-68795640D01*
X140247500Y-69781813D01*
X140247500Y-71841125D01*
X139249500Y-71841125D01*
X139249500Y-65228663D01*
X141048596Y-65228663D01*
X142320894Y-67432348D01*
X144920703Y-65931347D01*
X143941316Y-64235000D01*
X145619474Y-64235000D01*
X145619862Y-64239930D01*
X145639159Y-64485136D01*
X145639160Y-64485144D01*
X145639548Y-64490070D01*
X145640702Y-64494878D01*
X145640703Y-64494882D01*
X145694062Y-64717137D01*
X145699278Y-64738860D01*
X145701171Y-64743430D01*
X145701172Y-64743433D01*
X145742640Y-64843545D01*
X145797191Y-64975243D01*
X145799776Y-64979462D01*
X145799777Y-64979463D01*
X145926210Y-65185784D01*
X145930877Y-65193399D01*
X146097044Y-65387956D01*
X146291601Y-65554123D01*
X146509757Y-65687809D01*
X146746140Y-65785722D01*
X146994930Y-65845452D01*
X147250000Y-65865526D01*
X147505070Y-65845452D01*
X147753860Y-65785722D01*
X147990243Y-65687809D01*
X148208399Y-65554123D01*
X148402956Y-65387956D01*
X148569123Y-65193399D01*
X148702809Y-64975243D01*
X148800722Y-64738860D01*
X148859806Y-64492760D01*
X149861326Y-64492760D01*
X150911377Y-66311500D01*
X152262259Y-66311500D01*
X153848906Y-65395448D01*
X152347905Y-62795640D01*
X149878069Y-64221601D01*
X149878138Y-64225114D01*
X149878138Y-64244886D01*
X149878041Y-64249834D01*
X149875741Y-64308363D01*
X149875450Y-64313301D01*
X149861326Y-64492760D01*
X148859806Y-64492760D01*
X148860452Y-64490070D01*
X148880526Y-64235000D01*
X148860452Y-63979930D01*
X148800722Y-63731140D01*
X148702809Y-63494757D01*
X148569123Y-63276601D01*
X148402956Y-63082044D01*
X148393070Y-63073601D01*
X148339174Y-63027569D01*
X148208399Y-62915877D01*
X148158273Y-62885160D01*
X147994463Y-62784777D01*
X147994462Y-62784776D01*
X147990243Y-62782191D01*
X147910364Y-62749104D01*
X147758433Y-62686172D01*
X147758430Y-62686171D01*
X147753860Y-62684278D01*
X147749052Y-62683123D01*
X147749047Y-62683122D01*
X147509882Y-62625703D01*
X147509878Y-62625702D01*
X147505070Y-62624548D01*
X147500144Y-62624160D01*
X147500136Y-62624159D01*
X147254930Y-62604862D01*
X147250000Y-62604474D01*
X147245070Y-62604862D01*
X146999863Y-62624159D01*
X146999853Y-62624160D01*
X146994930Y-62624548D01*
X146990123Y-62625702D01*
X146990117Y-62625703D01*
X146750952Y-62683122D01*
X146750943Y-62683124D01*
X146746140Y-62684278D01*
X146741572Y-62686169D01*
X146741566Y-62686172D01*
X146514331Y-62780296D01*
X146514326Y-62780298D01*
X146509757Y-62782191D01*
X146505542Y-62784773D01*
X146505536Y-62784777D01*
X146295818Y-62913292D01*
X146295810Y-62913297D01*
X146291601Y-62915877D01*
X146287840Y-62919088D01*
X146287836Y-62919092D01*
X146100806Y-63078830D01*
X146100799Y-63078836D01*
X146097044Y-63082044D01*
X146093836Y-63085799D01*
X146093830Y-63085806D01*
X145934092Y-63272836D01*
X145934088Y-63272840D01*
X145930877Y-63276601D01*
X145928297Y-63280810D01*
X145928292Y-63280818D01*
X145799777Y-63490536D01*
X145799773Y-63490542D01*
X145797191Y-63494757D01*
X145795298Y-63499326D01*
X145795296Y-63499331D01*
X145701172Y-63726566D01*
X145701169Y-63726572D01*
X145699278Y-63731140D01*
X145698124Y-63735943D01*
X145698122Y-63735952D01*
X145640703Y-63975117D01*
X145640702Y-63975123D01*
X145639548Y-63979930D01*
X145639160Y-63984853D01*
X145639159Y-63984863D01*
X145620252Y-64225114D01*
X145619474Y-64235000D01*
X143941316Y-64235000D01*
X143419702Y-63331538D01*
X143100396Y-63515890D01*
X143061963Y-63659326D01*
X143060424Y-63664605D01*
X143040853Y-63726674D01*
X143039086Y-63731879D01*
X143031574Y-63752518D01*
X143029582Y-63757641D01*
X143004677Y-63817767D01*
X143002463Y-63822799D01*
X142908548Y-64024200D01*
X142906115Y-64029132D01*
X142876055Y-64086874D01*
X142873411Y-64091695D01*
X142862428Y-64110717D01*
X142859577Y-64115415D01*
X142824614Y-64170295D01*
X142821559Y-64174866D01*
X142777320Y-64238044D01*
X142768839Y-64248851D01*
X142661744Y-64370967D01*
X142652137Y-64380785D01*
X142611924Y-64417633D01*
X142601305Y-64426348D01*
X142470315Y-64522393D01*
X142462122Y-64527122D01*
X142457393Y-64535315D01*
X142361348Y-64666305D01*
X142352633Y-64676924D01*
X142315785Y-64717137D01*
X142305967Y-64726744D01*
X142183851Y-64833839D01*
X142173044Y-64842320D01*
X142109866Y-64886559D01*
X142105295Y-64889614D01*
X142050415Y-64924577D01*
X142045717Y-64927428D01*
X142026695Y-64938411D01*
X142021874Y-64941055D01*
X141964132Y-64971115D01*
X141959200Y-64973548D01*
X141757799Y-65067463D01*
X141752767Y-65069677D01*
X141692641Y-65094582D01*
X141687518Y-65096574D01*
X141666879Y-65104086D01*
X141661674Y-65105853D01*
X141599605Y-65125424D01*
X141594326Y-65126963D01*
X141379677Y-65184478D01*
X141374337Y-65185784D01*
X141310807Y-65199868D01*
X141305417Y-65200941D01*
X141283788Y-65204755D01*
X141278354Y-65205591D01*
X141213824Y-65214087D01*
X141208359Y-65214686D01*
X141048596Y-65228663D01*
X139249500Y-65228663D01*
X139249500Y-64024486D01*
X140203145Y-64024486D01*
X140210697Y-64032728D01*
X140258065Y-64065896D01*
X140267561Y-64071378D01*
X140458992Y-64160644D01*
X140469284Y-64164390D01*
X140673309Y-64219058D01*
X140684104Y-64220962D01*
X140894525Y-64239372D01*
X140905475Y-64239372D01*
X141115895Y-64220962D01*
X141126690Y-64219058D01*
X141330715Y-64164390D01*
X141341007Y-64160644D01*
X141532436Y-64071379D01*
X141541937Y-64065893D01*
X141589301Y-64032728D01*
X141596853Y-64024486D01*
X141590843Y-64015053D01*
X140911729Y-63335939D01*
X140899999Y-63329167D01*
X140888271Y-63335938D01*
X140209152Y-64015056D01*
X140203145Y-64024486D01*
X139249500Y-64024486D01*
X139249500Y-62970475D01*
X139625628Y-62970475D01*
X139644037Y-63180895D01*
X139645941Y-63191690D01*
X139700609Y-63395715D01*
X139704355Y-63406007D01*
X139793621Y-63597438D01*
X139799103Y-63606934D01*
X139832270Y-63654301D01*
X139840512Y-63661853D01*
X139849942Y-63655846D01*
X140529059Y-62976730D01*
X140535832Y-62964999D01*
X141264167Y-62964999D01*
X141270939Y-62976729D01*
X141950053Y-63655843D01*
X141959486Y-63661853D01*
X141967728Y-63654301D01*
X142000893Y-63606937D01*
X142006379Y-63597436D01*
X142095644Y-63406007D01*
X142099390Y-63395715D01*
X142154058Y-63191690D01*
X142155962Y-63180895D01*
X142174372Y-62970475D01*
X142174372Y-62959525D01*
X142155962Y-62749104D01*
X142154058Y-62738309D01*
X142099390Y-62534284D01*
X142095644Y-62523992D01*
X142006378Y-62332562D01*
X142000896Y-62323066D01*
X141967728Y-62275697D01*
X141959486Y-62268145D01*
X141950056Y-62274152D01*
X141270938Y-62953271D01*
X141264167Y-62964999D01*
X140535832Y-62964999D01*
X140529060Y-62953270D01*
X139849944Y-62274154D01*
X139840512Y-62268145D01*
X139832270Y-62275698D01*
X139799102Y-62323068D01*
X139793622Y-62332558D01*
X139704355Y-62523992D01*
X139700609Y-62534284D01*
X139645941Y-62738309D01*
X139644037Y-62749104D01*
X139625628Y-62959525D01*
X139625628Y-62970475D01*
X139249500Y-62970475D01*
X139249500Y-62654448D01*
X139259091Y-62606230D01*
X139286405Y-62565353D01*
X139304830Y-62546928D01*
X139336977Y-62514781D01*
X139464488Y-62332677D01*
X139558440Y-62131196D01*
X139615978Y-61916463D01*
X139635353Y-61695000D01*
X139615978Y-61473537D01*
X139558440Y-61258804D01*
X139464488Y-61057324D01*
X139336977Y-60875219D01*
X139179781Y-60718023D01*
X139026707Y-60610839D01*
X139002185Y-60593668D01*
X139002180Y-60593665D01*
X138997677Y-60590512D01*
X138887626Y-60539194D01*
X138834610Y-60492700D01*
X138814877Y-60425000D01*
X138834610Y-60357300D01*
X138887627Y-60310805D01*
X138898671Y-60305655D01*
X138997677Y-60259488D01*
X139179781Y-60131977D01*
X139336977Y-59974781D01*
X139464488Y-59792677D01*
X139558440Y-59591196D01*
X139615978Y-59376463D01*
X139635353Y-59155000D01*
X139615978Y-58933537D01*
X139558440Y-58718804D01*
X139464488Y-58517324D01*
X139336977Y-58335219D01*
X139179781Y-58178023D01*
X139032564Y-58074940D01*
X139002185Y-58053668D01*
X139002180Y-58053665D01*
X138997677Y-58050512D01*
X138992690Y-58048186D01*
X138992684Y-58048183D01*
X138887626Y-57999193D01*
X138834609Y-57952698D01*
X138814877Y-57884998D01*
X138834610Y-57817298D01*
X138887626Y-57770805D01*
X138997677Y-57719488D01*
X139179781Y-57591977D01*
X139336977Y-57434781D01*
X139464488Y-57252677D01*
X139558440Y-57051196D01*
X139615978Y-56836463D01*
X139635353Y-56615000D01*
X139615978Y-56393537D01*
X139558440Y-56178804D01*
X139464488Y-55977324D01*
X139336977Y-55795219D01*
X139179781Y-55638023D01*
X139054957Y-55550620D01*
X139002185Y-55513668D01*
X139002180Y-55513665D01*
X138997677Y-55510512D01*
X138992690Y-55508186D01*
X138992684Y-55508183D01*
X138887626Y-55459193D01*
X138834609Y-55412698D01*
X138814877Y-55344998D01*
X138834610Y-55277298D01*
X138887626Y-55230805D01*
X138997677Y-55179488D01*
X139179781Y-55051977D01*
X139336977Y-54894781D01*
X139464488Y-54712677D01*
X139558440Y-54511196D01*
X139615978Y-54296463D01*
X139635353Y-54075000D01*
X139615978Y-53853537D01*
X139558440Y-53638804D01*
X139464488Y-53437324D01*
X139336977Y-53255219D01*
X139179781Y-53098023D01*
X139100358Y-53042410D01*
X139002185Y-52973668D01*
X139002180Y-52973665D01*
X138997677Y-52970512D01*
X138847733Y-52900592D01*
X138801178Y-52878883D01*
X138801176Y-52878882D01*
X138796196Y-52876560D01*
X138765291Y-52868279D01*
X138586776Y-52820445D01*
X138586769Y-52820443D01*
X138581463Y-52819022D01*
X138575989Y-52818543D01*
X138575983Y-52818542D01*
X138365475Y-52800126D01*
X138360000Y-52799647D01*
X138354525Y-52800126D01*
X138144016Y-52818542D01*
X138144008Y-52818543D01*
X138138537Y-52819022D01*
X138133232Y-52820443D01*
X138133223Y-52820445D01*
X137929114Y-52875137D01*
X137929112Y-52875137D01*
X137923804Y-52876560D01*
X137918827Y-52878880D01*
X137918821Y-52878883D01*
X137727311Y-52968186D01*
X137727306Y-52968188D01*
X137722324Y-52970512D01*
X137717824Y-52973662D01*
X137717815Y-52973668D01*
X137544730Y-53094864D01*
X137544727Y-53094866D01*
X137540219Y-53098023D01*
X137536327Y-53101914D01*
X137536321Y-53101920D01*
X137386920Y-53251321D01*
X137386914Y-53251327D01*
X137383023Y-53255219D01*
X137379866Y-53259727D01*
X137379864Y-53259730D01*
X137258668Y-53432815D01*
X137258662Y-53432824D01*
X137255512Y-53437324D01*
X137253188Y-53442306D01*
X137253186Y-53442311D01*
X137163883Y-53633821D01*
X137163880Y-53633827D01*
X137161560Y-53638804D01*
X137160137Y-53644112D01*
X137160137Y-53644114D01*
X137105445Y-53848223D01*
X137105443Y-53848232D01*
X137104022Y-53853537D01*
X137103543Y-53859008D01*
X137103542Y-53859016D01*
X137087015Y-54047929D01*
X137084647Y-54075000D01*
X137085126Y-54080475D01*
X137103542Y-54290983D01*
X137103543Y-54290989D01*
X137104022Y-54296463D01*
X137105443Y-54301769D01*
X137105445Y-54301776D01*
X137146082Y-54453433D01*
X137161560Y-54511196D01*
X137163882Y-54516176D01*
X137163883Y-54516178D01*
X137195429Y-54583828D01*
X137255512Y-54712677D01*
X137258665Y-54717180D01*
X137258668Y-54717185D01*
X137298994Y-54774776D01*
X137383023Y-54894781D01*
X137540219Y-55051977D01*
X137722323Y-55179488D01*
X137821329Y-55225655D01*
X137832373Y-55230805D01*
X137885390Y-55277300D01*
X137905123Y-55345000D01*
X137885390Y-55412700D01*
X137832373Y-55459195D01*
X137727311Y-55508186D01*
X137727306Y-55508188D01*
X137722324Y-55510512D01*
X137717824Y-55513662D01*
X137717815Y-55513668D01*
X137544730Y-55634864D01*
X137544727Y-55634866D01*
X137540219Y-55638023D01*
X137536327Y-55641914D01*
X137536321Y-55641920D01*
X137386920Y-55791321D01*
X137386914Y-55791327D01*
X137383023Y-55795219D01*
X137379866Y-55799727D01*
X137379864Y-55799730D01*
X137258668Y-55972815D01*
X137258662Y-55972824D01*
X137255512Y-55977324D01*
X137253188Y-55982306D01*
X137253186Y-55982311D01*
X137163883Y-56173821D01*
X137163880Y-56173827D01*
X137161560Y-56178804D01*
X137160137Y-56184112D01*
X137160137Y-56184114D01*
X137105445Y-56388223D01*
X137105443Y-56388232D01*
X137104022Y-56393537D01*
X137103543Y-56399008D01*
X137103542Y-56399016D01*
X137090602Y-56546928D01*
X137084647Y-56615000D01*
X137085126Y-56620475D01*
X137103542Y-56830983D01*
X137103543Y-56830989D01*
X137104022Y-56836463D01*
X137105443Y-56841769D01*
X137105445Y-56841776D01*
X137147446Y-56998521D01*
X137161560Y-57051196D01*
X137163882Y-57056176D01*
X137163883Y-57056178D01*
X137206111Y-57146737D01*
X137255512Y-57252677D01*
X137258665Y-57257180D01*
X137258668Y-57257185D01*
X137310731Y-57331538D01*
X137383023Y-57434781D01*
X137540219Y-57591977D01*
X137722323Y-57719488D01*
X137832371Y-57770804D01*
X137832373Y-57770805D01*
X137885390Y-57817300D01*
X137905123Y-57885000D01*
X137885390Y-57952700D01*
X137832373Y-57999195D01*
X137727311Y-58048186D01*
X137727306Y-58048188D01*
X137722324Y-58050512D01*
X137717824Y-58053662D01*
X137717815Y-58053668D01*
X137544730Y-58174864D01*
X137544727Y-58174866D01*
X137540219Y-58178023D01*
X137536327Y-58181914D01*
X137536321Y-58181920D01*
X137386920Y-58331321D01*
X137386914Y-58331327D01*
X137383023Y-58335219D01*
X137379866Y-58339727D01*
X137379864Y-58339730D01*
X137258668Y-58512815D01*
X137258662Y-58512824D01*
X137255512Y-58517324D01*
X137253188Y-58522306D01*
X137253186Y-58522311D01*
X137163883Y-58713821D01*
X137163880Y-58713827D01*
X137161560Y-58718804D01*
X137160137Y-58724112D01*
X137160137Y-58724114D01*
X137105445Y-58928223D01*
X137105443Y-58928232D01*
X137104022Y-58933537D01*
X137103543Y-58939008D01*
X137103542Y-58939016D01*
X137090570Y-59087300D01*
X137084647Y-59155000D01*
X137085126Y-59160475D01*
X137103542Y-59370983D01*
X137103543Y-59370989D01*
X137104022Y-59376463D01*
X137105443Y-59381769D01*
X137105445Y-59381776D01*
X137140623Y-59513058D01*
X137161560Y-59591196D01*
X137163882Y-59596176D01*
X137163883Y-59596178D01*
X137191603Y-59655624D01*
X137255512Y-59792677D01*
X137258665Y-59797180D01*
X137258668Y-59797185D01*
X137298994Y-59854776D01*
X137383023Y-59974781D01*
X137540219Y-60131977D01*
X137722323Y-60259488D01*
X137821329Y-60305655D01*
X137832373Y-60310805D01*
X137885390Y-60357300D01*
X137905123Y-60425000D01*
X137885390Y-60492700D01*
X137832373Y-60539195D01*
X137727311Y-60588186D01*
X137727306Y-60588188D01*
X137722324Y-60590512D01*
X137717824Y-60593662D01*
X137717815Y-60593668D01*
X137544730Y-60714864D01*
X137544727Y-60714866D01*
X137540219Y-60718023D01*
X137536327Y-60721914D01*
X137536321Y-60721920D01*
X137386920Y-60871321D01*
X137386914Y-60871327D01*
X137383023Y-60875219D01*
X137379866Y-60879727D01*
X137379864Y-60879730D01*
X137258668Y-61052815D01*
X137258662Y-61052824D01*
X137255512Y-61057324D01*
X137253188Y-61062306D01*
X137253186Y-61062311D01*
X137163883Y-61253821D01*
X137163880Y-61253827D01*
X137161560Y-61258804D01*
X137160137Y-61264112D01*
X137160137Y-61264114D01*
X137105445Y-61468223D01*
X137105443Y-61468232D01*
X137104022Y-61473537D01*
X137103543Y-61479008D01*
X137103542Y-61479016D01*
X137086089Y-61678522D01*
X137084647Y-61695000D01*
X137085126Y-61700475D01*
X137103542Y-61910983D01*
X137103543Y-61910989D01*
X137104022Y-61916463D01*
X137105443Y-61921769D01*
X137105445Y-61921776D01*
X137108010Y-61931347D01*
X137161560Y-62131196D01*
X137163882Y-62136176D01*
X137163883Y-62136178D01*
X137225420Y-62268145D01*
X137255512Y-62332677D01*
X137258665Y-62337180D01*
X137258668Y-62337185D01*
X137330824Y-62440234D01*
X137383023Y-62514781D01*
X137386920Y-62518678D01*
X137433595Y-62565353D01*
X137460909Y-62606230D01*
X137470500Y-62654448D01*
X137470500Y-102255843D01*
X137470348Y-102262027D01*
X137455355Y-102567147D01*
X137454143Y-102579452D01*
X137409770Y-102878571D01*
X137407358Y-102890698D01*
X137333879Y-103184037D01*
X137330289Y-103195870D01*
X137228416Y-103480577D01*
X137223685Y-103492000D01*
X137094389Y-103765372D01*
X137088559Y-103776278D01*
X136933098Y-104035645D01*
X136926229Y-104045925D01*
X136746093Y-104288811D01*
X136738249Y-104298369D01*
X136535057Y-104522557D01*
X136526313Y-104531301D01*
X136331180Y-104708159D01*
X136321622Y-104716003D01*
X136109957Y-104872984D01*
X136099676Y-104879854D01*
X135873638Y-105015335D01*
X135862733Y-105021163D01*
X135624506Y-105133837D01*
X135613082Y-105138570D01*
X135364954Y-105227351D01*
X135353121Y-105230940D01*
X135097494Y-105294971D01*
X135085366Y-105297383D01*
X134824692Y-105336049D01*
X134812388Y-105337261D01*
X134584398Y-105348462D01*
X134546006Y-105350348D01*
X134539826Y-105350500D01*
X126335856Y-105350500D01*
X126271079Y-105332574D01*
X126224734Y-105283896D01*
X126193170Y-105224844D01*
X126167595Y-105176996D01*
X126041568Y-105023432D01*
X125888004Y-104897405D01*
X125858702Y-104881743D01*
X125718265Y-104806678D01*
X125712804Y-104803759D01*
X125686039Y-104795640D01*
X125528623Y-104747888D01*
X125528619Y-104747887D01*
X125522701Y-104746092D01*
X125516547Y-104745485D01*
X125516538Y-104745484D01*
X125377627Y-104731803D01*
X125377619Y-104731802D01*
X125374547Y-104731500D01*
X125371454Y-104731500D01*
X122278547Y-104731500D01*
X122278526Y-104731500D01*
X122275454Y-104731501D01*
X122272383Y-104731803D01*
X122272371Y-104731804D01*
X122133461Y-104745485D01*
X122133459Y-104745485D01*
X122127299Y-104746092D01*
X122121379Y-104747887D01*
X122121378Y-104747888D01*
X121943119Y-104801962D01*
X121943116Y-104801963D01*
X121937196Y-104803759D01*
X121931738Y-104806676D01*
X121931734Y-104806678D01*
X121767454Y-104894487D01*
X121767449Y-104894490D01*
X121761996Y-104897405D01*
X121757217Y-104901326D01*
X121757211Y-104901331D01*
X121613211Y-105019509D01*
X121613205Y-105019514D01*
X121608432Y-105023432D01*
X121604514Y-105028205D01*
X121604509Y-105028211D01*
X121486331Y-105172211D01*
X121486326Y-105172217D01*
X121482405Y-105176996D01*
X121479490Y-105182449D01*
X121479487Y-105182454D01*
X121391678Y-105346734D01*
X121388759Y-105352196D01*
X121386963Y-105358116D01*
X121386962Y-105358119D01*
X121332888Y-105536376D01*
X121332886Y-105536382D01*
X121331092Y-105542299D01*
X121330486Y-105548450D01*
X121330484Y-105548461D01*
X121316804Y-105687362D01*
X121316500Y-105690453D01*
X121316500Y-105693544D01*
X121316500Y-105693545D01*
X121316500Y-106786452D01*
X121316500Y-106786472D01*
X120318501Y-106786472D01*
X120318500Y-105690454D01*
X120318538Y-105687362D01*
X120319437Y-105650739D01*
X120319551Y-105647646D01*
X120320158Y-105635296D01*
X120320348Y-105632210D01*
X120323041Y-105595711D01*
X120323306Y-105592632D01*
X120337898Y-105444478D01*
X120338654Y-105438342D01*
X120349391Y-105365950D01*
X120350448Y-105359859D01*
X120355266Y-105335633D01*
X120356622Y-105329597D01*
X120374415Y-105258558D01*
X120376064Y-105252595D01*
X120433731Y-105062492D01*
X120435672Y-105056618D01*
X120460343Y-104987671D01*
X120462569Y-104981900D01*
X120472022Y-104959080D01*
X120474528Y-104953428D01*
X120505821Y-104887266D01*
X120508601Y-104881743D01*
X120602247Y-104706543D01*
X120605295Y-104701162D01*
X120642932Y-104638369D01*
X120646241Y-104633144D01*
X120659964Y-104612606D01*
X120663525Y-104607550D01*
X120707137Y-104548746D01*
X120710942Y-104543870D01*
X120836969Y-104390306D01*
X120841007Y-104385624D01*
X120890170Y-104331380D01*
X120894436Y-104326901D01*
X120898193Y-104323143D01*
X120778685Y-104116149D01*
X118178877Y-105617149D01*
X116182877Y-105617149D01*
X116815585Y-105251855D01*
X115314584Y-102652046D01*
X112714775Y-104153047D01*
X110718775Y-104153047D01*
X111351483Y-103787753D01*
X109850482Y-101187944D01*
X107250673Y-102688945D01*
X105254676Y-102688945D01*
X105887382Y-102323652D01*
X104386381Y-99723843D01*
X101786572Y-101224844D01*
X99790572Y-101224844D01*
X100423280Y-100859550D01*
X98922279Y-98259741D01*
X96322470Y-99760742D01*
X94326471Y-99760742D01*
X94959178Y-99395448D01*
X93458177Y-96795640D01*
X90858369Y-98296641D01*
X88862369Y-98296641D01*
X89495077Y-97931347D01*
X87994076Y-95331538D01*
X85394267Y-96832539D01*
X83398267Y-96832539D01*
X84030975Y-96467245D01*
X82529974Y-93867436D01*
X79930165Y-95368437D01*
X77934166Y-95368437D01*
X78566873Y-95003143D01*
X77065872Y-92403335D01*
X75998500Y-93019584D01*
X75998500Y-96485995D01*
X75000500Y-96485995D01*
X75000500Y-91904336D01*
X77930165Y-91904336D01*
X79431166Y-94504144D01*
X81398267Y-93368437D01*
X83394267Y-93368437D01*
X84895268Y-95968246D01*
X86862369Y-94832539D01*
X88858369Y-94832539D01*
X90359370Y-97432348D01*
X92326471Y-96296641D01*
X94322470Y-96296641D01*
X95823471Y-98896449D01*
X97790572Y-97760742D01*
X99786572Y-97760742D01*
X101287573Y-100360551D01*
X103254674Y-99224844D01*
X105250673Y-99224844D01*
X106751674Y-101824653D01*
X108718777Y-100688945D01*
X110714775Y-100688945D01*
X112215776Y-103288754D01*
X114182877Y-102153047D01*
X116178877Y-102153047D01*
X117679878Y-104752856D01*
X119646979Y-103617149D01*
X121642978Y-103617149D01*
X121757428Y-103815382D01*
X121837596Y-103791064D01*
X121843558Y-103789414D01*
X121914603Y-103771620D01*
X121920640Y-103770265D01*
X121944867Y-103765447D01*
X121950959Y-103764390D01*
X122023350Y-103753654D01*
X122029485Y-103752898D01*
X122177640Y-103738307D01*
X122180719Y-103738041D01*
X122217210Y-103735349D01*
X122220294Y-103735160D01*
X122232643Y-103734553D01*
X122235734Y-103734439D01*
X122272359Y-103733539D01*
X122275454Y-103733501D01*
X125176565Y-103733500D01*
X124242787Y-102116148D01*
X121642978Y-103617149D01*
X119646979Y-103617149D01*
X120279686Y-103251855D01*
X118778685Y-100652046D01*
X116178877Y-102153047D01*
X114182877Y-102153047D01*
X114815585Y-101787753D01*
X113314584Y-99187944D01*
X110714775Y-100688945D01*
X108718777Y-100688945D01*
X109351483Y-100323652D01*
X107850482Y-97723843D01*
X105250673Y-99224844D01*
X103254674Y-99224844D01*
X103887382Y-98859550D01*
X102386381Y-96259741D01*
X99786572Y-97760742D01*
X97790572Y-97760742D01*
X98423280Y-97395448D01*
X96922279Y-94795640D01*
X94322470Y-96296641D01*
X92326471Y-96296641D01*
X92959178Y-95931347D01*
X91458177Y-93331538D01*
X88858369Y-94832539D01*
X86862369Y-94832539D01*
X87495077Y-94467245D01*
X85994076Y-91867436D01*
X83394267Y-93368437D01*
X81398267Y-93368437D01*
X82030975Y-93003143D01*
X80529974Y-90403335D01*
X77930165Y-91904336D01*
X75000500Y-91904336D01*
X75000500Y-88558592D01*
X75998500Y-88558592D01*
X77431166Y-91040043D01*
X79398267Y-89904336D01*
X81394267Y-89904336D01*
X82895268Y-92504144D01*
X84862369Y-91368437D01*
X86858369Y-91368437D01*
X88359370Y-93968246D01*
X90326471Y-92832539D01*
X92322470Y-92832539D01*
X93823471Y-95432348D01*
X95790572Y-94296641D01*
X97786572Y-94296641D01*
X99287573Y-96896449D01*
X101254674Y-95760742D01*
X103250673Y-95760742D01*
X104751674Y-98360551D01*
X106718775Y-97224844D01*
X108714775Y-97224844D01*
X110215776Y-99824653D01*
X112182879Y-98688945D01*
X114178877Y-98688945D01*
X115679878Y-101288754D01*
X117646979Y-100153047D01*
X119642978Y-100153047D01*
X121143979Y-102752856D01*
X123111080Y-101617149D01*
X125107080Y-101617149D01*
X126586513Y-104179600D01*
X126622140Y-104208838D01*
X128575182Y-103081250D01*
X130571182Y-103081250D01*
X131305139Y-104352500D01*
X134373315Y-104352500D01*
X134671991Y-104180058D01*
X133170990Y-101580249D01*
X130571182Y-103081250D01*
X128575182Y-103081250D01*
X129207890Y-102715956D01*
X127706889Y-100116148D01*
X125107080Y-101617149D01*
X123111080Y-101617149D01*
X123743788Y-101251855D01*
X122874382Y-99746000D01*
X122275482Y-99746000D01*
X122272390Y-99745962D01*
X122235768Y-99745063D01*
X122232675Y-99744949D01*
X122220325Y-99744342D01*
X122217238Y-99744152D01*
X122180740Y-99741459D01*
X122177662Y-99741194D01*
X122029577Y-99726609D01*
X122023439Y-99725852D01*
X121951017Y-99715109D01*
X121944923Y-99714052D01*
X121920697Y-99709233D01*
X121914663Y-99707878D01*
X121843650Y-99690090D01*
X121837690Y-99688440D01*
X121647682Y-99630801D01*
X121641810Y-99628862D01*
X121609074Y-99617149D01*
X128571182Y-99617149D01*
X130072183Y-102216957D01*
X132039284Y-101081250D01*
X134035283Y-101081250D01*
X135536284Y-103681058D01*
X136215831Y-103288721D01*
X136303188Y-103104020D01*
X136376199Y-102899978D01*
X136428857Y-102689758D01*
X136460659Y-102475375D01*
X136472500Y-102234434D01*
X136472500Y-99674123D01*
X134035283Y-101081250D01*
X132039284Y-101081250D01*
X132671991Y-100715956D01*
X131170990Y-98116148D01*
X128571182Y-99617149D01*
X121609074Y-99617149D01*
X121572892Y-99604203D01*
X121567123Y-99601977D01*
X121544303Y-99592525D01*
X121538648Y-99590019D01*
X121472459Y-99558714D01*
X121466935Y-99555933D01*
X121291822Y-99462333D01*
X121286440Y-99459284D01*
X121223634Y-99421639D01*
X121218408Y-99418330D01*
X121197871Y-99404607D01*
X121192816Y-99401046D01*
X121134027Y-99357444D01*
X121129152Y-99353640D01*
X121087210Y-99319219D01*
X119642978Y-100153047D01*
X117646979Y-100153047D01*
X118279686Y-99787753D01*
X116778685Y-97187944D01*
X114178877Y-98688945D01*
X112182879Y-98688945D01*
X112815585Y-98323652D01*
X111314584Y-95723843D01*
X108714775Y-97224844D01*
X106718775Y-97224844D01*
X107351483Y-96859550D01*
X105850482Y-94259741D01*
X103250673Y-95760742D01*
X101254674Y-95760742D01*
X101887382Y-95395448D01*
X100386381Y-92795640D01*
X97786572Y-94296641D01*
X95790572Y-94296641D01*
X96423280Y-93931347D01*
X94922279Y-91331538D01*
X92322470Y-92832539D01*
X90326471Y-92832539D01*
X90959178Y-92467245D01*
X89458177Y-89867436D01*
X86858369Y-91368437D01*
X84862369Y-91368437D01*
X85495077Y-91003143D01*
X83994076Y-88403335D01*
X81394267Y-89904336D01*
X79398267Y-89904336D01*
X80030975Y-89539042D01*
X78529974Y-86939233D01*
X75998500Y-88400782D01*
X75998500Y-88558592D01*
X75000500Y-88558592D01*
X75000500Y-87248391D01*
X75998500Y-87248391D01*
X77398268Y-86440234D01*
X79394267Y-86440234D01*
X80895268Y-89040043D01*
X82862369Y-87904336D01*
X84858369Y-87904336D01*
X86359370Y-90504144D01*
X88326471Y-89368437D01*
X90322470Y-89368437D01*
X91823471Y-91968246D01*
X93790572Y-90832539D01*
X95786572Y-90832539D01*
X97287573Y-93432348D01*
X99254674Y-92296641D01*
X101250673Y-92296641D01*
X102751674Y-94896449D01*
X104718775Y-93760742D01*
X106714775Y-93760742D01*
X108215776Y-96360551D01*
X110182877Y-95224844D01*
X112178877Y-95224844D01*
X113679878Y-97824653D01*
X115646980Y-96688945D01*
X117642978Y-96688945D01*
X119143979Y-99288753D01*
X120472845Y-98521532D01*
X120472475Y-98520697D01*
X120463023Y-98497877D01*
X120460797Y-98492108D01*
X120436138Y-98423190D01*
X120434199Y-98417318D01*
X120376560Y-98227310D01*
X120374910Y-98221350D01*
X120357122Y-98150337D01*
X120355767Y-98144303D01*
X120350948Y-98120077D01*
X120349891Y-98113983D01*
X120339148Y-98041561D01*
X120338391Y-98035423D01*
X120323806Y-97887338D01*
X120323541Y-97884260D01*
X120320848Y-97847762D01*
X120320658Y-97844675D01*
X120320051Y-97832325D01*
X120319937Y-97829232D01*
X120319038Y-97792610D01*
X120319000Y-97789518D01*
X120319000Y-97786426D01*
X121317000Y-97786426D01*
X121317303Y-97792598D01*
X121330977Y-97931437D01*
X121333383Y-97943531D01*
X121387426Y-98121686D01*
X121392141Y-98133069D01*
X121479904Y-98297261D01*
X121486755Y-98307514D01*
X121604861Y-98451427D01*
X121613572Y-98460138D01*
X121757485Y-98578244D01*
X121767738Y-98585095D01*
X121931930Y-98672858D01*
X121943313Y-98677573D01*
X122121468Y-98731616D01*
X122133562Y-98734022D01*
X122272401Y-98747696D01*
X122278574Y-98748000D01*
X123554410Y-98748000D01*
X123567493Y-98744493D01*
X123571000Y-98731410D01*
X124079000Y-98731410D01*
X124082506Y-98744493D01*
X124095590Y-98748000D01*
X125371426Y-98748000D01*
X125377598Y-98747696D01*
X125516437Y-98734022D01*
X125528531Y-98731616D01*
X125706686Y-98677573D01*
X125718069Y-98672858D01*
X125882261Y-98585095D01*
X125892514Y-98578244D01*
X126036427Y-98460138D01*
X126045138Y-98451427D01*
X126163244Y-98307514D01*
X126170095Y-98297261D01*
X126257858Y-98133069D01*
X126262573Y-98121686D01*
X126316616Y-97943531D01*
X126319022Y-97931437D01*
X126332696Y-97792598D01*
X126333000Y-97786426D01*
X126333000Y-97510590D01*
X126329493Y-97497506D01*
X126316410Y-97494000D01*
X124095590Y-97494000D01*
X124082506Y-97497506D01*
X124079000Y-97510590D01*
X124079000Y-98731410D01*
X123571000Y-98731410D01*
X123571000Y-97510590D01*
X123567493Y-97497506D01*
X123554410Y-97494000D01*
X121333590Y-97494000D01*
X121320506Y-97497506D01*
X121317000Y-97510590D01*
X121317000Y-97786426D01*
X120319000Y-97786426D01*
X120319000Y-97494000D01*
X120320078Y-97477553D01*
X120345498Y-97284472D01*
X120348713Y-97268308D01*
X120356298Y-97239999D01*
X120348713Y-97211692D01*
X120345498Y-97195528D01*
X120320078Y-97002447D01*
X120319000Y-96986000D01*
X120319000Y-96969410D01*
X121317000Y-96969410D01*
X121320506Y-96982493D01*
X121333590Y-96986000D01*
X123554410Y-96986000D01*
X123567493Y-96982493D01*
X123571000Y-96969410D01*
X124079000Y-96969410D01*
X124082506Y-96982493D01*
X124095590Y-96986000D01*
X126316410Y-96986000D01*
X126329493Y-96982493D01*
X126333000Y-96969410D01*
X126333000Y-96693574D01*
X126332696Y-96687401D01*
X126319022Y-96548562D01*
X126316616Y-96536468D01*
X126262573Y-96358313D01*
X126257858Y-96346930D01*
X126170095Y-96182738D01*
X126163244Y-96172485D01*
X126045138Y-96028572D01*
X126036427Y-96019861D01*
X125892514Y-95901755D01*
X125882261Y-95894904D01*
X125775313Y-95837739D01*
X127117309Y-95837739D01*
X127140933Y-95881935D01*
X127143714Y-95887459D01*
X127175019Y-95953648D01*
X127177525Y-95959303D01*
X127186977Y-95982123D01*
X127189203Y-95987892D01*
X127213862Y-96056810D01*
X127215801Y-96062682D01*
X127273440Y-96252690D01*
X127275090Y-96258650D01*
X127292878Y-96329663D01*
X127294233Y-96335697D01*
X127299052Y-96359923D01*
X127300109Y-96366017D01*
X127310852Y-96438439D01*
X127311609Y-96444577D01*
X127326194Y-96592662D01*
X127326459Y-96595740D01*
X127329152Y-96632238D01*
X127329342Y-96635325D01*
X127329949Y-96647675D01*
X127330063Y-96650768D01*
X127330962Y-96687390D01*
X127331000Y-96690482D01*
X127331000Y-96986000D01*
X127329922Y-97002447D01*
X127304502Y-97195528D01*
X127301286Y-97211694D01*
X127293701Y-97239999D01*
X127301286Y-97268307D01*
X127304502Y-97284472D01*
X127328160Y-97464169D01*
X128072183Y-98752856D01*
X130039284Y-97617149D01*
X132035283Y-97617149D01*
X133536284Y-100216957D01*
X136136093Y-98715956D01*
X134635092Y-96116148D01*
X132035283Y-97617149D01*
X130039284Y-97617149D01*
X130671991Y-97251855D01*
X129170990Y-94652046D01*
X127117309Y-95837739D01*
X125775313Y-95837739D01*
X125718069Y-95807141D01*
X125706686Y-95802426D01*
X125528531Y-95748383D01*
X125516437Y-95745977D01*
X125377598Y-95732303D01*
X125371426Y-95732000D01*
X124095590Y-95732000D01*
X124082506Y-95735506D01*
X124079000Y-95748590D01*
X124079000Y-96969410D01*
X123571000Y-96969410D01*
X123571000Y-95748590D01*
X123567493Y-95735506D01*
X123554410Y-95732000D01*
X122278574Y-95732000D01*
X122272401Y-95732303D01*
X122133562Y-95745977D01*
X122121468Y-95748383D01*
X121943313Y-95802426D01*
X121931930Y-95807141D01*
X121767738Y-95894904D01*
X121757485Y-95901755D01*
X121613572Y-96019861D01*
X121604861Y-96028572D01*
X121486755Y-96172485D01*
X121479904Y-96182738D01*
X121392141Y-96346930D01*
X121387426Y-96358313D01*
X121333383Y-96536468D01*
X121330977Y-96548562D01*
X121317303Y-96687401D01*
X121317000Y-96693574D01*
X121317000Y-96969410D01*
X120319000Y-96969410D01*
X120319000Y-96690482D01*
X120319038Y-96687390D01*
X120319937Y-96650768D01*
X120320051Y-96647675D01*
X120320658Y-96635325D01*
X120320848Y-96632238D01*
X120323541Y-96595740D01*
X120323806Y-96592662D01*
X120338391Y-96444577D01*
X120339148Y-96438439D01*
X120349891Y-96366017D01*
X120350948Y-96359923D01*
X120355767Y-96335697D01*
X120357122Y-96329663D01*
X120374910Y-96258650D01*
X120376560Y-96252690D01*
X120434199Y-96062682D01*
X120436138Y-96056810D01*
X120460797Y-95987892D01*
X120463023Y-95982123D01*
X120472475Y-95959303D01*
X120474981Y-95953648D01*
X120506286Y-95887459D01*
X120509067Y-95881935D01*
X120573675Y-95761060D01*
X120242787Y-95187945D01*
X117642978Y-96688945D01*
X115646980Y-96688945D01*
X116279686Y-96323652D01*
X114778685Y-93723843D01*
X112178877Y-95224844D01*
X110182877Y-95224844D01*
X110815585Y-94859550D01*
X109314584Y-92259741D01*
X106714775Y-93760742D01*
X104718775Y-93760742D01*
X105351483Y-93395448D01*
X103850482Y-90795640D01*
X101250673Y-92296641D01*
X99254674Y-92296641D01*
X99887382Y-91931347D01*
X98386381Y-89331538D01*
X95786572Y-90832539D01*
X93790572Y-90832539D01*
X94423280Y-90467245D01*
X92922279Y-87867436D01*
X90322470Y-89368437D01*
X88326471Y-89368437D01*
X88959178Y-89003143D01*
X87458177Y-86403335D01*
X84858369Y-87904336D01*
X82862369Y-87904336D01*
X83495077Y-87539042D01*
X81994076Y-84939233D01*
X79394267Y-86440234D01*
X77398268Y-86440234D01*
X78030975Y-86074940D01*
X76529974Y-83475132D01*
X75998500Y-83781980D01*
X75998500Y-87248391D01*
X75000500Y-87248391D01*
X75000500Y-82976133D01*
X77394267Y-82976133D01*
X78895268Y-85575941D01*
X80862369Y-84440234D01*
X82858369Y-84440234D01*
X84359370Y-87040043D01*
X86326471Y-85904336D01*
X88322470Y-85904336D01*
X89823471Y-88504144D01*
X91790572Y-87368437D01*
X93786572Y-87368437D01*
X95287573Y-89968246D01*
X97254674Y-88832539D01*
X99250673Y-88832539D01*
X100751674Y-91432348D01*
X102718775Y-90296641D01*
X104714775Y-90296641D01*
X106215776Y-92896449D01*
X108182877Y-91760742D01*
X110178877Y-91760742D01*
X111679878Y-94360551D01*
X113646979Y-93224844D01*
X115642978Y-93224844D01*
X117143979Y-95824653D01*
X119111082Y-94688945D01*
X121107080Y-94688945D01*
X121295678Y-95015605D01*
X121466935Y-94924067D01*
X121472459Y-94921286D01*
X121538648Y-94889981D01*
X121544303Y-94887475D01*
X121567123Y-94878023D01*
X121572892Y-94875797D01*
X121641810Y-94851138D01*
X121647682Y-94849199D01*
X121837690Y-94791560D01*
X121843650Y-94789910D01*
X121914663Y-94772122D01*
X121920697Y-94770767D01*
X121944923Y-94765948D01*
X121951017Y-94764891D01*
X122023439Y-94754148D01*
X122029577Y-94753391D01*
X122177662Y-94738806D01*
X122180740Y-94738541D01*
X122217238Y-94735848D01*
X122220325Y-94735658D01*
X122232675Y-94735051D01*
X122235768Y-94734937D01*
X122272390Y-94734038D01*
X122275482Y-94734000D01*
X123571000Y-94734000D01*
X123587447Y-94735078D01*
X123780528Y-94760498D01*
X123796692Y-94763713D01*
X123825000Y-94771298D01*
X123853308Y-94763713D01*
X123869472Y-94760498D01*
X124062553Y-94735078D01*
X124079000Y-94734000D01*
X124599505Y-94734000D01*
X123706889Y-93187944D01*
X121107080Y-94688945D01*
X119111082Y-94688945D01*
X119743788Y-94323652D01*
X118242787Y-91723843D01*
X115642978Y-93224844D01*
X113646979Y-93224844D01*
X114279686Y-92859550D01*
X112778685Y-90259741D01*
X110178877Y-91760742D01*
X108182877Y-91760742D01*
X108815585Y-91395448D01*
X107314584Y-88795640D01*
X104714775Y-90296641D01*
X102718775Y-90296641D01*
X103351483Y-89931347D01*
X101850482Y-87331538D01*
X99250673Y-88832539D01*
X97254674Y-88832539D01*
X97887382Y-88467245D01*
X96386381Y-85867436D01*
X93786572Y-87368437D01*
X91790572Y-87368437D01*
X92423280Y-87003143D01*
X90922279Y-84403335D01*
X88322470Y-85904336D01*
X86326471Y-85904336D01*
X86959178Y-85539042D01*
X85458177Y-82939233D01*
X82858369Y-84440234D01*
X80862369Y-84440234D01*
X81495077Y-84074940D01*
X79994076Y-81475132D01*
X77394267Y-82976133D01*
X75000500Y-82976133D01*
X75000500Y-80558592D01*
X75998500Y-80558592D01*
X76895268Y-82111840D01*
X78862369Y-80976133D01*
X80858369Y-80976133D01*
X82359370Y-83575941D01*
X84326471Y-82440234D01*
X86322470Y-82440234D01*
X87823471Y-85040043D01*
X89790574Y-83904335D01*
X91786572Y-83904335D01*
X93287573Y-86504144D01*
X95254674Y-85368437D01*
X97250673Y-85368437D01*
X98751674Y-87968246D01*
X100718775Y-86832539D01*
X102714775Y-86832539D01*
X104215776Y-89432348D01*
X106182877Y-88296641D01*
X108178877Y-88296641D01*
X109679878Y-90896449D01*
X111646979Y-89760742D01*
X113642978Y-89760742D01*
X115143979Y-92360551D01*
X117111080Y-91224844D01*
X119107080Y-91224844D01*
X120608081Y-93824652D01*
X122475496Y-92746499D01*
X124604412Y-92746499D01*
X125780426Y-94783416D01*
X125806350Y-94789910D01*
X125812310Y-94791560D01*
X126002318Y-94849199D01*
X126008190Y-94851138D01*
X126077108Y-94875797D01*
X126082877Y-94878023D01*
X126105697Y-94887475D01*
X126111352Y-94889981D01*
X126177541Y-94921286D01*
X126183065Y-94924067D01*
X126358178Y-95017667D01*
X126363560Y-95020716D01*
X126426366Y-95058361D01*
X126431592Y-95061670D01*
X126447310Y-95072173D01*
X128039283Y-94153047D01*
X130035283Y-94153047D01*
X131536284Y-96752856D01*
X134136093Y-95251855D01*
X132635092Y-92652046D01*
X130035283Y-94153047D01*
X128039283Y-94153047D01*
X128671991Y-93787753D01*
X127246324Y-91318427D01*
X127216269Y-91417508D01*
X127214328Y-91423382D01*
X127189657Y-91492329D01*
X127187431Y-91498100D01*
X127177978Y-91520920D01*
X127175472Y-91526572D01*
X127144179Y-91592734D01*
X127141399Y-91598257D01*
X127047753Y-91773457D01*
X127044705Y-91778838D01*
X127007068Y-91841631D01*
X127003759Y-91846856D01*
X126990036Y-91867394D01*
X126986475Y-91872450D01*
X126942863Y-91931254D01*
X126939058Y-91936130D01*
X126813031Y-92089694D01*
X126808993Y-92094376D01*
X126759830Y-92148620D01*
X126755564Y-92153099D01*
X126738099Y-92170564D01*
X126733620Y-92174830D01*
X126679376Y-92223993D01*
X126674694Y-92228031D01*
X126521130Y-92354058D01*
X126516254Y-92357863D01*
X126457450Y-92401475D01*
X126452394Y-92405036D01*
X126431856Y-92418759D01*
X126426631Y-92422068D01*
X126363838Y-92459705D01*
X126358457Y-92462753D01*
X126183257Y-92556399D01*
X126177734Y-92559179D01*
X126111572Y-92590472D01*
X126105920Y-92592978D01*
X126083100Y-92602431D01*
X126077329Y-92604657D01*
X126008382Y-92629328D01*
X126002508Y-92631269D01*
X125812405Y-92688936D01*
X125806442Y-92690586D01*
X125735397Y-92708380D01*
X125729360Y-92709735D01*
X125705133Y-92714553D01*
X125699041Y-92715610D01*
X125626650Y-92726346D01*
X125620515Y-92727102D01*
X125472360Y-92741693D01*
X125469281Y-92741959D01*
X125432790Y-92744651D01*
X125429706Y-92744840D01*
X125417357Y-92745447D01*
X125414266Y-92745561D01*
X125377641Y-92746461D01*
X125374546Y-92746499D01*
X124604412Y-92746499D01*
X122475496Y-92746499D01*
X122275453Y-92746500D01*
X122272361Y-92746462D01*
X122235739Y-92745563D01*
X122232646Y-92745449D01*
X122220296Y-92744842D01*
X122217210Y-92744652D01*
X122180711Y-92741959D01*
X122177632Y-92741694D01*
X122029478Y-92727102D01*
X122023342Y-92726346D01*
X121950950Y-92715609D01*
X121944859Y-92714552D01*
X121920633Y-92709734D01*
X121914597Y-92708378D01*
X121843558Y-92690585D01*
X121837595Y-92688936D01*
X121647492Y-92631269D01*
X121641618Y-92629328D01*
X121572671Y-92604657D01*
X121566900Y-92602431D01*
X121544080Y-92592978D01*
X121538428Y-92590472D01*
X121472266Y-92559179D01*
X121466743Y-92556399D01*
X121291543Y-92462753D01*
X121286162Y-92459705D01*
X121223369Y-92422068D01*
X121218144Y-92418759D01*
X121197606Y-92405036D01*
X121192550Y-92401475D01*
X121133746Y-92357863D01*
X121128870Y-92354058D01*
X120975306Y-92228031D01*
X120970624Y-92223993D01*
X120916380Y-92174830D01*
X120911901Y-92170564D01*
X120894436Y-92153099D01*
X120890170Y-92148620D01*
X120841007Y-92094376D01*
X120836969Y-92089694D01*
X120710942Y-91936130D01*
X120707137Y-91931254D01*
X120663525Y-91872450D01*
X120659964Y-91867394D01*
X120646241Y-91846856D01*
X120642932Y-91841631D01*
X120605295Y-91778838D01*
X120602247Y-91773457D01*
X120508601Y-91598257D01*
X120505821Y-91592734D01*
X120474528Y-91526572D01*
X120472022Y-91520920D01*
X120462569Y-91498100D01*
X120460343Y-91492329D01*
X120435672Y-91423382D01*
X120433731Y-91417508D01*
X120376064Y-91227405D01*
X120374414Y-91221442D01*
X120356620Y-91150397D01*
X120355265Y-91144360D01*
X120350447Y-91120133D01*
X120349390Y-91114041D01*
X120338654Y-91041650D01*
X120337898Y-91035515D01*
X120323307Y-90887360D01*
X120323041Y-90884281D01*
X120320349Y-90847790D01*
X120320160Y-90844706D01*
X120319553Y-90832357D01*
X120319439Y-90829266D01*
X120318539Y-90792642D01*
X120318501Y-90789547D01*
X120318501Y-90786472D01*
X121316500Y-90786472D01*
X121316501Y-90789546D01*
X121316803Y-90792617D01*
X121316804Y-90792628D01*
X121320717Y-90832357D01*
X121331092Y-90937701D01*
X121388759Y-91127804D01*
X121482405Y-91303004D01*
X121486330Y-91307787D01*
X121486331Y-91307788D01*
X121536104Y-91368437D01*
X121608432Y-91456568D01*
X121761996Y-91582595D01*
X121937196Y-91676241D01*
X122127299Y-91733908D01*
X122133460Y-91734514D01*
X122133461Y-91734515D01*
X122153427Y-91736481D01*
X122275453Y-91748500D01*
X125374546Y-91748499D01*
X125522701Y-91733908D01*
X125712804Y-91676241D01*
X125888004Y-91582595D01*
X126041568Y-91456568D01*
X126167595Y-91303004D01*
X126261241Y-91127804D01*
X126318908Y-90937701D01*
X126333500Y-90789547D01*
X126333500Y-90688945D01*
X128035283Y-90688945D01*
X129536284Y-93288754D01*
X131503385Y-92153047D01*
X133499385Y-92153047D01*
X135000386Y-94752856D01*
X136472500Y-93902930D01*
X136472500Y-91298632D01*
X136099193Y-90652046D01*
X133499385Y-92153047D01*
X131503385Y-92153047D01*
X132136093Y-91787753D01*
X130635092Y-89187944D01*
X128035283Y-90688945D01*
X126333500Y-90688945D01*
X126333499Y-89690454D01*
X126318908Y-89542299D01*
X126261241Y-89352196D01*
X126167595Y-89176996D01*
X126041568Y-89023432D01*
X125888004Y-88897405D01*
X125858702Y-88881743D01*
X125718265Y-88806678D01*
X125712804Y-88803759D01*
X125686039Y-88795640D01*
X125528623Y-88747888D01*
X125528619Y-88747887D01*
X125522701Y-88746092D01*
X125516547Y-88745485D01*
X125516538Y-88745484D01*
X125377627Y-88731803D01*
X125377619Y-88731802D01*
X125374547Y-88731500D01*
X125371454Y-88731500D01*
X122278547Y-88731500D01*
X122278526Y-88731500D01*
X122275454Y-88731501D01*
X122272383Y-88731803D01*
X122272371Y-88731804D01*
X122133461Y-88745485D01*
X122133459Y-88745485D01*
X122127299Y-88746092D01*
X122121379Y-88747887D01*
X122121378Y-88747888D01*
X121943119Y-88801962D01*
X121943116Y-88801963D01*
X121937196Y-88803759D01*
X121931738Y-88806676D01*
X121931734Y-88806678D01*
X121767454Y-88894487D01*
X121767449Y-88894490D01*
X121761996Y-88897405D01*
X121757217Y-88901326D01*
X121757211Y-88901331D01*
X121613211Y-89019509D01*
X121613205Y-89019514D01*
X121608432Y-89023432D01*
X121604514Y-89028205D01*
X121604509Y-89028211D01*
X121486331Y-89172211D01*
X121486326Y-89172217D01*
X121482405Y-89176996D01*
X121479490Y-89182449D01*
X121479487Y-89182454D01*
X121397612Y-89335633D01*
X121388759Y-89352196D01*
X121386963Y-89358116D01*
X121386962Y-89358119D01*
X121332888Y-89536376D01*
X121332888Y-89536378D01*
X121331092Y-89542299D01*
X121330486Y-89548450D01*
X121330484Y-89548461D01*
X121316803Y-89687372D01*
X121316500Y-89690453D01*
X121316500Y-89693544D01*
X121316500Y-89693545D01*
X121316500Y-90786452D01*
X121316500Y-90786472D01*
X120318501Y-90786472D01*
X120318500Y-90525430D01*
X119107080Y-91224844D01*
X117111080Y-91224844D01*
X117743788Y-90859550D01*
X116242787Y-88259741D01*
X113642978Y-89760742D01*
X111646979Y-89760742D01*
X112279686Y-89395448D01*
X110778685Y-86795640D01*
X108178877Y-88296641D01*
X106182877Y-88296641D01*
X106815585Y-87931347D01*
X105314584Y-85331538D01*
X102714775Y-86832539D01*
X100718775Y-86832539D01*
X101351483Y-86467245D01*
X99850482Y-83867436D01*
X97250673Y-85368437D01*
X95254674Y-85368437D01*
X95887382Y-85003143D01*
X95122092Y-83677623D01*
X95068257Y-83706399D01*
X95062734Y-83709179D01*
X94996572Y-83740472D01*
X94990920Y-83742978D01*
X94968100Y-83752431D01*
X94962329Y-83754657D01*
X94893382Y-83779328D01*
X94887508Y-83781269D01*
X94697405Y-83838936D01*
X94691442Y-83840586D01*
X94620397Y-83858380D01*
X94614360Y-83859735D01*
X94590133Y-83864553D01*
X94584041Y-83865610D01*
X94511650Y-83876346D01*
X94505515Y-83877102D01*
X94357360Y-83891693D01*
X94354281Y-83891959D01*
X94317790Y-83894651D01*
X94314706Y-83894840D01*
X94302357Y-83895447D01*
X94299266Y-83895561D01*
X94262641Y-83896461D01*
X94259546Y-83896499D01*
X91800147Y-83896499D01*
X91786572Y-83904335D01*
X89790574Y-83904335D01*
X90238370Y-83645800D01*
X90176543Y-83612753D01*
X90171162Y-83609705D01*
X90108369Y-83572068D01*
X90103144Y-83568759D01*
X90082606Y-83555036D01*
X90077550Y-83551475D01*
X90018746Y-83507863D01*
X90013870Y-83504058D01*
X89860306Y-83378031D01*
X89855624Y-83373993D01*
X89801380Y-83324830D01*
X89796901Y-83320564D01*
X89779436Y-83303099D01*
X89775170Y-83298620D01*
X89756027Y-83277499D01*
X89736621Y-83277499D01*
X89733529Y-83277461D01*
X89696910Y-83276562D01*
X89693817Y-83276448D01*
X89681466Y-83275841D01*
X89678378Y-83275651D01*
X89641870Y-83272957D01*
X89638792Y-83272692D01*
X89345503Y-83243803D01*
X89342431Y-83243462D01*
X89306115Y-83238983D01*
X89303053Y-83238568D01*
X89290822Y-83236754D01*
X89287769Y-83236263D01*
X89251669Y-83230000D01*
X89248625Y-83229433D01*
X88959579Y-83171936D01*
X88956552Y-83171295D01*
X88920809Y-83163268D01*
X88917799Y-83162553D01*
X88905804Y-83159548D01*
X88902812Y-83158759D01*
X88867542Y-83148997D01*
X88864576Y-83148137D01*
X88582558Y-83062586D01*
X88579613Y-83061653D01*
X88544861Y-83050173D01*
X88541937Y-83049167D01*
X88530296Y-83045002D01*
X88527397Y-83043925D01*
X88493222Y-83030743D01*
X88490349Y-83029594D01*
X88425496Y-83002731D01*
X95884833Y-83002731D01*
X96751674Y-84504144D01*
X98718775Y-83368437D01*
X100714775Y-83368437D01*
X102215776Y-85968246D01*
X104182877Y-84832539D01*
X106178877Y-84832539D01*
X107679878Y-87432348D01*
X109646979Y-86296641D01*
X111642978Y-86296641D01*
X113143979Y-88896449D01*
X115111080Y-87760742D01*
X117107080Y-87760742D01*
X118608081Y-90360551D01*
X120351630Y-89353911D01*
X120355266Y-89335633D01*
X120356622Y-89329597D01*
X120374415Y-89258558D01*
X120376064Y-89252595D01*
X120433731Y-89062492D01*
X120435672Y-89056618D01*
X120460343Y-88987671D01*
X120462569Y-88981900D01*
X120472022Y-88959080D01*
X120474528Y-88953428D01*
X120505821Y-88887266D01*
X120508601Y-88881743D01*
X120602247Y-88706543D01*
X120605295Y-88701162D01*
X120642932Y-88638369D01*
X120646241Y-88633144D01*
X120659964Y-88612606D01*
X120663525Y-88607550D01*
X120707137Y-88548746D01*
X120710942Y-88543870D01*
X120836969Y-88390306D01*
X120841007Y-88385624D01*
X120890170Y-88331380D01*
X120894436Y-88326901D01*
X120898194Y-88323142D01*
X119706889Y-86259741D01*
X117107080Y-87760742D01*
X115111080Y-87760742D01*
X115743788Y-87395448D01*
X114242787Y-84795640D01*
X111642978Y-86296641D01*
X109646979Y-86296641D01*
X110279686Y-85931347D01*
X108778685Y-83331538D01*
X106178877Y-84832539D01*
X104182877Y-84832539D01*
X104815585Y-84467245D01*
X103314584Y-81867436D01*
X100714775Y-83368437D01*
X98718775Y-83368437D01*
X99351483Y-83003143D01*
X97850482Y-80403335D01*
X96216499Y-81346715D01*
X96216500Y-81939546D01*
X96216462Y-81942638D01*
X96215563Y-81979261D01*
X96215449Y-81982354D01*
X96214842Y-81994704D01*
X96214652Y-81997790D01*
X96211959Y-82034289D01*
X96211694Y-82037368D01*
X96197102Y-82185522D01*
X96196346Y-82191658D01*
X96185609Y-82264050D01*
X96184552Y-82270141D01*
X96179734Y-82294367D01*
X96178378Y-82300403D01*
X96160585Y-82371442D01*
X96158936Y-82377405D01*
X96101269Y-82567508D01*
X96099328Y-82573382D01*
X96074657Y-82642329D01*
X96072431Y-82648100D01*
X96062978Y-82670920D01*
X96060472Y-82676572D01*
X96029179Y-82742734D01*
X96026399Y-82748257D01*
X95932753Y-82923457D01*
X95929705Y-82928838D01*
X95892068Y-82991631D01*
X95888759Y-82996856D01*
X95884833Y-83002731D01*
X88425496Y-83002731D01*
X88218073Y-82916813D01*
X88215230Y-82915594D01*
X88181770Y-82900762D01*
X88178961Y-82899476D01*
X88167782Y-82894189D01*
X88165001Y-82892831D01*
X88132279Y-82876360D01*
X88129533Y-82874936D01*
X87869624Y-82736010D01*
X87866915Y-82734518D01*
X87835032Y-82716456D01*
X87832356Y-82714897D01*
X87821751Y-82708540D01*
X87819121Y-82706919D01*
X87788212Y-82687345D01*
X87785622Y-82685660D01*
X87540581Y-82521928D01*
X87538031Y-82520179D01*
X87508070Y-82499078D01*
X87505559Y-82497263D01*
X87495628Y-82489897D01*
X87493168Y-82488025D01*
X87464329Y-82465517D01*
X87461919Y-82463587D01*
X87234106Y-82276626D01*
X87231742Y-82274638D01*
X87204051Y-82250753D01*
X87201737Y-82248707D01*
X87192576Y-82240405D01*
X87190308Y-82238298D01*
X87163761Y-82213025D01*
X87161546Y-82210864D01*
X87119468Y-82168787D01*
X87119279Y-82168607D01*
X87057342Y-82106669D01*
X86999830Y-82049158D01*
X86322470Y-82440234D01*
X84326471Y-82440234D01*
X84959178Y-82074940D01*
X83458177Y-79475132D01*
X80858369Y-80976133D01*
X78862369Y-80976133D01*
X79495077Y-80610839D01*
X77994076Y-78011030D01*
X75998500Y-79163178D01*
X75998500Y-80558592D01*
X75000500Y-80558592D01*
X75000500Y-74554590D01*
X75998500Y-74554590D01*
X75998500Y-78010787D01*
X76862370Y-77512031D01*
X78858369Y-77512031D01*
X80359370Y-80111840D01*
X82326471Y-78976133D01*
X84322470Y-78976133D01*
X85823471Y-81575940D01*
X86412416Y-81235912D01*
X86291248Y-80984300D01*
X86289761Y-80981098D01*
X86272679Y-80942926D01*
X86271281Y-80939680D01*
X86265873Y-80926625D01*
X86264566Y-80923341D01*
X86249633Y-80884223D01*
X86248417Y-80880900D01*
X86151081Y-80602724D01*
X86149960Y-80599370D01*
X86137248Y-80559483D01*
X86136222Y-80556100D01*
X86132311Y-80542523D01*
X86131381Y-80539114D01*
X86120935Y-80498613D01*
X86120101Y-80495182D01*
X86054523Y-80207857D01*
X86053785Y-80204403D01*
X86045622Y-80163368D01*
X86044981Y-80159891D01*
X86042614Y-80145960D01*
X86042071Y-80142465D01*
X86036221Y-80101021D01*
X86035776Y-80097516D01*
X86002782Y-79804655D01*
X86002436Y-79801139D01*
X85998919Y-79759441D01*
X85998671Y-79755914D01*
X85997879Y-79741808D01*
X85997731Y-79738278D01*
X85996558Y-79696459D01*
X85996508Y-79692926D01*
X85996508Y-79592860D01*
X85996500Y-79592200D01*
X85996500Y-78009632D01*
X84322470Y-78976133D01*
X82326471Y-78976133D01*
X82959178Y-78610839D01*
X81458177Y-76011030D01*
X78858369Y-77512031D01*
X76862370Y-77512031D01*
X77495077Y-77146737D01*
X75998500Y-74554590D01*
X75000500Y-74554590D01*
X75000500Y-74047929D01*
X76858369Y-74047929D01*
X78359370Y-76647738D01*
X80326471Y-75512031D01*
X82322470Y-75512031D01*
X83823471Y-78111840D01*
X85996500Y-76857241D01*
X85996500Y-75871635D01*
X84922279Y-74011030D01*
X82322470Y-75512031D01*
X80326471Y-75512031D01*
X80959178Y-75146737D01*
X79458177Y-72546928D01*
X76858369Y-74047929D01*
X75000500Y-74047929D01*
X75000500Y-72558591D01*
X75998500Y-72558591D01*
X76359370Y-73183636D01*
X78326471Y-72047929D01*
X80322470Y-72047929D01*
X81823471Y-74647738D01*
X84423280Y-73146737D01*
X82922279Y-70546928D01*
X80322470Y-72047929D01*
X78326471Y-72047929D01*
X78959178Y-71682635D01*
X77458177Y-69082827D01*
X75998500Y-69925574D01*
X75998500Y-72558591D01*
X75000500Y-72558591D01*
X75000500Y-68583828D01*
X78322470Y-68583828D01*
X79823471Y-71183636D01*
X81790572Y-70047929D01*
X83786572Y-70047929D01*
X85287573Y-72647738D01*
X85996500Y-72238439D01*
X85996500Y-68772027D01*
X83786572Y-70047929D01*
X81790572Y-70047929D01*
X82423280Y-69682635D01*
X80922279Y-67082827D01*
X78322470Y-68583828D01*
X75000500Y-68583828D01*
X75000500Y-65119726D01*
X76322470Y-65119726D01*
X77823471Y-67719535D01*
X79790572Y-66583828D01*
X81786572Y-66583828D01*
X83287573Y-69183636D01*
X85887382Y-67682635D01*
X84386381Y-65082827D01*
X81786572Y-66583828D01*
X79790572Y-66583828D01*
X80423280Y-66218534D01*
X78922279Y-63618725D01*
X76322470Y-65119726D01*
X75000500Y-65119726D01*
X75000500Y-64154380D01*
X75998500Y-64154380D01*
X77790573Y-63119726D01*
X79786572Y-63119726D01*
X81287573Y-65719535D01*
X83887382Y-64218534D01*
X82386381Y-61618725D01*
X79786572Y-63119726D01*
X77790573Y-63119726D01*
X78423280Y-62754432D01*
X76922279Y-60154623D01*
X75998500Y-60687969D01*
X75998500Y-64154380D01*
X75000500Y-64154380D01*
X75000500Y-59655624D01*
X77786572Y-59655624D01*
X79287573Y-62255433D01*
X81254674Y-61119726D01*
X83250673Y-61119726D01*
X84751674Y-63719535D01*
X85996500Y-63000835D01*
X85996500Y-59871635D01*
X85850482Y-59618725D01*
X83250673Y-61119726D01*
X81254674Y-61119726D01*
X81887382Y-60754432D01*
X80386381Y-58154623D01*
X77786572Y-59655624D01*
X75000500Y-59655624D01*
X75000500Y-56558592D01*
X75998500Y-56558592D01*
X77287573Y-58791332D01*
X79254676Y-57655624D01*
X81250673Y-57655624D01*
X82751674Y-60255433D01*
X85351483Y-58754432D01*
X83850482Y-56154623D01*
X81250673Y-57655624D01*
X79254676Y-57655624D01*
X79887382Y-57290331D01*
X78386381Y-54690522D01*
X75998500Y-56069167D01*
X75998500Y-56558592D01*
X75000500Y-56558592D01*
X75000500Y-54916776D01*
X75998500Y-54916776D01*
X77254675Y-54191523D01*
X79250673Y-54191523D01*
X80751674Y-56791332D01*
X83351483Y-55290331D01*
X81850482Y-52690522D01*
X79250673Y-54191523D01*
X77254675Y-54191523D01*
X77887382Y-53826229D01*
X76943583Y-52191523D01*
X82714775Y-52191523D01*
X84215776Y-54791332D01*
X85996500Y-53763231D01*
X85996500Y-52995809D01*
X85996499Y-52895082D01*
X85996499Y-52895073D01*
X86994499Y-52895073D01*
X86994500Y-52995800D01*
X86994500Y-79592200D01*
X86994505Y-79592254D01*
X86994508Y-79592365D01*
X86994508Y-79692926D01*
X86994902Y-79696425D01*
X86994903Y-79696439D01*
X87027105Y-79982269D01*
X87027106Y-79982280D01*
X87027502Y-79985787D01*
X87028286Y-79989224D01*
X87028289Y-79989239D01*
X87092292Y-80269662D01*
X87092294Y-80269671D01*
X87093080Y-80273112D01*
X87094245Y-80276443D01*
X87094247Y-80276448D01*
X87172509Y-80500111D01*
X87190416Y-80551288D01*
X87191946Y-80554465D01*
X87316749Y-80813626D01*
X87316755Y-80813637D01*
X87318286Y-80816816D01*
X87320163Y-80819804D01*
X87320169Y-80819814D01*
X87423522Y-80984300D01*
X87475082Y-81066357D01*
X87477292Y-81069129D01*
X87477294Y-81069131D01*
X87610296Y-81235912D01*
X87658832Y-81296774D01*
X87661339Y-81299281D01*
X87661340Y-81299282D01*
X87701066Y-81339008D01*
X87701080Y-81339023D01*
X87763029Y-81400971D01*
X87824977Y-81462920D01*
X87824996Y-81462933D01*
X87825026Y-81462960D01*
X87867229Y-81505162D01*
X88095042Y-81692123D01*
X88340083Y-81855855D01*
X88342801Y-81857307D01*
X88342808Y-81857312D01*
X88550349Y-81968246D01*
X88599992Y-81994781D01*
X88872268Y-82107562D01*
X88962065Y-82134802D01*
X89151325Y-82192215D01*
X89151329Y-82192216D01*
X89154286Y-82193113D01*
X89443332Y-82250610D01*
X89736621Y-82279499D01*
X89837355Y-82279499D01*
X89837360Y-82279499D01*
X89837363Y-82279500D01*
X89837371Y-82279500D01*
X89883976Y-82279500D01*
X89971584Y-82279501D01*
X89971589Y-82279500D01*
X90199144Y-82279500D01*
X90263921Y-82297426D01*
X90310266Y-82346104D01*
X90326997Y-82377405D01*
X90367405Y-82453004D01*
X90371330Y-82457787D01*
X90371331Y-82457788D01*
X90423969Y-82521928D01*
X90493432Y-82606568D01*
X90646996Y-82732595D01*
X90822196Y-82826241D01*
X91012299Y-82883908D01*
X91018460Y-82884514D01*
X91018461Y-82884515D01*
X91038427Y-82886481D01*
X91160453Y-82898500D01*
X94259546Y-82898499D01*
X94407701Y-82883908D01*
X94597804Y-82826241D01*
X94773004Y-82732595D01*
X94926568Y-82606568D01*
X95052595Y-82453004D01*
X95146241Y-82277804D01*
X95203908Y-82087701D01*
X95218500Y-81939547D01*
X95218499Y-80840454D01*
X95203908Y-80692299D01*
X95146241Y-80502196D01*
X95052595Y-80326996D01*
X94926568Y-80173432D01*
X94893093Y-80145960D01*
X94777788Y-80051331D01*
X94777787Y-80051330D01*
X94773004Y-80047405D01*
X94763290Y-80042213D01*
X94603265Y-79956678D01*
X94597804Y-79953759D01*
X94544611Y-79937623D01*
X94413623Y-79897888D01*
X94413619Y-79897887D01*
X94407701Y-79896092D01*
X94401547Y-79895485D01*
X94401538Y-79895484D01*
X94262627Y-79881803D01*
X94262619Y-79881802D01*
X94259547Y-79881500D01*
X94256454Y-79881500D01*
X91163547Y-79881500D01*
X91163526Y-79881500D01*
X91160454Y-79881501D01*
X91157383Y-79881803D01*
X91157371Y-79881804D01*
X91018461Y-79895485D01*
X91018459Y-79895485D01*
X91012299Y-79896092D01*
X91006379Y-79897887D01*
X91006378Y-79897888D01*
X90828119Y-79951962D01*
X90828116Y-79951963D01*
X90822196Y-79953759D01*
X90816738Y-79956676D01*
X90816734Y-79956678D01*
X90652454Y-80044487D01*
X90652449Y-80044490D01*
X90646996Y-80047405D01*
X90642217Y-80051326D01*
X90642211Y-80051331D01*
X90498211Y-80169509D01*
X90498205Y-80169514D01*
X90493432Y-80173432D01*
X90489514Y-80178205D01*
X90489509Y-80178211D01*
X90371331Y-80322211D01*
X90371326Y-80322217D01*
X90367405Y-80326996D01*
X90364490Y-80332449D01*
X90364487Y-80332454D01*
X90310266Y-80433896D01*
X90263921Y-80482574D01*
X90199144Y-80500500D01*
X89888935Y-80500500D01*
X89879048Y-80500111D01*
X89702954Y-80486250D01*
X89683427Y-80483158D01*
X89516482Y-80443078D01*
X89497677Y-80436968D01*
X89339056Y-80371264D01*
X89321444Y-80362289D01*
X89175058Y-80272582D01*
X89159067Y-80260964D01*
X89028489Y-80149440D01*
X89014508Y-80135460D01*
X88941305Y-80049749D01*
X88929689Y-80033762D01*
X88928452Y-80031743D01*
X88870772Y-79937617D01*
X88861799Y-79920005D01*
X88818654Y-79815841D01*
X88812544Y-79797037D01*
X88786225Y-79687405D01*
X88783132Y-79667877D01*
X88773888Y-79550406D01*
X88773500Y-79540519D01*
X88773500Y-79535624D01*
X88773501Y-79457982D01*
X88773500Y-79457977D01*
X88773500Y-79296545D01*
X89771500Y-79296545D01*
X91254674Y-78440234D01*
X93250673Y-78440234D01*
X93506593Y-78883500D01*
X94259547Y-78883500D01*
X94262639Y-78883538D01*
X94299261Y-78884437D01*
X94302354Y-78884551D01*
X94314704Y-78885158D01*
X94317790Y-78885348D01*
X94354289Y-78888041D01*
X94357368Y-78888306D01*
X94505522Y-78902898D01*
X94511658Y-78903654D01*
X94584050Y-78914391D01*
X94590141Y-78915448D01*
X94614367Y-78920266D01*
X94620403Y-78921622D01*
X94691442Y-78939415D01*
X94697405Y-78941064D01*
X94887508Y-78998731D01*
X94893382Y-79000672D01*
X94962329Y-79025343D01*
X94968100Y-79027569D01*
X94990920Y-79037022D01*
X94996572Y-79039528D01*
X95062734Y-79070821D01*
X95068257Y-79073601D01*
X95243457Y-79167247D01*
X95248838Y-79170295D01*
X95311631Y-79207932D01*
X95316856Y-79211241D01*
X95337394Y-79224964D01*
X95342450Y-79228525D01*
X95401254Y-79272137D01*
X95406130Y-79275942D01*
X95559694Y-79401969D01*
X95564376Y-79406007D01*
X95618620Y-79455170D01*
X95623099Y-79459436D01*
X95640564Y-79476901D01*
X95644830Y-79481380D01*
X95693993Y-79535624D01*
X95698031Y-79540306D01*
X95824058Y-79693870D01*
X95827863Y-79698746D01*
X95871475Y-79757550D01*
X95875036Y-79762606D01*
X95888759Y-79783144D01*
X95892068Y-79788369D01*
X95929705Y-79851162D01*
X95932753Y-79856543D01*
X96026399Y-80031743D01*
X96029179Y-80037266D01*
X96060472Y-80103428D01*
X96062978Y-80109080D01*
X96072431Y-80131900D01*
X96074657Y-80137671D01*
X96099328Y-80206618D01*
X96101269Y-80212492D01*
X96113752Y-80253645D01*
X96718774Y-79904336D01*
X98714775Y-79904336D01*
X100215776Y-82504144D01*
X102182877Y-81368437D01*
X104178877Y-81368437D01*
X105679878Y-83968246D01*
X107646979Y-82832539D01*
X109642978Y-82832539D01*
X111143979Y-85432348D01*
X113111080Y-84296641D01*
X115107080Y-84296641D01*
X116608081Y-86896449D01*
X118575182Y-85760742D01*
X120571182Y-85760742D01*
X121757429Y-87815381D01*
X121837595Y-87791064D01*
X121843558Y-87789414D01*
X121914603Y-87771620D01*
X121920640Y-87770265D01*
X121944867Y-87765447D01*
X121950959Y-87764390D01*
X122023350Y-87753654D01*
X122029485Y-87752898D01*
X122177640Y-87738307D01*
X122180719Y-87738041D01*
X122217210Y-87735349D01*
X122220294Y-87735160D01*
X122232643Y-87734553D01*
X122235734Y-87734439D01*
X122272359Y-87733539D01*
X122275454Y-87733501D01*
X123158265Y-87733500D01*
X124039283Y-87224844D01*
X126035283Y-87224844D01*
X126586512Y-88179601D01*
X126674693Y-88251969D01*
X126679376Y-88256007D01*
X126733620Y-88305170D01*
X126738099Y-88309436D01*
X126755564Y-88326901D01*
X126759830Y-88331380D01*
X126808993Y-88385624D01*
X126813031Y-88390306D01*
X126939058Y-88543870D01*
X126942863Y-88548746D01*
X126986475Y-88607550D01*
X126990036Y-88612606D01*
X127003759Y-88633144D01*
X127007068Y-88638369D01*
X127044705Y-88701162D01*
X127047753Y-88706543D01*
X127141399Y-88881743D01*
X127144179Y-88887266D01*
X127175472Y-88953428D01*
X127177978Y-88959080D01*
X127187431Y-88981900D01*
X127189657Y-88987671D01*
X127214328Y-89056618D01*
X127216269Y-89062492D01*
X127273936Y-89252595D01*
X127275586Y-89258558D01*
X127293380Y-89329603D01*
X127294735Y-89335640D01*
X127299553Y-89359867D01*
X127300610Y-89365959D01*
X127310687Y-89433907D01*
X127536284Y-89824653D01*
X129503387Y-88688945D01*
X131499385Y-88688945D01*
X133000386Y-91288754D01*
X135600194Y-89787753D01*
X134099193Y-87187944D01*
X131499385Y-88688945D01*
X129503387Y-88688945D01*
X130136093Y-88323652D01*
X128635092Y-85723843D01*
X126035283Y-87224844D01*
X124039283Y-87224844D01*
X124671991Y-86859550D01*
X123170990Y-84259741D01*
X120571182Y-85760742D01*
X118575182Y-85760742D01*
X119207890Y-85395448D01*
X117706889Y-82795640D01*
X115107080Y-84296641D01*
X113111080Y-84296641D01*
X113743788Y-83931347D01*
X112242787Y-81331538D01*
X109642978Y-82832539D01*
X107646979Y-82832539D01*
X108279686Y-82467245D01*
X106778685Y-79867436D01*
X104178877Y-81368437D01*
X102182877Y-81368437D01*
X102815585Y-81003143D01*
X101314584Y-78403335D01*
X98714775Y-79904336D01*
X96718774Y-79904336D01*
X97351483Y-79539042D01*
X95850482Y-76939233D01*
X93250673Y-78440234D01*
X91254674Y-78440234D01*
X91887381Y-78074940D01*
X90386381Y-75475132D01*
X89771500Y-75830135D01*
X89771500Y-79296545D01*
X88773500Y-79296545D01*
X88773500Y-74976133D01*
X91250673Y-74976133D01*
X92751674Y-77575941D01*
X94718775Y-76440234D01*
X96714775Y-76440234D01*
X98215776Y-79040043D01*
X100182877Y-77904336D01*
X102178877Y-77904336D01*
X103679878Y-80504144D01*
X105646979Y-79368437D01*
X107642978Y-79368437D01*
X109143979Y-81968246D01*
X111111080Y-80832539D01*
X113107080Y-80832539D01*
X114608081Y-83432348D01*
X116575182Y-82296641D01*
X118571182Y-82296641D01*
X120072183Y-84896449D01*
X122039284Y-83760742D01*
X124035283Y-83760742D01*
X125536284Y-86360551D01*
X127503385Y-85224844D01*
X129499385Y-85224844D01*
X131000386Y-87824653D01*
X132967488Y-86688945D01*
X134963486Y-86688945D01*
X136464487Y-89288754D01*
X136472500Y-89284128D01*
X136472500Y-85817716D01*
X134963486Y-86688945D01*
X132967488Y-86688945D01*
X133600194Y-86323652D01*
X132099193Y-83723843D01*
X129499385Y-85224844D01*
X127503385Y-85224844D01*
X128136093Y-84859550D01*
X126635092Y-82259741D01*
X124035283Y-83760742D01*
X122039284Y-83760742D01*
X122671991Y-83395448D01*
X121170990Y-80795640D01*
X118571182Y-82296641D01*
X116575182Y-82296641D01*
X117207890Y-81931347D01*
X115706889Y-79331538D01*
X113107080Y-80832539D01*
X111111080Y-80832539D01*
X111743788Y-80467245D01*
X110242787Y-77867436D01*
X107642978Y-79368437D01*
X105646979Y-79368437D01*
X106279686Y-79003143D01*
X104778685Y-76403335D01*
X102178877Y-77904336D01*
X100182877Y-77904336D01*
X100815585Y-77539042D01*
X99314584Y-74939233D01*
X96714775Y-76440234D01*
X94718775Y-76440234D01*
X95351483Y-76074940D01*
X94645213Y-74851646D01*
X94620337Y-74857878D01*
X94614303Y-74859233D01*
X94590077Y-74864052D01*
X94583983Y-74865109D01*
X94511561Y-74875852D01*
X94505423Y-74876609D01*
X94357338Y-74891194D01*
X94354260Y-74891459D01*
X94317762Y-74894152D01*
X94314675Y-74894342D01*
X94302325Y-74894949D01*
X94299232Y-74895063D01*
X94262610Y-74895962D01*
X94259518Y-74896000D01*
X92964000Y-74896000D01*
X92947553Y-74894922D01*
X92754472Y-74869502D01*
X92738306Y-74866286D01*
X92710000Y-74858701D01*
X92681694Y-74866286D01*
X92665528Y-74869502D01*
X92472447Y-74894922D01*
X92456000Y-74896000D01*
X91389468Y-74896000D01*
X91250673Y-74976133D01*
X88773500Y-74976133D01*
X88773500Y-74397376D01*
X95535330Y-74397376D01*
X96215776Y-75575941D01*
X98182877Y-74440234D01*
X100178877Y-74440234D01*
X101679878Y-77040043D01*
X103646979Y-75904336D01*
X105642978Y-75904336D01*
X107143979Y-78504144D01*
X109111080Y-77368437D01*
X111107080Y-77368437D01*
X112608081Y-79968246D01*
X114575182Y-78832539D01*
X116571182Y-78832539D01*
X118072183Y-81432348D01*
X120039284Y-80296641D01*
X122035283Y-80296641D01*
X123536284Y-82896449D01*
X125503385Y-81760742D01*
X127499385Y-81760742D01*
X129000386Y-84360551D01*
X130967487Y-83224844D01*
X132963486Y-83224844D01*
X134464487Y-85824653D01*
X136472500Y-84665326D01*
X136472500Y-83298632D01*
X135563295Y-81723843D01*
X132963486Y-83224844D01*
X130967487Y-83224844D01*
X131600194Y-82859550D01*
X130099193Y-80259741D01*
X127499385Y-81760742D01*
X125503385Y-81760742D01*
X126136093Y-81395448D01*
X124635092Y-78795640D01*
X122035283Y-80296641D01*
X120039284Y-80296641D01*
X120671991Y-79931347D01*
X119170990Y-77331538D01*
X116571182Y-78832539D01*
X114575182Y-78832539D01*
X115207890Y-78467245D01*
X113706889Y-75867436D01*
X111107080Y-77368437D01*
X109111080Y-77368437D01*
X109743788Y-77003143D01*
X108242787Y-74403335D01*
X105642978Y-75904336D01*
X103646979Y-75904336D01*
X104279686Y-75539042D01*
X102778685Y-72939233D01*
X100178877Y-74440234D01*
X98182877Y-74440234D01*
X98815585Y-74074940D01*
X97314584Y-71475132D01*
X96216000Y-72109401D01*
X96216000Y-72136000D01*
X96214922Y-72152447D01*
X96189502Y-72345528D01*
X96186286Y-72361694D01*
X96178701Y-72389999D01*
X96186286Y-72418307D01*
X96189502Y-72434472D01*
X96214922Y-72627553D01*
X96216000Y-72644000D01*
X96216000Y-72939518D01*
X96215962Y-72942610D01*
X96215063Y-72979232D01*
X96214949Y-72982325D01*
X96214342Y-72994675D01*
X96214152Y-72997762D01*
X96211459Y-73034260D01*
X96211194Y-73037338D01*
X96196609Y-73185423D01*
X96195852Y-73191561D01*
X96185109Y-73263983D01*
X96184052Y-73270077D01*
X96179233Y-73294303D01*
X96177878Y-73300337D01*
X96160090Y-73371350D01*
X96158440Y-73377310D01*
X96100801Y-73567318D01*
X96098862Y-73573190D01*
X96074203Y-73642108D01*
X96071977Y-73647877D01*
X96062525Y-73670697D01*
X96060019Y-73676352D01*
X96028714Y-73742541D01*
X96025933Y-73748065D01*
X95932333Y-73923178D01*
X95929284Y-73928560D01*
X95891639Y-73991366D01*
X95888330Y-73996592D01*
X95874607Y-74017129D01*
X95871046Y-74022184D01*
X95827444Y-74080973D01*
X95823640Y-74085847D01*
X95697676Y-74239335D01*
X95693638Y-74244018D01*
X95644474Y-74298263D01*
X95640208Y-74302742D01*
X95622742Y-74320208D01*
X95618263Y-74324474D01*
X95564018Y-74373638D01*
X95559335Y-74377677D01*
X95535330Y-74397376D01*
X88773500Y-74397376D01*
X88773500Y-72936426D01*
X90202000Y-72936426D01*
X90202303Y-72942598D01*
X90215977Y-73081437D01*
X90218383Y-73093531D01*
X90272426Y-73271686D01*
X90277141Y-73283069D01*
X90364904Y-73447261D01*
X90371755Y-73457514D01*
X90489861Y-73601427D01*
X90498572Y-73610138D01*
X90642485Y-73728244D01*
X90652738Y-73735095D01*
X90816930Y-73822858D01*
X90828313Y-73827573D01*
X91006468Y-73881616D01*
X91018562Y-73884022D01*
X91157401Y-73897696D01*
X91163574Y-73898000D01*
X92439410Y-73898000D01*
X92452493Y-73894493D01*
X92456000Y-73881410D01*
X92964000Y-73881410D01*
X92967506Y-73894493D01*
X92980590Y-73898000D01*
X94256426Y-73898000D01*
X94262598Y-73897696D01*
X94401437Y-73884022D01*
X94413531Y-73881616D01*
X94591686Y-73827573D01*
X94603069Y-73822858D01*
X94767261Y-73735095D01*
X94777514Y-73728244D01*
X94921427Y-73610138D01*
X94930138Y-73601427D01*
X95048244Y-73457514D01*
X95055095Y-73447261D01*
X95142858Y-73283069D01*
X95147573Y-73271686D01*
X95201616Y-73093531D01*
X95204022Y-73081437D01*
X95217696Y-72942598D01*
X95218000Y-72936426D01*
X95218000Y-72660590D01*
X95214493Y-72647506D01*
X95201410Y-72644000D01*
X92980590Y-72644000D01*
X92967506Y-72647506D01*
X92964000Y-72660590D01*
X92964000Y-73881410D01*
X92456000Y-73881410D01*
X92456000Y-72660590D01*
X92452493Y-72647506D01*
X92439410Y-72644000D01*
X90218590Y-72644000D01*
X90205506Y-72647506D01*
X90202000Y-72660590D01*
X90202000Y-72936426D01*
X88773500Y-72936426D01*
X88773500Y-72119410D01*
X90202000Y-72119410D01*
X90205506Y-72132493D01*
X90218590Y-72136000D01*
X92439410Y-72136000D01*
X92452493Y-72132493D01*
X92456000Y-72119410D01*
X92964000Y-72119410D01*
X92967506Y-72132493D01*
X92980590Y-72136000D01*
X95201410Y-72136000D01*
X95214493Y-72132493D01*
X95218000Y-72119410D01*
X95218000Y-71843574D01*
X95217696Y-71837401D01*
X95204022Y-71698562D01*
X95201616Y-71686468D01*
X95147573Y-71508313D01*
X95142858Y-71496930D01*
X95055095Y-71332738D01*
X95048244Y-71322485D01*
X94930138Y-71178572D01*
X94921427Y-71169861D01*
X94777514Y-71051755D01*
X94767261Y-71044904D01*
X94603069Y-70957141D01*
X94591686Y-70952426D01*
X94413531Y-70898383D01*
X94401437Y-70895977D01*
X94262598Y-70882303D01*
X94256426Y-70882000D01*
X92980590Y-70882000D01*
X92967506Y-70885506D01*
X92964000Y-70898590D01*
X92964000Y-72119410D01*
X92456000Y-72119410D01*
X92456000Y-70898590D01*
X92452493Y-70885506D01*
X92439410Y-70882000D01*
X91163574Y-70882000D01*
X91157401Y-70882303D01*
X91018562Y-70895977D01*
X91006468Y-70898383D01*
X90828313Y-70952426D01*
X90816930Y-70957141D01*
X90652738Y-71044904D01*
X90642485Y-71051755D01*
X90498572Y-71169861D01*
X90489861Y-71178572D01*
X90371755Y-71322485D01*
X90364904Y-71332738D01*
X90277141Y-71496930D01*
X90272426Y-71508313D01*
X90218383Y-71686468D01*
X90215977Y-71698562D01*
X90202303Y-71837401D01*
X90202000Y-71843574D01*
X90202000Y-72119410D01*
X88773500Y-72119410D01*
X88773500Y-67294571D01*
X89771500Y-67294571D01*
X89771500Y-70058942D01*
X90718776Y-69512031D01*
X92714775Y-69512031D01*
X92931383Y-69887206D01*
X92947554Y-69885078D01*
X92964000Y-69884000D01*
X94259518Y-69884000D01*
X94262610Y-69884038D01*
X94299232Y-69884937D01*
X94302325Y-69885051D01*
X94314675Y-69885658D01*
X94317762Y-69885848D01*
X94354260Y-69888541D01*
X94357338Y-69888806D01*
X94505423Y-69903391D01*
X94511561Y-69904148D01*
X94583983Y-69914891D01*
X94590077Y-69915948D01*
X94614303Y-69920767D01*
X94620337Y-69922122D01*
X94691350Y-69939910D01*
X94697310Y-69941560D01*
X94887318Y-69999199D01*
X94893190Y-70001138D01*
X94962108Y-70025797D01*
X94967877Y-70028023D01*
X94990697Y-70037475D01*
X94996352Y-70039981D01*
X95062541Y-70071286D01*
X95068065Y-70074067D01*
X95243178Y-70167667D01*
X95248560Y-70170716D01*
X95311366Y-70208361D01*
X95316592Y-70211670D01*
X95337129Y-70225393D01*
X95342184Y-70228954D01*
X95400973Y-70272556D01*
X95405847Y-70276360D01*
X95559335Y-70402324D01*
X95564018Y-70406362D01*
X95618263Y-70455526D01*
X95622742Y-70459792D01*
X95640208Y-70477258D01*
X95644474Y-70481737D01*
X95693638Y-70535982D01*
X95697676Y-70540665D01*
X95823640Y-70694153D01*
X95827444Y-70699027D01*
X95871046Y-70757816D01*
X95874607Y-70762871D01*
X95888330Y-70783408D01*
X95891639Y-70788634D01*
X95929284Y-70851440D01*
X95932333Y-70856822D01*
X96025933Y-71031935D01*
X96028714Y-71037459D01*
X96038997Y-71059202D01*
X96182877Y-70976133D01*
X98178877Y-70976133D01*
X99679878Y-73575941D01*
X101646979Y-72440234D01*
X103642978Y-72440234D01*
X105143979Y-75040043D01*
X107111080Y-73904336D01*
X109107080Y-73904336D01*
X110608081Y-76504144D01*
X112575182Y-75368437D01*
X114571182Y-75368437D01*
X116072183Y-77968246D01*
X118039284Y-76832539D01*
X120035283Y-76832539D01*
X121536284Y-79432348D01*
X123503385Y-78296641D01*
X125499385Y-78296641D01*
X127000386Y-80896449D01*
X128967487Y-79760742D01*
X130963486Y-79760742D01*
X132464487Y-82360551D01*
X135064296Y-80859550D01*
X133563295Y-78259741D01*
X130963486Y-79760742D01*
X128967487Y-79760742D01*
X129600194Y-79395448D01*
X128099193Y-76795640D01*
X125499385Y-78296641D01*
X123503385Y-78296641D01*
X124136093Y-77931347D01*
X122635092Y-75331538D01*
X120035283Y-76832539D01*
X118039284Y-76832539D01*
X118671991Y-76467245D01*
X117170990Y-73867436D01*
X114571182Y-75368437D01*
X112575182Y-75368437D01*
X113207890Y-75003143D01*
X111706889Y-72403335D01*
X109107080Y-73904336D01*
X107111080Y-73904336D01*
X107743788Y-73539042D01*
X106242787Y-70939233D01*
X103642978Y-72440234D01*
X101646979Y-72440234D01*
X102279686Y-72074940D01*
X100778685Y-69475132D01*
X98178877Y-70976133D01*
X96182877Y-70976133D01*
X96815585Y-70610839D01*
X95314584Y-68011030D01*
X92714775Y-69512031D01*
X90718776Y-69512031D01*
X91351483Y-69146737D01*
X90569634Y-67792535D01*
X90532493Y-67781269D01*
X90526618Y-67779328D01*
X90457671Y-67754657D01*
X90451900Y-67752431D01*
X90429080Y-67742978D01*
X90423428Y-67740472D01*
X90357266Y-67709179D01*
X90351743Y-67706399D01*
X90176543Y-67612753D01*
X90171162Y-67609705D01*
X90108369Y-67572068D01*
X90103144Y-67568759D01*
X90082606Y-67555036D01*
X90077550Y-67551475D01*
X90024366Y-67512031D01*
X96178877Y-67512031D01*
X97679878Y-70111840D01*
X99646979Y-68976133D01*
X101642978Y-68976133D01*
X103143979Y-71575941D01*
X105111080Y-70440234D01*
X107107080Y-70440234D01*
X108608081Y-73040043D01*
X110575182Y-71904336D01*
X112571182Y-71904336D01*
X114072183Y-74504144D01*
X116039284Y-73368437D01*
X118035283Y-73368437D01*
X119536284Y-75968246D01*
X121503385Y-74832539D01*
X123499385Y-74832539D01*
X125000386Y-77432348D01*
X126967487Y-76296641D01*
X128963486Y-76296641D01*
X130464487Y-78896449D01*
X132431588Y-77760742D01*
X134427588Y-77760742D01*
X135928589Y-80360551D01*
X136472500Y-80046524D01*
X136472500Y-76580112D01*
X134427588Y-77760742D01*
X132431588Y-77760742D01*
X133064296Y-77395448D01*
X131563295Y-74795640D01*
X128963486Y-76296641D01*
X126967487Y-76296641D01*
X127600194Y-75931347D01*
X126099193Y-73331538D01*
X123499385Y-74832539D01*
X121503385Y-74832539D01*
X122136093Y-74467245D01*
X120635092Y-71867436D01*
X118035283Y-73368437D01*
X116039284Y-73368437D01*
X116671991Y-73003143D01*
X115170990Y-70403335D01*
X112571182Y-71904336D01*
X110575182Y-71904336D01*
X111207890Y-71539042D01*
X109706889Y-68939233D01*
X107107080Y-70440234D01*
X105111080Y-70440234D01*
X105743788Y-70074940D01*
X104242787Y-67475132D01*
X101642978Y-68976133D01*
X99646979Y-68976133D01*
X100279686Y-68610839D01*
X98778685Y-66011030D01*
X96178877Y-67512031D01*
X90024366Y-67512031D01*
X90018746Y-67507863D01*
X90013870Y-67504058D01*
X89860306Y-67378031D01*
X89855624Y-67373993D01*
X89801380Y-67324830D01*
X89796901Y-67320564D01*
X89779436Y-67303099D01*
X89775170Y-67298620D01*
X89771500Y-67294571D01*
X88773500Y-67294571D01*
X88773500Y-65936472D01*
X90201500Y-65936472D01*
X90201501Y-65939546D01*
X90201803Y-65942617D01*
X90201804Y-65942628D01*
X90205412Y-65979261D01*
X90216092Y-66087701D01*
X90273759Y-66277804D01*
X90367405Y-66453004D01*
X90371330Y-66457787D01*
X90371331Y-66457788D01*
X90409374Y-66504144D01*
X90493432Y-66606568D01*
X90646996Y-66732595D01*
X90822196Y-66826241D01*
X91012299Y-66883908D01*
X91018460Y-66884514D01*
X91018461Y-66884515D01*
X91038427Y-66886481D01*
X91160453Y-66898500D01*
X94259546Y-66898499D01*
X94407701Y-66883908D01*
X94597804Y-66826241D01*
X94773004Y-66732595D01*
X94926568Y-66606568D01*
X95052595Y-66453004D01*
X95146241Y-66277804D01*
X95203908Y-66087701D01*
X95218500Y-65939547D01*
X95218499Y-64840454D01*
X95203908Y-64692299D01*
X95146241Y-64502196D01*
X95052595Y-64326996D01*
X94926568Y-64173432D01*
X94826971Y-64091695D01*
X94777788Y-64051331D01*
X94777787Y-64051330D01*
X94773004Y-64047405D01*
X94743702Y-64031743D01*
X94603265Y-63956678D01*
X94597804Y-63953759D01*
X94582845Y-63949221D01*
X94413623Y-63897888D01*
X94413619Y-63897887D01*
X94407701Y-63896092D01*
X94401547Y-63895485D01*
X94401538Y-63895484D01*
X94262627Y-63881803D01*
X94262619Y-63881802D01*
X94259547Y-63881500D01*
X94256454Y-63881500D01*
X91163547Y-63881500D01*
X91163526Y-63881500D01*
X91160454Y-63881501D01*
X91157383Y-63881803D01*
X91157371Y-63881804D01*
X91018461Y-63895485D01*
X91018459Y-63895485D01*
X91012299Y-63896092D01*
X91006379Y-63897887D01*
X91006378Y-63897888D01*
X90828119Y-63951962D01*
X90828116Y-63951963D01*
X90822196Y-63953759D01*
X90816738Y-63956676D01*
X90816734Y-63956678D01*
X90652454Y-64044487D01*
X90652449Y-64044490D01*
X90646996Y-64047405D01*
X90642217Y-64051326D01*
X90642211Y-64051331D01*
X90498211Y-64169509D01*
X90498205Y-64169514D01*
X90493432Y-64173432D01*
X90489514Y-64178205D01*
X90489509Y-64178211D01*
X90371331Y-64322211D01*
X90371326Y-64322217D01*
X90367405Y-64326996D01*
X90364490Y-64332449D01*
X90364487Y-64332454D01*
X90277668Y-64494882D01*
X90273759Y-64502196D01*
X90271963Y-64508116D01*
X90271962Y-64508119D01*
X90217888Y-64686376D01*
X90217888Y-64686378D01*
X90216092Y-64692299D01*
X90215486Y-64698450D01*
X90215484Y-64698461D01*
X90201803Y-64837372D01*
X90201500Y-64840453D01*
X90201500Y-64843544D01*
X90201500Y-64843545D01*
X90201500Y-65936452D01*
X90201500Y-65936472D01*
X88773500Y-65936472D01*
X88773500Y-63485429D01*
X89771500Y-63485429D01*
X89775170Y-63481380D01*
X89779436Y-63476901D01*
X89796901Y-63459436D01*
X89801380Y-63455170D01*
X89855624Y-63406007D01*
X89860306Y-63401969D01*
X89968498Y-63313178D01*
X95451502Y-63313178D01*
X95559694Y-63401969D01*
X95564376Y-63406007D01*
X95618620Y-63455170D01*
X95623099Y-63459436D01*
X95640564Y-63476901D01*
X95644830Y-63481380D01*
X95693993Y-63535624D01*
X95698031Y-63540306D01*
X95824058Y-63693870D01*
X95827863Y-63698746D01*
X95871475Y-63757550D01*
X95875036Y-63762606D01*
X95888759Y-63783144D01*
X95892068Y-63788369D01*
X95929705Y-63851162D01*
X95932753Y-63856543D01*
X96026399Y-64031743D01*
X96029179Y-64037266D01*
X96060472Y-64103428D01*
X96062978Y-64109080D01*
X96072431Y-64131900D01*
X96074657Y-64137671D01*
X96099328Y-64206618D01*
X96101269Y-64212492D01*
X96158936Y-64402595D01*
X96160586Y-64408558D01*
X96178380Y-64479603D01*
X96179735Y-64485640D01*
X96184553Y-64509867D01*
X96185610Y-64515959D01*
X96196346Y-64588350D01*
X96197102Y-64594485D01*
X96211693Y-64742640D01*
X96211959Y-64745719D01*
X96214651Y-64782210D01*
X96214840Y-64785294D01*
X96215447Y-64797643D01*
X96215561Y-64800734D01*
X96216461Y-64837358D01*
X96216499Y-64840453D01*
X96216500Y-65939546D01*
X96216462Y-65942638D01*
X96215563Y-65979261D01*
X96215449Y-65982354D01*
X96214842Y-65994704D01*
X96214652Y-65997790D01*
X96211959Y-66034289D01*
X96211694Y-66037368D01*
X96197102Y-66185522D01*
X96196346Y-66191658D01*
X96185609Y-66264050D01*
X96184552Y-66270141D01*
X96179734Y-66294367D01*
X96178378Y-66300403D01*
X96160948Y-66369990D01*
X97646978Y-65512031D01*
X99642978Y-65512031D01*
X101143979Y-68111840D01*
X103111080Y-66976133D01*
X105107080Y-66976133D01*
X106608081Y-69575941D01*
X108575182Y-68440234D01*
X110571182Y-68440234D01*
X112072183Y-71040043D01*
X114039284Y-69904336D01*
X116035283Y-69904336D01*
X117536284Y-72504144D01*
X119503385Y-71368437D01*
X121499385Y-71368437D01*
X123000386Y-73968246D01*
X124967487Y-72832539D01*
X126963486Y-72832539D01*
X128464487Y-75432348D01*
X130431588Y-74296641D01*
X132427588Y-74296641D01*
X133928589Y-76896449D01*
X136472500Y-75427722D01*
X136472500Y-75298630D01*
X135027397Y-72795640D01*
X132427588Y-74296641D01*
X130431588Y-74296641D01*
X131064296Y-73931347D01*
X129563295Y-71331538D01*
X126963486Y-72832539D01*
X124967487Y-72832539D01*
X125600194Y-72467245D01*
X124099193Y-69867436D01*
X121499385Y-71368437D01*
X119503385Y-71368437D01*
X120136093Y-71003143D01*
X118635092Y-68403335D01*
X116035283Y-69904336D01*
X114039284Y-69904336D01*
X114671991Y-69539042D01*
X113170990Y-66939233D01*
X110571182Y-68440234D01*
X108575182Y-68440234D01*
X109207890Y-68074940D01*
X107706889Y-65475132D01*
X105107080Y-66976133D01*
X103111080Y-66976133D01*
X103743788Y-66610839D01*
X102242787Y-64011030D01*
X99642978Y-65512031D01*
X97646978Y-65512031D01*
X98279686Y-65146737D01*
X96778685Y-62546928D01*
X95451502Y-63313178D01*
X89968498Y-63313178D01*
X90013870Y-63275942D01*
X90018746Y-63272137D01*
X90077550Y-63228525D01*
X90082606Y-63224964D01*
X90103144Y-63211241D01*
X90108369Y-63207932D01*
X90171162Y-63170295D01*
X90176543Y-63167247D01*
X90351743Y-63073601D01*
X90357266Y-63070821D01*
X90423428Y-63039528D01*
X90429080Y-63037022D01*
X90451900Y-63027569D01*
X90457671Y-63025343D01*
X90526618Y-63000672D01*
X90532492Y-62998731D01*
X90722595Y-62941064D01*
X90728558Y-62939414D01*
X90799603Y-62921620D01*
X90805640Y-62920265D01*
X90829867Y-62915447D01*
X90835959Y-62914390D01*
X90908350Y-62903654D01*
X90914485Y-62902898D01*
X91062640Y-62888307D01*
X91065719Y-62888041D01*
X91102210Y-62885349D01*
X91105294Y-62885160D01*
X91117643Y-62884553D01*
X91120734Y-62884439D01*
X91157359Y-62883539D01*
X91160454Y-62883501D01*
X92354203Y-62883500D01*
X91314584Y-61082827D01*
X89771500Y-61973728D01*
X89771500Y-63485429D01*
X88773500Y-63485429D01*
X88773500Y-60583828D01*
X92178877Y-60583828D01*
X93506594Y-62883500D01*
X94199729Y-62883500D01*
X95646979Y-62047929D01*
X97642978Y-62047929D01*
X99143979Y-64647738D01*
X101111080Y-63512031D01*
X103107080Y-63512031D01*
X104608081Y-66111840D01*
X106575182Y-64976133D01*
X108571182Y-64976133D01*
X110072183Y-67575941D01*
X112039284Y-66440234D01*
X114035283Y-66440234D01*
X115536284Y-69040043D01*
X117503385Y-67904336D01*
X119499385Y-67904336D01*
X121000386Y-70504144D01*
X122967487Y-69368437D01*
X124963486Y-69368437D01*
X126464487Y-71968246D01*
X128431588Y-70832539D01*
X130427588Y-70832539D01*
X131928589Y-73432348D01*
X134528398Y-71931347D01*
X133027397Y-69331538D01*
X130427588Y-70832539D01*
X128431588Y-70832539D01*
X129064296Y-70467245D01*
X127563295Y-67867436D01*
X124963486Y-69368437D01*
X122967487Y-69368437D01*
X123600194Y-69003143D01*
X122099193Y-66403335D01*
X119499385Y-67904336D01*
X117503385Y-67904336D01*
X118136093Y-67539042D01*
X116635092Y-64939233D01*
X114035283Y-66440234D01*
X112039284Y-66440234D01*
X112671991Y-66074940D01*
X111170990Y-63475132D01*
X108571182Y-64976133D01*
X106575182Y-64976133D01*
X107207890Y-64610839D01*
X105706889Y-62011030D01*
X103107080Y-63512031D01*
X101111080Y-63512031D01*
X101743788Y-63146737D01*
X100242787Y-60546928D01*
X97642978Y-62047929D01*
X95646979Y-62047929D01*
X96279686Y-61682635D01*
X94778685Y-59082827D01*
X92178877Y-60583828D01*
X88773500Y-60583828D01*
X88773500Y-57119726D01*
X90178877Y-57119726D01*
X91679878Y-59719535D01*
X93646979Y-58583828D01*
X95642978Y-58583828D01*
X97143979Y-61183636D01*
X99111080Y-60047929D01*
X101107080Y-60047929D01*
X102608081Y-62647738D01*
X104575182Y-61512031D01*
X106571182Y-61512031D01*
X108072183Y-64111840D01*
X110039284Y-62976133D01*
X112035283Y-62976133D01*
X113536284Y-65575941D01*
X115503385Y-64440234D01*
X117499385Y-64440234D01*
X119000386Y-67040043D01*
X120967487Y-65904336D01*
X122963486Y-65904336D01*
X124464487Y-68504144D01*
X126431588Y-67368437D01*
X128427588Y-67368437D01*
X129928589Y-69968246D01*
X131895690Y-68832539D01*
X133891690Y-68832539D01*
X135392691Y-71432348D01*
X136472500Y-70808920D01*
X136472500Y-67342508D01*
X133891690Y-68832539D01*
X131895690Y-68832539D01*
X132528398Y-68467245D01*
X131027397Y-65867436D01*
X128427588Y-67368437D01*
X126431588Y-67368437D01*
X127064296Y-67003143D01*
X125563295Y-64403335D01*
X122963486Y-65904336D01*
X120967487Y-65904336D01*
X121600194Y-65539042D01*
X120099193Y-62939233D01*
X117499385Y-64440234D01*
X115503385Y-64440234D01*
X116136093Y-64074940D01*
X114635092Y-61475132D01*
X112035283Y-62976133D01*
X110039284Y-62976133D01*
X110671991Y-62610839D01*
X109170990Y-60011030D01*
X106571182Y-61512031D01*
X104575182Y-61512031D01*
X105207890Y-61146737D01*
X103706889Y-58546928D01*
X101107080Y-60047929D01*
X99111080Y-60047929D01*
X99743788Y-59682635D01*
X98242787Y-57082827D01*
X95642978Y-58583828D01*
X93646979Y-58583828D01*
X94279686Y-58218534D01*
X92778685Y-55618725D01*
X90178877Y-57119726D01*
X88773500Y-57119726D01*
X88773500Y-56202535D01*
X89771500Y-56202535D01*
X91646979Y-55119726D01*
X93642978Y-55119726D01*
X95143979Y-57719535D01*
X97111080Y-56583828D01*
X99107080Y-56583828D01*
X100608081Y-59183636D01*
X102575182Y-58047929D01*
X104571182Y-58047929D01*
X106072183Y-60647738D01*
X108039284Y-59512031D01*
X110035283Y-59512031D01*
X111536284Y-62111840D01*
X113503385Y-60976133D01*
X115499385Y-60976133D01*
X117000386Y-63575941D01*
X118967487Y-62440234D01*
X120963486Y-62440234D01*
X122464487Y-65040043D01*
X124431588Y-63904336D01*
X126427588Y-63904336D01*
X127928589Y-66504144D01*
X129895690Y-65368437D01*
X131891690Y-65368437D01*
X133392691Y-67968246D01*
X135992499Y-66467245D01*
X134491498Y-63867436D01*
X131891690Y-65368437D01*
X129895690Y-65368437D01*
X130528398Y-65003143D01*
X129027397Y-62403335D01*
X126427588Y-63904336D01*
X124431588Y-63904336D01*
X125064296Y-63539042D01*
X123563295Y-60939233D01*
X120963486Y-62440234D01*
X118967487Y-62440234D01*
X119600194Y-62074940D01*
X118099193Y-59475132D01*
X115499385Y-60976133D01*
X113503385Y-60976133D01*
X114136093Y-60610839D01*
X112635092Y-58011030D01*
X110035283Y-59512031D01*
X108039284Y-59512031D01*
X108671991Y-59146737D01*
X107170990Y-56546928D01*
X104571182Y-58047929D01*
X102575182Y-58047929D01*
X103207890Y-57682635D01*
X101706889Y-55082827D01*
X99107080Y-56583828D01*
X97111080Y-56583828D01*
X97743788Y-56218534D01*
X96242787Y-53618725D01*
X93642978Y-55119726D01*
X91646979Y-55119726D01*
X92279686Y-54754432D01*
X91086342Y-52687500D01*
X92238733Y-52687500D01*
X93143979Y-54255433D01*
X95111080Y-53119726D01*
X97107080Y-53119726D01*
X98608081Y-55719535D01*
X100575182Y-54583828D01*
X102571182Y-54583828D01*
X104072183Y-57183636D01*
X106039284Y-56047929D01*
X108035283Y-56047929D01*
X109536284Y-58647738D01*
X111503385Y-57512031D01*
X113499385Y-57512031D01*
X115000386Y-60111840D01*
X116967487Y-58976133D01*
X118963486Y-58976133D01*
X120464487Y-61575941D01*
X122431588Y-60440234D01*
X124427588Y-60440234D01*
X125928589Y-63040043D01*
X127895690Y-61904336D01*
X129891690Y-61904336D01*
X131392691Y-64504144D01*
X133992499Y-63003143D01*
X132491498Y-60403335D01*
X129891690Y-61904336D01*
X127895690Y-61904336D01*
X128528398Y-61539042D01*
X127027397Y-58939233D01*
X124427588Y-60440234D01*
X122431588Y-60440234D01*
X123064296Y-60074940D01*
X121563295Y-57475132D01*
X118963486Y-58976133D01*
X116967487Y-58976133D01*
X117600194Y-58610839D01*
X116099193Y-56011030D01*
X113499385Y-57512031D01*
X111503385Y-57512031D01*
X112136093Y-57146737D01*
X110635092Y-54546928D01*
X108035283Y-56047929D01*
X106039284Y-56047929D01*
X106671991Y-55682635D01*
X105170990Y-53082827D01*
X102571182Y-54583828D01*
X100575182Y-54583828D01*
X101207890Y-54218534D01*
X100323947Y-52687500D01*
X106095139Y-52687500D01*
X107536284Y-55183636D01*
X109503385Y-54047929D01*
X111499385Y-54047929D01*
X113000386Y-56647738D01*
X114967487Y-55512031D01*
X116963486Y-55512031D01*
X118464487Y-58111840D01*
X120431588Y-56976133D01*
X122427588Y-56976133D01*
X123928589Y-59575941D01*
X125895690Y-58440234D01*
X127891690Y-58440234D01*
X129392691Y-61040043D01*
X131359792Y-59904336D01*
X133355791Y-59904336D01*
X134856792Y-62504143D01*
X136091269Y-61791417D01*
X136090444Y-61781979D01*
X136090085Y-61776495D01*
X136087246Y-61711478D01*
X136087126Y-61705981D01*
X136087126Y-61684019D01*
X136087246Y-61678522D01*
X136090085Y-61613505D01*
X136090444Y-61608021D01*
X136109819Y-61386558D01*
X136110418Y-61381093D01*
X136118913Y-61316567D01*
X136119749Y-61311133D01*
X136123563Y-61289503D01*
X136124636Y-61284111D01*
X136138722Y-61220574D01*
X136140028Y-61215235D01*
X136197566Y-61000502D01*
X136199105Y-60995224D01*
X136218675Y-60933156D01*
X136220442Y-60927950D01*
X136227954Y-60907311D01*
X136229946Y-60902188D01*
X136254851Y-60842062D01*
X136257065Y-60837030D01*
X136351017Y-60635550D01*
X136353448Y-60630620D01*
X136383501Y-60572888D01*
X136386146Y-60568067D01*
X136397128Y-60549046D01*
X136399981Y-60544346D01*
X136434945Y-60489465D01*
X136437998Y-60484896D01*
X136479936Y-60425000D01*
X136437999Y-60365108D01*
X136434945Y-60360538D01*
X136399980Y-60305655D01*
X136397128Y-60300955D01*
X136386146Y-60281934D01*
X136383502Y-60277113D01*
X136353448Y-60219380D01*
X136351016Y-60214450D01*
X136257064Y-60012969D01*
X136254850Y-60007936D01*
X136229946Y-59947811D01*
X136227954Y-59942689D01*
X136220442Y-59922050D01*
X136218675Y-59916844D01*
X136199105Y-59854776D01*
X136197566Y-59849498D01*
X136140028Y-59634765D01*
X136138722Y-59629426D01*
X136124636Y-59565889D01*
X136123563Y-59560497D01*
X136119749Y-59538867D01*
X136118913Y-59533433D01*
X136110418Y-59468907D01*
X136109819Y-59463442D01*
X136090444Y-59241979D01*
X136090085Y-59236495D01*
X136087246Y-59171478D01*
X136087126Y-59165981D01*
X136087126Y-59144019D01*
X136087246Y-59138522D01*
X136090085Y-59073505D01*
X136090444Y-59068021D01*
X136109819Y-58846558D01*
X136110418Y-58841093D01*
X136118913Y-58776567D01*
X136119749Y-58771133D01*
X136123563Y-58749503D01*
X136124636Y-58744111D01*
X136132324Y-58709430D01*
X135955600Y-58403336D01*
X133355791Y-59904336D01*
X131359792Y-59904336D01*
X131992499Y-59539042D01*
X130491498Y-56939233D01*
X127891690Y-58440234D01*
X125895690Y-58440234D01*
X126528398Y-58074940D01*
X125027397Y-55475132D01*
X122427588Y-56976133D01*
X120431588Y-56976133D01*
X121064296Y-56610839D01*
X119563295Y-54011030D01*
X116963486Y-55512031D01*
X114967487Y-55512031D01*
X115600194Y-55146737D01*
X114180353Y-52687500D01*
X115332743Y-52687500D01*
X116464487Y-54647738D01*
X118431588Y-53512031D01*
X120427588Y-53512031D01*
X121928589Y-56111840D01*
X123895690Y-54976133D01*
X125891690Y-54976133D01*
X127392691Y-57575941D01*
X129359792Y-56440234D01*
X131355791Y-56440234D01*
X132856792Y-59040043D01*
X135456601Y-57539042D01*
X133955600Y-54939233D01*
X131355791Y-56440234D01*
X129359792Y-56440234D01*
X129992499Y-56074940D01*
X128491498Y-53475132D01*
X125891690Y-54976133D01*
X123895690Y-54976133D01*
X124528398Y-54610839D01*
X123417957Y-52687500D01*
X124570348Y-52687500D01*
X125392691Y-54111840D01*
X127359793Y-52976133D01*
X129355791Y-52976133D01*
X130856792Y-55575941D01*
X132823893Y-54440234D01*
X134819893Y-54440234D01*
X136087429Y-56635669D01*
X136087246Y-56631478D01*
X136087126Y-56625981D01*
X136087126Y-56604019D01*
X136087246Y-56598522D01*
X136090085Y-56533505D01*
X136090444Y-56528021D01*
X136109819Y-56306558D01*
X136110418Y-56301093D01*
X136118913Y-56236567D01*
X136119749Y-56231133D01*
X136123563Y-56209503D01*
X136124636Y-56204111D01*
X136138722Y-56140574D01*
X136140028Y-56135235D01*
X136197566Y-55920502D01*
X136199105Y-55915224D01*
X136218675Y-55853156D01*
X136220442Y-55847950D01*
X136227954Y-55827311D01*
X136229946Y-55822188D01*
X136254851Y-55762062D01*
X136257065Y-55757030D01*
X136351017Y-55555550D01*
X136353448Y-55550620D01*
X136383501Y-55492888D01*
X136386146Y-55488067D01*
X136397128Y-55469046D01*
X136399981Y-55464346D01*
X136434945Y-55409465D01*
X136437998Y-55404896D01*
X136479936Y-55345000D01*
X136437999Y-55285108D01*
X136434945Y-55280538D01*
X136399980Y-55225655D01*
X136397128Y-55220955D01*
X136386146Y-55201934D01*
X136383502Y-55197113D01*
X136353448Y-55139380D01*
X136351016Y-55134450D01*
X136257064Y-54932969D01*
X136254850Y-54927936D01*
X136229946Y-54867811D01*
X136227954Y-54862689D01*
X136220442Y-54842050D01*
X136218675Y-54836844D01*
X136199105Y-54774776D01*
X136197566Y-54769498D01*
X136140028Y-54554765D01*
X136138722Y-54549426D01*
X136124636Y-54485889D01*
X136123563Y-54480497D01*
X136119749Y-54458867D01*
X136118913Y-54453433D01*
X136110418Y-54388907D01*
X136109819Y-54383442D01*
X136090444Y-54161979D01*
X136090085Y-54156495D01*
X136087246Y-54091478D01*
X136087126Y-54085981D01*
X136087126Y-54064019D01*
X136087246Y-54058522D01*
X136090085Y-53993505D01*
X136090444Y-53988021D01*
X136109819Y-53766558D01*
X136110418Y-53761093D01*
X136118913Y-53696567D01*
X136119749Y-53691133D01*
X136120018Y-53689606D01*
X134819893Y-54440234D01*
X132823893Y-54440234D01*
X133456601Y-54074940D01*
X132655561Y-52687500D01*
X129855719Y-52687500D01*
X129355791Y-52976133D01*
X127359793Y-52976133D01*
X127859720Y-52687500D01*
X124570348Y-52687500D01*
X123417957Y-52687500D01*
X121855719Y-52687500D01*
X120427588Y-53512031D01*
X118431588Y-53512031D01*
X119064296Y-53146737D01*
X118799155Y-52687500D01*
X115332743Y-52687500D01*
X114180353Y-52687500D01*
X113855718Y-52687500D01*
X111499385Y-54047929D01*
X109503385Y-54047929D01*
X110136093Y-53682635D01*
X109561551Y-52687500D01*
X106095139Y-52687500D01*
X100323947Y-52687500D01*
X97855718Y-52687500D01*
X97107080Y-53119726D01*
X95111080Y-53119726D01*
X95743787Y-52754432D01*
X95705144Y-52687500D01*
X92238733Y-52687500D01*
X91086342Y-52687500D01*
X90456483Y-52687500D01*
X90350491Y-52694446D01*
X90278240Y-52708818D01*
X90208479Y-52732499D01*
X90142401Y-52765086D01*
X90081162Y-52806005D01*
X90001162Y-52876165D01*
X89962322Y-52915008D01*
X89962282Y-52915043D01*
X89771500Y-53105824D01*
X89771501Y-53130006D01*
X89771500Y-53130023D01*
X89771500Y-56202535D01*
X88773500Y-56202535D01*
X88773500Y-53130023D01*
X88773501Y-53130018D01*
X88773500Y-53047363D01*
X88773888Y-53037479D01*
X88783123Y-52920121D01*
X88786216Y-52900592D01*
X88791553Y-52878363D01*
X88812538Y-52790948D01*
X88818643Y-52772161D01*
X88861796Y-52667977D01*
X88870758Y-52650388D01*
X88929685Y-52554225D01*
X88941300Y-52538241D01*
X88970421Y-52504144D01*
X89017686Y-52448802D01*
X89024379Y-52441562D01*
X89256604Y-52209338D01*
X89256611Y-52209334D01*
X89315654Y-52150288D01*
X89321638Y-52144683D01*
X89466102Y-52017988D01*
X89479167Y-52007963D01*
X89635470Y-51903523D01*
X89649726Y-51895291D01*
X89818342Y-51812138D01*
X89833550Y-51805839D01*
X90011571Y-51745408D01*
X90027467Y-51741149D01*
X90211857Y-51704471D01*
X90228174Y-51702323D01*
X90415518Y-51690043D01*
X90419698Y-51689770D01*
X90427939Y-51689500D01*
X141941977Y-51689500D01*
X141941982Y-51689501D01*
X142024635Y-51689500D01*
X142034520Y-51689888D01*
X142091035Y-51694335D01*
X142151878Y-51699123D01*
X142171406Y-51702215D01*
X142281047Y-51728537D01*
X142299841Y-51734644D01*
X142404016Y-51777794D01*
X142421616Y-51786761D01*
X142517766Y-51845680D01*
X142533756Y-51857298D01*
X142619449Y-51930486D01*
X142633425Y-51944462D01*
X142706693Y-52030247D01*
X142718310Y-52046237D01*
X142777224Y-52142376D01*
X142786200Y-52159994D01*
X142829345Y-52264158D01*
X142835455Y-52282962D01*
X142861774Y-52392594D01*
X142864867Y-52412122D01*
X142874111Y-52529593D01*
X142874499Y-52539478D01*
X142874499Y-52598758D01*
X142874499Y-52622018D01*
X142874499Y-52622022D01*
X142874500Y-52622023D01*
X142874500Y-56887741D01*
X142873422Y-56904188D01*
X142865185Y-56966750D01*
X142856672Y-56998521D01*
X142835711Y-57049125D01*
X142819264Y-57077612D01*
X142780822Y-57127710D01*
X142769955Y-57140100D01*
X142713879Y-57196175D01*
X142713877Y-57196179D01*
X142713874Y-57196182D01*
X142619725Y-57290331D01*
X142540200Y-57369856D01*
X142540154Y-57369900D01*
X142484071Y-57425985D01*
X142471680Y-57436851D01*
X142421613Y-57475270D01*
X142393131Y-57491715D01*
X142342520Y-57512679D01*
X142310753Y-57521191D01*
X142248233Y-57529422D01*
X142231788Y-57530500D01*
X142215891Y-57530500D01*
X142165985Y-57520195D01*
X142124241Y-57490966D01*
X142098597Y-57449390D01*
X142098440Y-57448804D01*
X142004488Y-57247324D01*
X141876977Y-57065219D01*
X141719781Y-56908023D01*
X141553130Y-56791332D01*
X141542185Y-56783668D01*
X141542180Y-56783665D01*
X141537677Y-56780512D01*
X141532690Y-56778186D01*
X141532684Y-56778183D01*
X141427626Y-56729193D01*
X141374609Y-56682698D01*
X141354877Y-56614998D01*
X141374610Y-56547298D01*
X141427626Y-56500805D01*
X141537677Y-56449488D01*
X141719781Y-56321977D01*
X141876977Y-56164781D01*
X142004488Y-55982677D01*
X142098440Y-55781196D01*
X142155978Y-55566463D01*
X142175353Y-55345000D01*
X142155978Y-55123537D01*
X142098440Y-54908804D01*
X142004488Y-54707324D01*
X141876977Y-54525219D01*
X141719781Y-54368023D01*
X141562380Y-54257809D01*
X141542185Y-54243668D01*
X141542180Y-54243665D01*
X141537677Y-54240512D01*
X141336196Y-54146560D01*
X141305291Y-54138279D01*
X141126776Y-54090445D01*
X141126769Y-54090443D01*
X141121463Y-54089022D01*
X141115989Y-54088543D01*
X141115983Y-54088542D01*
X140905475Y-54070126D01*
X140900000Y-54069647D01*
X140894525Y-54070126D01*
X140684016Y-54088542D01*
X140684008Y-54088543D01*
X140678537Y-54089022D01*
X140673232Y-54090443D01*
X140673223Y-54090445D01*
X140469114Y-54145137D01*
X140469112Y-54145137D01*
X140463804Y-54146560D01*
X140458827Y-54148880D01*
X140458821Y-54148883D01*
X140267311Y-54238186D01*
X140267306Y-54238188D01*
X140262324Y-54240512D01*
X140257824Y-54243662D01*
X140257815Y-54243668D01*
X140084730Y-54364864D01*
X140084727Y-54364866D01*
X140080219Y-54368023D01*
X140076327Y-54371914D01*
X140076321Y-54371920D01*
X139926920Y-54521321D01*
X139926914Y-54521327D01*
X139923023Y-54525219D01*
X139919866Y-54529727D01*
X139919864Y-54529730D01*
X139798668Y-54702815D01*
X139798662Y-54702824D01*
X139795512Y-54707324D01*
X139793188Y-54712306D01*
X139793186Y-54712311D01*
X139703883Y-54903821D01*
X139703880Y-54903827D01*
X139701560Y-54908804D01*
X139700137Y-54914112D01*
X139700137Y-54914114D01*
X139645445Y-55118223D01*
X139645443Y-55118232D01*
X139644022Y-55123537D01*
X139643543Y-55129008D01*
X139643542Y-55129016D01*
X139629887Y-55285108D01*
X139624647Y-55345000D01*
X139625126Y-55350475D01*
X139643542Y-55560983D01*
X139643543Y-55560989D01*
X139644022Y-55566463D01*
X139645443Y-55571769D01*
X139645445Y-55571776D01*
X139675150Y-55682635D01*
X139701560Y-55781196D01*
X139703882Y-55786176D01*
X139703883Y-55786178D01*
X139720675Y-55822188D01*
X139795512Y-55982677D01*
X139798665Y-55987180D01*
X139798668Y-55987185D01*
X139815365Y-56011030D01*
X139923023Y-56164781D01*
X140080219Y-56321977D01*
X140262323Y-56449488D01*
X140372371Y-56500804D01*
X140372373Y-56500805D01*
X140425390Y-56547300D01*
X140445123Y-56615000D01*
X140425390Y-56682700D01*
X140372373Y-56729195D01*
X140267311Y-56778186D01*
X140267306Y-56778188D01*
X140262324Y-56780512D01*
X140257824Y-56783662D01*
X140257815Y-56783668D01*
X140084730Y-56904864D01*
X140084727Y-56904866D01*
X140080219Y-56908023D01*
X140076327Y-56911914D01*
X140076321Y-56911920D01*
X139926920Y-57061321D01*
X139926914Y-57061327D01*
X139923023Y-57065219D01*
X139919866Y-57069727D01*
X139919864Y-57069730D01*
X139798668Y-57242815D01*
X139798662Y-57242824D01*
X139795512Y-57247324D01*
X139793188Y-57252306D01*
X139793186Y-57252311D01*
X139703883Y-57443821D01*
X139703880Y-57443827D01*
X139701560Y-57448804D01*
X139700137Y-57454112D01*
X139700137Y-57454114D01*
X139645445Y-57658223D01*
X139645443Y-57658232D01*
X139644022Y-57663537D01*
X139643543Y-57669008D01*
X139643542Y-57669016D01*
X139630570Y-57817298D01*
X139624647Y-57885000D01*
X139625126Y-57890475D01*
X139643542Y-58100983D01*
X139643543Y-58100989D01*
X139644022Y-58106463D01*
X139645443Y-58111769D01*
X139645445Y-58111776D01*
X139693279Y-58290291D01*
X139701560Y-58321196D01*
X139703882Y-58326176D01*
X139703883Y-58326178D01*
X139769664Y-58467245D01*
X139795512Y-58522677D01*
X139798665Y-58527180D01*
X139798668Y-58527185D01*
X139857244Y-58610839D01*
X139923023Y-58704781D01*
X140080219Y-58861977D01*
X140181859Y-58933146D01*
X140246390Y-58978332D01*
X140262323Y-58989488D01*
X140370739Y-59040043D01*
X140372373Y-59040805D01*
X140425390Y-59087300D01*
X140445123Y-59155000D01*
X140425390Y-59222700D01*
X140372373Y-59269195D01*
X140267311Y-59318186D01*
X140267306Y-59318188D01*
X140262324Y-59320512D01*
X140257824Y-59323662D01*
X140257815Y-59323668D01*
X140084730Y-59444864D01*
X140084727Y-59444866D01*
X140080219Y-59448023D01*
X140076327Y-59451914D01*
X140076321Y-59451920D01*
X139926920Y-59601321D01*
X139926914Y-59601327D01*
X139923023Y-59605219D01*
X139919866Y-59609727D01*
X139919864Y-59609730D01*
X139798668Y-59782815D01*
X139798662Y-59782824D01*
X139795512Y-59787324D01*
X139793188Y-59792306D01*
X139793186Y-59792311D01*
X139703883Y-59983821D01*
X139703880Y-59983827D01*
X139701560Y-59988804D01*
X139700137Y-59994112D01*
X139700137Y-59994114D01*
X139645445Y-60198223D01*
X139645443Y-60198232D01*
X139644022Y-60203537D01*
X139643543Y-60209008D01*
X139643542Y-60209016D01*
X139629887Y-60365108D01*
X139624647Y-60425000D01*
X139625126Y-60430475D01*
X139643542Y-60640983D01*
X139643543Y-60640989D01*
X139644022Y-60646463D01*
X139645443Y-60651769D01*
X139645445Y-60651776D01*
X139667328Y-60733442D01*
X139701560Y-60861196D01*
X139703882Y-60866176D01*
X139703883Y-60866178D01*
X139720675Y-60902188D01*
X139795512Y-61062677D01*
X139798665Y-61067180D01*
X139798668Y-61067185D01*
X139872794Y-61173046D01*
X139923023Y-61244781D01*
X140080219Y-61401977D01*
X140262323Y-61529488D01*
X140282812Y-61539042D01*
X140372964Y-61581081D01*
X140425981Y-61627576D01*
X140445714Y-61695276D01*
X140425982Y-61762975D01*
X140372965Y-61809470D01*
X140267563Y-61858620D01*
X140258068Y-61864102D01*
X140210698Y-61897270D01*
X140203145Y-61905512D01*
X140209154Y-61914944D01*
X140888270Y-62594060D01*
X140899999Y-62600832D01*
X140911730Y-62594059D01*
X141590846Y-61914942D01*
X141596853Y-61905512D01*
X141589301Y-61897270D01*
X141541934Y-61864103D01*
X141532433Y-61858618D01*
X141427034Y-61809469D01*
X141374017Y-61762974D01*
X141354285Y-61695274D01*
X141374018Y-61627574D01*
X141427034Y-61581081D01*
X141537677Y-61529488D01*
X141719781Y-61401977D01*
X141876977Y-61244781D01*
X142004488Y-61062677D01*
X142098440Y-60861196D01*
X142103834Y-60841064D01*
X143134216Y-60841064D01*
X143784995Y-61968246D01*
X145752096Y-60832539D01*
X147748096Y-60832539D01*
X148331722Y-61843408D01*
X148372161Y-61860159D01*
X148376692Y-61862141D01*
X148429878Y-61886659D01*
X148434330Y-61888818D01*
X148451947Y-61897794D01*
X148456312Y-61900127D01*
X148507428Y-61928753D01*
X148511697Y-61931255D01*
X148729853Y-62064941D01*
X148734022Y-62067610D01*
X148782749Y-62100170D01*
X148786810Y-62103001D01*
X148802805Y-62114623D01*
X148806748Y-62117608D01*
X148852725Y-62153855D01*
X148856547Y-62156992D01*
X149051104Y-62323159D01*
X149054802Y-62326445D01*
X149097816Y-62366206D01*
X149101383Y-62369636D01*
X149115364Y-62383617D01*
X149118794Y-62387184D01*
X149158555Y-62430198D01*
X149161841Y-62433896D01*
X149328008Y-62628453D01*
X149331145Y-62632275D01*
X149367392Y-62678252D01*
X149370377Y-62682195D01*
X149381999Y-62698190D01*
X149384830Y-62702251D01*
X149417390Y-62750978D01*
X149420059Y-62755147D01*
X149553745Y-62973303D01*
X149556247Y-62977572D01*
X149584873Y-63028688D01*
X149587206Y-63033053D01*
X149596182Y-63050670D01*
X149598341Y-63055122D01*
X149622859Y-63108308D01*
X149624841Y-63112839D01*
X149659128Y-63195616D01*
X151848906Y-61931347D01*
X150347905Y-59331538D01*
X147748096Y-60832539D01*
X145752096Y-60832539D01*
X146384804Y-60467245D01*
X145229051Y-58465424D01*
X145110980Y-58653331D01*
X145109057Y-58656297D01*
X145085805Y-58691095D01*
X145083800Y-58694006D01*
X145075623Y-58705530D01*
X145073538Y-58708383D01*
X145048378Y-58741814D01*
X145046214Y-58744608D01*
X144898036Y-58930413D01*
X144895793Y-58933146D01*
X144868786Y-58965127D01*
X144866467Y-58967795D01*
X144857050Y-58978332D01*
X144854658Y-58980935D01*
X144825905Y-59011346D01*
X144823440Y-59013881D01*
X144772700Y-59064615D01*
X144772419Y-59064908D01*
X144441882Y-59395445D01*
X144441884Y-59395444D01*
X144357869Y-59479461D01*
X144355336Y-59481924D01*
X144324936Y-59510666D01*
X144322334Y-59513058D01*
X144311798Y-59522474D01*
X144309129Y-59524792D01*
X144277151Y-59551796D01*
X144274419Y-59554039D01*
X144088613Y-59702218D01*
X144085819Y-59704382D01*
X144052388Y-59729542D01*
X144049535Y-59731627D01*
X144038011Y-59739804D01*
X144035100Y-59741809D01*
X144000302Y-59765061D01*
X143997336Y-59766984D01*
X143796107Y-59893427D01*
X143793088Y-59895265D01*
X143757041Y-59916529D01*
X143753972Y-59918282D01*
X143741605Y-59925117D01*
X143738488Y-59926783D01*
X143701315Y-59945987D01*
X143698153Y-59947565D01*
X143484031Y-60050682D01*
X143480825Y-60052171D01*
X143442619Y-60069267D01*
X143439372Y-60070665D01*
X143426318Y-60076072D01*
X143423035Y-60077378D01*
X143383954Y-60092296D01*
X143380636Y-60093510D01*
X143156316Y-60172005D01*
X143155068Y-60172422D01*
X143169556Y-60338021D01*
X143169915Y-60343505D01*
X143172754Y-60408522D01*
X143172874Y-60414019D01*
X143172874Y-60435981D01*
X143172754Y-60441478D01*
X143169915Y-60506495D01*
X143169556Y-60511979D01*
X143150181Y-60733442D01*
X143149582Y-60738907D01*
X143141087Y-60803433D01*
X143140251Y-60808867D01*
X143136437Y-60830497D01*
X143135364Y-60835889D01*
X143134216Y-60841064D01*
X142103834Y-60841064D01*
X142155978Y-60646463D01*
X142175353Y-60425000D01*
X142155978Y-60203537D01*
X142098440Y-59988804D01*
X142004488Y-59787324D01*
X141876977Y-59605219D01*
X141777744Y-59505986D01*
X141746163Y-59453129D01*
X141743401Y-59391618D01*
X141770117Y-59336141D01*
X141819931Y-59299949D01*
X141880944Y-59291684D01*
X142039073Y-59309501D01*
X142191606Y-59309500D01*
X142239978Y-59309500D01*
X142240000Y-59309503D01*
X142240000Y-59309506D01*
X142355294Y-59309506D01*
X142358829Y-59309506D01*
X142594992Y-59282896D01*
X142826690Y-59230012D01*
X143051010Y-59151517D01*
X143265132Y-59048400D01*
X143466361Y-58921957D01*
X143652167Y-58773778D01*
X143736190Y-58689753D01*
X143746487Y-58679456D01*
X144066727Y-58359216D01*
X144066755Y-58359179D01*
X144066780Y-58359152D01*
X144117775Y-58308161D01*
X144265953Y-58122356D01*
X144392396Y-57921127D01*
X144495512Y-57707007D01*
X144574006Y-57482688D01*
X144600084Y-57368437D01*
X145748096Y-57368437D01*
X147249097Y-59968246D01*
X149216198Y-58832539D01*
X151212198Y-58832539D01*
X152713199Y-61432348D01*
X153941500Y-60723188D01*
X153941500Y-57555827D01*
X153812006Y-57331538D01*
X151212198Y-58832539D01*
X149216198Y-58832539D01*
X149848906Y-58467245D01*
X148347905Y-55867436D01*
X145748096Y-57368437D01*
X144600084Y-57368437D01*
X144626891Y-57250990D01*
X144653500Y-57014828D01*
X144653500Y-56896000D01*
X144653500Y-56808392D01*
X144653500Y-55368437D01*
X149212198Y-55368437D01*
X150713199Y-57968246D01*
X153313007Y-56467245D01*
X151812006Y-53867436D01*
X149212198Y-55368437D01*
X144653500Y-55368437D01*
X144653500Y-52805000D01*
X145619474Y-52805000D01*
X145619862Y-52809930D01*
X145639159Y-53055136D01*
X145639160Y-53055144D01*
X145639548Y-53060070D01*
X145640702Y-53064878D01*
X145640703Y-53064882D01*
X145687482Y-53259730D01*
X145699278Y-53308860D01*
X145701171Y-53313430D01*
X145701172Y-53313433D01*
X145754555Y-53442311D01*
X145797191Y-53545243D01*
X145930877Y-53763399D01*
X146097044Y-53957956D01*
X146291601Y-54124123D01*
X146509757Y-54257809D01*
X146746140Y-54355722D01*
X146994930Y-54415452D01*
X147250000Y-54435526D01*
X147505070Y-54415452D01*
X147753860Y-54355722D01*
X147990243Y-54257809D01*
X148208399Y-54124123D01*
X148402956Y-53957956D01*
X148569123Y-53763399D01*
X148702809Y-53545243D01*
X148800722Y-53308860D01*
X148860452Y-53060070D01*
X148880526Y-52805000D01*
X148860452Y-52549930D01*
X148800722Y-52301140D01*
X148702809Y-52064757D01*
X148569123Y-51846601D01*
X148402956Y-51652044D01*
X148208399Y-51485877D01*
X148117976Y-51430466D01*
X147994463Y-51354777D01*
X147994462Y-51354776D01*
X147990243Y-51352191D01*
X147861433Y-51298836D01*
X147758433Y-51256172D01*
X147758430Y-51256171D01*
X147753860Y-51254278D01*
X147749052Y-51253123D01*
X147749047Y-51253122D01*
X147509882Y-51195703D01*
X147509878Y-51195702D01*
X147505070Y-51194548D01*
X147500144Y-51194160D01*
X147500136Y-51194159D01*
X147254930Y-51174862D01*
X147250000Y-51174474D01*
X147245070Y-51174862D01*
X146999863Y-51194159D01*
X146999853Y-51194160D01*
X146994930Y-51194548D01*
X146990123Y-51195702D01*
X146990117Y-51195703D01*
X146750952Y-51253122D01*
X146750943Y-51253124D01*
X146746140Y-51254278D01*
X146741572Y-51256169D01*
X146741566Y-51256172D01*
X146514331Y-51350296D01*
X146514326Y-51350298D01*
X146509757Y-51352191D01*
X146505542Y-51354773D01*
X146505536Y-51354777D01*
X146295818Y-51483292D01*
X146295810Y-51483297D01*
X146291601Y-51485877D01*
X146287840Y-51489088D01*
X146287836Y-51489092D01*
X146100806Y-51648830D01*
X146100799Y-51648836D01*
X146097044Y-51652044D01*
X146093836Y-51655799D01*
X146093830Y-51655806D01*
X145934092Y-51842836D01*
X145934088Y-51842840D01*
X145930877Y-51846601D01*
X145928297Y-51850810D01*
X145928292Y-51850818D01*
X145799777Y-52060536D01*
X145799773Y-52060542D01*
X145797191Y-52064757D01*
X145795298Y-52069326D01*
X145795296Y-52069331D01*
X145701172Y-52296566D01*
X145701169Y-52296572D01*
X145699278Y-52301140D01*
X145698124Y-52305943D01*
X145698122Y-52305952D01*
X145640703Y-52545117D01*
X145640702Y-52545123D01*
X145639548Y-52549930D01*
X145639160Y-52554853D01*
X145639159Y-52554863D01*
X145625180Y-52732499D01*
X145619474Y-52805000D01*
X144653500Y-52805000D01*
X144653500Y-52487800D01*
X144653494Y-52487745D01*
X144653491Y-52487632D01*
X144653491Y-52441549D01*
X144653492Y-52387074D01*
X144620498Y-52094213D01*
X144607373Y-52036709D01*
X144594151Y-51978776D01*
X144554920Y-51806888D01*
X144457584Y-51528712D01*
X144371664Y-51350296D01*
X144331250Y-51266373D01*
X144331247Y-51266369D01*
X144329714Y-51263184D01*
X144322809Y-51252195D01*
X144233950Y-51110776D01*
X144172918Y-51013643D01*
X144052800Y-50863018D01*
X149015813Y-50863018D01*
X149051104Y-50893159D01*
X149054802Y-50896445D01*
X149097816Y-50936206D01*
X149101383Y-50939636D01*
X149115364Y-50953617D01*
X149118794Y-50957184D01*
X149158555Y-51000198D01*
X149161841Y-51003896D01*
X149328008Y-51198453D01*
X149331145Y-51202275D01*
X149367392Y-51248252D01*
X149370377Y-51252195D01*
X149381999Y-51268190D01*
X149384830Y-51272251D01*
X149417390Y-51320978D01*
X149420059Y-51325147D01*
X149553745Y-51543303D01*
X149556247Y-51547572D01*
X149584873Y-51598688D01*
X149587206Y-51603053D01*
X149596182Y-51620670D01*
X149598341Y-51625122D01*
X149622859Y-51678308D01*
X149624841Y-51682839D01*
X149722754Y-51919222D01*
X149724557Y-51923828D01*
X149744829Y-51978776D01*
X149746450Y-51983451D01*
X149752560Y-52002255D01*
X149753997Y-52006991D01*
X149769898Y-52063373D01*
X149771147Y-52068160D01*
X149830877Y-52316950D01*
X149831937Y-52321781D01*
X149843365Y-52379230D01*
X149844235Y-52384102D01*
X149847328Y-52403630D01*
X149848006Y-52408532D01*
X149854891Y-52466706D01*
X149855376Y-52471629D01*
X149875450Y-52726699D01*
X149875741Y-52731637D01*
X149878041Y-52790166D01*
X149878138Y-52795114D01*
X149878138Y-52814886D01*
X149878041Y-52819834D01*
X149875741Y-52878363D01*
X149875450Y-52883301D01*
X149855376Y-53138371D01*
X149854891Y-53143294D01*
X149848006Y-53201468D01*
X149847328Y-53206370D01*
X149844235Y-53225898D01*
X149843365Y-53230770D01*
X149831937Y-53288219D01*
X149830877Y-53293050D01*
X149771147Y-53541840D01*
X149769898Y-53546627D01*
X149753997Y-53603009D01*
X149752560Y-53607745D01*
X149746450Y-53626549D01*
X149744829Y-53631224D01*
X149724557Y-53686172D01*
X149722754Y-53690778D01*
X149624841Y-53927161D01*
X149622859Y-53931692D01*
X149598341Y-53984878D01*
X149596182Y-53989330D01*
X149592556Y-53996446D01*
X151313007Y-53003143D01*
X149812006Y-50403335D01*
X149015813Y-50863018D01*
X144052800Y-50863018D01*
X143989168Y-50783226D01*
X143946928Y-50740986D01*
X143946920Y-50740977D01*
X143884992Y-50679050D01*
X143884973Y-50679026D01*
X143884977Y-50679023D01*
X143780780Y-50574826D01*
X143550363Y-50391075D01*
X143547373Y-50389196D01*
X143547367Y-50389192D01*
X143303818Y-50236161D01*
X143303808Y-50236155D01*
X143300820Y-50234278D01*
X143297641Y-50232747D01*
X143297630Y-50232741D01*
X143038468Y-50107937D01*
X143035291Y-50106407D01*
X143031974Y-50105246D01*
X143031966Y-50105243D01*
X142760450Y-50010238D01*
X142760445Y-50010236D01*
X142757114Y-50009071D01*
X142753673Y-50008285D01*
X142753664Y-50008283D01*
X142473241Y-49944280D01*
X142473226Y-49944277D01*
X142469789Y-49943493D01*
X142466282Y-49943097D01*
X142466271Y-49943096D01*
X142180440Y-49910894D01*
X142180426Y-49910893D01*
X142176927Y-49910499D01*
X142173390Y-49910499D01*
X142029570Y-49910500D01*
X90424045Y-49910500D01*
X90424000Y-49910494D01*
X90424000Y-49910488D01*
X90259800Y-49910488D01*
X90256728Y-49910790D01*
X90256719Y-49910791D01*
X89936067Y-49942373D01*
X89936063Y-49942373D01*
X89932982Y-49942677D01*
X89929963Y-49943277D01*
X89929946Y-49943280D01*
X89613920Y-50006143D01*
X89613902Y-50006147D01*
X89610893Y-50006746D01*
X89607950Y-50007638D01*
X89607933Y-50007643D01*
X89299607Y-50101174D01*
X89299586Y-50101181D01*
X89296634Y-50102077D01*
X89293787Y-50103256D01*
X89293771Y-50103262D01*
X88996087Y-50226569D01*
X88996073Y-50226575D01*
X88993233Y-50227752D01*
X88990524Y-50229199D01*
X88990507Y-50229208D01*
X88706336Y-50381103D01*
X88706321Y-50381111D01*
X88703612Y-50382560D01*
X88701045Y-50384274D01*
X88701037Y-50384280D01*
X88433145Y-50563283D01*
X88433130Y-50563293D01*
X88430559Y-50565012D01*
X88428167Y-50566975D01*
X88428155Y-50566984D01*
X88179104Y-50771379D01*
X88179090Y-50771391D01*
X88176705Y-50773349D01*
X88174521Y-50775532D01*
X88174510Y-50775543D01*
X88063393Y-50886664D01*
X88063391Y-50886666D01*
X87763044Y-51187011D01*
X87763025Y-51187025D01*
X87763023Y-51187023D01*
X87763004Y-51187041D01*
X87763000Y-51187045D01*
X87661328Y-51288717D01*
X87661319Y-51288726D01*
X87658826Y-51291220D01*
X87656632Y-51293970D01*
X87656625Y-51293979D01*
X87477277Y-51518875D01*
X87477272Y-51518882D01*
X87475075Y-51521637D01*
X87473201Y-51524618D01*
X87473192Y-51524632D01*
X87320161Y-51768181D01*
X87320150Y-51768199D01*
X87318278Y-51771180D01*
X87316750Y-51774351D01*
X87316741Y-51774369D01*
X87191937Y-52033531D01*
X87190407Y-52036709D01*
X87189248Y-52040018D01*
X87189243Y-52040033D01*
X87094238Y-52311549D01*
X87094235Y-52311559D01*
X87093071Y-52314886D01*
X87092286Y-52318321D01*
X87092283Y-52318335D01*
X87028280Y-52598758D01*
X87028276Y-52598776D01*
X87027493Y-52602211D01*
X87027098Y-52605714D01*
X87027096Y-52605728D01*
X86994894Y-52891559D01*
X86994893Y-52891574D01*
X86994499Y-52895073D01*
X85996499Y-52895073D01*
X85996549Y-52891548D01*
X85997722Y-52849725D01*
X85997870Y-52846195D01*
X85998662Y-52832088D01*
X85998910Y-52828562D01*
X86002427Y-52786862D01*
X86002773Y-52783345D01*
X86035767Y-52490483D01*
X86036212Y-52486979D01*
X86042062Y-52445534D01*
X86042605Y-52442038D01*
X86044972Y-52428107D01*
X86045613Y-52424630D01*
X86053776Y-52383595D01*
X86054514Y-52380141D01*
X86120092Y-52092816D01*
X86120926Y-52089385D01*
X86121324Y-52087838D01*
X85314584Y-50690522D01*
X82714775Y-52191523D01*
X76943583Y-52191523D01*
X76386381Y-51226421D01*
X75998500Y-51450365D01*
X75998500Y-54916776D01*
X75000500Y-54916776D01*
X75000500Y-50002596D01*
X75000554Y-50000000D01*
X78394551Y-50000000D01*
X78394939Y-50004930D01*
X78413928Y-50246214D01*
X78413929Y-50246222D01*
X78414317Y-50251148D01*
X78415471Y-50255956D01*
X78415472Y-50255960D01*
X78471971Y-50491298D01*
X78471972Y-50491303D01*
X78473127Y-50496111D01*
X78475020Y-50500681D01*
X78475021Y-50500684D01*
X78553654Y-50690522D01*
X78569534Y-50728859D01*
X78572119Y-50733078D01*
X78572120Y-50733079D01*
X78666238Y-50886666D01*
X78701164Y-50943659D01*
X78864776Y-51135224D01*
X79056341Y-51298836D01*
X79271141Y-51430466D01*
X79503889Y-51526873D01*
X79748852Y-51585683D01*
X79937118Y-51600500D01*
X80060413Y-51600500D01*
X80062882Y-51600500D01*
X80251148Y-51585683D01*
X80496111Y-51526873D01*
X80728859Y-51430466D01*
X80943659Y-51298836D01*
X81135224Y-51135224D01*
X81298836Y-50943659D01*
X81430466Y-50728859D01*
X81526873Y-50496111D01*
X81585683Y-50251148D01*
X81605449Y-50000000D01*
X81585683Y-49748852D01*
X81526873Y-49503889D01*
X81430466Y-49271141D01*
X81298836Y-49056341D01*
X81135224Y-48864776D01*
X80943659Y-48701164D01*
X80796262Y-48610839D01*
X80733079Y-48572120D01*
X80733078Y-48572119D01*
X80728859Y-48569534D01*
X80496111Y-48473127D01*
X80491303Y-48471972D01*
X80491298Y-48471971D01*
X80255960Y-48415472D01*
X80255956Y-48415471D01*
X80251148Y-48414317D01*
X80246222Y-48413929D01*
X80246214Y-48413928D01*
X80065338Y-48399693D01*
X80065330Y-48399692D01*
X80062882Y-48399500D01*
X79937118Y-48399500D01*
X79934670Y-48399692D01*
X79934661Y-48399693D01*
X79753785Y-48413928D01*
X79753775Y-48413929D01*
X79748852Y-48414317D01*
X79744045Y-48415471D01*
X79744039Y-48415472D01*
X79508701Y-48471971D01*
X79508692Y-48471973D01*
X79503889Y-48473127D01*
X79499321Y-48475018D01*
X79499315Y-48475021D01*
X79275715Y-48567639D01*
X79275710Y-48567641D01*
X79271141Y-48569534D01*
X79266926Y-48572116D01*
X79266920Y-48572120D01*
X79060558Y-48698579D01*
X79060550Y-48698584D01*
X79056341Y-48701164D01*
X79052580Y-48704375D01*
X79052576Y-48704379D01*
X78868538Y-48861562D01*
X78868531Y-48861568D01*
X78864776Y-48864776D01*
X78861568Y-48868531D01*
X78861562Y-48868538D01*
X78704379Y-49052576D01*
X78704375Y-49052580D01*
X78701164Y-49056341D01*
X78698584Y-49060550D01*
X78698579Y-49060558D01*
X78572120Y-49266920D01*
X78572116Y-49266926D01*
X78569534Y-49271141D01*
X78567641Y-49275710D01*
X78567639Y-49275715D01*
X78475021Y-49499315D01*
X78475018Y-49499321D01*
X78473127Y-49503889D01*
X78471973Y-49508692D01*
X78471971Y-49508701D01*
X78415472Y-49744039D01*
X78414317Y-49748852D01*
X78413929Y-49753775D01*
X78413928Y-49753785D01*
X78400325Y-49926636D01*
X78394551Y-50000000D01*
X75000554Y-50000000D01*
X75000608Y-49997389D01*
X75000909Y-49990114D01*
X75009496Y-49782477D01*
X75018049Y-49586620D01*
X75018892Y-49576580D01*
X75045486Y-49363234D01*
X75071569Y-49165116D01*
X75073168Y-49155735D01*
X75117062Y-48946395D01*
X75117311Y-48945238D01*
X75137155Y-48855727D01*
X76170050Y-48855727D01*
X76751674Y-49863127D01*
X77458494Y-49455044D01*
X77502701Y-49270912D01*
X77503951Y-49266125D01*
X77519853Y-49209740D01*
X77521289Y-49205004D01*
X77527399Y-49186200D01*
X77529020Y-49181526D01*
X77549291Y-49126579D01*
X77551094Y-49121972D01*
X77647501Y-48889224D01*
X77649484Y-48884692D01*
X77674003Y-48831505D01*
X77676161Y-48827054D01*
X77685137Y-48809437D01*
X77687471Y-48805072D01*
X77716098Y-48753955D01*
X77718599Y-48749686D01*
X77850229Y-48534886D01*
X77852898Y-48530717D01*
X77885457Y-48481991D01*
X77888288Y-48477930D01*
X77899910Y-48461935D01*
X77902895Y-48457992D01*
X77939142Y-48412015D01*
X77942279Y-48408193D01*
X78105891Y-48216628D01*
X78109177Y-48212930D01*
X78148938Y-48169916D01*
X78152368Y-48166349D01*
X78166349Y-48152368D01*
X78169916Y-48148938D01*
X78212930Y-48109177D01*
X78213507Y-48108664D01*
X81786492Y-48108664D01*
X81787070Y-48109177D01*
X81830084Y-48148938D01*
X81833651Y-48152368D01*
X81847632Y-48166349D01*
X81851062Y-48169916D01*
X81890823Y-48212930D01*
X81894109Y-48216628D01*
X82057721Y-48408193D01*
X82060858Y-48412015D01*
X82097105Y-48457992D01*
X82100090Y-48461935D01*
X82111712Y-48477930D01*
X82114543Y-48481991D01*
X82147102Y-48530717D01*
X82149771Y-48534886D01*
X82281401Y-48749686D01*
X82283902Y-48753955D01*
X82312529Y-48805072D01*
X82314863Y-48809437D01*
X82323839Y-48827054D01*
X82325997Y-48831505D01*
X82350516Y-48884692D01*
X82352499Y-48889224D01*
X82448906Y-49121972D01*
X82450709Y-49126579D01*
X82470980Y-49181526D01*
X82472601Y-49186200D01*
X82478711Y-49205004D01*
X82480147Y-49209740D01*
X82496049Y-49266125D01*
X82497299Y-49270912D01*
X82556109Y-49515875D01*
X82557169Y-49520707D01*
X82568596Y-49578153D01*
X82569466Y-49583024D01*
X82572559Y-49602552D01*
X82573237Y-49607454D01*
X82580122Y-49665626D01*
X82580607Y-49670549D01*
X82600373Y-49921697D01*
X82600664Y-49926636D01*
X82602964Y-49985167D01*
X82603061Y-49990114D01*
X82603061Y-50009886D01*
X82602964Y-50014833D01*
X82600664Y-50073364D01*
X82600373Y-50078303D01*
X82580607Y-50329451D01*
X82580122Y-50334374D01*
X82573237Y-50392546D01*
X82572559Y-50397448D01*
X82569466Y-50416976D01*
X82568596Y-50421847D01*
X82557169Y-50479293D01*
X82556109Y-50484125D01*
X82497299Y-50729088D01*
X82496049Y-50733875D01*
X82480147Y-50790260D01*
X82478711Y-50794996D01*
X82472601Y-50813800D01*
X82470980Y-50818474D01*
X82450709Y-50873421D01*
X82448906Y-50878028D01*
X82352499Y-51110776D01*
X82350516Y-51115308D01*
X82325997Y-51168495D01*
X82323839Y-51172946D01*
X82314863Y-51190563D01*
X82312529Y-51194928D01*
X82283902Y-51246045D01*
X82281400Y-51250314D01*
X82244388Y-51310710D01*
X84815585Y-49826229D01*
X83314584Y-47226420D01*
X81786492Y-48108664D01*
X78213507Y-48108664D01*
X78216628Y-48105891D01*
X78408193Y-47942279D01*
X78412015Y-47939142D01*
X78457992Y-47902895D01*
X78461935Y-47899910D01*
X78477930Y-47888288D01*
X78481991Y-47885457D01*
X78530717Y-47852898D01*
X78534886Y-47850229D01*
X78749686Y-47718599D01*
X78753955Y-47716098D01*
X78805072Y-47687471D01*
X78809437Y-47685137D01*
X78827054Y-47676161D01*
X78831505Y-47674003D01*
X78884692Y-47649484D01*
X78889224Y-47647501D01*
X78929307Y-47630898D01*
X78228341Y-46416789D01*
X78198603Y-46431327D01*
X78052675Y-46507293D01*
X77902246Y-46596928D01*
X77763427Y-46685366D01*
X77621002Y-46787055D01*
X77490330Y-46887324D01*
X77356800Y-47000418D01*
X77235389Y-47111670D01*
X77111670Y-47235389D01*
X77000418Y-47356800D01*
X76887324Y-47490330D01*
X76787055Y-47621002D01*
X76685366Y-47763427D01*
X76596928Y-47902246D01*
X76507293Y-48052675D01*
X76431319Y-48198618D01*
X76354393Y-48355972D01*
X76291457Y-48507913D01*
X76227740Y-48671206D01*
X76178345Y-48827864D01*
X76170050Y-48855727D01*
X75137155Y-48855727D01*
X75160667Y-48749673D01*
X75162901Y-48741059D01*
X75223878Y-48536240D01*
X75224346Y-48534715D01*
X75284680Y-48343362D01*
X75287446Y-48335508D01*
X75365035Y-48136663D01*
X75365927Y-48134446D01*
X75442731Y-47949024D01*
X75445909Y-47941979D01*
X75539601Y-47750329D01*
X75540924Y-47747708D01*
X75633643Y-47569596D01*
X75637145Y-47563317D01*
X75746283Y-47380158D01*
X75748167Y-47377102D01*
X75856066Y-47207735D01*
X75859741Y-47202289D01*
X75983625Y-47028778D01*
X75986100Y-47025435D01*
X76108385Y-46866069D01*
X76112141Y-46861412D01*
X76249870Y-46698796D01*
X76253084Y-46695149D01*
X76388767Y-46547076D01*
X76392479Y-46543199D01*
X76543199Y-46392479D01*
X76547076Y-46388767D01*
X76695149Y-46253084D01*
X76698803Y-46249865D01*
X76711224Y-46239345D01*
X76861412Y-46112141D01*
X76866069Y-46108385D01*
X76895549Y-46085764D01*
X79189614Y-46085764D01*
X79949254Y-47401500D01*
X80062882Y-47401500D01*
X80065354Y-47401524D01*
X80094610Y-47402098D01*
X80097079Y-47402171D01*
X80106965Y-47402559D01*
X80109440Y-47402680D01*
X80138715Y-47404406D01*
X80141185Y-47404576D01*
X80329451Y-47419393D01*
X80334374Y-47419878D01*
X80392546Y-47426763D01*
X80397448Y-47427441D01*
X80416976Y-47430534D01*
X80421847Y-47431404D01*
X80479293Y-47442831D01*
X80484125Y-47443891D01*
X80729088Y-47502701D01*
X80733875Y-47503951D01*
X80790260Y-47519853D01*
X80794996Y-47521289D01*
X80803225Y-47523963D01*
X82182876Y-46727421D01*
X84178877Y-46727421D01*
X85679878Y-49327230D01*
X86191673Y-49031745D01*
X145553707Y-49031745D01*
X146316068Y-50352192D01*
X146364223Y-50332246D01*
X146368828Y-50330443D01*
X146423776Y-50310171D01*
X146428451Y-50308550D01*
X146447255Y-50302440D01*
X146451991Y-50301003D01*
X146508373Y-50285102D01*
X146513160Y-50283853D01*
X146761950Y-50224123D01*
X146766781Y-50223063D01*
X146824230Y-50211635D01*
X146829102Y-50210765D01*
X146848630Y-50207672D01*
X146853532Y-50206994D01*
X146911706Y-50200109D01*
X146916629Y-50199624D01*
X147171699Y-50179550D01*
X147176637Y-50179259D01*
X147235166Y-50176959D01*
X147240114Y-50176862D01*
X147259886Y-50176862D01*
X147264834Y-50176959D01*
X147323363Y-50179259D01*
X147328301Y-50179550D01*
X147583371Y-50199624D01*
X147588294Y-50200109D01*
X147646468Y-50206994D01*
X147651370Y-50207672D01*
X147670898Y-50210765D01*
X147675770Y-50211635D01*
X147733219Y-50223063D01*
X147738050Y-50224123D01*
X147986840Y-50283853D01*
X147991627Y-50285102D01*
X148011222Y-50290628D01*
X148680299Y-49904336D01*
X150676299Y-49904336D01*
X152177300Y-52504144D01*
X153941500Y-51485583D01*
X153941500Y-49555827D01*
X153751216Y-49226246D01*
X151850786Y-49226246D01*
X150676299Y-49904336D01*
X148680299Y-49904336D01*
X149313007Y-49539042D01*
X149132414Y-49226246D01*
X147019901Y-49226246D01*
X147019861Y-49226243D01*
X147019845Y-49226245D01*
X146820527Y-49226234D01*
X146817814Y-49226205D01*
X146785678Y-49225511D01*
X146782963Y-49225423D01*
X146772123Y-49224955D01*
X146769416Y-49224809D01*
X146737372Y-49222734D01*
X146734667Y-49222529D01*
X146337310Y-49188194D01*
X146334603Y-49187931D01*
X146302625Y-49184471D01*
X146299931Y-49184150D01*
X146289165Y-49182750D01*
X146286480Y-49182371D01*
X146254715Y-49177543D01*
X146252035Y-49177106D01*
X145859110Y-49108692D01*
X145856444Y-49108199D01*
X145824943Y-49102013D01*
X145822288Y-49101462D01*
X145811681Y-49099141D01*
X145809032Y-49098531D01*
X145777737Y-49090972D01*
X145775100Y-49090305D01*
X145553707Y-49031745D01*
X86191673Y-49031745D01*
X87646979Y-48191523D01*
X89642978Y-48191523D01*
X90067381Y-48926611D01*
X90161979Y-48917294D01*
X90165058Y-48917029D01*
X90201557Y-48914336D01*
X90204643Y-48914146D01*
X90216993Y-48913539D01*
X90220086Y-48913425D01*
X90256708Y-48912526D01*
X90259800Y-48912488D01*
X90424000Y-48912488D01*
X90424185Y-48912500D01*
X93525647Y-48912500D01*
X92242787Y-46690522D01*
X89642978Y-48191523D01*
X87646979Y-48191523D01*
X88279686Y-47826229D01*
X87335888Y-46191523D01*
X93107080Y-46191523D01*
X94608081Y-48791332D01*
X96575184Y-47655624D01*
X98571182Y-47655624D01*
X99296841Y-48912500D01*
X102398211Y-48912500D01*
X102671991Y-48754432D01*
X101170990Y-46154623D01*
X98571182Y-47655624D01*
X96575184Y-47655624D01*
X97207890Y-47290331D01*
X96462051Y-45998500D01*
X102233243Y-45998500D01*
X103536284Y-48255433D01*
X105503385Y-47119726D01*
X107499385Y-47119726D01*
X108534444Y-48912500D01*
X110398212Y-48912500D01*
X110967487Y-48583828D01*
X112963486Y-48583828D01*
X113153246Y-48912500D01*
X116619658Y-48912500D01*
X115563295Y-47082827D01*
X112963486Y-48583828D01*
X110967487Y-48583828D01*
X111600194Y-48218534D01*
X110318456Y-45998500D01*
X111470847Y-45998500D01*
X112464487Y-47719535D01*
X114431588Y-46583828D01*
X116427588Y-46583828D01*
X117772049Y-48912500D01*
X118398211Y-48912500D01*
X119895691Y-48047929D01*
X121891690Y-48047929D01*
X122390851Y-48912500D01*
X125857262Y-48912500D01*
X124491498Y-46546928D01*
X121891690Y-48047929D01*
X119895691Y-48047929D01*
X120528398Y-47682635D01*
X119584599Y-46047929D01*
X125355792Y-46047929D01*
X126856792Y-48647738D01*
X128823893Y-47512031D01*
X130819893Y-47512031D01*
X131628455Y-48912500D01*
X134398213Y-48912500D01*
X136394211Y-48912500D01*
X139713669Y-48912500D01*
X138883803Y-47475132D01*
X136394211Y-48912500D01*
X134398213Y-48912500D01*
X134920703Y-48610839D01*
X133419702Y-46011031D01*
X130819893Y-47512031D01*
X128823893Y-47512031D01*
X129456601Y-47146737D01*
X128793666Y-45998500D01*
X134564858Y-45998500D01*
X135784995Y-48111840D01*
X137752096Y-46976133D01*
X139748096Y-46976133D01*
X140866059Y-48912500D01*
X142029563Y-48912500D01*
X142176920Y-48912499D01*
X142180454Y-48912549D01*
X142222275Y-48913722D01*
X142225805Y-48913870D01*
X142239912Y-48914662D01*
X142243438Y-48914910D01*
X142285138Y-48918427D01*
X142288654Y-48918773D01*
X142371230Y-48928075D01*
X143713300Y-48153231D01*
X143665619Y-48120375D01*
X143663399Y-48118809D01*
X143637308Y-48099988D01*
X143635122Y-48098375D01*
X143626456Y-48091835D01*
X143624307Y-48090177D01*
X143599088Y-48070278D01*
X143596977Y-48068575D01*
X143289262Y-47814839D01*
X143287184Y-47813088D01*
X143262806Y-47792087D01*
X143260767Y-47790291D01*
X143252696Y-47783029D01*
X143250698Y-47781192D01*
X143227288Y-47759198D01*
X143225332Y-47757320D01*
X142940603Y-47478035D01*
X142938687Y-47476115D01*
X142916262Y-47453151D01*
X142914390Y-47451193D01*
X142906979Y-47443270D01*
X142905148Y-47441269D01*
X142883695Y-47417321D01*
X142881902Y-47415276D01*
X142766041Y-47280184D01*
X142712249Y-47222670D01*
X142526891Y-47026367D01*
X142428796Y-46938112D01*
X142279429Y-46807562D01*
X142163460Y-46720050D01*
X142012871Y-46611973D01*
X141885638Y-46532158D01*
X141729373Y-46441285D01*
X141594069Y-46371862D01*
X141430899Y-46296837D01*
X141290182Y-46239345D01*
X141124321Y-46181569D01*
X139748096Y-46976133D01*
X137752096Y-46976133D01*
X138384803Y-46610839D01*
X138031269Y-45998500D01*
X134564858Y-45998500D01*
X128793666Y-45998500D01*
X125441406Y-45998500D01*
X125355792Y-46047929D01*
X119584599Y-46047929D01*
X119556061Y-45998500D01*
X117441407Y-45998500D01*
X116427588Y-46583828D01*
X114431588Y-46583828D01*
X115064296Y-46218534D01*
X114937259Y-45998500D01*
X111470847Y-45998500D01*
X110318456Y-45998500D01*
X109441406Y-45998500D01*
X107499385Y-47119726D01*
X105503385Y-47119726D01*
X106136093Y-46754432D01*
X105699655Y-45998500D01*
X102233243Y-45998500D01*
X96462051Y-45998500D01*
X93441407Y-45998500D01*
X93107080Y-46191523D01*
X87335888Y-46191523D01*
X87224446Y-45998500D01*
X85441406Y-45998500D01*
X84178877Y-46727421D01*
X82182876Y-46727421D01*
X82815584Y-46362127D01*
X82605644Y-45998500D01*
X80020610Y-45998500D01*
X79825414Y-46006572D01*
X79665203Y-46013567D01*
X79490213Y-46035378D01*
X79328169Y-46056713D01*
X79189614Y-46085764D01*
X76895549Y-46085764D01*
X77025435Y-45986100D01*
X77028778Y-45983625D01*
X77202289Y-45859741D01*
X77207735Y-45856066D01*
X77377102Y-45748167D01*
X77380158Y-45746283D01*
X77563323Y-45637141D01*
X77569596Y-45633643D01*
X77747708Y-45540924D01*
X77750329Y-45539601D01*
X77941979Y-45445909D01*
X77949024Y-45442731D01*
X78134446Y-45365927D01*
X78136663Y-45365035D01*
X78335508Y-45287446D01*
X78343362Y-45284680D01*
X78534715Y-45224346D01*
X78536240Y-45223878D01*
X78741059Y-45162901D01*
X78749673Y-45160667D01*
X78945238Y-45117311D01*
X78946395Y-45117062D01*
X79155735Y-45073168D01*
X79165116Y-45071569D01*
X79363234Y-45045486D01*
X79576580Y-45018892D01*
X79586620Y-45018049D01*
X79782375Y-45009501D01*
X79992831Y-45000796D01*
X79997390Y-45000608D01*
X80002596Y-45000500D01*
X139997285Y-45000500D01*
X140002712Y-45000617D01*
G37*
%TD.AperFunction*%
%TD*%
M02*
