%TF.GenerationSoftware,KiCad,Pcbnew,7.0.2*%
%TF.CreationDate,2023-07-19T17:03:31-04:00*%
%TF.ProjectId,ArenaController,4172656e-6143-46f6-9e74-726f6c6c6572,v0.6*%
%TF.SameCoordinates,Original*%
%TF.FileFunction,Legend,Top*%
%TF.FilePolarity,Positive*%
%FSLAX46Y46*%
G04 Gerber Fmt 4.6, Leading zero omitted, Abs format (unit mm)*
G04 Created by KiCad (PCBNEW 7.0.2) date 2023-07-19 17:03:31*
%MOMM*%
%LPD*%
G01*
G04 APERTURE LIST*
%ADD10C,0.300000*%
%ADD11C,0.150000*%
%ADD12C,0.160000*%
%ADD13C,0.120000*%
%ADD14C,0.100000*%
%ADD15C,0.127000*%
G04 APERTURE END LIST*
D10*
G36*
X172789003Y-113351849D02*
G01*
X172826007Y-113388853D01*
X172869428Y-113475694D01*
X172869220Y-113481451D01*
X172870714Y-113483971D01*
X172870714Y-113792857D01*
X172456428Y-113792857D01*
X172456428Y-113478267D01*
X172501135Y-113388852D01*
X172538138Y-113351848D01*
X172627552Y-113307142D01*
X172699589Y-113307142D01*
X172789003Y-113351849D01*
G37*
G36*
X173574717Y-113280420D02*
G01*
X173611722Y-113317425D01*
X173656428Y-113406838D01*
X173656428Y-113792857D01*
X173170714Y-113792857D01*
X173170714Y-113467199D01*
X173223247Y-113309597D01*
X173252425Y-113280419D01*
X173341838Y-113235714D01*
X173485304Y-113235714D01*
X173574717Y-113280420D01*
G37*
G36*
X173574718Y-108851849D02*
G01*
X173611721Y-108888852D01*
X173656428Y-108978266D01*
X173656428Y-109121731D01*
X173611720Y-109211146D01*
X173574716Y-109248150D01*
X173485304Y-109292856D01*
X173127552Y-109292856D01*
X173038137Y-109248148D01*
X173001135Y-109211146D01*
X172956428Y-109121732D01*
X172956427Y-108978267D01*
X173001135Y-108888852D01*
X173038139Y-108851848D01*
X173127552Y-108807142D01*
X173485303Y-108807142D01*
X173574718Y-108851849D01*
G37*
G36*
X174654286Y-114964286D02*
G01*
X171075714Y-114964286D01*
X171075714Y-113459638D01*
X172150998Y-113459638D01*
X172156428Y-113472730D01*
X172156428Y-113932126D01*
X172151686Y-113965106D01*
X172165526Y-113995412D01*
X172174912Y-114027377D01*
X172183537Y-114034851D01*
X172188279Y-114045233D01*
X172216306Y-114063245D01*
X172241485Y-114085062D01*
X172252782Y-114086686D01*
X172262384Y-114092857D01*
X172295697Y-114092857D01*
X172328677Y-114097599D01*
X172339060Y-114092857D01*
X173009983Y-114092857D01*
X173042963Y-114097599D01*
X173053346Y-114092857D01*
X173795697Y-114092857D01*
X173828677Y-114097599D01*
X173858983Y-114083758D01*
X173890948Y-114074373D01*
X173898422Y-114065747D01*
X173908804Y-114061006D01*
X173926816Y-114032978D01*
X173948633Y-114007800D01*
X173950257Y-113996502D01*
X173956428Y-113986901D01*
X173956428Y-113953587D01*
X173961170Y-113920608D01*
X173956428Y-113910224D01*
X173956428Y-113379504D01*
X173960289Y-113343741D01*
X173946581Y-113316326D01*
X173937944Y-113286908D01*
X173927232Y-113277626D01*
X173877574Y-113178310D01*
X173872210Y-113153649D01*
X173842998Y-113124437D01*
X173814833Y-113094158D01*
X173811992Y-113093431D01*
X173782935Y-113064374D01*
X173770047Y-113042675D01*
X173733095Y-113024199D01*
X173696802Y-113004381D01*
X173693877Y-113004590D01*
X173595016Y-112955159D01*
X173564758Y-112935714D01*
X173534107Y-112935714D01*
X173503932Y-112930284D01*
X173490840Y-112935714D01*
X173314504Y-112935714D01*
X173278741Y-112931853D01*
X173251326Y-112945560D01*
X173221908Y-112954198D01*
X173212626Y-112964909D01*
X173113310Y-113014567D01*
X173088649Y-113019932D01*
X173059437Y-113049143D01*
X173029158Y-113077309D01*
X173028431Y-113080149D01*
X172991788Y-113116792D01*
X172987825Y-113119983D01*
X172984333Y-113114104D01*
X172947372Y-113095623D01*
X172911089Y-113075811D01*
X172908165Y-113076020D01*
X172809309Y-113026592D01*
X172779044Y-113007142D01*
X172748391Y-113007142D01*
X172718219Y-113001712D01*
X172705127Y-113007142D01*
X172600217Y-113007142D01*
X172564453Y-113003281D01*
X172537037Y-113016989D01*
X172507622Y-113025626D01*
X172498340Y-113036337D01*
X172399024Y-113085996D01*
X172374362Y-113091362D01*
X172345145Y-113120578D01*
X172314872Y-113148738D01*
X172314145Y-113151578D01*
X172285088Y-113180636D01*
X172263390Y-113193524D01*
X172244915Y-113230473D01*
X172225096Y-113266770D01*
X172225305Y-113269693D01*
X172175878Y-113368547D01*
X172156428Y-113398813D01*
X172156428Y-113429466D01*
X172150998Y-113459638D01*
X171075714Y-113459638D01*
X171075714Y-112465106D01*
X172651686Y-112465106D01*
X172688279Y-112545233D01*
X172762384Y-112592857D01*
X173584066Y-112592857D01*
X173619830Y-112596718D01*
X173647245Y-112583010D01*
X173676662Y-112574373D01*
X173685943Y-112563661D01*
X173767901Y-112522682D01*
X173773730Y-112522888D01*
X173806934Y-112503166D01*
X173821373Y-112495947D01*
X173825407Y-112492194D01*
X173849467Y-112477904D01*
X173857028Y-112462780D01*
X173869413Y-112451261D01*
X173876346Y-112424144D01*
X173936980Y-112302876D01*
X173956428Y-112272615D01*
X173956428Y-112241963D01*
X173961858Y-112211789D01*
X173956428Y-112198696D01*
X173956428Y-112022361D01*
X173960289Y-111986598D01*
X173946581Y-111959183D01*
X173937944Y-111929765D01*
X173927232Y-111920483D01*
X173917453Y-111900926D01*
X173948633Y-111864943D01*
X173961170Y-111777751D01*
X173924577Y-111697624D01*
X173850472Y-111650000D01*
X173701857Y-111650000D01*
X173696801Y-111647239D01*
X173658208Y-111650000D01*
X172784860Y-111650000D01*
X172721908Y-111668484D01*
X172664223Y-111735057D01*
X172651686Y-111822249D01*
X172688279Y-111902376D01*
X172762384Y-111950000D01*
X173601440Y-111950000D01*
X173611721Y-111960281D01*
X173656428Y-112049695D01*
X173656428Y-112193161D01*
X173623196Y-112259624D01*
X173556731Y-112292857D01*
X172784860Y-112292857D01*
X172721908Y-112311341D01*
X172664223Y-112377914D01*
X172651686Y-112465106D01*
X171075714Y-112465106D01*
X171075714Y-111107963D01*
X172151686Y-111107963D01*
X172188279Y-111188090D01*
X172262384Y-111235714D01*
X172656428Y-111235714D01*
X172656428Y-111321567D01*
X172674912Y-111384519D01*
X172741485Y-111442204D01*
X172828677Y-111454741D01*
X172908804Y-111418148D01*
X172956428Y-111344043D01*
X172956428Y-111235714D01*
X173584066Y-111235714D01*
X173619830Y-111239575D01*
X173647245Y-111225867D01*
X173676662Y-111217230D01*
X173685943Y-111206518D01*
X173767901Y-111165539D01*
X173773730Y-111165745D01*
X173806934Y-111146023D01*
X173821373Y-111138804D01*
X173825407Y-111135051D01*
X173849467Y-111120761D01*
X173857028Y-111105637D01*
X173869413Y-111094118D01*
X173876346Y-111067001D01*
X173936980Y-110945733D01*
X173956428Y-110915472D01*
X173956428Y-110884820D01*
X173961858Y-110854646D01*
X173956427Y-110841553D01*
X173956428Y-110707003D01*
X173937944Y-110644051D01*
X173871371Y-110586366D01*
X173784179Y-110573829D01*
X173704052Y-110610422D01*
X173656428Y-110684527D01*
X173656428Y-110836018D01*
X173623196Y-110902481D01*
X173556731Y-110935714D01*
X172956428Y-110935714D01*
X172956428Y-110707003D01*
X172937944Y-110644051D01*
X172871371Y-110586366D01*
X172857605Y-110584386D01*
X172908804Y-110561005D01*
X172956428Y-110486900D01*
X172956428Y-110378571D01*
X173584066Y-110378571D01*
X173619830Y-110382432D01*
X173647245Y-110368724D01*
X173676662Y-110360087D01*
X173685943Y-110349375D01*
X173767901Y-110308396D01*
X173773730Y-110308602D01*
X173806934Y-110288880D01*
X173821373Y-110281661D01*
X173825407Y-110277908D01*
X173849467Y-110263618D01*
X173857028Y-110248494D01*
X173869413Y-110236975D01*
X173876346Y-110209858D01*
X173936980Y-110088590D01*
X173956428Y-110058329D01*
X173956428Y-110027677D01*
X173961858Y-109997503D01*
X173956427Y-109984410D01*
X173956428Y-109849860D01*
X173937944Y-109786908D01*
X173871371Y-109729223D01*
X173784179Y-109716686D01*
X173704052Y-109753279D01*
X173656428Y-109827384D01*
X173656428Y-109978874D01*
X173623196Y-110045338D01*
X173556731Y-110078571D01*
X172956428Y-110078571D01*
X172956428Y-109849860D01*
X172937944Y-109786908D01*
X172871371Y-109729223D01*
X172784179Y-109716686D01*
X172704052Y-109753279D01*
X172656428Y-109827384D01*
X172656428Y-110078571D01*
X172284860Y-110078571D01*
X172221908Y-110097055D01*
X172164223Y-110163628D01*
X172151686Y-110250820D01*
X172188279Y-110330947D01*
X172262384Y-110378571D01*
X172656428Y-110378571D01*
X172656428Y-110464424D01*
X172674912Y-110527376D01*
X172741485Y-110585061D01*
X172755250Y-110587040D01*
X172704052Y-110610422D01*
X172656428Y-110684527D01*
X172656428Y-110935714D01*
X172284860Y-110935714D01*
X172221908Y-110954198D01*
X172164223Y-111020771D01*
X172151686Y-111107963D01*
X171075714Y-111107963D01*
X171075714Y-108959637D01*
X172650998Y-108959637D01*
X172656428Y-108972729D01*
X172656428Y-109149066D01*
X172652567Y-109184830D01*
X172666274Y-109212244D01*
X172674912Y-109241662D01*
X172685624Y-109250944D01*
X172735282Y-109350258D01*
X172740647Y-109374920D01*
X172769853Y-109404126D01*
X172798024Y-109434412D01*
X172800864Y-109435138D01*
X172829919Y-109464194D01*
X172842809Y-109485895D01*
X172879767Y-109504374D01*
X172916053Y-109524188D01*
X172918977Y-109523978D01*
X173017836Y-109573408D01*
X173048098Y-109592856D01*
X173078750Y-109592856D01*
X173108924Y-109598286D01*
X173122016Y-109592856D01*
X173512638Y-109592856D01*
X173548401Y-109596717D01*
X173575815Y-109583009D01*
X173605234Y-109574372D01*
X173614515Y-109563660D01*
X173713831Y-109514002D01*
X173738493Y-109508638D01*
X173767704Y-109479426D01*
X173797984Y-109451261D01*
X173798710Y-109448420D01*
X173827767Y-109419363D01*
X173849467Y-109406475D01*
X173867941Y-109369525D01*
X173887761Y-109333230D01*
X173887551Y-109330305D01*
X173936980Y-109231447D01*
X173956428Y-109201186D01*
X173956428Y-109170534D01*
X173961858Y-109140360D01*
X173956428Y-109127267D01*
X173956428Y-108950932D01*
X173960289Y-108915169D01*
X173946581Y-108887754D01*
X173937944Y-108858336D01*
X173927232Y-108849054D01*
X173877574Y-108749736D01*
X173872209Y-108725076D01*
X173843001Y-108695868D01*
X173814833Y-108665586D01*
X173811992Y-108664859D01*
X173782934Y-108635802D01*
X173770047Y-108614104D01*
X173733097Y-108595629D01*
X173696801Y-108575810D01*
X173693877Y-108576019D01*
X173595023Y-108526592D01*
X173564758Y-108507142D01*
X173534105Y-108507142D01*
X173503933Y-108501712D01*
X173490841Y-108507142D01*
X173100217Y-108507142D01*
X173064453Y-108503281D01*
X173037037Y-108516989D01*
X173007622Y-108525626D01*
X172998340Y-108536337D01*
X172899025Y-108585995D01*
X172874362Y-108591361D01*
X172845131Y-108620591D01*
X172814872Y-108648738D01*
X172814145Y-108651577D01*
X172785088Y-108680635D01*
X172763390Y-108693523D01*
X172744914Y-108730474D01*
X172725096Y-108766768D01*
X172725305Y-108769692D01*
X172675878Y-108868546D01*
X172656428Y-108898812D01*
X172656428Y-108929465D01*
X172650998Y-108959637D01*
X171075714Y-108959637D01*
X171075714Y-107602494D01*
X172650998Y-107602494D01*
X172656428Y-107615586D01*
X172656428Y-107791923D01*
X172652567Y-107827687D01*
X172666274Y-107855101D01*
X172674912Y-107884519D01*
X172685624Y-107893801D01*
X172695402Y-107913357D01*
X172664223Y-107949342D01*
X172651686Y-108036534D01*
X172688279Y-108116661D01*
X172762384Y-108164285D01*
X172910999Y-108164285D01*
X172916053Y-108167045D01*
X172954643Y-108164285D01*
X173827996Y-108164285D01*
X173890948Y-108145801D01*
X173948633Y-108079228D01*
X173961170Y-107992036D01*
X173924577Y-107911909D01*
X173850472Y-107864285D01*
X173011417Y-107864285D01*
X173001135Y-107854003D01*
X172956428Y-107764589D01*
X172956427Y-107621124D01*
X172989660Y-107554659D01*
X173056124Y-107521428D01*
X173827996Y-107521428D01*
X173890948Y-107502944D01*
X173948633Y-107436371D01*
X173961170Y-107349179D01*
X173924577Y-107269052D01*
X173850472Y-107221428D01*
X173028790Y-107221428D01*
X172993027Y-107217567D01*
X172965612Y-107231274D01*
X172936194Y-107239912D01*
X172926912Y-107250623D01*
X172844955Y-107291601D01*
X172839127Y-107291396D01*
X172805922Y-107311118D01*
X172791484Y-107318337D01*
X172787449Y-107322089D01*
X172763390Y-107336380D01*
X172755828Y-107351503D01*
X172743444Y-107363023D01*
X172736510Y-107390139D01*
X172675878Y-107511403D01*
X172656428Y-107541669D01*
X172656428Y-107572322D01*
X172650998Y-107602494D01*
X171075714Y-107602494D01*
X171075714Y-105176787D01*
X172151334Y-105176787D01*
X172151880Y-105178038D01*
X172151686Y-105179391D01*
X172169470Y-105218333D01*
X172186576Y-105257518D01*
X172187711Y-105258274D01*
X172188279Y-105259518D01*
X172224288Y-105282659D01*
X172425151Y-105416568D01*
X172540293Y-105531710D01*
X172610482Y-105672086D01*
X172655167Y-105720126D01*
X172740510Y-105741948D01*
X172824103Y-105714168D01*
X172879406Y-105645604D01*
X172888861Y-105558024D01*
X172806146Y-105392596D01*
X172800781Y-105367934D01*
X172771560Y-105338713D01*
X172743404Y-105308443D01*
X172740563Y-105307716D01*
X172739989Y-105307142D01*
X173656428Y-105307142D01*
X173656428Y-105607281D01*
X173674912Y-105670233D01*
X173741485Y-105727918D01*
X173828677Y-105740455D01*
X173908804Y-105703862D01*
X173956428Y-105629757D01*
X173956428Y-105167872D01*
X173961170Y-105134893D01*
X173956428Y-105124509D01*
X173956428Y-104707002D01*
X173937944Y-104644050D01*
X173871371Y-104586365D01*
X173784179Y-104573828D01*
X173704052Y-104610421D01*
X173656428Y-104684526D01*
X173656428Y-105007142D01*
X172329284Y-105007142D01*
X172309055Y-105000831D01*
X172286145Y-105007142D01*
X172284860Y-105007142D01*
X172265364Y-105012866D01*
X172224130Y-105024225D01*
X172223219Y-105025240D01*
X172221908Y-105025626D01*
X172193894Y-105057955D01*
X172165333Y-105089819D01*
X172165115Y-105091168D01*
X172164223Y-105092199D01*
X172158139Y-105134506D01*
X172151334Y-105176787D01*
X171075714Y-105176787D01*
X171075714Y-103328571D01*
X174654286Y-103328571D01*
X174654286Y-114964286D01*
G37*
X100755071Y-80193428D02*
X99683642Y-80193428D01*
X99683642Y-80193428D02*
X99469357Y-80121999D01*
X99469357Y-80121999D02*
X99326500Y-79979142D01*
X99326500Y-79979142D02*
X99255071Y-79764856D01*
X99255071Y-79764856D02*
X99255071Y-79621999D01*
X99255071Y-81621999D02*
X99255071Y-80907713D01*
X99255071Y-80907713D02*
X100755071Y-80907713D01*
X99397928Y-82979142D02*
X99326500Y-82907714D01*
X99326500Y-82907714D02*
X99255071Y-82693428D01*
X99255071Y-82693428D02*
X99255071Y-82550571D01*
X99255071Y-82550571D02*
X99326500Y-82336285D01*
X99326500Y-82336285D02*
X99469357Y-82193428D01*
X99469357Y-82193428D02*
X99612214Y-82121999D01*
X99612214Y-82121999D02*
X99897928Y-82050571D01*
X99897928Y-82050571D02*
X100112214Y-82050571D01*
X100112214Y-82050571D02*
X100397928Y-82121999D01*
X100397928Y-82121999D02*
X100540785Y-82193428D01*
X100540785Y-82193428D02*
X100683642Y-82336285D01*
X100683642Y-82336285D02*
X100755071Y-82550571D01*
X100755071Y-82550571D02*
X100755071Y-82693428D01*
X100755071Y-82693428D02*
X100683642Y-82907714D01*
X100683642Y-82907714D02*
X100612214Y-82979142D01*
X100755071Y-84050571D02*
X99683642Y-84050571D01*
X99683642Y-84050571D02*
X99469357Y-83979142D01*
X99469357Y-83979142D02*
X99326500Y-83836285D01*
X99326500Y-83836285D02*
X99255071Y-83621999D01*
X99255071Y-83621999D02*
X99255071Y-83479142D01*
X99255071Y-85479142D02*
X99255071Y-84764856D01*
X99255071Y-84764856D02*
X100755071Y-84764856D01*
X99397928Y-86836285D02*
X99326500Y-86764857D01*
X99326500Y-86764857D02*
X99255071Y-86550571D01*
X99255071Y-86550571D02*
X99255071Y-86407714D01*
X99255071Y-86407714D02*
X99326500Y-86193428D01*
X99326500Y-86193428D02*
X99469357Y-86050571D01*
X99469357Y-86050571D02*
X99612214Y-85979142D01*
X99612214Y-85979142D02*
X99897928Y-85907714D01*
X99897928Y-85907714D02*
X100112214Y-85907714D01*
X100112214Y-85907714D02*
X100397928Y-85979142D01*
X100397928Y-85979142D02*
X100540785Y-86050571D01*
X100540785Y-86050571D02*
X100683642Y-86193428D01*
X100683642Y-86193428D02*
X100755071Y-86407714D01*
X100755071Y-86407714D02*
X100755071Y-86550571D01*
X100755071Y-86550571D02*
X100683642Y-86764857D01*
X100683642Y-86764857D02*
X100612214Y-86836285D01*
X100755071Y-87907714D02*
X99683642Y-87907714D01*
X99683642Y-87907714D02*
X99469357Y-87836285D01*
X99469357Y-87836285D02*
X99326500Y-87693428D01*
X99326500Y-87693428D02*
X99255071Y-87479142D01*
X99255071Y-87479142D02*
X99255071Y-87336285D01*
X99255071Y-89336285D02*
X99255071Y-88621999D01*
X99255071Y-88621999D02*
X100755071Y-88621999D01*
X99397928Y-90693428D02*
X99326500Y-90622000D01*
X99326500Y-90622000D02*
X99255071Y-90407714D01*
X99255071Y-90407714D02*
X99255071Y-90264857D01*
X99255071Y-90264857D02*
X99326500Y-90050571D01*
X99326500Y-90050571D02*
X99469357Y-89907714D01*
X99469357Y-89907714D02*
X99612214Y-89836285D01*
X99612214Y-89836285D02*
X99897928Y-89764857D01*
X99897928Y-89764857D02*
X100112214Y-89764857D01*
X100112214Y-89764857D02*
X100397928Y-89836285D01*
X100397928Y-89836285D02*
X100540785Y-89907714D01*
X100540785Y-89907714D02*
X100683642Y-90050571D01*
X100683642Y-90050571D02*
X100755071Y-90264857D01*
X100755071Y-90264857D02*
X100755071Y-90407714D01*
X100755071Y-90407714D02*
X100683642Y-90622000D01*
X100683642Y-90622000D02*
X100612214Y-90693428D01*
X100755071Y-91764857D02*
X99683642Y-91764857D01*
X99683642Y-91764857D02*
X99469357Y-91693428D01*
X99469357Y-91693428D02*
X99326500Y-91550571D01*
X99326500Y-91550571D02*
X99255071Y-91336285D01*
X99255071Y-91336285D02*
X99255071Y-91193428D01*
X99255071Y-93193428D02*
X99255071Y-92479142D01*
X99255071Y-92479142D02*
X100755071Y-92479142D01*
X99397928Y-94550571D02*
X99326500Y-94479143D01*
X99326500Y-94479143D02*
X99255071Y-94264857D01*
X99255071Y-94264857D02*
X99255071Y-94122000D01*
X99255071Y-94122000D02*
X99326500Y-93907714D01*
X99326500Y-93907714D02*
X99469357Y-93764857D01*
X99469357Y-93764857D02*
X99612214Y-93693428D01*
X99612214Y-93693428D02*
X99897928Y-93622000D01*
X99897928Y-93622000D02*
X100112214Y-93622000D01*
X100112214Y-93622000D02*
X100397928Y-93693428D01*
X100397928Y-93693428D02*
X100540785Y-93764857D01*
X100540785Y-93764857D02*
X100683642Y-93907714D01*
X100683642Y-93907714D02*
X100755071Y-94122000D01*
X100755071Y-94122000D02*
X100755071Y-94264857D01*
X100755071Y-94264857D02*
X100683642Y-94479143D01*
X100683642Y-94479143D02*
X100612214Y-94550571D01*
G36*
X96628717Y-66340277D02*
G01*
X96651436Y-66362996D01*
X96681857Y-66423837D01*
X96681857Y-66581285D01*
X96181857Y-66581285D01*
X96181857Y-66423838D01*
X96212279Y-66362994D01*
X96234996Y-66340276D01*
X96295837Y-66309856D01*
X96567875Y-66309856D01*
X96628717Y-66340277D01*
G37*
G36*
X96320054Y-62043088D02*
G01*
X96339000Y-62080980D01*
X96339000Y-62295571D01*
X96181857Y-62295571D01*
X96181857Y-62080981D01*
X96200803Y-62043087D01*
X96238695Y-62024142D01*
X96282161Y-62024142D01*
X96320054Y-62043088D01*
G37*
G36*
X98456429Y-71976999D02*
G01*
X95263571Y-71976999D01*
X95263571Y-69862988D01*
X95875922Y-69862988D01*
X95881857Y-69890269D01*
X95881857Y-70638566D01*
X95900341Y-70701518D01*
X95966914Y-70759203D01*
X96054106Y-70771740D01*
X96134233Y-70735147D01*
X96181857Y-70661042D01*
X96181857Y-70236273D01*
X96605794Y-70660210D01*
X96628353Y-70688230D01*
X96657435Y-70697924D01*
X96684340Y-70712615D01*
X96698475Y-70711604D01*
X96823724Y-70753353D01*
X96844956Y-70766998D01*
X96886269Y-70766998D01*
X96927594Y-70768493D01*
X96930116Y-70766998D01*
X96995209Y-70766998D01*
X97030973Y-70770859D01*
X97058387Y-70757151D01*
X97087805Y-70748514D01*
X97097087Y-70737801D01*
X97167830Y-70702429D01*
X97192492Y-70697065D01*
X97221707Y-70667850D01*
X97251984Y-70639688D01*
X97252710Y-70636847D01*
X97267480Y-70622078D01*
X97289181Y-70609189D01*
X97307662Y-70572225D01*
X97327474Y-70535945D01*
X97327264Y-70533021D01*
X97362411Y-70462729D01*
X97381857Y-70432471D01*
X97381857Y-70401819D01*
X97387287Y-70371645D01*
X97381857Y-70358552D01*
X97381857Y-70110788D01*
X97385718Y-70075025D01*
X97372010Y-70047609D01*
X97363373Y-70018193D01*
X97352661Y-70008911D01*
X97317288Y-69938164D01*
X97311924Y-69913505D01*
X97282712Y-69884293D01*
X97254547Y-69854014D01*
X97251706Y-69853287D01*
X97208386Y-69809967D01*
X97150802Y-69778523D01*
X97062939Y-69784808D01*
X96992419Y-69837597D01*
X96961636Y-69920131D01*
X96980361Y-70006206D01*
X97051436Y-70077281D01*
X97081857Y-70138122D01*
X97081857Y-70353016D01*
X97051435Y-70413859D01*
X97028717Y-70436576D01*
X96967874Y-70466998D01*
X96913343Y-70466998D01*
X96798597Y-70428749D01*
X96164995Y-69795147D01*
X96163373Y-69789621D01*
X96134131Y-69764283D01*
X96122672Y-69752824D01*
X96117897Y-69750216D01*
X96096800Y-69731936D01*
X96079994Y-69729519D01*
X96065088Y-69721380D01*
X96037239Y-69723372D01*
X96009608Y-69719399D01*
X95994160Y-69726453D01*
X95977225Y-69727665D01*
X95954877Y-69744393D01*
X95929481Y-69755992D01*
X95920301Y-69770276D01*
X95906705Y-69780454D01*
X95896947Y-69806615D01*
X95881857Y-69830097D01*
X95881857Y-69847075D01*
X95875922Y-69862988D01*
X95263571Y-69862988D01*
X95263571Y-68576636D01*
X95876427Y-68576636D01*
X95881857Y-68589728D01*
X95881857Y-68695709D01*
X95900341Y-68758661D01*
X95966914Y-68816346D01*
X96054106Y-68828883D01*
X96134233Y-68792290D01*
X96181857Y-68718185D01*
X96181857Y-68595266D01*
X96200803Y-68557372D01*
X96238695Y-68538427D01*
X96681857Y-68538427D01*
X96681857Y-68695709D01*
X96700341Y-68758661D01*
X96766914Y-68816346D01*
X96854106Y-68828883D01*
X96934233Y-68792290D01*
X96981857Y-68718185D01*
X96981857Y-68538427D01*
X97253425Y-68538427D01*
X97316377Y-68519943D01*
X97374062Y-68453370D01*
X97386599Y-68366178D01*
X97350006Y-68286051D01*
X97275901Y-68238427D01*
X96981857Y-68238427D01*
X96981857Y-68195430D01*
X96963373Y-68132478D01*
X96896800Y-68074793D01*
X96809608Y-68062256D01*
X96729481Y-68098849D01*
X96681857Y-68172954D01*
X96681857Y-68238427D01*
X96211360Y-68238427D01*
X96175597Y-68234566D01*
X96148182Y-68248273D01*
X96118765Y-68256911D01*
X96109482Y-68267623D01*
X96056099Y-68294315D01*
X96050271Y-68294110D01*
X96017055Y-68313837D01*
X96002627Y-68321052D01*
X95998596Y-68324800D01*
X95974533Y-68339093D01*
X95966970Y-68354218D01*
X95954587Y-68365737D01*
X95947654Y-68392850D01*
X95901304Y-68485549D01*
X95881857Y-68515811D01*
X95881857Y-68546463D01*
X95876427Y-68576636D01*
X95263571Y-68576636D01*
X95263571Y-67839248D01*
X95877115Y-67839248D01*
X95913708Y-67919375D01*
X95987813Y-67966999D01*
X96652352Y-67966999D01*
X96688116Y-67970860D01*
X96715530Y-67957152D01*
X96744948Y-67948515D01*
X96754230Y-67937802D01*
X96807614Y-67911110D01*
X96813444Y-67911316D01*
X96846657Y-67891588D01*
X96861087Y-67884374D01*
X96865118Y-67880623D01*
X96889181Y-67866332D01*
X96896742Y-67851208D01*
X96909127Y-67839689D01*
X96916061Y-67812572D01*
X96962411Y-67719872D01*
X96981857Y-67689614D01*
X96981857Y-67658962D01*
X96987287Y-67628788D01*
X96981857Y-67615695D01*
X96981857Y-67482216D01*
X96985042Y-67452713D01*
X97253425Y-67452713D01*
X97316377Y-67434229D01*
X97374062Y-67367656D01*
X97386599Y-67280464D01*
X97350006Y-67200337D01*
X97275901Y-67152713D01*
X96755858Y-67152713D01*
X96750802Y-67149952D01*
X96712204Y-67152713D01*
X96010289Y-67152713D01*
X95947337Y-67171197D01*
X95889652Y-67237770D01*
X95877115Y-67324962D01*
X95913708Y-67405089D01*
X95987813Y-67452713D01*
X96653438Y-67452713D01*
X96681857Y-67509551D01*
X96681857Y-67610159D01*
X96662910Y-67648052D01*
X96625017Y-67666999D01*
X96010289Y-67666999D01*
X95947337Y-67685483D01*
X95889652Y-67752056D01*
X95877115Y-67839248D01*
X95263571Y-67839248D01*
X95263571Y-66348066D01*
X95476427Y-66348066D01*
X95481857Y-66361158D01*
X95481857Y-66494637D01*
X95477996Y-66530401D01*
X95491703Y-66557815D01*
X95500341Y-66587233D01*
X95511053Y-66596515D01*
X95546425Y-66667258D01*
X95551790Y-66691920D01*
X95581004Y-66721135D01*
X95609167Y-66751412D01*
X95612007Y-66752138D01*
X95626776Y-66766908D01*
X95639666Y-66788609D01*
X95676629Y-66807090D01*
X95712910Y-66826902D01*
X95715833Y-66826692D01*
X95786125Y-66861839D01*
X95816384Y-66881285D01*
X95847035Y-66881285D01*
X95877210Y-66886715D01*
X95890302Y-66881285D01*
X96070122Y-66881285D01*
X96094509Y-66887521D01*
X96113274Y-66881285D01*
X96772037Y-66881285D01*
X96813444Y-66882745D01*
X96815902Y-66881285D01*
X96853425Y-66881285D01*
X96916377Y-66862801D01*
X96974062Y-66796228D01*
X96986599Y-66709036D01*
X96971816Y-66676666D01*
X96981857Y-66661043D01*
X96981856Y-66630391D01*
X96987287Y-66600217D01*
X96981857Y-66587124D01*
X96981857Y-66396502D01*
X96985718Y-66360739D01*
X96972010Y-66333324D01*
X96963373Y-66303907D01*
X96952660Y-66294624D01*
X96917288Y-66223882D01*
X96911924Y-66199220D01*
X96882703Y-66169999D01*
X96854547Y-66139729D01*
X96851706Y-66139002D01*
X96836937Y-66124233D01*
X96824048Y-66102532D01*
X96787085Y-66084050D01*
X96750802Y-66064238D01*
X96747878Y-66064447D01*
X96677587Y-66029301D01*
X96647329Y-66009856D01*
X96616678Y-66009856D01*
X96586504Y-66004426D01*
X96573412Y-66009856D01*
X96268504Y-66009856D01*
X96232740Y-66005995D01*
X96205324Y-66019702D01*
X96175908Y-66028340D01*
X96166626Y-66039051D01*
X96095878Y-66074425D01*
X96071219Y-66079790D01*
X96042012Y-66108997D01*
X96011729Y-66137166D01*
X96011002Y-66140007D01*
X95996232Y-66154776D01*
X95974533Y-66167665D01*
X95956052Y-66204626D01*
X95936239Y-66240912D01*
X95936448Y-66243834D01*
X95901304Y-66314121D01*
X95881857Y-66344383D01*
X95881857Y-66375035D01*
X95876427Y-66405208D01*
X95881857Y-66418300D01*
X95881857Y-66574294D01*
X95834995Y-66550863D01*
X95812278Y-66528145D01*
X95781857Y-66467302D01*
X95781857Y-66366695D01*
X95832810Y-66264790D01*
X95844430Y-66200217D01*
X95810683Y-66118850D01*
X95738303Y-66068643D01*
X95650270Y-66065539D01*
X95574533Y-66110522D01*
X95501302Y-66256982D01*
X95481857Y-66287241D01*
X95481857Y-66317891D01*
X95476427Y-66348066D01*
X95263571Y-66348066D01*
X95263571Y-65667819D01*
X95877115Y-65667819D01*
X95913708Y-65747946D01*
X95987813Y-65795570D01*
X96853425Y-65795570D01*
X96916377Y-65777086D01*
X96974062Y-65710513D01*
X96974827Y-65705188D01*
X96977934Y-65709339D01*
X96980361Y-65720492D01*
X96992367Y-65732498D01*
X96999422Y-65747946D01*
X97013706Y-65757125D01*
X97023884Y-65770722D01*
X97034580Y-65774711D01*
X97061058Y-65801189D01*
X97081027Y-65827865D01*
X97112248Y-65839509D01*
X97141483Y-65855473D01*
X97152865Y-65854658D01*
X97163561Y-65858648D01*
X97196122Y-65851564D01*
X97229346Y-65849188D01*
X97238481Y-65842349D01*
X97249636Y-65839923D01*
X97273196Y-65816362D01*
X97299865Y-65796399D01*
X97303853Y-65785705D01*
X97310850Y-65778708D01*
X97316377Y-65777086D01*
X97334661Y-65755983D01*
X97357008Y-65739256D01*
X97362941Y-65723346D01*
X97374062Y-65710513D01*
X97376478Y-65693705D01*
X97384617Y-65678801D01*
X97383802Y-65667416D01*
X97387791Y-65656723D01*
X97384181Y-65640131D01*
X97386599Y-65623321D01*
X97379543Y-65607871D01*
X97378332Y-65590938D01*
X97371493Y-65581802D01*
X97369067Y-65570648D01*
X97357060Y-65558641D01*
X97350006Y-65543194D01*
X97335718Y-65534012D01*
X97325543Y-65520419D01*
X97314849Y-65516430D01*
X97288363Y-65489944D01*
X97268400Y-65463276D01*
X97237189Y-65451635D01*
X97207945Y-65435666D01*
X97196558Y-65436480D01*
X97185867Y-65432493D01*
X97153317Y-65439573D01*
X97120082Y-65441951D01*
X97110944Y-65448790D01*
X97099792Y-65451217D01*
X97076237Y-65474771D01*
X97049562Y-65494740D01*
X97045572Y-65505436D01*
X97038577Y-65512431D01*
X97033051Y-65514054D01*
X97014769Y-65535151D01*
X96992419Y-65551883D01*
X96986483Y-65567796D01*
X96975366Y-65580627D01*
X96973386Y-65594390D01*
X96950006Y-65543194D01*
X96875901Y-65495570D01*
X96010289Y-65495570D01*
X95947337Y-65514054D01*
X95889652Y-65580627D01*
X95877115Y-65667819D01*
X95263571Y-65667819D01*
X95263571Y-65205208D01*
X95876427Y-65205208D01*
X95910174Y-65286575D01*
X95982554Y-65336782D01*
X96070587Y-65339887D01*
X96146324Y-65294904D01*
X96200803Y-65185944D01*
X96238695Y-65166999D01*
X97253425Y-65166999D01*
X97316377Y-65148515D01*
X97374062Y-65081942D01*
X97386599Y-64994750D01*
X97350006Y-64914623D01*
X97275901Y-64866999D01*
X96211360Y-64866999D01*
X96175597Y-64863138D01*
X96148182Y-64876845D01*
X96118765Y-64885483D01*
X96109482Y-64896195D01*
X96056099Y-64922887D01*
X96050271Y-64922682D01*
X96017055Y-64942409D01*
X96002627Y-64949624D01*
X95998596Y-64953372D01*
X95974533Y-64967665D01*
X95966970Y-64982790D01*
X95954587Y-64994309D01*
X95947654Y-65021422D01*
X95888048Y-65140635D01*
X95876427Y-65205208D01*
X95263571Y-65205208D01*
X95263571Y-64067819D01*
X95877115Y-64067819D01*
X95913708Y-64147946D01*
X95987813Y-64195570D01*
X96191381Y-64195570D01*
X95924603Y-64395654D01*
X95885331Y-64448212D01*
X95879127Y-64536082D01*
X95921413Y-64613357D01*
X95998763Y-64655503D01*
X96086622Y-64649139D01*
X96474924Y-64357912D01*
X96741042Y-64624030D01*
X96798626Y-64655474D01*
X96886490Y-64649189D01*
X96957009Y-64596400D01*
X96987792Y-64513866D01*
X96969067Y-64427791D01*
X96736846Y-64195570D01*
X97253425Y-64195570D01*
X97316377Y-64177086D01*
X97374062Y-64110513D01*
X97386599Y-64023321D01*
X97350006Y-63943194D01*
X97275901Y-63895570D01*
X96413001Y-63895570D01*
X96407945Y-63892809D01*
X96369347Y-63895570D01*
X96010289Y-63895570D01*
X95947337Y-63914054D01*
X95889652Y-63980627D01*
X95877115Y-64067819D01*
X95263571Y-64067819D01*
X95263571Y-63205208D01*
X95876427Y-63205208D01*
X95881857Y-63218300D01*
X95881857Y-63408923D01*
X95877996Y-63444687D01*
X95891703Y-63472101D01*
X95900341Y-63501519D01*
X95911053Y-63510801D01*
X95964482Y-63617658D01*
X96009167Y-63665698D01*
X96094509Y-63687521D01*
X96178103Y-63659741D01*
X96233406Y-63591177D01*
X96242861Y-63503597D01*
X96181857Y-63381588D01*
X96181857Y-63223838D01*
X96212279Y-63162994D01*
X96234996Y-63140276D01*
X96295837Y-63109856D01*
X96567875Y-63109856D01*
X96628717Y-63140277D01*
X96651436Y-63162996D01*
X96681857Y-63223837D01*
X96681857Y-63381587D01*
X96630904Y-63483494D01*
X96619284Y-63548066D01*
X96653031Y-63629434D01*
X96725411Y-63679641D01*
X96813444Y-63682745D01*
X96889181Y-63637761D01*
X96962411Y-63491301D01*
X96981857Y-63461043D01*
X96981856Y-63430391D01*
X96987287Y-63400217D01*
X96981857Y-63387124D01*
X96981857Y-63196502D01*
X96985718Y-63160739D01*
X96972010Y-63133324D01*
X96963373Y-63103907D01*
X96952660Y-63094624D01*
X96917288Y-63023882D01*
X96911924Y-62999220D01*
X96882703Y-62969999D01*
X96854547Y-62939729D01*
X96851706Y-62939002D01*
X96836937Y-62924233D01*
X96824048Y-62902532D01*
X96787085Y-62884050D01*
X96750802Y-62864238D01*
X96747878Y-62864447D01*
X96677587Y-62829301D01*
X96647329Y-62809856D01*
X96616678Y-62809856D01*
X96586504Y-62804426D01*
X96573412Y-62809856D01*
X96268504Y-62809856D01*
X96232740Y-62805995D01*
X96205324Y-62819702D01*
X96175908Y-62828340D01*
X96166626Y-62839051D01*
X96095878Y-62874425D01*
X96071219Y-62879790D01*
X96042012Y-62908997D01*
X96011729Y-62937166D01*
X96011002Y-62940007D01*
X95996232Y-62954776D01*
X95974533Y-62967665D01*
X95956052Y-63004626D01*
X95936239Y-63040912D01*
X95936448Y-63043834D01*
X95901304Y-63114121D01*
X95881857Y-63144383D01*
X95881857Y-63175035D01*
X95876427Y-63205208D01*
X95263571Y-63205208D01*
X95263571Y-62062352D01*
X95876427Y-62062352D01*
X95881857Y-62075444D01*
X95881857Y-62323209D01*
X95877996Y-62358973D01*
X95889466Y-62381914D01*
X95877115Y-62467820D01*
X95913708Y-62547947D01*
X95987813Y-62595571D01*
X96070122Y-62595571D01*
X96094509Y-62601807D01*
X96113274Y-62595571D01*
X96527267Y-62595571D01*
X96551650Y-62601806D01*
X96570413Y-62595571D01*
X96652352Y-62595571D01*
X96688116Y-62599432D01*
X96715530Y-62585724D01*
X96744948Y-62577087D01*
X96754230Y-62566374D01*
X96807614Y-62539682D01*
X96813444Y-62539888D01*
X96846657Y-62520160D01*
X96861087Y-62512946D01*
X96865118Y-62509195D01*
X96889181Y-62494904D01*
X96896742Y-62479780D01*
X96909127Y-62468261D01*
X96916061Y-62441144D01*
X96962411Y-62348444D01*
X96981857Y-62318186D01*
X96981857Y-62287534D01*
X96987287Y-62257360D01*
X96981857Y-62244267D01*
X96981857Y-62053646D01*
X96985718Y-62017883D01*
X96972010Y-61990467D01*
X96963373Y-61961051D01*
X96952661Y-61951769D01*
X96899233Y-61844912D01*
X96854547Y-61796872D01*
X96769205Y-61775050D01*
X96685611Y-61802830D01*
X96630308Y-61871393D01*
X96620853Y-61958973D01*
X96681857Y-62080980D01*
X96681857Y-62238731D01*
X96662910Y-62276624D01*
X96639000Y-62288579D01*
X96639000Y-62053646D01*
X96642861Y-62017883D01*
X96629153Y-61990467D01*
X96620516Y-61961051D01*
X96609804Y-61951769D01*
X96583111Y-61898383D01*
X96583317Y-61892555D01*
X96563593Y-61859346D01*
X96556376Y-61844912D01*
X96552624Y-61840879D01*
X96538334Y-61816818D01*
X96523208Y-61809255D01*
X96511690Y-61796872D01*
X96484575Y-61789938D01*
X96391873Y-61743587D01*
X96361615Y-61724142D01*
X96330964Y-61724142D01*
X96300790Y-61718712D01*
X96287698Y-61724142D01*
X96211360Y-61724142D01*
X96175597Y-61720281D01*
X96148182Y-61733988D01*
X96118765Y-61742626D01*
X96109482Y-61753338D01*
X96056099Y-61780030D01*
X96050270Y-61779825D01*
X96017051Y-61799554D01*
X96002627Y-61806767D01*
X95998597Y-61810515D01*
X95974533Y-61824808D01*
X95966970Y-61839933D01*
X95954587Y-61851452D01*
X95947654Y-61878565D01*
X95901302Y-61971268D01*
X95881857Y-62001527D01*
X95881857Y-62032177D01*
X95876427Y-62062352D01*
X95263571Y-62062352D01*
X95263571Y-61433780D01*
X95876427Y-61433780D01*
X95881857Y-61446872D01*
X95881857Y-61552853D01*
X95900341Y-61615805D01*
X95966914Y-61673490D01*
X96054106Y-61686027D01*
X96134233Y-61649434D01*
X96181857Y-61575329D01*
X96181857Y-61452410D01*
X96200803Y-61414516D01*
X96238695Y-61395571D01*
X96681857Y-61395571D01*
X96681857Y-61552853D01*
X96700341Y-61615805D01*
X96766914Y-61673490D01*
X96854106Y-61686027D01*
X96934233Y-61649434D01*
X96981857Y-61575329D01*
X96981857Y-61395571D01*
X97253425Y-61395571D01*
X97316377Y-61377087D01*
X97374062Y-61310514D01*
X97386599Y-61223322D01*
X97350006Y-61143195D01*
X97275901Y-61095571D01*
X96981857Y-61095571D01*
X96981857Y-61052574D01*
X96963373Y-60989622D01*
X96896800Y-60931937D01*
X96809608Y-60919400D01*
X96729481Y-60955993D01*
X96681857Y-61030098D01*
X96681857Y-61095571D01*
X96211360Y-61095571D01*
X96175597Y-61091710D01*
X96148182Y-61105417D01*
X96118765Y-61114055D01*
X96109482Y-61124767D01*
X96056099Y-61151459D01*
X96050271Y-61151254D01*
X96017055Y-61170981D01*
X96002627Y-61178196D01*
X95998596Y-61181944D01*
X95974533Y-61196237D01*
X95966970Y-61211362D01*
X95954587Y-61222881D01*
X95947654Y-61249994D01*
X95901304Y-61342693D01*
X95881857Y-61372955D01*
X95881857Y-61403607D01*
X95876427Y-61433780D01*
X95263571Y-61433780D01*
X95263571Y-60530402D01*
X95877996Y-60530402D01*
X95891703Y-60557816D01*
X95900341Y-60587234D01*
X95911053Y-60596516D01*
X95946424Y-60667258D01*
X95951790Y-60691922D01*
X95981010Y-60721142D01*
X96009167Y-60751413D01*
X96012007Y-60752139D01*
X96026777Y-60766909D01*
X96039666Y-60788609D01*
X96076619Y-60807085D01*
X96112911Y-60826903D01*
X96115835Y-60826693D01*
X96186125Y-60861839D01*
X96216384Y-60881285D01*
X96247035Y-60881285D01*
X96277210Y-60886715D01*
X96290302Y-60881285D01*
X96366638Y-60881285D01*
X96402402Y-60885146D01*
X96429816Y-60871438D01*
X96459234Y-60862801D01*
X96468516Y-60852088D01*
X96539258Y-60816717D01*
X96563922Y-60811352D01*
X96593142Y-60782131D01*
X96623413Y-60753975D01*
X96624139Y-60751134D01*
X96638909Y-60736364D01*
X96660609Y-60723476D01*
X96679085Y-60686522D01*
X96698903Y-60650231D01*
X96698693Y-60647306D01*
X96725501Y-60593691D01*
X96738124Y-60581823D01*
X96744811Y-60555071D01*
X96747095Y-60550505D01*
X96750027Y-60534208D01*
X96801954Y-60326500D01*
X96840849Y-60248710D01*
X96863568Y-60225991D01*
X96924409Y-60195571D01*
X96967875Y-60195571D01*
X97028717Y-60225992D01*
X97051436Y-60248711D01*
X97081857Y-60309552D01*
X97081857Y-60535516D01*
X97025591Y-60704312D01*
X97023219Y-60769878D01*
X97068134Y-60845656D01*
X97146887Y-60885122D01*
X97234474Y-60875745D01*
X97303088Y-60820503D01*
X97368212Y-60625132D01*
X97381857Y-60603901D01*
X97381857Y-60562588D01*
X97383352Y-60521264D01*
X97381857Y-60518741D01*
X97381857Y-60282217D01*
X97385718Y-60246454D01*
X97372010Y-60219039D01*
X97363373Y-60189622D01*
X97352660Y-60180339D01*
X97317288Y-60109597D01*
X97311924Y-60084935D01*
X97282703Y-60055714D01*
X97254547Y-60025444D01*
X97251706Y-60024717D01*
X97236937Y-60009948D01*
X97224048Y-59988247D01*
X97187085Y-59969765D01*
X97150802Y-59949953D01*
X97147878Y-59950162D01*
X97077587Y-59915016D01*
X97047329Y-59895571D01*
X97016678Y-59895571D01*
X96986504Y-59890141D01*
X96973412Y-59895571D01*
X96897076Y-59895571D01*
X96861312Y-59891710D01*
X96833896Y-59905417D01*
X96804480Y-59914055D01*
X96795198Y-59924766D01*
X96724451Y-59960139D01*
X96699792Y-59965504D01*
X96670580Y-59994715D01*
X96640301Y-60022881D01*
X96639574Y-60025721D01*
X96624804Y-60040491D01*
X96603104Y-60053380D01*
X96584622Y-60090342D01*
X96564810Y-60126626D01*
X96565019Y-60129549D01*
X96538213Y-60183161D01*
X96525589Y-60195032D01*
X96518900Y-60221787D01*
X96516619Y-60226350D01*
X96513688Y-60242636D01*
X96461758Y-60450356D01*
X96422863Y-60528146D01*
X96400146Y-60550863D01*
X96339303Y-60581285D01*
X96295839Y-60581285D01*
X96234995Y-60550863D01*
X96212278Y-60528146D01*
X96181857Y-60467303D01*
X96181857Y-60241342D01*
X96238123Y-60072544D01*
X96240495Y-60006977D01*
X96195579Y-59931200D01*
X96116826Y-59891734D01*
X96029240Y-59901111D01*
X95960625Y-59956353D01*
X95895501Y-60151724D01*
X95881857Y-60172956D01*
X95881857Y-60214269D01*
X95880362Y-60255594D01*
X95881857Y-60258116D01*
X95881857Y-60494638D01*
X95877996Y-60530402D01*
X95263571Y-60530402D01*
X95263571Y-59195571D01*
X98456429Y-59195571D01*
X98456429Y-71976999D01*
G37*
G36*
X109917860Y-95475849D02*
G01*
X109954864Y-95512853D01*
X109999571Y-95602266D01*
X109999571Y-95745733D01*
X109954864Y-95835145D01*
X109917859Y-95872151D01*
X109828447Y-95916857D01*
X109470695Y-95916857D01*
X109381280Y-95872149D01*
X109344278Y-95835147D01*
X109299571Y-95745733D01*
X109299571Y-95602268D01*
X109344278Y-95512852D01*
X109381281Y-95475849D01*
X109470695Y-95431143D01*
X109828447Y-95431143D01*
X109917860Y-95475849D01*
G37*
G36*
X109785284Y-91256799D02*
G01*
X109732751Y-91414401D01*
X109703573Y-91443579D01*
X109614161Y-91488285D01*
X109470695Y-91488285D01*
X109381280Y-91443577D01*
X109344278Y-91406575D01*
X109299571Y-91317161D01*
X109299571Y-90931142D01*
X109785285Y-90931142D01*
X109785284Y-91256799D01*
G37*
G36*
X110499571Y-91245731D02*
G01*
X110454863Y-91335145D01*
X110417859Y-91372150D01*
X110328447Y-91416857D01*
X110256410Y-91416857D01*
X110166996Y-91372149D01*
X110129992Y-91335145D01*
X110086570Y-91248303D01*
X110086779Y-91242548D01*
X110085285Y-91240027D01*
X110085285Y-90931142D01*
X110499571Y-90931142D01*
X110499571Y-91245731D01*
G37*
G36*
X111880286Y-101395429D02*
G01*
X108301714Y-101395429D01*
X108301714Y-99055704D01*
X108993636Y-99055704D01*
X108999571Y-99082985D01*
X108999571Y-100016997D01*
X109018055Y-100079949D01*
X109084628Y-100137634D01*
X109171820Y-100150171D01*
X109251947Y-100113578D01*
X109299571Y-100039473D01*
X109299571Y-99428988D01*
X109894939Y-100024357D01*
X109917496Y-100052374D01*
X109946574Y-100062066D01*
X109973483Y-100076760D01*
X109987619Y-100075748D01*
X110155725Y-100131784D01*
X110176956Y-100145429D01*
X110218268Y-100145429D01*
X110259593Y-100146924D01*
X110262115Y-100145429D01*
X110355782Y-100145429D01*
X110391545Y-100149290D01*
X110418959Y-100135582D01*
X110448377Y-100126945D01*
X110457659Y-100116232D01*
X110556972Y-100066575D01*
X110581636Y-100061210D01*
X110610856Y-100031989D01*
X110641127Y-100003833D01*
X110641853Y-100000992D01*
X110670909Y-99971936D01*
X110692609Y-99959048D01*
X110711087Y-99922091D01*
X110730902Y-99885804D01*
X110730692Y-99882880D01*
X110780125Y-99784016D01*
X110799571Y-99753758D01*
X110799571Y-99723107D01*
X110805001Y-99692933D01*
X110799571Y-99679840D01*
X110799571Y-99360647D01*
X110803432Y-99324884D01*
X110789724Y-99297468D01*
X110781087Y-99268052D01*
X110770375Y-99258770D01*
X110720716Y-99159452D01*
X110715352Y-99134791D01*
X110686130Y-99105569D01*
X110657975Y-99075301D01*
X110655135Y-99074574D01*
X110597529Y-99016969D01*
X110539945Y-98985525D01*
X110452082Y-98991810D01*
X110381562Y-99044599D01*
X110350779Y-99127133D01*
X110369504Y-99213208D01*
X110454863Y-99298567D01*
X110499571Y-99387982D01*
X110499570Y-99674303D01*
X110454863Y-99763717D01*
X110417859Y-99800722D01*
X110328447Y-99845429D01*
X110245343Y-99845429D01*
X110087741Y-99792895D01*
X109282709Y-98987863D01*
X109281087Y-98982337D01*
X109251845Y-98956999D01*
X109240386Y-98945540D01*
X109235611Y-98942932D01*
X109214514Y-98924652D01*
X109197708Y-98922235D01*
X109182802Y-98914096D01*
X109154953Y-98916088D01*
X109127322Y-98912115D01*
X109111874Y-98919169D01*
X109094939Y-98920381D01*
X109072591Y-98937109D01*
X109047195Y-98948708D01*
X109038015Y-98962992D01*
X109024419Y-98973170D01*
X109014661Y-98999331D01*
X108999571Y-99022813D01*
X108999570Y-99039791D01*
X108993636Y-99055704D01*
X108301714Y-99055704D01*
X108301714Y-97374821D01*
X108994829Y-97374821D01*
X109031422Y-97454948D01*
X109105527Y-97502572D01*
X109927210Y-97502572D01*
X109962973Y-97506433D01*
X109990387Y-97492725D01*
X110019805Y-97484088D01*
X110029087Y-97473375D01*
X110111042Y-97432397D01*
X110116872Y-97432603D01*
X110150090Y-97412873D01*
X110164515Y-97405661D01*
X110168544Y-97401912D01*
X110192609Y-97387620D01*
X110200171Y-97372494D01*
X110212555Y-97360976D01*
X110219487Y-97333862D01*
X110280123Y-97212591D01*
X110299571Y-97182330D01*
X110299571Y-97151677D01*
X110305001Y-97121505D01*
X110299571Y-97108412D01*
X110299571Y-96932074D01*
X110303432Y-96896311D01*
X110289723Y-96868895D01*
X110281087Y-96839480D01*
X110270375Y-96830198D01*
X110260596Y-96810640D01*
X110291776Y-96774657D01*
X110304313Y-96687465D01*
X110267720Y-96607338D01*
X110193615Y-96559714D01*
X110045000Y-96559714D01*
X110039946Y-96556954D01*
X110001356Y-96559714D01*
X109128003Y-96559714D01*
X109065051Y-96578198D01*
X109007366Y-96644771D01*
X108994829Y-96731963D01*
X109031422Y-96812090D01*
X109105527Y-96859714D01*
X109944582Y-96859714D01*
X109954864Y-96869996D01*
X109999571Y-96959409D01*
X109999571Y-97102876D01*
X109966339Y-97169339D01*
X109899875Y-97202572D01*
X109128003Y-97202572D01*
X109065051Y-97221056D01*
X109007366Y-97287629D01*
X108994829Y-97374821D01*
X108301714Y-97374821D01*
X108301714Y-95583638D01*
X108994141Y-95583638D01*
X108999571Y-95596730D01*
X108999571Y-95773067D01*
X108995710Y-95808831D01*
X109009417Y-95836245D01*
X109018055Y-95865663D01*
X109028767Y-95874945D01*
X109078425Y-95974259D01*
X109083790Y-95998921D01*
X109112996Y-96028127D01*
X109141167Y-96058413D01*
X109144007Y-96059139D01*
X109173062Y-96088195D01*
X109185952Y-96109896D01*
X109222910Y-96128375D01*
X109259196Y-96148189D01*
X109262120Y-96147979D01*
X109360979Y-96197409D01*
X109391241Y-96216857D01*
X109421893Y-96216857D01*
X109452067Y-96222287D01*
X109465159Y-96216857D01*
X109855781Y-96216857D01*
X109891544Y-96220718D01*
X109918958Y-96207010D01*
X109948377Y-96198373D01*
X109957658Y-96187661D01*
X110056976Y-96138003D01*
X110081637Y-96132638D01*
X110110840Y-96103433D01*
X110141127Y-96075262D01*
X110141853Y-96072420D01*
X110170906Y-96043366D01*
X110192609Y-96030477D01*
X110211096Y-95993502D01*
X110230903Y-95957230D01*
X110230693Y-95954307D01*
X110280123Y-95855448D01*
X110299571Y-95825187D01*
X110299571Y-95794534D01*
X110305001Y-95764362D01*
X110299571Y-95751269D01*
X110299571Y-95574931D01*
X110303432Y-95539168D01*
X110289723Y-95511752D01*
X110281087Y-95482337D01*
X110270375Y-95473055D01*
X110220716Y-95373740D01*
X110215352Y-95349079D01*
X110186137Y-95319864D01*
X110157975Y-95289587D01*
X110155134Y-95288860D01*
X110126079Y-95259804D01*
X110113190Y-95238104D01*
X110076229Y-95219623D01*
X110039946Y-95199811D01*
X110037022Y-95200020D01*
X109938159Y-95150588D01*
X109907901Y-95131143D01*
X109877250Y-95131143D01*
X109847075Y-95125713D01*
X109833983Y-95131143D01*
X109443361Y-95131143D01*
X109407598Y-95127282D01*
X109380183Y-95140989D01*
X109350765Y-95149627D01*
X109341483Y-95160338D01*
X109242165Y-95209996D01*
X109217505Y-95215362D01*
X109188297Y-95244569D01*
X109158015Y-95272738D01*
X109157288Y-95275578D01*
X109128231Y-95304636D01*
X109106533Y-95317524D01*
X109088058Y-95354473D01*
X109068239Y-95390770D01*
X109068448Y-95393693D01*
X109019021Y-95492547D01*
X108999571Y-95522813D01*
X108999571Y-95553466D01*
X108994141Y-95583638D01*
X108301714Y-95583638D01*
X108301714Y-94726495D01*
X108994141Y-94726495D01*
X108999571Y-94739587D01*
X108999571Y-94874139D01*
X109018055Y-94937091D01*
X109084628Y-94994776D01*
X109171820Y-95007313D01*
X109251947Y-94970720D01*
X109299571Y-94896615D01*
X109299571Y-94745125D01*
X109332803Y-94678659D01*
X109399267Y-94645428D01*
X109999571Y-94645428D01*
X109999571Y-94874139D01*
X110018055Y-94937091D01*
X110084628Y-94994776D01*
X110171820Y-95007313D01*
X110251947Y-94970720D01*
X110299571Y-94896615D01*
X110299571Y-94645428D01*
X110671139Y-94645428D01*
X110734091Y-94626944D01*
X110791776Y-94560371D01*
X110804313Y-94473179D01*
X110767720Y-94393052D01*
X110693615Y-94345428D01*
X110299571Y-94345428D01*
X110299571Y-94259575D01*
X110281087Y-94196623D01*
X110214514Y-94138938D01*
X110200748Y-94136958D01*
X110251947Y-94113577D01*
X110299571Y-94039472D01*
X110299571Y-93788285D01*
X110671139Y-93788285D01*
X110734091Y-93769801D01*
X110791776Y-93703228D01*
X110804313Y-93616036D01*
X110767720Y-93535909D01*
X110693615Y-93488285D01*
X110299571Y-93488285D01*
X110299571Y-93402432D01*
X110281087Y-93339480D01*
X110214514Y-93281795D01*
X110127322Y-93269258D01*
X110047195Y-93305851D01*
X109999571Y-93379956D01*
X109999571Y-93488285D01*
X109371932Y-93488285D01*
X109336168Y-93484424D01*
X109308752Y-93498132D01*
X109279337Y-93506769D01*
X109270055Y-93517480D01*
X109188099Y-93558459D01*
X109182270Y-93558254D01*
X109149056Y-93577981D01*
X109134627Y-93585196D01*
X109130595Y-93588946D01*
X109106533Y-93603238D01*
X109098971Y-93618361D01*
X109086587Y-93629881D01*
X109079653Y-93656996D01*
X109019021Y-93778261D01*
X108999571Y-93808527D01*
X108999571Y-93839180D01*
X108994141Y-93869352D01*
X108999571Y-93882444D01*
X108999571Y-94016996D01*
X109018055Y-94079948D01*
X109084628Y-94137633D01*
X109171820Y-94150170D01*
X109251947Y-94113577D01*
X109299571Y-94039472D01*
X109299571Y-93887981D01*
X109332803Y-93821516D01*
X109399267Y-93788285D01*
X109999571Y-93788285D01*
X109999571Y-94016996D01*
X110018055Y-94079948D01*
X110084628Y-94137633D01*
X110098393Y-94139612D01*
X110047195Y-94162994D01*
X109999571Y-94237099D01*
X109999571Y-94345428D01*
X109371932Y-94345428D01*
X109336168Y-94341567D01*
X109308752Y-94355275D01*
X109279337Y-94363912D01*
X109270055Y-94374623D01*
X109188099Y-94415602D01*
X109182270Y-94415397D01*
X109149056Y-94435124D01*
X109134627Y-94442339D01*
X109130595Y-94446089D01*
X109106533Y-94460381D01*
X109098971Y-94475504D01*
X109086587Y-94487024D01*
X109079653Y-94514139D01*
X109019021Y-94635404D01*
X108999571Y-94665670D01*
X108999571Y-94696323D01*
X108994141Y-94726495D01*
X108301714Y-94726495D01*
X108301714Y-92512209D01*
X108994141Y-92512209D01*
X108999571Y-92525301D01*
X108999571Y-92701638D01*
X108995710Y-92737402D01*
X109009417Y-92764816D01*
X109018055Y-92794234D01*
X109028767Y-92803516D01*
X109038545Y-92823072D01*
X109007366Y-92859057D01*
X108994829Y-92946249D01*
X109031422Y-93026376D01*
X109105527Y-93074000D01*
X109254142Y-93074000D01*
X109259196Y-93076760D01*
X109297786Y-93074000D01*
X110171139Y-93074000D01*
X110234091Y-93055516D01*
X110291776Y-92988943D01*
X110304313Y-92901751D01*
X110267720Y-92821624D01*
X110193615Y-92774000D01*
X109354560Y-92774000D01*
X109344278Y-92763718D01*
X109299571Y-92674304D01*
X109299571Y-92530839D01*
X109332803Y-92464373D01*
X109399267Y-92431142D01*
X110171139Y-92431142D01*
X110234091Y-92412658D01*
X110291776Y-92346085D01*
X110304313Y-92258893D01*
X110267720Y-92178766D01*
X110193615Y-92131142D01*
X109371932Y-92131142D01*
X109336168Y-92127281D01*
X109308752Y-92140989D01*
X109279337Y-92149626D01*
X109270055Y-92160337D01*
X109188099Y-92201316D01*
X109182270Y-92201111D01*
X109149056Y-92220838D01*
X109134627Y-92228053D01*
X109130595Y-92231803D01*
X109106533Y-92246095D01*
X109098971Y-92261218D01*
X109086587Y-92272738D01*
X109079653Y-92299853D01*
X109019021Y-92421118D01*
X108999571Y-92451384D01*
X108999571Y-92482037D01*
X108994141Y-92512209D01*
X108301714Y-92512209D01*
X108301714Y-90803391D01*
X108994829Y-90803391D01*
X108999570Y-90813774D01*
X108999571Y-91344495D01*
X108995710Y-91380259D01*
X109009417Y-91407673D01*
X109018055Y-91437091D01*
X109028767Y-91446373D01*
X109078425Y-91545687D01*
X109083790Y-91570349D01*
X109112996Y-91599555D01*
X109141167Y-91629841D01*
X109144007Y-91630567D01*
X109173062Y-91659623D01*
X109185952Y-91681324D01*
X109222910Y-91699803D01*
X109259196Y-91719617D01*
X109262120Y-91719407D01*
X109360979Y-91768837D01*
X109391241Y-91788285D01*
X109421893Y-91788285D01*
X109452067Y-91793715D01*
X109465159Y-91788285D01*
X109641495Y-91788285D01*
X109677258Y-91792146D01*
X109704672Y-91778438D01*
X109734091Y-91769801D01*
X109743372Y-91759089D01*
X109842688Y-91709431D01*
X109867350Y-91704067D01*
X109896561Y-91674855D01*
X109926841Y-91646690D01*
X109927567Y-91643849D01*
X109964210Y-91607206D01*
X109968173Y-91604015D01*
X109971666Y-91609895D01*
X110008622Y-91628373D01*
X110044910Y-91648188D01*
X110047833Y-91647978D01*
X110146697Y-91697411D01*
X110176956Y-91716857D01*
X110207607Y-91716857D01*
X110237781Y-91722287D01*
X110250873Y-91716857D01*
X110355782Y-91716857D01*
X110391545Y-91720718D01*
X110418959Y-91707010D01*
X110448377Y-91698373D01*
X110457659Y-91687660D01*
X110556972Y-91638003D01*
X110581636Y-91632638D01*
X110610856Y-91603417D01*
X110641127Y-91575261D01*
X110641853Y-91572420D01*
X110670909Y-91543364D01*
X110692609Y-91530476D01*
X110711087Y-91493519D01*
X110730902Y-91457232D01*
X110730692Y-91454308D01*
X110780125Y-91355444D01*
X110799571Y-91325186D01*
X110799571Y-91294535D01*
X110805001Y-91264361D01*
X110799571Y-91251268D01*
X110799571Y-90791872D01*
X110804313Y-90758893D01*
X110790472Y-90728586D01*
X110781087Y-90696622D01*
X110772461Y-90689147D01*
X110767720Y-90678766D01*
X110739692Y-90660753D01*
X110714514Y-90638937D01*
X110703216Y-90637312D01*
X110693615Y-90631142D01*
X110660302Y-90631142D01*
X110627322Y-90626400D01*
X110616939Y-90631142D01*
X109946016Y-90631142D01*
X109913036Y-90626400D01*
X109902653Y-90631142D01*
X109160302Y-90631142D01*
X109127322Y-90626400D01*
X109097015Y-90640240D01*
X109065051Y-90649626D01*
X109057576Y-90658251D01*
X109047195Y-90662993D01*
X109029182Y-90691020D01*
X109007366Y-90716199D01*
X109005741Y-90727496D01*
X108999571Y-90737098D01*
X108999571Y-90770411D01*
X108994829Y-90803391D01*
X108301714Y-90803391D01*
X108301714Y-89759714D01*
X111880286Y-89759714D01*
X111880286Y-101395429D01*
G37*
G36*
X173566142Y-68602017D02*
G01*
X173547195Y-68639910D01*
X173509303Y-68658857D01*
X173465839Y-68658857D01*
X173427945Y-68639910D01*
X173409000Y-68602018D01*
X173409000Y-68387429D01*
X173566142Y-68387429D01*
X173566142Y-68602017D01*
G37*
G36*
X173566142Y-64259160D02*
G01*
X173535720Y-64320004D01*
X173513003Y-64342721D01*
X173452160Y-64373143D01*
X173180125Y-64373143D01*
X173119280Y-64342720D01*
X173096562Y-64320002D01*
X173066142Y-64259162D01*
X173066142Y-64101715D01*
X173566142Y-64101715D01*
X173566142Y-64259160D01*
G37*
G36*
X174484429Y-71487429D02*
G01*
X171291571Y-71487429D01*
X171291571Y-70436545D01*
X172362281Y-70436545D01*
X172375988Y-70463959D01*
X172384626Y-70493377D01*
X172395338Y-70502659D01*
X172430710Y-70573402D01*
X172436075Y-70598064D01*
X172465292Y-70627281D01*
X172493453Y-70657555D01*
X172496291Y-70658280D01*
X172511063Y-70673052D01*
X172523952Y-70694752D01*
X172560913Y-70713232D01*
X172597197Y-70733045D01*
X172600119Y-70732835D01*
X172670411Y-70767982D01*
X172700670Y-70787428D01*
X172731321Y-70787428D01*
X172761496Y-70792858D01*
X172774588Y-70787428D01*
X172850925Y-70787428D01*
X172886688Y-70791289D01*
X172914102Y-70777581D01*
X172943520Y-70768944D01*
X172952802Y-70758231D01*
X173023545Y-70722859D01*
X173048207Y-70717495D01*
X173077424Y-70688277D01*
X173107698Y-70660117D01*
X173108423Y-70657278D01*
X173123193Y-70642508D01*
X173144895Y-70629619D01*
X173163381Y-70592645D01*
X173183188Y-70556373D01*
X173182979Y-70553451D01*
X173209787Y-70499834D01*
X173222410Y-70487966D01*
X173229097Y-70461214D01*
X173231381Y-70456648D01*
X173234313Y-70440350D01*
X173286240Y-70232643D01*
X173325135Y-70154853D01*
X173347854Y-70132134D01*
X173408695Y-70101714D01*
X173452161Y-70101714D01*
X173513003Y-70132135D01*
X173535722Y-70154854D01*
X173566142Y-70215694D01*
X173566142Y-70441658D01*
X173509877Y-70610456D01*
X173507506Y-70676022D01*
X173552421Y-70751799D01*
X173631174Y-70791265D01*
X173718761Y-70781888D01*
X173787375Y-70726646D01*
X173852497Y-70531275D01*
X173866142Y-70510044D01*
X173866142Y-70468730D01*
X173867637Y-70427406D01*
X173866142Y-70424883D01*
X173866142Y-70188356D01*
X173870003Y-70152597D01*
X173856295Y-70125180D01*
X173847658Y-70095765D01*
X173836946Y-70086483D01*
X173801574Y-70015738D01*
X173796210Y-69991078D01*
X173766993Y-69961861D01*
X173738833Y-69931588D01*
X173735994Y-69930862D01*
X173721223Y-69916091D01*
X173708334Y-69894390D01*
X173671371Y-69875908D01*
X173635088Y-69856096D01*
X173632164Y-69856305D01*
X173561873Y-69821159D01*
X173531615Y-69801714D01*
X173500964Y-69801714D01*
X173470790Y-69796284D01*
X173457698Y-69801714D01*
X173381360Y-69801714D01*
X173345597Y-69797853D01*
X173318182Y-69811560D01*
X173288765Y-69820198D01*
X173279482Y-69830910D01*
X173208740Y-69866282D01*
X173184078Y-69871647D01*
X173154857Y-69900867D01*
X173124587Y-69929024D01*
X173123860Y-69931864D01*
X173109090Y-69946634D01*
X173087390Y-69959523D01*
X173068908Y-69996485D01*
X173049096Y-70032769D01*
X173049305Y-70035692D01*
X173022499Y-70089304D01*
X173009875Y-70101175D01*
X173003186Y-70127930D01*
X173000905Y-70132493D01*
X172997974Y-70148779D01*
X172946044Y-70356499D01*
X172907150Y-70434287D01*
X172884430Y-70457007D01*
X172823590Y-70487428D01*
X172780125Y-70487428D01*
X172719281Y-70457006D01*
X172696562Y-70434287D01*
X172666142Y-70373447D01*
X172666142Y-70147482D01*
X172722408Y-69978687D01*
X172724780Y-69913121D01*
X172679865Y-69837344D01*
X172601112Y-69797877D01*
X172513525Y-69807254D01*
X172444911Y-69862496D01*
X172379786Y-70057866D01*
X172366142Y-70079098D01*
X172366142Y-70120410D01*
X172364647Y-70161735D01*
X172366142Y-70164257D01*
X172366142Y-70400781D01*
X172362281Y-70436545D01*
X171291571Y-70436545D01*
X171291571Y-69459677D01*
X172361400Y-69459677D01*
X172397993Y-69539804D01*
X172472098Y-69587428D01*
X172766142Y-69587428D01*
X172766142Y-69630425D01*
X172784626Y-69693377D01*
X172851199Y-69751062D01*
X172938391Y-69763599D01*
X173018518Y-69727006D01*
X173066142Y-69652901D01*
X173066142Y-69587428D01*
X173536638Y-69587428D01*
X173572402Y-69591289D01*
X173599816Y-69577581D01*
X173629234Y-69568944D01*
X173638516Y-69558231D01*
X173691902Y-69531538D01*
X173697731Y-69531744D01*
X173730941Y-69512018D01*
X173745373Y-69504803D01*
X173749405Y-69501052D01*
X173773467Y-69486761D01*
X173781028Y-69471637D01*
X173793413Y-69460118D01*
X173800347Y-69433000D01*
X173846696Y-69340302D01*
X173866142Y-69310044D01*
X173866142Y-69279392D01*
X173871572Y-69249218D01*
X173866142Y-69236126D01*
X173866142Y-69130146D01*
X173847658Y-69067194D01*
X173781085Y-69009509D01*
X173693893Y-68996972D01*
X173613766Y-69033565D01*
X173566142Y-69107670D01*
X173566142Y-69230588D01*
X173547195Y-69268481D01*
X173509303Y-69287428D01*
X173066142Y-69287428D01*
X173066142Y-69130146D01*
X173047658Y-69067194D01*
X172981085Y-69009509D01*
X172893893Y-68996972D01*
X172813766Y-69033565D01*
X172766142Y-69107670D01*
X172766142Y-69287428D01*
X172494574Y-69287428D01*
X172431622Y-69305912D01*
X172373937Y-69372485D01*
X172361400Y-69459677D01*
X171291571Y-69459677D01*
X171291571Y-68425638D01*
X172760712Y-68425638D01*
X172766142Y-68438730D01*
X172766142Y-68629353D01*
X172762281Y-68665117D01*
X172775988Y-68692531D01*
X172784626Y-68721949D01*
X172795338Y-68731231D01*
X172848767Y-68838088D01*
X172893453Y-68886127D01*
X172978795Y-68907950D01*
X173062388Y-68880169D01*
X173117691Y-68811605D01*
X173127146Y-68724026D01*
X173066142Y-68602019D01*
X173066142Y-68444267D01*
X173085088Y-68406374D01*
X173109000Y-68394418D01*
X173109000Y-68629352D01*
X173105139Y-68665116D01*
X173118846Y-68692530D01*
X173127484Y-68721949D01*
X173138196Y-68731230D01*
X173164887Y-68784614D01*
X173164682Y-68790444D01*
X173184407Y-68823654D01*
X173191623Y-68838086D01*
X173195374Y-68842119D01*
X173209666Y-68866181D01*
X173224789Y-68873742D01*
X173236308Y-68886126D01*
X173263422Y-68893059D01*
X173356125Y-68939411D01*
X173386384Y-68958857D01*
X173417035Y-68958857D01*
X173447210Y-68964287D01*
X173460302Y-68958857D01*
X173536638Y-68958857D01*
X173572402Y-68962718D01*
X173599816Y-68949010D01*
X173629234Y-68940373D01*
X173638516Y-68929660D01*
X173691902Y-68902967D01*
X173697731Y-68903173D01*
X173730941Y-68883447D01*
X173745373Y-68876232D01*
X173749405Y-68872481D01*
X173773467Y-68858190D01*
X173781028Y-68843066D01*
X173793413Y-68831547D01*
X173800347Y-68804429D01*
X173846696Y-68711731D01*
X173866142Y-68681473D01*
X173866142Y-68650821D01*
X173871572Y-68620647D01*
X173866142Y-68607555D01*
X173866142Y-68359785D01*
X173870003Y-68324026D01*
X173858532Y-68301084D01*
X173870884Y-68215180D01*
X173834291Y-68135053D01*
X173760186Y-68087429D01*
X173677874Y-68087429D01*
X173653491Y-68081194D01*
X173634729Y-68087429D01*
X173220731Y-68087429D01*
X173196347Y-68081194D01*
X173177585Y-68087429D01*
X173095644Y-68087429D01*
X173059884Y-68083568D01*
X173032468Y-68097275D01*
X173003051Y-68105913D01*
X172993769Y-68116624D01*
X172940384Y-68143316D01*
X172934555Y-68143111D01*
X172901339Y-68162838D01*
X172886913Y-68170052D01*
X172882881Y-68173801D01*
X172858818Y-68188094D01*
X172851255Y-68203219D01*
X172838873Y-68214737D01*
X172831939Y-68241850D01*
X172785587Y-68334554D01*
X172766142Y-68364813D01*
X172766142Y-68395463D01*
X172760712Y-68425638D01*
X171291571Y-68425638D01*
X171291571Y-67282781D01*
X172760712Y-67282781D01*
X172766142Y-67295873D01*
X172766142Y-67486496D01*
X172762281Y-67522260D01*
X172775988Y-67549674D01*
X172784626Y-67579092D01*
X172795338Y-67588374D01*
X172830710Y-67659117D01*
X172836075Y-67683779D01*
X172865292Y-67712996D01*
X172893453Y-67743270D01*
X172896291Y-67743995D01*
X172911063Y-67758767D01*
X172923952Y-67780467D01*
X172960913Y-67798947D01*
X172997197Y-67818760D01*
X173000119Y-67818550D01*
X173070411Y-67853697D01*
X173100670Y-67873143D01*
X173131321Y-67873143D01*
X173161496Y-67878573D01*
X173174588Y-67873143D01*
X173479495Y-67873143D01*
X173515259Y-67877004D01*
X173542673Y-67863296D01*
X173572091Y-67854659D01*
X173581373Y-67843946D01*
X173652115Y-67808575D01*
X173676779Y-67803210D01*
X173705999Y-67773989D01*
X173736270Y-67745833D01*
X173736996Y-67742992D01*
X173751767Y-67728221D01*
X173773467Y-67715333D01*
X173791946Y-67678373D01*
X173811760Y-67642088D01*
X173811550Y-67639165D01*
X173846696Y-67568874D01*
X173866142Y-67538616D01*
X173866142Y-67507964D01*
X173871572Y-67477790D01*
X173866142Y-67464698D01*
X173866142Y-67274071D01*
X173870003Y-67238312D01*
X173856295Y-67210895D01*
X173847658Y-67181480D01*
X173836946Y-67172198D01*
X173783519Y-67065342D01*
X173738833Y-67017303D01*
X173653491Y-66995480D01*
X173569898Y-67023259D01*
X173514594Y-67091823D01*
X173505139Y-67179402D01*
X173566142Y-67301409D01*
X173566142Y-67459160D01*
X173535720Y-67520004D01*
X173513003Y-67542721D01*
X173452160Y-67573143D01*
X173180125Y-67573143D01*
X173119280Y-67542720D01*
X173096562Y-67520002D01*
X173066142Y-67459162D01*
X173066142Y-67301411D01*
X173117095Y-67199506D01*
X173128715Y-67134934D01*
X173094968Y-67053567D01*
X173022588Y-67003359D01*
X172934556Y-67000255D01*
X172858818Y-67045238D01*
X172785589Y-67191694D01*
X172766142Y-67221956D01*
X172766142Y-67252608D01*
X172760712Y-67282781D01*
X171291571Y-67282781D01*
X171291571Y-66659678D01*
X172361400Y-66659678D01*
X172397993Y-66739805D01*
X172472098Y-66787429D01*
X173334998Y-66787429D01*
X173340054Y-66790190D01*
X173378653Y-66787429D01*
X173737710Y-66787429D01*
X173800662Y-66768945D01*
X173858347Y-66702372D01*
X173870884Y-66615180D01*
X173834291Y-66535053D01*
X173760186Y-66487429D01*
X173556619Y-66487429D01*
X173823396Y-66287345D01*
X173862667Y-66234787D01*
X173868871Y-66146917D01*
X173826586Y-66069642D01*
X173749235Y-66027496D01*
X173661377Y-66033860D01*
X173273075Y-66325087D01*
X173006957Y-66058969D01*
X172949373Y-66027525D01*
X172861510Y-66033810D01*
X172790990Y-66086599D01*
X172760207Y-66169133D01*
X172778932Y-66255208D01*
X173011153Y-66487429D01*
X172494574Y-66487429D01*
X172431622Y-66505913D01*
X172373937Y-66572486D01*
X172361400Y-66659678D01*
X171291571Y-66659678D01*
X171291571Y-65688249D01*
X172361400Y-65688249D01*
X172397993Y-65768376D01*
X172472098Y-65816000D01*
X173536638Y-65816000D01*
X173572402Y-65819861D01*
X173599816Y-65806153D01*
X173629234Y-65797516D01*
X173638516Y-65786803D01*
X173691902Y-65760110D01*
X173697731Y-65760316D01*
X173730941Y-65740590D01*
X173745373Y-65733375D01*
X173749405Y-65729624D01*
X173773467Y-65715333D01*
X173781028Y-65700209D01*
X173793413Y-65688690D01*
X173800347Y-65661572D01*
X173859952Y-65542363D01*
X173871572Y-65477790D01*
X173837824Y-65396423D01*
X173765444Y-65346217D01*
X173677411Y-65343113D01*
X173601674Y-65388096D01*
X173547195Y-65497053D01*
X173509303Y-65516000D01*
X172494574Y-65516000D01*
X172431622Y-65534484D01*
X172373937Y-65601057D01*
X172361400Y-65688249D01*
X171291571Y-65688249D01*
X171291571Y-65026276D01*
X172360207Y-65026276D01*
X172363816Y-65042869D01*
X172361400Y-65059678D01*
X172368454Y-65075125D01*
X172369666Y-65092061D01*
X172376505Y-65101198D01*
X172378932Y-65112351D01*
X172390938Y-65124357D01*
X172397993Y-65139805D01*
X172412277Y-65148984D01*
X172422455Y-65162581D01*
X172433151Y-65166570D01*
X172459629Y-65193048D01*
X172479598Y-65219724D01*
X172510819Y-65231368D01*
X172540054Y-65247332D01*
X172551436Y-65246517D01*
X172562132Y-65250507D01*
X172594693Y-65243423D01*
X172627917Y-65241047D01*
X172637052Y-65234208D01*
X172648207Y-65231782D01*
X172671767Y-65208221D01*
X172698436Y-65188258D01*
X172702424Y-65177564D01*
X172709421Y-65170567D01*
X172714948Y-65168945D01*
X172733232Y-65147842D01*
X172755579Y-65131115D01*
X172761512Y-65115205D01*
X172772633Y-65102372D01*
X172774612Y-65088608D01*
X172797993Y-65139805D01*
X172872098Y-65187429D01*
X173737710Y-65187429D01*
X173800662Y-65168945D01*
X173858347Y-65102372D01*
X173870884Y-65015180D01*
X173834291Y-64935053D01*
X173760186Y-64887429D01*
X172894574Y-64887429D01*
X172831622Y-64905913D01*
X172773937Y-64972486D01*
X172773171Y-64977811D01*
X172770064Y-64973661D01*
X172767638Y-64962507D01*
X172755631Y-64950500D01*
X172748577Y-64935053D01*
X172734289Y-64925871D01*
X172724114Y-64912278D01*
X172713420Y-64908289D01*
X172686934Y-64881803D01*
X172666971Y-64855135D01*
X172635760Y-64843494D01*
X172606516Y-64827525D01*
X172595129Y-64828339D01*
X172584438Y-64824352D01*
X172551888Y-64831432D01*
X172518653Y-64833810D01*
X172509515Y-64840649D01*
X172498363Y-64843076D01*
X172474808Y-64866630D01*
X172448133Y-64886599D01*
X172444143Y-64897295D01*
X172437148Y-64904290D01*
X172431622Y-64905913D01*
X172413340Y-64927010D01*
X172390990Y-64943742D01*
X172385054Y-64959655D01*
X172373937Y-64972486D01*
X172371520Y-64989291D01*
X172363381Y-65004198D01*
X172364195Y-65015582D01*
X172360207Y-65026276D01*
X171291571Y-65026276D01*
X171291571Y-64082781D01*
X172760712Y-64082781D01*
X172766142Y-64095873D01*
X172766142Y-64286496D01*
X172762281Y-64322260D01*
X172775988Y-64349674D01*
X172784626Y-64379092D01*
X172795338Y-64388374D01*
X172830710Y-64459117D01*
X172836075Y-64483779D01*
X172865292Y-64512996D01*
X172893453Y-64543270D01*
X172896291Y-64543995D01*
X172911063Y-64558767D01*
X172923952Y-64580467D01*
X172960913Y-64598947D01*
X172997197Y-64618760D01*
X173000119Y-64618550D01*
X173070411Y-64653697D01*
X173100670Y-64673143D01*
X173131321Y-64673143D01*
X173161496Y-64678573D01*
X173174588Y-64673143D01*
X173479495Y-64673143D01*
X173515259Y-64677004D01*
X173542673Y-64663296D01*
X173572091Y-64654659D01*
X173581373Y-64643946D01*
X173652115Y-64608575D01*
X173676779Y-64603210D01*
X173705999Y-64573989D01*
X173736270Y-64545833D01*
X173736996Y-64542992D01*
X173751767Y-64528221D01*
X173773467Y-64515333D01*
X173791946Y-64478373D01*
X173811760Y-64442088D01*
X173811550Y-64439165D01*
X173846696Y-64368874D01*
X173866142Y-64338616D01*
X173866142Y-64307964D01*
X173871572Y-64277790D01*
X173866142Y-64264698D01*
X173866142Y-64108705D01*
X173913003Y-64132135D01*
X173935721Y-64154853D01*
X173966142Y-64215695D01*
X173966142Y-64316303D01*
X173915190Y-64418209D01*
X173903570Y-64482782D01*
X173937318Y-64564149D01*
X174009698Y-64614356D01*
X174097731Y-64617459D01*
X174173467Y-64572476D01*
X174246696Y-64426017D01*
X174266142Y-64395759D01*
X174266142Y-64365107D01*
X174271572Y-64334933D01*
X174266142Y-64321841D01*
X174266142Y-64188358D01*
X174270003Y-64152599D01*
X174256295Y-64125183D01*
X174247658Y-64095766D01*
X174236946Y-64086484D01*
X174201574Y-64015740D01*
X174196210Y-63991078D01*
X174166990Y-63961858D01*
X174138834Y-63931588D01*
X174135993Y-63930861D01*
X174121220Y-63916088D01*
X174108332Y-63894389D01*
X174071378Y-63875912D01*
X174035088Y-63856096D01*
X174032163Y-63856305D01*
X173961875Y-63821161D01*
X173931615Y-63801715D01*
X173900963Y-63801715D01*
X173870789Y-63796285D01*
X173857697Y-63801715D01*
X173677874Y-63801715D01*
X173653491Y-63795480D01*
X173634729Y-63801715D01*
X172975963Y-63801715D01*
X172934556Y-63800255D01*
X172932098Y-63801715D01*
X172894574Y-63801715D01*
X172831622Y-63820199D01*
X172773937Y-63886772D01*
X172761400Y-63973964D01*
X172776182Y-64006332D01*
X172766142Y-64021956D01*
X172766142Y-64052608D01*
X172760712Y-64082781D01*
X171291571Y-64082781D01*
X171291571Y-63402535D01*
X172361400Y-63402535D01*
X172397993Y-63482662D01*
X172472098Y-63530286D01*
X172992142Y-63530286D01*
X172997197Y-63533046D01*
X173035781Y-63530286D01*
X173737710Y-63530286D01*
X173800662Y-63511802D01*
X173858347Y-63445229D01*
X173870884Y-63358037D01*
X173834291Y-63277910D01*
X173760186Y-63230286D01*
X173094561Y-63230286D01*
X173066142Y-63173448D01*
X173066142Y-63072839D01*
X173085088Y-63034946D01*
X173122980Y-63016001D01*
X173737710Y-63016001D01*
X173800662Y-62997517D01*
X173858347Y-62930944D01*
X173870884Y-62843752D01*
X173834291Y-62763625D01*
X173760186Y-62716001D01*
X173095644Y-62716001D01*
X173059884Y-62712140D01*
X173032468Y-62725847D01*
X173003051Y-62734485D01*
X172993769Y-62745196D01*
X172940384Y-62771888D01*
X172934555Y-62771683D01*
X172901339Y-62791410D01*
X172886913Y-62798624D01*
X172882881Y-62802373D01*
X172858818Y-62816666D01*
X172851255Y-62831791D01*
X172838873Y-62843309D01*
X172831939Y-62870422D01*
X172785587Y-62963126D01*
X172766142Y-62993385D01*
X172766142Y-63024035D01*
X172760712Y-63054210D01*
X172766142Y-63067302D01*
X172766142Y-63200782D01*
X172762957Y-63230286D01*
X172494574Y-63230286D01*
X172431622Y-63248770D01*
X172373937Y-63315343D01*
X172361400Y-63402535D01*
X171291571Y-63402535D01*
X171291571Y-62316821D01*
X172361400Y-62316821D01*
X172397993Y-62396948D01*
X172472098Y-62444572D01*
X172766142Y-62444572D01*
X172766142Y-62487569D01*
X172784626Y-62550521D01*
X172851199Y-62608206D01*
X172938391Y-62620743D01*
X173018518Y-62584150D01*
X173066142Y-62510045D01*
X173066142Y-62444572D01*
X173536638Y-62444572D01*
X173572402Y-62448433D01*
X173599816Y-62434725D01*
X173629234Y-62426088D01*
X173638516Y-62415375D01*
X173691902Y-62388682D01*
X173697731Y-62388888D01*
X173730941Y-62369162D01*
X173745373Y-62361947D01*
X173749405Y-62358196D01*
X173773467Y-62343905D01*
X173781028Y-62328781D01*
X173793413Y-62317262D01*
X173800347Y-62290144D01*
X173846696Y-62197446D01*
X173866142Y-62167188D01*
X173866142Y-62136536D01*
X173871572Y-62106362D01*
X173866142Y-62093270D01*
X173866142Y-61987290D01*
X173847658Y-61924338D01*
X173781085Y-61866653D01*
X173693893Y-61854116D01*
X173613766Y-61890709D01*
X173566142Y-61964814D01*
X173566142Y-62087732D01*
X173547195Y-62125625D01*
X173509303Y-62144572D01*
X173066142Y-62144572D01*
X173066142Y-61987290D01*
X173047658Y-61924338D01*
X172981085Y-61866653D01*
X172893893Y-61854116D01*
X172813766Y-61890709D01*
X172766142Y-61964814D01*
X172766142Y-62144572D01*
X172494574Y-62144572D01*
X172431622Y-62163056D01*
X172373937Y-62229629D01*
X172361400Y-62316821D01*
X171291571Y-62316821D01*
X171291571Y-60428503D01*
X172361048Y-60428503D01*
X172361594Y-60429754D01*
X172361400Y-60431107D01*
X172379184Y-60470049D01*
X172396290Y-60509234D01*
X172397425Y-60509990D01*
X172397993Y-60511234D01*
X172434006Y-60534378D01*
X172592004Y-60639710D01*
X172678579Y-60726284D01*
X172734482Y-60838088D01*
X172779167Y-60886128D01*
X172864509Y-60907951D01*
X172948103Y-60880171D01*
X173003406Y-60811607D01*
X173012861Y-60724027D01*
X172944430Y-60587165D01*
X172939066Y-60562506D01*
X172935418Y-60558858D01*
X173566142Y-60558858D01*
X173566142Y-60773283D01*
X173584626Y-60836235D01*
X173651199Y-60893920D01*
X173738391Y-60906457D01*
X173818518Y-60869864D01*
X173866142Y-60795759D01*
X173866142Y-60419588D01*
X173870884Y-60386609D01*
X173866142Y-60376225D01*
X173866142Y-60044433D01*
X173847658Y-59981481D01*
X173781085Y-59923796D01*
X173693893Y-59911259D01*
X173613766Y-59947852D01*
X173566142Y-60021957D01*
X173566142Y-60258858D01*
X172538998Y-60258858D01*
X172518769Y-60252547D01*
X172495859Y-60258858D01*
X172494574Y-60258858D01*
X172475078Y-60264582D01*
X172433844Y-60275941D01*
X172432933Y-60276956D01*
X172431622Y-60277342D01*
X172403608Y-60309671D01*
X172375047Y-60341535D01*
X172374829Y-60342884D01*
X172373937Y-60343915D01*
X172367853Y-60386222D01*
X172361048Y-60428503D01*
X171291571Y-60428503D01*
X171291571Y-58706001D01*
X174484429Y-58706001D01*
X174484429Y-71487429D01*
G37*
D11*
%TO.C,TP2*%
X117674219Y-60037504D02*
X117674219Y-59466076D01*
X118674219Y-59751790D02*
X117674219Y-59751790D01*
X118674219Y-59132742D02*
X117674219Y-59132742D01*
X117674219Y-59132742D02*
X117674219Y-58751790D01*
X117674219Y-58751790D02*
X117721838Y-58656552D01*
X117721838Y-58656552D02*
X117769457Y-58608933D01*
X117769457Y-58608933D02*
X117864695Y-58561314D01*
X117864695Y-58561314D02*
X118007552Y-58561314D01*
X118007552Y-58561314D02*
X118102790Y-58608933D01*
X118102790Y-58608933D02*
X118150409Y-58656552D01*
X118150409Y-58656552D02*
X118198028Y-58751790D01*
X118198028Y-58751790D02*
X118198028Y-59132742D01*
X117769457Y-58180361D02*
X117721838Y-58132742D01*
X117721838Y-58132742D02*
X117674219Y-58037504D01*
X117674219Y-58037504D02*
X117674219Y-57799409D01*
X117674219Y-57799409D02*
X117721838Y-57704171D01*
X117721838Y-57704171D02*
X117769457Y-57656552D01*
X117769457Y-57656552D02*
X117864695Y-57608933D01*
X117864695Y-57608933D02*
X117959933Y-57608933D01*
X117959933Y-57608933D02*
X118102790Y-57656552D01*
X118102790Y-57656552D02*
X118674219Y-58227980D01*
X118674219Y-58227980D02*
X118674219Y-57608933D01*
%TO.C,TP3*%
X156129819Y-58310304D02*
X156129819Y-57738876D01*
X157129819Y-58024590D02*
X156129819Y-58024590D01*
X157129819Y-57405542D02*
X156129819Y-57405542D01*
X156129819Y-57405542D02*
X156129819Y-57024590D01*
X156129819Y-57024590D02*
X156177438Y-56929352D01*
X156177438Y-56929352D02*
X156225057Y-56881733D01*
X156225057Y-56881733D02*
X156320295Y-56834114D01*
X156320295Y-56834114D02*
X156463152Y-56834114D01*
X156463152Y-56834114D02*
X156558390Y-56881733D01*
X156558390Y-56881733D02*
X156606009Y-56929352D01*
X156606009Y-56929352D02*
X156653628Y-57024590D01*
X156653628Y-57024590D02*
X156653628Y-57405542D01*
X156129819Y-56500780D02*
X156129819Y-55881733D01*
X156129819Y-55881733D02*
X156510771Y-56215066D01*
X156510771Y-56215066D02*
X156510771Y-56072209D01*
X156510771Y-56072209D02*
X156558390Y-55976971D01*
X156558390Y-55976971D02*
X156606009Y-55929352D01*
X156606009Y-55929352D02*
X156701247Y-55881733D01*
X156701247Y-55881733D02*
X156939342Y-55881733D01*
X156939342Y-55881733D02*
X157034580Y-55929352D01*
X157034580Y-55929352D02*
X157082200Y-55976971D01*
X157082200Y-55976971D02*
X157129819Y-56072209D01*
X157129819Y-56072209D02*
X157129819Y-56357923D01*
X157129819Y-56357923D02*
X157082200Y-56453161D01*
X157082200Y-56453161D02*
X157034580Y-56500780D01*
%TO.C,R4*%
X118349733Y-79186019D02*
X118016400Y-78709828D01*
X117778305Y-79186019D02*
X117778305Y-78186019D01*
X117778305Y-78186019D02*
X118159257Y-78186019D01*
X118159257Y-78186019D02*
X118254495Y-78233638D01*
X118254495Y-78233638D02*
X118302114Y-78281257D01*
X118302114Y-78281257D02*
X118349733Y-78376495D01*
X118349733Y-78376495D02*
X118349733Y-78519352D01*
X118349733Y-78519352D02*
X118302114Y-78614590D01*
X118302114Y-78614590D02*
X118254495Y-78662209D01*
X118254495Y-78662209D02*
X118159257Y-78709828D01*
X118159257Y-78709828D02*
X117778305Y-78709828D01*
X119206876Y-78519352D02*
X119206876Y-79186019D01*
X118968781Y-78138400D02*
X118730686Y-78852685D01*
X118730686Y-78852685D02*
X119349733Y-78852685D01*
%TO.C,C2*%
X144937580Y-53128166D02*
X144985200Y-53175785D01*
X144985200Y-53175785D02*
X145032819Y-53318642D01*
X145032819Y-53318642D02*
X145032819Y-53413880D01*
X145032819Y-53413880D02*
X144985200Y-53556737D01*
X144985200Y-53556737D02*
X144889961Y-53651975D01*
X144889961Y-53651975D02*
X144794723Y-53699594D01*
X144794723Y-53699594D02*
X144604247Y-53747213D01*
X144604247Y-53747213D02*
X144461390Y-53747213D01*
X144461390Y-53747213D02*
X144270914Y-53699594D01*
X144270914Y-53699594D02*
X144175676Y-53651975D01*
X144175676Y-53651975D02*
X144080438Y-53556737D01*
X144080438Y-53556737D02*
X144032819Y-53413880D01*
X144032819Y-53413880D02*
X144032819Y-53318642D01*
X144032819Y-53318642D02*
X144080438Y-53175785D01*
X144080438Y-53175785D02*
X144128057Y-53128166D01*
X144128057Y-52747213D02*
X144080438Y-52699594D01*
X144080438Y-52699594D02*
X144032819Y-52604356D01*
X144032819Y-52604356D02*
X144032819Y-52366261D01*
X144032819Y-52366261D02*
X144080438Y-52271023D01*
X144080438Y-52271023D02*
X144128057Y-52223404D01*
X144128057Y-52223404D02*
X144223295Y-52175785D01*
X144223295Y-52175785D02*
X144318533Y-52175785D01*
X144318533Y-52175785D02*
X144461390Y-52223404D01*
X144461390Y-52223404D02*
X145032819Y-52794832D01*
X145032819Y-52794832D02*
X145032819Y-52175785D01*
%TO.C,J9*%
X112747466Y-40808219D02*
X112747466Y-41522504D01*
X112747466Y-41522504D02*
X112699847Y-41665361D01*
X112699847Y-41665361D02*
X112604609Y-41760600D01*
X112604609Y-41760600D02*
X112461752Y-41808219D01*
X112461752Y-41808219D02*
X112366514Y-41808219D01*
X113271276Y-41808219D02*
X113461752Y-41808219D01*
X113461752Y-41808219D02*
X113556990Y-41760600D01*
X113556990Y-41760600D02*
X113604609Y-41712980D01*
X113604609Y-41712980D02*
X113699847Y-41570123D01*
X113699847Y-41570123D02*
X113747466Y-41379647D01*
X113747466Y-41379647D02*
X113747466Y-40998695D01*
X113747466Y-40998695D02*
X113699847Y-40903457D01*
X113699847Y-40903457D02*
X113652228Y-40855838D01*
X113652228Y-40855838D02*
X113556990Y-40808219D01*
X113556990Y-40808219D02*
X113366514Y-40808219D01*
X113366514Y-40808219D02*
X113271276Y-40855838D01*
X113271276Y-40855838D02*
X113223657Y-40903457D01*
X113223657Y-40903457D02*
X113176038Y-40998695D01*
X113176038Y-40998695D02*
X113176038Y-41236790D01*
X113176038Y-41236790D02*
X113223657Y-41332028D01*
X113223657Y-41332028D02*
X113271276Y-41379647D01*
X113271276Y-41379647D02*
X113366514Y-41427266D01*
X113366514Y-41427266D02*
X113556990Y-41427266D01*
X113556990Y-41427266D02*
X113652228Y-41379647D01*
X113652228Y-41379647D02*
X113699847Y-41332028D01*
X113699847Y-41332028D02*
X113747466Y-41236790D01*
%TO.C,J2*%
X94212380Y-81073666D02*
X93498095Y-81073666D01*
X93498095Y-81073666D02*
X93355238Y-81026047D01*
X93355238Y-81026047D02*
X93260000Y-80930809D01*
X93260000Y-80930809D02*
X93212380Y-80787952D01*
X93212380Y-80787952D02*
X93212380Y-80692714D01*
X94117142Y-81502238D02*
X94164761Y-81549857D01*
X94164761Y-81549857D02*
X94212380Y-81645095D01*
X94212380Y-81645095D02*
X94212380Y-81883190D01*
X94212380Y-81883190D02*
X94164761Y-81978428D01*
X94164761Y-81978428D02*
X94117142Y-82026047D01*
X94117142Y-82026047D02*
X94021904Y-82073666D01*
X94021904Y-82073666D02*
X93926666Y-82073666D01*
X93926666Y-82073666D02*
X93783809Y-82026047D01*
X93783809Y-82026047D02*
X93212380Y-81454619D01*
X93212380Y-81454619D02*
X93212380Y-82073666D01*
%TO.C,TP1*%
X107717419Y-61663104D02*
X107717419Y-61091676D01*
X108717419Y-61377390D02*
X107717419Y-61377390D01*
X108717419Y-60758342D02*
X107717419Y-60758342D01*
X107717419Y-60758342D02*
X107717419Y-60377390D01*
X107717419Y-60377390D02*
X107765038Y-60282152D01*
X107765038Y-60282152D02*
X107812657Y-60234533D01*
X107812657Y-60234533D02*
X107907895Y-60186914D01*
X107907895Y-60186914D02*
X108050752Y-60186914D01*
X108050752Y-60186914D02*
X108145990Y-60234533D01*
X108145990Y-60234533D02*
X108193609Y-60282152D01*
X108193609Y-60282152D02*
X108241228Y-60377390D01*
X108241228Y-60377390D02*
X108241228Y-60758342D01*
X108717419Y-59234533D02*
X108717419Y-59805961D01*
X108717419Y-59520247D02*
X107717419Y-59520247D01*
X107717419Y-59520247D02*
X107860276Y-59615485D01*
X107860276Y-59615485D02*
X107955514Y-59710723D01*
X107955514Y-59710723D02*
X108003133Y-59805961D01*
%TO.C,L1*%
X141895533Y-50322819D02*
X141419343Y-50322819D01*
X141419343Y-50322819D02*
X141419343Y-49322819D01*
X142752676Y-50322819D02*
X142181248Y-50322819D01*
X142466962Y-50322819D02*
X142466962Y-49322819D01*
X142466962Y-49322819D02*
X142371724Y-49465676D01*
X142371724Y-49465676D02*
X142276486Y-49560914D01*
X142276486Y-49560914D02*
X142181248Y-49608533D01*
%TO.C,Q5*%
X115731061Y-72970457D02*
X115635823Y-72922838D01*
X115635823Y-72922838D02*
X115540585Y-72827600D01*
X115540585Y-72827600D02*
X115397728Y-72684742D01*
X115397728Y-72684742D02*
X115302490Y-72637123D01*
X115302490Y-72637123D02*
X115207252Y-72637123D01*
X115254871Y-72875219D02*
X115159633Y-72827600D01*
X115159633Y-72827600D02*
X115064395Y-72732361D01*
X115064395Y-72732361D02*
X115016776Y-72541885D01*
X115016776Y-72541885D02*
X115016776Y-72208552D01*
X115016776Y-72208552D02*
X115064395Y-72018076D01*
X115064395Y-72018076D02*
X115159633Y-71922838D01*
X115159633Y-71922838D02*
X115254871Y-71875219D01*
X115254871Y-71875219D02*
X115445347Y-71875219D01*
X115445347Y-71875219D02*
X115540585Y-71922838D01*
X115540585Y-71922838D02*
X115635823Y-72018076D01*
X115635823Y-72018076D02*
X115683442Y-72208552D01*
X115683442Y-72208552D02*
X115683442Y-72541885D01*
X115683442Y-72541885D02*
X115635823Y-72732361D01*
X115635823Y-72732361D02*
X115540585Y-72827600D01*
X115540585Y-72827600D02*
X115445347Y-72875219D01*
X115445347Y-72875219D02*
X115254871Y-72875219D01*
X116588204Y-71875219D02*
X116112014Y-71875219D01*
X116112014Y-71875219D02*
X116064395Y-72351409D01*
X116064395Y-72351409D02*
X116112014Y-72303790D01*
X116112014Y-72303790D02*
X116207252Y-72256171D01*
X116207252Y-72256171D02*
X116445347Y-72256171D01*
X116445347Y-72256171D02*
X116540585Y-72303790D01*
X116540585Y-72303790D02*
X116588204Y-72351409D01*
X116588204Y-72351409D02*
X116635823Y-72446647D01*
X116635823Y-72446647D02*
X116635823Y-72684742D01*
X116635823Y-72684742D02*
X116588204Y-72779980D01*
X116588204Y-72779980D02*
X116540585Y-72827600D01*
X116540585Y-72827600D02*
X116445347Y-72875219D01*
X116445347Y-72875219D02*
X116207252Y-72875219D01*
X116207252Y-72875219D02*
X116112014Y-72827600D01*
X116112014Y-72827600D02*
X116064395Y-72779980D01*
%TO.C,D1*%
X123899705Y-50627619D02*
X123899705Y-49627619D01*
X123899705Y-49627619D02*
X124137800Y-49627619D01*
X124137800Y-49627619D02*
X124280657Y-49675238D01*
X124280657Y-49675238D02*
X124375895Y-49770476D01*
X124375895Y-49770476D02*
X124423514Y-49865714D01*
X124423514Y-49865714D02*
X124471133Y-50056190D01*
X124471133Y-50056190D02*
X124471133Y-50199047D01*
X124471133Y-50199047D02*
X124423514Y-50389523D01*
X124423514Y-50389523D02*
X124375895Y-50484761D01*
X124375895Y-50484761D02*
X124280657Y-50580000D01*
X124280657Y-50580000D02*
X124137800Y-50627619D01*
X124137800Y-50627619D02*
X123899705Y-50627619D01*
X125423514Y-50627619D02*
X124852086Y-50627619D01*
X125137800Y-50627619D02*
X125137800Y-49627619D01*
X125137800Y-49627619D02*
X125042562Y-49770476D01*
X125042562Y-49770476D02*
X124947324Y-49865714D01*
X124947324Y-49865714D02*
X124852086Y-49913333D01*
%TO.C,TP4*%
X156891819Y-54246304D02*
X156891819Y-53674876D01*
X157891819Y-53960590D02*
X156891819Y-53960590D01*
X157891819Y-53341542D02*
X156891819Y-53341542D01*
X156891819Y-53341542D02*
X156891819Y-52960590D01*
X156891819Y-52960590D02*
X156939438Y-52865352D01*
X156939438Y-52865352D02*
X156987057Y-52817733D01*
X156987057Y-52817733D02*
X157082295Y-52770114D01*
X157082295Y-52770114D02*
X157225152Y-52770114D01*
X157225152Y-52770114D02*
X157320390Y-52817733D01*
X157320390Y-52817733D02*
X157368009Y-52865352D01*
X157368009Y-52865352D02*
X157415628Y-52960590D01*
X157415628Y-52960590D02*
X157415628Y-53341542D01*
X157225152Y-51912971D02*
X157891819Y-51912971D01*
X156844200Y-52151066D02*
X157558485Y-52389161D01*
X157558485Y-52389161D02*
X157558485Y-51770114D01*
%TO.C,U3*%
X124535095Y-67098619D02*
X124535095Y-67908142D01*
X124535095Y-67908142D02*
X124582714Y-68003380D01*
X124582714Y-68003380D02*
X124630333Y-68051000D01*
X124630333Y-68051000D02*
X124725571Y-68098619D01*
X124725571Y-68098619D02*
X124916047Y-68098619D01*
X124916047Y-68098619D02*
X125011285Y-68051000D01*
X125011285Y-68051000D02*
X125058904Y-68003380D01*
X125058904Y-68003380D02*
X125106523Y-67908142D01*
X125106523Y-67908142D02*
X125106523Y-67098619D01*
X125487476Y-67098619D02*
X126106523Y-67098619D01*
X126106523Y-67098619D02*
X125773190Y-67479571D01*
X125773190Y-67479571D02*
X125916047Y-67479571D01*
X125916047Y-67479571D02*
X126011285Y-67527190D01*
X126011285Y-67527190D02*
X126058904Y-67574809D01*
X126058904Y-67574809D02*
X126106523Y-67670047D01*
X126106523Y-67670047D02*
X126106523Y-67908142D01*
X126106523Y-67908142D02*
X126058904Y-68003380D01*
X126058904Y-68003380D02*
X126011285Y-68051000D01*
X126011285Y-68051000D02*
X125916047Y-68098619D01*
X125916047Y-68098619D02*
X125630333Y-68098619D01*
X125630333Y-68098619D02*
X125535095Y-68051000D01*
X125535095Y-68051000D02*
X125487476Y-68003380D01*
D12*
G36*
X134146958Y-71431352D02*
G01*
X134148458Y-71421603D01*
X134148667Y-71419628D01*
X134149389Y-71409530D01*
X134149400Y-71407905D01*
X134148757Y-71397354D01*
X134146829Y-71387715D01*
X134143051Y-71377816D01*
X134137593Y-71369107D01*
X134135967Y-71367116D01*
X134128395Y-71360170D01*
X134118870Y-71355209D01*
X134108932Y-71352496D01*
X134099223Y-71351380D01*
X134093957Y-71351240D01*
X134082737Y-71351878D01*
X134072280Y-71353792D01*
X134062587Y-71356983D01*
X134053657Y-71361449D01*
X134045490Y-71367191D01*
X134038086Y-71374210D01*
X134035339Y-71377374D01*
X134028949Y-71386031D01*
X134023060Y-71395821D01*
X134017672Y-71406744D01*
X134013722Y-71416298D01*
X134010092Y-71426577D01*
X134006784Y-71437582D01*
X134003796Y-71449311D01*
X134003099Y-71452357D01*
X133893434Y-71966000D01*
X133767893Y-71966000D01*
X133880977Y-71431840D01*
X133882614Y-71421857D01*
X133883496Y-71411324D01*
X133883664Y-71403997D01*
X133882946Y-71393128D01*
X133880794Y-71383236D01*
X133876657Y-71373276D01*
X133872184Y-71366383D01*
X133864162Y-71359063D01*
X133854404Y-71354568D01*
X133843837Y-71352187D01*
X133833273Y-71351299D01*
X133829442Y-71351240D01*
X133819554Y-71351713D01*
X133808063Y-71353636D01*
X133797539Y-71357037D01*
X133787980Y-71361917D01*
X133779387Y-71368276D01*
X133771761Y-71376114D01*
X133767648Y-71381526D01*
X133761429Y-71391177D01*
X133755746Y-71401352D01*
X133750600Y-71412052D01*
X133745991Y-71423277D01*
X133742690Y-71432634D01*
X133739732Y-71442328D01*
X133737118Y-71452357D01*
X133627697Y-71966000D01*
X133503378Y-71966000D01*
X133654320Y-71246949D01*
X133779861Y-71246949D01*
X133767160Y-71308986D01*
X133769358Y-71308986D01*
X133773274Y-71299804D01*
X133779048Y-71289121D01*
X133785801Y-71279320D01*
X133793531Y-71270402D01*
X133802239Y-71262366D01*
X133811926Y-71255213D01*
X133818207Y-71251345D01*
X133826927Y-71246651D01*
X133835869Y-71242583D01*
X133845031Y-71239140D01*
X133854416Y-71236324D01*
X133864021Y-71234133D01*
X133873848Y-71232569D01*
X133883897Y-71231630D01*
X133894166Y-71231317D01*
X133905504Y-71231668D01*
X133916316Y-71232721D01*
X133926601Y-71234477D01*
X133936359Y-71236935D01*
X133947816Y-71240994D01*
X133958451Y-71246151D01*
X133968262Y-71252405D01*
X133970126Y-71253787D01*
X133978795Y-71261060D01*
X133986331Y-71268833D01*
X133992734Y-71277107D01*
X133998004Y-71285882D01*
X134002141Y-71295158D01*
X134005145Y-71304935D01*
X134006030Y-71308986D01*
X134011891Y-71308986D01*
X134016749Y-71300468D01*
X134023434Y-71290422D01*
X134030798Y-71281043D01*
X134038842Y-71272333D01*
X134047566Y-71264290D01*
X134056970Y-71256915D01*
X134062938Y-71252810D01*
X134071353Y-71247773D01*
X134080234Y-71243407D01*
X134089580Y-71239713D01*
X134099391Y-71236690D01*
X134109669Y-71234340D01*
X134120411Y-71232660D01*
X134131620Y-71231653D01*
X134143294Y-71231317D01*
X134155556Y-71231667D01*
X134167248Y-71232717D01*
X134178368Y-71234466D01*
X134188918Y-71236916D01*
X134198896Y-71240065D01*
X134208304Y-71243914D01*
X134217140Y-71248462D01*
X134225405Y-71253711D01*
X134235538Y-71261798D01*
X134244655Y-71271129D01*
X134250809Y-71278758D01*
X134256358Y-71286808D01*
X134261302Y-71295279D01*
X134265641Y-71304170D01*
X134269374Y-71313482D01*
X134272501Y-71323215D01*
X134275024Y-71333369D01*
X134276941Y-71343943D01*
X134278252Y-71354939D01*
X134278958Y-71366355D01*
X134279093Y-71374199D01*
X134278887Y-71384366D01*
X134278336Y-71394168D01*
X134277628Y-71402531D01*
X134276447Y-71412538D01*
X134274764Y-71422533D01*
X134273231Y-71429398D01*
X134183106Y-71848763D01*
X134184148Y-71858590D01*
X134184327Y-71858777D01*
X134192387Y-71861708D01*
X134201757Y-71858926D01*
X134203378Y-71857800D01*
X134268835Y-71809684D01*
X134336734Y-71905672D01*
X134267369Y-71955986D01*
X134258577Y-71961450D01*
X134248807Y-71966366D01*
X134239457Y-71970216D01*
X134229359Y-71973645D01*
X134226337Y-71974548D01*
X134215711Y-71977308D01*
X134204992Y-71979390D01*
X134194180Y-71980794D01*
X134183273Y-71981520D01*
X134177000Y-71981631D01*
X134166070Y-71981249D01*
X134155262Y-71980105D01*
X134144576Y-71978196D01*
X134134013Y-71975525D01*
X134123724Y-71972167D01*
X134113863Y-71967953D01*
X134104429Y-71962885D01*
X134095422Y-71956963D01*
X134087164Y-71950017D01*
X134079730Y-71942125D01*
X134073120Y-71933286D01*
X134068013Y-71924776D01*
X134067334Y-71923501D01*
X134063147Y-71914070D01*
X134059988Y-71903726D01*
X134058099Y-71894135D01*
X134056966Y-71883874D01*
X134056588Y-71872943D01*
X134056903Y-71863111D01*
X134057321Y-71858044D01*
X134058703Y-71848322D01*
X134059763Y-71843145D01*
X134146958Y-71431352D01*
G37*
G36*
X134760007Y-71059370D02*
G01*
X134760492Y-71048280D01*
X134761946Y-71037602D01*
X134764369Y-71027336D01*
X134767762Y-71017482D01*
X134772124Y-71008041D01*
X134777455Y-70999012D01*
X134783756Y-70990394D01*
X134791026Y-70982189D01*
X134798987Y-70974633D01*
X134807360Y-70968084D01*
X134816145Y-70962543D01*
X134825342Y-70958009D01*
X134834952Y-70954483D01*
X134844973Y-70951964D01*
X134855407Y-70950453D01*
X134866253Y-70949949D01*
X134877156Y-70950453D01*
X134887639Y-70951964D01*
X134897703Y-70954483D01*
X134907347Y-70958009D01*
X134916571Y-70962543D01*
X134925375Y-70968084D01*
X134933759Y-70974633D01*
X134941724Y-70982189D01*
X134948994Y-70990394D01*
X134955295Y-70999012D01*
X134960626Y-71008041D01*
X134964988Y-71017482D01*
X134968381Y-71027336D01*
X134970804Y-71037602D01*
X134972258Y-71048280D01*
X134972743Y-71059370D01*
X134972258Y-71070464D01*
X134970804Y-71081153D01*
X134968381Y-71091438D01*
X134964988Y-71101319D01*
X134960626Y-71110795D01*
X134955295Y-71119866D01*
X134948994Y-71128533D01*
X134941724Y-71136795D01*
X134933759Y-71144294D01*
X134925375Y-71150793D01*
X134916571Y-71156292D01*
X134907347Y-71160792D01*
X134897703Y-71164291D01*
X134887639Y-71166791D01*
X134877156Y-71168291D01*
X134866253Y-71168791D01*
X134855407Y-71168291D01*
X134844973Y-71166791D01*
X134834952Y-71164291D01*
X134825342Y-71160792D01*
X134816145Y-71156292D01*
X134807360Y-71150793D01*
X134798987Y-71144294D01*
X134791026Y-71136795D01*
X134783756Y-71128533D01*
X134777455Y-71119866D01*
X134772124Y-71110795D01*
X134767762Y-71101319D01*
X134764369Y-71091438D01*
X134761946Y-71081153D01*
X134760492Y-71070464D01*
X134760007Y-71059370D01*
G37*
G36*
X134737781Y-71376886D02*
G01*
X134738331Y-71366811D01*
X134735583Y-71358568D01*
X134727951Y-71352450D01*
X134719951Y-71351240D01*
X134710171Y-71352631D01*
X134703099Y-71355637D01*
X134532129Y-71472873D01*
X134467160Y-71376397D01*
X134639595Y-71261603D01*
X134648224Y-71256191D01*
X134656981Y-71251311D01*
X134665866Y-71246963D01*
X134674881Y-71243148D01*
X134687101Y-71238889D01*
X134699549Y-71235576D01*
X134712227Y-71233210D01*
X134725134Y-71231790D01*
X134734964Y-71231347D01*
X134738270Y-71231317D01*
X134750707Y-71231790D01*
X134762740Y-71233210D01*
X134774368Y-71235576D01*
X134785592Y-71238889D01*
X134796411Y-71243148D01*
X134806825Y-71248353D01*
X134816836Y-71254505D01*
X134826441Y-71261603D01*
X134835314Y-71269621D01*
X134843004Y-71278654D01*
X134849511Y-71288703D01*
X134854834Y-71299766D01*
X134858975Y-71311845D01*
X134861304Y-71321570D01*
X134862968Y-71331866D01*
X134863966Y-71342733D01*
X134864299Y-71354171D01*
X134864018Y-71364429D01*
X134863177Y-71374688D01*
X134861774Y-71384946D01*
X134859811Y-71395204D01*
X134858437Y-71401066D01*
X134754390Y-71835085D01*
X134753248Y-71845243D01*
X134756588Y-71854869D01*
X134764640Y-71860746D01*
X134770754Y-71861708D01*
X134780791Y-71859418D01*
X134787362Y-71855846D01*
X134955890Y-71741785D01*
X135020614Y-71837528D01*
X134852575Y-71951101D01*
X134843657Y-71956557D01*
X134834669Y-71961476D01*
X134825613Y-71965859D01*
X134816488Y-71969705D01*
X134807295Y-71973015D01*
X134794930Y-71976592D01*
X134782443Y-71979216D01*
X134769834Y-71980886D01*
X134757103Y-71981601D01*
X134753901Y-71981631D01*
X134741460Y-71981162D01*
X134729416Y-71979753D01*
X134717768Y-71977406D01*
X134706518Y-71974121D01*
X134695664Y-71969896D01*
X134685208Y-71964732D01*
X134675148Y-71958630D01*
X134665485Y-71951589D01*
X134656670Y-71943510D01*
X134649029Y-71934416D01*
X134642565Y-71924306D01*
X134637275Y-71913182D01*
X134633161Y-71901042D01*
X134630847Y-71891271D01*
X134629194Y-71880930D01*
X134628202Y-71870017D01*
X134627872Y-71858533D01*
X134628152Y-71848179D01*
X134628994Y-71837849D01*
X134630396Y-71827543D01*
X134632360Y-71817259D01*
X134633734Y-71811394D01*
X134737781Y-71376886D01*
G37*
G36*
X135926023Y-71712231D02*
G01*
X135921933Y-71723651D01*
X135917633Y-71734831D01*
X135913123Y-71745771D01*
X135908403Y-71756470D01*
X135903472Y-71766928D01*
X135898331Y-71777146D01*
X135892979Y-71787124D01*
X135887417Y-71796861D01*
X135881645Y-71806358D01*
X135875662Y-71815615D01*
X135871556Y-71821652D01*
X135865228Y-71830477D01*
X135858608Y-71839091D01*
X135851695Y-71847496D01*
X135844491Y-71855690D01*
X135836995Y-71863673D01*
X135829207Y-71871446D01*
X135821127Y-71879009D01*
X135812755Y-71886361D01*
X135804091Y-71893503D01*
X135795135Y-71900435D01*
X135789002Y-71904939D01*
X135779568Y-71911450D01*
X135769860Y-71917704D01*
X135759876Y-71923701D01*
X135749618Y-71929439D01*
X135739085Y-71934921D01*
X135728277Y-71940144D01*
X135717195Y-71945110D01*
X135705838Y-71949818D01*
X135694206Y-71954269D01*
X135682299Y-71958462D01*
X135674208Y-71961115D01*
X135661839Y-71964781D01*
X135649187Y-71968087D01*
X135636251Y-71971032D01*
X135623032Y-71973617D01*
X135609529Y-71975841D01*
X135595743Y-71977704D01*
X135581674Y-71979207D01*
X135567321Y-71980349D01*
X135552685Y-71981130D01*
X135542771Y-71981451D01*
X135532730Y-71981611D01*
X135527662Y-71981631D01*
X135515082Y-71981449D01*
X135502712Y-71980901D01*
X135490553Y-71979989D01*
X135478604Y-71978712D01*
X135466865Y-71977069D01*
X135455337Y-71975062D01*
X135444019Y-71972690D01*
X135432911Y-71969953D01*
X135422014Y-71966851D01*
X135411327Y-71963384D01*
X135404320Y-71960870D01*
X135394068Y-71956817D01*
X135384104Y-71952441D01*
X135374427Y-71947744D01*
X135365039Y-71942724D01*
X135355938Y-71937382D01*
X135347124Y-71931719D01*
X135338598Y-71925733D01*
X135330360Y-71919425D01*
X135322409Y-71912796D01*
X135314747Y-71905844D01*
X135309798Y-71901031D01*
X135302623Y-71893566D01*
X135295753Y-71885827D01*
X135289188Y-71877813D01*
X135282927Y-71869524D01*
X135276972Y-71860960D01*
X135271321Y-71852121D01*
X135265975Y-71843008D01*
X135260934Y-71833620D01*
X135256198Y-71823957D01*
X135251766Y-71814019D01*
X135248981Y-71807242D01*
X135245097Y-71796828D01*
X135241594Y-71786196D01*
X135238473Y-71775344D01*
X135235735Y-71764274D01*
X135233379Y-71752985D01*
X135231404Y-71741476D01*
X135229812Y-71729749D01*
X135228602Y-71717803D01*
X135227774Y-71705638D01*
X135227329Y-71693254D01*
X135227244Y-71684876D01*
X135227369Y-71673344D01*
X135227744Y-71661890D01*
X135228369Y-71650515D01*
X135229243Y-71639218D01*
X135230368Y-71627999D01*
X135231743Y-71616858D01*
X135233368Y-71605796D01*
X135235243Y-71594811D01*
X135237367Y-71583905D01*
X135239742Y-71573078D01*
X135242367Y-71562328D01*
X135245241Y-71551657D01*
X135248366Y-71541064D01*
X135251741Y-71530549D01*
X135255365Y-71520112D01*
X135259240Y-71509754D01*
X135263373Y-71499485D01*
X135267712Y-71489379D01*
X135272257Y-71479434D01*
X135277008Y-71469652D01*
X135281966Y-71460032D01*
X135287129Y-71450575D01*
X135292499Y-71441279D01*
X135298074Y-71432146D01*
X135303856Y-71423175D01*
X135309844Y-71414366D01*
X135316037Y-71405719D01*
X135322437Y-71397234D01*
X135329043Y-71388912D01*
X135335855Y-71380752D01*
X135342874Y-71372754D01*
X135350098Y-71364918D01*
X135357550Y-71357237D01*
X135365191Y-71349763D01*
X135373021Y-71342498D01*
X135381040Y-71335441D01*
X135389248Y-71328591D01*
X135397645Y-71321950D01*
X135406231Y-71315517D01*
X135415005Y-71309292D01*
X135423969Y-71303274D01*
X135433121Y-71297465D01*
X135442463Y-71291863D01*
X135451993Y-71286470D01*
X135461712Y-71281285D01*
X135471620Y-71276307D01*
X135481717Y-71271538D01*
X135492003Y-71266976D01*
X135502456Y-71262658D01*
X135513054Y-71258619D01*
X135523797Y-71254858D01*
X135534684Y-71251375D01*
X135545717Y-71248172D01*
X135556895Y-71245246D01*
X135568218Y-71242600D01*
X135579686Y-71240232D01*
X135591299Y-71238142D01*
X135603057Y-71236332D01*
X135614960Y-71234799D01*
X135627008Y-71233546D01*
X135639201Y-71232571D01*
X135651539Y-71231874D01*
X135664022Y-71231456D01*
X135676651Y-71231317D01*
X135688906Y-71231484D01*
X135700942Y-71231987D01*
X135712760Y-71232824D01*
X135724358Y-71233996D01*
X135735738Y-71235503D01*
X135746898Y-71237345D01*
X135757840Y-71239522D01*
X135768562Y-71242033D01*
X135779066Y-71244880D01*
X135789351Y-71248061D01*
X135796085Y-71250368D01*
X135806019Y-71254032D01*
X135815669Y-71257970D01*
X135825035Y-71262183D01*
X135834119Y-71266671D01*
X135842918Y-71271434D01*
X135851435Y-71276471D01*
X135859668Y-71281784D01*
X135870205Y-71289294D01*
X135880238Y-71297293D01*
X135887432Y-71303613D01*
X135896622Y-71312429D01*
X135905262Y-71321656D01*
X135913352Y-71331296D01*
X135920893Y-71341348D01*
X135927885Y-71351813D01*
X135934327Y-71362689D01*
X135940219Y-71373978D01*
X135945562Y-71385678D01*
X135950313Y-71397673D01*
X135954431Y-71409965D01*
X135957104Y-71419380D01*
X135959420Y-71428962D01*
X135961380Y-71438711D01*
X135962983Y-71448628D01*
X135964231Y-71458713D01*
X135965121Y-71468964D01*
X135965656Y-71479384D01*
X135965834Y-71489970D01*
X135965834Y-71496809D01*
X135965071Y-71506827D01*
X135964000Y-71516973D01*
X135963880Y-71518058D01*
X135834676Y-71537109D01*
X135836350Y-71526939D01*
X135837699Y-71517050D01*
X135837851Y-71514639D01*
X135837851Y-71505113D01*
X135837606Y-71495081D01*
X135836873Y-71485288D01*
X135835347Y-71473850D01*
X135833118Y-71462756D01*
X135830184Y-71452006D01*
X135827837Y-71445030D01*
X135823661Y-71434920D01*
X135818643Y-71425292D01*
X135812784Y-71416144D01*
X135806084Y-71407477D01*
X135798542Y-71399291D01*
X135795841Y-71396669D01*
X135787151Y-71389185D01*
X135779228Y-71383407D01*
X135770684Y-71378046D01*
X135761520Y-71373103D01*
X135751736Y-71368577D01*
X135741332Y-71364468D01*
X135739177Y-71363697D01*
X135728093Y-71360108D01*
X135716365Y-71357128D01*
X135706519Y-71355182D01*
X135696261Y-71353624D01*
X135685590Y-71352457D01*
X135674508Y-71351678D01*
X135663013Y-71351289D01*
X135657111Y-71351240D01*
X135645111Y-71351468D01*
X135633292Y-71352150D01*
X135621653Y-71353288D01*
X135610194Y-71354881D01*
X135598915Y-71356929D01*
X135587817Y-71359432D01*
X135576899Y-71362390D01*
X135566161Y-71365803D01*
X135555604Y-71369672D01*
X135545227Y-71373995D01*
X135538409Y-71377130D01*
X135528406Y-71382147D01*
X135518640Y-71387491D01*
X135509109Y-71393161D01*
X135499815Y-71399158D01*
X135490757Y-71405480D01*
X135481935Y-71412129D01*
X135473349Y-71419104D01*
X135464999Y-71426406D01*
X135456885Y-71434034D01*
X135449008Y-71441988D01*
X135443887Y-71447472D01*
X135436485Y-71455890D01*
X135429393Y-71464565D01*
X135422609Y-71473498D01*
X135416135Y-71482689D01*
X135409970Y-71492137D01*
X135404114Y-71501843D01*
X135398567Y-71511806D01*
X135393329Y-71522027D01*
X135388400Y-71532506D01*
X135383781Y-71543242D01*
X135380872Y-71550542D01*
X135376813Y-71561626D01*
X135373153Y-71572805D01*
X135369892Y-71584078D01*
X135367031Y-71595445D01*
X135364569Y-71606907D01*
X135362506Y-71618463D01*
X135360842Y-71630114D01*
X135359578Y-71641859D01*
X135358712Y-71653698D01*
X135358247Y-71665632D01*
X135358158Y-71673641D01*
X135358357Y-71685445D01*
X135358956Y-71696859D01*
X135359953Y-71707884D01*
X135361348Y-71718520D01*
X135363143Y-71728767D01*
X135365336Y-71738625D01*
X135367929Y-71748093D01*
X135372565Y-71761565D01*
X135378098Y-71774162D01*
X135384529Y-71785883D01*
X135391857Y-71796728D01*
X135400082Y-71806697D01*
X135409205Y-71815790D01*
X135419117Y-71823996D01*
X135429712Y-71831395D01*
X135440990Y-71837987D01*
X135452951Y-71843771D01*
X135465594Y-71848749D01*
X135478920Y-71852919D01*
X135492928Y-71856282D01*
X135502646Y-71858076D01*
X135512668Y-71859511D01*
X135522993Y-71860587D01*
X135533621Y-71861304D01*
X135544553Y-71861663D01*
X135550133Y-71861708D01*
X135560284Y-71861573D01*
X135570220Y-71861167D01*
X135583134Y-71860205D01*
X135595667Y-71858763D01*
X135607818Y-71856839D01*
X135619587Y-71854435D01*
X135630975Y-71851550D01*
X135641981Y-71848184D01*
X135647341Y-71846321D01*
X135657790Y-71842268D01*
X135667888Y-71837925D01*
X135677635Y-71833292D01*
X135687031Y-71828369D01*
X135696076Y-71823156D01*
X135704769Y-71817653D01*
X135713111Y-71811859D01*
X135721103Y-71805776D01*
X135728751Y-71799434D01*
X135736063Y-71792862D01*
X135744730Y-71784325D01*
X135752873Y-71775431D01*
X135760492Y-71766179D01*
X135767585Y-71756569D01*
X135772882Y-71748623D01*
X135779115Y-71738298D01*
X135783843Y-71729677D01*
X135788343Y-71720735D01*
X135792613Y-71711473D01*
X135796654Y-71701890D01*
X135800467Y-71691987D01*
X135804050Y-71681763D01*
X135806588Y-71673885D01*
X135926023Y-71712231D01*
G37*
G36*
X136320475Y-71376886D02*
G01*
X136321690Y-71366821D01*
X136318032Y-71357591D01*
X136309369Y-71352133D01*
X136302889Y-71351240D01*
X136293229Y-71353018D01*
X136286036Y-71356858D01*
X136151703Y-71449426D01*
X136086490Y-71354660D01*
X136218137Y-71265267D01*
X136227496Y-71259200D01*
X136236890Y-71253729D01*
X136246318Y-71248856D01*
X136255781Y-71244579D01*
X136265278Y-71240899D01*
X136274809Y-71237815D01*
X136284374Y-71235329D01*
X136293974Y-71233439D01*
X136306828Y-71231847D01*
X136319742Y-71231317D01*
X136331103Y-71231729D01*
X136342105Y-71232966D01*
X136352749Y-71235026D01*
X136363034Y-71237912D01*
X136372960Y-71241621D01*
X136382528Y-71246155D01*
X136391736Y-71251513D01*
X136400586Y-71257695D01*
X136408837Y-71264610D01*
X136416126Y-71272289D01*
X136422454Y-71280730D01*
X136427819Y-71289935D01*
X136432223Y-71299903D01*
X136435666Y-71310635D01*
X136438146Y-71322130D01*
X136439665Y-71334387D01*
X136445283Y-71334387D01*
X136452813Y-71324227D01*
X136460567Y-71314630D01*
X136468544Y-71305594D01*
X136476744Y-71297121D01*
X136485168Y-71289211D01*
X136493815Y-71281863D01*
X136502685Y-71275077D01*
X136511778Y-71268854D01*
X136521094Y-71263193D01*
X136530634Y-71258095D01*
X136537118Y-71255009D01*
X136546999Y-71250775D01*
X136556948Y-71246957D01*
X136566965Y-71243556D01*
X136577052Y-71240572D01*
X136587207Y-71238003D01*
X136597431Y-71235852D01*
X136607723Y-71234117D01*
X136618085Y-71232798D01*
X136628515Y-71231895D01*
X136639013Y-71231410D01*
X136646050Y-71231317D01*
X136658943Y-71231556D01*
X136671486Y-71232275D01*
X136683680Y-71233472D01*
X136695525Y-71235149D01*
X136707021Y-71237304D01*
X136718167Y-71239938D01*
X136728964Y-71243051D01*
X136739412Y-71246643D01*
X136749511Y-71250714D01*
X136759261Y-71255264D01*
X136768661Y-71260293D01*
X136777713Y-71265801D01*
X136786415Y-71271788D01*
X136794768Y-71278254D01*
X136802771Y-71285198D01*
X136810426Y-71292622D01*
X136817702Y-71300435D01*
X136824508Y-71308547D01*
X136830845Y-71316959D01*
X136836713Y-71325671D01*
X136842111Y-71334682D01*
X136847039Y-71343993D01*
X136851499Y-71353603D01*
X136855489Y-71363513D01*
X136859009Y-71373723D01*
X136862060Y-71384232D01*
X136864642Y-71395041D01*
X136866754Y-71406149D01*
X136868397Y-71417557D01*
X136869571Y-71429264D01*
X136870275Y-71441271D01*
X136870510Y-71453578D01*
X136870271Y-71465523D01*
X136869737Y-71475354D01*
X136868897Y-71485429D01*
X136867752Y-71495748D01*
X136866302Y-71506312D01*
X136864547Y-71517119D01*
X136862486Y-71528171D01*
X136860740Y-71536621D01*
X136725185Y-71536621D01*
X136727246Y-71526256D01*
X136729032Y-71516532D01*
X136730878Y-71505278D01*
X136732295Y-71495027D01*
X136733428Y-71484047D01*
X136733969Y-71473061D01*
X136733978Y-71471652D01*
X136733671Y-71460351D01*
X136732750Y-71449621D01*
X136731215Y-71439463D01*
X136729066Y-71429875D01*
X136725246Y-71417980D01*
X136720335Y-71407099D01*
X136714332Y-71397234D01*
X136707237Y-71388384D01*
X136699051Y-71380549D01*
X136690045Y-71373680D01*
X136680367Y-71367727D01*
X136670017Y-71362689D01*
X136658995Y-71358568D01*
X136647302Y-71355362D01*
X136634937Y-71353072D01*
X136625223Y-71351956D01*
X136615131Y-71351355D01*
X136608193Y-71351240D01*
X136598175Y-71351481D01*
X136588394Y-71352202D01*
X136576500Y-71353780D01*
X136564976Y-71356109D01*
X136553822Y-71359189D01*
X136543037Y-71363021D01*
X136534676Y-71366628D01*
X136524580Y-71371704D01*
X136514903Y-71377318D01*
X136505642Y-71383468D01*
X136496799Y-71390155D01*
X136488373Y-71397379D01*
X136480365Y-71405139D01*
X136477279Y-71408393D01*
X136469825Y-71416863D01*
X136462729Y-71425786D01*
X136455991Y-71435162D01*
X136449610Y-71444991D01*
X136443588Y-71455274D01*
X136437923Y-71466010D01*
X136435757Y-71470431D01*
X136431620Y-71479330D01*
X136427758Y-71488322D01*
X136423317Y-71499689D01*
X136419305Y-71511200D01*
X136415723Y-71522854D01*
X136412570Y-71534651D01*
X136410356Y-71544192D01*
X136346364Y-71846076D01*
X136510496Y-71846076D01*
X136510496Y-71966000D01*
X136047411Y-71966000D01*
X136047411Y-71846076D01*
X136220579Y-71846076D01*
X136320475Y-71376886D01*
G37*
G36*
X137386428Y-71231508D02*
G01*
X137397835Y-71232081D01*
X137409091Y-71233036D01*
X137420197Y-71234374D01*
X137431153Y-71236093D01*
X137441959Y-71238195D01*
X137452614Y-71240679D01*
X137463119Y-71243544D01*
X137473474Y-71246792D01*
X137483678Y-71250422D01*
X137490398Y-71253055D01*
X137500301Y-71257239D01*
X137509950Y-71261733D01*
X137519346Y-71266536D01*
X137528488Y-71271648D01*
X137537378Y-71277069D01*
X137546014Y-71282799D01*
X137554397Y-71288838D01*
X137562526Y-71295187D01*
X137570402Y-71301844D01*
X137578025Y-71308811D01*
X137582966Y-71313627D01*
X137590147Y-71321044D01*
X137597037Y-71328731D01*
X137603634Y-71336688D01*
X137609940Y-71344917D01*
X137615953Y-71353415D01*
X137621675Y-71362184D01*
X137627104Y-71371224D01*
X137632242Y-71380534D01*
X137637088Y-71390115D01*
X137641642Y-71399966D01*
X137644515Y-71406683D01*
X137648531Y-71416896D01*
X137652152Y-71427294D01*
X137655377Y-71437877D01*
X137658208Y-71448644D01*
X137660644Y-71459595D01*
X137662685Y-71470731D01*
X137664330Y-71482052D01*
X137665581Y-71493558D01*
X137666437Y-71505248D01*
X137666898Y-71517122D01*
X137666986Y-71525141D01*
X137666870Y-71536168D01*
X137666524Y-71547146D01*
X137665947Y-71558074D01*
X137665138Y-71568952D01*
X137664099Y-71579781D01*
X137662830Y-71590560D01*
X137661329Y-71601290D01*
X137659597Y-71611969D01*
X137657635Y-71622600D01*
X137655441Y-71633180D01*
X137653017Y-71643712D01*
X137650362Y-71654193D01*
X137647476Y-71664625D01*
X137644359Y-71675007D01*
X137641011Y-71685340D01*
X137637432Y-71695623D01*
X137633662Y-71705779D01*
X137629677Y-71715792D01*
X137625480Y-71725662D01*
X137621068Y-71735388D01*
X137616443Y-71744972D01*
X137611603Y-71754413D01*
X137606551Y-71763710D01*
X137601284Y-71772864D01*
X137595804Y-71781876D01*
X137590110Y-71790744D01*
X137584202Y-71799469D01*
X137578081Y-71808051D01*
X137571746Y-71816489D01*
X137565197Y-71824785D01*
X137558435Y-71832938D01*
X137551459Y-71840947D01*
X137544304Y-71848788D01*
X137536945Y-71856434D01*
X137529382Y-71863885D01*
X137521615Y-71871142D01*
X137513644Y-71878204D01*
X137505469Y-71885071D01*
X137497089Y-71891744D01*
X137488505Y-71898222D01*
X137479717Y-71904506D01*
X137470725Y-71910595D01*
X137461529Y-71916489D01*
X137452128Y-71922188D01*
X137442524Y-71927693D01*
X137432715Y-71933004D01*
X137422702Y-71938120D01*
X137412484Y-71943041D01*
X137402109Y-71947714D01*
X137391560Y-71952085D01*
X137380837Y-71956155D01*
X137369940Y-71959924D01*
X137358870Y-71963391D01*
X137347627Y-71966557D01*
X137336209Y-71969421D01*
X137324618Y-71971983D01*
X137312853Y-71974245D01*
X137300915Y-71976204D01*
X137288803Y-71977862D01*
X137276518Y-71979219D01*
X137264058Y-71980274D01*
X137251425Y-71981028D01*
X137238619Y-71981480D01*
X137225639Y-71981631D01*
X137214387Y-71981449D01*
X137203256Y-71980901D01*
X137192245Y-71979989D01*
X137181354Y-71978712D01*
X137170584Y-71977069D01*
X137159934Y-71975062D01*
X137149403Y-71972690D01*
X137138994Y-71969953D01*
X137128704Y-71966851D01*
X137118534Y-71963384D01*
X137111822Y-71960870D01*
X137101913Y-71956830D01*
X137092244Y-71952493D01*
X137082816Y-71947859D01*
X137073628Y-71942930D01*
X137064681Y-71937704D01*
X137055974Y-71932182D01*
X137047507Y-71926364D01*
X137039281Y-71920250D01*
X137031296Y-71913839D01*
X137023551Y-71907132D01*
X137018521Y-71902496D01*
X137011202Y-71895300D01*
X137004175Y-71887816D01*
X136997441Y-71880044D01*
X136990998Y-71871985D01*
X136984847Y-71863638D01*
X136978988Y-71855004D01*
X136973421Y-71846081D01*
X136968146Y-71836871D01*
X136963163Y-71827374D01*
X136958471Y-71817589D01*
X136955506Y-71810905D01*
X136951359Y-71800633D01*
X136947621Y-71790151D01*
X136944290Y-71779459D01*
X136941367Y-71768556D01*
X136938852Y-71757443D01*
X136936744Y-71746119D01*
X136935045Y-71734585D01*
X136933753Y-71722840D01*
X136932870Y-71710886D01*
X136932394Y-71698721D01*
X136932303Y-71690494D01*
X136932423Y-71679258D01*
X137063461Y-71679258D01*
X137063650Y-71689247D01*
X137064217Y-71699000D01*
X137065776Y-71713190D01*
X137068184Y-71726852D01*
X137071443Y-71739986D01*
X137075551Y-71752592D01*
X137080510Y-71764670D01*
X137086319Y-71776220D01*
X137092978Y-71787242D01*
X137100487Y-71797735D01*
X137108846Y-71807701D01*
X137111822Y-71810905D01*
X137121250Y-71819984D01*
X137131399Y-71828170D01*
X137142270Y-71835463D01*
X137153862Y-71841863D01*
X137166175Y-71847370D01*
X137179210Y-71851984D01*
X137192966Y-71855705D01*
X137202537Y-71857689D01*
X137212429Y-71859277D01*
X137222641Y-71860468D01*
X137233174Y-71861261D01*
X137244028Y-71861658D01*
X137249575Y-71861708D01*
X137261262Y-71861463D01*
X137272787Y-71860729D01*
X137284149Y-71859505D01*
X137295347Y-71857792D01*
X137306382Y-71855590D01*
X137317255Y-71852898D01*
X137327964Y-71849717D01*
X137338509Y-71846046D01*
X137348892Y-71841885D01*
X137359112Y-71837236D01*
X137365834Y-71833864D01*
X137375730Y-71828487D01*
X137385360Y-71822796D01*
X137394724Y-71816792D01*
X137403822Y-71810474D01*
X137412653Y-71803843D01*
X137421218Y-71796899D01*
X137429517Y-71789641D01*
X137437550Y-71782069D01*
X137445317Y-71774185D01*
X137452817Y-71765987D01*
X137457669Y-71760347D01*
X137464709Y-71751624D01*
X137471448Y-71742673D01*
X137477887Y-71733494D01*
X137484025Y-71724088D01*
X137489862Y-71714455D01*
X137495399Y-71704594D01*
X137500636Y-71694505D01*
X137505572Y-71684189D01*
X137510207Y-71673645D01*
X137514542Y-71662874D01*
X137517265Y-71655567D01*
X137521106Y-71644494D01*
X137524569Y-71633347D01*
X137527655Y-71622128D01*
X137530362Y-71610836D01*
X137532692Y-71599471D01*
X137534644Y-71588033D01*
X137536218Y-71576522D01*
X137537415Y-71564937D01*
X137538233Y-71553280D01*
X137538674Y-71541550D01*
X137538758Y-71533690D01*
X137538565Y-71523876D01*
X137537554Y-71509564D01*
X137535674Y-71495740D01*
X137532928Y-71482407D01*
X137529315Y-71469563D01*
X137524834Y-71457208D01*
X137519486Y-71445342D01*
X137513270Y-71433967D01*
X137506188Y-71423080D01*
X137498238Y-71412683D01*
X137489421Y-71402775D01*
X137479862Y-71393566D01*
X137469594Y-71385262D01*
X137458618Y-71377863D01*
X137446934Y-71371371D01*
X137434541Y-71365785D01*
X137421440Y-71361104D01*
X137407631Y-71357330D01*
X137398031Y-71355317D01*
X137388116Y-71353706D01*
X137377887Y-71352498D01*
X137367342Y-71351693D01*
X137356483Y-71351291D01*
X137350935Y-71351240D01*
X137340002Y-71351468D01*
X137329185Y-71352150D01*
X137318484Y-71353288D01*
X137307899Y-71354881D01*
X137297430Y-71356929D01*
X137287076Y-71359432D01*
X137276839Y-71362390D01*
X137266717Y-71365803D01*
X137256712Y-71369672D01*
X137246822Y-71373995D01*
X137240293Y-71377130D01*
X137230694Y-71382154D01*
X137221314Y-71387517D01*
X137212153Y-71393219D01*
X137203210Y-71399261D01*
X137194487Y-71405641D01*
X137185983Y-71412361D01*
X137177697Y-71419420D01*
X137169631Y-71426818D01*
X137161783Y-71434555D01*
X137154155Y-71442632D01*
X137149191Y-71448205D01*
X137142001Y-71456760D01*
X137135086Y-71465573D01*
X137128445Y-71474643D01*
X137122080Y-71483971D01*
X137115989Y-71493557D01*
X137110173Y-71503400D01*
X137104632Y-71513501D01*
X137099365Y-71523859D01*
X137094373Y-71534475D01*
X137089657Y-71545348D01*
X137086665Y-71552741D01*
X137082518Y-71563938D01*
X137078779Y-71575272D01*
X137075448Y-71586744D01*
X137072525Y-71598353D01*
X137070010Y-71610100D01*
X137067903Y-71621983D01*
X137066203Y-71634005D01*
X137064912Y-71646163D01*
X137064028Y-71658460D01*
X137063552Y-71670893D01*
X137063461Y-71679258D01*
X136932423Y-71679258D01*
X136932439Y-71677770D01*
X136932849Y-71665184D01*
X136933531Y-71652735D01*
X136934486Y-71640424D01*
X136935714Y-71628250D01*
X136937215Y-71616213D01*
X136938988Y-71604314D01*
X136941035Y-71592552D01*
X136943354Y-71580928D01*
X136945946Y-71569441D01*
X136948811Y-71558091D01*
X136951949Y-71546879D01*
X136955360Y-71535804D01*
X136959044Y-71524866D01*
X136963000Y-71514066D01*
X136967230Y-71503404D01*
X136971726Y-71492877D01*
X136976423Y-71482547D01*
X136981320Y-71472414D01*
X136986418Y-71462478D01*
X136991716Y-71452737D01*
X136997214Y-71443194D01*
X137002913Y-71433847D01*
X137008812Y-71424696D01*
X137014912Y-71415742D01*
X137021211Y-71406985D01*
X137027711Y-71398424D01*
X137034412Y-71390060D01*
X137041313Y-71381892D01*
X137048414Y-71373920D01*
X137055715Y-71366146D01*
X137063217Y-71358568D01*
X137070924Y-71351161D01*
X137078780Y-71343963D01*
X137086785Y-71336972D01*
X137094938Y-71330190D01*
X137103241Y-71323615D01*
X137111692Y-71317249D01*
X137120292Y-71311090D01*
X137129041Y-71305139D01*
X137137938Y-71299397D01*
X137146985Y-71293862D01*
X137156180Y-71288536D01*
X137165524Y-71283417D01*
X137175017Y-71278506D01*
X137184659Y-71273804D01*
X137194450Y-71269309D01*
X137204390Y-71265023D01*
X137214472Y-71260941D01*
X137224631Y-71257123D01*
X137234867Y-71253568D01*
X137245178Y-71250276D01*
X137255566Y-71247248D01*
X137266030Y-71244483D01*
X137276571Y-71241982D01*
X137287188Y-71239743D01*
X137297881Y-71237768D01*
X137308651Y-71236057D01*
X137319497Y-71234609D01*
X137330419Y-71233424D01*
X137341417Y-71232502D01*
X137352492Y-71231844D01*
X137363644Y-71231449D01*
X137374871Y-71231317D01*
X137386428Y-71231508D01*
G37*
G36*
X138096364Y-70965581D02*
G01*
X137956413Y-71626502D01*
X137954520Y-71637478D01*
X137952750Y-71648178D01*
X137951101Y-71658605D01*
X137949575Y-71668756D01*
X137948399Y-71678633D01*
X137947478Y-71689415D01*
X137946982Y-71699850D01*
X137946888Y-71706614D01*
X137947533Y-71725395D01*
X137949468Y-71742964D01*
X137952692Y-71759321D01*
X137957207Y-71774467D01*
X137963012Y-71788402D01*
X137970106Y-71801124D01*
X137978491Y-71812635D01*
X137988165Y-71822934D01*
X137999129Y-71832022D01*
X138011383Y-71839898D01*
X138024927Y-71846562D01*
X138039761Y-71852014D01*
X138055885Y-71856255D01*
X138073299Y-71859284D01*
X138092002Y-71861102D01*
X138101838Y-71861556D01*
X138111996Y-71861708D01*
X138124677Y-71861474D01*
X138137073Y-71860773D01*
X138149185Y-71859604D01*
X138161012Y-71857968D01*
X138172556Y-71855864D01*
X138183815Y-71853293D01*
X138194790Y-71850254D01*
X138205480Y-71846748D01*
X138215886Y-71842774D01*
X138226008Y-71838333D01*
X138235845Y-71833424D01*
X138245398Y-71828048D01*
X138254667Y-71822204D01*
X138263652Y-71815893D01*
X138272352Y-71809114D01*
X138280768Y-71801868D01*
X138288880Y-71794130D01*
X138296670Y-71785935D01*
X138304138Y-71777285D01*
X138311283Y-71768178D01*
X138318105Y-71758615D01*
X138324606Y-71748597D01*
X138330783Y-71738122D01*
X138336638Y-71727191D01*
X138342171Y-71715804D01*
X138347381Y-71703961D01*
X138352269Y-71691662D01*
X138356834Y-71678907D01*
X138361077Y-71665696D01*
X138364997Y-71652029D01*
X138368595Y-71637906D01*
X138371870Y-71623327D01*
X138510845Y-70965581D01*
X138644934Y-70965581D01*
X138505227Y-71625281D01*
X138502847Y-71636292D01*
X138500347Y-71647132D01*
X138497727Y-71657799D01*
X138494988Y-71668294D01*
X138492129Y-71678617D01*
X138489150Y-71688768D01*
X138486051Y-71698746D01*
X138482833Y-71708552D01*
X138479495Y-71718186D01*
X138476037Y-71727648D01*
X138472460Y-71736938D01*
X138468762Y-71746055D01*
X138461009Y-71763773D01*
X138452776Y-71780802D01*
X138444064Y-71797143D01*
X138434874Y-71812794D01*
X138425204Y-71827757D01*
X138415056Y-71842031D01*
X138404428Y-71855616D01*
X138393322Y-71868512D01*
X138381736Y-71880720D01*
X138369672Y-71892238D01*
X138357065Y-71903063D01*
X138343851Y-71913190D01*
X138330030Y-71922618D01*
X138315603Y-71931348D01*
X138300569Y-71939379D01*
X138284928Y-71946712D01*
X138268680Y-71953347D01*
X138251825Y-71959283D01*
X138234364Y-71964521D01*
X138216295Y-71969060D01*
X138197620Y-71972901D01*
X138178338Y-71976044D01*
X138168470Y-71977353D01*
X138158450Y-71978488D01*
X138148278Y-71979449D01*
X138137954Y-71980234D01*
X138127479Y-71980845D01*
X138116852Y-71981282D01*
X138106074Y-71981544D01*
X138095143Y-71981631D01*
X138083684Y-71981479D01*
X138072389Y-71981021D01*
X138061256Y-71980259D01*
X138050287Y-71979192D01*
X138039480Y-71977821D01*
X138028837Y-71976144D01*
X138018357Y-71974163D01*
X138008040Y-71971877D01*
X137997886Y-71969286D01*
X137987896Y-71966390D01*
X137981326Y-71964290D01*
X137971703Y-71960892D01*
X137962341Y-71957203D01*
X137953241Y-71953222D01*
X137944403Y-71948948D01*
X137933027Y-71942796D01*
X137922116Y-71936126D01*
X137911671Y-71928936D01*
X137901691Y-71921227D01*
X137892177Y-71912999D01*
X137883148Y-71904275D01*
X137874622Y-71895077D01*
X137866601Y-71885407D01*
X137859083Y-71875263D01*
X137852068Y-71864646D01*
X137845558Y-71853556D01*
X137839551Y-71841993D01*
X137835376Y-71833010D01*
X137834048Y-71829956D01*
X137830294Y-71820612D01*
X137826909Y-71810988D01*
X137823894Y-71801086D01*
X137821248Y-71790904D01*
X137818971Y-71780443D01*
X137817063Y-71769704D01*
X137815525Y-71758685D01*
X137814356Y-71747387D01*
X137813556Y-71735810D01*
X137813125Y-71723954D01*
X137813043Y-71715895D01*
X137813136Y-71705376D01*
X137813417Y-71694764D01*
X137813884Y-71684058D01*
X137814539Y-71673259D01*
X137814997Y-71667046D01*
X137816204Y-71655876D01*
X137817629Y-71646042D01*
X137819415Y-71635967D01*
X137821562Y-71625651D01*
X137824069Y-71615096D01*
X137824522Y-71613313D01*
X137962275Y-70965581D01*
X138096364Y-70965581D01*
G37*
G36*
X139317334Y-71269419D02*
G01*
X139319161Y-71259453D01*
X139320813Y-71248563D01*
X139321952Y-71238469D01*
X139322624Y-71227905D01*
X139322708Y-71223013D01*
X139322350Y-71211057D01*
X139321277Y-71199614D01*
X139319488Y-71188684D01*
X139316983Y-71178267D01*
X139313763Y-71168362D01*
X139309828Y-71158971D01*
X139308053Y-71155357D01*
X139303193Y-71146596D01*
X139297773Y-71138323D01*
X139291792Y-71130538D01*
X139285251Y-71123243D01*
X139278149Y-71116437D01*
X139270487Y-71110120D01*
X139267265Y-71107730D01*
X139258889Y-71102080D01*
X139250096Y-71096882D01*
X139240886Y-71092138D01*
X139231258Y-71087847D01*
X139221213Y-71084009D01*
X139210750Y-71080625D01*
X139206448Y-71079398D01*
X139195555Y-71076654D01*
X139184400Y-71074375D01*
X139172982Y-71072561D01*
X139161301Y-71071212D01*
X139149359Y-71070328D01*
X139137154Y-71069910D01*
X139132198Y-71069872D01*
X139120864Y-71070044D01*
X139109575Y-71070559D01*
X139098333Y-71071418D01*
X139087136Y-71072620D01*
X139075984Y-71074166D01*
X139064879Y-71076055D01*
X139053819Y-71078287D01*
X139042806Y-71080863D01*
X139031971Y-71083779D01*
X139021450Y-71087031D01*
X139011241Y-71090618D01*
X139001345Y-71094541D01*
X138991763Y-71098800D01*
X138982493Y-71103395D01*
X138973536Y-71108325D01*
X138964892Y-71113592D01*
X138956611Y-71119152D01*
X138948741Y-71124965D01*
X138939485Y-71132584D01*
X138930872Y-71140597D01*
X138922903Y-71149004D01*
X138915578Y-71157804D01*
X138910182Y-71165127D01*
X138904201Y-71174677D01*
X138899234Y-71184705D01*
X138895280Y-71195209D01*
X138892340Y-71206191D01*
X138890414Y-71217649D01*
X138889502Y-71229584D01*
X138889421Y-71234492D01*
X138889791Y-71246236D01*
X138890900Y-71257347D01*
X138892748Y-71267826D01*
X138895336Y-71277674D01*
X138898664Y-71286889D01*
X138903632Y-71297113D01*
X138904564Y-71298728D01*
X138910749Y-71308079D01*
X138917948Y-71316897D01*
X138926160Y-71325184D01*
X138933777Y-71331682D01*
X138942097Y-71337811D01*
X138949260Y-71342448D01*
X138958906Y-71347947D01*
X138969220Y-71353147D01*
X138980201Y-71358050D01*
X138989467Y-71361758D01*
X138999160Y-71365274D01*
X139009281Y-71368600D01*
X139019830Y-71371735D01*
X139022533Y-71372489D01*
X139033673Y-71375386D01*
X139045233Y-71378214D01*
X139057212Y-71380973D01*
X139069611Y-71383663D01*
X139079186Y-71385636D01*
X139088997Y-71387570D01*
X139099044Y-71389466D01*
X139109327Y-71391323D01*
X139119847Y-71393141D01*
X139123406Y-71393739D01*
X139139651Y-71396593D01*
X139155352Y-71399784D01*
X139170509Y-71403310D01*
X139185123Y-71407172D01*
X139199192Y-71411370D01*
X139212718Y-71415904D01*
X139225700Y-71420773D01*
X139238139Y-71425979D01*
X139250033Y-71431520D01*
X139261384Y-71437397D01*
X139272191Y-71443610D01*
X139282454Y-71450159D01*
X139292173Y-71457043D01*
X139301348Y-71464264D01*
X139309980Y-71471820D01*
X139318067Y-71479712D01*
X139325639Y-71487932D01*
X139332722Y-71496473D01*
X139339316Y-71505335D01*
X139345422Y-71514517D01*
X139351040Y-71524019D01*
X139356169Y-71533842D01*
X139360810Y-71543986D01*
X139364962Y-71554450D01*
X139368625Y-71565235D01*
X139371801Y-71576341D01*
X139374487Y-71587767D01*
X139376685Y-71599513D01*
X139378395Y-71611580D01*
X139379616Y-71623968D01*
X139380349Y-71636676D01*
X139380593Y-71649705D01*
X139380471Y-71659708D01*
X139380105Y-71669565D01*
X139379097Y-71684079D01*
X139377540Y-71698267D01*
X139375434Y-71712129D01*
X139372778Y-71725665D01*
X139369572Y-71738874D01*
X139365817Y-71751757D01*
X139361512Y-71764313D01*
X139356658Y-71776543D01*
X139351254Y-71788447D01*
X139349330Y-71792343D01*
X139343306Y-71803760D01*
X139336865Y-71814837D01*
X139330008Y-71825575D01*
X139322735Y-71835975D01*
X139315044Y-71846035D01*
X139306938Y-71855755D01*
X139298415Y-71865137D01*
X139289476Y-71874179D01*
X139280120Y-71882883D01*
X139270347Y-71891247D01*
X139263601Y-71896635D01*
X139253175Y-71904375D01*
X139242415Y-71911750D01*
X139231319Y-71918760D01*
X139219889Y-71925406D01*
X139208124Y-71931686D01*
X139196024Y-71937601D01*
X139183589Y-71943152D01*
X139170819Y-71948338D01*
X139157715Y-71953158D01*
X139144275Y-71957614D01*
X139135129Y-71960382D01*
X139121238Y-71964179D01*
X139107131Y-71967603D01*
X139092810Y-71970654D01*
X139083143Y-71972480D01*
X139073381Y-71974140D01*
X139063524Y-71975634D01*
X139053571Y-71976962D01*
X139043522Y-71978124D01*
X139033379Y-71979120D01*
X139023140Y-71979950D01*
X139012805Y-71980614D01*
X139002375Y-71981112D01*
X138991850Y-71981444D01*
X138981229Y-71981610D01*
X138975883Y-71981631D01*
X138965790Y-71981551D01*
X138955844Y-71981310D01*
X138946044Y-71980910D01*
X138931621Y-71980008D01*
X138917528Y-71978746D01*
X138903766Y-71977123D01*
X138890334Y-71975140D01*
X138877233Y-71972795D01*
X138864462Y-71970091D01*
X138852022Y-71967025D01*
X138839913Y-71963599D01*
X138832024Y-71961115D01*
X138820485Y-71957078D01*
X138809315Y-71952754D01*
X138798514Y-71948142D01*
X138788083Y-71943243D01*
X138778021Y-71938056D01*
X138768328Y-71932581D01*
X138759004Y-71926819D01*
X138750050Y-71920769D01*
X138741465Y-71914431D01*
X138733249Y-71907806D01*
X138727976Y-71903229D01*
X138720372Y-71896102D01*
X138713127Y-71888735D01*
X138706244Y-71881127D01*
X138699721Y-71873279D01*
X138693558Y-71865190D01*
X138687757Y-71856861D01*
X138682315Y-71848292D01*
X138677235Y-71839482D01*
X138672515Y-71830431D01*
X138668156Y-71821141D01*
X138665450Y-71814813D01*
X138661696Y-71805152D01*
X138658312Y-71795310D01*
X138655297Y-71785288D01*
X138652650Y-71775086D01*
X138650374Y-71764703D01*
X138648466Y-71754140D01*
X138646927Y-71743396D01*
X138645758Y-71732473D01*
X138644958Y-71721369D01*
X138644527Y-71710085D01*
X138644445Y-71702461D01*
X138644583Y-71692138D01*
X138644995Y-71681686D01*
X138645682Y-71671103D01*
X138646644Y-71660391D01*
X138647880Y-71649549D01*
X138649391Y-71638577D01*
X138651177Y-71627475D01*
X138653238Y-71616244D01*
X138663008Y-71568128D01*
X138796853Y-71568128D01*
X138788060Y-71611359D01*
X138786114Y-71621632D01*
X138784427Y-71631692D01*
X138783000Y-71641538D01*
X138781581Y-71653545D01*
X138780567Y-71665218D01*
X138779959Y-71676557D01*
X138779756Y-71687563D01*
X138779966Y-71698524D01*
X138780596Y-71709121D01*
X138781645Y-71719353D01*
X138783114Y-71729221D01*
X138786105Y-71743340D01*
X138790041Y-71756639D01*
X138794921Y-71769117D01*
X138800746Y-71780776D01*
X138807515Y-71791614D01*
X138815228Y-71801633D01*
X138823887Y-71810831D01*
X138833489Y-71819210D01*
X138843996Y-71826804D01*
X138855365Y-71833652D01*
X138867598Y-71839753D01*
X138880693Y-71845107D01*
X138894651Y-71849714D01*
X138904436Y-71852370D01*
X138914605Y-71854694D01*
X138925157Y-71856686D01*
X138936093Y-71858346D01*
X138947412Y-71859674D01*
X138959114Y-71860670D01*
X138971201Y-71861334D01*
X138983670Y-71861666D01*
X138990049Y-71861708D01*
X139002330Y-71861494D01*
X139014504Y-71860853D01*
X139026571Y-71859784D01*
X139038531Y-71858288D01*
X139050385Y-71856365D01*
X139062131Y-71854014D01*
X139073771Y-71851236D01*
X139085304Y-71848030D01*
X139096665Y-71844435D01*
X139107667Y-71840489D01*
X139118311Y-71836192D01*
X139128596Y-71831544D01*
X139138522Y-71826544D01*
X139148089Y-71821194D01*
X139157298Y-71815492D01*
X139166148Y-71809440D01*
X139174601Y-71802986D01*
X139182619Y-71796205D01*
X139190202Y-71789095D01*
X139197350Y-71781657D01*
X139204063Y-71773891D01*
X139210341Y-71765797D01*
X139216184Y-71757374D01*
X139221591Y-71748623D01*
X139226457Y-71739579D01*
X139230674Y-71730275D01*
X139234242Y-71720711D01*
X139237162Y-71710888D01*
X139239432Y-71700805D01*
X139241054Y-71690463D01*
X139242028Y-71679861D01*
X139242352Y-71669000D01*
X139242078Y-71657538D01*
X139241255Y-71646661D01*
X139239883Y-71636367D01*
X139237963Y-71626658D01*
X139234935Y-71615779D01*
X139231117Y-71605741D01*
X139226489Y-71596399D01*
X139220847Y-71587606D01*
X139214192Y-71579363D01*
X139206525Y-71571669D01*
X139197843Y-71564525D01*
X139194725Y-71562266D01*
X139186446Y-71556761D01*
X139177332Y-71551542D01*
X139167383Y-71546610D01*
X139156600Y-71541963D01*
X139147372Y-71538452D01*
X139137610Y-71535125D01*
X139127314Y-71531980D01*
X139116532Y-71528908D01*
X139105194Y-71525920D01*
X139093299Y-71523015D01*
X139080846Y-71520195D01*
X139071141Y-71518135D01*
X139061123Y-71516122D01*
X139050791Y-71514157D01*
X139040146Y-71512238D01*
X139029187Y-71510367D01*
X139025464Y-71509754D01*
X139014335Y-71507801D01*
X139003385Y-71505698D01*
X138992616Y-71503445D01*
X138982027Y-71501041D01*
X138971619Y-71498487D01*
X138961391Y-71495783D01*
X138951343Y-71492929D01*
X138941475Y-71489924D01*
X138931788Y-71486770D01*
X138922281Y-71483464D01*
X138916043Y-71481177D01*
X138906863Y-71477594D01*
X138894983Y-71472495D01*
X138883515Y-71467030D01*
X138872459Y-71461199D01*
X138861815Y-71455001D01*
X138851584Y-71448437D01*
X138841765Y-71441507D01*
X138832357Y-71434210D01*
X138830070Y-71432329D01*
X138821220Y-71424502D01*
X138812866Y-71416285D01*
X138805008Y-71407679D01*
X138797647Y-71398684D01*
X138790781Y-71389300D01*
X138784412Y-71379527D01*
X138778539Y-71369364D01*
X138773161Y-71358812D01*
X138768410Y-71347832D01*
X138764292Y-71336387D01*
X138760808Y-71324477D01*
X138757957Y-71312100D01*
X138755740Y-71299259D01*
X138754493Y-71289322D01*
X138753602Y-71279123D01*
X138753067Y-71268662D01*
X138752889Y-71257939D01*
X138753155Y-71244295D01*
X138753954Y-71230929D01*
X138755285Y-71217842D01*
X138757148Y-71205034D01*
X138759544Y-71192506D01*
X138762472Y-71180256D01*
X138765932Y-71168285D01*
X138769925Y-71156594D01*
X138774450Y-71145182D01*
X138779508Y-71134048D01*
X138783175Y-71126781D01*
X138789093Y-71116139D01*
X138795397Y-71105827D01*
X138802087Y-71095845D01*
X138809164Y-71086195D01*
X138816628Y-71076875D01*
X138824477Y-71067885D01*
X138832713Y-71059226D01*
X138841336Y-71050898D01*
X138850345Y-71042900D01*
X138859740Y-71035233D01*
X138866218Y-71030305D01*
X138876269Y-71023183D01*
X138886637Y-71016378D01*
X138897323Y-71009890D01*
X138908327Y-71003721D01*
X138919648Y-70997869D01*
X138931288Y-70992335D01*
X138943245Y-70987119D01*
X138955519Y-70982220D01*
X138968112Y-70977639D01*
X138981022Y-70973376D01*
X138989805Y-70970710D01*
X139003178Y-70967000D01*
X139016735Y-70963655D01*
X139030478Y-70960674D01*
X139044405Y-70958059D01*
X139058516Y-70955808D01*
X139072812Y-70953923D01*
X139087293Y-70952402D01*
X139097049Y-70951591D01*
X139106888Y-70950943D01*
X139116808Y-70950456D01*
X139126810Y-70950132D01*
X139136895Y-70949970D01*
X139141968Y-70949949D01*
X139155757Y-70950125D01*
X139169279Y-70950653D01*
X139182536Y-70951533D01*
X139195526Y-70952766D01*
X139208250Y-70954350D01*
X139220708Y-70956286D01*
X139232899Y-70958575D01*
X139244825Y-70961215D01*
X139256484Y-70964207D01*
X139267877Y-70967552D01*
X139275325Y-70969977D01*
X139286244Y-70973815D01*
X139296837Y-70977911D01*
X139307104Y-70982265D01*
X139317044Y-70986876D01*
X139326659Y-70991744D01*
X139335947Y-70996871D01*
X139344908Y-71002254D01*
X139353543Y-71007896D01*
X139361852Y-71013795D01*
X139369835Y-71019952D01*
X139374976Y-71024199D01*
X139382413Y-71030716D01*
X139389519Y-71037443D01*
X139398479Y-71046739D01*
X139406852Y-71056410D01*
X139414638Y-71066454D01*
X139421835Y-71076873D01*
X139428445Y-71087665D01*
X139434467Y-71098831D01*
X139437258Y-71104555D01*
X139442410Y-71116126D01*
X139446875Y-71127880D01*
X139450653Y-71139818D01*
X139453744Y-71151938D01*
X139456148Y-71164242D01*
X139457866Y-71176729D01*
X139458896Y-71189399D01*
X139459240Y-71202252D01*
X139459066Y-71212130D01*
X139458547Y-71221951D01*
X139457774Y-71230829D01*
X139456704Y-71240597D01*
X139455171Y-71250422D01*
X139453378Y-71259405D01*
X139440921Y-71315581D01*
X139306588Y-71315581D01*
X139317334Y-71269419D01*
G37*
G36*
X140051549Y-70965846D02*
G01*
X140067183Y-70966642D01*
X140082309Y-70967968D01*
X140096927Y-70969825D01*
X140111038Y-70972212D01*
X140124641Y-70975129D01*
X140137737Y-70978577D01*
X140150325Y-70982556D01*
X140162405Y-70987065D01*
X140173978Y-70992104D01*
X140185043Y-70997674D01*
X140195601Y-71003774D01*
X140205651Y-71010405D01*
X140215194Y-71017566D01*
X140224229Y-71025258D01*
X140232757Y-71033480D01*
X140240801Y-71042081D01*
X140248327Y-71050970D01*
X140255334Y-71060148D01*
X140261822Y-71069613D01*
X140267790Y-71079366D01*
X140273240Y-71089408D01*
X140278171Y-71099738D01*
X140282582Y-71110356D01*
X140286475Y-71121262D01*
X140289848Y-71132456D01*
X140292703Y-71143938D01*
X140295039Y-71155709D01*
X140296855Y-71167767D01*
X140298153Y-71180114D01*
X140298931Y-71192749D01*
X140299191Y-71205672D01*
X140298939Y-71216521D01*
X140298183Y-71227333D01*
X140296924Y-71238106D01*
X140295161Y-71248841D01*
X140292894Y-71259539D01*
X140290123Y-71270197D01*
X140286849Y-71280818D01*
X140283071Y-71291401D01*
X140278896Y-71301835D01*
X140274308Y-71312009D01*
X140269309Y-71321923D01*
X140263898Y-71331579D01*
X140258074Y-71340974D01*
X140251838Y-71350111D01*
X140245190Y-71358987D01*
X140238130Y-71367605D01*
X140230707Y-71375958D01*
X140222850Y-71384045D01*
X140214557Y-71391865D01*
X140205829Y-71399417D01*
X140196666Y-71406702D01*
X140187068Y-71413721D01*
X140177035Y-71420472D01*
X140166567Y-71426956D01*
X140155893Y-71433012D01*
X140145119Y-71438603D01*
X140134247Y-71443728D01*
X140123275Y-71448388D01*
X140112204Y-71452582D01*
X140101033Y-71456310D01*
X140089764Y-71459573D01*
X140078395Y-71462371D01*
X140078395Y-71466034D01*
X140088731Y-71469318D01*
X140098671Y-71473216D01*
X140108217Y-71477727D01*
X140117367Y-71482853D01*
X140126123Y-71488592D01*
X140134483Y-71494946D01*
X140142449Y-71501913D01*
X140150019Y-71509494D01*
X140157195Y-71517690D01*
X140163976Y-71526499D01*
X140168277Y-71532713D01*
X140174344Y-71542371D01*
X140179814Y-71552296D01*
X140184688Y-71562487D01*
X140188965Y-71572944D01*
X140192645Y-71583667D01*
X140195728Y-71594657D01*
X140198215Y-71605913D01*
X140200104Y-71617434D01*
X140201397Y-71629222D01*
X140202094Y-71641277D01*
X140202226Y-71649461D01*
X140201984Y-71662374D01*
X140201256Y-71675103D01*
X140200043Y-71687648D01*
X140198345Y-71700008D01*
X140196162Y-71712183D01*
X140193494Y-71724173D01*
X140190340Y-71735979D01*
X140186702Y-71747601D01*
X140182578Y-71759037D01*
X140177969Y-71770289D01*
X140174627Y-71777688D01*
X140169320Y-71788531D01*
X140163656Y-71799078D01*
X140157636Y-71809328D01*
X140151260Y-71819282D01*
X140144527Y-71828940D01*
X140137438Y-71838302D01*
X140129993Y-71847367D01*
X140122191Y-71856136D01*
X140114033Y-71864609D01*
X140105519Y-71872786D01*
X140099644Y-71878072D01*
X140090551Y-71885740D01*
X140081131Y-71893082D01*
X140071386Y-71900097D01*
X140061313Y-71906786D01*
X140050915Y-71913149D01*
X140040190Y-71919185D01*
X140029139Y-71924895D01*
X140017762Y-71930279D01*
X140006058Y-71935337D01*
X139994028Y-71940068D01*
X139985827Y-71943041D01*
X139973364Y-71947144D01*
X139960703Y-71950843D01*
X139947844Y-71954139D01*
X139934788Y-71957031D01*
X139921534Y-71959520D01*
X139908083Y-71961605D01*
X139894435Y-71963287D01*
X139880589Y-71964565D01*
X139866546Y-71965439D01*
X139852305Y-71965910D01*
X139842701Y-71966000D01*
X139477558Y-71966000D01*
X139477558Y-71846076D01*
X139571836Y-71846076D01*
X139705925Y-71846076D01*
X139858088Y-71846076D01*
X139869304Y-71845859D01*
X139880360Y-71845206D01*
X139891256Y-71844119D01*
X139901991Y-71842596D01*
X139912566Y-71840638D01*
X139922980Y-71838245D01*
X139933235Y-71835417D01*
X139943329Y-71832154D01*
X139953236Y-71828487D01*
X139962807Y-71824446D01*
X139972043Y-71820030D01*
X139980942Y-71815241D01*
X139989506Y-71810077D01*
X139997734Y-71804540D01*
X140005626Y-71798628D01*
X140013182Y-71792343D01*
X140020429Y-71785725D01*
X140028920Y-71777046D01*
X140036778Y-71767913D01*
X140044003Y-71758327D01*
X140050597Y-71748288D01*
X140056559Y-71737795D01*
X140059833Y-71731282D01*
X140063783Y-71722333D01*
X140067979Y-71710878D01*
X140070744Y-71701500D01*
X140072982Y-71691930D01*
X140074694Y-71682170D01*
X140075879Y-71672219D01*
X140076537Y-71662077D01*
X140076685Y-71654346D01*
X140076348Y-71642742D01*
X140075337Y-71631654D01*
X140073652Y-71621081D01*
X140071293Y-71611023D01*
X140068260Y-71601480D01*
X140063167Y-71589558D01*
X140056876Y-71578552D01*
X140049386Y-71568462D01*
X140040699Y-71559287D01*
X140038339Y-71557137D01*
X140028276Y-71549180D01*
X140017258Y-71542284D01*
X140008369Y-71537808D01*
X139998943Y-71533929D01*
X139988980Y-71530647D01*
X139978481Y-71527961D01*
X139967445Y-71525873D01*
X139955872Y-71524381D01*
X139943763Y-71523486D01*
X139931117Y-71523187D01*
X139771626Y-71523187D01*
X139705925Y-71846076D01*
X139571836Y-71846076D01*
X139664124Y-71403264D01*
X139798737Y-71403264D01*
X139955053Y-71403264D01*
X139965273Y-71403058D01*
X139975416Y-71402440D01*
X139985484Y-71401409D01*
X139995475Y-71399967D01*
X140005389Y-71398112D01*
X140015228Y-71395845D01*
X140024990Y-71393166D01*
X140034676Y-71390075D01*
X140044243Y-71386594D01*
X140053528Y-71382748D01*
X140062531Y-71378534D01*
X140071251Y-71373955D01*
X140079689Y-71369009D01*
X140089839Y-71362311D01*
X140099548Y-71355041D01*
X140103308Y-71351973D01*
X140112322Y-71343907D01*
X140120739Y-71335281D01*
X140128560Y-71326095D01*
X140135785Y-71316348D01*
X140141135Y-71308147D01*
X140146104Y-71299587D01*
X140150691Y-71290668D01*
X140154813Y-71281402D01*
X140158385Y-71271800D01*
X140161407Y-71261863D01*
X140163880Y-71251589D01*
X140165804Y-71240980D01*
X140167177Y-71230035D01*
X140168002Y-71218754D01*
X140168277Y-71207137D01*
X140167940Y-71196683D01*
X140166928Y-71186664D01*
X140164532Y-71173978D01*
X140160937Y-71162064D01*
X140156144Y-71150920D01*
X140150152Y-71140547D01*
X140142962Y-71130946D01*
X140134574Y-71122115D01*
X140129930Y-71117988D01*
X140119821Y-71110375D01*
X140108666Y-71103776D01*
X140099614Y-71099494D01*
X140089973Y-71095782D01*
X140079744Y-71092642D01*
X140068927Y-71090072D01*
X140057522Y-71088074D01*
X140045528Y-71086646D01*
X140032947Y-71085790D01*
X140019777Y-71085504D01*
X139864438Y-71085504D01*
X139798737Y-71403264D01*
X139664124Y-71403264D01*
X139730349Y-71085504D01*
X139639247Y-71085504D01*
X139639247Y-70965581D01*
X140035408Y-70965581D01*
X140051549Y-70965846D01*
G37*
D13*
%TO.C,Q4*%
X133720400Y-90881200D02*
X133720400Y-92556200D01*
X133720400Y-90881200D02*
X133720400Y-90231200D01*
X136840400Y-90881200D02*
X136840400Y-91531200D01*
X136840400Y-90881200D02*
X136840400Y-90231200D01*
%TO.C,TP2*%
X122150000Y-58674000D02*
G75*
G03*
X122150000Y-58674000I-1500000J0D01*
G01*
%TO.C,TP3*%
X155627200Y-57150000D02*
G75*
G03*
X155627200Y-57150000I-1500000J0D01*
G01*
%TO.C,R4*%
X117789336Y-79633400D02*
X119243464Y-79633400D01*
X117789336Y-81453400D02*
X119243464Y-81453400D01*
%TO.C,J1*%
X179242000Y-72508000D02*
X177972000Y-72508000D01*
X179242000Y-72508000D02*
X179242000Y-73778000D01*
X177972000Y-72508000D02*
X179242000Y-72508000D01*
X179242000Y-73778000D02*
X177972000Y-72508000D01*
D14*
X179750000Y-72000000D02*
X161850000Y-72000000D01*
X161850000Y-72000000D02*
X161850000Y-87200000D01*
X161850000Y-87200000D02*
X179750000Y-87200000D01*
X179750000Y-87200000D02*
X179750000Y-72000000D01*
D13*
%TO.C,J6*%
X179242000Y-88508000D02*
X177972000Y-88508000D01*
X179242000Y-88508000D02*
X179242000Y-89778000D01*
X177972000Y-88508000D02*
X179242000Y-88508000D01*
X179242000Y-89778000D02*
X177972000Y-88508000D01*
D14*
X179750000Y-88000000D02*
X161850000Y-88000000D01*
X161850000Y-88000000D02*
X161850000Y-103200000D01*
X161850000Y-103200000D02*
X179750000Y-103200000D01*
X179750000Y-103200000D02*
X179750000Y-88000000D01*
D13*
%TO.C,Q3*%
X139664000Y-90853500D02*
X139664000Y-92528500D01*
X139664000Y-90853500D02*
X139664000Y-90203500D01*
X142784000Y-90853500D02*
X142784000Y-91503500D01*
X142784000Y-90853500D02*
X142784000Y-90203500D01*
%TO.C,C2*%
X146574637Y-56371500D02*
X147860200Y-56371500D01*
X146574637Y-56371500D02*
X145510200Y-55307063D01*
X151265763Y-56371500D02*
X149980200Y-56371500D01*
X151265763Y-56371500D02*
X152330200Y-55307063D01*
X145510200Y-55307063D02*
X145510200Y-49551500D01*
X152330200Y-55307063D02*
X152330200Y-49551500D01*
X145510200Y-49551500D02*
X147860200Y-49551500D01*
X152330200Y-49551500D02*
X149980200Y-49551500D01*
%TO.C,kibuzzard-638A219C*%
G36*
X98966075Y-121728053D02*
G01*
X98712710Y-121728053D01*
X98838440Y-121467068D01*
X98966075Y-121728053D01*
G37*
G36*
X101119677Y-121609943D02*
G01*
X101153015Y-121680428D01*
X101080625Y-121741388D01*
X100840595Y-121741388D01*
X100901555Y-121633756D01*
X101024427Y-121583273D01*
X101119677Y-121609943D01*
G37*
G36*
X103354242Y-121689953D02*
G01*
X103399010Y-121805206D01*
X103352337Y-121918553D01*
X103235180Y-121969988D01*
X103115165Y-121919506D01*
X103065635Y-121806158D01*
X103112307Y-121689953D01*
X103234227Y-121636613D01*
X103354242Y-121689953D01*
G37*
G36*
X100073912Y-124052172D02*
G01*
X100117549Y-124108947D01*
X100132094Y-124189182D01*
X100116610Y-124269886D01*
X100070158Y-124328069D01*
X99946286Y-124374990D01*
X99824291Y-124329007D01*
X99779247Y-124271763D01*
X99764232Y-124191997D01*
X99778778Y-124111997D01*
X99822414Y-124054049D01*
X99948163Y-124007128D01*
X100073912Y-124052172D01*
G37*
G36*
X104037813Y-124052172D02*
G01*
X104081450Y-124108947D01*
X104095996Y-124189182D01*
X104080512Y-124269886D01*
X104034060Y-124328069D01*
X103910188Y-124374990D01*
X103788193Y-124329007D01*
X103743148Y-124271763D01*
X103728134Y-124191997D01*
X103742679Y-124111997D01*
X103786316Y-124054049D01*
X103912065Y-124007128D01*
X104037813Y-124052172D01*
G37*
G36*
X105403644Y-120675257D02*
G01*
X105508216Y-120682970D01*
X105612283Y-120695806D01*
X105715595Y-120713732D01*
X105817903Y-120736706D01*
X105918960Y-120764672D01*
X106018524Y-120797564D01*
X106116353Y-120835301D01*
X106212213Y-120877793D01*
X106305873Y-120924937D01*
X106397106Y-120976620D01*
X106485694Y-121032718D01*
X106571423Y-121093094D01*
X106654085Y-121157605D01*
X106733483Y-121226094D01*
X106809424Y-121298396D01*
X106881726Y-121374337D01*
X106950215Y-121453735D01*
X107014726Y-121536398D01*
X107075103Y-121622126D01*
X107131200Y-121710714D01*
X107182883Y-121801947D01*
X107230028Y-121895607D01*
X107272519Y-121991467D01*
X107310257Y-122089297D01*
X107343148Y-122188860D01*
X107371114Y-122289917D01*
X107394088Y-122392225D01*
X107412014Y-122495537D01*
X107424850Y-122599604D01*
X107432564Y-122704176D01*
X107435137Y-122809000D01*
X107432564Y-122913824D01*
X107424850Y-123018396D01*
X107412014Y-123122463D01*
X107394088Y-123225775D01*
X107371114Y-123328083D01*
X107343148Y-123429140D01*
X107310257Y-123528703D01*
X107272519Y-123626533D01*
X107230028Y-123722393D01*
X107182883Y-123816053D01*
X107131200Y-123907286D01*
X107075103Y-123995874D01*
X107014726Y-124081602D01*
X106950215Y-124164265D01*
X106881726Y-124243663D01*
X106809424Y-124319604D01*
X106733483Y-124391906D01*
X106654085Y-124460395D01*
X106571423Y-124524906D01*
X106485694Y-124585282D01*
X106397106Y-124641380D01*
X106305873Y-124693063D01*
X106212213Y-124740207D01*
X106116353Y-124782699D01*
X106018524Y-124820436D01*
X105918960Y-124853328D01*
X105817903Y-124881294D01*
X105715595Y-124904268D01*
X105612283Y-124922194D01*
X105508216Y-124935030D01*
X105403644Y-124942743D01*
X105298820Y-124945317D01*
X105060695Y-124945317D01*
X104940577Y-124945317D01*
X103912065Y-124945317D01*
X102729651Y-124945317D01*
X102247301Y-124945317D01*
X101408350Y-124945317D01*
X99948163Y-124945317D01*
X98875545Y-124945317D01*
X98139305Y-124945317D01*
X97901180Y-124945317D01*
X97796356Y-124942743D01*
X97691784Y-124935030D01*
X97587717Y-124922194D01*
X97484405Y-124904268D01*
X97382097Y-124881294D01*
X97281040Y-124853328D01*
X97181476Y-124820436D01*
X97083647Y-124782699D01*
X96987787Y-124740207D01*
X96894127Y-124693063D01*
X96802893Y-124641380D01*
X96714306Y-124585282D01*
X96628577Y-124524906D01*
X96545915Y-124460395D01*
X96466517Y-124391906D01*
X96390576Y-124319604D01*
X96318273Y-124243663D01*
X96249785Y-124164265D01*
X96185274Y-124081602D01*
X96124897Y-123995874D01*
X96123704Y-123993990D01*
X98157651Y-123993990D01*
X98170085Y-124134988D01*
X98207387Y-124265194D01*
X98263927Y-124378743D01*
X98334074Y-124469771D01*
X98415952Y-124543437D01*
X98507683Y-124604904D01*
X98602933Y-124652294D01*
X98695368Y-124683731D01*
X98785925Y-124701327D01*
X98875545Y-124707192D01*
X98966337Y-124699684D01*
X99060414Y-124677162D01*
X99187102Y-124628364D01*
X99251853Y-124588950D01*
X99310973Y-124542029D01*
X99336311Y-124476340D01*
X99295020Y-124371236D01*
X99229800Y-124292408D01*
X99169272Y-124266133D01*
X99079183Y-124303670D01*
X99045400Y-124328069D01*
X98971264Y-124358098D01*
X98861469Y-124373113D01*
X98739943Y-124352468D01*
X98623109Y-124290532D01*
X98545622Y-124194812D01*
X99432030Y-124194812D01*
X99451972Y-124337218D01*
X99511796Y-124464140D01*
X99600712Y-124568774D01*
X99707927Y-124644317D01*
X99826168Y-124690066D01*
X99948163Y-124705315D01*
X100069924Y-124691004D01*
X100187461Y-124648071D01*
X100294207Y-124574874D01*
X100339698Y-124521384D01*
X100586291Y-124521384D01*
X100589106Y-124586135D01*
X100605060Y-124635872D01*
X100654327Y-124673878D01*
X100749577Y-124686546D01*
X100845765Y-124673878D01*
X100894094Y-124635872D01*
X100911924Y-124588012D01*
X100914739Y-124523261D01*
X100914739Y-124191059D01*
X100960722Y-124072817D01*
X101080840Y-124027773D01*
X101199082Y-124070941D01*
X101243188Y-124191059D01*
X101243188Y-124521384D01*
X101254449Y-124617103D01*
X101303247Y-124669186D01*
X101408350Y-124686546D01*
X101505008Y-124673878D01*
X101554744Y-124635872D01*
X101570698Y-124588012D01*
X101573513Y-124523261D01*
X101573513Y-124192936D01*
X101559645Y-124062286D01*
X101518042Y-123945609D01*
X101479747Y-123888886D01*
X101676739Y-123888886D01*
X101703954Y-123997743D01*
X101772459Y-124029650D01*
X101849409Y-124024019D01*
X101849409Y-124301793D01*
X101860671Y-124428376D01*
X101894454Y-124527849D01*
X101950759Y-124600211D01*
X102028753Y-124649218D01*
X102127600Y-124678622D01*
X102247301Y-124688423D01*
X102310175Y-124685608D01*
X102359912Y-124669655D01*
X102399326Y-124620388D01*
X102405474Y-124575812D01*
X102566365Y-124575812D01*
X102600148Y-124656517D01*
X102729651Y-124688423D01*
X102825370Y-124676224D01*
X102876045Y-124639625D01*
X102893875Y-124589889D01*
X102896690Y-124525138D01*
X102896690Y-124194812D01*
X103395932Y-124194812D01*
X103415873Y-124337218D01*
X103475698Y-124464140D01*
X103564613Y-124568774D01*
X103671828Y-124644317D01*
X103790070Y-124690066D01*
X103912065Y-124705315D01*
X104033825Y-124691004D01*
X104151363Y-124648071D01*
X104258108Y-124574874D01*
X104347493Y-124469771D01*
X104408022Y-124340033D01*
X104414554Y-124292408D01*
X104550193Y-124292408D01*
X104563331Y-124466017D01*
X104602744Y-124585197D01*
X104671249Y-124647602D01*
X104790429Y-124680916D01*
X104940577Y-124689362D01*
X105023158Y-124669655D01*
X105051311Y-124620388D01*
X105060695Y-124525138D01*
X105023158Y-124391881D01*
X104991252Y-124375928D01*
X104939639Y-124373113D01*
X104889902Y-124355283D01*
X104878641Y-124269886D01*
X104878641Y-123400906D01*
X104875826Y-123335216D01*
X104857996Y-123284541D01*
X104808259Y-123246535D01*
X104715355Y-123233867D01*
X104618698Y-123246535D01*
X104568961Y-123284541D01*
X104553008Y-123334278D01*
X104550193Y-123399029D01*
X104550193Y-124292408D01*
X104414554Y-124292408D01*
X104428198Y-124192936D01*
X104410889Y-124051651D01*
X104358963Y-123928092D01*
X104272419Y-123822258D01*
X104163354Y-123741450D01*
X104043861Y-123692964D01*
X103913941Y-123676803D01*
X103783813Y-123693069D01*
X103663695Y-123741867D01*
X103594272Y-123793145D01*
X103553587Y-123823197D01*
X103466001Y-123929551D01*
X103413449Y-124053423D01*
X103395932Y-124194812D01*
X102896690Y-124194812D01*
X102896690Y-124131000D01*
X102940796Y-124044665D01*
X103035577Y-124009005D01*
X103117220Y-124024019D01*
X103181971Y-124039034D01*
X103285198Y-123967714D01*
X103320858Y-123836335D01*
X103297397Y-123749061D01*
X103238276Y-123710586D01*
X103172587Y-123694633D01*
X103098451Y-123689941D01*
X102996163Y-123721847D01*
X102920151Y-123772522D01*
X102892937Y-123804428D01*
X102872291Y-123742492D01*
X102823024Y-123710117D01*
X102731528Y-123699325D01*
X102634870Y-123711993D01*
X102585134Y-123750000D01*
X102569180Y-123797859D01*
X102566365Y-123862610D01*
X102566365Y-124521384D01*
X102566365Y-124575812D01*
X102405474Y-124575812D01*
X102412464Y-124525138D01*
X102369296Y-124399389D01*
X102319560Y-124381559D01*
X102251993Y-124378743D01*
X102191934Y-124356221D01*
X102175981Y-124283024D01*
X102175981Y-124024019D01*
X102297976Y-124031527D01*
X102362727Y-124028711D01*
X102412464Y-124012758D01*
X102450470Y-123963491D01*
X102463139Y-123868241D01*
X102450939Y-123772053D01*
X102440795Y-123758657D01*
X102414340Y-123723724D01*
X102364604Y-123705894D01*
X102300791Y-123703078D01*
X102175981Y-123710586D01*
X102175981Y-123526655D01*
X102166597Y-123430936D01*
X102116391Y-123378853D01*
X102014572Y-123361492D01*
X101918384Y-123373223D01*
X101870055Y-123408413D01*
X101852225Y-123453458D01*
X101849409Y-123517271D01*
X101849409Y-123710586D01*
X101787473Y-123703078D01*
X101712400Y-123727477D01*
X101686124Y-123777214D01*
X101676739Y-123888886D01*
X101479747Y-123888886D01*
X101448703Y-123842904D01*
X101358510Y-123763138D01*
X101254345Y-123715278D01*
X101027285Y-123732728D01*
X101136207Y-123699325D01*
X101027285Y-123732727D01*
X100995444Y-123742492D01*
X100944769Y-123781906D01*
X100910986Y-123819443D01*
X100892217Y-123742492D01*
X100843889Y-123710117D01*
X100751454Y-123699325D01*
X100656204Y-123711055D01*
X100606937Y-123746246D01*
X100589106Y-123794106D01*
X100586291Y-123856980D01*
X100586291Y-124521384D01*
X100339698Y-124521384D01*
X100383592Y-124469771D01*
X100444120Y-124340033D01*
X100464296Y-124192936D01*
X100446987Y-124051651D01*
X100395061Y-123928092D01*
X100308518Y-123822258D01*
X100199452Y-123741450D01*
X100079960Y-123692964D01*
X99950040Y-123676803D01*
X99819912Y-123693069D01*
X99809990Y-123697100D01*
X99699794Y-123741867D01*
X99589685Y-123823197D01*
X99502099Y-123929551D01*
X99449547Y-124053423D01*
X99432030Y-124194812D01*
X98545622Y-124194812D01*
X98527390Y-124172290D01*
X98499237Y-124092290D01*
X98489853Y-124002436D01*
X98499237Y-123912582D01*
X98527390Y-123832581D01*
X98621232Y-123716216D01*
X98740412Y-123652873D01*
X98861469Y-123631758D01*
X98979710Y-123647711D01*
X99071675Y-123695571D01*
X99167395Y-123736862D01*
X99229331Y-123711524D01*
X99298774Y-123635512D01*
X99338188Y-123531347D01*
X99327072Y-123511040D01*
X99289390Y-123442197D01*
X99236838Y-123408413D01*
X99191794Y-123382138D01*
X99053845Y-123326771D01*
X98963522Y-123306360D01*
X98874606Y-123299556D01*
X98750943Y-123310817D01*
X98627697Y-123344601D01*
X98504868Y-123400906D01*
X98412667Y-123459792D01*
X98331259Y-123531347D01*
X98262050Y-123619559D01*
X98206449Y-123728416D01*
X98169850Y-123854399D01*
X98157651Y-123993990D01*
X96123704Y-123993990D01*
X96068800Y-123907286D01*
X96017117Y-123816053D01*
X95969972Y-123722393D01*
X95927481Y-123626533D01*
X95889743Y-123528703D01*
X95856852Y-123429140D01*
X95828886Y-123328083D01*
X95805912Y-123225775D01*
X95787986Y-123122463D01*
X95775150Y-123018396D01*
X95767436Y-122913824D01*
X95764863Y-122809000D01*
X95767436Y-122704176D01*
X95775150Y-122599604D01*
X95787986Y-122495537D01*
X95805912Y-122392225D01*
X95828886Y-122289917D01*
X95856852Y-122188860D01*
X95863078Y-122170013D01*
X98139305Y-122170013D01*
X98166927Y-122234783D01*
X98249795Y-122291933D01*
X98351712Y-122324318D01*
X98412672Y-122306221D01*
X98446962Y-122270978D01*
X98476490Y-122215733D01*
X98575550Y-122009993D01*
X99103235Y-122009993D01*
X99202295Y-122215733D01*
X99231822Y-122272883D01*
X99266112Y-122309078D01*
X99327072Y-122326223D01*
X99428990Y-122293838D01*
X99511857Y-122235260D01*
X99529802Y-122192873D01*
X99644255Y-122192873D01*
X99678545Y-122274788D01*
X99809990Y-122307173D01*
X99907145Y-122294791D01*
X99958580Y-122257643D01*
X99976677Y-122207161D01*
X99979535Y-122141438D01*
X99979535Y-121809968D01*
X100486265Y-121809968D01*
X100499600Y-121932947D01*
X100539605Y-122047882D01*
X100606280Y-122154773D01*
X100679384Y-122226925D01*
X100776777Y-122283361D01*
X100894173Y-122319794D01*
X101027285Y-122331938D01*
X101204807Y-122321342D01*
X101331608Y-122289552D01*
X101407689Y-122236569D01*
X101433050Y-122162393D01*
X101426051Y-122137628D01*
X101606405Y-122137628D01*
X101609262Y-122203351D01*
X101625455Y-122253833D01*
X101675461Y-122292410D01*
X101772140Y-122305268D01*
X101869771Y-122292410D01*
X101918825Y-122253833D01*
X101936922Y-122205256D01*
X101939780Y-122139533D01*
X101939780Y-121802348D01*
X101986452Y-121682333D01*
X102108372Y-121636613D01*
X102228387Y-121680428D01*
X102273155Y-121802348D01*
X102273155Y-122137628D01*
X102284585Y-122234783D01*
X102334115Y-122287647D01*
X102440795Y-122305268D01*
X102538902Y-122292410D01*
X102589385Y-122253833D01*
X102605577Y-122205256D01*
X102608435Y-122139533D01*
X102608435Y-121804253D01*
X102608334Y-121803301D01*
X102732260Y-121803301D01*
X102747923Y-121930618D01*
X102794913Y-122047141D01*
X102873230Y-122152868D01*
X102969855Y-122236477D01*
X103071773Y-122286642D01*
X103178982Y-122303363D01*
X103320190Y-122278122D01*
X103414250Y-122202398D01*
X103455207Y-122277646D01*
X103594272Y-122303363D01*
X103678807Y-122290981D01*
X103724765Y-122253833D01*
X103740957Y-122203351D01*
X103743815Y-122137628D01*
X103743815Y-121470878D01*
X103740957Y-121405156D01*
X103723812Y-121354673D01*
X103673330Y-121314668D01*
X103562840Y-121303238D01*
X103455683Y-121329908D01*
X103412345Y-121409918D01*
X103378055Y-121370866D01*
X103303760Y-121328003D01*
X103185650Y-121305143D01*
X103075689Y-121321759D01*
X102971866Y-121371607D01*
X102874182Y-121454686D01*
X102795336Y-121559884D01*
X102748029Y-121676089D01*
X102732260Y-121803301D01*
X102608334Y-121803301D01*
X102594359Y-121671644D01*
X102552131Y-121553217D01*
X102481752Y-121448971D01*
X102390206Y-121368008D01*
X102284479Y-121319431D01*
X102164570Y-121303238D01*
X102021695Y-121347053D01*
X101970260Y-121387058D01*
X101935970Y-121425158D01*
X101916920Y-121347053D01*
X101867866Y-121314192D01*
X101774045Y-121303238D01*
X101677366Y-121315145D01*
X101627360Y-121350863D01*
X101609262Y-121399441D01*
X101606405Y-121463258D01*
X101606405Y-122137628D01*
X101426051Y-122137628D01*
X101408285Y-122074763D01*
X101303510Y-121989038D01*
X101227310Y-122009993D01*
X101206355Y-122017613D01*
X101131583Y-122034758D01*
X101033000Y-122040473D01*
X100907270Y-122004278D01*
X100844405Y-121914743D01*
X101295890Y-121914743D01*
X101424477Y-121858546D01*
X101468054Y-121787108D01*
X101482580Y-121685191D01*
X101466387Y-121572558D01*
X101417810Y-121468973D01*
X101347087Y-121387296D01*
X101258742Y-121328956D01*
X101152777Y-121293951D01*
X101029190Y-121282283D01*
X100882822Y-121298264D01*
X100753600Y-121346207D01*
X100641522Y-121426111D01*
X100555268Y-121532685D01*
X100503515Y-121660637D01*
X100486265Y-121809968D01*
X99979535Y-121809968D01*
X99979535Y-121741388D01*
X100024302Y-121653758D01*
X100120505Y-121617563D01*
X100203372Y-121632803D01*
X100269095Y-121648043D01*
X100373870Y-121575653D01*
X100410065Y-121442303D01*
X100386252Y-121353721D01*
X100326245Y-121314668D01*
X100259570Y-121298476D01*
X100184322Y-121293713D01*
X100080500Y-121326098D01*
X100003347Y-121377533D01*
X99975725Y-121409918D01*
X99954770Y-121347053D01*
X99904763Y-121314192D01*
X99811895Y-121303238D01*
X99713787Y-121316097D01*
X99663305Y-121354673D01*
X99647112Y-121403251D01*
X99644255Y-121468973D01*
X99644255Y-122137628D01*
X99644255Y-122192873D01*
X99529802Y-122192873D01*
X99539480Y-122170013D01*
X99507095Y-122072858D01*
X98992745Y-121009868D01*
X98929880Y-120935573D01*
X98840345Y-120910808D01*
X98749857Y-120937478D01*
X98686040Y-121007963D01*
X98171690Y-122072858D01*
X98139305Y-122170013D01*
X95863078Y-122170013D01*
X95889743Y-122089297D01*
X95927481Y-121991467D01*
X95969972Y-121895607D01*
X96017117Y-121801947D01*
X96068800Y-121710714D01*
X96124897Y-121622126D01*
X96185274Y-121536398D01*
X96249785Y-121453735D01*
X96318273Y-121374337D01*
X96390576Y-121298396D01*
X96466517Y-121226094D01*
X96545915Y-121157605D01*
X96628577Y-121093094D01*
X96714306Y-121032718D01*
X96802893Y-120976620D01*
X96894127Y-120924937D01*
X96987787Y-120877793D01*
X97083647Y-120835301D01*
X97181476Y-120797564D01*
X97281040Y-120764672D01*
X97382097Y-120736706D01*
X97484405Y-120713732D01*
X97587717Y-120695806D01*
X97691784Y-120682970D01*
X97796356Y-120675257D01*
X97901180Y-120672683D01*
X98139305Y-120672683D01*
X105060695Y-120672683D01*
X105298820Y-120672683D01*
X105403644Y-120675257D01*
G37*
%TO.C,J4*%
X90758000Y-119492000D02*
X92028000Y-119492000D01*
X90758000Y-119492000D02*
X90758000Y-118222000D01*
X92028000Y-119492000D02*
X90758000Y-119492000D01*
X90758000Y-118222000D02*
X92028000Y-119492000D01*
D14*
X90250000Y-120000000D02*
X108150000Y-120000000D01*
X108150000Y-120000000D02*
X108150000Y-104800000D01*
X108150000Y-104800000D02*
X90250000Y-104800000D01*
X90250000Y-104800000D02*
X90250000Y-120000000D01*
D13*
%TO.C,J9*%
X121236800Y-40149600D02*
X121236800Y-54849600D01*
X112036800Y-40149600D02*
X121236800Y-40149600D01*
X112036800Y-48949600D02*
X112036800Y-40149600D01*
X121436800Y-53999600D02*
X121436800Y-55049600D01*
X121236800Y-54849600D02*
X118636800Y-54849600D01*
X114736800Y-54849600D02*
X112036800Y-54849600D01*
X112036800Y-54849600D02*
X112036800Y-52949600D01*
X120386800Y-55049600D02*
X121436800Y-55049600D01*
%TO.C,J2*%
X90758000Y-86692000D02*
X92028000Y-86692000D01*
X90758000Y-86692000D02*
X90758000Y-85422000D01*
X92028000Y-86692000D02*
X90758000Y-86692000D01*
X90758000Y-85422000D02*
X92028000Y-86692000D01*
D14*
X90250000Y-87200000D02*
X108150000Y-87200000D01*
X108150000Y-87200000D02*
X108150000Y-72000000D01*
X108150000Y-72000000D02*
X90250000Y-72000000D01*
X90250000Y-72000000D02*
X90250000Y-87200000D01*
D13*
%TO.C,TP1*%
X112294800Y-60452000D02*
G75*
G03*
X112294800Y-60452000I-1500000J0D01*
G01*
%TO.C,L1*%
X143320600Y-52509336D02*
X143320600Y-53713464D01*
X140600600Y-52509336D02*
X140600600Y-53713464D01*
%TO.C,C1*%
X127778637Y-56623000D02*
X129064200Y-56623000D01*
X127778637Y-56623000D02*
X126714200Y-55558563D01*
X132469763Y-56623000D02*
X131184200Y-56623000D01*
X132469763Y-56623000D02*
X133534200Y-55558563D01*
X126714200Y-55558563D02*
X126714200Y-49803000D01*
X133534200Y-55558563D02*
X133534200Y-49803000D01*
X126714200Y-49803000D02*
X129064200Y-49803000D01*
X133534200Y-49803000D02*
X131184200Y-49803000D01*
%TO.C,R1*%
X128812936Y-93227000D02*
X130267064Y-93227000D01*
X128812936Y-95047000D02*
X130267064Y-95047000D01*
%TO.C,Q2*%
X153380000Y-80137000D02*
X153380000Y-81812000D01*
X153380000Y-80137000D02*
X153380000Y-79487000D01*
X156500000Y-80137000D02*
X156500000Y-80787000D01*
X156500000Y-80137000D02*
X156500000Y-79487000D01*
%TO.C,Q5*%
X115826300Y-71572600D02*
X117501300Y-71572600D01*
X115826300Y-71572600D02*
X115176300Y-71572600D01*
X115826300Y-68452600D02*
X116476300Y-68452600D01*
X115826300Y-68452600D02*
X115176300Y-68452600D01*
%TO.C,U2*%
X134265200Y-53418700D02*
X134265200Y-56943700D01*
X134265200Y-53418700D02*
X134265200Y-51538700D01*
X139445200Y-53418700D02*
X139445200Y-55298700D01*
X139445200Y-53418700D02*
X139445200Y-51538700D01*
%TO.C,D1*%
X125637800Y-51053800D02*
X123637800Y-51053800D01*
X125637800Y-51053800D02*
X125637800Y-54913800D01*
X123637800Y-51053800D02*
X123637800Y-54913800D01*
%TO.C,Q1*%
X127980000Y-91010500D02*
X127980000Y-92685500D01*
X127980000Y-91010500D02*
X127980000Y-90360500D01*
X131100000Y-91010500D02*
X131100000Y-91660500D01*
X131100000Y-91010500D02*
X131100000Y-90360500D01*
%TO.C,R2*%
X140496936Y-93070000D02*
X141951064Y-93070000D01*
X140496936Y-94890000D02*
X141951064Y-94890000D01*
%TO.C,J5*%
X90758000Y-102692000D02*
X92028000Y-102692000D01*
X90758000Y-102692000D02*
X90758000Y-101422000D01*
X92028000Y-102692000D02*
X90758000Y-102692000D01*
X90758000Y-101422000D02*
X92028000Y-102692000D01*
D14*
X90250000Y-103200000D02*
X108150000Y-103200000D01*
X108150000Y-103200000D02*
X108150000Y-88000000D01*
X108150000Y-88000000D02*
X90250000Y-88000000D01*
X90250000Y-88000000D02*
X90250000Y-103200000D01*
D13*
%TO.C,TP4*%
X156389200Y-52984400D02*
G75*
G03*
X156389200Y-52984400I-1500000J0D01*
G01*
%TO.C,R5*%
X155138800Y-84413736D02*
X155138800Y-85867864D01*
X153318800Y-84413736D02*
X153318800Y-85867864D01*
D15*
%TO.C,U3*%
X122372000Y-69521000D02*
X133441000Y-69521000D01*
X122372000Y-69521000D02*
X150882000Y-69521000D01*
X122372000Y-120471000D02*
X122372000Y-69521000D01*
X122372000Y-120471000D02*
X122372000Y-69521000D01*
X122372000Y-120471000D02*
X127742000Y-120471000D01*
D13*
X122682000Y-72644000D02*
X122682000Y-70866000D01*
X124460000Y-70866000D02*
X122682000Y-70866000D01*
X127742000Y-120471000D02*
X127742000Y-125984000D01*
X127742000Y-125984000D02*
X145415000Y-125984000D01*
D15*
X133441000Y-69521000D02*
X140152000Y-69521000D01*
X133441000Y-73411000D02*
X133441000Y-72014000D01*
X133441000Y-71506000D02*
X133441000Y-71506000D01*
X133441000Y-70998000D02*
X133441000Y-70998000D01*
X133441000Y-70490000D02*
X133441000Y-69521000D01*
X140152000Y-69521000D02*
X140152000Y-70918000D01*
X140152000Y-71426000D02*
X140152000Y-71426000D01*
X140152000Y-71934000D02*
X140152000Y-71934000D01*
X140152000Y-72442000D02*
X140152000Y-73411000D01*
X140152000Y-69521000D02*
X150882000Y-69521000D01*
X140152000Y-73411000D02*
X138755000Y-73411000D01*
X138247000Y-73411000D02*
X138247000Y-73411000D01*
X137739000Y-73411000D02*
X137739000Y-73411000D01*
X137231000Y-73411000D02*
X135834000Y-73411000D01*
X135326000Y-73411000D02*
X135326000Y-73411000D01*
X134818000Y-73411000D02*
X134818000Y-73411000D01*
X134310000Y-73411000D02*
X133441000Y-73411000D01*
D13*
X145415000Y-125984000D02*
X145415000Y-120471000D01*
D15*
X145432000Y-120471000D02*
X150882000Y-120471000D01*
X150882000Y-69521000D02*
X150882000Y-120471000D01*
X150882000Y-69521000D02*
X150882000Y-120471000D01*
D13*
%TO.C,R3*%
X134553336Y-93245500D02*
X136007464Y-93245500D01*
X134553336Y-95065500D02*
X136007464Y-95065500D01*
%TD*%
M02*
