M48
; DRILL file {KiCad 7.0.2} date Tue Jun  6 21:00:26 2023
; FORMAT={-:-/ absolute / inch / decimal}
; #@! TF.CreationDate,2023-06-06T21:00:26-04:00
; #@! TF.GenerationSoftware,Kicad,Pcbnew,7.0.2
; #@! TF.FileFunction,Plated,1,2,PTH
FMAT,2
INCH
; #@! TA.AperFunction,Plated,PTH,ViaDrill
T1C0.0157
; #@! TA.AperFunction,Plated,PTH,ComponentDrill
T2C0.0300
; #@! TA.AperFunction,Plated,PTH,ComponentDrill
T3C0.0394
; #@! TA.AperFunction,Plated,PTH,ComponentDrill
T4C0.0402
%
G90
G05
T1
X3.83Y-3.055
X3.878Y-3.886
X3.96Y-2.496
X3.985Y-3.02
X4.05Y-2.25
X4.08Y-1.82
X4.128Y-2.524
X4.184Y-4.17
X4.192Y-3.542
X4.198Y-1.88
X4.2Y-3.294
X4.202Y-2.906
X4.22Y-2.27
X4.262Y-2.736
X4.284Y-4.788
X4.32Y-4.904
X4.34Y-3.815
X4.354Y-4.102
X4.355Y-3.615
X4.398Y-2.873
X4.43Y-2.0
X4.4439Y-3.3351
X4.46Y-2.31
X4.4831Y-3.0538
X4.51Y-4.186
X4.532Y-4.412
X4.535Y-3.211
X4.546Y-1.874
X4.564Y-2.47
X4.572Y-4.102
X4.578Y-5.196
X4.604Y-2.937
X4.616Y-3.258
X4.628Y-4.34
X4.682Y-2.919
X4.685Y-3.67
X4.716Y-2.685
X4.718Y-3.49
X4.725Y-3.81
X4.735Y-3.955
X4.74Y-4.42
X4.778Y-2.468
X4.816Y-2.242
X4.842Y-1.986
X4.862Y-2.184
X4.902Y-2.242
X4.918Y-1.83
X5.006Y-3.174
X5.014Y-2.962
X5.0374Y-2.6585
X5.0846Y-4.436
X5.1Y-2.92
X5.102Y-5.208
X5.126Y-2.625
X5.138Y-2.494
X5.152Y-3.98
X5.18Y-3.49
X5.18Y-4.218
X5.196Y-3.22
X5.232Y-3.082
X5.234Y-4.38
X5.27Y-1.81
X5.272Y-4.054
X5.308Y-2.486
X5.32Y-3.48
X5.35Y-3.884
X5.364Y-4.37
X5.37Y-2.22
X5.396Y-3.056
X5.422Y-4.244
X5.542Y-5.168
X5.676Y-4.37
X5.694Y-2.97
X5.704Y-3.24
X5.7569Y-3.9911
X5.7707Y-3.8209
X5.786Y-2.45
X5.822Y-2.186
X5.908Y-1.824
X5.984Y-3.492
X6.018Y-3.798
X6.03Y-4.622
X6.044Y-2.531
X6.073Y-2.998
X6.078Y-3.954
X6.09Y-5.16
X6.091Y-2.827
X6.15Y-3.74
X6.158Y-2.44
X6.285Y-2.805
X6.295Y-3.86
X6.296Y-4.912
X6.335Y-2.985
X6.35Y-2.68
X6.35Y-2.885
X6.366Y-2.186
X6.384Y-4.074
X6.388Y-3.5
X6.424Y-1.92
X6.475Y-2.86
X6.49Y-4.662
X6.525Y-2.915
X6.541Y-2.322
X6.585Y-4.134
X6.59Y-2.78
X6.596Y-3.19
X6.656Y-2.436
X6.787Y-4.756
X6.814Y-3.711
X6.835Y-2.947
T2
X4.1043Y-2.9589
X4.1043Y-3.0589
X4.1043Y-3.1589
X4.1043Y-3.2589
X4.1043Y-3.5888
X4.1043Y-3.6888
X4.1043Y-3.7888
X4.1043Y-3.8888
X4.1043Y-4.2502
X4.1043Y-4.3502
X4.1043Y-4.4502
X4.1043Y-4.5502
X4.2043Y-3.0089
X4.2043Y-3.1089
X4.2043Y-3.2089
X4.2043Y-3.3089
X4.2043Y-3.6388
X4.2043Y-3.7388
X4.2043Y-3.8388
X4.2043Y-3.9388
X4.2043Y-4.3002
X4.2043Y-4.4002
X4.2043Y-4.5002
X4.2043Y-4.6002
X6.4256Y-2.9589
X6.4256Y-3.0589
X6.4256Y-3.1589
X6.4256Y-3.2589
X6.4256Y-3.5888
X6.4256Y-3.6888
X6.4256Y-3.7888
X6.4256Y-3.8888
X6.5256Y-3.0089
X6.5256Y-3.1089
X6.5256Y-3.2089
X6.5256Y-3.3089
X6.5256Y-3.6388
X6.5256Y-3.7388
X6.5256Y-3.8388
X6.5256Y-3.9388
T4
X4.88Y-2.84
X4.88Y-2.94
X4.88Y-3.04
X4.88Y-3.14
X4.88Y-3.24
X4.88Y-3.34
X4.88Y-3.44
X4.88Y-3.54
X4.88Y-3.64
X4.88Y-3.74
X4.88Y-3.84
X4.88Y-3.94
X4.88Y-4.04
X4.88Y-4.14
X4.88Y-4.24
X4.88Y-4.34
X4.88Y-4.44
X4.88Y-4.54
X4.88Y-4.64
X5.88Y-2.84
X5.88Y-2.94
X5.88Y-3.04
X5.88Y-3.14
X5.88Y-3.24
X5.88Y-3.34
X5.88Y-3.44
X5.88Y-3.54
X5.88Y-3.64
X5.88Y-3.74
X5.88Y-3.84
X5.88Y-3.94
X5.88Y-4.04
X5.88Y-4.14
X5.88Y-4.24
X5.88Y-4.34
X5.88Y-4.44
X5.88Y-4.54
X5.88Y-4.64
T3
G00X4.155Y-1.9675
M15
G01X4.155Y-2.0463
M16
G05
G00X4.3794Y-1.8888
M15
G01X4.3006Y-1.8888
M16
G05
G00X4.3794Y-2.125
M15
G01X4.3006Y-2.125
M16
G05
T0
M30
