M48
; DRILL file {KiCad 7.0.2} date Wed May 10 12:44:24 2023
; FORMAT={-:-/ absolute / inch / decimal}
; #@! TF.CreationDate,2023-05-10T12:44:24-04:00
; #@! TF.GenerationSoftware,Kicad,Pcbnew,7.0.2
; #@! TF.FileFunction,Plated,1,2,PTH
FMAT,2
INCH
; #@! TA.AperFunction,Plated,PTH,ViaDrill
T1C0.0157
; #@! TA.AperFunction,Plated,PTH,ComponentDrill
T2C0.0300
; #@! TA.AperFunction,Plated,PTH,ComponentDrill
T3C0.0394
; #@! TA.AperFunction,Plated,PTH,ComponentDrill
T4C0.0402
%
G90
G05
T1
X3.95Y-2.44
X3.95Y-2.6
X3.965Y-4.86
X3.975Y-2.27
X4.085Y-2.71
X4.125Y-2.44
X4.15Y-4.5
X4.185Y-3.015
X4.24Y-1.965
X4.35Y-5.28
X4.48Y-4.14
X4.5Y-1.895
X4.505Y-2.56
X4.51Y-3.305
X4.53Y-4.27
X4.6Y-2.13
X4.62Y-4.735
X4.635Y-3.735
X4.67Y-2.75
X4.69Y-3.41
X4.74Y-4.42
X4.78Y-5.145
X4.84Y-2.425
X4.86Y-2.23
X4.87Y-1.82
X4.89Y-2.18
X4.97Y-1.85
X5.0374Y-2.6585
X5.0846Y-4.2224
X5.1Y-2.92
X5.126Y-2.625
X5.13Y-1.83
X5.175Y-2.155
X5.175Y-3.195
X5.18Y-3.49
X5.22Y-4.44
X5.26Y-5.135
X5.28Y-3.94
X5.3Y-2.535
X5.32Y-2.92
X5.33Y-4.22
X5.3327Y-1.8504
X5.34Y-4.45
X5.37Y-2.22
X5.39Y-3.425
X5.47Y-2.51
X5.575Y-4.605
X5.6102Y-2.1978
X5.65Y-3.25
X5.65Y-4.3
X5.665Y-3.435
X5.6693Y-1.8169
X5.675Y-5.255
X5.72Y-2.965
X5.745Y-5.065
X5.7569Y-3.9911
X5.7707Y-3.8209
X5.86Y-2.475
X5.895Y-2.195
X6.005Y-3.79
X6.02Y-3.68
X6.02Y-5.075
X6.03Y-3.915
X6.08Y-3.5
X6.1Y-2.84
X6.11Y-2.79
X6.12Y-3.905
X6.125Y-2.44
X6.15Y-3.27
X6.15Y-3.735
X6.16Y-2.84
X6.19Y-4.45
X6.285Y-4.92
X6.3Y-4.115
X6.31Y-2.64
X6.31Y-4.85
X6.365Y-4.43
X6.375Y-3.515
X6.41Y-2.77
X6.43Y-2.81
X6.445Y-4.93
X6.45Y-3.645
X6.455Y-4.575
X6.4563Y-3.7567
X6.46Y-2.305
X6.465Y-4.09
X6.48Y-1.995
X6.51Y-1.845
X6.58Y-4.315
X6.715Y-2.47
X6.735Y-4.535
T2
X4.2913Y-2.9589
X4.2913Y-3.0589
X4.2913Y-3.1589
X4.2913Y-3.2589
X4.2913Y-3.5888
X4.2913Y-3.6888
X4.2913Y-3.7888
X4.2913Y-3.8888
X4.2913Y-4.2502
X4.2913Y-4.3502
X4.2913Y-4.4502
X4.2913Y-4.5502
X4.3913Y-3.0089
X4.3913Y-3.1089
X4.3913Y-3.2089
X4.3913Y-3.3089
X4.3913Y-3.6388
X4.3913Y-3.7388
X4.3913Y-3.8388
X4.3913Y-3.9388
X4.3913Y-4.3002
X4.3913Y-4.4002
X4.3913Y-4.5002
X4.3913Y-4.6002
X6.2386Y-2.9589
X6.2386Y-3.0589
X6.2386Y-3.1589
X6.2386Y-3.2589
X6.2386Y-3.5888
X6.2386Y-3.6888
X6.2386Y-3.7888
X6.2386Y-3.8888
X6.3386Y-3.0089
X6.3386Y-3.1089
X6.3386Y-3.2089
X6.3386Y-3.3089
X6.3386Y-3.6388
X6.3386Y-3.7388
X6.3386Y-3.8388
X6.3386Y-3.9388
T4
X4.88Y-2.84
X4.88Y-2.94
X4.88Y-3.04
X4.88Y-3.14
X4.88Y-3.24
X4.88Y-3.34
X4.88Y-3.44
X4.88Y-3.54
X4.88Y-3.64
X4.88Y-3.74
X4.88Y-3.84
X4.88Y-3.94
X4.88Y-4.04
X4.88Y-4.14
X4.88Y-4.24
X4.88Y-4.34
X4.88Y-4.44
X4.88Y-4.54
X4.88Y-4.64
X5.88Y-2.84
X5.88Y-2.94
X5.88Y-3.04
X5.88Y-3.14
X5.88Y-3.24
X5.88Y-3.34
X5.88Y-3.44
X5.88Y-3.54
X5.88Y-3.64
X5.88Y-3.74
X5.88Y-3.84
X5.88Y-3.94
X5.88Y-4.04
X5.88Y-4.14
X5.88Y-4.24
X5.88Y-4.34
X5.88Y-4.44
X5.88Y-4.54
X5.88Y-4.64
T3
G00X4.155Y-2.1587
M15
G01X4.155Y-2.2375
M16
G05
G00X4.3794Y-2.08
M15
G01X4.3006Y-2.08
M16
G05
G00X4.3794Y-2.3162
M15
G01X4.3006Y-2.3162
M16
G05
T0
M30
