%TF.GenerationSoftware,KiCad,Pcbnew,(7.0.0)*%
%TF.CreationDate,2023-04-04T20:57:10-04:00*%
%TF.ProjectId,ArenaController,4172656e-6143-46f6-9e74-726f6c6c6572,v0.4*%
%TF.SameCoordinates,Original*%
%TF.FileFunction,Soldermask,Top*%
%TF.FilePolarity,Negative*%
%FSLAX46Y46*%
G04 Gerber Fmt 4.6, Leading zero omitted, Abs format (unit mm)*
G04 Created by KiCad (PCBNEW (7.0.0)) date 2023-04-04 20:57:10*
%MOMM*%
%LPD*%
G01*
G04 APERTURE LIST*
G04 Aperture macros list*
%AMRoundRect*
0 Rectangle with rounded corners*
0 $1 Rounding radius*
0 $2 $3 $4 $5 $6 $7 $8 $9 X,Y pos of 4 corners*
0 Add a 4 corners polygon primitive as box body*
4,1,4,$2,$3,$4,$5,$6,$7,$8,$9,$2,$3,0*
0 Add four circle primitives for the rounded corners*
1,1,$1+$1,$2,$3*
1,1,$1+$1,$4,$5*
1,1,$1+$1,$6,$7*
1,1,$1+$1,$8,$9*
0 Add four rect primitives between the rounded corners*
20,1,$1+$1,$2,$3,$4,$5,0*
20,1,$1+$1,$4,$5,$6,$7,0*
20,1,$1+$1,$6,$7,$8,$9,0*
20,1,$1+$1,$8,$9,$2,$3,0*%
G04 Aperture macros list end*
%ADD10RoundRect,0.237500X-0.237500X0.250000X-0.237500X-0.250000X0.237500X-0.250000X0.237500X0.250000X0*%
%ADD11RoundRect,0.150000X0.150000X-0.587500X0.150000X0.587500X-0.150000X0.587500X-0.150000X-0.587500X0*%
%ADD12RoundRect,0.237500X0.250000X0.237500X-0.250000X0.237500X-0.250000X-0.237500X0.250000X-0.237500X0*%
%ADD13C,1.524000*%
%ADD14C,3.200000*%
%ADD15RoundRect,0.250000X1.412500X0.550000X-1.412500X0.550000X-1.412500X-0.550000X1.412500X-0.550000X0*%
%ADD16R,3.500000X3.500000*%
%ADD17RoundRect,0.750000X-1.000000X0.750000X-1.000000X-0.750000X1.000000X-0.750000X1.000000X0.750000X0*%
%ADD18RoundRect,0.875000X-0.875000X0.875000X-0.875000X-0.875000X0.875000X-0.875000X0.875000X0.875000X0*%
%ADD19RoundRect,0.218750X-0.256250X0.218750X-0.256250X-0.218750X0.256250X-0.218750X0.256250X0.218750X0*%
%ADD20RoundRect,0.250000X-0.550000X1.412500X-0.550000X-1.412500X0.550000X-1.412500X0.550000X1.412500X0*%
%ADD21RoundRect,0.237500X-0.250000X-0.237500X0.250000X-0.237500X0.250000X0.237500X-0.250000X0.237500X0*%
%ADD22RoundRect,0.150000X-0.150000X0.587500X-0.150000X-0.587500X0.150000X-0.587500X0.150000X0.587500X0*%
%ADD23RoundRect,0.150000X0.587500X0.150000X-0.587500X0.150000X-0.587500X-0.150000X0.587500X-0.150000X0*%
%ADD24RoundRect,0.162500X0.162500X-0.825000X0.162500X0.825000X-0.162500X0.825000X-0.162500X-0.825000X0*%
%ADD25R,1.700000X1.700000*%
%ADD26O,1.700000X1.700000*%
%ADD27RoundRect,0.237500X0.237500X-0.250000X0.237500X0.250000X-0.237500X0.250000X-0.237500X-0.250000X0*%
%ADD28RoundRect,0.150000X-0.587500X-0.150000X0.587500X-0.150000X0.587500X0.150000X-0.587500X0.150000X0*%
%ADD29C,2.000000*%
%ADD30R,2.000000X2.000000*%
G04 APERTURE END LIST*
D10*
%TO.C,R16*%
X148082000Y-48363500D03*
X148082000Y-50188500D03*
%TD*%
D11*
%TO.C,Q4*%
X133670000Y-91948000D03*
X135570000Y-91948000D03*
X134620000Y-90073000D03*
%TD*%
D12*
%TO.C,R4*%
X155254500Y-74011000D03*
X153429500Y-74011000D03*
%TD*%
D13*
%TO.C,J1*%
X161000000Y-84045000D03*
X158460000Y-82775000D03*
X161000000Y-81505000D03*
X158460000Y-80235000D03*
X161000000Y-78965000D03*
X158460000Y-77695000D03*
X161000000Y-76425000D03*
X158460000Y-75155000D03*
%TD*%
D14*
%TO.C,H4*%
X170000000Y-130000000D03*
%TD*%
D13*
%TO.C,J6*%
X161000000Y-100045000D03*
X158460000Y-98775000D03*
X161000000Y-97505000D03*
X158460000Y-96235000D03*
X161000000Y-94965000D03*
X158460000Y-93695000D03*
X161000000Y-92425000D03*
X158460000Y-91155000D03*
%TD*%
D11*
%TO.C,Q3*%
X138750000Y-91948000D03*
X140650000Y-91948000D03*
X139700000Y-90073000D03*
%TD*%
D15*
%TO.C,C2*%
X140205500Y-52324000D03*
X135130500Y-52324000D03*
%TD*%
D13*
%TO.C,J4*%
X109000000Y-107955000D03*
X111540000Y-109225000D03*
X109000000Y-110495000D03*
X111540000Y-111765000D03*
X109000000Y-113035000D03*
X111540000Y-114305000D03*
X109000000Y-115575000D03*
X111540000Y-116845000D03*
%TD*%
D16*
%TO.C,J9*%
X110235999Y-58831999D03*
D17*
X110236000Y-52832000D03*
D18*
X105536000Y-55832000D03*
%TD*%
D13*
%TO.C,J2*%
X109000000Y-75155000D03*
X111540000Y-76425000D03*
X109000000Y-77695000D03*
X111540000Y-78965000D03*
X109000000Y-80235000D03*
X111540000Y-81505000D03*
X109000000Y-82775000D03*
X111540000Y-84045000D03*
%TD*%
D19*
%TO.C,L1*%
X132080000Y-54584500D03*
X132080000Y-56159500D03*
%TD*%
D14*
%TO.C,H3*%
X170000000Y-50000000D03*
%TD*%
D20*
%TO.C,C1*%
X120904000Y-49278500D03*
X120904000Y-54353500D03*
%TD*%
D14*
%TO.C,H2*%
X100000000Y-130000000D03*
%TD*%
D21*
%TO.C,R1*%
X128627500Y-94137000D03*
X130452500Y-94137000D03*
%TD*%
D22*
%TO.C,Q2*%
X155316000Y-76200000D03*
X153416000Y-76200000D03*
X154366000Y-78075000D03*
%TD*%
D23*
%TO.C,Q5*%
X116761500Y-73086000D03*
X116761500Y-71186000D03*
X114886500Y-72136000D03*
%TD*%
D24*
%TO.C,U2*%
X125984000Y-55372000D03*
X127254000Y-55372000D03*
X128524000Y-55372000D03*
X129794000Y-55372000D03*
X129794000Y-50297000D03*
X128524000Y-50297000D03*
X127254000Y-50297000D03*
X125984000Y-50297000D03*
%TD*%
D14*
%TO.C,H1*%
X100000000Y-50000000D03*
%TD*%
D11*
%TO.C,Q1*%
X128590000Y-91948000D03*
X130490000Y-91948000D03*
X129540000Y-90073000D03*
%TD*%
D21*
%TO.C,R2*%
X138787500Y-94137000D03*
X140612500Y-94137000D03*
%TD*%
D13*
%TO.C,J5*%
X109000000Y-91155000D03*
X111540000Y-92425000D03*
X109000000Y-93695000D03*
X111540000Y-94965000D03*
X109000000Y-96235000D03*
X111540000Y-97505000D03*
X109000000Y-98775000D03*
X111540000Y-100045000D03*
%TD*%
D25*
%TO.C,J8*%
X163067999Y-121919999D03*
D26*
X165607999Y-121919999D03*
X168147999Y-121919999D03*
X170687999Y-121919999D03*
%TD*%
D27*
%TO.C,R7*%
X156210000Y-51609000D03*
X156210000Y-49784000D03*
%TD*%
D21*
%TO.C,R5*%
X133707500Y-94137000D03*
X135532500Y-94137000D03*
%TD*%
D28*
%TO.C,Q6*%
X151795000Y-49746500D03*
X151795000Y-51646500D03*
X153670000Y-50696500D03*
%TD*%
D29*
%TO.C,U3*%
X123952000Y-72136000D03*
X123952000Y-74676000D03*
X123952000Y-77216000D03*
X123952000Y-79756000D03*
X123952000Y-82296000D03*
X123952000Y-84836000D03*
X123952000Y-87376000D03*
X123952000Y-89916000D03*
X123952000Y-92456000D03*
X123952000Y-94996000D03*
X123952000Y-97536000D03*
X123952000Y-100076000D03*
D30*
X123951999Y-102615999D03*
D29*
X123952000Y-105156000D03*
X123952000Y-107696000D03*
X123952000Y-110236000D03*
X123952000Y-112776000D03*
X123952000Y-115316000D03*
D30*
X123951999Y-117855999D03*
D29*
X149352000Y-117856000D03*
X149352000Y-115316000D03*
X149352000Y-112776000D03*
X149352000Y-110236000D03*
X149352000Y-107696000D03*
X149352000Y-105156000D03*
X149352000Y-102616000D03*
X149352000Y-100076000D03*
X149352000Y-97536000D03*
X149352000Y-94996000D03*
X149352000Y-92456000D03*
X149352000Y-89916000D03*
X149352000Y-87376000D03*
D30*
X149351999Y-84835999D03*
D29*
X149352000Y-82296000D03*
X149352000Y-79756000D03*
X149352000Y-77216000D03*
X149352000Y-74676000D03*
X149352000Y-72136000D03*
%TD*%
D27*
%TO.C,R3*%
X118793500Y-72982500D03*
X118793500Y-71157500D03*
%TD*%
M02*
