M48
; DRILL file {KiCad 7.99.0-2684-g11de95778b} date 2023-09-09T13:36:26-0400
; FORMAT={-:-/ absolute / inch / decimal}
; #@! TF.CreationDate,2023-09-09T13:36:26-04:00
; #@! TF.GenerationSoftware,Kicad,Pcbnew,7.99.0-2684-g11de95778b
; #@! TF.FileFunction,Plated,1,2,PTH
FMAT,2
INCH
; #@! TA.AperFunction,Plated,PTH,ViaDrill
T1C0.0157
; #@! TA.AperFunction,Plated,PTH,ComponentDrill
T2C0.0300
; #@! TA.AperFunction,Plated,PTH,ComponentDrill
T3C0.0394
; #@! TA.AperFunction,Plated,PTH,ViaDrill
T4C0.0591
; #@! TA.AperFunction,Plated,PTH,ComponentDrill
T5C0.0787
%
G90
G05
T1
X3.875Y-3.24
X4.07Y-3.41
X4.185Y-3.38
X4.305Y-3.47
X4.33Y-2.985
X4.335Y-2.79
X4.345Y-3.275
X4.395Y-3.135
X4.425Y-4.27
X4.455Y-3.99
X4.575Y-2.825
X4.575Y-4.055
X4.58Y-3.395
X4.6Y-3.0
X4.6Y-3.2
X4.615Y-3.85
X4.655Y-4.31
X4.7Y-4.135
X4.83Y-3.625
X4.875Y-3.525
X5.13Y-4.525
X5.245Y-4.16
X5.25Y-4.72
X5.455Y-3.565
X5.46Y-4.245
X5.485Y-3.93
X5.56Y-4.31
X5.575Y-4.17
X5.84Y-4.98
X5.87Y-4.75
X5.91Y-4.635
X5.93Y-4.88
X5.96Y-3.635
X6.0Y-4.73
X6.065Y-3.94
X6.07Y-4.63
X6.105Y-3.46
X6.165Y-3.725
X6.185Y-3.225
X6.36Y-3.385
X6.39Y-3.705
X6.395Y-4.02
T2
X4.1043Y-2.9589
X4.1043Y-3.0589
X4.1043Y-3.1589
X4.1043Y-3.2589
X4.1043Y-3.5888
X4.1043Y-3.6888
X4.1043Y-3.7888
X4.1043Y-3.8888
X4.2043Y-3.0089
X4.2043Y-3.1089
X4.2043Y-3.2089
X4.2043Y-3.3089
X4.2043Y-3.6388
X4.2043Y-3.7388
X4.2043Y-3.8388
X4.2043Y-3.9388
X5.9918Y-4.9628
X6.0418Y-4.8628
X6.0918Y-4.9628
X6.1418Y-4.8628
X6.1918Y-4.9628
X6.2418Y-4.8628
X6.2918Y-4.9628
X6.3418Y-4.8628
X6.6224Y-2.9589
X6.6224Y-3.0589
X6.6224Y-3.1589
X6.6224Y-3.2589
X6.6224Y-3.5888
X6.6224Y-3.6888
X6.6224Y-3.7888
X6.6224Y-3.8888
X6.7224Y-3.0089
X6.7224Y-3.1089
X6.7224Y-3.2089
X6.7224Y-3.3089
X6.7224Y-3.6388
X6.7224Y-3.7388
X6.7224Y-3.8388
X6.7224Y-3.9388
T3
X4.096Y-2.308
X4.49Y-2.298
X5.0Y-3.0848
X5.0Y-3.1848
X5.0Y-3.2848
X5.0Y-3.3848
X5.0Y-3.4848
X5.0Y-3.5848
X5.0Y-3.6848
X5.0Y-3.7848
X5.0Y-3.8848
X5.0Y-3.9848
X5.0Y-4.0848
X5.0Y-4.1848
X5.0Y-4.2848
X5.0Y-4.5848
X5.0Y-4.6848
X5.0Y-4.7848
X5.0Y-4.8848
X5.0Y-4.9848
X5.127Y-3.8104
X5.227Y-3.8104
X5.25Y-3.0939
X5.327Y-3.8104
X5.35Y-3.0939
X5.45Y-3.0939
X5.7Y-3.0848
X5.7Y-3.1848
X5.7Y-3.2848
X5.7Y-3.3848
X5.7Y-3.4848
X5.7Y-3.5848
X5.7Y-3.6848
X5.7Y-3.7848
X5.7Y-3.8848
X5.7Y-3.9848
X5.7Y-4.0848
X5.7Y-4.1848
X5.7Y-4.2848
X5.7Y-4.5848
X5.7Y-4.6848
X5.7Y-4.7848
X5.7Y-4.8848
X5.7Y-4.9848
X6.78Y-2.655
X6.79Y-2.36
T4
X5.925Y-4.43
T5
X4.8216Y-2.6329
X4.824Y-1.87
X6.5908Y-1.8676
X6.5908Y-2.6329
T3
G00X4.2147Y-1.9687
M15
G01X4.2147Y-2.0475
M16
G05
G00X4.4391Y-1.89
M15
G01X4.3603Y-1.89
M16
G05
G00X4.4391Y-2.1262
M15
G01X4.3603Y-2.1262
M16
G05
T0
M30
