%TF.GenerationSoftware,KiCad,Pcbnew,7.0.7*%
%TF.CreationDate,2023-08-26T12:26:49-04:00*%
%TF.ProjectId,ArenaController,4172656e-6143-46f6-9e74-726f6c6c6572,v0.7*%
%TF.SameCoordinates,Original*%
%TF.FileFunction,Soldermask,Top*%
%TF.FilePolarity,Negative*%
%FSLAX46Y46*%
G04 Gerber Fmt 4.6, Leading zero omitted, Abs format (unit mm)*
G04 Created by KiCad (PCBNEW 7.0.7) date 2023-08-26 12:26:49*
%MOMM*%
%LPD*%
G01*
G04 APERTURE LIST*
G04 Aperture macros list*
%AMRoundRect*
0 Rectangle with rounded corners*
0 $1 Rounding radius*
0 $2 $3 $4 $5 $6 $7 $8 $9 X,Y pos of 4 corners*
0 Add a 4 corners polygon primitive as box body*
4,1,4,$2,$3,$4,$5,$6,$7,$8,$9,$2,$3,0*
0 Add four circle primitives for the rounded corners*
1,1,$1+$1,$2,$3*
1,1,$1+$1,$4,$5*
1,1,$1+$1,$6,$7*
1,1,$1+$1,$8,$9*
0 Add four rect primitives between the rounded corners*
20,1,$1+$1,$2,$3,$4,$5,0*
20,1,$1+$1,$4,$5,$6,$7,0*
20,1,$1+$1,$6,$7,$8,$9,0*
20,1,$1+$1,$8,$9,$2,$3,0*%
G04 Aperture macros list end*
%ADD10RoundRect,0.150000X0.150000X-0.587500X0.150000X0.587500X-0.150000X0.587500X-0.150000X-0.587500X0*%
%ADD11C,2.000000*%
%ADD12RoundRect,0.250000X-0.400000X-0.625000X0.400000X-0.625000X0.400000X0.625000X-0.400000X0.625000X0*%
%ADD13C,1.524000*%
%ADD14C,3.200000*%
%ADD15R,3.500000X3.500000*%
%ADD16RoundRect,0.750000X-1.000000X0.750000X-1.000000X-0.750000X1.000000X-0.750000X1.000000X0.750000X0*%
%ADD17RoundRect,0.875000X-0.875000X0.875000X-0.875000X-0.875000X0.875000X-0.875000X0.875000X0.875000X0*%
%ADD18RoundRect,0.150000X0.587500X0.150000X-0.587500X0.150000X-0.587500X-0.150000X0.587500X-0.150000X0*%
%ADD19RoundRect,0.368300X-1.473200X-1.473200X1.473200X-1.473200X1.473200X1.473200X-1.473200X1.473200X0*%
%ADD20RoundRect,0.250000X-0.625000X0.400000X-0.625000X-0.400000X0.625000X-0.400000X0.625000X0.400000X0*%
%ADD21R,2.000000X2.000000*%
G04 APERTURE END LIST*
D10*
%TO.C,Q4*%
X134330400Y-91818700D03*
X136230400Y-91818700D03*
X135280400Y-89943700D03*
%TD*%
D11*
%TO.C,TP2*%
X114046000Y-58369200D03*
%TD*%
%TO.C,TP3*%
X154990800Y-74371200D03*
%TD*%
D12*
%TO.C,R4*%
X116966400Y-80543400D03*
X120066400Y-80543400D03*
%TD*%
D13*
%TO.C,J1*%
X170750000Y-84045000D03*
X168210000Y-82775000D03*
X170750000Y-81505000D03*
X168210000Y-80235000D03*
X170750000Y-78965000D03*
X168210000Y-77695000D03*
X170750000Y-76425000D03*
X168210000Y-75155000D03*
%TD*%
D14*
%TO.C,H4*%
X175000000Y-130000000D03*
%TD*%
D13*
%TO.C,J6*%
X170750000Y-100045000D03*
X168210000Y-98775000D03*
X170750000Y-97505000D03*
X168210000Y-96235000D03*
X170750000Y-94965000D03*
X168210000Y-93695000D03*
X170750000Y-92425000D03*
X168210000Y-91155000D03*
%TD*%
D10*
%TO.C,Q3*%
X140274000Y-91791000D03*
X142174000Y-91791000D03*
X141224000Y-89916000D03*
%TD*%
D13*
%TO.C,J4*%
X152191400Y-126055600D03*
X153461400Y-123515600D03*
X154731400Y-126055600D03*
X156001400Y-123515600D03*
X157271400Y-126055600D03*
X158541400Y-123515600D03*
X159811400Y-126055600D03*
X161081400Y-123515600D03*
%TD*%
D15*
%TO.C,J9*%
X111752300Y-54006000D03*
D16*
X111752300Y-48006000D03*
D17*
X107052300Y-51006000D03*
%TD*%
D13*
%TO.C,J2*%
X104250000Y-75155000D03*
X106790000Y-76425000D03*
X104250000Y-77695000D03*
X106790000Y-78965000D03*
X104250000Y-80235000D03*
X106790000Y-81505000D03*
X104250000Y-82775000D03*
X106790000Y-84045000D03*
%TD*%
D11*
%TO.C,TP1*%
X104038400Y-58623200D03*
%TD*%
D14*
%TO.C,H3*%
X175000000Y-50000000D03*
%TD*%
%TO.C,H2*%
X100000000Y-130000000D03*
%TD*%
D12*
%TO.C,R1*%
X127990000Y-94137000D03*
X131090000Y-94137000D03*
%TD*%
D10*
%TO.C,Q2*%
X161254400Y-77617800D03*
X163154400Y-77617800D03*
X162204400Y-75742800D03*
%TD*%
D18*
%TO.C,Q5*%
X116763800Y-70962600D03*
X116763800Y-69062600D03*
X114888800Y-70012600D03*
%TD*%
D14*
%TO.C,H1*%
X100000000Y-50000000D03*
%TD*%
D10*
%TO.C,Q1*%
X128590000Y-91948000D03*
X130490000Y-91948000D03*
X129540000Y-90073000D03*
%TD*%
D12*
%TO.C,R2*%
X139674000Y-93980000D03*
X142774000Y-93980000D03*
%TD*%
D13*
%TO.C,J5*%
X104250000Y-91155000D03*
X106790000Y-92425000D03*
X104250000Y-93695000D03*
X106790000Y-94965000D03*
X104250000Y-96235000D03*
X106790000Y-97505000D03*
X104250000Y-98775000D03*
X106790000Y-100045000D03*
%TD*%
D19*
%TO.C,U1*%
X122529600Y-47498000D03*
X122469600Y-66875000D03*
X167406600Y-47438000D03*
X167406600Y-66875000D03*
%TD*%
D11*
%TO.C,TP4*%
X171551600Y-57150000D03*
%TD*%
D20*
%TO.C,R5*%
X161493200Y-80134100D03*
X161493200Y-83234100D03*
%TD*%
D11*
%TO.C,U3*%
X123952000Y-72136000D03*
X123952000Y-74676000D03*
X123952000Y-77216000D03*
X123952000Y-79756000D03*
X123952000Y-82296000D03*
X123952000Y-84836000D03*
X123952000Y-87376000D03*
X123952000Y-89916000D03*
X123952000Y-92456000D03*
X123952000Y-94996000D03*
X123952000Y-97536000D03*
X123952000Y-100076000D03*
D21*
X123952000Y-102616000D03*
D11*
X123952000Y-105156000D03*
X123952000Y-107696000D03*
X123952000Y-110236000D03*
X123952000Y-112776000D03*
X123952000Y-115316000D03*
D21*
X123952000Y-117856000D03*
D11*
X149352000Y-117856000D03*
X149352000Y-115316000D03*
X149352000Y-112776000D03*
X149352000Y-110236000D03*
X149352000Y-107696000D03*
X149352000Y-105156000D03*
X149352000Y-102616000D03*
X149352000Y-100076000D03*
X149352000Y-97536000D03*
X149352000Y-94996000D03*
X149352000Y-92456000D03*
X149352000Y-89916000D03*
X149352000Y-87376000D03*
D21*
X149352000Y-84836000D03*
D11*
X149352000Y-82296000D03*
X149352000Y-79756000D03*
X149352000Y-77216000D03*
X149352000Y-74676000D03*
X149352000Y-72136000D03*
%TD*%
D12*
%TO.C,R3*%
X133730400Y-94155500D03*
X136830400Y-94155500D03*
%TD*%
M02*
