%TF.GenerationSoftware,KiCad,Pcbnew,7.0.2*%
%TF.CreationDate,2023-07-19T17:03:32-04:00*%
%TF.ProjectId,ArenaController,4172656e-6143-46f6-9e74-726f6c6c6572,v0.6*%
%TF.SameCoordinates,Original*%
%TF.FileFunction,Drillmap*%
%TF.FilePolarity,Positive*%
%FSLAX45Y45*%
G04 Gerber Fmt 4.5, Leading zero omitted, Abs format (unit mm)*
G04 Created by KiCad (PCBNEW 7.0.2) date 2023-07-19 17:03:32*
%MOMM*%
%LPD*%
G01*
G04 APERTURE LIST*
%ADD10C,0.200000*%
%ADD11C,0.040000*%
%ADD12C,0.076200*%
%ADD13C,0.100000*%
%ADD14C,0.102000*%
G04 APERTURE END LIST*
D10*
X10000000Y-4500000D02*
G75*
G03*
X9500000Y-5000000I0J-500000D01*
G01*
X9500000Y-13000000D02*
G75*
G03*
X10000000Y-13500000I500000J0D01*
G01*
X17500000Y-5000000D02*
G75*
G03*
X17000000Y-4500000I-500000J0D01*
G01*
X17500000Y-5000000D02*
X17500000Y-13000000D01*
X10000000Y-4500000D02*
X17000000Y-4500000D01*
X9500000Y-13000000D02*
X9500000Y-5000000D01*
X17000000Y-13500000D02*
G75*
G03*
X17500000Y-13000000I0J500000D01*
G01*
X17000000Y-13500000D02*
X10000000Y-13500000D01*
D11*
X9708200Y-7739700D02*
X9748200Y-7779700D01*
X9748200Y-7739700D02*
X9708200Y-7779700D01*
X9830120Y-9850440D02*
X9870120Y-9890440D01*
X9870120Y-9850440D02*
X9830120Y-9890440D01*
X10038400Y-6319840D02*
X10078400Y-6359840D01*
X10078400Y-6319840D02*
X10038400Y-6359840D01*
X10101900Y-7650800D02*
X10141900Y-7690800D01*
X10141900Y-7650800D02*
X10101900Y-7690800D01*
X10190800Y-5501960D02*
X10230800Y-5541960D01*
X10230800Y-5501960D02*
X10190800Y-5541960D01*
X10343200Y-4602800D02*
X10383200Y-4642800D01*
X10383200Y-4602800D02*
X10343200Y-4642800D01*
X10465120Y-6390960D02*
X10505120Y-6430960D01*
X10505120Y-6390960D02*
X10465120Y-6430960D01*
X10607360Y-10571800D02*
X10647360Y-10611800D01*
X10647360Y-10571800D02*
X10607360Y-10611800D01*
X10627680Y-8976680D02*
X10667680Y-9016680D01*
X10667680Y-8976680D02*
X10627680Y-9016680D01*
X10642920Y-4755200D02*
X10682920Y-4795200D01*
X10682920Y-4755200D02*
X10642920Y-4795200D01*
X10653080Y-7361240D02*
X10693080Y-7401240D01*
X10693080Y-7361240D02*
X10653080Y-7401240D01*
X10769920Y-5822000D02*
X10809920Y-5862000D01*
X10809920Y-5822000D02*
X10769920Y-5862000D01*
X10861360Y-12141520D02*
X10901360Y-12181520D01*
X10901360Y-12141520D02*
X10861360Y-12181520D01*
X10952800Y-12436160D02*
X10992800Y-12476160D01*
X10992800Y-12436160D02*
X10952800Y-12476160D01*
X11039160Y-10399080D02*
X11079160Y-10439080D01*
X11079160Y-10399080D02*
X11039160Y-10439080D01*
X11150920Y-7277420D02*
X11190920Y-7317420D01*
X11190920Y-7277420D02*
X11150920Y-7317420D01*
X11267621Y-8451261D02*
X11307621Y-8491261D01*
X11307621Y-8451261D02*
X11267621Y-8491261D01*
X11293160Y-4724720D02*
X11333160Y-4764720D01*
X11333160Y-4724720D02*
X11293160Y-4764720D01*
X11308400Y-5847400D02*
X11348400Y-5887400D01*
X11348400Y-5847400D02*
X11308400Y-5887400D01*
X11343960Y-8783640D02*
X11383960Y-8823640D01*
X11383960Y-8783640D02*
X11343960Y-8823640D01*
X11367111Y-7736552D02*
X11407111Y-7776552D01*
X11407111Y-7736552D02*
X11367111Y-7776552D01*
X11455720Y-10018080D02*
X11495720Y-10058080D01*
X11495720Y-10018080D02*
X11455720Y-10058080D01*
X11498900Y-8135940D02*
X11538900Y-8175940D01*
X11538900Y-8135940D02*
X11498900Y-8175940D01*
X11521760Y-11059480D02*
X11561760Y-11099480D01*
X11561760Y-11059480D02*
X11521760Y-11099480D01*
X11572560Y-6253800D02*
X11612560Y-6293800D01*
X11612560Y-6253800D02*
X11572560Y-6293800D01*
X11608120Y-13177840D02*
X11648120Y-13217840D01*
X11648120Y-13177840D02*
X11608120Y-13217840D01*
X11674160Y-7439980D02*
X11714160Y-7479980D01*
X11714160Y-7439980D02*
X11674160Y-7479980D01*
X11704640Y-8255320D02*
X11744640Y-8295320D01*
X11744640Y-8255320D02*
X11704640Y-8295320D01*
X11791000Y-9474520D02*
X11831000Y-9514520D01*
X11831000Y-9474520D02*
X11791000Y-9514520D01*
X11816400Y-10729280D02*
X11856400Y-10769280D01*
X11856400Y-10729280D02*
X11816400Y-10769280D01*
X11826560Y-11145840D02*
X11866560Y-11185840D01*
X11866560Y-11145840D02*
X11826560Y-11185840D01*
X11872280Y-7394260D02*
X11912280Y-7434260D01*
X11912280Y-7394260D02*
X11872280Y-7434260D01*
X11902760Y-9875840D02*
X11942760Y-9915840D01*
X11942760Y-9875840D02*
X11902760Y-9915840D01*
X11958640Y-6799900D02*
X11998640Y-6839900D01*
X11998640Y-6799900D02*
X11958640Y-6839900D01*
X11963720Y-8844600D02*
X12003720Y-8884600D01*
X12003720Y-8844600D02*
X11963720Y-8884600D01*
X11978960Y-10871520D02*
X12018960Y-10911520D01*
X12018960Y-10871520D02*
X11978960Y-10911520D01*
X11981500Y-9657400D02*
X12021500Y-9697400D01*
X12021500Y-9657400D02*
X11981500Y-9697400D01*
X11994200Y-9088440D02*
X12034200Y-9128440D01*
X12034200Y-9088440D02*
X11994200Y-9128440D01*
X12039920Y-10282240D02*
X12079920Y-10322240D01*
X12079920Y-10282240D02*
X12039920Y-10322240D01*
X12116120Y-6248720D02*
X12156120Y-6288720D01*
X12156120Y-6248720D02*
X12116120Y-6288720D01*
X12431080Y-4582480D02*
X12471080Y-4622480D01*
X12471080Y-4582480D02*
X12431080Y-4622480D01*
X12636820Y-4864420D02*
X12676820Y-4904420D01*
X12676820Y-4864420D02*
X12636820Y-4904420D01*
X12695240Y-8041960D02*
X12735240Y-8081960D01*
X12735240Y-8041960D02*
X12695240Y-8081960D01*
X12715560Y-7503480D02*
X12755560Y-7543480D01*
X12755560Y-7503480D02*
X12715560Y-7543480D01*
X12775000Y-6732500D02*
X12815000Y-6772500D01*
X12815000Y-6732500D02*
X12775000Y-6772500D01*
X12934000Y-7396800D02*
X12974000Y-7436800D01*
X12974000Y-7396800D02*
X12934000Y-7436800D01*
X12939080Y-13208320D02*
X12979080Y-13248320D01*
X12979080Y-13208320D02*
X12939080Y-13248320D01*
X13000000Y-6647500D02*
X13040000Y-6687500D01*
X13040000Y-6647500D02*
X13000000Y-6687500D01*
X13030520Y-6314760D02*
X13070520Y-6354760D01*
X13070520Y-6314760D02*
X13030520Y-6354760D01*
X13066080Y-10089200D02*
X13106080Y-10129200D01*
X13106080Y-10089200D02*
X13066080Y-10129200D01*
X13124500Y-4686620D02*
X13164500Y-4726620D01*
X13164500Y-4686620D02*
X13124500Y-4726620D01*
X13137200Y-8844600D02*
X13177200Y-8884600D01*
X13177200Y-8844600D02*
X13137200Y-8884600D01*
X13137200Y-10693720D02*
X13177200Y-10733720D01*
X13177200Y-10693720D02*
X13137200Y-10733720D01*
X13175300Y-5082860D02*
X13215300Y-5122860D01*
X13215300Y-5082860D02*
X13175300Y-5122860D01*
X13177840Y-8158800D02*
X13217840Y-8198800D01*
X13217840Y-8158800D02*
X13177840Y-8198800D01*
X13200700Y-5270820D02*
X13240700Y-5310820D01*
X13240700Y-5270820D02*
X13200700Y-5310820D01*
X13269280Y-7808280D02*
X13309280Y-7848280D01*
X13309280Y-7808280D02*
X13269280Y-7848280D01*
X13274360Y-11105200D02*
X13314360Y-11145200D01*
X13314360Y-11105200D02*
X13274360Y-11145200D01*
X13365800Y-4577400D02*
X13405800Y-4617400D01*
X13405800Y-4577400D02*
X13365800Y-4617400D01*
X13370880Y-10277160D02*
X13410880Y-10317160D01*
X13410880Y-10277160D02*
X13370880Y-10317160D01*
X13462320Y-6294440D02*
X13502320Y-6334440D01*
X13502320Y-6294440D02*
X13462320Y-6334440D01*
X13492800Y-8819200D02*
X13532800Y-8859200D01*
X13532800Y-8819200D02*
X13492800Y-8859200D01*
X13604560Y-11079800D02*
X13644560Y-11119800D01*
X13644560Y-11079800D02*
X13604560Y-11119800D01*
X13685840Y-7742240D02*
X13725840Y-7782240D01*
X13725840Y-7742240D02*
X13685840Y-7782240D01*
X13751880Y-10759760D02*
X13791880Y-10799760D01*
X13791880Y-10759760D02*
X13751880Y-10799760D01*
X14056680Y-13106720D02*
X14096680Y-13146720D01*
X14096680Y-13106720D02*
X14056680Y-13146720D01*
X14361480Y-4887280D02*
X14401480Y-4927280D01*
X14401480Y-4887280D02*
X14361480Y-4927280D01*
X14397040Y-11079800D02*
X14437040Y-11119800D01*
X14437040Y-11079800D02*
X14397040Y-11119800D01*
X14442760Y-7523800D02*
X14482760Y-7563800D01*
X14482760Y-7523800D02*
X14442760Y-7563800D01*
X14468160Y-8209600D02*
X14508160Y-8249600D01*
X14508160Y-8209600D02*
X14468160Y-8249600D01*
X14483400Y-5551495D02*
X14523400Y-5591495D01*
X14523400Y-5551495D02*
X14483400Y-5591495D01*
X14493560Y-9322120D02*
X14533560Y-9362120D01*
X14533560Y-9322120D02*
X14493560Y-9362120D01*
X14986320Y-4612960D02*
X15026320Y-4652960D01*
X15026320Y-4612960D02*
X14986320Y-4652960D01*
X15179360Y-8849680D02*
X15219360Y-8889680D01*
X15219360Y-8849680D02*
X15179360Y-8889680D01*
X15265720Y-9626920D02*
X15305720Y-9666920D01*
X15305720Y-9626920D02*
X15265720Y-9666920D01*
X15296200Y-11719880D02*
X15336200Y-11759880D01*
X15336200Y-11719880D02*
X15296200Y-11759880D01*
X15331760Y-6408740D02*
X15371760Y-6448740D01*
X15371760Y-6408740D02*
X15331760Y-6448740D01*
X15405420Y-7594920D02*
X15445420Y-7634920D01*
X15445420Y-7594920D02*
X15405420Y-7634920D01*
X15418120Y-10023160D02*
X15458120Y-10063160D01*
X15458120Y-10023160D02*
X15418120Y-10063160D01*
X15448600Y-13086400D02*
X15488600Y-13126400D01*
X15488600Y-13086400D02*
X15448600Y-13126400D01*
X15451140Y-7160580D02*
X15491140Y-7200580D01*
X15491140Y-7160580D02*
X15451140Y-7200580D01*
X15601000Y-9479600D02*
X15641000Y-9519600D01*
X15641000Y-9479600D02*
X15601000Y-9519600D01*
X15621320Y-8458520D02*
X15661320Y-8498520D01*
X15661320Y-8458520D02*
X15621320Y-8498520D01*
X15646720Y-8341680D02*
X15686720Y-8381680D01*
X15686720Y-8341680D02*
X15646720Y-8381680D01*
X15682280Y-5872800D02*
X15722280Y-5912800D01*
X15722280Y-5872800D02*
X15682280Y-5912800D01*
X15717840Y-4993960D02*
X15757840Y-5033960D01*
X15757840Y-4993960D02*
X15717840Y-5033960D01*
X15773720Y-8397560D02*
X15813720Y-8437560D01*
X15813720Y-8397560D02*
X15773720Y-8437560D01*
X15849920Y-7010720D02*
X15889920Y-7050720D01*
X15889920Y-7010720D02*
X15849920Y-7050720D01*
X15969300Y-9784400D02*
X16009300Y-9824400D01*
X16009300Y-9784400D02*
X15969300Y-9824400D01*
X15971840Y-12456480D02*
X16011840Y-12496480D01*
X16011840Y-12456480D02*
X15971840Y-12496480D01*
X16032800Y-7081840D02*
X16072800Y-7121840D01*
X16072800Y-7081840D02*
X16032800Y-7121840D01*
X16053120Y-7422200D02*
X16093120Y-7462200D01*
X16093120Y-7422200D02*
X16053120Y-7462200D01*
X16109000Y-6787200D02*
X16149000Y-6827200D01*
X16149000Y-6787200D02*
X16109000Y-6827200D01*
X16149640Y-5532440D02*
X16189640Y-5572440D01*
X16189640Y-5532440D02*
X16149640Y-5572440D01*
X16195360Y-10327960D02*
X16235360Y-10367960D01*
X16235360Y-10327960D02*
X16195360Y-10367960D01*
X16205520Y-8870000D02*
X16245520Y-8910000D01*
X16245520Y-8870000D02*
X16205520Y-8910000D01*
X16429040Y-6731320D02*
X16469040Y-6771320D01*
X16469040Y-6731320D02*
X16429040Y-6771320D01*
X16434120Y-8626160D02*
X16474120Y-8666160D01*
X16474120Y-8626160D02*
X16434120Y-8666160D01*
X16439200Y-4628200D02*
X16479200Y-4668200D01*
X16479200Y-4628200D02*
X16439200Y-4668200D01*
X16464600Y-11821480D02*
X16504600Y-11861480D01*
X16504600Y-11821480D02*
X16464600Y-11861480D01*
X16474760Y-5420680D02*
X16514760Y-5460680D01*
X16514760Y-5420680D02*
X16474760Y-5460680D01*
X16553500Y-7384100D02*
X16593500Y-7424100D01*
X16593500Y-7384100D02*
X16553500Y-7424100D01*
X16594140Y-5877880D02*
X16634140Y-5917880D01*
X16634140Y-5877880D02*
X16594140Y-5917880D01*
X16705900Y-10480360D02*
X16745900Y-10520360D01*
X16745900Y-10480360D02*
X16705900Y-10520360D01*
X16718600Y-7041200D02*
X16758600Y-7081200D01*
X16758600Y-7041200D02*
X16718600Y-7081200D01*
X16886240Y-6167440D02*
X16926240Y-6207440D01*
X16926240Y-6167440D02*
X16886240Y-6207440D01*
X17109760Y-8189280D02*
X17149760Y-8229280D01*
X17149760Y-8189280D02*
X17109760Y-8229280D01*
X17218980Y-12060240D02*
X17258980Y-12100240D01*
X17258980Y-12060240D02*
X17218980Y-12100240D01*
X17287560Y-9405940D02*
X17327560Y-9445940D01*
X17327560Y-9405940D02*
X17287560Y-9445940D01*
X17353600Y-7706680D02*
X17393600Y-7746680D01*
X17393600Y-7706680D02*
X17353600Y-7746680D01*
D12*
X10463100Y-7515500D02*
G75*
G03*
X10463100Y-7515500I-38100J0D01*
G01*
X10463100Y-7769500D02*
G75*
G03*
X10463100Y-7769500I-38100J0D01*
G01*
X10463100Y-8023500D02*
G75*
G03*
X10463100Y-8023500I-38100J0D01*
G01*
X10463100Y-8277500D02*
G75*
G03*
X10463100Y-8277500I-38100J0D01*
G01*
X10463100Y-9115500D02*
G75*
G03*
X10463100Y-9115500I-38100J0D01*
G01*
X10463100Y-9369500D02*
G75*
G03*
X10463100Y-9369500I-38100J0D01*
G01*
X10463100Y-9623500D02*
G75*
G03*
X10463100Y-9623500I-38100J0D01*
G01*
X10463100Y-9877500D02*
G75*
G03*
X10463100Y-9877500I-38100J0D01*
G01*
X10463100Y-10795500D02*
G75*
G03*
X10463100Y-10795500I-38100J0D01*
G01*
X10463100Y-11049500D02*
G75*
G03*
X10463100Y-11049500I-38100J0D01*
G01*
X10463100Y-11303500D02*
G75*
G03*
X10463100Y-11303500I-38100J0D01*
G01*
X10463100Y-11557500D02*
G75*
G03*
X10463100Y-11557500I-38100J0D01*
G01*
X10717100Y-7642500D02*
G75*
G03*
X10717100Y-7642500I-38100J0D01*
G01*
X10717100Y-7896500D02*
G75*
G03*
X10717100Y-7896500I-38100J0D01*
G01*
X10717100Y-8150500D02*
G75*
G03*
X10717100Y-8150500I-38100J0D01*
G01*
X10717100Y-8404500D02*
G75*
G03*
X10717100Y-8404500I-38100J0D01*
G01*
X10717100Y-9242500D02*
G75*
G03*
X10717100Y-9242500I-38100J0D01*
G01*
X10717100Y-9496500D02*
G75*
G03*
X10717100Y-9496500I-38100J0D01*
G01*
X10717100Y-9750500D02*
G75*
G03*
X10717100Y-9750500I-38100J0D01*
G01*
X10717100Y-10004500D02*
G75*
G03*
X10717100Y-10004500I-38100J0D01*
G01*
X10717100Y-10922500D02*
G75*
G03*
X10717100Y-10922500I-38100J0D01*
G01*
X10717100Y-11176500D02*
G75*
G03*
X10717100Y-11176500I-38100J0D01*
G01*
X10717100Y-11430500D02*
G75*
G03*
X10717100Y-11430500I-38100J0D01*
G01*
X10717100Y-11684500D02*
G75*
G03*
X10717100Y-11684500I-38100J0D01*
G01*
X16359100Y-7515500D02*
G75*
G03*
X16359100Y-7515500I-38100J0D01*
G01*
X16359100Y-7769500D02*
G75*
G03*
X16359100Y-7769500I-38100J0D01*
G01*
X16359100Y-8023500D02*
G75*
G03*
X16359100Y-8023500I-38100J0D01*
G01*
X16359100Y-8277500D02*
G75*
G03*
X16359100Y-8277500I-38100J0D01*
G01*
X16359100Y-9115500D02*
G75*
G03*
X16359100Y-9115500I-38100J0D01*
G01*
X16359100Y-9369500D02*
G75*
G03*
X16359100Y-9369500I-38100J0D01*
G01*
X16359100Y-9623500D02*
G75*
G03*
X16359100Y-9623500I-38100J0D01*
G01*
X16359100Y-9877500D02*
G75*
G03*
X16359100Y-9877500I-38100J0D01*
G01*
X16613100Y-7642500D02*
G75*
G03*
X16613100Y-7642500I-38100J0D01*
G01*
X16613100Y-7896500D02*
G75*
G03*
X16613100Y-7896500I-38100J0D01*
G01*
X16613100Y-8150500D02*
G75*
G03*
X16613100Y-8150500I-38100J0D01*
G01*
X16613100Y-8404500D02*
G75*
G03*
X16613100Y-8404500I-38100J0D01*
G01*
X16613100Y-9242500D02*
G75*
G03*
X16613100Y-9242500I-38100J0D01*
G01*
X16613100Y-9496500D02*
G75*
G03*
X16613100Y-9496500I-38100J0D01*
G01*
X16613100Y-9750500D02*
G75*
G03*
X16613100Y-9750500I-38100J0D01*
G01*
X16613100Y-10004500D02*
G75*
G03*
X16613100Y-10004500I-38100J0D01*
G01*
D13*
X11079480Y-5995200D02*
X11079480Y-6095200D01*
X11029480Y-6045200D02*
X11129480Y-6045200D01*
X11193680Y-5044960D02*
X11193680Y-5144960D01*
X11143680Y-5094960D02*
X11243680Y-5094960D01*
D10*
X11143680Y-4994960D02*
X11143680Y-5194960D01*
X11143680Y-5194960D02*
G75*
G03*
X11243680Y-5194960I50000J0D01*
G01*
X11243680Y-5194960D02*
X11243680Y-4994960D01*
X11243680Y-4994960D02*
G75*
G03*
X11143680Y-4994960I-50000J0D01*
G01*
D13*
X11663680Y-4744960D02*
X11663680Y-4844960D01*
X11613680Y-4794960D02*
X11713680Y-4794960D01*
D10*
X11763680Y-4744960D02*
X11563680Y-4744960D01*
X11563680Y-4744960D02*
G75*
G03*
X11563680Y-4844960I0J-50000D01*
G01*
X11563680Y-4844960D02*
X11763680Y-4844960D01*
X11763680Y-4844960D02*
G75*
G03*
X11763680Y-4744960I0J50000D01*
G01*
D13*
X11663680Y-5344960D02*
X11663680Y-5444960D01*
X11613680Y-5394960D02*
X11713680Y-5394960D01*
D10*
X11763680Y-5344960D02*
X11563680Y-5344960D01*
X11563680Y-5344960D02*
G75*
G03*
X11563680Y-5444960I0J-50000D01*
G01*
X11563680Y-5444960D02*
X11763680Y-5444960D01*
X11763680Y-5444960D02*
G75*
G03*
X11763680Y-5344960I0J50000D01*
G01*
D13*
X12065000Y-5817400D02*
X12065000Y-5917400D01*
X12015000Y-5867400D02*
X12115000Y-5867400D01*
X15412720Y-5665000D02*
X15412720Y-5765000D01*
X15362720Y-5715000D02*
X15462720Y-5715000D01*
X15488920Y-5248440D02*
X15488920Y-5348440D01*
X15438920Y-5298440D02*
X15538920Y-5298440D01*
D14*
X12431263Y-7249663D02*
X12431263Y-7177537D01*
X12359137Y-7177537D01*
X12359137Y-7249663D01*
X12431263Y-7249663D01*
X12431263Y-7503663D02*
X12431263Y-7431537D01*
X12359137Y-7431537D01*
X12359137Y-7503663D01*
X12431263Y-7503663D01*
X12431263Y-7757663D02*
X12431263Y-7685537D01*
X12359137Y-7685537D01*
X12359137Y-7757663D01*
X12431263Y-7757663D01*
X12431263Y-8011663D02*
X12431263Y-7939537D01*
X12359137Y-7939537D01*
X12359137Y-8011663D01*
X12431263Y-8011663D01*
X12431263Y-8265663D02*
X12431263Y-8193537D01*
X12359137Y-8193537D01*
X12359137Y-8265663D01*
X12431263Y-8265663D01*
X12431263Y-8519663D02*
X12431263Y-8447537D01*
X12359137Y-8447537D01*
X12359137Y-8519663D01*
X12431263Y-8519663D01*
X12431263Y-8773663D02*
X12431263Y-8701537D01*
X12359137Y-8701537D01*
X12359137Y-8773663D01*
X12431263Y-8773663D01*
X12431263Y-9027663D02*
X12431263Y-8955537D01*
X12359137Y-8955537D01*
X12359137Y-9027663D01*
X12431263Y-9027663D01*
X12431263Y-9281663D02*
X12431263Y-9209537D01*
X12359137Y-9209537D01*
X12359137Y-9281663D01*
X12431263Y-9281663D01*
X12431263Y-9535663D02*
X12431263Y-9463537D01*
X12359137Y-9463537D01*
X12359137Y-9535663D01*
X12431263Y-9535663D01*
X12431263Y-9789663D02*
X12431263Y-9717537D01*
X12359137Y-9717537D01*
X12359137Y-9789663D01*
X12431263Y-9789663D01*
X12431263Y-10043663D02*
X12431263Y-9971537D01*
X12359137Y-9971537D01*
X12359137Y-10043663D01*
X12431263Y-10043663D01*
X12431263Y-10297663D02*
X12431263Y-10225537D01*
X12359137Y-10225537D01*
X12359137Y-10297663D01*
X12431263Y-10297663D01*
X12431263Y-10551663D02*
X12431263Y-10479537D01*
X12359137Y-10479537D01*
X12359137Y-10551663D01*
X12431263Y-10551663D01*
X12431263Y-10805663D02*
X12431263Y-10733537D01*
X12359137Y-10733537D01*
X12359137Y-10805663D01*
X12431263Y-10805663D01*
X12431263Y-11059663D02*
X12431263Y-10987537D01*
X12359137Y-10987537D01*
X12359137Y-11059663D01*
X12431263Y-11059663D01*
X12431263Y-11313663D02*
X12431263Y-11241537D01*
X12359137Y-11241537D01*
X12359137Y-11313663D01*
X12431263Y-11313663D01*
X12431263Y-11567663D02*
X12431263Y-11495537D01*
X12359137Y-11495537D01*
X12359137Y-11567663D01*
X12431263Y-11567663D01*
X12431263Y-11821663D02*
X12431263Y-11749537D01*
X12359137Y-11749537D01*
X12359137Y-11821663D01*
X12431263Y-11821663D01*
X14971263Y-7249663D02*
X14971263Y-7177537D01*
X14899137Y-7177537D01*
X14899137Y-7249663D01*
X14971263Y-7249663D01*
X14971263Y-7503663D02*
X14971263Y-7431537D01*
X14899137Y-7431537D01*
X14899137Y-7503663D01*
X14971263Y-7503663D01*
X14971263Y-7757663D02*
X14971263Y-7685537D01*
X14899137Y-7685537D01*
X14899137Y-7757663D01*
X14971263Y-7757663D01*
X14971263Y-8011663D02*
X14971263Y-7939537D01*
X14899137Y-7939537D01*
X14899137Y-8011663D01*
X14971263Y-8011663D01*
X14971263Y-8265663D02*
X14971263Y-8193537D01*
X14899137Y-8193537D01*
X14899137Y-8265663D01*
X14971263Y-8265663D01*
X14971263Y-8519663D02*
X14971263Y-8447537D01*
X14899137Y-8447537D01*
X14899137Y-8519663D01*
X14971263Y-8519663D01*
X14971263Y-8773663D02*
X14971263Y-8701537D01*
X14899137Y-8701537D01*
X14899137Y-8773663D01*
X14971263Y-8773663D01*
X14971263Y-9027663D02*
X14971263Y-8955537D01*
X14899137Y-8955537D01*
X14899137Y-9027663D01*
X14971263Y-9027663D01*
X14971263Y-9281663D02*
X14971263Y-9209537D01*
X14899137Y-9209537D01*
X14899137Y-9281663D01*
X14971263Y-9281663D01*
X14971263Y-9535663D02*
X14971263Y-9463537D01*
X14899137Y-9463537D01*
X14899137Y-9535663D01*
X14971263Y-9535663D01*
X14971263Y-9789663D02*
X14971263Y-9717537D01*
X14899137Y-9717537D01*
X14899137Y-9789663D01*
X14971263Y-9789663D01*
X14971263Y-10043663D02*
X14971263Y-9971537D01*
X14899137Y-9971537D01*
X14899137Y-10043663D01*
X14971263Y-10043663D01*
X14971263Y-10297663D02*
X14971263Y-10225537D01*
X14899137Y-10225537D01*
X14899137Y-10297663D01*
X14971263Y-10297663D01*
X14971263Y-10551663D02*
X14971263Y-10479537D01*
X14899137Y-10479537D01*
X14899137Y-10551663D01*
X14971263Y-10551663D01*
X14971263Y-10805663D02*
X14971263Y-10733537D01*
X14899137Y-10733537D01*
X14899137Y-10805663D01*
X14971263Y-10805663D01*
X14971263Y-11059663D02*
X14971263Y-10987537D01*
X14899137Y-10987537D01*
X14899137Y-11059663D01*
X14971263Y-11059663D01*
X14971263Y-11313663D02*
X14971263Y-11241537D01*
X14899137Y-11241537D01*
X14899137Y-11313663D01*
X14971263Y-11313663D01*
X14971263Y-11567663D02*
X14971263Y-11495537D01*
X14899137Y-11495537D01*
X14899137Y-11567663D01*
X14971263Y-11567663D01*
X14971263Y-11821663D02*
X14971263Y-11749537D01*
X14899137Y-11749537D01*
X14899137Y-11821663D01*
X14971263Y-11821663D01*
D10*
X9737619Y-13822524D02*
X9737619Y-13622524D01*
X9737619Y-13622524D02*
X9785238Y-13622524D01*
X9785238Y-13622524D02*
X9813810Y-13632048D01*
X9813810Y-13632048D02*
X9832857Y-13651095D01*
X9832857Y-13651095D02*
X9842381Y-13670143D01*
X9842381Y-13670143D02*
X9851905Y-13708238D01*
X9851905Y-13708238D02*
X9851905Y-13736809D01*
X9851905Y-13736809D02*
X9842381Y-13774905D01*
X9842381Y-13774905D02*
X9832857Y-13793952D01*
X9832857Y-13793952D02*
X9813810Y-13813000D01*
X9813810Y-13813000D02*
X9785238Y-13822524D01*
X9785238Y-13822524D02*
X9737619Y-13822524D01*
X9937619Y-13822524D02*
X9937619Y-13689190D01*
X9937619Y-13727286D02*
X9947143Y-13708238D01*
X9947143Y-13708238D02*
X9956667Y-13698714D01*
X9956667Y-13698714D02*
X9975714Y-13689190D01*
X9975714Y-13689190D02*
X9994762Y-13689190D01*
X10061429Y-13822524D02*
X10061429Y-13689190D01*
X10061429Y-13622524D02*
X10051905Y-13632048D01*
X10051905Y-13632048D02*
X10061429Y-13641571D01*
X10061429Y-13641571D02*
X10070952Y-13632048D01*
X10070952Y-13632048D02*
X10061429Y-13622524D01*
X10061429Y-13622524D02*
X10061429Y-13641571D01*
X10185238Y-13822524D02*
X10166190Y-13813000D01*
X10166190Y-13813000D02*
X10156667Y-13793952D01*
X10156667Y-13793952D02*
X10156667Y-13622524D01*
X10290000Y-13822524D02*
X10270952Y-13813000D01*
X10270952Y-13813000D02*
X10261429Y-13793952D01*
X10261429Y-13793952D02*
X10261429Y-13622524D01*
X10518571Y-13822524D02*
X10518571Y-13622524D01*
X10518571Y-13622524D02*
X10585238Y-13765381D01*
X10585238Y-13765381D02*
X10651905Y-13622524D01*
X10651905Y-13622524D02*
X10651905Y-13822524D01*
X10832857Y-13822524D02*
X10832857Y-13717762D01*
X10832857Y-13717762D02*
X10823333Y-13698714D01*
X10823333Y-13698714D02*
X10804286Y-13689190D01*
X10804286Y-13689190D02*
X10766190Y-13689190D01*
X10766190Y-13689190D02*
X10747143Y-13698714D01*
X10832857Y-13813000D02*
X10813810Y-13822524D01*
X10813810Y-13822524D02*
X10766190Y-13822524D01*
X10766190Y-13822524D02*
X10747143Y-13813000D01*
X10747143Y-13813000D02*
X10737619Y-13793952D01*
X10737619Y-13793952D02*
X10737619Y-13774905D01*
X10737619Y-13774905D02*
X10747143Y-13755857D01*
X10747143Y-13755857D02*
X10766190Y-13746333D01*
X10766190Y-13746333D02*
X10813810Y-13746333D01*
X10813810Y-13746333D02*
X10832857Y-13736809D01*
X10928095Y-13689190D02*
X10928095Y-13889190D01*
X10928095Y-13698714D02*
X10947143Y-13689190D01*
X10947143Y-13689190D02*
X10985238Y-13689190D01*
X10985238Y-13689190D02*
X11004286Y-13698714D01*
X11004286Y-13698714D02*
X11013810Y-13708238D01*
X11013810Y-13708238D02*
X11023333Y-13727286D01*
X11023333Y-13727286D02*
X11023333Y-13784428D01*
X11023333Y-13784428D02*
X11013810Y-13803476D01*
X11013810Y-13803476D02*
X11004286Y-13813000D01*
X11004286Y-13813000D02*
X10985238Y-13822524D01*
X10985238Y-13822524D02*
X10947143Y-13822524D01*
X10947143Y-13822524D02*
X10928095Y-13813000D01*
X11109048Y-13803476D02*
X11118571Y-13813000D01*
X11118571Y-13813000D02*
X11109048Y-13822524D01*
X11109048Y-13822524D02*
X11099524Y-13813000D01*
X11099524Y-13813000D02*
X11109048Y-13803476D01*
X11109048Y-13803476D02*
X11109048Y-13822524D01*
X11109048Y-13698714D02*
X11118571Y-13708238D01*
X11118571Y-13708238D02*
X11109048Y-13717762D01*
X11109048Y-13717762D02*
X11099524Y-13708238D01*
X11099524Y-13708238D02*
X11109048Y-13698714D01*
X11109048Y-13698714D02*
X11109048Y-13717762D01*
D11*
X9450000Y-14130000D02*
X9490000Y-14170000D01*
X9490000Y-14130000D02*
X9450000Y-14170000D01*
D10*
X9775714Y-14042524D02*
X9794762Y-14042524D01*
X9794762Y-14042524D02*
X9813810Y-14052048D01*
X9813810Y-14052048D02*
X9823333Y-14061571D01*
X9823333Y-14061571D02*
X9832857Y-14080619D01*
X9832857Y-14080619D02*
X9842381Y-14118714D01*
X9842381Y-14118714D02*
X9842381Y-14166333D01*
X9842381Y-14166333D02*
X9832857Y-14204428D01*
X9832857Y-14204428D02*
X9823333Y-14223476D01*
X9823333Y-14223476D02*
X9813810Y-14233000D01*
X9813810Y-14233000D02*
X9794762Y-14242524D01*
X9794762Y-14242524D02*
X9775714Y-14242524D01*
X9775714Y-14242524D02*
X9756667Y-14233000D01*
X9756667Y-14233000D02*
X9747143Y-14223476D01*
X9747143Y-14223476D02*
X9737619Y-14204428D01*
X9737619Y-14204428D02*
X9728095Y-14166333D01*
X9728095Y-14166333D02*
X9728095Y-14118714D01*
X9728095Y-14118714D02*
X9737619Y-14080619D01*
X9737619Y-14080619D02*
X9747143Y-14061571D01*
X9747143Y-14061571D02*
X9756667Y-14052048D01*
X9756667Y-14052048D02*
X9775714Y-14042524D01*
X9928095Y-14223476D02*
X9937619Y-14233000D01*
X9937619Y-14233000D02*
X9928095Y-14242524D01*
X9928095Y-14242524D02*
X9918571Y-14233000D01*
X9918571Y-14233000D02*
X9928095Y-14223476D01*
X9928095Y-14223476D02*
X9928095Y-14242524D01*
X10109048Y-14109190D02*
X10109048Y-14242524D01*
X10061429Y-14033000D02*
X10013810Y-14175857D01*
X10013810Y-14175857D02*
X10137619Y-14175857D01*
X10251905Y-14042524D02*
X10270952Y-14042524D01*
X10270952Y-14042524D02*
X10290000Y-14052048D01*
X10290000Y-14052048D02*
X10299524Y-14061571D01*
X10299524Y-14061571D02*
X10309048Y-14080619D01*
X10309048Y-14080619D02*
X10318571Y-14118714D01*
X10318571Y-14118714D02*
X10318571Y-14166333D01*
X10318571Y-14166333D02*
X10309048Y-14204428D01*
X10309048Y-14204428D02*
X10299524Y-14223476D01*
X10299524Y-14223476D02*
X10290000Y-14233000D01*
X10290000Y-14233000D02*
X10270952Y-14242524D01*
X10270952Y-14242524D02*
X10251905Y-14242524D01*
X10251905Y-14242524D02*
X10232857Y-14233000D01*
X10232857Y-14233000D02*
X10223333Y-14223476D01*
X10223333Y-14223476D02*
X10213810Y-14204428D01*
X10213810Y-14204428D02*
X10204286Y-14166333D01*
X10204286Y-14166333D02*
X10204286Y-14118714D01*
X10204286Y-14118714D02*
X10213810Y-14080619D01*
X10213810Y-14080619D02*
X10223333Y-14061571D01*
X10223333Y-14061571D02*
X10232857Y-14052048D01*
X10232857Y-14052048D02*
X10251905Y-14042524D01*
X10442381Y-14042524D02*
X10461429Y-14042524D01*
X10461429Y-14042524D02*
X10480476Y-14052048D01*
X10480476Y-14052048D02*
X10490000Y-14061571D01*
X10490000Y-14061571D02*
X10499524Y-14080619D01*
X10499524Y-14080619D02*
X10509048Y-14118714D01*
X10509048Y-14118714D02*
X10509048Y-14166333D01*
X10509048Y-14166333D02*
X10499524Y-14204428D01*
X10499524Y-14204428D02*
X10490000Y-14223476D01*
X10490000Y-14223476D02*
X10480476Y-14233000D01*
X10480476Y-14233000D02*
X10461429Y-14242524D01*
X10461429Y-14242524D02*
X10442381Y-14242524D01*
X10442381Y-14242524D02*
X10423333Y-14233000D01*
X10423333Y-14233000D02*
X10413810Y-14223476D01*
X10413810Y-14223476D02*
X10404286Y-14204428D01*
X10404286Y-14204428D02*
X10394762Y-14166333D01*
X10394762Y-14166333D02*
X10394762Y-14118714D01*
X10394762Y-14118714D02*
X10404286Y-14080619D01*
X10404286Y-14080619D02*
X10413810Y-14061571D01*
X10413810Y-14061571D02*
X10423333Y-14052048D01*
X10423333Y-14052048D02*
X10442381Y-14042524D01*
X10594762Y-14242524D02*
X10594762Y-14109190D01*
X10594762Y-14128238D02*
X10604286Y-14118714D01*
X10604286Y-14118714D02*
X10623333Y-14109190D01*
X10623333Y-14109190D02*
X10651905Y-14109190D01*
X10651905Y-14109190D02*
X10670952Y-14118714D01*
X10670952Y-14118714D02*
X10680476Y-14137762D01*
X10680476Y-14137762D02*
X10680476Y-14242524D01*
X10680476Y-14137762D02*
X10690000Y-14118714D01*
X10690000Y-14118714D02*
X10709048Y-14109190D01*
X10709048Y-14109190D02*
X10737619Y-14109190D01*
X10737619Y-14109190D02*
X10756667Y-14118714D01*
X10756667Y-14118714D02*
X10766191Y-14137762D01*
X10766191Y-14137762D02*
X10766191Y-14242524D01*
X10861429Y-14242524D02*
X10861429Y-14109190D01*
X10861429Y-14128238D02*
X10870952Y-14118714D01*
X10870952Y-14118714D02*
X10890000Y-14109190D01*
X10890000Y-14109190D02*
X10918572Y-14109190D01*
X10918572Y-14109190D02*
X10937619Y-14118714D01*
X10937619Y-14118714D02*
X10947143Y-14137762D01*
X10947143Y-14137762D02*
X10947143Y-14242524D01*
X10947143Y-14137762D02*
X10956667Y-14118714D01*
X10956667Y-14118714D02*
X10975714Y-14109190D01*
X10975714Y-14109190D02*
X11004286Y-14109190D01*
X11004286Y-14109190D02*
X11023333Y-14118714D01*
X11023333Y-14118714D02*
X11032857Y-14137762D01*
X11032857Y-14137762D02*
X11032857Y-14242524D01*
X11423333Y-14033000D02*
X11251905Y-14290143D01*
X11680476Y-14042524D02*
X11699524Y-14042524D01*
X11699524Y-14042524D02*
X11718572Y-14052048D01*
X11718572Y-14052048D02*
X11728095Y-14061571D01*
X11728095Y-14061571D02*
X11737619Y-14080619D01*
X11737619Y-14080619D02*
X11747143Y-14118714D01*
X11747143Y-14118714D02*
X11747143Y-14166333D01*
X11747143Y-14166333D02*
X11737619Y-14204428D01*
X11737619Y-14204428D02*
X11728095Y-14223476D01*
X11728095Y-14223476D02*
X11718572Y-14233000D01*
X11718572Y-14233000D02*
X11699524Y-14242524D01*
X11699524Y-14242524D02*
X11680476Y-14242524D01*
X11680476Y-14242524D02*
X11661429Y-14233000D01*
X11661429Y-14233000D02*
X11651905Y-14223476D01*
X11651905Y-14223476D02*
X11642381Y-14204428D01*
X11642381Y-14204428D02*
X11632857Y-14166333D01*
X11632857Y-14166333D02*
X11632857Y-14118714D01*
X11632857Y-14118714D02*
X11642381Y-14080619D01*
X11642381Y-14080619D02*
X11651905Y-14061571D01*
X11651905Y-14061571D02*
X11661429Y-14052048D01*
X11661429Y-14052048D02*
X11680476Y-14042524D01*
X11832857Y-14223476D02*
X11842381Y-14233000D01*
X11842381Y-14233000D02*
X11832857Y-14242524D01*
X11832857Y-14242524D02*
X11823333Y-14233000D01*
X11823333Y-14233000D02*
X11832857Y-14223476D01*
X11832857Y-14223476D02*
X11832857Y-14242524D01*
X11966191Y-14042524D02*
X11985238Y-14042524D01*
X11985238Y-14042524D02*
X12004286Y-14052048D01*
X12004286Y-14052048D02*
X12013810Y-14061571D01*
X12013810Y-14061571D02*
X12023333Y-14080619D01*
X12023333Y-14080619D02*
X12032857Y-14118714D01*
X12032857Y-14118714D02*
X12032857Y-14166333D01*
X12032857Y-14166333D02*
X12023333Y-14204428D01*
X12023333Y-14204428D02*
X12013810Y-14223476D01*
X12013810Y-14223476D02*
X12004286Y-14233000D01*
X12004286Y-14233000D02*
X11985238Y-14242524D01*
X11985238Y-14242524D02*
X11966191Y-14242524D01*
X11966191Y-14242524D02*
X11947143Y-14233000D01*
X11947143Y-14233000D02*
X11937619Y-14223476D01*
X11937619Y-14223476D02*
X11928095Y-14204428D01*
X11928095Y-14204428D02*
X11918572Y-14166333D01*
X11918572Y-14166333D02*
X11918572Y-14118714D01*
X11918572Y-14118714D02*
X11928095Y-14080619D01*
X11928095Y-14080619D02*
X11937619Y-14061571D01*
X11937619Y-14061571D02*
X11947143Y-14052048D01*
X11947143Y-14052048D02*
X11966191Y-14042524D01*
X12223333Y-14242524D02*
X12109048Y-14242524D01*
X12166191Y-14242524D02*
X12166191Y-14042524D01*
X12166191Y-14042524D02*
X12147143Y-14071095D01*
X12147143Y-14071095D02*
X12128095Y-14090143D01*
X12128095Y-14090143D02*
X12109048Y-14099667D01*
X12404286Y-14042524D02*
X12309048Y-14042524D01*
X12309048Y-14042524D02*
X12299524Y-14137762D01*
X12299524Y-14137762D02*
X12309048Y-14128238D01*
X12309048Y-14128238D02*
X12328095Y-14118714D01*
X12328095Y-14118714D02*
X12375714Y-14118714D01*
X12375714Y-14118714D02*
X12394762Y-14128238D01*
X12394762Y-14128238D02*
X12404286Y-14137762D01*
X12404286Y-14137762D02*
X12413810Y-14156809D01*
X12413810Y-14156809D02*
X12413810Y-14204428D01*
X12413810Y-14204428D02*
X12404286Y-14223476D01*
X12404286Y-14223476D02*
X12394762Y-14233000D01*
X12394762Y-14233000D02*
X12375714Y-14242524D01*
X12375714Y-14242524D02*
X12328095Y-14242524D01*
X12328095Y-14242524D02*
X12309048Y-14233000D01*
X12309048Y-14233000D02*
X12299524Y-14223476D01*
X12480476Y-14042524D02*
X12613810Y-14042524D01*
X12613810Y-14042524D02*
X12528095Y-14242524D01*
X12680476Y-14042524D02*
X12680476Y-14080619D01*
X12756667Y-14042524D02*
X12756667Y-14080619D01*
X13051905Y-14318714D02*
X13042381Y-14309190D01*
X13042381Y-14309190D02*
X13023334Y-14280619D01*
X13023334Y-14280619D02*
X13013810Y-14261571D01*
X13013810Y-14261571D02*
X13004286Y-14233000D01*
X13004286Y-14233000D02*
X12994762Y-14185381D01*
X12994762Y-14185381D02*
X12994762Y-14147286D01*
X12994762Y-14147286D02*
X13004286Y-14099667D01*
X13004286Y-14099667D02*
X13013810Y-14071095D01*
X13013810Y-14071095D02*
X13023334Y-14052048D01*
X13023334Y-14052048D02*
X13042381Y-14023476D01*
X13042381Y-14023476D02*
X13051905Y-14013952D01*
X13232857Y-14242524D02*
X13118572Y-14242524D01*
X13175714Y-14242524D02*
X13175714Y-14042524D01*
X13175714Y-14042524D02*
X13156667Y-14071095D01*
X13156667Y-14071095D02*
X13137619Y-14090143D01*
X13137619Y-14090143D02*
X13118572Y-14099667D01*
X13423334Y-14242524D02*
X13309048Y-14242524D01*
X13366191Y-14242524D02*
X13366191Y-14042524D01*
X13366191Y-14042524D02*
X13347143Y-14071095D01*
X13347143Y-14071095D02*
X13328095Y-14090143D01*
X13328095Y-14090143D02*
X13309048Y-14099667D01*
X13547143Y-14042524D02*
X13566191Y-14042524D01*
X13566191Y-14042524D02*
X13585238Y-14052048D01*
X13585238Y-14052048D02*
X13594762Y-14061571D01*
X13594762Y-14061571D02*
X13604286Y-14080619D01*
X13604286Y-14080619D02*
X13613810Y-14118714D01*
X13613810Y-14118714D02*
X13613810Y-14166333D01*
X13613810Y-14166333D02*
X13604286Y-14204428D01*
X13604286Y-14204428D02*
X13594762Y-14223476D01*
X13594762Y-14223476D02*
X13585238Y-14233000D01*
X13585238Y-14233000D02*
X13566191Y-14242524D01*
X13566191Y-14242524D02*
X13547143Y-14242524D01*
X13547143Y-14242524D02*
X13528095Y-14233000D01*
X13528095Y-14233000D02*
X13518572Y-14223476D01*
X13518572Y-14223476D02*
X13509048Y-14204428D01*
X13509048Y-14204428D02*
X13499524Y-14166333D01*
X13499524Y-14166333D02*
X13499524Y-14118714D01*
X13499524Y-14118714D02*
X13509048Y-14080619D01*
X13509048Y-14080619D02*
X13518572Y-14061571D01*
X13518572Y-14061571D02*
X13528095Y-14052048D01*
X13528095Y-14052048D02*
X13547143Y-14042524D01*
X13851905Y-14242524D02*
X13851905Y-14042524D01*
X13937619Y-14242524D02*
X13937619Y-14137762D01*
X13937619Y-14137762D02*
X13928096Y-14118714D01*
X13928096Y-14118714D02*
X13909048Y-14109190D01*
X13909048Y-14109190D02*
X13880476Y-14109190D01*
X13880476Y-14109190D02*
X13861429Y-14118714D01*
X13861429Y-14118714D02*
X13851905Y-14128238D01*
X14061429Y-14242524D02*
X14042381Y-14233000D01*
X14042381Y-14233000D02*
X14032857Y-14223476D01*
X14032857Y-14223476D02*
X14023334Y-14204428D01*
X14023334Y-14204428D02*
X14023334Y-14147286D01*
X14023334Y-14147286D02*
X14032857Y-14128238D01*
X14032857Y-14128238D02*
X14042381Y-14118714D01*
X14042381Y-14118714D02*
X14061429Y-14109190D01*
X14061429Y-14109190D02*
X14090000Y-14109190D01*
X14090000Y-14109190D02*
X14109048Y-14118714D01*
X14109048Y-14118714D02*
X14118572Y-14128238D01*
X14118572Y-14128238D02*
X14128096Y-14147286D01*
X14128096Y-14147286D02*
X14128096Y-14204428D01*
X14128096Y-14204428D02*
X14118572Y-14223476D01*
X14118572Y-14223476D02*
X14109048Y-14233000D01*
X14109048Y-14233000D02*
X14090000Y-14242524D01*
X14090000Y-14242524D02*
X14061429Y-14242524D01*
X14242381Y-14242524D02*
X14223334Y-14233000D01*
X14223334Y-14233000D02*
X14213810Y-14213952D01*
X14213810Y-14213952D02*
X14213810Y-14042524D01*
X14394762Y-14233000D02*
X14375715Y-14242524D01*
X14375715Y-14242524D02*
X14337619Y-14242524D01*
X14337619Y-14242524D02*
X14318572Y-14233000D01*
X14318572Y-14233000D02*
X14309048Y-14213952D01*
X14309048Y-14213952D02*
X14309048Y-14137762D01*
X14309048Y-14137762D02*
X14318572Y-14118714D01*
X14318572Y-14118714D02*
X14337619Y-14109190D01*
X14337619Y-14109190D02*
X14375715Y-14109190D01*
X14375715Y-14109190D02*
X14394762Y-14118714D01*
X14394762Y-14118714D02*
X14404286Y-14137762D01*
X14404286Y-14137762D02*
X14404286Y-14156809D01*
X14404286Y-14156809D02*
X14309048Y-14175857D01*
X14480477Y-14233000D02*
X14499524Y-14242524D01*
X14499524Y-14242524D02*
X14537619Y-14242524D01*
X14537619Y-14242524D02*
X14556667Y-14233000D01*
X14556667Y-14233000D02*
X14566191Y-14213952D01*
X14566191Y-14213952D02*
X14566191Y-14204428D01*
X14566191Y-14204428D02*
X14556667Y-14185381D01*
X14556667Y-14185381D02*
X14537619Y-14175857D01*
X14537619Y-14175857D02*
X14509048Y-14175857D01*
X14509048Y-14175857D02*
X14490000Y-14166333D01*
X14490000Y-14166333D02*
X14480477Y-14147286D01*
X14480477Y-14147286D02*
X14480477Y-14137762D01*
X14480477Y-14137762D02*
X14490000Y-14118714D01*
X14490000Y-14118714D02*
X14509048Y-14109190D01*
X14509048Y-14109190D02*
X14537619Y-14109190D01*
X14537619Y-14109190D02*
X14556667Y-14118714D01*
X14632858Y-14318714D02*
X14642381Y-14309190D01*
X14642381Y-14309190D02*
X14661429Y-14280619D01*
X14661429Y-14280619D02*
X14670953Y-14261571D01*
X14670953Y-14261571D02*
X14680477Y-14233000D01*
X14680477Y-14233000D02*
X14690000Y-14185381D01*
X14690000Y-14185381D02*
X14690000Y-14147286D01*
X14690000Y-14147286D02*
X14680477Y-14099667D01*
X14680477Y-14099667D02*
X14670953Y-14071095D01*
X14670953Y-14071095D02*
X14661429Y-14052048D01*
X14661429Y-14052048D02*
X14642381Y-14023476D01*
X14642381Y-14023476D02*
X14632858Y-14013952D01*
D12*
X9490000Y-14414000D02*
G75*
G03*
X9490000Y-14414000I-38100J0D01*
G01*
D10*
X9775714Y-14306524D02*
X9794762Y-14306524D01*
X9794762Y-14306524D02*
X9813810Y-14316048D01*
X9813810Y-14316048D02*
X9823333Y-14325571D01*
X9823333Y-14325571D02*
X9832857Y-14344619D01*
X9832857Y-14344619D02*
X9842381Y-14382714D01*
X9842381Y-14382714D02*
X9842381Y-14430333D01*
X9842381Y-14430333D02*
X9832857Y-14468428D01*
X9832857Y-14468428D02*
X9823333Y-14487476D01*
X9823333Y-14487476D02*
X9813810Y-14497000D01*
X9813810Y-14497000D02*
X9794762Y-14506524D01*
X9794762Y-14506524D02*
X9775714Y-14506524D01*
X9775714Y-14506524D02*
X9756667Y-14497000D01*
X9756667Y-14497000D02*
X9747143Y-14487476D01*
X9747143Y-14487476D02*
X9737619Y-14468428D01*
X9737619Y-14468428D02*
X9728095Y-14430333D01*
X9728095Y-14430333D02*
X9728095Y-14382714D01*
X9728095Y-14382714D02*
X9737619Y-14344619D01*
X9737619Y-14344619D02*
X9747143Y-14325571D01*
X9747143Y-14325571D02*
X9756667Y-14316048D01*
X9756667Y-14316048D02*
X9775714Y-14306524D01*
X9928095Y-14487476D02*
X9937619Y-14497000D01*
X9937619Y-14497000D02*
X9928095Y-14506524D01*
X9928095Y-14506524D02*
X9918571Y-14497000D01*
X9918571Y-14497000D02*
X9928095Y-14487476D01*
X9928095Y-14487476D02*
X9928095Y-14506524D01*
X10004286Y-14306524D02*
X10137619Y-14306524D01*
X10137619Y-14306524D02*
X10051905Y-14506524D01*
X10299524Y-14306524D02*
X10261429Y-14306524D01*
X10261429Y-14306524D02*
X10242381Y-14316048D01*
X10242381Y-14316048D02*
X10232857Y-14325571D01*
X10232857Y-14325571D02*
X10213810Y-14354143D01*
X10213810Y-14354143D02*
X10204286Y-14392238D01*
X10204286Y-14392238D02*
X10204286Y-14468428D01*
X10204286Y-14468428D02*
X10213810Y-14487476D01*
X10213810Y-14487476D02*
X10223333Y-14497000D01*
X10223333Y-14497000D02*
X10242381Y-14506524D01*
X10242381Y-14506524D02*
X10280476Y-14506524D01*
X10280476Y-14506524D02*
X10299524Y-14497000D01*
X10299524Y-14497000D02*
X10309048Y-14487476D01*
X10309048Y-14487476D02*
X10318571Y-14468428D01*
X10318571Y-14468428D02*
X10318571Y-14420809D01*
X10318571Y-14420809D02*
X10309048Y-14401762D01*
X10309048Y-14401762D02*
X10299524Y-14392238D01*
X10299524Y-14392238D02*
X10280476Y-14382714D01*
X10280476Y-14382714D02*
X10242381Y-14382714D01*
X10242381Y-14382714D02*
X10223333Y-14392238D01*
X10223333Y-14392238D02*
X10213810Y-14401762D01*
X10213810Y-14401762D02*
X10204286Y-14420809D01*
X10394762Y-14325571D02*
X10404286Y-14316048D01*
X10404286Y-14316048D02*
X10423333Y-14306524D01*
X10423333Y-14306524D02*
X10470952Y-14306524D01*
X10470952Y-14306524D02*
X10490000Y-14316048D01*
X10490000Y-14316048D02*
X10499524Y-14325571D01*
X10499524Y-14325571D02*
X10509048Y-14344619D01*
X10509048Y-14344619D02*
X10509048Y-14363667D01*
X10509048Y-14363667D02*
X10499524Y-14392238D01*
X10499524Y-14392238D02*
X10385238Y-14506524D01*
X10385238Y-14506524D02*
X10509048Y-14506524D01*
X10594762Y-14506524D02*
X10594762Y-14373190D01*
X10594762Y-14392238D02*
X10604286Y-14382714D01*
X10604286Y-14382714D02*
X10623333Y-14373190D01*
X10623333Y-14373190D02*
X10651905Y-14373190D01*
X10651905Y-14373190D02*
X10670952Y-14382714D01*
X10670952Y-14382714D02*
X10680476Y-14401762D01*
X10680476Y-14401762D02*
X10680476Y-14506524D01*
X10680476Y-14401762D02*
X10690000Y-14382714D01*
X10690000Y-14382714D02*
X10709048Y-14373190D01*
X10709048Y-14373190D02*
X10737619Y-14373190D01*
X10737619Y-14373190D02*
X10756667Y-14382714D01*
X10756667Y-14382714D02*
X10766191Y-14401762D01*
X10766191Y-14401762D02*
X10766191Y-14506524D01*
X10861429Y-14506524D02*
X10861429Y-14373190D01*
X10861429Y-14392238D02*
X10870952Y-14382714D01*
X10870952Y-14382714D02*
X10890000Y-14373190D01*
X10890000Y-14373190D02*
X10918572Y-14373190D01*
X10918572Y-14373190D02*
X10937619Y-14382714D01*
X10937619Y-14382714D02*
X10947143Y-14401762D01*
X10947143Y-14401762D02*
X10947143Y-14506524D01*
X10947143Y-14401762D02*
X10956667Y-14382714D01*
X10956667Y-14382714D02*
X10975714Y-14373190D01*
X10975714Y-14373190D02*
X11004286Y-14373190D01*
X11004286Y-14373190D02*
X11023333Y-14382714D01*
X11023333Y-14382714D02*
X11032857Y-14401762D01*
X11032857Y-14401762D02*
X11032857Y-14506524D01*
X11423333Y-14297000D02*
X11251905Y-14554143D01*
X11680476Y-14306524D02*
X11699524Y-14306524D01*
X11699524Y-14306524D02*
X11718572Y-14316048D01*
X11718572Y-14316048D02*
X11728095Y-14325571D01*
X11728095Y-14325571D02*
X11737619Y-14344619D01*
X11737619Y-14344619D02*
X11747143Y-14382714D01*
X11747143Y-14382714D02*
X11747143Y-14430333D01*
X11747143Y-14430333D02*
X11737619Y-14468428D01*
X11737619Y-14468428D02*
X11728095Y-14487476D01*
X11728095Y-14487476D02*
X11718572Y-14497000D01*
X11718572Y-14497000D02*
X11699524Y-14506524D01*
X11699524Y-14506524D02*
X11680476Y-14506524D01*
X11680476Y-14506524D02*
X11661429Y-14497000D01*
X11661429Y-14497000D02*
X11651905Y-14487476D01*
X11651905Y-14487476D02*
X11642381Y-14468428D01*
X11642381Y-14468428D02*
X11632857Y-14430333D01*
X11632857Y-14430333D02*
X11632857Y-14382714D01*
X11632857Y-14382714D02*
X11642381Y-14344619D01*
X11642381Y-14344619D02*
X11651905Y-14325571D01*
X11651905Y-14325571D02*
X11661429Y-14316048D01*
X11661429Y-14316048D02*
X11680476Y-14306524D01*
X11832857Y-14487476D02*
X11842381Y-14497000D01*
X11842381Y-14497000D02*
X11832857Y-14506524D01*
X11832857Y-14506524D02*
X11823333Y-14497000D01*
X11823333Y-14497000D02*
X11832857Y-14487476D01*
X11832857Y-14487476D02*
X11832857Y-14506524D01*
X11966191Y-14306524D02*
X11985238Y-14306524D01*
X11985238Y-14306524D02*
X12004286Y-14316048D01*
X12004286Y-14316048D02*
X12013810Y-14325571D01*
X12013810Y-14325571D02*
X12023333Y-14344619D01*
X12023333Y-14344619D02*
X12032857Y-14382714D01*
X12032857Y-14382714D02*
X12032857Y-14430333D01*
X12032857Y-14430333D02*
X12023333Y-14468428D01*
X12023333Y-14468428D02*
X12013810Y-14487476D01*
X12013810Y-14487476D02*
X12004286Y-14497000D01*
X12004286Y-14497000D02*
X11985238Y-14506524D01*
X11985238Y-14506524D02*
X11966191Y-14506524D01*
X11966191Y-14506524D02*
X11947143Y-14497000D01*
X11947143Y-14497000D02*
X11937619Y-14487476D01*
X11937619Y-14487476D02*
X11928095Y-14468428D01*
X11928095Y-14468428D02*
X11918572Y-14430333D01*
X11918572Y-14430333D02*
X11918572Y-14382714D01*
X11918572Y-14382714D02*
X11928095Y-14344619D01*
X11928095Y-14344619D02*
X11937619Y-14325571D01*
X11937619Y-14325571D02*
X11947143Y-14316048D01*
X11947143Y-14316048D02*
X11966191Y-14306524D01*
X12099524Y-14306524D02*
X12223333Y-14306524D01*
X12223333Y-14306524D02*
X12156667Y-14382714D01*
X12156667Y-14382714D02*
X12185238Y-14382714D01*
X12185238Y-14382714D02*
X12204286Y-14392238D01*
X12204286Y-14392238D02*
X12213810Y-14401762D01*
X12213810Y-14401762D02*
X12223333Y-14420809D01*
X12223333Y-14420809D02*
X12223333Y-14468428D01*
X12223333Y-14468428D02*
X12213810Y-14487476D01*
X12213810Y-14487476D02*
X12204286Y-14497000D01*
X12204286Y-14497000D02*
X12185238Y-14506524D01*
X12185238Y-14506524D02*
X12128095Y-14506524D01*
X12128095Y-14506524D02*
X12109048Y-14497000D01*
X12109048Y-14497000D02*
X12099524Y-14487476D01*
X12347143Y-14306524D02*
X12366191Y-14306524D01*
X12366191Y-14306524D02*
X12385238Y-14316048D01*
X12385238Y-14316048D02*
X12394762Y-14325571D01*
X12394762Y-14325571D02*
X12404286Y-14344619D01*
X12404286Y-14344619D02*
X12413810Y-14382714D01*
X12413810Y-14382714D02*
X12413810Y-14430333D01*
X12413810Y-14430333D02*
X12404286Y-14468428D01*
X12404286Y-14468428D02*
X12394762Y-14487476D01*
X12394762Y-14487476D02*
X12385238Y-14497000D01*
X12385238Y-14497000D02*
X12366191Y-14506524D01*
X12366191Y-14506524D02*
X12347143Y-14506524D01*
X12347143Y-14506524D02*
X12328095Y-14497000D01*
X12328095Y-14497000D02*
X12318572Y-14487476D01*
X12318572Y-14487476D02*
X12309048Y-14468428D01*
X12309048Y-14468428D02*
X12299524Y-14430333D01*
X12299524Y-14430333D02*
X12299524Y-14382714D01*
X12299524Y-14382714D02*
X12309048Y-14344619D01*
X12309048Y-14344619D02*
X12318572Y-14325571D01*
X12318572Y-14325571D02*
X12328095Y-14316048D01*
X12328095Y-14316048D02*
X12347143Y-14306524D01*
X12537619Y-14306524D02*
X12556667Y-14306524D01*
X12556667Y-14306524D02*
X12575714Y-14316048D01*
X12575714Y-14316048D02*
X12585238Y-14325571D01*
X12585238Y-14325571D02*
X12594762Y-14344619D01*
X12594762Y-14344619D02*
X12604286Y-14382714D01*
X12604286Y-14382714D02*
X12604286Y-14430333D01*
X12604286Y-14430333D02*
X12594762Y-14468428D01*
X12594762Y-14468428D02*
X12585238Y-14487476D01*
X12585238Y-14487476D02*
X12575714Y-14497000D01*
X12575714Y-14497000D02*
X12556667Y-14506524D01*
X12556667Y-14506524D02*
X12537619Y-14506524D01*
X12537619Y-14506524D02*
X12518572Y-14497000D01*
X12518572Y-14497000D02*
X12509048Y-14487476D01*
X12509048Y-14487476D02*
X12499524Y-14468428D01*
X12499524Y-14468428D02*
X12490000Y-14430333D01*
X12490000Y-14430333D02*
X12490000Y-14382714D01*
X12490000Y-14382714D02*
X12499524Y-14344619D01*
X12499524Y-14344619D02*
X12509048Y-14325571D01*
X12509048Y-14325571D02*
X12518572Y-14316048D01*
X12518572Y-14316048D02*
X12537619Y-14306524D01*
X12680476Y-14306524D02*
X12680476Y-14344619D01*
X12756667Y-14306524D02*
X12756667Y-14344619D01*
X13051905Y-14582714D02*
X13042381Y-14573190D01*
X13042381Y-14573190D02*
X13023334Y-14544619D01*
X13023334Y-14544619D02*
X13013810Y-14525571D01*
X13013810Y-14525571D02*
X13004286Y-14497000D01*
X13004286Y-14497000D02*
X12994762Y-14449381D01*
X12994762Y-14449381D02*
X12994762Y-14411286D01*
X12994762Y-14411286D02*
X13004286Y-14363667D01*
X13004286Y-14363667D02*
X13013810Y-14335095D01*
X13013810Y-14335095D02*
X13023334Y-14316048D01*
X13023334Y-14316048D02*
X13042381Y-14287476D01*
X13042381Y-14287476D02*
X13051905Y-14277952D01*
X13213810Y-14373190D02*
X13213810Y-14506524D01*
X13166191Y-14297000D02*
X13118572Y-14439857D01*
X13118572Y-14439857D02*
X13242381Y-14439857D01*
X13356667Y-14306524D02*
X13375715Y-14306524D01*
X13375715Y-14306524D02*
X13394762Y-14316048D01*
X13394762Y-14316048D02*
X13404286Y-14325571D01*
X13404286Y-14325571D02*
X13413810Y-14344619D01*
X13413810Y-14344619D02*
X13423334Y-14382714D01*
X13423334Y-14382714D02*
X13423334Y-14430333D01*
X13423334Y-14430333D02*
X13413810Y-14468428D01*
X13413810Y-14468428D02*
X13404286Y-14487476D01*
X13404286Y-14487476D02*
X13394762Y-14497000D01*
X13394762Y-14497000D02*
X13375715Y-14506524D01*
X13375715Y-14506524D02*
X13356667Y-14506524D01*
X13356667Y-14506524D02*
X13337619Y-14497000D01*
X13337619Y-14497000D02*
X13328095Y-14487476D01*
X13328095Y-14487476D02*
X13318572Y-14468428D01*
X13318572Y-14468428D02*
X13309048Y-14430333D01*
X13309048Y-14430333D02*
X13309048Y-14382714D01*
X13309048Y-14382714D02*
X13318572Y-14344619D01*
X13318572Y-14344619D02*
X13328095Y-14325571D01*
X13328095Y-14325571D02*
X13337619Y-14316048D01*
X13337619Y-14316048D02*
X13356667Y-14306524D01*
X13661429Y-14506524D02*
X13661429Y-14306524D01*
X13747143Y-14506524D02*
X13747143Y-14401762D01*
X13747143Y-14401762D02*
X13737619Y-14382714D01*
X13737619Y-14382714D02*
X13718572Y-14373190D01*
X13718572Y-14373190D02*
X13690000Y-14373190D01*
X13690000Y-14373190D02*
X13670953Y-14382714D01*
X13670953Y-14382714D02*
X13661429Y-14392238D01*
X13870953Y-14506524D02*
X13851905Y-14497000D01*
X13851905Y-14497000D02*
X13842381Y-14487476D01*
X13842381Y-14487476D02*
X13832857Y-14468428D01*
X13832857Y-14468428D02*
X13832857Y-14411286D01*
X13832857Y-14411286D02*
X13842381Y-14392238D01*
X13842381Y-14392238D02*
X13851905Y-14382714D01*
X13851905Y-14382714D02*
X13870953Y-14373190D01*
X13870953Y-14373190D02*
X13899524Y-14373190D01*
X13899524Y-14373190D02*
X13918572Y-14382714D01*
X13918572Y-14382714D02*
X13928096Y-14392238D01*
X13928096Y-14392238D02*
X13937619Y-14411286D01*
X13937619Y-14411286D02*
X13937619Y-14468428D01*
X13937619Y-14468428D02*
X13928096Y-14487476D01*
X13928096Y-14487476D02*
X13918572Y-14497000D01*
X13918572Y-14497000D02*
X13899524Y-14506524D01*
X13899524Y-14506524D02*
X13870953Y-14506524D01*
X14051905Y-14506524D02*
X14032857Y-14497000D01*
X14032857Y-14497000D02*
X14023334Y-14477952D01*
X14023334Y-14477952D02*
X14023334Y-14306524D01*
X14204286Y-14497000D02*
X14185238Y-14506524D01*
X14185238Y-14506524D02*
X14147143Y-14506524D01*
X14147143Y-14506524D02*
X14128096Y-14497000D01*
X14128096Y-14497000D02*
X14118572Y-14477952D01*
X14118572Y-14477952D02*
X14118572Y-14401762D01*
X14118572Y-14401762D02*
X14128096Y-14382714D01*
X14128096Y-14382714D02*
X14147143Y-14373190D01*
X14147143Y-14373190D02*
X14185238Y-14373190D01*
X14185238Y-14373190D02*
X14204286Y-14382714D01*
X14204286Y-14382714D02*
X14213810Y-14401762D01*
X14213810Y-14401762D02*
X14213810Y-14420809D01*
X14213810Y-14420809D02*
X14118572Y-14439857D01*
X14290000Y-14497000D02*
X14309048Y-14506524D01*
X14309048Y-14506524D02*
X14347143Y-14506524D01*
X14347143Y-14506524D02*
X14366191Y-14497000D01*
X14366191Y-14497000D02*
X14375715Y-14477952D01*
X14375715Y-14477952D02*
X14375715Y-14468428D01*
X14375715Y-14468428D02*
X14366191Y-14449381D01*
X14366191Y-14449381D02*
X14347143Y-14439857D01*
X14347143Y-14439857D02*
X14318572Y-14439857D01*
X14318572Y-14439857D02*
X14299524Y-14430333D01*
X14299524Y-14430333D02*
X14290000Y-14411286D01*
X14290000Y-14411286D02*
X14290000Y-14401762D01*
X14290000Y-14401762D02*
X14299524Y-14382714D01*
X14299524Y-14382714D02*
X14318572Y-14373190D01*
X14318572Y-14373190D02*
X14347143Y-14373190D01*
X14347143Y-14373190D02*
X14366191Y-14382714D01*
X14442381Y-14582714D02*
X14451905Y-14573190D01*
X14451905Y-14573190D02*
X14470953Y-14544619D01*
X14470953Y-14544619D02*
X14480477Y-14525571D01*
X14480477Y-14525571D02*
X14490000Y-14497000D01*
X14490000Y-14497000D02*
X14499524Y-14449381D01*
X14499524Y-14449381D02*
X14499524Y-14411286D01*
X14499524Y-14411286D02*
X14490000Y-14363667D01*
X14490000Y-14363667D02*
X14480477Y-14335095D01*
X14480477Y-14335095D02*
X14470953Y-14316048D01*
X14470953Y-14316048D02*
X14451905Y-14287476D01*
X14451905Y-14287476D02*
X14442381Y-14277952D01*
D13*
X9440000Y-14628000D02*
X9440000Y-14728000D01*
X9390000Y-14678000D02*
X9490000Y-14678000D01*
D10*
X9842381Y-14770524D02*
X9728095Y-14770524D01*
X9785238Y-14770524D02*
X9785238Y-14570524D01*
X9785238Y-14570524D02*
X9766190Y-14599095D01*
X9766190Y-14599095D02*
X9747143Y-14618143D01*
X9747143Y-14618143D02*
X9728095Y-14627667D01*
X9928095Y-14751476D02*
X9937619Y-14761000D01*
X9937619Y-14761000D02*
X9928095Y-14770524D01*
X9928095Y-14770524D02*
X9918571Y-14761000D01*
X9918571Y-14761000D02*
X9928095Y-14751476D01*
X9928095Y-14751476D02*
X9928095Y-14770524D01*
X10061429Y-14570524D02*
X10080476Y-14570524D01*
X10080476Y-14570524D02*
X10099524Y-14580048D01*
X10099524Y-14580048D02*
X10109048Y-14589571D01*
X10109048Y-14589571D02*
X10118571Y-14608619D01*
X10118571Y-14608619D02*
X10128095Y-14646714D01*
X10128095Y-14646714D02*
X10128095Y-14694333D01*
X10128095Y-14694333D02*
X10118571Y-14732428D01*
X10118571Y-14732428D02*
X10109048Y-14751476D01*
X10109048Y-14751476D02*
X10099524Y-14761000D01*
X10099524Y-14761000D02*
X10080476Y-14770524D01*
X10080476Y-14770524D02*
X10061429Y-14770524D01*
X10061429Y-14770524D02*
X10042381Y-14761000D01*
X10042381Y-14761000D02*
X10032857Y-14751476D01*
X10032857Y-14751476D02*
X10023333Y-14732428D01*
X10023333Y-14732428D02*
X10013810Y-14694333D01*
X10013810Y-14694333D02*
X10013810Y-14646714D01*
X10013810Y-14646714D02*
X10023333Y-14608619D01*
X10023333Y-14608619D02*
X10032857Y-14589571D01*
X10032857Y-14589571D02*
X10042381Y-14580048D01*
X10042381Y-14580048D02*
X10061429Y-14570524D01*
X10251905Y-14570524D02*
X10270952Y-14570524D01*
X10270952Y-14570524D02*
X10290000Y-14580048D01*
X10290000Y-14580048D02*
X10299524Y-14589571D01*
X10299524Y-14589571D02*
X10309048Y-14608619D01*
X10309048Y-14608619D02*
X10318571Y-14646714D01*
X10318571Y-14646714D02*
X10318571Y-14694333D01*
X10318571Y-14694333D02*
X10309048Y-14732428D01*
X10309048Y-14732428D02*
X10299524Y-14751476D01*
X10299524Y-14751476D02*
X10290000Y-14761000D01*
X10290000Y-14761000D02*
X10270952Y-14770524D01*
X10270952Y-14770524D02*
X10251905Y-14770524D01*
X10251905Y-14770524D02*
X10232857Y-14761000D01*
X10232857Y-14761000D02*
X10223333Y-14751476D01*
X10223333Y-14751476D02*
X10213810Y-14732428D01*
X10213810Y-14732428D02*
X10204286Y-14694333D01*
X10204286Y-14694333D02*
X10204286Y-14646714D01*
X10204286Y-14646714D02*
X10213810Y-14608619D01*
X10213810Y-14608619D02*
X10223333Y-14589571D01*
X10223333Y-14589571D02*
X10232857Y-14580048D01*
X10232857Y-14580048D02*
X10251905Y-14570524D01*
X10442381Y-14570524D02*
X10461429Y-14570524D01*
X10461429Y-14570524D02*
X10480476Y-14580048D01*
X10480476Y-14580048D02*
X10490000Y-14589571D01*
X10490000Y-14589571D02*
X10499524Y-14608619D01*
X10499524Y-14608619D02*
X10509048Y-14646714D01*
X10509048Y-14646714D02*
X10509048Y-14694333D01*
X10509048Y-14694333D02*
X10499524Y-14732428D01*
X10499524Y-14732428D02*
X10490000Y-14751476D01*
X10490000Y-14751476D02*
X10480476Y-14761000D01*
X10480476Y-14761000D02*
X10461429Y-14770524D01*
X10461429Y-14770524D02*
X10442381Y-14770524D01*
X10442381Y-14770524D02*
X10423333Y-14761000D01*
X10423333Y-14761000D02*
X10413810Y-14751476D01*
X10413810Y-14751476D02*
X10404286Y-14732428D01*
X10404286Y-14732428D02*
X10394762Y-14694333D01*
X10394762Y-14694333D02*
X10394762Y-14646714D01*
X10394762Y-14646714D02*
X10404286Y-14608619D01*
X10404286Y-14608619D02*
X10413810Y-14589571D01*
X10413810Y-14589571D02*
X10423333Y-14580048D01*
X10423333Y-14580048D02*
X10442381Y-14570524D01*
X10594762Y-14770524D02*
X10594762Y-14637190D01*
X10594762Y-14656238D02*
X10604286Y-14646714D01*
X10604286Y-14646714D02*
X10623333Y-14637190D01*
X10623333Y-14637190D02*
X10651905Y-14637190D01*
X10651905Y-14637190D02*
X10670952Y-14646714D01*
X10670952Y-14646714D02*
X10680476Y-14665762D01*
X10680476Y-14665762D02*
X10680476Y-14770524D01*
X10680476Y-14665762D02*
X10690000Y-14646714D01*
X10690000Y-14646714D02*
X10709048Y-14637190D01*
X10709048Y-14637190D02*
X10737619Y-14637190D01*
X10737619Y-14637190D02*
X10756667Y-14646714D01*
X10756667Y-14646714D02*
X10766191Y-14665762D01*
X10766191Y-14665762D02*
X10766191Y-14770524D01*
X10861429Y-14770524D02*
X10861429Y-14637190D01*
X10861429Y-14656238D02*
X10870952Y-14646714D01*
X10870952Y-14646714D02*
X10890000Y-14637190D01*
X10890000Y-14637190D02*
X10918572Y-14637190D01*
X10918572Y-14637190D02*
X10937619Y-14646714D01*
X10937619Y-14646714D02*
X10947143Y-14665762D01*
X10947143Y-14665762D02*
X10947143Y-14770524D01*
X10947143Y-14665762D02*
X10956667Y-14646714D01*
X10956667Y-14646714D02*
X10975714Y-14637190D01*
X10975714Y-14637190D02*
X11004286Y-14637190D01*
X11004286Y-14637190D02*
X11023333Y-14646714D01*
X11023333Y-14646714D02*
X11032857Y-14665762D01*
X11032857Y-14665762D02*
X11032857Y-14770524D01*
X11423333Y-14561000D02*
X11251905Y-14818143D01*
X11680476Y-14570524D02*
X11699524Y-14570524D01*
X11699524Y-14570524D02*
X11718572Y-14580048D01*
X11718572Y-14580048D02*
X11728095Y-14589571D01*
X11728095Y-14589571D02*
X11737619Y-14608619D01*
X11737619Y-14608619D02*
X11747143Y-14646714D01*
X11747143Y-14646714D02*
X11747143Y-14694333D01*
X11747143Y-14694333D02*
X11737619Y-14732428D01*
X11737619Y-14732428D02*
X11728095Y-14751476D01*
X11728095Y-14751476D02*
X11718572Y-14761000D01*
X11718572Y-14761000D02*
X11699524Y-14770524D01*
X11699524Y-14770524D02*
X11680476Y-14770524D01*
X11680476Y-14770524D02*
X11661429Y-14761000D01*
X11661429Y-14761000D02*
X11651905Y-14751476D01*
X11651905Y-14751476D02*
X11642381Y-14732428D01*
X11642381Y-14732428D02*
X11632857Y-14694333D01*
X11632857Y-14694333D02*
X11632857Y-14646714D01*
X11632857Y-14646714D02*
X11642381Y-14608619D01*
X11642381Y-14608619D02*
X11651905Y-14589571D01*
X11651905Y-14589571D02*
X11661429Y-14580048D01*
X11661429Y-14580048D02*
X11680476Y-14570524D01*
X11832857Y-14751476D02*
X11842381Y-14761000D01*
X11842381Y-14761000D02*
X11832857Y-14770524D01*
X11832857Y-14770524D02*
X11823333Y-14761000D01*
X11823333Y-14761000D02*
X11832857Y-14751476D01*
X11832857Y-14751476D02*
X11832857Y-14770524D01*
X11966191Y-14570524D02*
X11985238Y-14570524D01*
X11985238Y-14570524D02*
X12004286Y-14580048D01*
X12004286Y-14580048D02*
X12013810Y-14589571D01*
X12013810Y-14589571D02*
X12023333Y-14608619D01*
X12023333Y-14608619D02*
X12032857Y-14646714D01*
X12032857Y-14646714D02*
X12032857Y-14694333D01*
X12032857Y-14694333D02*
X12023333Y-14732428D01*
X12023333Y-14732428D02*
X12013810Y-14751476D01*
X12013810Y-14751476D02*
X12004286Y-14761000D01*
X12004286Y-14761000D02*
X11985238Y-14770524D01*
X11985238Y-14770524D02*
X11966191Y-14770524D01*
X11966191Y-14770524D02*
X11947143Y-14761000D01*
X11947143Y-14761000D02*
X11937619Y-14751476D01*
X11937619Y-14751476D02*
X11928095Y-14732428D01*
X11928095Y-14732428D02*
X11918572Y-14694333D01*
X11918572Y-14694333D02*
X11918572Y-14646714D01*
X11918572Y-14646714D02*
X11928095Y-14608619D01*
X11928095Y-14608619D02*
X11937619Y-14589571D01*
X11937619Y-14589571D02*
X11947143Y-14580048D01*
X11947143Y-14580048D02*
X11966191Y-14570524D01*
X12099524Y-14570524D02*
X12223333Y-14570524D01*
X12223333Y-14570524D02*
X12156667Y-14646714D01*
X12156667Y-14646714D02*
X12185238Y-14646714D01*
X12185238Y-14646714D02*
X12204286Y-14656238D01*
X12204286Y-14656238D02*
X12213810Y-14665762D01*
X12213810Y-14665762D02*
X12223333Y-14684809D01*
X12223333Y-14684809D02*
X12223333Y-14732428D01*
X12223333Y-14732428D02*
X12213810Y-14751476D01*
X12213810Y-14751476D02*
X12204286Y-14761000D01*
X12204286Y-14761000D02*
X12185238Y-14770524D01*
X12185238Y-14770524D02*
X12128095Y-14770524D01*
X12128095Y-14770524D02*
X12109048Y-14761000D01*
X12109048Y-14761000D02*
X12099524Y-14751476D01*
X12318572Y-14770524D02*
X12356667Y-14770524D01*
X12356667Y-14770524D02*
X12375714Y-14761000D01*
X12375714Y-14761000D02*
X12385238Y-14751476D01*
X12385238Y-14751476D02*
X12404286Y-14722905D01*
X12404286Y-14722905D02*
X12413810Y-14684809D01*
X12413810Y-14684809D02*
X12413810Y-14608619D01*
X12413810Y-14608619D02*
X12404286Y-14589571D01*
X12404286Y-14589571D02*
X12394762Y-14580048D01*
X12394762Y-14580048D02*
X12375714Y-14570524D01*
X12375714Y-14570524D02*
X12337619Y-14570524D01*
X12337619Y-14570524D02*
X12318572Y-14580048D01*
X12318572Y-14580048D02*
X12309048Y-14589571D01*
X12309048Y-14589571D02*
X12299524Y-14608619D01*
X12299524Y-14608619D02*
X12299524Y-14656238D01*
X12299524Y-14656238D02*
X12309048Y-14675286D01*
X12309048Y-14675286D02*
X12318572Y-14684809D01*
X12318572Y-14684809D02*
X12337619Y-14694333D01*
X12337619Y-14694333D02*
X12375714Y-14694333D01*
X12375714Y-14694333D02*
X12394762Y-14684809D01*
X12394762Y-14684809D02*
X12404286Y-14675286D01*
X12404286Y-14675286D02*
X12413810Y-14656238D01*
X12585238Y-14637190D02*
X12585238Y-14770524D01*
X12537619Y-14561000D02*
X12490000Y-14703857D01*
X12490000Y-14703857D02*
X12613810Y-14703857D01*
X12680476Y-14570524D02*
X12680476Y-14608619D01*
X12756667Y-14570524D02*
X12756667Y-14608619D01*
X13051905Y-14846714D02*
X13042381Y-14837190D01*
X13042381Y-14837190D02*
X13023334Y-14808619D01*
X13023334Y-14808619D02*
X13013810Y-14789571D01*
X13013810Y-14789571D02*
X13004286Y-14761000D01*
X13004286Y-14761000D02*
X12994762Y-14713381D01*
X12994762Y-14713381D02*
X12994762Y-14675286D01*
X12994762Y-14675286D02*
X13004286Y-14627667D01*
X13004286Y-14627667D02*
X13013810Y-14599095D01*
X13013810Y-14599095D02*
X13023334Y-14580048D01*
X13023334Y-14580048D02*
X13042381Y-14551476D01*
X13042381Y-14551476D02*
X13051905Y-14541952D01*
X13213810Y-14637190D02*
X13213810Y-14770524D01*
X13166191Y-14561000D02*
X13118572Y-14703857D01*
X13118572Y-14703857D02*
X13242381Y-14703857D01*
X13470953Y-14770524D02*
X13470953Y-14570524D01*
X13556667Y-14770524D02*
X13556667Y-14665762D01*
X13556667Y-14665762D02*
X13547143Y-14646714D01*
X13547143Y-14646714D02*
X13528096Y-14637190D01*
X13528096Y-14637190D02*
X13499524Y-14637190D01*
X13499524Y-14637190D02*
X13480476Y-14646714D01*
X13480476Y-14646714D02*
X13470953Y-14656238D01*
X13680476Y-14770524D02*
X13661429Y-14761000D01*
X13661429Y-14761000D02*
X13651905Y-14751476D01*
X13651905Y-14751476D02*
X13642381Y-14732428D01*
X13642381Y-14732428D02*
X13642381Y-14675286D01*
X13642381Y-14675286D02*
X13651905Y-14656238D01*
X13651905Y-14656238D02*
X13661429Y-14646714D01*
X13661429Y-14646714D02*
X13680476Y-14637190D01*
X13680476Y-14637190D02*
X13709048Y-14637190D01*
X13709048Y-14637190D02*
X13728096Y-14646714D01*
X13728096Y-14646714D02*
X13737619Y-14656238D01*
X13737619Y-14656238D02*
X13747143Y-14675286D01*
X13747143Y-14675286D02*
X13747143Y-14732428D01*
X13747143Y-14732428D02*
X13737619Y-14751476D01*
X13737619Y-14751476D02*
X13728096Y-14761000D01*
X13728096Y-14761000D02*
X13709048Y-14770524D01*
X13709048Y-14770524D02*
X13680476Y-14770524D01*
X13861429Y-14770524D02*
X13842381Y-14761000D01*
X13842381Y-14761000D02*
X13832857Y-14741952D01*
X13832857Y-14741952D02*
X13832857Y-14570524D01*
X14013810Y-14761000D02*
X13994762Y-14770524D01*
X13994762Y-14770524D02*
X13956667Y-14770524D01*
X13956667Y-14770524D02*
X13937619Y-14761000D01*
X13937619Y-14761000D02*
X13928096Y-14741952D01*
X13928096Y-14741952D02*
X13928096Y-14665762D01*
X13928096Y-14665762D02*
X13937619Y-14646714D01*
X13937619Y-14646714D02*
X13956667Y-14637190D01*
X13956667Y-14637190D02*
X13994762Y-14637190D01*
X13994762Y-14637190D02*
X14013810Y-14646714D01*
X14013810Y-14646714D02*
X14023334Y-14665762D01*
X14023334Y-14665762D02*
X14023334Y-14684809D01*
X14023334Y-14684809D02*
X13928096Y-14703857D01*
X14099524Y-14761000D02*
X14118572Y-14770524D01*
X14118572Y-14770524D02*
X14156667Y-14770524D01*
X14156667Y-14770524D02*
X14175715Y-14761000D01*
X14175715Y-14761000D02*
X14185238Y-14741952D01*
X14185238Y-14741952D02*
X14185238Y-14732428D01*
X14185238Y-14732428D02*
X14175715Y-14713381D01*
X14175715Y-14713381D02*
X14156667Y-14703857D01*
X14156667Y-14703857D02*
X14128096Y-14703857D01*
X14128096Y-14703857D02*
X14109048Y-14694333D01*
X14109048Y-14694333D02*
X14099524Y-14675286D01*
X14099524Y-14675286D02*
X14099524Y-14665762D01*
X14099524Y-14665762D02*
X14109048Y-14646714D01*
X14109048Y-14646714D02*
X14128096Y-14637190D01*
X14128096Y-14637190D02*
X14156667Y-14637190D01*
X14156667Y-14637190D02*
X14175715Y-14646714D01*
X14423334Y-14694333D02*
X14575715Y-14694333D01*
X14499524Y-14770524D02*
X14499524Y-14618143D01*
X14804286Y-14570524D02*
X14928096Y-14570524D01*
X14928096Y-14570524D02*
X14861429Y-14646714D01*
X14861429Y-14646714D02*
X14890000Y-14646714D01*
X14890000Y-14646714D02*
X14909048Y-14656238D01*
X14909048Y-14656238D02*
X14918572Y-14665762D01*
X14918572Y-14665762D02*
X14928096Y-14684809D01*
X14928096Y-14684809D02*
X14928096Y-14732428D01*
X14928096Y-14732428D02*
X14918572Y-14751476D01*
X14918572Y-14751476D02*
X14909048Y-14761000D01*
X14909048Y-14761000D02*
X14890000Y-14770524D01*
X14890000Y-14770524D02*
X14832858Y-14770524D01*
X14832858Y-14770524D02*
X14813810Y-14761000D01*
X14813810Y-14761000D02*
X14804286Y-14751476D01*
X15156667Y-14761000D02*
X15175715Y-14770524D01*
X15175715Y-14770524D02*
X15213810Y-14770524D01*
X15213810Y-14770524D02*
X15232858Y-14761000D01*
X15232858Y-14761000D02*
X15242381Y-14741952D01*
X15242381Y-14741952D02*
X15242381Y-14732428D01*
X15242381Y-14732428D02*
X15232858Y-14713381D01*
X15232858Y-14713381D02*
X15213810Y-14703857D01*
X15213810Y-14703857D02*
X15185239Y-14703857D01*
X15185239Y-14703857D02*
X15166191Y-14694333D01*
X15166191Y-14694333D02*
X15156667Y-14675286D01*
X15156667Y-14675286D02*
X15156667Y-14665762D01*
X15156667Y-14665762D02*
X15166191Y-14646714D01*
X15166191Y-14646714D02*
X15185239Y-14637190D01*
X15185239Y-14637190D02*
X15213810Y-14637190D01*
X15213810Y-14637190D02*
X15232858Y-14646714D01*
X15356667Y-14770524D02*
X15337620Y-14761000D01*
X15337620Y-14761000D02*
X15328096Y-14741952D01*
X15328096Y-14741952D02*
X15328096Y-14570524D01*
X15461429Y-14770524D02*
X15442381Y-14761000D01*
X15442381Y-14761000D02*
X15432858Y-14751476D01*
X15432858Y-14751476D02*
X15423334Y-14732428D01*
X15423334Y-14732428D02*
X15423334Y-14675286D01*
X15423334Y-14675286D02*
X15432858Y-14656238D01*
X15432858Y-14656238D02*
X15442381Y-14646714D01*
X15442381Y-14646714D02*
X15461429Y-14637190D01*
X15461429Y-14637190D02*
X15490001Y-14637190D01*
X15490001Y-14637190D02*
X15509048Y-14646714D01*
X15509048Y-14646714D02*
X15518572Y-14656238D01*
X15518572Y-14656238D02*
X15528096Y-14675286D01*
X15528096Y-14675286D02*
X15528096Y-14732428D01*
X15528096Y-14732428D02*
X15518572Y-14751476D01*
X15518572Y-14751476D02*
X15509048Y-14761000D01*
X15509048Y-14761000D02*
X15490001Y-14770524D01*
X15490001Y-14770524D02*
X15461429Y-14770524D01*
X15585239Y-14637190D02*
X15661429Y-14637190D01*
X15613810Y-14570524D02*
X15613810Y-14741952D01*
X15613810Y-14741952D02*
X15623334Y-14761000D01*
X15623334Y-14761000D02*
X15642381Y-14770524D01*
X15642381Y-14770524D02*
X15661429Y-14770524D01*
X15718572Y-14761000D02*
X15737620Y-14770524D01*
X15737620Y-14770524D02*
X15775715Y-14770524D01*
X15775715Y-14770524D02*
X15794762Y-14761000D01*
X15794762Y-14761000D02*
X15804286Y-14741952D01*
X15804286Y-14741952D02*
X15804286Y-14732428D01*
X15804286Y-14732428D02*
X15794762Y-14713381D01*
X15794762Y-14713381D02*
X15775715Y-14703857D01*
X15775715Y-14703857D02*
X15747143Y-14703857D01*
X15747143Y-14703857D02*
X15728096Y-14694333D01*
X15728096Y-14694333D02*
X15718572Y-14675286D01*
X15718572Y-14675286D02*
X15718572Y-14665762D01*
X15718572Y-14665762D02*
X15728096Y-14646714D01*
X15728096Y-14646714D02*
X15747143Y-14637190D01*
X15747143Y-14637190D02*
X15775715Y-14637190D01*
X15775715Y-14637190D02*
X15794762Y-14646714D01*
X15870953Y-14846714D02*
X15880477Y-14837190D01*
X15880477Y-14837190D02*
X15899524Y-14808619D01*
X15899524Y-14808619D02*
X15909048Y-14789571D01*
X15909048Y-14789571D02*
X15918572Y-14761000D01*
X15918572Y-14761000D02*
X15928096Y-14713381D01*
X15928096Y-14713381D02*
X15928096Y-14675286D01*
X15928096Y-14675286D02*
X15918572Y-14627667D01*
X15918572Y-14627667D02*
X15909048Y-14599095D01*
X15909048Y-14599095D02*
X15899524Y-14580048D01*
X15899524Y-14580048D02*
X15880477Y-14551476D01*
X15880477Y-14551476D02*
X15870953Y-14541952D01*
D14*
X9475063Y-14978063D02*
X9475063Y-14905937D01*
X9402937Y-14905937D01*
X9402937Y-14978063D01*
X9475063Y-14978063D01*
D10*
X9842381Y-15034524D02*
X9728095Y-15034524D01*
X9785238Y-15034524D02*
X9785238Y-14834524D01*
X9785238Y-14834524D02*
X9766190Y-14863095D01*
X9766190Y-14863095D02*
X9747143Y-14882143D01*
X9747143Y-14882143D02*
X9728095Y-14891667D01*
X9928095Y-15015476D02*
X9937619Y-15025000D01*
X9937619Y-15025000D02*
X9928095Y-15034524D01*
X9928095Y-15034524D02*
X9918571Y-15025000D01*
X9918571Y-15025000D02*
X9928095Y-15015476D01*
X9928095Y-15015476D02*
X9928095Y-15034524D01*
X10061429Y-14834524D02*
X10080476Y-14834524D01*
X10080476Y-14834524D02*
X10099524Y-14844048D01*
X10099524Y-14844048D02*
X10109048Y-14853571D01*
X10109048Y-14853571D02*
X10118571Y-14872619D01*
X10118571Y-14872619D02*
X10128095Y-14910714D01*
X10128095Y-14910714D02*
X10128095Y-14958333D01*
X10128095Y-14958333D02*
X10118571Y-14996428D01*
X10118571Y-14996428D02*
X10109048Y-15015476D01*
X10109048Y-15015476D02*
X10099524Y-15025000D01*
X10099524Y-15025000D02*
X10080476Y-15034524D01*
X10080476Y-15034524D02*
X10061429Y-15034524D01*
X10061429Y-15034524D02*
X10042381Y-15025000D01*
X10042381Y-15025000D02*
X10032857Y-15015476D01*
X10032857Y-15015476D02*
X10023333Y-14996428D01*
X10023333Y-14996428D02*
X10013810Y-14958333D01*
X10013810Y-14958333D02*
X10013810Y-14910714D01*
X10013810Y-14910714D02*
X10023333Y-14872619D01*
X10023333Y-14872619D02*
X10032857Y-14853571D01*
X10032857Y-14853571D02*
X10042381Y-14844048D01*
X10042381Y-14844048D02*
X10061429Y-14834524D01*
X10204286Y-14853571D02*
X10213810Y-14844048D01*
X10213810Y-14844048D02*
X10232857Y-14834524D01*
X10232857Y-14834524D02*
X10280476Y-14834524D01*
X10280476Y-14834524D02*
X10299524Y-14844048D01*
X10299524Y-14844048D02*
X10309048Y-14853571D01*
X10309048Y-14853571D02*
X10318571Y-14872619D01*
X10318571Y-14872619D02*
X10318571Y-14891667D01*
X10318571Y-14891667D02*
X10309048Y-14920238D01*
X10309048Y-14920238D02*
X10194762Y-15034524D01*
X10194762Y-15034524D02*
X10318571Y-15034524D01*
X10442381Y-14834524D02*
X10461429Y-14834524D01*
X10461429Y-14834524D02*
X10480476Y-14844048D01*
X10480476Y-14844048D02*
X10490000Y-14853571D01*
X10490000Y-14853571D02*
X10499524Y-14872619D01*
X10499524Y-14872619D02*
X10509048Y-14910714D01*
X10509048Y-14910714D02*
X10509048Y-14958333D01*
X10509048Y-14958333D02*
X10499524Y-14996428D01*
X10499524Y-14996428D02*
X10490000Y-15015476D01*
X10490000Y-15015476D02*
X10480476Y-15025000D01*
X10480476Y-15025000D02*
X10461429Y-15034524D01*
X10461429Y-15034524D02*
X10442381Y-15034524D01*
X10442381Y-15034524D02*
X10423333Y-15025000D01*
X10423333Y-15025000D02*
X10413810Y-15015476D01*
X10413810Y-15015476D02*
X10404286Y-14996428D01*
X10404286Y-14996428D02*
X10394762Y-14958333D01*
X10394762Y-14958333D02*
X10394762Y-14910714D01*
X10394762Y-14910714D02*
X10404286Y-14872619D01*
X10404286Y-14872619D02*
X10413810Y-14853571D01*
X10413810Y-14853571D02*
X10423333Y-14844048D01*
X10423333Y-14844048D02*
X10442381Y-14834524D01*
X10594762Y-15034524D02*
X10594762Y-14901190D01*
X10594762Y-14920238D02*
X10604286Y-14910714D01*
X10604286Y-14910714D02*
X10623333Y-14901190D01*
X10623333Y-14901190D02*
X10651905Y-14901190D01*
X10651905Y-14901190D02*
X10670952Y-14910714D01*
X10670952Y-14910714D02*
X10680476Y-14929762D01*
X10680476Y-14929762D02*
X10680476Y-15034524D01*
X10680476Y-14929762D02*
X10690000Y-14910714D01*
X10690000Y-14910714D02*
X10709048Y-14901190D01*
X10709048Y-14901190D02*
X10737619Y-14901190D01*
X10737619Y-14901190D02*
X10756667Y-14910714D01*
X10756667Y-14910714D02*
X10766191Y-14929762D01*
X10766191Y-14929762D02*
X10766191Y-15034524D01*
X10861429Y-15034524D02*
X10861429Y-14901190D01*
X10861429Y-14920238D02*
X10870952Y-14910714D01*
X10870952Y-14910714D02*
X10890000Y-14901190D01*
X10890000Y-14901190D02*
X10918572Y-14901190D01*
X10918572Y-14901190D02*
X10937619Y-14910714D01*
X10937619Y-14910714D02*
X10947143Y-14929762D01*
X10947143Y-14929762D02*
X10947143Y-15034524D01*
X10947143Y-14929762D02*
X10956667Y-14910714D01*
X10956667Y-14910714D02*
X10975714Y-14901190D01*
X10975714Y-14901190D02*
X11004286Y-14901190D01*
X11004286Y-14901190D02*
X11023333Y-14910714D01*
X11023333Y-14910714D02*
X11032857Y-14929762D01*
X11032857Y-14929762D02*
X11032857Y-15034524D01*
X11423333Y-14825000D02*
X11251905Y-15082143D01*
X11680476Y-14834524D02*
X11699524Y-14834524D01*
X11699524Y-14834524D02*
X11718572Y-14844048D01*
X11718572Y-14844048D02*
X11728095Y-14853571D01*
X11728095Y-14853571D02*
X11737619Y-14872619D01*
X11737619Y-14872619D02*
X11747143Y-14910714D01*
X11747143Y-14910714D02*
X11747143Y-14958333D01*
X11747143Y-14958333D02*
X11737619Y-14996428D01*
X11737619Y-14996428D02*
X11728095Y-15015476D01*
X11728095Y-15015476D02*
X11718572Y-15025000D01*
X11718572Y-15025000D02*
X11699524Y-15034524D01*
X11699524Y-15034524D02*
X11680476Y-15034524D01*
X11680476Y-15034524D02*
X11661429Y-15025000D01*
X11661429Y-15025000D02*
X11651905Y-15015476D01*
X11651905Y-15015476D02*
X11642381Y-14996428D01*
X11642381Y-14996428D02*
X11632857Y-14958333D01*
X11632857Y-14958333D02*
X11632857Y-14910714D01*
X11632857Y-14910714D02*
X11642381Y-14872619D01*
X11642381Y-14872619D02*
X11651905Y-14853571D01*
X11651905Y-14853571D02*
X11661429Y-14844048D01*
X11661429Y-14844048D02*
X11680476Y-14834524D01*
X11832857Y-15015476D02*
X11842381Y-15025000D01*
X11842381Y-15025000D02*
X11832857Y-15034524D01*
X11832857Y-15034524D02*
X11823333Y-15025000D01*
X11823333Y-15025000D02*
X11832857Y-15015476D01*
X11832857Y-15015476D02*
X11832857Y-15034524D01*
X11966191Y-14834524D02*
X11985238Y-14834524D01*
X11985238Y-14834524D02*
X12004286Y-14844048D01*
X12004286Y-14844048D02*
X12013810Y-14853571D01*
X12013810Y-14853571D02*
X12023333Y-14872619D01*
X12023333Y-14872619D02*
X12032857Y-14910714D01*
X12032857Y-14910714D02*
X12032857Y-14958333D01*
X12032857Y-14958333D02*
X12023333Y-14996428D01*
X12023333Y-14996428D02*
X12013810Y-15015476D01*
X12013810Y-15015476D02*
X12004286Y-15025000D01*
X12004286Y-15025000D02*
X11985238Y-15034524D01*
X11985238Y-15034524D02*
X11966191Y-15034524D01*
X11966191Y-15034524D02*
X11947143Y-15025000D01*
X11947143Y-15025000D02*
X11937619Y-15015476D01*
X11937619Y-15015476D02*
X11928095Y-14996428D01*
X11928095Y-14996428D02*
X11918572Y-14958333D01*
X11918572Y-14958333D02*
X11918572Y-14910714D01*
X11918572Y-14910714D02*
X11928095Y-14872619D01*
X11928095Y-14872619D02*
X11937619Y-14853571D01*
X11937619Y-14853571D02*
X11947143Y-14844048D01*
X11947143Y-14844048D02*
X11966191Y-14834524D01*
X12204286Y-14901190D02*
X12204286Y-15034524D01*
X12156667Y-14825000D02*
X12109048Y-14967857D01*
X12109048Y-14967857D02*
X12232857Y-14967857D01*
X12347143Y-14834524D02*
X12366191Y-14834524D01*
X12366191Y-14834524D02*
X12385238Y-14844048D01*
X12385238Y-14844048D02*
X12394762Y-14853571D01*
X12394762Y-14853571D02*
X12404286Y-14872619D01*
X12404286Y-14872619D02*
X12413810Y-14910714D01*
X12413810Y-14910714D02*
X12413810Y-14958333D01*
X12413810Y-14958333D02*
X12404286Y-14996428D01*
X12404286Y-14996428D02*
X12394762Y-15015476D01*
X12394762Y-15015476D02*
X12385238Y-15025000D01*
X12385238Y-15025000D02*
X12366191Y-15034524D01*
X12366191Y-15034524D02*
X12347143Y-15034524D01*
X12347143Y-15034524D02*
X12328095Y-15025000D01*
X12328095Y-15025000D02*
X12318572Y-15015476D01*
X12318572Y-15015476D02*
X12309048Y-14996428D01*
X12309048Y-14996428D02*
X12299524Y-14958333D01*
X12299524Y-14958333D02*
X12299524Y-14910714D01*
X12299524Y-14910714D02*
X12309048Y-14872619D01*
X12309048Y-14872619D02*
X12318572Y-14853571D01*
X12318572Y-14853571D02*
X12328095Y-14844048D01*
X12328095Y-14844048D02*
X12347143Y-14834524D01*
X12490000Y-14853571D02*
X12499524Y-14844048D01*
X12499524Y-14844048D02*
X12518572Y-14834524D01*
X12518572Y-14834524D02*
X12566191Y-14834524D01*
X12566191Y-14834524D02*
X12585238Y-14844048D01*
X12585238Y-14844048D02*
X12594762Y-14853571D01*
X12594762Y-14853571D02*
X12604286Y-14872619D01*
X12604286Y-14872619D02*
X12604286Y-14891667D01*
X12604286Y-14891667D02*
X12594762Y-14920238D01*
X12594762Y-14920238D02*
X12480476Y-15034524D01*
X12480476Y-15034524D02*
X12604286Y-15034524D01*
X12680476Y-14834524D02*
X12680476Y-14872619D01*
X12756667Y-14834524D02*
X12756667Y-14872619D01*
X13051905Y-15110714D02*
X13042381Y-15101190D01*
X13042381Y-15101190D02*
X13023334Y-15072619D01*
X13023334Y-15072619D02*
X13013810Y-15053571D01*
X13013810Y-15053571D02*
X13004286Y-15025000D01*
X13004286Y-15025000D02*
X12994762Y-14977381D01*
X12994762Y-14977381D02*
X12994762Y-14939286D01*
X12994762Y-14939286D02*
X13004286Y-14891667D01*
X13004286Y-14891667D02*
X13013810Y-14863095D01*
X13013810Y-14863095D02*
X13023334Y-14844048D01*
X13023334Y-14844048D02*
X13042381Y-14815476D01*
X13042381Y-14815476D02*
X13051905Y-14805952D01*
X13109048Y-14834524D02*
X13232857Y-14834524D01*
X13232857Y-14834524D02*
X13166191Y-14910714D01*
X13166191Y-14910714D02*
X13194762Y-14910714D01*
X13194762Y-14910714D02*
X13213810Y-14920238D01*
X13213810Y-14920238D02*
X13223334Y-14929762D01*
X13223334Y-14929762D02*
X13232857Y-14948809D01*
X13232857Y-14948809D02*
X13232857Y-14996428D01*
X13232857Y-14996428D02*
X13223334Y-15015476D01*
X13223334Y-15015476D02*
X13213810Y-15025000D01*
X13213810Y-15025000D02*
X13194762Y-15034524D01*
X13194762Y-15034524D02*
X13137619Y-15034524D01*
X13137619Y-15034524D02*
X13118572Y-15025000D01*
X13118572Y-15025000D02*
X13109048Y-15015476D01*
X13347143Y-14920238D02*
X13328095Y-14910714D01*
X13328095Y-14910714D02*
X13318572Y-14901190D01*
X13318572Y-14901190D02*
X13309048Y-14882143D01*
X13309048Y-14882143D02*
X13309048Y-14872619D01*
X13309048Y-14872619D02*
X13318572Y-14853571D01*
X13318572Y-14853571D02*
X13328095Y-14844048D01*
X13328095Y-14844048D02*
X13347143Y-14834524D01*
X13347143Y-14834524D02*
X13385238Y-14834524D01*
X13385238Y-14834524D02*
X13404286Y-14844048D01*
X13404286Y-14844048D02*
X13413810Y-14853571D01*
X13413810Y-14853571D02*
X13423334Y-14872619D01*
X13423334Y-14872619D02*
X13423334Y-14882143D01*
X13423334Y-14882143D02*
X13413810Y-14901190D01*
X13413810Y-14901190D02*
X13404286Y-14910714D01*
X13404286Y-14910714D02*
X13385238Y-14920238D01*
X13385238Y-14920238D02*
X13347143Y-14920238D01*
X13347143Y-14920238D02*
X13328095Y-14929762D01*
X13328095Y-14929762D02*
X13318572Y-14939286D01*
X13318572Y-14939286D02*
X13309048Y-14958333D01*
X13309048Y-14958333D02*
X13309048Y-14996428D01*
X13309048Y-14996428D02*
X13318572Y-15015476D01*
X13318572Y-15015476D02*
X13328095Y-15025000D01*
X13328095Y-15025000D02*
X13347143Y-15034524D01*
X13347143Y-15034524D02*
X13385238Y-15034524D01*
X13385238Y-15034524D02*
X13404286Y-15025000D01*
X13404286Y-15025000D02*
X13413810Y-15015476D01*
X13413810Y-15015476D02*
X13423334Y-14996428D01*
X13423334Y-14996428D02*
X13423334Y-14958333D01*
X13423334Y-14958333D02*
X13413810Y-14939286D01*
X13413810Y-14939286D02*
X13404286Y-14929762D01*
X13404286Y-14929762D02*
X13385238Y-14920238D01*
X13661429Y-15034524D02*
X13661429Y-14834524D01*
X13747143Y-15034524D02*
X13747143Y-14929762D01*
X13747143Y-14929762D02*
X13737619Y-14910714D01*
X13737619Y-14910714D02*
X13718572Y-14901190D01*
X13718572Y-14901190D02*
X13690000Y-14901190D01*
X13690000Y-14901190D02*
X13670953Y-14910714D01*
X13670953Y-14910714D02*
X13661429Y-14920238D01*
X13870953Y-15034524D02*
X13851905Y-15025000D01*
X13851905Y-15025000D02*
X13842381Y-15015476D01*
X13842381Y-15015476D02*
X13832857Y-14996428D01*
X13832857Y-14996428D02*
X13832857Y-14939286D01*
X13832857Y-14939286D02*
X13842381Y-14920238D01*
X13842381Y-14920238D02*
X13851905Y-14910714D01*
X13851905Y-14910714D02*
X13870953Y-14901190D01*
X13870953Y-14901190D02*
X13899524Y-14901190D01*
X13899524Y-14901190D02*
X13918572Y-14910714D01*
X13918572Y-14910714D02*
X13928096Y-14920238D01*
X13928096Y-14920238D02*
X13937619Y-14939286D01*
X13937619Y-14939286D02*
X13937619Y-14996428D01*
X13937619Y-14996428D02*
X13928096Y-15015476D01*
X13928096Y-15015476D02*
X13918572Y-15025000D01*
X13918572Y-15025000D02*
X13899524Y-15034524D01*
X13899524Y-15034524D02*
X13870953Y-15034524D01*
X14051905Y-15034524D02*
X14032857Y-15025000D01*
X14032857Y-15025000D02*
X14023334Y-15005952D01*
X14023334Y-15005952D02*
X14023334Y-14834524D01*
X14204286Y-15025000D02*
X14185238Y-15034524D01*
X14185238Y-15034524D02*
X14147143Y-15034524D01*
X14147143Y-15034524D02*
X14128096Y-15025000D01*
X14128096Y-15025000D02*
X14118572Y-15005952D01*
X14118572Y-15005952D02*
X14118572Y-14929762D01*
X14118572Y-14929762D02*
X14128096Y-14910714D01*
X14128096Y-14910714D02*
X14147143Y-14901190D01*
X14147143Y-14901190D02*
X14185238Y-14901190D01*
X14185238Y-14901190D02*
X14204286Y-14910714D01*
X14204286Y-14910714D02*
X14213810Y-14929762D01*
X14213810Y-14929762D02*
X14213810Y-14948809D01*
X14213810Y-14948809D02*
X14118572Y-14967857D01*
X14290000Y-15025000D02*
X14309048Y-15034524D01*
X14309048Y-15034524D02*
X14347143Y-15034524D01*
X14347143Y-15034524D02*
X14366191Y-15025000D01*
X14366191Y-15025000D02*
X14375715Y-15005952D01*
X14375715Y-15005952D02*
X14375715Y-14996428D01*
X14375715Y-14996428D02*
X14366191Y-14977381D01*
X14366191Y-14977381D02*
X14347143Y-14967857D01*
X14347143Y-14967857D02*
X14318572Y-14967857D01*
X14318572Y-14967857D02*
X14299524Y-14958333D01*
X14299524Y-14958333D02*
X14290000Y-14939286D01*
X14290000Y-14939286D02*
X14290000Y-14929762D01*
X14290000Y-14929762D02*
X14299524Y-14910714D01*
X14299524Y-14910714D02*
X14318572Y-14901190D01*
X14318572Y-14901190D02*
X14347143Y-14901190D01*
X14347143Y-14901190D02*
X14366191Y-14910714D01*
X14442381Y-15110714D02*
X14451905Y-15101190D01*
X14451905Y-15101190D02*
X14470953Y-15072619D01*
X14470953Y-15072619D02*
X14480477Y-15053571D01*
X14480477Y-15053571D02*
X14490000Y-15025000D01*
X14490000Y-15025000D02*
X14499524Y-14977381D01*
X14499524Y-14977381D02*
X14499524Y-14939286D01*
X14499524Y-14939286D02*
X14490000Y-14891667D01*
X14490000Y-14891667D02*
X14480477Y-14863095D01*
X14480477Y-14863095D02*
X14470953Y-14844048D01*
X14470953Y-14844048D02*
X14451905Y-14815476D01*
X14451905Y-14815476D02*
X14442381Y-14805952D01*
M02*
