%TF.GenerationSoftware,KiCad,Pcbnew,7.0.7*%
%TF.CreationDate,2023-08-26T12:26:49-04:00*%
%TF.ProjectId,ArenaController,4172656e-6143-46f6-9e74-726f6c6c6572,v0.7*%
%TF.SameCoordinates,Original*%
%TF.FileFunction,Copper,L2,Bot*%
%TF.FilePolarity,Positive*%
%FSLAX46Y46*%
G04 Gerber Fmt 4.6, Leading zero omitted, Abs format (unit mm)*
G04 Created by KiCad (PCBNEW 7.0.7) date 2023-08-26 12:26:49*
%MOMM*%
%LPD*%
G01*
G04 APERTURE LIST*
G04 Aperture macros list*
%AMRoundRect*
0 Rectangle with rounded corners*
0 $1 Rounding radius*
0 $2 $3 $4 $5 $6 $7 $8 $9 X,Y pos of 4 corners*
0 Add a 4 corners polygon primitive as box body*
4,1,4,$2,$3,$4,$5,$6,$7,$8,$9,$2,$3,0*
0 Add four circle primitives for the rounded corners*
1,1,$1+$1,$2,$3*
1,1,$1+$1,$4,$5*
1,1,$1+$1,$6,$7*
1,1,$1+$1,$8,$9*
0 Add four rect primitives between the rounded corners*
20,1,$1+$1,$2,$3,$4,$5,0*
20,1,$1+$1,$4,$5,$6,$7,0*
20,1,$1+$1,$6,$7,$8,$9,0*
20,1,$1+$1,$8,$9,$2,$3,0*%
G04 Aperture macros list end*
%TA.AperFunction,ComponentPad*%
%ADD10C,2.000000*%
%TD*%
%TA.AperFunction,ComponentPad*%
%ADD11C,1.524000*%
%TD*%
%TA.AperFunction,ComponentPad*%
%ADD12R,3.500000X3.500000*%
%TD*%
%TA.AperFunction,ComponentPad*%
%ADD13RoundRect,0.750000X-1.000000X0.750000X-1.000000X-0.750000X1.000000X-0.750000X1.000000X0.750000X0*%
%TD*%
%TA.AperFunction,ComponentPad*%
%ADD14RoundRect,0.875000X-0.875000X0.875000X-0.875000X-0.875000X0.875000X-0.875000X0.875000X0.875000X0*%
%TD*%
%TA.AperFunction,ComponentPad*%
%ADD15RoundRect,0.368300X-1.473200X-1.473200X1.473200X-1.473200X1.473200X1.473200X-1.473200X1.473200X0*%
%TD*%
%TA.AperFunction,ComponentPad*%
%ADD16R,2.000000X2.000000*%
%TD*%
%TA.AperFunction,ViaPad*%
%ADD17C,0.800000*%
%TD*%
%TA.AperFunction,Conductor*%
%ADD18C,1.000000*%
%TD*%
%TA.AperFunction,Conductor*%
%ADD19C,0.300000*%
%TD*%
%TA.AperFunction,Conductor*%
%ADD20C,0.400000*%
%TD*%
%TA.AperFunction,Conductor*%
%ADD21C,0.600000*%
%TD*%
G04 APERTURE END LIST*
D10*
%TO.P,TP2,1,1*%
%TO.N,GND*%
X114046000Y-58369200D03*
%TD*%
%TO.P,TP3,1,1*%
%TO.N,+5V*%
X154990800Y-74371200D03*
%TD*%
D11*
%TO.P,J1,1*%
%TO.N,+12V*%
X170750000Y-84045000D03*
%TO.P,J1,2*%
%TO.N,/s_Red_1*%
X168210000Y-82775000D03*
%TO.P,J1,3*%
%TO.N,/s_Yellow*%
X170750000Y-81505000D03*
%TO.P,J1,4*%
%TO.N,/s_Green*%
X168210000Y-80235000D03*
%TO.P,J1,5*%
%TO.N,/s_Horn*%
X170750000Y-78965000D03*
%TO.P,J1,6*%
%TO.N,unconnected-(J1-Pad6)*%
X168210000Y-77695000D03*
%TO.P,J1,7*%
%TO.N,unconnected-(J1-Pad7)*%
X170750000Y-76425000D03*
%TO.P,J1,8*%
%TO.N,GND*%
X168210000Y-75155000D03*
%TD*%
%TO.P,J6,1*%
%TO.N,unconnected-(J6-Pad1)*%
X170750000Y-100045000D03*
%TO.P,J6,2*%
%TO.N,unconnected-(J6-Pad2)*%
X168210000Y-98775000D03*
%TO.P,J6,3*%
%TO.N,unconnected-(J6-Pad3)*%
X170750000Y-97505000D03*
%TO.P,J6,4*%
%TO.N,/T_A_Start*%
X168210000Y-96235000D03*
%TO.P,J6,5*%
%TO.N,unconnected-(J6-Pad5)*%
X170750000Y-94965000D03*
%TO.P,J6,6*%
%TO.N,unconnected-(J6-Pad6)*%
X168210000Y-93695000D03*
%TO.P,J6,7*%
%TO.N,/T_A_End*%
X170750000Y-92425000D03*
%TO.P,J6,8*%
%TO.N,GND*%
X168210000Y-91155000D03*
%TD*%
%TO.P,J4,1*%
%TO.N,unconnected-(J4-Pad1)*%
X152191400Y-126055600D03*
%TO.P,J4,2*%
%TO.N,unconnected-(J4-Pad2)*%
X153461400Y-123515600D03*
%TO.P,J4,3*%
%TO.N,unconnected-(J4-Pad3)*%
X154731400Y-126055600D03*
%TO.P,J4,4*%
%TO.N,/G_Start*%
X156001400Y-123515600D03*
%TO.P,J4,5*%
%TO.N,/G_RST*%
X157271400Y-126055600D03*
%TO.P,J4,6*%
%TO.N,/G_Pause*%
X158541400Y-123515600D03*
%TO.P,J4,7*%
%TO.N,/G_End*%
X159811400Y-126055600D03*
%TO.P,J4,8*%
%TO.N,GND*%
X161081400Y-123515600D03*
%TD*%
D12*
%TO.P,J9,1*%
%TO.N,+12V*%
X111752300Y-54006000D03*
D13*
%TO.P,J9,2*%
%TO.N,GND*%
X111752300Y-48006000D03*
D14*
%TO.P,J9,3,MountPin*%
%TO.N,unconnected-(J9-MountPin-Pad3)*%
X107052300Y-51006000D03*
%TD*%
D11*
%TO.P,J2,1*%
%TO.N,+12V*%
X104250000Y-75155000D03*
%TO.P,J2,2*%
%TO.N,/s_Red_2*%
X106790000Y-76425000D03*
%TO.P,J2,3*%
%TO.N,/s_Yellow*%
X104250000Y-77695000D03*
%TO.P,J2,4*%
%TO.N,/s_Green*%
X106790000Y-78965000D03*
%TO.P,J2,5*%
%TO.N,/s_Horn*%
X104250000Y-80235000D03*
%TO.P,J2,6*%
%TO.N,unconnected-(J2-Pad6)*%
X106790000Y-81505000D03*
%TO.P,J2,7*%
%TO.N,unconnected-(J2-Pad7)*%
X104250000Y-82775000D03*
%TO.P,J2,8*%
%TO.N,GND*%
X106790000Y-84045000D03*
%TD*%
D10*
%TO.P,TP1,1,1*%
%TO.N,+12V*%
X104038400Y-58623200D03*
%TD*%
D11*
%TO.P,J5,1*%
%TO.N,unconnected-(J5-Pad1)*%
X104250000Y-91155000D03*
%TO.P,J5,2*%
%TO.N,unconnected-(J5-Pad2)*%
X106790000Y-92425000D03*
%TO.P,J5,3*%
%TO.N,unconnected-(J5-Pad3)*%
X104250000Y-93695000D03*
%TO.P,J5,4*%
%TO.N,/T_B_End*%
X106790000Y-94965000D03*
%TO.P,J5,5*%
%TO.N,unconnected-(J5-Pad5)*%
X104250000Y-96235000D03*
%TO.P,J5,6*%
%TO.N,unconnected-(J5-Pad6)*%
X106790000Y-97505000D03*
%TO.P,J5,7*%
%TO.N,/T_B_Start*%
X104250000Y-98775000D03*
%TO.P,J5,8*%
%TO.N,GND*%
X106790000Y-100045000D03*
%TD*%
D15*
%TO.P,U1,1,IN+*%
%TO.N,+12V*%
X122529600Y-47498000D03*
%TO.P,U1,2,IN-*%
%TO.N,GND*%
X122469600Y-66875000D03*
%TO.P,U1,3,OUT+*%
%TO.N,+5V*%
X167406600Y-47438000D03*
%TO.P,U1,4,OUT-*%
%TO.N,GND*%
X167406600Y-66875000D03*
%TD*%
D10*
%TO.P,TP4,1,1*%
%TO.N,GND*%
X171551600Y-57150000D03*
%TD*%
%TO.P,U3,1,GPIO6/CTS1/HSPI_CLK/SD_CLK/Flash_SCK*%
%TO.N,unconnected-(U3-GPIO6{slash}CTS1{slash}HSPI_CLK{slash}SD_CLK{slash}Flash_SCK-Pad1)*%
X123952000Y-72136000D03*
%TO.P,U3,2,GPIO7/RTS_2/HSPI_Data0/SD_Data0/Flash_D0*%
%TO.N,unconnected-(U3-GPIO7{slash}RTS_2{slash}HSPI_Data0{slash}SD_Data0{slash}Flash_D0-Pad2)*%
X123952000Y-74676000D03*
%TO.P,U3,3,GPIO8/CTS_2/HSPI_Data1/SD_Data1/Flash_D1*%
%TO.N,unconnected-(U3-GPIO8{slash}CTS_2{slash}HSPI_Data1{slash}SD_Data1{slash}Flash_D1-Pad3)*%
X123952000Y-77216000D03*
%TO.P,U3,4,GPIO15/ADC2_3/HSPI_CS0/Touch3/RTC_GPIO13*%
%TO.N,unconnected-(U3-GPIO15{slash}ADC2_3{slash}HSPI_CS0{slash}Touch3{slash}RTC_GPIO13-Pad4)*%
X123952000Y-79756000D03*
%TO.P,U3,5,GPIO2/ADC2_2/HSPI_WP0/Touch2/RTC_GPIO12*%
%TO.N,/m_Red_2*%
X123952000Y-82296000D03*
%TO.P,U3,6,GPIO0/ADC2_1/CLK1/Touch1/RTC_GPIO11*%
%TO.N,unconnected-(U3-GPIO0{slash}ADC2_1{slash}CLK1{slash}Touch1{slash}RTC_GPIO11-Pad6)*%
X123952000Y-84836000D03*
%TO.P,U3,7,GPIO4/ADC2_0/HSPI_HD/Touch0/RTC_GPIO10*%
%TO.N,/m_Green*%
X123952000Y-87376000D03*
%TO.P,U3,8,GPIO16/RXD_2*%
%TO.N,/T_B_End*%
X123952000Y-89916000D03*
%TO.P,U3,9,GPIO17/TXD_2*%
%TO.N,/T_B_Start*%
X123952000Y-92456000D03*
%TO.P,U3,10,GPIO5/V_SPI_CS0/SS*%
%TO.N,unconnected-(U3-GPIO5{slash}V_SPI_CS0{slash}SS-Pad10)*%
X123952000Y-94996000D03*
%TO.P,U3,11,GPIO18/V_SPI_CLK/SCK*%
%TO.N,/m_Yellow*%
X123952000Y-97536000D03*
%TO.P,U3,12,GPIO19/V_SPI_Q/MISO/CTS_0*%
%TO.N,/G_Start*%
X123952000Y-100076000D03*
D16*
%TO.P,U3,13,GND*%
%TO.N,GND*%
X123952000Y-102616000D03*
D10*
%TO.P,U3,14,GPIO21/VSPI_HD/SDA*%
%TO.N,/G_RST*%
X123952000Y-105156000D03*
%TO.P,U3,15,GPIO3/RXD_0/CLK2*%
%TO.N,unconnected-(U3-GPIO3{slash}RXD_0{slash}CLK2-Pad15)*%
X123952000Y-107696000D03*
%TO.P,U3,16,GPIO1/TXD_0/CLK3*%
%TO.N,unconnected-(U3-GPIO1{slash}TXD_0{slash}CLK3-Pad16)*%
X123952000Y-110236000D03*
%TO.P,U3,17,GPIO22/V_SPI_WP/SCL/RTS_0*%
%TO.N,/G_Pause*%
X123952000Y-112776000D03*
%TO.P,U3,18,GPIO23/V_SPI_D/MOSI*%
%TO.N,/G_End*%
X123952000Y-115316000D03*
D16*
%TO.P,U3,19,GND*%
%TO.N,GND*%
X123952000Y-117856000D03*
D10*
%TO.P,U3,20,3.3v*%
%TO.N,+3V3*%
X149352000Y-117856000D03*
%TO.P,U3,21,EN*%
%TO.N,unconnected-(U3-EN-Pad21)*%
X149352000Y-115316000D03*
%TO.P,U3,22,RTC_GPIO0/SensVP/ADC1_0/GPIO36*%
%TO.N,unconnected-(U3-RTC_GPIO0{slash}SensVP{slash}ADC1_0{slash}GPIO36-Pad22)*%
X149352000Y-112776000D03*
%TO.P,U3,23,RTC_GPIO3/SensVN/ADC1_3/GPIO39*%
%TO.N,unconnected-(U3-RTC_GPIO3{slash}SensVN{slash}ADC1_3{slash}GPIO39-Pad23)*%
X149352000Y-110236000D03*
%TO.P,U3,24,RTC_GPIO4/ADC1_6/GPIO34*%
%TO.N,unconnected-(U3-RTC_GPIO4{slash}ADC1_6{slash}GPIO34-Pad24)*%
X149352000Y-107696000D03*
%TO.P,U3,25,RTC_GPIO5/ADC1_7/GPIO35*%
%TO.N,unconnected-(U3-RTC_GPIO5{slash}ADC1_7{slash}GPIO35-Pad25)*%
X149352000Y-105156000D03*
%TO.P,U3,26,RTC_GPIO9/XTal32P/Touch9/ADC1_4/GPIO32*%
%TO.N,/status_LED*%
X149352000Y-102616000D03*
%TO.P,U3,27,RTC_GPIO8/Xtal32N/Touch8/ADC1_5/GPIO33*%
%TO.N,/m_Horn*%
X149352000Y-100076000D03*
%TO.P,U3,28,DAC_1/RTC_GPIO6/ADC2_8/GPIO25*%
%TO.N,/T_A_Start*%
X149352000Y-97536000D03*
%TO.P,U3,29,DAC_2/RTC_GPIO7/ADC2_9/GPIO26*%
%TO.N,/T_A_End*%
X149352000Y-94996000D03*
%TO.P,U3,30,RTC_GPIO17/Touch7/ADC2_7/GPIO27*%
%TO.N,unconnected-(U3-RTC_GPIO17{slash}Touch7{slash}ADC2_7{slash}GPIO27-Pad30)*%
X149352000Y-92456000D03*
%TO.P,U3,31,RTC_GPIO16/Touch6/HSPI_CLK/ADC2_6/GPIO14*%
%TO.N,unconnected-(U3-RTC_GPIO16{slash}Touch6{slash}HSPI_CLK{slash}ADC2_6{slash}GPIO14-Pad31)*%
X149352000Y-89916000D03*
%TO.P,U3,32,RTC_GPIO15/Touch5/HSPI_Q/ADC2_5/GPIO12*%
%TO.N,unconnected-(U3-RTC_GPIO15{slash}Touch5{slash}HSPI_Q{slash}ADC2_5{slash}GPIO12-Pad32)*%
X149352000Y-87376000D03*
D16*
%TO.P,U3,33,GND*%
%TO.N,GND*%
X149352000Y-84836000D03*
D10*
%TO.P,U3,34,RTC_GPIO14/Touch4/HSPI_ID/ADC2_4/GPIO13*%
%TO.N,/m_Red_1*%
X149352000Y-82296000D03*
%TO.P,U3,35,Flash_D2/SD_Data2/HSPI_Data2/RXD_1/GPIO09*%
%TO.N,unconnected-(U3-Flash_D2{slash}SD_Data2{slash}HSPI_Data2{slash}RXD_1{slash}GPIO09-Pad35)*%
X149352000Y-79756000D03*
%TO.P,U3,36,Flash_D3/SD_Data3/HSPI_Data3/TXD_1/GPIO10*%
%TO.N,unconnected-(U3-Flash_D3{slash}SD_Data3{slash}HSPI_Data3{slash}TXD_1{slash}GPIO10-Pad36)*%
X149352000Y-77216000D03*
%TO.P,U3,37,Flash_CMD/SD_CMD/HSPI_CMD/RTS_1/GPIO11*%
%TO.N,unconnected-(U3-Flash_CMD{slash}SD_CMD{slash}HSPI_CMD{slash}RTS_1{slash}GPIO11-Pad37)*%
X149352000Y-74676000D03*
%TO.P,U3,38,5V*%
%TO.N,+5V*%
X149352000Y-72136000D03*
%TD*%
D17*
%TO.N,+12V*%
X158546800Y-58572400D03*
%TO.N,/s_Yellow*%
X170383200Y-70459600D03*
%TO.N,/s_Green*%
X129540000Y-65633600D03*
X129540000Y-62484000D03*
%TO.N,/s_Horn*%
X141325600Y-61620400D03*
X141224000Y-65684400D03*
%TO.N,GND*%
X138176000Y-75946000D03*
X118872000Y-91186000D03*
X155956000Y-68834000D03*
X161036000Y-65278000D03*
X176784000Y-78994000D03*
X97536000Y-56642000D03*
X161798000Y-69088000D03*
X145288000Y-67564000D03*
X175768000Y-93980000D03*
X164084000Y-102108000D03*
X173482000Y-84074000D03*
X127000000Y-77724000D03*
X153416000Y-96012000D03*
X158496000Y-96266000D03*
X139700000Y-108458000D03*
X114046000Y-111760000D03*
X145542000Y-106934000D03*
X164084000Y-82804000D03*
X107950000Y-58166000D03*
X124206000Y-128778000D03*
X153416000Y-89408000D03*
X176530000Y-55626000D03*
X165354000Y-94742000D03*
X143002000Y-46228000D03*
X161036000Y-73406000D03*
X139192000Y-101600000D03*
X118110000Y-85852000D03*
X108712000Y-132842000D03*
X101092000Y-122428000D03*
X133096000Y-82804000D03*
X153162000Y-77216000D03*
X164338000Y-72136000D03*
X127254000Y-81026000D03*
X137160000Y-53340000D03*
X113538000Y-94488000D03*
X118872000Y-107950000D03*
X159258000Y-101854000D03*
X144272000Y-72898000D03*
X173228000Y-90170000D03*
X111506000Y-85598000D03*
X103378000Y-112268000D03*
X124460000Y-55880000D03*
X113792000Y-107950000D03*
X143764000Y-82804000D03*
X131064000Y-48768000D03*
X106172000Y-128778000D03*
X167640000Y-109982000D03*
X143256000Y-77470000D03*
X110998000Y-80772000D03*
X127254000Y-103378000D03*
X108712000Y-70612000D03*
X132588000Y-76708000D03*
X163322000Y-85344000D03*
X175514000Y-63246000D03*
X156718000Y-106680000D03*
X166370000Y-52070000D03*
X113284000Y-102362000D03*
X161798000Y-51054000D03*
X125476000Y-121666000D03*
X149860000Y-53340000D03*
X96012000Y-119380000D03*
X125730000Y-57658000D03*
X145034000Y-88646000D03*
X146558000Y-48768000D03*
X162306000Y-55626000D03*
X159512000Y-79756000D03*
X165608000Y-56896000D03*
X163322000Y-93726000D03*
X129540000Y-105156000D03*
X117602000Y-116078000D03*
X119634000Y-102616000D03*
X110744000Y-66802000D03*
X137668000Y-84074000D03*
X130302000Y-106934000D03*
X106680000Y-67310000D03*
X137668000Y-80264000D03*
X143002000Y-53848000D03*
X144018000Y-113284000D03*
X161036000Y-86868000D03*
X130556000Y-108966000D03*
X115316000Y-125730000D03*
X151638000Y-79248000D03*
X106680000Y-108204000D03*
X115570000Y-92456000D03*
X151384000Y-48006000D03*
X134874000Y-128016000D03*
X165354000Y-70104000D03*
%TO.N,/G_Start*%
X136753600Y-114655600D03*
%TO.N,/G_RST*%
X133451600Y-115011200D03*
%TO.N,/m_Green*%
X131572000Y-88646000D03*
%TO.N,Net-(Q5-G)*%
X115189000Y-81559400D03*
X116941600Y-74599800D03*
%TD*%
D18*
%TO.N,+12V*%
X104038400Y-74943400D02*
X104250000Y-75155000D01*
X158445200Y-89255600D02*
X156159200Y-86969600D01*
X170750000Y-84045000D02*
X165539400Y-89255600D01*
X156159200Y-86969600D02*
X156159200Y-79400400D01*
X165539400Y-89255600D02*
X158445200Y-89255600D01*
X104038400Y-58623200D02*
X104038400Y-74943400D01*
X156159200Y-79400400D02*
X158546800Y-77012800D01*
X158546800Y-77012800D02*
X158546800Y-58572400D01*
D19*
%TO.N,/s_Yellow*%
X173024800Y-75438000D02*
X173024800Y-79230200D01*
X170383200Y-72796400D02*
X173024800Y-75438000D01*
X170383200Y-70459600D02*
X170383200Y-72796400D01*
X173024800Y-79230200D02*
X170750000Y-81505000D01*
%TO.N,/s_Green*%
X129540000Y-62484000D02*
X129540000Y-65633600D01*
%TO.N,/s_Horn*%
X141325600Y-61620400D02*
X141325600Y-65582800D01*
X141325600Y-65582800D02*
X141224000Y-65684400D01*
D18*
%TO.N,GND*%
X122469600Y-57344000D02*
X122469600Y-67840200D01*
X113131600Y-48006000D02*
X122469600Y-57344000D01*
X111752300Y-48006000D02*
X113131600Y-48006000D01*
D19*
%TO.N,/G_Start*%
X132740400Y-105410000D02*
X127406400Y-100076000D01*
X136753600Y-114655600D02*
X132740400Y-110642400D01*
X132740400Y-110642400D02*
X132740400Y-105410000D01*
X127406400Y-100076000D02*
X123952000Y-100076000D01*
%TO.N,/G_RST*%
X128879600Y-108102400D02*
X125933200Y-105156000D01*
X133451600Y-115011200D02*
X133176389Y-115011200D01*
X128879600Y-110714411D02*
X128879600Y-108102400D01*
X125933200Y-105156000D02*
X123952000Y-105156000D01*
X133176389Y-115011200D02*
X128879600Y-110714411D01*
D18*
%TO.N,+5V*%
X160588000Y-47438000D02*
X167406600Y-47438000D01*
X156464000Y-51562000D02*
X156464000Y-65024000D01*
X156464000Y-65024000D02*
X149352000Y-72136000D01*
X151739600Y-74371200D02*
X154990800Y-74371200D01*
X149504400Y-72136000D02*
X151739600Y-74371200D01*
X156464000Y-51562000D02*
X160588000Y-47438000D01*
D20*
%TO.N,/m_Green*%
X123952000Y-87376000D02*
X130302000Y-87376000D01*
X131572000Y-88646000D02*
X130302000Y-87376000D01*
D21*
%TO.N,Net-(Q5-G)*%
X115189000Y-81559400D02*
X115189000Y-76606400D01*
X115189000Y-76606400D02*
X116941600Y-74853800D01*
X116941600Y-74853800D02*
X116941600Y-74599800D01*
%TD*%
%TA.AperFunction,Conductor*%
%TO.N,GND*%
G36*
X120666092Y-45030185D02*
G01*
X120711847Y-45082989D01*
X120721791Y-45152147D01*
X120692766Y-45215703D01*
X120654147Y-45245588D01*
X120581402Y-45281665D01*
X120581399Y-45281667D01*
X120432753Y-45401152D01*
X120432752Y-45401153D01*
X120313267Y-45549799D01*
X120313265Y-45549802D01*
X120228532Y-45720652D01*
X120182504Y-45905729D01*
X120179600Y-45948558D01*
X120179601Y-49047440D01*
X120179601Y-49047441D01*
X120182503Y-49090263D01*
X120182503Y-49090264D01*
X120228532Y-49275347D01*
X120313265Y-49446197D01*
X120313267Y-49446200D01*
X120432752Y-49594846D01*
X120432753Y-49594847D01*
X120581399Y-49714332D01*
X120581402Y-49714334D01*
X120683503Y-49764971D01*
X120752256Y-49799069D01*
X120901245Y-49836121D01*
X120937329Y-49845095D01*
X120937330Y-49845095D01*
X120937334Y-49845096D01*
X120976172Y-49847729D01*
X120980158Y-49848000D01*
X120980158Y-49847999D01*
X120980159Y-49848000D01*
X124079040Y-49847999D01*
X124079041Y-49847999D01*
X124089746Y-49847273D01*
X124121866Y-49845096D01*
X124306944Y-49799069D01*
X124477801Y-49714332D01*
X124626447Y-49594847D01*
X124745932Y-49446201D01*
X124830669Y-49275344D01*
X124876696Y-49090266D01*
X124879600Y-49047441D01*
X124879599Y-45948560D01*
X124876696Y-45905734D01*
X124830669Y-45720656D01*
X124777363Y-45613173D01*
X124745934Y-45549802D01*
X124745932Y-45549799D01*
X124626447Y-45401153D01*
X124626446Y-45401152D01*
X124477800Y-45281667D01*
X124477797Y-45281665D01*
X124405053Y-45245588D01*
X124353740Y-45198167D01*
X124336210Y-45130532D01*
X124358030Y-45064157D01*
X124412271Y-45020115D01*
X124460147Y-45010500D01*
X165368920Y-45010500D01*
X165435959Y-45030185D01*
X165481714Y-45082989D01*
X165491658Y-45152147D01*
X165462633Y-45215703D01*
X165446607Y-45231147D01*
X165309753Y-45341152D01*
X165309752Y-45341153D01*
X165190267Y-45489799D01*
X165190265Y-45489802D01*
X165105532Y-45660652D01*
X165059504Y-45845729D01*
X165056600Y-45888558D01*
X165056600Y-46305500D01*
X165036915Y-46372539D01*
X164984111Y-46418294D01*
X164932600Y-46429500D01*
X160640598Y-46429500D01*
X160634518Y-46429201D01*
X160588000Y-46424620D01*
X160390297Y-46444091D01*
X160269117Y-46480852D01*
X160200191Y-46501760D01*
X160025001Y-46595401D01*
X160024994Y-46595405D01*
X159871431Y-46721432D01*
X159841775Y-46757567D01*
X159837687Y-46762077D01*
X155788077Y-50811687D01*
X155783567Y-50815775D01*
X155747432Y-50845431D01*
X155621405Y-50998994D01*
X155621403Y-50998997D01*
X155578316Y-51079610D01*
X155527759Y-51174194D01*
X155470091Y-51364296D01*
X155450620Y-51562000D01*
X155455201Y-51608517D01*
X155455500Y-51614597D01*
X155455500Y-64554903D01*
X155435815Y-64621942D01*
X155419181Y-64642584D01*
X149473009Y-70588755D01*
X149411686Y-70622240D01*
X149375602Y-70624692D01*
X149352001Y-70622835D01*
X149352000Y-70622835D01*
X149304657Y-70626561D01*
X149115285Y-70641465D01*
X148884404Y-70696895D01*
X148884402Y-70696895D01*
X148665040Y-70787757D01*
X148665037Y-70787759D01*
X148462589Y-70911820D01*
X148462586Y-70911821D01*
X148282031Y-71066031D01*
X148127821Y-71246586D01*
X148127820Y-71246589D01*
X148003759Y-71449037D01*
X148003757Y-71449040D01*
X147912895Y-71668402D01*
X147912895Y-71668404D01*
X147857465Y-71899285D01*
X147838835Y-72136000D01*
X147857465Y-72372714D01*
X147912895Y-72603595D01*
X147912895Y-72603597D01*
X148003757Y-72822959D01*
X148003759Y-72822962D01*
X148127820Y-73025410D01*
X148127821Y-73025413D01*
X148173240Y-73078591D01*
X148282031Y-73205969D01*
X148405838Y-73311710D01*
X148444031Y-73370217D01*
X148444529Y-73440085D01*
X148407176Y-73499131D01*
X148405861Y-73500269D01*
X148282031Y-73606030D01*
X148282031Y-73606031D01*
X148127821Y-73786586D01*
X148127820Y-73786589D01*
X148003759Y-73989037D01*
X148003757Y-73989040D01*
X147912895Y-74208402D01*
X147912895Y-74208404D01*
X147857465Y-74439285D01*
X147838835Y-74676000D01*
X147857465Y-74912714D01*
X147912895Y-75143595D01*
X147912895Y-75143597D01*
X148003757Y-75362959D01*
X148003759Y-75362962D01*
X148127820Y-75565410D01*
X148127821Y-75565413D01*
X148127824Y-75565416D01*
X148282031Y-75745969D01*
X148405838Y-75851710D01*
X148444031Y-75910217D01*
X148444529Y-75980085D01*
X148407176Y-76039131D01*
X148405861Y-76040269D01*
X148336958Y-76099119D01*
X148282031Y-76146031D01*
X148127821Y-76326586D01*
X148127820Y-76326589D01*
X148003759Y-76529037D01*
X148003757Y-76529040D01*
X147912895Y-76748402D01*
X147912895Y-76748404D01*
X147857465Y-76979285D01*
X147851324Y-77057319D01*
X147838835Y-77216000D01*
X147842204Y-77258800D01*
X147857465Y-77452714D01*
X147912895Y-77683595D01*
X147912895Y-77683597D01*
X148003757Y-77902959D01*
X148003759Y-77902962D01*
X148127820Y-78105410D01*
X148127821Y-78105413D01*
X148127824Y-78105416D01*
X148282031Y-78285969D01*
X148405838Y-78391710D01*
X148444031Y-78450217D01*
X148444529Y-78520085D01*
X148407176Y-78579131D01*
X148405861Y-78580269D01*
X148319330Y-78654175D01*
X148282031Y-78686031D01*
X148127821Y-78866586D01*
X148127820Y-78866589D01*
X148003759Y-79069037D01*
X148003757Y-79069040D01*
X147912895Y-79288402D01*
X147912895Y-79288404D01*
X147857465Y-79519285D01*
X147838835Y-79756000D01*
X147857465Y-79992714D01*
X147912895Y-80223595D01*
X147912895Y-80223597D01*
X148003757Y-80442959D01*
X148003759Y-80442962D01*
X148127820Y-80645410D01*
X148127821Y-80645413D01*
X148127824Y-80645416D01*
X148282031Y-80825969D01*
X148405838Y-80931710D01*
X148444031Y-80990217D01*
X148444529Y-81060085D01*
X148407176Y-81119131D01*
X148405861Y-81120269D01*
X148326746Y-81187841D01*
X148282031Y-81226031D01*
X148127821Y-81406586D01*
X148127820Y-81406589D01*
X148003759Y-81609037D01*
X148003757Y-81609040D01*
X147912895Y-81828402D01*
X147912895Y-81828404D01*
X147857465Y-82059285D01*
X147851324Y-82137319D01*
X147838835Y-82296000D01*
X147842204Y-82338800D01*
X147857465Y-82532714D01*
X147912895Y-82763595D01*
X147912895Y-82763597D01*
X148003757Y-82982959D01*
X148003759Y-82982962D01*
X148127820Y-83185410D01*
X148127821Y-83185413D01*
X148127824Y-83185416D01*
X148282031Y-83365969D01*
X148407195Y-83472869D01*
X148462586Y-83520178D01*
X148462588Y-83520178D01*
X148607211Y-83608804D01*
X148665037Y-83644240D01*
X148665040Y-83644242D01*
X148884403Y-83735104D01*
X148884404Y-83735104D01*
X148884406Y-83735105D01*
X149115289Y-83790535D01*
X149352000Y-83809165D01*
X149588711Y-83790535D01*
X149819594Y-83735105D01*
X149819596Y-83735104D01*
X149819597Y-83735104D01*
X150038959Y-83644242D01*
X150038960Y-83644241D01*
X150038963Y-83644240D01*
X150241416Y-83520176D01*
X150421969Y-83365969D01*
X150576176Y-83185416D01*
X150700240Y-82982963D01*
X150717825Y-82940510D01*
X150791104Y-82763597D01*
X150791104Y-82763596D01*
X150791105Y-82763594D01*
X150846535Y-82532711D01*
X150865165Y-82296000D01*
X150846535Y-82059289D01*
X150791105Y-81828406D01*
X150791104Y-81828403D01*
X150791104Y-81828402D01*
X150700242Y-81609040D01*
X150700240Y-81609037D01*
X150576179Y-81406589D01*
X150576178Y-81406586D01*
X150518871Y-81339489D01*
X150421969Y-81226031D01*
X150298160Y-81120288D01*
X150259968Y-81061782D01*
X150259470Y-80991914D01*
X150296823Y-80932868D01*
X150297975Y-80931869D01*
X150421969Y-80825969D01*
X150576176Y-80645416D01*
X150700240Y-80442963D01*
X150717825Y-80400510D01*
X150791104Y-80223597D01*
X150791104Y-80223596D01*
X150791105Y-80223594D01*
X150846535Y-79992711D01*
X150865165Y-79756000D01*
X150846535Y-79519289D01*
X150791105Y-79288406D01*
X150791104Y-79288403D01*
X150791104Y-79288402D01*
X150700242Y-79069040D01*
X150700240Y-79069037D01*
X150576179Y-78866589D01*
X150576178Y-78866586D01*
X150421969Y-78686031D01*
X150384670Y-78654175D01*
X150298160Y-78580288D01*
X150259968Y-78521784D01*
X150259469Y-78451916D01*
X150296823Y-78392869D01*
X150298057Y-78391799D01*
X150421969Y-78285969D01*
X150576176Y-78105416D01*
X150700240Y-77902963D01*
X150717825Y-77860510D01*
X150791104Y-77683597D01*
X150791104Y-77683596D01*
X150791105Y-77683594D01*
X150846535Y-77452711D01*
X150865165Y-77216000D01*
X150846535Y-76979289D01*
X150791105Y-76748406D01*
X150791104Y-76748403D01*
X150791104Y-76748402D01*
X150700242Y-76529040D01*
X150700240Y-76529037D01*
X150576179Y-76326589D01*
X150576178Y-76326586D01*
X150421969Y-76146031D01*
X150376547Y-76107237D01*
X150298160Y-76040288D01*
X150259968Y-75981784D01*
X150259469Y-75911916D01*
X150296823Y-75852869D01*
X150298057Y-75851799D01*
X150421969Y-75745969D01*
X150576176Y-75565416D01*
X150700240Y-75362963D01*
X150710350Y-75338557D01*
X150791104Y-75143597D01*
X150791104Y-75143595D01*
X150791105Y-75143594D01*
X150795747Y-75124257D01*
X150830535Y-75063667D01*
X150892560Y-75031501D01*
X150962129Y-75037974D01*
X151012175Y-75074539D01*
X151023032Y-75087768D01*
X151174698Y-75212238D01*
X151176596Y-75213795D01*
X151297962Y-75278666D01*
X151351796Y-75307441D01*
X151541899Y-75365108D01*
X151541898Y-75365108D01*
X151559624Y-75366853D01*
X151739600Y-75384580D01*
X151773522Y-75381238D01*
X151786115Y-75379999D01*
X151792196Y-75379700D01*
X153811166Y-75379700D01*
X153878205Y-75399385D01*
X153905456Y-75423168D01*
X153909263Y-75427625D01*
X153920831Y-75441169D01*
X154019637Y-75525557D01*
X154101386Y-75595378D01*
X154101389Y-75595379D01*
X154303837Y-75719440D01*
X154303840Y-75719442D01*
X154523203Y-75810304D01*
X154523204Y-75810304D01*
X154523206Y-75810305D01*
X154754089Y-75865735D01*
X154990800Y-75884365D01*
X155227511Y-75865735D01*
X155458394Y-75810305D01*
X155458396Y-75810304D01*
X155458397Y-75810304D01*
X155677759Y-75719442D01*
X155677760Y-75719441D01*
X155677763Y-75719440D01*
X155880216Y-75595376D01*
X156060769Y-75441169D01*
X156214976Y-75260616D01*
X156339040Y-75058163D01*
X156342721Y-75049278D01*
X156429904Y-74838797D01*
X156429904Y-74838796D01*
X156429905Y-74838794D01*
X156485335Y-74607911D01*
X156503965Y-74371200D01*
X156485335Y-74134489D01*
X156429905Y-73903606D01*
X156429904Y-73903603D01*
X156429904Y-73903602D01*
X156339042Y-73684240D01*
X156339040Y-73684237D01*
X156226317Y-73500291D01*
X156214978Y-73481788D01*
X156214978Y-73481786D01*
X156126370Y-73378040D01*
X156060769Y-73301231D01*
X155941396Y-73199276D01*
X155880213Y-73147021D01*
X155880210Y-73147020D01*
X155677762Y-73022959D01*
X155677759Y-73022957D01*
X155458396Y-72932095D01*
X155227514Y-72876665D01*
X155049977Y-72862692D01*
X154990800Y-72858035D01*
X154990799Y-72858035D01*
X154754085Y-72876665D01*
X154523204Y-72932095D01*
X154523202Y-72932095D01*
X154303840Y-73022957D01*
X154303837Y-73022959D01*
X154101389Y-73147020D01*
X154101386Y-73147021D01*
X153920831Y-73301231D01*
X153920825Y-73301237D01*
X153905456Y-73319232D01*
X153846948Y-73357425D01*
X153811166Y-73362700D01*
X152208696Y-73362700D01*
X152141657Y-73343015D01*
X152121015Y-73326381D01*
X150942114Y-72147480D01*
X150908629Y-72086157D01*
X150913613Y-72016465D01*
X150942112Y-71972120D01*
X157139944Y-65774288D01*
X157144413Y-65770238D01*
X157180568Y-65740568D01*
X157306595Y-65587004D01*
X157306596Y-65587001D01*
X157309981Y-65581937D01*
X157311779Y-65583138D01*
X157353899Y-65540257D01*
X157422035Y-65524793D01*
X157487716Y-65548621D01*
X157530088Y-65604176D01*
X157538300Y-65648551D01*
X157538300Y-76543703D01*
X157518615Y-76610742D01*
X157501981Y-76631384D01*
X155483277Y-78650087D01*
X155478767Y-78654175D01*
X155442632Y-78683831D01*
X155316606Y-78837394D01*
X155316604Y-78837396D01*
X155316605Y-78837396D01*
X155245538Y-78970353D01*
X155222959Y-79012596D01*
X155222957Y-79012600D01*
X155165291Y-79202696D01*
X155145820Y-79400400D01*
X155150401Y-79446917D01*
X155150700Y-79452997D01*
X155150700Y-86917001D01*
X155150401Y-86923081D01*
X155145820Y-86969599D01*
X155165290Y-87167298D01*
X155165291Y-87167301D01*
X155222958Y-87357404D01*
X155222959Y-87357404D01*
X155227329Y-87371810D01*
X155236084Y-87381960D01*
X155265109Y-87436261D01*
X155316603Y-87532602D01*
X155316605Y-87532605D01*
X155442630Y-87686167D01*
X155467044Y-87706202D01*
X155473377Y-87711400D01*
X155478766Y-87715822D01*
X155483267Y-87719901D01*
X157694896Y-89931530D01*
X157698976Y-89936032D01*
X157728632Y-89972168D01*
X157882194Y-90098194D01*
X157882201Y-90098198D01*
X158057391Y-90191839D01*
X158057393Y-90191839D01*
X158057396Y-90191841D01*
X158247499Y-90249508D01*
X158247498Y-90249508D01*
X158265224Y-90251253D01*
X158445200Y-90268980D01*
X158479122Y-90265638D01*
X158491715Y-90264399D01*
X158497796Y-90264100D01*
X165486802Y-90264100D01*
X165492882Y-90264399D01*
X165506911Y-90265780D01*
X165539400Y-90268980D01*
X165737101Y-90249509D01*
X165927204Y-90191841D01*
X166000411Y-90152711D01*
X166102404Y-90098195D01*
X166255968Y-89972168D01*
X166285638Y-89936013D01*
X166289688Y-89931544D01*
X166336232Y-89885000D01*
X175459443Y-89885000D01*
X175460547Y-89899022D01*
X175479641Y-90141641D01*
X175488376Y-90178023D01*
X175537729Y-90383594D01*
X175539739Y-90391964D01*
X175638250Y-90629793D01*
X175638252Y-90629796D01*
X175772759Y-90849292D01*
X175772763Y-90849297D01*
X175835691Y-90922976D01*
X175939951Y-91045049D01*
X176031340Y-91123102D01*
X176135702Y-91212236D01*
X176135707Y-91212240D01*
X176355203Y-91346747D01*
X176355206Y-91346749D01*
X176523877Y-91416614D01*
X176593040Y-91445262D01*
X176843360Y-91505359D01*
X177100000Y-91525557D01*
X177356640Y-91505359D01*
X177606960Y-91445262D01*
X177763230Y-91380533D01*
X177844793Y-91346749D01*
X177844794Y-91346748D01*
X177844797Y-91346747D01*
X178040927Y-91226558D01*
X178064292Y-91212240D01*
X178064292Y-91212239D01*
X178064295Y-91212238D01*
X178260049Y-91045049D01*
X178427238Y-90849295D01*
X178561747Y-90629797D01*
X178572863Y-90602962D01*
X178660260Y-90391964D01*
X178660262Y-90391960D01*
X178720359Y-90141640D01*
X178740557Y-89885000D01*
X178720359Y-89628360D01*
X178660262Y-89378040D01*
X178638236Y-89324864D01*
X178561749Y-89140206D01*
X178561747Y-89140203D01*
X178427240Y-88920707D01*
X178427236Y-88920702D01*
X178314345Y-88788524D01*
X178260049Y-88724951D01*
X178153030Y-88633548D01*
X178064297Y-88557763D01*
X178064292Y-88557759D01*
X177844796Y-88423252D01*
X177844793Y-88423250D01*
X177606964Y-88324739D01*
X177356641Y-88264641D01*
X177133760Y-88247100D01*
X177100000Y-88244443D01*
X177099999Y-88244443D01*
X176843358Y-88264641D01*
X176593035Y-88324739D01*
X176355206Y-88423250D01*
X176355203Y-88423252D01*
X176135707Y-88557759D01*
X176135702Y-88557763D01*
X175939951Y-88724951D01*
X175772763Y-88920702D01*
X175772759Y-88920707D01*
X175638252Y-89140203D01*
X175638250Y-89140206D01*
X175539739Y-89378035D01*
X175525555Y-89437118D01*
X175479641Y-89628360D01*
X175459443Y-89885000D01*
X166336232Y-89885000D01*
X170883434Y-85337798D01*
X170925188Y-85314999D01*
X175459443Y-85314999D01*
X175479641Y-85571641D01*
X175539739Y-85821964D01*
X175638250Y-86059793D01*
X175638252Y-86059796D01*
X175772759Y-86279292D01*
X175772763Y-86279297D01*
X175848548Y-86368030D01*
X175939951Y-86475049D01*
X176029893Y-86551866D01*
X176135702Y-86642236D01*
X176135707Y-86642240D01*
X176355203Y-86776747D01*
X176355206Y-86776749D01*
X176533213Y-86850481D01*
X176593040Y-86875262D01*
X176843360Y-86935359D01*
X177100000Y-86955557D01*
X177356640Y-86935359D01*
X177606960Y-86875262D01*
X177725878Y-86826004D01*
X177844793Y-86776749D01*
X177844794Y-86776748D01*
X177844797Y-86776747D01*
X178064295Y-86642238D01*
X178260049Y-86475049D01*
X178427238Y-86279295D01*
X178561747Y-86059797D01*
X178575019Y-86027757D01*
X178660260Y-85821964D01*
X178660262Y-85821960D01*
X178720359Y-85571640D01*
X178740557Y-85315000D01*
X178720359Y-85058360D01*
X178660262Y-84808040D01*
X178621087Y-84713463D01*
X178561749Y-84570206D01*
X178561747Y-84570203D01*
X178427240Y-84350707D01*
X178427236Y-84350702D01*
X178358765Y-84270533D01*
X178260049Y-84154951D01*
X178131315Y-84045002D01*
X178064297Y-83987763D01*
X178064292Y-83987759D01*
X177844796Y-83853252D01*
X177844793Y-83853250D01*
X177606964Y-83754739D01*
X177356641Y-83694641D01*
X177100000Y-83674443D01*
X176843358Y-83694641D01*
X176593035Y-83754739D01*
X176355206Y-83853250D01*
X176355203Y-83853252D01*
X176135707Y-83987759D01*
X176135702Y-83987763D01*
X175939951Y-84154951D01*
X175772763Y-84350702D01*
X175772759Y-84350707D01*
X175638252Y-84570203D01*
X175638250Y-84570206D01*
X175539739Y-84808035D01*
X175479641Y-85058358D01*
X175459443Y-85314999D01*
X170925188Y-85314999D01*
X170944755Y-85304315D01*
X170960291Y-85301955D01*
X170971463Y-85300978D01*
X171186196Y-85243440D01*
X171387677Y-85149488D01*
X171569781Y-85021977D01*
X171726977Y-84864781D01*
X171854488Y-84682677D01*
X171948440Y-84481196D01*
X172005978Y-84266463D01*
X172025353Y-84045000D01*
X172005978Y-83823537D01*
X171948440Y-83608804D01*
X171854488Y-83407324D01*
X171854486Y-83407321D01*
X171854485Y-83407319D01*
X171726978Y-83225220D01*
X171687168Y-83185410D01*
X171569781Y-83068023D01*
X171387677Y-82940512D01*
X171273738Y-82887381D01*
X171221299Y-82841210D01*
X171202147Y-82774017D01*
X171222363Y-82707135D01*
X171273739Y-82662618D01*
X171387677Y-82609488D01*
X171569781Y-82481977D01*
X171726977Y-82324781D01*
X171854488Y-82142677D01*
X171948440Y-81941196D01*
X172005978Y-81726463D01*
X172025353Y-81505000D01*
X172005978Y-81283537D01*
X172002686Y-81271255D01*
X172004348Y-81201405D01*
X172034778Y-81151480D01*
X173429343Y-79756915D01*
X173442014Y-79746766D01*
X173441868Y-79746589D01*
X173447874Y-79741619D01*
X173447880Y-79741616D01*
X173497745Y-79688514D01*
X173519727Y-79666533D01*
X173524295Y-79660642D01*
X173528082Y-79656208D01*
X173561772Y-79620333D01*
X173572180Y-79601400D01*
X173582859Y-79585142D01*
X173596104Y-79568068D01*
X173615652Y-79522891D01*
X173618209Y-79517672D01*
X173641924Y-79474537D01*
X173647295Y-79453613D01*
X173653596Y-79435209D01*
X173662180Y-79415376D01*
X173667533Y-79381572D01*
X173669878Y-79366769D01*
X173671063Y-79361044D01*
X173683300Y-79313388D01*
X173683300Y-79291780D01*
X173684827Y-79272380D01*
X173688206Y-79251048D01*
X173683575Y-79202054D01*
X173683300Y-79196217D01*
X173683300Y-75524391D01*
X173685082Y-75508247D01*
X173684855Y-75508226D01*
X173685587Y-75500470D01*
X173685589Y-75500463D01*
X173683300Y-75427625D01*
X173683300Y-75396568D01*
X173682365Y-75389177D01*
X173681908Y-75383359D01*
X173681819Y-75380533D01*
X173680363Y-75334169D01*
X173674334Y-75313421D01*
X173670389Y-75294370D01*
X173667682Y-75272936D01*
X173649556Y-75227156D01*
X173647681Y-75221680D01*
X173633945Y-75174400D01*
X173622949Y-75155808D01*
X173614389Y-75138335D01*
X173606435Y-75118244D01*
X173606431Y-75118238D01*
X173577511Y-75078434D01*
X173574302Y-75073549D01*
X173557447Y-75045049D01*
X173549253Y-75031193D01*
X173549249Y-75031189D01*
X173549246Y-75031185D01*
X173533975Y-75015914D01*
X173521337Y-75001118D01*
X173508639Y-74983640D01*
X173470721Y-74952272D01*
X173466398Y-74948338D01*
X172403059Y-73884999D01*
X175459443Y-73884999D01*
X175479641Y-74141641D01*
X175539739Y-74391964D01*
X175638250Y-74629793D01*
X175638252Y-74629796D01*
X175772759Y-74849292D01*
X175772763Y-74849297D01*
X175826924Y-74912711D01*
X175939951Y-75045049D01*
X176031340Y-75123102D01*
X176135702Y-75212236D01*
X176135707Y-75212240D01*
X176355203Y-75346747D01*
X176355206Y-75346749D01*
X176593035Y-75445260D01*
X176593040Y-75445262D01*
X176843360Y-75505359D01*
X177100000Y-75525557D01*
X177356640Y-75505359D01*
X177606960Y-75445262D01*
X177747562Y-75387023D01*
X177844793Y-75346749D01*
X177844794Y-75346748D01*
X177844797Y-75346747D01*
X178064295Y-75212238D01*
X178260049Y-75045049D01*
X178427238Y-74849295D01*
X178433673Y-74838795D01*
X178507203Y-74718804D01*
X178561747Y-74629797D01*
X178570813Y-74607911D01*
X178640659Y-74439285D01*
X178660262Y-74391960D01*
X178720359Y-74141640D01*
X178740557Y-73885000D01*
X178720359Y-73628360D01*
X178660262Y-73378040D01*
X178635903Y-73319232D01*
X178561749Y-73140206D01*
X178561747Y-73140203D01*
X178427240Y-72920707D01*
X178427236Y-72920702D01*
X178343755Y-72822959D01*
X178260049Y-72724951D01*
X178088977Y-72578842D01*
X178064297Y-72557763D01*
X178064292Y-72557759D01*
X177844796Y-72423252D01*
X177844793Y-72423250D01*
X177606964Y-72324739D01*
X177356641Y-72264641D01*
X177100000Y-72244443D01*
X176843358Y-72264641D01*
X176593035Y-72324739D01*
X176355206Y-72423250D01*
X176355203Y-72423252D01*
X176135707Y-72557759D01*
X176135702Y-72557763D01*
X175939951Y-72724951D01*
X175772763Y-72920702D01*
X175772759Y-72920707D01*
X175638252Y-73140203D01*
X175638250Y-73140206D01*
X175539739Y-73378035D01*
X175479641Y-73628358D01*
X175459443Y-73884999D01*
X172403059Y-73884999D01*
X171078019Y-72559959D01*
X171044534Y-72498636D01*
X171041700Y-72472278D01*
X171041700Y-71133591D01*
X171061385Y-71066552D01*
X171073551Y-71050618D01*
X171122240Y-70996544D01*
X171217727Y-70831156D01*
X171276742Y-70649528D01*
X171296704Y-70459600D01*
X171276742Y-70269672D01*
X171217727Y-70088044D01*
X171122240Y-69922656D01*
X170994453Y-69780734D01*
X170839952Y-69668482D01*
X170665488Y-69590806D01*
X170665486Y-69590805D01*
X170478687Y-69551100D01*
X170287713Y-69551100D01*
X170100914Y-69590805D01*
X169926446Y-69668483D01*
X169771945Y-69780735D01*
X169644159Y-69922657D01*
X169548673Y-70088043D01*
X169548670Y-70088050D01*
X169489659Y-70269668D01*
X169489658Y-70269672D01*
X169469696Y-70459600D01*
X169489658Y-70649528D01*
X169489659Y-70649531D01*
X169548670Y-70831149D01*
X169548673Y-70831156D01*
X169644159Y-70996543D01*
X169692849Y-71050618D01*
X169723080Y-71113610D01*
X169724700Y-71133591D01*
X169724700Y-72710009D01*
X169722918Y-72726146D01*
X169723146Y-72726168D01*
X169722411Y-72733934D01*
X169724700Y-72806742D01*
X169724700Y-72837834D01*
X169725633Y-72845229D01*
X169726091Y-72851047D01*
X169727637Y-72900229D01*
X169727638Y-72900232D01*
X169733664Y-72920977D01*
X169737607Y-72940018D01*
X169740316Y-72961453D01*
X169740317Y-72961457D01*
X169740318Y-72961464D01*
X169756484Y-73002297D01*
X169758434Y-73007222D01*
X169760325Y-73012748D01*
X169774054Y-73059998D01*
X169785050Y-73078591D01*
X169793610Y-73096065D01*
X169801563Y-73116154D01*
X169816859Y-73137206D01*
X169823992Y-73147024D01*
X169830489Y-73155965D01*
X169833690Y-73160837D01*
X169858747Y-73203207D01*
X169858751Y-73203211D01*
X169874021Y-73218481D01*
X169886658Y-73233276D01*
X169899359Y-73250757D01*
X169937272Y-73282121D01*
X169941583Y-73286043D01*
X171142074Y-74486534D01*
X172329980Y-75674440D01*
X172363465Y-75735763D01*
X172366299Y-75762121D01*
X172366300Y-78906077D01*
X172346615Y-78973116D01*
X172329981Y-78993759D01*
X172234290Y-79089449D01*
X172172966Y-79122933D01*
X172103275Y-79117949D01*
X172047341Y-79076077D01*
X172022925Y-79010612D01*
X172023080Y-78990971D01*
X172025353Y-78965000D01*
X172005978Y-78743537D01*
X171948440Y-78528804D01*
X171854488Y-78327324D01*
X171854486Y-78327321D01*
X171854485Y-78327319D01*
X171726978Y-78145220D01*
X171687168Y-78105410D01*
X171569781Y-77988023D01*
X171387677Y-77860512D01*
X171273738Y-77807381D01*
X171221299Y-77761210D01*
X171202147Y-77694017D01*
X171222363Y-77627135D01*
X171273739Y-77582618D01*
X171387677Y-77529488D01*
X171569781Y-77401977D01*
X171726977Y-77244781D01*
X171854488Y-77062677D01*
X171948440Y-76861196D01*
X172005978Y-76646463D01*
X172025353Y-76425000D01*
X172005978Y-76203537D01*
X171948440Y-75988804D01*
X171854488Y-75787324D01*
X171854486Y-75787321D01*
X171854485Y-75787319D01*
X171726978Y-75605220D01*
X171657758Y-75536000D01*
X171569781Y-75448023D01*
X171407181Y-75334169D01*
X171387676Y-75320511D01*
X171259223Y-75260613D01*
X171186196Y-75226560D01*
X171186193Y-75226559D01*
X171186191Y-75226558D01*
X170971465Y-75169022D01*
X170971457Y-75169021D01*
X170750002Y-75149647D01*
X170749998Y-75149647D01*
X170528542Y-75169021D01*
X170528535Y-75169022D01*
X170313800Y-75226561D01*
X170112323Y-75320512D01*
X170112319Y-75320514D01*
X169930217Y-75448023D01*
X169773023Y-75605217D01*
X169645514Y-75787319D01*
X169645512Y-75787323D01*
X169551561Y-75988800D01*
X169494022Y-76203535D01*
X169494021Y-76203542D01*
X169474647Y-76424997D01*
X169474647Y-76425002D01*
X169494021Y-76646457D01*
X169494022Y-76646465D01*
X169551558Y-76861191D01*
X169551559Y-76861193D01*
X169551560Y-76861196D01*
X169571974Y-76904973D01*
X169645511Y-77062676D01*
X169645512Y-77062677D01*
X169773023Y-77244781D01*
X169930219Y-77401977D01*
X170112322Y-77529488D01*
X170112323Y-77529488D01*
X170226261Y-77582618D01*
X170278700Y-77628790D01*
X170297852Y-77695984D01*
X170277636Y-77762865D01*
X170226261Y-77807382D01*
X170112323Y-77860512D01*
X170112319Y-77860514D01*
X169930217Y-77988023D01*
X169773023Y-78145217D01*
X169645514Y-78327319D01*
X169645512Y-78327323D01*
X169551561Y-78528800D01*
X169494022Y-78743535D01*
X169494021Y-78743542D01*
X169474647Y-78964997D01*
X169474647Y-78965002D01*
X169494021Y-79186457D01*
X169494022Y-79186465D01*
X169551558Y-79401191D01*
X169551559Y-79401193D01*
X169551560Y-79401196D01*
X169598536Y-79501936D01*
X169645511Y-79602676D01*
X169657875Y-79620333D01*
X169773023Y-79784781D01*
X169930219Y-79941977D01*
X170112322Y-80069487D01*
X170112323Y-80069488D01*
X170226261Y-80122618D01*
X170278700Y-80168790D01*
X170297852Y-80235984D01*
X170277636Y-80302865D01*
X170226261Y-80347382D01*
X170112323Y-80400512D01*
X170112319Y-80400514D01*
X169930217Y-80528023D01*
X169773023Y-80685217D01*
X169645514Y-80867319D01*
X169645512Y-80867323D01*
X169551561Y-81068800D01*
X169494022Y-81283535D01*
X169494021Y-81283542D01*
X169474647Y-81504997D01*
X169474647Y-81505002D01*
X169494021Y-81726457D01*
X169494022Y-81726465D01*
X169551558Y-81941191D01*
X169551559Y-81941193D01*
X169551560Y-81941196D01*
X169598536Y-82041936D01*
X169645511Y-82142676D01*
X169645512Y-82142677D01*
X169773023Y-82324781D01*
X169930219Y-82481977D01*
X170112322Y-82609487D01*
X170112323Y-82609488D01*
X170226261Y-82662618D01*
X170278700Y-82708790D01*
X170297852Y-82775984D01*
X170277636Y-82842865D01*
X170226261Y-82887382D01*
X170112323Y-82940512D01*
X170112319Y-82940514D01*
X169930217Y-83068023D01*
X169773023Y-83225217D01*
X169645514Y-83407319D01*
X169645512Y-83407323D01*
X169551561Y-83608800D01*
X169494022Y-83823534D01*
X169494020Y-83823548D01*
X169493044Y-83834700D01*
X169467588Y-83899767D01*
X169457198Y-83911566D01*
X165157985Y-88210781D01*
X165096662Y-88244266D01*
X165070304Y-88247100D01*
X158914296Y-88247100D01*
X158847257Y-88227415D01*
X158826615Y-88210781D01*
X157204019Y-86588185D01*
X157170534Y-86526862D01*
X157167700Y-86500504D01*
X157167700Y-82775002D01*
X166934647Y-82775002D01*
X166954021Y-82996457D01*
X166954022Y-82996465D01*
X167011558Y-83211191D01*
X167011559Y-83211193D01*
X167011560Y-83211196D01*
X167058536Y-83311936D01*
X167105511Y-83412676D01*
X167105512Y-83412677D01*
X167233023Y-83594781D01*
X167390219Y-83751977D01*
X167572323Y-83879488D01*
X167773804Y-83973440D01*
X167988537Y-84030978D01*
X168146724Y-84044817D01*
X168209998Y-84050353D01*
X168210000Y-84050353D01*
X168210002Y-84050353D01*
X168271164Y-84045002D01*
X168431463Y-84030978D01*
X168646196Y-83973440D01*
X168847677Y-83879488D01*
X169029781Y-83751977D01*
X169186977Y-83594781D01*
X169314488Y-83412677D01*
X169408440Y-83211196D01*
X169465978Y-82996463D01*
X169485353Y-82775000D01*
X169465978Y-82553537D01*
X169408440Y-82338804D01*
X169314488Y-82137324D01*
X169314486Y-82137321D01*
X169314485Y-82137319D01*
X169186978Y-81955220D01*
X169162707Y-81930949D01*
X169029781Y-81798023D01*
X168847677Y-81670512D01*
X168733738Y-81617381D01*
X168681299Y-81571210D01*
X168662147Y-81504017D01*
X168682363Y-81437135D01*
X168733739Y-81392618D01*
X168847677Y-81339488D01*
X169029781Y-81211977D01*
X169186977Y-81054781D01*
X169314488Y-80872677D01*
X169408440Y-80671196D01*
X169465978Y-80456463D01*
X169485353Y-80235000D01*
X169465978Y-80013537D01*
X169408440Y-79798804D01*
X169314488Y-79597324D01*
X169314486Y-79597321D01*
X169314485Y-79597319D01*
X169186978Y-79415220D01*
X169132802Y-79361044D01*
X169029781Y-79258023D01*
X168847677Y-79130512D01*
X168733738Y-79077381D01*
X168681299Y-79031210D01*
X168662147Y-78964017D01*
X168682363Y-78897135D01*
X168733739Y-78852618D01*
X168847677Y-78799488D01*
X169029781Y-78671977D01*
X169186977Y-78514781D01*
X169314488Y-78332677D01*
X169408440Y-78131196D01*
X169465978Y-77916463D01*
X169485353Y-77695000D01*
X169465978Y-77473537D01*
X169408440Y-77258804D01*
X169314488Y-77057324D01*
X169314486Y-77057321D01*
X169314485Y-77057319D01*
X169186978Y-76875220D01*
X169172949Y-76861191D01*
X169029781Y-76718023D01*
X168847677Y-76590512D01*
X168847678Y-76590512D01*
X168847676Y-76590511D01*
X168733739Y-76537382D01*
X168646196Y-76496560D01*
X168646192Y-76496558D01*
X168646185Y-76496556D01*
X168609463Y-76486716D01*
X168549803Y-76450350D01*
X168519275Y-76387503D01*
X168527572Y-76318127D01*
X168572058Y-76264250D01*
X168596766Y-76251315D01*
X168730163Y-76199637D01*
X168730170Y-76199634D01*
X168879393Y-76107237D01*
X168879393Y-76107236D01*
X168425157Y-75653000D01*
X168391672Y-75591677D01*
X168396656Y-75521985D01*
X168438528Y-75466052D01*
X168442554Y-75463475D01*
X168447248Y-75459821D01*
X168447251Y-75459820D01*
X168460655Y-75445260D01*
X168527682Y-75372449D01*
X168587569Y-75336458D01*
X168657407Y-75338557D01*
X168706593Y-75368750D01*
X169161306Y-75823463D01*
X169202186Y-75769331D01*
X169202188Y-75769329D01*
X169298173Y-75576564D01*
X169357108Y-75369427D01*
X169376978Y-75155000D01*
X169376978Y-75154999D01*
X169357108Y-74940572D01*
X169298173Y-74733435D01*
X169202188Y-74540670D01*
X169202183Y-74540662D01*
X169161306Y-74486535D01*
X168705007Y-74942834D01*
X168643684Y-74976319D01*
X168573992Y-74971335D01*
X168518059Y-74929463D01*
X168513518Y-74922976D01*
X168494187Y-74893388D01*
X168494186Y-74893387D01*
X168433249Y-74845958D01*
X168392436Y-74789248D01*
X168388762Y-74719475D01*
X168421731Y-74660424D01*
X168879394Y-74202762D01*
X168730167Y-74110364D01*
X168730166Y-74110363D01*
X168529361Y-74032572D01*
X168317673Y-73993000D01*
X168102327Y-73993000D01*
X167890638Y-74032572D01*
X167689835Y-74110362D01*
X167689834Y-74110363D01*
X167540604Y-74202762D01*
X167994842Y-74656999D01*
X168028327Y-74718322D01*
X168023343Y-74788013D01*
X167981472Y-74843947D01*
X167977445Y-74846524D01*
X167972744Y-74850182D01*
X167892316Y-74937551D01*
X167832429Y-74973542D01*
X167762591Y-74971441D01*
X167713406Y-74941249D01*
X167258692Y-74486534D01*
X167217815Y-74540664D01*
X167121826Y-74733435D01*
X167062891Y-74940572D01*
X167043022Y-75154999D01*
X167043022Y-75155000D01*
X167062891Y-75369427D01*
X167121826Y-75576564D01*
X167217811Y-75769329D01*
X167217816Y-75769337D01*
X167258691Y-75823463D01*
X167714992Y-75367163D01*
X167776315Y-75333678D01*
X167846006Y-75338662D01*
X167901940Y-75380533D01*
X167906476Y-75387014D01*
X167925813Y-75416612D01*
X167957364Y-75441169D01*
X167986748Y-75464040D01*
X168027561Y-75520750D01*
X168031236Y-75590523D01*
X167998267Y-75649574D01*
X167540604Y-76107236D01*
X167689832Y-76199635D01*
X167689836Y-76199637D01*
X167823235Y-76251316D01*
X167878637Y-76293889D01*
X167902228Y-76359656D01*
X167886517Y-76427736D01*
X167836493Y-76476515D01*
X167810537Y-76486717D01*
X167773804Y-76496559D01*
X167572323Y-76590512D01*
X167572319Y-76590514D01*
X167390217Y-76718023D01*
X167233023Y-76875217D01*
X167105514Y-77057319D01*
X167105512Y-77057323D01*
X167011561Y-77258800D01*
X166954022Y-77473535D01*
X166954021Y-77473542D01*
X166934647Y-77694997D01*
X166934647Y-77695002D01*
X166954021Y-77916457D01*
X166954022Y-77916465D01*
X167011558Y-78131191D01*
X167011559Y-78131193D01*
X167011560Y-78131196D01*
X167058536Y-78231936D01*
X167105511Y-78332676D01*
X167105512Y-78332677D01*
X167233023Y-78514781D01*
X167390219Y-78671977D01*
X167572323Y-78799488D01*
X167686261Y-78852618D01*
X167738700Y-78898790D01*
X167757852Y-78965984D01*
X167737636Y-79032865D01*
X167686261Y-79077382D01*
X167572323Y-79130512D01*
X167572319Y-79130514D01*
X167390217Y-79258023D01*
X167233023Y-79415217D01*
X167105514Y-79597319D01*
X167105512Y-79597323D01*
X167011561Y-79798800D01*
X166954022Y-80013535D01*
X166954021Y-80013542D01*
X166934647Y-80234997D01*
X166934647Y-80235002D01*
X166954021Y-80456457D01*
X166954022Y-80456465D01*
X167011558Y-80671191D01*
X167011559Y-80671193D01*
X167011560Y-80671196D01*
X167058536Y-80771936D01*
X167105511Y-80872676D01*
X167105512Y-80872677D01*
X167233023Y-81054781D01*
X167390219Y-81211977D01*
X167572323Y-81339488D01*
X167636615Y-81369468D01*
X167686261Y-81392618D01*
X167738700Y-81438790D01*
X167757852Y-81505984D01*
X167737636Y-81572865D01*
X167686261Y-81617382D01*
X167572323Y-81670512D01*
X167572319Y-81670514D01*
X167390217Y-81798023D01*
X167233023Y-81955217D01*
X167105514Y-82137319D01*
X167105512Y-82137323D01*
X167011561Y-82338800D01*
X166954022Y-82553535D01*
X166954021Y-82553542D01*
X166934647Y-82774997D01*
X166934647Y-82775002D01*
X157167700Y-82775002D01*
X157167700Y-79869495D01*
X157187385Y-79802456D01*
X157204014Y-79781819D01*
X159222744Y-77763088D01*
X159227213Y-77759038D01*
X159263368Y-77729368D01*
X159389395Y-77575804D01*
X159483041Y-77400604D01*
X159540708Y-77210501D01*
X159551933Y-77096530D01*
X159560180Y-77012800D01*
X159555599Y-76966285D01*
X159555300Y-76960204D01*
X159555300Y-68391348D01*
X165165100Y-68391348D01*
X165179622Y-68520239D01*
X165236806Y-68683663D01*
X165236807Y-68683664D01*
X165267015Y-68731740D01*
X165267016Y-68731740D01*
X166471496Y-67527260D01*
X166532819Y-67493775D01*
X166602511Y-67498759D01*
X166649051Y-67529509D01*
X166753808Y-67639712D01*
X166785729Y-67701863D01*
X166778981Y-67771406D01*
X166751615Y-67812825D01*
X165549858Y-69014582D01*
X165597941Y-69044795D01*
X165761360Y-69101977D01*
X165890251Y-69116499D01*
X165890255Y-69116500D01*
X168922945Y-69116500D01*
X168922948Y-69116499D01*
X169051837Y-69101977D01*
X169215266Y-69044791D01*
X169263341Y-69014582D01*
X168058175Y-67809418D01*
X168024690Y-67748095D01*
X168029674Y-67678404D01*
X168065086Y-67627651D01*
X168135131Y-67567520D01*
X168156648Y-67539722D01*
X168213248Y-67498758D01*
X168283011Y-67494897D01*
X168342385Y-67527942D01*
X169546182Y-68731741D01*
X169576391Y-68683666D01*
X169633577Y-68520237D01*
X169648099Y-68391348D01*
X169648100Y-68391344D01*
X169648100Y-65358655D01*
X169648099Y-65358651D01*
X169633577Y-65229760D01*
X169576395Y-65066341D01*
X169546182Y-65018258D01*
X168341702Y-66222738D01*
X168280379Y-66256223D01*
X168210687Y-66251239D01*
X168164147Y-66220489D01*
X168059390Y-66110286D01*
X168027469Y-66048135D01*
X168034217Y-65978592D01*
X168061583Y-65937173D01*
X169263340Y-64735416D01*
X169263340Y-64735415D01*
X169215264Y-64705207D01*
X169215263Y-64705206D01*
X169051839Y-64648022D01*
X168922948Y-64633500D01*
X165890251Y-64633500D01*
X165761360Y-64648022D01*
X165597936Y-64705206D01*
X165549857Y-64735415D01*
X165549857Y-64735416D01*
X166755024Y-65940581D01*
X166788509Y-66001904D01*
X166783525Y-66071595D01*
X166748114Y-66122347D01*
X166678068Y-66182480D01*
X166656550Y-66210279D01*
X166599947Y-66251242D01*
X166530184Y-66255101D01*
X166470814Y-66222057D01*
X165267016Y-65018257D01*
X165267015Y-65018257D01*
X165236806Y-65066336D01*
X165179622Y-65229760D01*
X165165100Y-65358651D01*
X165165100Y-68391348D01*
X159555300Y-68391348D01*
X159555300Y-58522856D01*
X159546792Y-58436476D01*
X159540708Y-58374699D01*
X159483041Y-58184596D01*
X159483039Y-58184593D01*
X159483039Y-58184591D01*
X159389398Y-58009401D01*
X159389394Y-58009394D01*
X159263368Y-57855831D01*
X159109805Y-57729805D01*
X159109798Y-57729801D01*
X158934608Y-57636160D01*
X158811860Y-57598925D01*
X158744501Y-57578492D01*
X158744499Y-57578491D01*
X158744501Y-57578491D01*
X158546800Y-57559020D01*
X158349100Y-57578491D01*
X158158991Y-57636160D01*
X157983801Y-57729801D01*
X157983794Y-57729805D01*
X157830231Y-57855831D01*
X157704205Y-58009394D01*
X157700819Y-58014463D01*
X157699024Y-58013263D01*
X157656882Y-58056153D01*
X157588742Y-58071605D01*
X157523065Y-58047765D01*
X157480704Y-57992202D01*
X157472500Y-57947848D01*
X157472500Y-57150005D01*
X170146802Y-57150005D01*
X170165961Y-57381218D01*
X170222917Y-57606135D01*
X170316116Y-57818609D01*
X170428354Y-57990402D01*
X170970314Y-57448442D01*
X171031637Y-57414957D01*
X171101328Y-57419941D01*
X171157262Y-57461812D01*
X171162310Y-57469084D01*
X171169837Y-57480797D01*
X171169839Y-57480799D01*
X171248023Y-57548545D01*
X171285798Y-57607322D01*
X171285798Y-57677192D01*
X171254502Y-57729939D01*
X170713038Y-58271402D01*
X170713039Y-58271403D01*
X170783246Y-58326048D01*
X170987297Y-58436476D01*
X170987306Y-58436479D01*
X171206739Y-58511811D01*
X171435593Y-58550000D01*
X171667607Y-58550000D01*
X171896460Y-58511811D01*
X172115893Y-58436479D01*
X172115901Y-58436476D01*
X172319955Y-58326047D01*
X172319956Y-58326046D01*
X172390159Y-58271403D01*
X172390160Y-58271402D01*
X171848696Y-57729939D01*
X171815211Y-57668616D01*
X171820195Y-57598925D01*
X171855174Y-57548545D01*
X171933361Y-57480798D01*
X171940888Y-57469084D01*
X171993688Y-57423331D01*
X172062846Y-57413384D01*
X172126403Y-57442407D01*
X172132885Y-57448442D01*
X172674844Y-57990402D01*
X172787082Y-57818611D01*
X172880282Y-57606135D01*
X172937238Y-57381218D01*
X172956398Y-57150005D01*
X172956398Y-57149994D01*
X172937238Y-56918781D01*
X172880282Y-56693864D01*
X172787084Y-56481393D01*
X172674844Y-56309596D01*
X172132885Y-56851556D01*
X172071562Y-56885041D01*
X172001870Y-56880057D01*
X171945937Y-56838185D01*
X171940889Y-56830915D01*
X171933360Y-56819200D01*
X171855175Y-56751453D01*
X171817400Y-56692675D01*
X171817400Y-56622806D01*
X171848696Y-56570059D01*
X172390159Y-56028596D01*
X172390159Y-56028595D01*
X172319953Y-55973951D01*
X172115902Y-55863523D01*
X172115893Y-55863520D01*
X171896460Y-55788188D01*
X171667607Y-55750000D01*
X171435593Y-55750000D01*
X171206739Y-55788188D01*
X170987306Y-55863520D01*
X170987297Y-55863523D01*
X170783250Y-55973948D01*
X170713039Y-56028595D01*
X170713039Y-56028596D01*
X171254503Y-56570060D01*
X171287988Y-56631383D01*
X171283004Y-56701075D01*
X171248024Y-56751454D01*
X171169840Y-56819199D01*
X171162309Y-56830918D01*
X171109504Y-56876672D01*
X171040345Y-56886613D01*
X170976790Y-56857587D01*
X170970314Y-56851557D01*
X170428353Y-56309596D01*
X170316116Y-56481390D01*
X170222917Y-56693864D01*
X170165961Y-56918781D01*
X170146802Y-57149994D01*
X170146802Y-57150005D01*
X157472500Y-57150005D01*
X157472500Y-52031096D01*
X157492185Y-51964057D01*
X157508819Y-51943415D01*
X159384471Y-50067763D01*
X173145787Y-50067763D01*
X173175413Y-50337013D01*
X173175415Y-50337024D01*
X173243926Y-50599082D01*
X173243928Y-50599088D01*
X173349870Y-50848390D01*
X173490979Y-51079605D01*
X173490982Y-51079610D01*
X173664253Y-51287819D01*
X173664259Y-51287824D01*
X173749611Y-51364299D01*
X173865998Y-51468582D01*
X174091910Y-51618044D01*
X174337176Y-51733020D01*
X174337183Y-51733022D01*
X174337185Y-51733023D01*
X174596557Y-51811057D01*
X174596564Y-51811058D01*
X174596569Y-51811060D01*
X174864561Y-51850500D01*
X174864566Y-51850500D01*
X175067636Y-51850500D01*
X175119133Y-51846730D01*
X175270156Y-51835677D01*
X175407371Y-51805111D01*
X175534546Y-51776782D01*
X175534548Y-51776781D01*
X175534553Y-51776780D01*
X175787558Y-51680014D01*
X176023777Y-51547441D01*
X176238177Y-51381888D01*
X176426186Y-51186881D01*
X176583799Y-50966579D01*
X176663434Y-50811687D01*
X176707649Y-50725690D01*
X176707651Y-50725684D01*
X176707656Y-50725675D01*
X176795118Y-50469305D01*
X176844319Y-50202933D01*
X176854212Y-49932235D01*
X176824586Y-49662982D01*
X176756072Y-49400912D01*
X176650130Y-49151610D01*
X176509018Y-48920390D01*
X176504995Y-48915556D01*
X176335746Y-48712180D01*
X176335740Y-48712175D01*
X176134002Y-48531418D01*
X175908092Y-48381957D01*
X175811759Y-48336798D01*
X175662824Y-48266980D01*
X175662819Y-48266978D01*
X175662814Y-48266976D01*
X175403442Y-48188942D01*
X175403428Y-48188939D01*
X175287791Y-48171921D01*
X175135439Y-48149500D01*
X174932369Y-48149500D01*
X174932364Y-48149500D01*
X174729844Y-48164323D01*
X174729831Y-48164325D01*
X174465453Y-48223217D01*
X174465446Y-48223220D01*
X174212439Y-48319987D01*
X173976226Y-48452557D01*
X173761822Y-48618112D01*
X173573822Y-48813109D01*
X173573816Y-48813116D01*
X173416202Y-49033419D01*
X173416199Y-49033424D01*
X173292350Y-49274309D01*
X173292343Y-49274327D01*
X173204884Y-49530685D01*
X173204881Y-49530699D01*
X173183857Y-49644525D01*
X173161610Y-49764971D01*
X173155681Y-49797068D01*
X173155680Y-49797075D01*
X173145787Y-50067763D01*
X159384471Y-50067763D01*
X160969415Y-48482819D01*
X161030738Y-48449334D01*
X161057096Y-48446500D01*
X164932601Y-48446500D01*
X164999640Y-48466185D01*
X165045395Y-48518989D01*
X165056601Y-48570500D01*
X165056601Y-48987441D01*
X165059503Y-49030263D01*
X165059503Y-49030264D01*
X165105532Y-49215347D01*
X165190265Y-49386197D01*
X165190267Y-49386200D01*
X165309752Y-49534846D01*
X165309753Y-49534847D01*
X165458399Y-49654332D01*
X165458402Y-49654334D01*
X165579378Y-49714332D01*
X165629256Y-49739069D01*
X165778245Y-49776121D01*
X165814329Y-49785095D01*
X165814330Y-49785095D01*
X165814334Y-49785096D01*
X165853172Y-49787729D01*
X165857158Y-49788000D01*
X165857158Y-49787999D01*
X165857159Y-49788000D01*
X168956040Y-49787999D01*
X168956041Y-49787999D01*
X168966746Y-49787273D01*
X168998866Y-49785096D01*
X169183944Y-49739069D01*
X169354801Y-49654332D01*
X169503447Y-49534847D01*
X169622932Y-49386201D01*
X169707669Y-49215344D01*
X169753696Y-49030266D01*
X169756600Y-48987441D01*
X169756599Y-45888560D01*
X169753696Y-45845734D01*
X169707669Y-45660656D01*
X169684120Y-45613173D01*
X169622934Y-45489802D01*
X169622932Y-45489799D01*
X169503447Y-45341153D01*
X169503446Y-45341152D01*
X169427510Y-45280113D01*
X169366592Y-45231146D01*
X169326674Y-45173804D01*
X169324094Y-45103982D01*
X169359672Y-45043849D01*
X169422113Y-45012497D01*
X169444280Y-45010500D01*
X174996588Y-45010500D01*
X175000000Y-45010500D01*
X175409480Y-45027436D01*
X175414553Y-45027856D01*
X175818714Y-45078234D01*
X175823744Y-45079074D01*
X176222350Y-45162652D01*
X176227307Y-45163908D01*
X176617657Y-45280121D01*
X176622464Y-45281772D01*
X176928411Y-45401153D01*
X177001873Y-45429818D01*
X177006552Y-45431870D01*
X177372438Y-45610741D01*
X177376933Y-45613173D01*
X177726803Y-45821650D01*
X177731085Y-45824448D01*
X178062548Y-46061107D01*
X178066560Y-46064231D01*
X178377347Y-46327456D01*
X178381096Y-46330906D01*
X178669092Y-46618902D01*
X178672544Y-46622653D01*
X178935765Y-46933436D01*
X178938894Y-46937455D01*
X179115650Y-47185017D01*
X179175545Y-47268905D01*
X179178349Y-47273196D01*
X179386826Y-47623066D01*
X179389263Y-47627569D01*
X179476492Y-47806000D01*
X179568122Y-47993431D01*
X179570181Y-47998126D01*
X179718221Y-48377518D01*
X179719882Y-48382357D01*
X179740783Y-48452559D01*
X179836090Y-48772690D01*
X179837349Y-48777660D01*
X179920923Y-49176243D01*
X179921767Y-49181300D01*
X179972141Y-49585428D01*
X179972564Y-49590537D01*
X179989500Y-49999999D01*
X179989500Y-130000000D01*
X179972564Y-130409462D01*
X179972141Y-130414571D01*
X179921767Y-130818699D01*
X179920923Y-130823756D01*
X179837349Y-131222339D01*
X179836090Y-131227309D01*
X179719886Y-131617633D01*
X179718221Y-131622481D01*
X179570181Y-132001873D01*
X179568122Y-132006568D01*
X179389266Y-132372424D01*
X179386826Y-132376933D01*
X179178349Y-132726803D01*
X179175545Y-132731094D01*
X178938909Y-133062525D01*
X178935760Y-133066570D01*
X178672553Y-133377337D01*
X178669081Y-133381109D01*
X178381109Y-133669081D01*
X178377337Y-133672553D01*
X178066570Y-133935760D01*
X178062532Y-133938903D01*
X177976649Y-134000223D01*
X177731094Y-134175545D01*
X177726803Y-134178349D01*
X177376933Y-134386826D01*
X177372424Y-134389266D01*
X177006568Y-134568122D01*
X177001873Y-134570181D01*
X176622481Y-134718221D01*
X176617633Y-134719886D01*
X176227309Y-134836090D01*
X176222339Y-134837349D01*
X175823756Y-134920923D01*
X175818699Y-134921767D01*
X175414571Y-134972141D01*
X175409462Y-134972564D01*
X175000000Y-134989500D01*
X100000000Y-134989500D01*
X99590537Y-134972564D01*
X99585428Y-134972141D01*
X99181300Y-134921767D01*
X99176243Y-134920923D01*
X98777660Y-134837349D01*
X98772690Y-134836090D01*
X98537111Y-134765955D01*
X98382357Y-134719882D01*
X98377518Y-134718221D01*
X97998126Y-134570181D01*
X97993436Y-134568124D01*
X97627569Y-134389263D01*
X97623066Y-134386826D01*
X97273196Y-134178349D01*
X97268905Y-134175545D01*
X96937455Y-133938894D01*
X96933436Y-133935765D01*
X96622653Y-133672544D01*
X96618902Y-133669092D01*
X96330906Y-133381096D01*
X96327456Y-133377347D01*
X96064231Y-133066560D01*
X96061107Y-133062548D01*
X95824448Y-132731085D01*
X95821650Y-132726803D01*
X95630255Y-132405600D01*
X149280843Y-132405600D01*
X149301041Y-132662241D01*
X149361139Y-132912564D01*
X149459650Y-133150393D01*
X149459652Y-133150396D01*
X149594159Y-133369892D01*
X149594163Y-133369897D01*
X149669948Y-133458630D01*
X149761351Y-133565649D01*
X149882455Y-133669081D01*
X149957102Y-133732836D01*
X149957107Y-133732840D01*
X150176603Y-133867347D01*
X150176606Y-133867349D01*
X150345767Y-133937417D01*
X150414440Y-133965862D01*
X150664760Y-134025959D01*
X150921400Y-134046157D01*
X151178040Y-134025959D01*
X151428360Y-133965862D01*
X151547278Y-133916604D01*
X151666193Y-133867349D01*
X151666194Y-133867348D01*
X151666197Y-133867347D01*
X151885695Y-133732838D01*
X152081449Y-133565649D01*
X152248638Y-133369895D01*
X152383147Y-133150397D01*
X152481662Y-132912560D01*
X152541759Y-132662240D01*
X152561957Y-132405600D01*
X152561957Y-132405599D01*
X160710843Y-132405599D01*
X160731041Y-132662241D01*
X160791139Y-132912564D01*
X160889650Y-133150393D01*
X160889652Y-133150396D01*
X161024159Y-133369892D01*
X161024163Y-133369897D01*
X161099948Y-133458630D01*
X161191351Y-133565649D01*
X161312455Y-133669081D01*
X161387102Y-133732836D01*
X161387107Y-133732840D01*
X161606603Y-133867347D01*
X161606606Y-133867349D01*
X161775767Y-133937417D01*
X161844440Y-133965862D01*
X162094760Y-134025959D01*
X162351400Y-134046157D01*
X162608040Y-134025959D01*
X162858360Y-133965862D01*
X162977278Y-133916604D01*
X163096193Y-133867349D01*
X163096194Y-133867348D01*
X163096197Y-133867347D01*
X163315695Y-133732838D01*
X163511449Y-133565649D01*
X163678638Y-133369895D01*
X163813147Y-133150397D01*
X163911662Y-132912560D01*
X163971759Y-132662240D01*
X163991957Y-132405600D01*
X163971759Y-132148960D01*
X163911662Y-131898640D01*
X163891722Y-131850500D01*
X163813149Y-131660806D01*
X163813147Y-131660803D01*
X163678640Y-131441307D01*
X163678636Y-131441302D01*
X163547553Y-131287824D01*
X163511449Y-131245551D01*
X163340377Y-131099442D01*
X163315697Y-131078363D01*
X163315692Y-131078359D01*
X163096196Y-130943852D01*
X163096193Y-130943850D01*
X162858364Y-130845339D01*
X162608041Y-130785241D01*
X162479720Y-130775141D01*
X162351400Y-130765043D01*
X162351399Y-130765043D01*
X162094758Y-130785241D01*
X161844435Y-130845339D01*
X161606606Y-130943850D01*
X161606603Y-130943852D01*
X161387107Y-131078359D01*
X161387102Y-131078363D01*
X161191351Y-131245551D01*
X161024163Y-131441302D01*
X161024159Y-131441307D01*
X160889652Y-131660803D01*
X160889650Y-131660806D01*
X160791139Y-131898635D01*
X160731041Y-132148958D01*
X160710843Y-132405599D01*
X152561957Y-132405599D01*
X152541759Y-132148960D01*
X152481662Y-131898640D01*
X152461722Y-131850500D01*
X152383149Y-131660806D01*
X152383147Y-131660803D01*
X152248640Y-131441307D01*
X152248636Y-131441302D01*
X152117553Y-131287824D01*
X152081449Y-131245551D01*
X151910377Y-131099442D01*
X151885697Y-131078363D01*
X151885692Y-131078359D01*
X151666196Y-130943852D01*
X151666193Y-130943850D01*
X151428364Y-130845339D01*
X151178041Y-130785241D01*
X150921400Y-130765043D01*
X150664758Y-130785241D01*
X150414435Y-130845339D01*
X150176606Y-130943850D01*
X150176603Y-130943852D01*
X149957107Y-131078359D01*
X149957102Y-131078363D01*
X149761351Y-131245551D01*
X149594163Y-131441302D01*
X149594159Y-131441307D01*
X149459652Y-131660803D01*
X149459650Y-131660806D01*
X149361139Y-131898635D01*
X149301041Y-132148958D01*
X149280843Y-132405600D01*
X95630255Y-132405600D01*
X95613173Y-132376933D01*
X95610741Y-132372438D01*
X95431870Y-132006552D01*
X95429818Y-132001873D01*
X95370752Y-131850500D01*
X95281772Y-131622464D01*
X95280121Y-131617657D01*
X95163908Y-131227307D01*
X95162650Y-131222339D01*
X95079074Y-130823744D01*
X95078234Y-130818714D01*
X95027856Y-130414553D01*
X95027436Y-130409480D01*
X95013303Y-130067763D01*
X98145787Y-130067763D01*
X98175413Y-130337013D01*
X98175415Y-130337024D01*
X98243926Y-130599082D01*
X98243928Y-130599088D01*
X98349870Y-130848390D01*
X98421998Y-130966575D01*
X98490979Y-131079605D01*
X98490986Y-131079615D01*
X98664253Y-131287819D01*
X98664259Y-131287824D01*
X98865998Y-131468582D01*
X99091910Y-131618044D01*
X99337176Y-131733020D01*
X99337183Y-131733022D01*
X99337185Y-131733023D01*
X99596557Y-131811057D01*
X99596564Y-131811058D01*
X99596569Y-131811060D01*
X99864561Y-131850500D01*
X99864566Y-131850500D01*
X100067636Y-131850500D01*
X100119133Y-131846730D01*
X100270156Y-131835677D01*
X100382758Y-131810593D01*
X100534546Y-131776782D01*
X100534548Y-131776781D01*
X100534553Y-131776780D01*
X100787558Y-131680014D01*
X101023777Y-131547441D01*
X101238177Y-131381888D01*
X101426186Y-131186881D01*
X101583799Y-130966579D01*
X101687416Y-130765043D01*
X101707649Y-130725690D01*
X101707651Y-130725684D01*
X101707656Y-130725675D01*
X101795118Y-130469305D01*
X101844319Y-130202933D01*
X101849259Y-130067763D01*
X173145787Y-130067763D01*
X173175413Y-130337013D01*
X173175415Y-130337024D01*
X173243926Y-130599082D01*
X173243928Y-130599088D01*
X173349870Y-130848390D01*
X173421998Y-130966575D01*
X173490979Y-131079605D01*
X173490986Y-131079615D01*
X173664253Y-131287819D01*
X173664259Y-131287824D01*
X173865998Y-131468582D01*
X174091910Y-131618044D01*
X174337176Y-131733020D01*
X174337183Y-131733022D01*
X174337185Y-131733023D01*
X174596557Y-131811057D01*
X174596564Y-131811058D01*
X174596569Y-131811060D01*
X174864561Y-131850500D01*
X174864566Y-131850500D01*
X175067636Y-131850500D01*
X175119133Y-131846730D01*
X175270156Y-131835677D01*
X175382758Y-131810593D01*
X175534546Y-131776782D01*
X175534548Y-131776781D01*
X175534553Y-131776780D01*
X175787558Y-131680014D01*
X176023777Y-131547441D01*
X176238177Y-131381888D01*
X176426186Y-131186881D01*
X176583799Y-130966579D01*
X176687416Y-130765043D01*
X176707649Y-130725690D01*
X176707651Y-130725684D01*
X176707656Y-130725675D01*
X176795118Y-130469305D01*
X176844319Y-130202933D01*
X176854212Y-129932235D01*
X176824586Y-129662982D01*
X176756072Y-129400912D01*
X176650130Y-129151610D01*
X176509018Y-128920390D01*
X176419747Y-128813119D01*
X176335746Y-128712180D01*
X176335740Y-128712175D01*
X176134002Y-128531418D01*
X175908092Y-128381957D01*
X175908090Y-128381956D01*
X175662824Y-128266980D01*
X175662819Y-128266978D01*
X175662814Y-128266976D01*
X175403442Y-128188942D01*
X175403428Y-128188939D01*
X175287791Y-128171921D01*
X175135439Y-128149500D01*
X174932369Y-128149500D01*
X174932364Y-128149500D01*
X174729844Y-128164323D01*
X174729831Y-128164325D01*
X174465453Y-128223217D01*
X174465446Y-128223220D01*
X174212439Y-128319987D01*
X173976226Y-128452557D01*
X173761822Y-128618112D01*
X173573822Y-128813109D01*
X173573816Y-128813116D01*
X173416202Y-129033419D01*
X173416199Y-129033424D01*
X173292350Y-129274309D01*
X173292343Y-129274327D01*
X173204884Y-129530685D01*
X173204881Y-129530699D01*
X173155681Y-129797068D01*
X173155680Y-129797075D01*
X173145787Y-130067763D01*
X101849259Y-130067763D01*
X101854212Y-129932235D01*
X101824586Y-129662982D01*
X101756072Y-129400912D01*
X101650130Y-129151610D01*
X101509018Y-128920390D01*
X101419747Y-128813119D01*
X101335746Y-128712180D01*
X101335740Y-128712175D01*
X101134002Y-128531418D01*
X100908092Y-128381957D01*
X100908090Y-128381956D01*
X100662824Y-128266980D01*
X100662819Y-128266978D01*
X100662814Y-128266976D01*
X100403442Y-128188942D01*
X100403428Y-128188939D01*
X100287791Y-128171921D01*
X100135439Y-128149500D01*
X99932369Y-128149500D01*
X99932364Y-128149500D01*
X99729844Y-128164323D01*
X99729831Y-128164325D01*
X99465453Y-128223217D01*
X99465446Y-128223220D01*
X99212439Y-128319987D01*
X98976226Y-128452557D01*
X98761822Y-128618112D01*
X98573822Y-128813109D01*
X98573816Y-128813116D01*
X98416202Y-129033419D01*
X98416199Y-129033424D01*
X98292350Y-129274309D01*
X98292343Y-129274327D01*
X98204884Y-129530685D01*
X98204881Y-129530699D01*
X98155681Y-129797068D01*
X98155680Y-129797075D01*
X98145787Y-130067763D01*
X95013303Y-130067763D01*
X95010500Y-130000000D01*
X95010500Y-129996588D01*
X95010500Y-126055602D01*
X150916047Y-126055602D01*
X150935421Y-126277057D01*
X150935422Y-126277065D01*
X150992958Y-126491791D01*
X150992959Y-126491793D01*
X150992960Y-126491796D01*
X151009329Y-126526899D01*
X151086911Y-126693276D01*
X151086912Y-126693277D01*
X151214423Y-126875381D01*
X151371619Y-127032577D01*
X151553723Y-127160088D01*
X151755204Y-127254040D01*
X151969937Y-127311578D01*
X152128124Y-127325417D01*
X152191398Y-127330953D01*
X152191400Y-127330953D01*
X152191402Y-127330953D01*
X152246765Y-127326109D01*
X152412863Y-127311578D01*
X152627596Y-127254040D01*
X152829077Y-127160088D01*
X153011181Y-127032577D01*
X153168377Y-126875381D01*
X153295888Y-126693277D01*
X153349018Y-126579338D01*
X153395190Y-126526899D01*
X153462383Y-126507747D01*
X153529265Y-126527963D01*
X153573781Y-126579338D01*
X153626912Y-126693277D01*
X153754423Y-126875381D01*
X153911619Y-127032577D01*
X154093723Y-127160088D01*
X154295204Y-127254040D01*
X154509937Y-127311578D01*
X154668124Y-127325417D01*
X154731398Y-127330953D01*
X154731400Y-127330953D01*
X154731402Y-127330953D01*
X154786765Y-127326109D01*
X154952863Y-127311578D01*
X155167596Y-127254040D01*
X155369077Y-127160088D01*
X155551181Y-127032577D01*
X155708377Y-126875381D01*
X155835888Y-126693277D01*
X155889018Y-126579338D01*
X155935190Y-126526899D01*
X156002383Y-126507747D01*
X156069265Y-126527963D01*
X156113781Y-126579338D01*
X156166912Y-126693277D01*
X156294423Y-126875381D01*
X156451619Y-127032577D01*
X156633723Y-127160088D01*
X156835204Y-127254040D01*
X157049937Y-127311578D01*
X157208124Y-127325417D01*
X157271398Y-127330953D01*
X157271400Y-127330953D01*
X157271402Y-127330953D01*
X157326765Y-127326109D01*
X157492863Y-127311578D01*
X157707596Y-127254040D01*
X157909077Y-127160088D01*
X158091181Y-127032577D01*
X158248377Y-126875381D01*
X158375888Y-126693277D01*
X158429018Y-126579338D01*
X158475190Y-126526899D01*
X158542383Y-126507747D01*
X158609265Y-126527963D01*
X158653781Y-126579338D01*
X158706912Y-126693277D01*
X158834423Y-126875381D01*
X158991619Y-127032577D01*
X159173723Y-127160088D01*
X159375204Y-127254040D01*
X159589937Y-127311578D01*
X159748124Y-127325417D01*
X159811398Y-127330953D01*
X159811400Y-127330953D01*
X159811402Y-127330953D01*
X159866765Y-127326109D01*
X160032863Y-127311578D01*
X160247596Y-127254040D01*
X160449077Y-127160088D01*
X160631181Y-127032577D01*
X160788377Y-126875381D01*
X160915888Y-126693277D01*
X161009840Y-126491796D01*
X161067378Y-126277063D01*
X161086753Y-126055600D01*
X161067378Y-125834137D01*
X161009840Y-125619404D01*
X160915888Y-125417924D01*
X160915886Y-125417921D01*
X160915885Y-125417919D01*
X160788378Y-125235820D01*
X160788375Y-125235817D01*
X160631181Y-125078623D01*
X160449077Y-124951112D01*
X160449078Y-124951112D01*
X160449076Y-124951111D01*
X160348336Y-124904135D01*
X160247596Y-124857160D01*
X160247593Y-124857159D01*
X160247591Y-124857158D01*
X160032865Y-124799622D01*
X160032857Y-124799621D01*
X159811402Y-124780247D01*
X159811398Y-124780247D01*
X159589942Y-124799621D01*
X159589935Y-124799622D01*
X159375200Y-124857161D01*
X159173723Y-124951112D01*
X159173719Y-124951114D01*
X158991617Y-125078623D01*
X158834423Y-125235817D01*
X158706914Y-125417919D01*
X158706912Y-125417923D01*
X158653782Y-125531861D01*
X158607609Y-125584300D01*
X158540416Y-125603452D01*
X158473535Y-125583236D01*
X158429018Y-125531861D01*
X158419530Y-125511514D01*
X158375888Y-125417924D01*
X158375886Y-125417921D01*
X158375885Y-125417919D01*
X158248378Y-125235820D01*
X158248375Y-125235817D01*
X158091181Y-125078623D01*
X157909077Y-124951112D01*
X157909078Y-124951112D01*
X157909076Y-124951111D01*
X157808336Y-124904135D01*
X157707596Y-124857160D01*
X157707593Y-124857159D01*
X157707591Y-124857158D01*
X157492865Y-124799622D01*
X157492857Y-124799621D01*
X157271402Y-124780247D01*
X157271398Y-124780247D01*
X157049942Y-124799621D01*
X157049935Y-124799622D01*
X156835200Y-124857161D01*
X156633723Y-124951112D01*
X156633719Y-124951114D01*
X156451617Y-125078623D01*
X156294423Y-125235817D01*
X156166914Y-125417919D01*
X156166912Y-125417923D01*
X156113782Y-125531861D01*
X156067609Y-125584300D01*
X156000416Y-125603452D01*
X155933535Y-125583236D01*
X155889018Y-125531861D01*
X155879530Y-125511514D01*
X155835888Y-125417924D01*
X155835886Y-125417921D01*
X155835885Y-125417919D01*
X155708378Y-125235820D01*
X155708375Y-125235817D01*
X155551181Y-125078623D01*
X155369077Y-124951112D01*
X155369078Y-124951112D01*
X155369076Y-124951111D01*
X155268336Y-124904135D01*
X155167596Y-124857160D01*
X155167593Y-124857159D01*
X155167591Y-124857158D01*
X154952865Y-124799622D01*
X154952857Y-124799621D01*
X154731402Y-124780247D01*
X154731398Y-124780247D01*
X154509942Y-124799621D01*
X154509935Y-124799622D01*
X154295200Y-124857161D01*
X154093723Y-124951112D01*
X154093719Y-124951114D01*
X153911617Y-125078623D01*
X153754423Y-125235817D01*
X153626914Y-125417919D01*
X153626912Y-125417923D01*
X153573782Y-125531861D01*
X153527609Y-125584300D01*
X153460416Y-125603452D01*
X153393535Y-125583236D01*
X153349018Y-125531861D01*
X153339530Y-125511514D01*
X153295888Y-125417924D01*
X153295886Y-125417921D01*
X153295885Y-125417919D01*
X153168378Y-125235820D01*
X153168375Y-125235817D01*
X153011181Y-125078623D01*
X152829077Y-124951112D01*
X152829078Y-124951112D01*
X152829076Y-124951111D01*
X152728336Y-124904135D01*
X152627596Y-124857160D01*
X152627593Y-124857159D01*
X152627591Y-124857158D01*
X152412865Y-124799622D01*
X152412857Y-124799621D01*
X152191402Y-124780247D01*
X152191398Y-124780247D01*
X151969942Y-124799621D01*
X151969935Y-124799622D01*
X151755200Y-124857161D01*
X151553723Y-124951112D01*
X151553719Y-124951114D01*
X151371617Y-125078623D01*
X151214423Y-125235817D01*
X151086914Y-125417919D01*
X151086912Y-125417923D01*
X150992961Y-125619400D01*
X150935422Y-125834135D01*
X150935421Y-125834142D01*
X150916047Y-126055597D01*
X150916047Y-126055602D01*
X95010500Y-126055602D01*
X95010500Y-123515602D01*
X152186047Y-123515602D01*
X152205421Y-123737057D01*
X152205422Y-123737065D01*
X152262958Y-123951791D01*
X152262959Y-123951793D01*
X152262960Y-123951796D01*
X152279329Y-123986899D01*
X152356911Y-124153276D01*
X152356912Y-124153277D01*
X152484423Y-124335381D01*
X152641619Y-124492577D01*
X152823723Y-124620088D01*
X153025204Y-124714040D01*
X153239937Y-124771578D01*
X153398124Y-124785417D01*
X153461398Y-124790953D01*
X153461400Y-124790953D01*
X153461402Y-124790953D01*
X153516765Y-124786109D01*
X153682863Y-124771578D01*
X153897596Y-124714040D01*
X154099077Y-124620088D01*
X154281181Y-124492577D01*
X154438377Y-124335381D01*
X154565888Y-124153277D01*
X154619018Y-124039338D01*
X154665190Y-123986899D01*
X154732383Y-123967747D01*
X154799265Y-123987963D01*
X154843781Y-124039338D01*
X154896912Y-124153277D01*
X155024423Y-124335381D01*
X155181619Y-124492577D01*
X155363723Y-124620088D01*
X155565204Y-124714040D01*
X155779937Y-124771578D01*
X155938124Y-124785417D01*
X156001398Y-124790953D01*
X156001400Y-124790953D01*
X156001402Y-124790953D01*
X156056765Y-124786109D01*
X156222863Y-124771578D01*
X156437596Y-124714040D01*
X156639077Y-124620088D01*
X156821181Y-124492577D01*
X156978377Y-124335381D01*
X157105888Y-124153277D01*
X157159018Y-124039338D01*
X157205190Y-123986899D01*
X157272383Y-123967747D01*
X157339265Y-123987963D01*
X157383781Y-124039338D01*
X157436912Y-124153277D01*
X157564423Y-124335381D01*
X157721619Y-124492577D01*
X157903723Y-124620088D01*
X158105204Y-124714040D01*
X158319937Y-124771578D01*
X158478124Y-124785417D01*
X158541398Y-124790953D01*
X158541400Y-124790953D01*
X158541402Y-124790953D01*
X158596765Y-124786109D01*
X158762863Y-124771578D01*
X158977596Y-124714040D01*
X159179077Y-124620088D01*
X159361181Y-124492577D01*
X159518377Y-124335381D01*
X159645888Y-124153277D01*
X159739840Y-123951796D01*
X159740021Y-123951123D01*
X159748562Y-123919246D01*
X159784926Y-123859585D01*
X159847773Y-123829055D01*
X159917149Y-123837349D01*
X159971027Y-123881834D01*
X159987604Y-123917405D01*
X159993225Y-123937163D01*
X160089211Y-124129929D01*
X160089216Y-124129937D01*
X160130091Y-124184063D01*
X160586392Y-123727763D01*
X160647715Y-123694278D01*
X160717406Y-123699262D01*
X160773340Y-123741133D01*
X160777876Y-123747614D01*
X160797213Y-123777212D01*
X160797216Y-123777214D01*
X160858148Y-123824640D01*
X160898961Y-123881350D01*
X160902636Y-123951123D01*
X160869667Y-124010174D01*
X160412004Y-124467836D01*
X160561232Y-124560235D01*
X160561233Y-124560236D01*
X160762038Y-124638027D01*
X160973727Y-124677600D01*
X161189073Y-124677600D01*
X161400761Y-124638027D01*
X161601566Y-124560236D01*
X161601570Y-124560234D01*
X161750793Y-124467837D01*
X161750793Y-124467836D01*
X161296557Y-124013600D01*
X161263072Y-123952277D01*
X161268056Y-123882585D01*
X161309928Y-123826652D01*
X161313954Y-123824075D01*
X161318648Y-123820421D01*
X161318651Y-123820420D01*
X161399081Y-123733049D01*
X161458969Y-123697058D01*
X161528807Y-123699157D01*
X161577993Y-123729350D01*
X162032706Y-124184063D01*
X162073586Y-124129931D01*
X162073588Y-124129929D01*
X162169573Y-123937164D01*
X162228508Y-123730027D01*
X162248378Y-123515600D01*
X162248378Y-123515599D01*
X162228508Y-123301172D01*
X162169573Y-123094035D01*
X162073588Y-122901270D01*
X162073583Y-122901262D01*
X162032706Y-122847135D01*
X161576407Y-123303434D01*
X161515084Y-123336919D01*
X161445392Y-123331935D01*
X161389459Y-123290063D01*
X161384918Y-123283576D01*
X161365587Y-123253988D01*
X161365586Y-123253987D01*
X161304649Y-123206558D01*
X161263836Y-123149848D01*
X161260162Y-123080075D01*
X161293131Y-123021024D01*
X161750794Y-122563362D01*
X161601567Y-122470964D01*
X161601566Y-122470963D01*
X161400761Y-122393172D01*
X161189073Y-122353600D01*
X160973727Y-122353600D01*
X160762038Y-122393172D01*
X160561235Y-122470962D01*
X160561234Y-122470963D01*
X160412004Y-122563362D01*
X160866242Y-123017599D01*
X160899727Y-123078922D01*
X160894743Y-123148613D01*
X160852872Y-123204547D01*
X160848845Y-123207124D01*
X160844144Y-123210782D01*
X160763716Y-123298151D01*
X160703829Y-123334142D01*
X160633991Y-123332041D01*
X160584806Y-123301849D01*
X160130092Y-122847134D01*
X160089215Y-122901264D01*
X159993225Y-123094037D01*
X159993222Y-123094043D01*
X159987601Y-123113800D01*
X159950320Y-123172892D01*
X159887010Y-123202448D01*
X159817771Y-123193084D01*
X159764585Y-123147772D01*
X159748563Y-123111958D01*
X159739840Y-123079404D01*
X159645888Y-122877924D01*
X159645886Y-122877921D01*
X159645885Y-122877919D01*
X159518378Y-122695820D01*
X159518375Y-122695817D01*
X159361181Y-122538623D01*
X159179077Y-122411112D01*
X159179078Y-122411112D01*
X159179076Y-122411111D01*
X159055742Y-122353600D01*
X158977596Y-122317160D01*
X158977593Y-122317159D01*
X158977591Y-122317158D01*
X158762865Y-122259622D01*
X158762857Y-122259621D01*
X158541402Y-122240247D01*
X158541398Y-122240247D01*
X158319942Y-122259621D01*
X158319935Y-122259622D01*
X158105200Y-122317161D01*
X157903723Y-122411112D01*
X157903719Y-122411114D01*
X157721617Y-122538623D01*
X157564423Y-122695817D01*
X157436914Y-122877919D01*
X157436912Y-122877923D01*
X157383782Y-122991861D01*
X157337609Y-123044300D01*
X157270416Y-123063452D01*
X157203535Y-123043236D01*
X157159018Y-122991861D01*
X157116774Y-122901270D01*
X157105888Y-122877924D01*
X157105886Y-122877921D01*
X157105885Y-122877919D01*
X156978378Y-122695820D01*
X156978375Y-122695817D01*
X156821181Y-122538623D01*
X156639077Y-122411112D01*
X156639078Y-122411112D01*
X156639076Y-122411111D01*
X156515742Y-122353600D01*
X156437596Y-122317160D01*
X156437593Y-122317159D01*
X156437591Y-122317158D01*
X156222865Y-122259622D01*
X156222857Y-122259621D01*
X156001402Y-122240247D01*
X156001398Y-122240247D01*
X155779942Y-122259621D01*
X155779935Y-122259622D01*
X155565200Y-122317161D01*
X155363723Y-122411112D01*
X155363719Y-122411114D01*
X155181617Y-122538623D01*
X155024423Y-122695817D01*
X154896914Y-122877919D01*
X154896912Y-122877923D01*
X154843782Y-122991861D01*
X154797609Y-123044300D01*
X154730416Y-123063452D01*
X154663535Y-123043236D01*
X154619018Y-122991861D01*
X154576774Y-122901270D01*
X154565888Y-122877924D01*
X154565886Y-122877921D01*
X154565885Y-122877919D01*
X154438378Y-122695820D01*
X154438375Y-122695817D01*
X154281181Y-122538623D01*
X154099077Y-122411112D01*
X154099078Y-122411112D01*
X154099076Y-122411111D01*
X153975742Y-122353600D01*
X153897596Y-122317160D01*
X153897593Y-122317159D01*
X153897591Y-122317158D01*
X153682865Y-122259622D01*
X153682857Y-122259621D01*
X153461402Y-122240247D01*
X153461398Y-122240247D01*
X153239942Y-122259621D01*
X153239935Y-122259622D01*
X153025200Y-122317161D01*
X152823723Y-122411112D01*
X152823719Y-122411114D01*
X152641617Y-122538623D01*
X152484423Y-122695817D01*
X152356914Y-122877919D01*
X152356912Y-122877923D01*
X152262961Y-123079400D01*
X152205422Y-123294135D01*
X152205421Y-123294142D01*
X152186047Y-123515597D01*
X152186047Y-123515602D01*
X95010500Y-123515602D01*
X95010500Y-115315999D01*
X122438835Y-115315999D01*
X122457465Y-115552714D01*
X122512895Y-115783595D01*
X122512895Y-115783597D01*
X122603757Y-116002959D01*
X122603759Y-116002962D01*
X122727820Y-116205410D01*
X122727826Y-116205419D01*
X122813649Y-116305905D01*
X122842220Y-116369666D01*
X122831783Y-116438752D01*
X122785652Y-116491228D01*
X122775656Y-116496920D01*
X122713954Y-116528359D01*
X122713949Y-116528363D01*
X122624363Y-116617949D01*
X122624360Y-116617953D01*
X122566833Y-116730855D01*
X122552000Y-116824513D01*
X122552000Y-117656000D01*
X123318000Y-117656000D01*
X123385039Y-117675685D01*
X123430794Y-117728489D01*
X123442000Y-117780000D01*
X123442000Y-117932000D01*
X123422315Y-117999039D01*
X123369511Y-118044794D01*
X123318000Y-118056000D01*
X122552001Y-118056000D01*
X122552001Y-118887479D01*
X122566835Y-118981149D01*
X122566837Y-118981155D01*
X122624356Y-119094041D01*
X122624363Y-119094050D01*
X122713949Y-119183636D01*
X122713953Y-119183639D01*
X122826855Y-119241166D01*
X122920514Y-119255999D01*
X123751999Y-119255999D01*
X123752000Y-119255998D01*
X123752000Y-118485591D01*
X123771685Y-118418552D01*
X123824489Y-118372797D01*
X123893643Y-118362853D01*
X123915527Y-118366000D01*
X123915530Y-118366000D01*
X123988470Y-118366000D01*
X123988473Y-118366000D01*
X124010351Y-118362854D01*
X124079508Y-118372795D01*
X124132313Y-118418548D01*
X124152000Y-118485587D01*
X124152000Y-119255999D01*
X124983479Y-119255999D01*
X125077149Y-119241164D01*
X125077155Y-119241162D01*
X125190041Y-119183643D01*
X125190050Y-119183636D01*
X125279636Y-119094050D01*
X125279639Y-119094046D01*
X125337166Y-118981144D01*
X125352000Y-118887486D01*
X125352000Y-118056000D01*
X124586000Y-118056000D01*
X124518961Y-118036315D01*
X124473206Y-117983511D01*
X124462000Y-117932000D01*
X124462000Y-117855999D01*
X147838835Y-117855999D01*
X147857465Y-118092714D01*
X147912895Y-118323595D01*
X147912895Y-118323597D01*
X148003757Y-118542959D01*
X148003759Y-118542962D01*
X148127820Y-118745410D01*
X148127821Y-118745413D01*
X148127824Y-118745416D01*
X148282031Y-118925969D01*
X148421797Y-119045340D01*
X148462586Y-119080178D01*
X148462589Y-119080179D01*
X148665037Y-119204240D01*
X148665040Y-119204242D01*
X148884403Y-119295104D01*
X148884404Y-119295104D01*
X148884406Y-119295105D01*
X149115289Y-119350535D01*
X149352000Y-119369165D01*
X149588711Y-119350535D01*
X149819594Y-119295105D01*
X149819596Y-119295104D01*
X149819597Y-119295104D01*
X150038959Y-119204242D01*
X150038960Y-119204241D01*
X150038963Y-119204240D01*
X150241416Y-119080176D01*
X150421969Y-118925969D01*
X150576176Y-118745416D01*
X150700240Y-118542963D01*
X150751773Y-118418552D01*
X150791104Y-118323597D01*
X150791104Y-118323596D01*
X150791105Y-118323594D01*
X150846535Y-118092711D01*
X150865165Y-117856000D01*
X150846535Y-117619289D01*
X150791105Y-117388406D01*
X150791104Y-117388403D01*
X150791104Y-117388402D01*
X150700242Y-117169040D01*
X150700240Y-117169037D01*
X150576179Y-116966589D01*
X150576178Y-116966586D01*
X150541340Y-116925797D01*
X150421969Y-116786031D01*
X150298161Y-116680289D01*
X150259969Y-116621783D01*
X150259471Y-116551915D01*
X150296824Y-116492869D01*
X150298162Y-116491710D01*
X150421969Y-116385969D01*
X150576176Y-116205416D01*
X150700240Y-116002963D01*
X150734729Y-115919700D01*
X150791104Y-115783597D01*
X150791104Y-115783596D01*
X150791105Y-115783594D01*
X150846535Y-115552711D01*
X150865165Y-115316000D01*
X150846535Y-115079289D01*
X150791105Y-114848406D01*
X150791104Y-114848403D01*
X150791104Y-114848402D01*
X150700242Y-114629040D01*
X150700240Y-114629037D01*
X150576179Y-114426589D01*
X150576178Y-114426586D01*
X150421969Y-114246031D01*
X150298160Y-114140288D01*
X150259968Y-114081784D01*
X150259469Y-114011916D01*
X150296823Y-113952869D01*
X150298057Y-113951799D01*
X150421969Y-113845969D01*
X150576176Y-113665416D01*
X150700240Y-113462963D01*
X150791105Y-113243594D01*
X150846535Y-113012711D01*
X150865165Y-112776000D01*
X150846535Y-112539289D01*
X150791105Y-112308406D01*
X150791104Y-112308403D01*
X150791104Y-112308402D01*
X150700242Y-112089040D01*
X150700240Y-112089037D01*
X150576179Y-111886589D01*
X150576178Y-111886586D01*
X150541340Y-111845797D01*
X150421969Y-111706031D01*
X150298161Y-111600289D01*
X150259969Y-111541783D01*
X150259471Y-111471915D01*
X150296824Y-111412869D01*
X150298162Y-111411710D01*
X150421969Y-111305969D01*
X150576176Y-111125416D01*
X150700240Y-110922963D01*
X150707267Y-110906000D01*
X150791104Y-110703597D01*
X150791104Y-110703596D01*
X150791105Y-110703594D01*
X150846535Y-110472711D01*
X150865165Y-110236000D01*
X150846535Y-109999289D01*
X150791105Y-109768406D01*
X150791104Y-109768403D01*
X150791104Y-109768402D01*
X150700242Y-109549040D01*
X150700240Y-109549037D01*
X150576179Y-109346589D01*
X150576178Y-109346586D01*
X150421969Y-109166031D01*
X150298160Y-109060288D01*
X150259968Y-109001784D01*
X150259469Y-108931916D01*
X150296823Y-108872869D01*
X150298057Y-108871799D01*
X150421969Y-108765969D01*
X150576176Y-108585416D01*
X150700240Y-108382963D01*
X150718517Y-108338840D01*
X150791104Y-108163597D01*
X150791104Y-108163596D01*
X150791105Y-108163594D01*
X150846535Y-107932711D01*
X150865165Y-107696000D01*
X150846535Y-107459289D01*
X150791105Y-107228406D01*
X150791104Y-107228403D01*
X150791104Y-107228402D01*
X150700242Y-107009040D01*
X150700240Y-107009037D01*
X150576179Y-106806589D01*
X150576178Y-106806586D01*
X150541340Y-106765797D01*
X150421969Y-106626031D01*
X150298161Y-106520289D01*
X150259969Y-106461783D01*
X150259471Y-106391915D01*
X150296824Y-106332869D01*
X150298162Y-106331710D01*
X150421969Y-106225969D01*
X150576176Y-106045416D01*
X150700240Y-105842963D01*
X150706921Y-105826835D01*
X150791104Y-105623597D01*
X150791104Y-105623596D01*
X150791105Y-105623594D01*
X150846535Y-105392711D01*
X150865165Y-105156000D01*
X150846535Y-104919289D01*
X150791105Y-104688406D01*
X150791104Y-104688403D01*
X150791104Y-104688402D01*
X150700242Y-104469040D01*
X150700240Y-104469037D01*
X150576179Y-104266589D01*
X150576178Y-104266586D01*
X150482589Y-104157008D01*
X150421969Y-104086031D01*
X150298160Y-103980288D01*
X150259968Y-103921782D01*
X150259470Y-103851914D01*
X150296823Y-103792868D01*
X150297975Y-103791869D01*
X150421969Y-103685969D01*
X150576176Y-103505416D01*
X150700240Y-103302963D01*
X150791105Y-103083594D01*
X150846535Y-102852711D01*
X150865165Y-102616000D01*
X150846535Y-102379289D01*
X150791105Y-102148406D01*
X150791104Y-102148403D01*
X150791104Y-102148402D01*
X150700242Y-101929040D01*
X150700240Y-101929037D01*
X150576179Y-101726589D01*
X150576178Y-101726586D01*
X150541340Y-101685797D01*
X150421969Y-101546031D01*
X150298161Y-101440289D01*
X150259969Y-101381783D01*
X150259471Y-101311915D01*
X150296824Y-101252869D01*
X150298162Y-101251710D01*
X150421969Y-101145969D01*
X150576176Y-100965416D01*
X150700240Y-100762963D01*
X150706921Y-100746835D01*
X150791104Y-100543597D01*
X150791104Y-100543596D01*
X150791105Y-100543594D01*
X150846535Y-100312711D01*
X150865165Y-100076000D01*
X150846535Y-99839289D01*
X150791105Y-99608406D01*
X150791104Y-99608403D01*
X150791104Y-99608402D01*
X150700242Y-99389040D01*
X150700240Y-99389037D01*
X150576179Y-99186589D01*
X150576178Y-99186586D01*
X150421969Y-99006031D01*
X150354824Y-98948684D01*
X150298160Y-98900288D01*
X150259968Y-98841784D01*
X150259491Y-98775002D01*
X166934647Y-98775002D01*
X166954021Y-98996457D01*
X166954022Y-98996465D01*
X167011558Y-99211191D01*
X167011559Y-99211193D01*
X167011560Y-99211196D01*
X167058535Y-99311936D01*
X167105511Y-99412676D01*
X167129686Y-99447201D01*
X167233023Y-99594781D01*
X167390219Y-99751977D01*
X167572323Y-99879488D01*
X167773804Y-99973440D01*
X167988537Y-100030978D01*
X168146724Y-100044817D01*
X168209998Y-100050353D01*
X168210000Y-100050353D01*
X168210002Y-100050353D01*
X168271164Y-100045002D01*
X169474647Y-100045002D01*
X169494021Y-100266457D01*
X169494022Y-100266465D01*
X169551558Y-100481191D01*
X169551559Y-100481193D01*
X169551560Y-100481196D01*
X169578782Y-100539574D01*
X169645511Y-100682676D01*
X169645512Y-100682677D01*
X169773023Y-100864781D01*
X169930219Y-101021977D01*
X170112323Y-101149488D01*
X170313804Y-101243440D01*
X170528537Y-101300978D01*
X170686724Y-101314817D01*
X170749998Y-101320353D01*
X170750000Y-101320353D01*
X170750002Y-101320353D01*
X170805365Y-101315509D01*
X170811195Y-101314999D01*
X175459443Y-101314999D01*
X175479641Y-101571641D01*
X175539739Y-101821964D01*
X175638250Y-102059793D01*
X175638252Y-102059796D01*
X175772759Y-102279292D01*
X175772763Y-102279297D01*
X175848548Y-102368030D01*
X175939951Y-102475049D01*
X176019129Y-102542673D01*
X176135702Y-102642236D01*
X176135707Y-102642240D01*
X176355203Y-102776747D01*
X176355206Y-102776749D01*
X176538604Y-102852714D01*
X176593040Y-102875262D01*
X176843360Y-102935359D01*
X177100000Y-102955557D01*
X177356640Y-102935359D01*
X177606960Y-102875262D01*
X177750032Y-102816000D01*
X177844793Y-102776749D01*
X177844794Y-102776748D01*
X177844797Y-102776747D01*
X178064295Y-102642238D01*
X178260049Y-102475049D01*
X178427238Y-102279295D01*
X178561747Y-102059797D01*
X178660262Y-101821960D01*
X178720359Y-101571640D01*
X178740557Y-101315000D01*
X178720359Y-101058360D01*
X178660262Y-100808040D01*
X178621087Y-100713463D01*
X178561749Y-100570206D01*
X178561747Y-100570203D01*
X178427240Y-100350707D01*
X178427236Y-100350702D01*
X178358765Y-100270533D01*
X178260049Y-100154951D01*
X178131315Y-100045002D01*
X178064297Y-99987763D01*
X178064292Y-99987759D01*
X177844796Y-99853252D01*
X177844793Y-99853250D01*
X177606964Y-99754739D01*
X177356641Y-99694641D01*
X177100000Y-99674443D01*
X176843358Y-99694641D01*
X176593035Y-99754739D01*
X176355206Y-99853250D01*
X176355203Y-99853252D01*
X176135707Y-99987759D01*
X176135702Y-99987763D01*
X175939951Y-100154951D01*
X175772763Y-100350702D01*
X175772759Y-100350707D01*
X175638252Y-100570203D01*
X175638250Y-100570206D01*
X175539739Y-100808035D01*
X175479641Y-101058358D01*
X175459443Y-101314999D01*
X170811195Y-101314999D01*
X170971463Y-101300978D01*
X171186196Y-101243440D01*
X171387677Y-101149488D01*
X171569781Y-101021977D01*
X171726977Y-100864781D01*
X171854488Y-100682677D01*
X171948440Y-100481196D01*
X172005978Y-100266463D01*
X172025353Y-100045000D01*
X172005978Y-99823537D01*
X171948440Y-99608804D01*
X171854488Y-99407324D01*
X171854486Y-99407321D01*
X171854485Y-99407319D01*
X171726978Y-99225220D01*
X171688342Y-99186584D01*
X171569781Y-99068023D01*
X171387677Y-98940512D01*
X171273738Y-98887381D01*
X171221299Y-98841210D01*
X171202147Y-98774017D01*
X171222363Y-98707135D01*
X171273739Y-98662618D01*
X171387677Y-98609488D01*
X171569781Y-98481977D01*
X171726977Y-98324781D01*
X171854488Y-98142677D01*
X171948440Y-97941196D01*
X172005978Y-97726463D01*
X172025353Y-97505000D01*
X172005978Y-97283537D01*
X171948440Y-97068804D01*
X171854488Y-96867324D01*
X171854486Y-96867321D01*
X171854485Y-96867319D01*
X171726978Y-96685220D01*
X171688342Y-96646584D01*
X171569781Y-96528023D01*
X171387677Y-96400512D01*
X171273738Y-96347381D01*
X171221299Y-96301210D01*
X171202147Y-96234017D01*
X171222363Y-96167135D01*
X171273739Y-96122618D01*
X171387677Y-96069488D01*
X171569781Y-95941977D01*
X171726977Y-95784781D01*
X171854488Y-95602677D01*
X171948440Y-95401196D01*
X172005978Y-95186463D01*
X172025353Y-94965000D01*
X172005978Y-94743537D01*
X171948440Y-94528804D01*
X171854488Y-94327324D01*
X171854486Y-94327321D01*
X171854485Y-94327319D01*
X171726978Y-94145220D01*
X171688342Y-94106584D01*
X171569781Y-93988023D01*
X171387677Y-93860512D01*
X171273738Y-93807381D01*
X171221299Y-93761210D01*
X171202147Y-93694017D01*
X171222363Y-93627135D01*
X171273739Y-93582618D01*
X171387677Y-93529488D01*
X171569781Y-93401977D01*
X171726977Y-93244781D01*
X171854488Y-93062677D01*
X171948440Y-92861196D01*
X172005978Y-92646463D01*
X172025353Y-92425000D01*
X172005978Y-92203537D01*
X171948440Y-91988804D01*
X171854488Y-91787324D01*
X171854486Y-91787321D01*
X171854485Y-91787319D01*
X171726978Y-91605220D01*
X171657758Y-91536000D01*
X171569781Y-91448023D01*
X171406480Y-91333678D01*
X171387676Y-91320511D01*
X171286936Y-91273536D01*
X171186196Y-91226560D01*
X171186193Y-91226559D01*
X171186191Y-91226558D01*
X170971465Y-91169022D01*
X170971457Y-91169021D01*
X170750002Y-91149647D01*
X170749998Y-91149647D01*
X170528542Y-91169021D01*
X170528535Y-91169022D01*
X170313800Y-91226561D01*
X170112323Y-91320512D01*
X170112319Y-91320514D01*
X169930217Y-91448023D01*
X169773023Y-91605217D01*
X169645514Y-91787319D01*
X169645512Y-91787323D01*
X169551561Y-91988800D01*
X169494022Y-92203535D01*
X169494021Y-92203542D01*
X169474647Y-92424997D01*
X169474647Y-92425002D01*
X169494021Y-92646457D01*
X169494022Y-92646465D01*
X169551558Y-92861191D01*
X169551559Y-92861193D01*
X169551560Y-92861196D01*
X169580657Y-92923594D01*
X169645511Y-93062676D01*
X169645512Y-93062677D01*
X169773023Y-93244781D01*
X169930219Y-93401977D01*
X170107296Y-93525968D01*
X170112323Y-93529488D01*
X170226261Y-93582618D01*
X170278700Y-93628790D01*
X170297852Y-93695984D01*
X170277636Y-93762865D01*
X170226261Y-93807382D01*
X170112323Y-93860512D01*
X170112319Y-93860514D01*
X169930217Y-93988023D01*
X169773023Y-94145217D01*
X169645514Y-94327319D01*
X169645512Y-94327323D01*
X169551561Y-94528800D01*
X169494022Y-94743535D01*
X169494021Y-94743542D01*
X169474647Y-94964997D01*
X169474647Y-94965002D01*
X169494021Y-95186457D01*
X169494022Y-95186465D01*
X169551558Y-95401191D01*
X169551559Y-95401193D01*
X169551560Y-95401196D01*
X169580657Y-95463594D01*
X169645511Y-95602676D01*
X169645512Y-95602677D01*
X169773023Y-95784781D01*
X169930219Y-95941977D01*
X170107296Y-96065968D01*
X170112323Y-96069488D01*
X170226261Y-96122618D01*
X170278700Y-96168790D01*
X170297852Y-96235984D01*
X170277636Y-96302865D01*
X170226261Y-96347382D01*
X170112323Y-96400512D01*
X170112319Y-96400514D01*
X169930217Y-96528023D01*
X169773023Y-96685217D01*
X169645514Y-96867319D01*
X169645512Y-96867323D01*
X169551561Y-97068800D01*
X169494022Y-97283535D01*
X169494021Y-97283542D01*
X169474647Y-97504997D01*
X169474647Y-97505002D01*
X169494021Y-97726457D01*
X169494022Y-97726465D01*
X169551558Y-97941191D01*
X169551559Y-97941193D01*
X169551560Y-97941196D01*
X169580657Y-98003594D01*
X169645511Y-98142676D01*
X169645512Y-98142677D01*
X169773023Y-98324781D01*
X169930219Y-98481977D01*
X170107296Y-98605968D01*
X170112323Y-98609488D01*
X170226261Y-98662618D01*
X170278700Y-98708790D01*
X170297852Y-98775984D01*
X170277636Y-98842865D01*
X170226261Y-98887382D01*
X170112323Y-98940512D01*
X170112319Y-98940514D01*
X169930217Y-99068023D01*
X169773023Y-99225217D01*
X169645514Y-99407319D01*
X169645512Y-99407323D01*
X169551561Y-99608800D01*
X169494022Y-99823535D01*
X169494021Y-99823542D01*
X169474647Y-100044997D01*
X169474647Y-100045002D01*
X168271164Y-100045002D01*
X168431463Y-100030978D01*
X168646196Y-99973440D01*
X168847677Y-99879488D01*
X169029781Y-99751977D01*
X169186977Y-99594781D01*
X169314488Y-99412677D01*
X169408440Y-99211196D01*
X169465978Y-98996463D01*
X169485353Y-98775000D01*
X169465978Y-98553537D01*
X169408440Y-98338804D01*
X169314488Y-98137324D01*
X169314486Y-98137321D01*
X169314485Y-98137319D01*
X169186978Y-97955220D01*
X169172949Y-97941191D01*
X169029781Y-97798023D01*
X168847677Y-97670512D01*
X168733738Y-97617381D01*
X168681299Y-97571210D01*
X168662147Y-97504017D01*
X168682363Y-97437135D01*
X168733739Y-97392618D01*
X168847677Y-97339488D01*
X169029781Y-97211977D01*
X169186977Y-97054781D01*
X169314488Y-96872677D01*
X169408440Y-96671196D01*
X169465978Y-96456463D01*
X169485353Y-96235000D01*
X169465978Y-96013537D01*
X169408440Y-95798804D01*
X169314488Y-95597324D01*
X169314486Y-95597321D01*
X169314485Y-95597319D01*
X169186978Y-95415220D01*
X169172949Y-95401191D01*
X169029781Y-95258023D01*
X168847677Y-95130512D01*
X168733738Y-95077381D01*
X168681299Y-95031210D01*
X168662147Y-94964017D01*
X168682363Y-94897135D01*
X168733739Y-94852618D01*
X168847677Y-94799488D01*
X169029781Y-94671977D01*
X169186977Y-94514781D01*
X169314488Y-94332677D01*
X169408440Y-94131196D01*
X169465978Y-93916463D01*
X169485353Y-93695000D01*
X169465978Y-93473537D01*
X169408440Y-93258804D01*
X169314488Y-93057324D01*
X169314486Y-93057321D01*
X169314485Y-93057319D01*
X169186978Y-92875220D01*
X169172949Y-92861191D01*
X169029781Y-92718023D01*
X168847677Y-92590512D01*
X168847678Y-92590512D01*
X168847676Y-92590511D01*
X168733739Y-92537382D01*
X168646196Y-92496560D01*
X168646192Y-92496558D01*
X168646185Y-92496556D01*
X168609463Y-92486716D01*
X168549803Y-92450350D01*
X168519275Y-92387503D01*
X168527572Y-92318127D01*
X168572058Y-92264250D01*
X168596766Y-92251315D01*
X168730163Y-92199637D01*
X168730170Y-92199634D01*
X168879393Y-92107237D01*
X168879393Y-92107236D01*
X168425157Y-91653000D01*
X168391672Y-91591677D01*
X168396656Y-91521985D01*
X168438528Y-91466052D01*
X168442554Y-91463475D01*
X168447248Y-91459821D01*
X168447251Y-91459820D01*
X168460655Y-91445260D01*
X168527682Y-91372449D01*
X168587569Y-91336458D01*
X168657407Y-91338557D01*
X168706593Y-91368750D01*
X169161306Y-91823463D01*
X169202186Y-91769331D01*
X169202188Y-91769329D01*
X169298173Y-91576564D01*
X169357108Y-91369427D01*
X169376978Y-91155000D01*
X169376978Y-91154999D01*
X169357108Y-90940572D01*
X169298173Y-90733435D01*
X169202188Y-90540670D01*
X169202183Y-90540662D01*
X169161306Y-90486535D01*
X168705007Y-90942834D01*
X168643684Y-90976319D01*
X168573992Y-90971335D01*
X168518059Y-90929463D01*
X168513518Y-90922976D01*
X168494187Y-90893388D01*
X168494186Y-90893387D01*
X168433249Y-90845958D01*
X168392436Y-90789248D01*
X168388762Y-90719475D01*
X168421731Y-90660424D01*
X168879394Y-90202762D01*
X168730167Y-90110364D01*
X168730166Y-90110363D01*
X168529361Y-90032572D01*
X168317673Y-89993000D01*
X168102327Y-89993000D01*
X167890638Y-90032572D01*
X167689835Y-90110362D01*
X167689834Y-90110363D01*
X167540604Y-90202762D01*
X167994842Y-90656999D01*
X168028327Y-90718322D01*
X168023343Y-90788013D01*
X167981472Y-90843947D01*
X167977445Y-90846524D01*
X167972744Y-90850182D01*
X167892316Y-90937551D01*
X167832429Y-90973542D01*
X167762591Y-90971441D01*
X167713406Y-90941249D01*
X167258692Y-90486534D01*
X167217815Y-90540664D01*
X167121826Y-90733435D01*
X167062891Y-90940572D01*
X167043022Y-91154999D01*
X167043022Y-91155000D01*
X167062891Y-91369427D01*
X167121826Y-91576564D01*
X167217811Y-91769329D01*
X167217816Y-91769337D01*
X167258691Y-91823463D01*
X167714992Y-91367163D01*
X167776315Y-91333678D01*
X167846006Y-91338662D01*
X167901940Y-91380533D01*
X167906476Y-91387014D01*
X167925813Y-91416612D01*
X167925816Y-91416614D01*
X167986748Y-91464040D01*
X168027561Y-91520750D01*
X168031236Y-91590523D01*
X167998267Y-91649574D01*
X167540604Y-92107236D01*
X167689832Y-92199635D01*
X167689836Y-92199637D01*
X167823235Y-92251316D01*
X167878637Y-92293889D01*
X167902228Y-92359656D01*
X167886517Y-92427736D01*
X167836493Y-92476515D01*
X167810537Y-92486717D01*
X167773804Y-92496559D01*
X167572323Y-92590512D01*
X167572319Y-92590514D01*
X167390217Y-92718023D01*
X167233023Y-92875217D01*
X167105514Y-93057319D01*
X167105512Y-93057323D01*
X167011561Y-93258800D01*
X166954022Y-93473535D01*
X166954021Y-93473542D01*
X166934647Y-93694997D01*
X166934647Y-93695002D01*
X166954021Y-93916457D01*
X166954022Y-93916465D01*
X167011558Y-94131191D01*
X167011559Y-94131193D01*
X167011560Y-94131196D01*
X167058536Y-94231936D01*
X167105511Y-94332676D01*
X167105512Y-94332677D01*
X167233023Y-94514781D01*
X167390219Y-94671977D01*
X167572323Y-94799488D01*
X167686261Y-94852618D01*
X167738700Y-94898790D01*
X167757852Y-94965984D01*
X167737636Y-95032865D01*
X167686261Y-95077382D01*
X167572323Y-95130512D01*
X167572319Y-95130514D01*
X167390217Y-95258023D01*
X167233023Y-95415217D01*
X167105514Y-95597319D01*
X167105512Y-95597323D01*
X167011561Y-95798800D01*
X166954022Y-96013535D01*
X166954021Y-96013542D01*
X166934647Y-96234997D01*
X166934647Y-96235002D01*
X166954021Y-96456457D01*
X166954022Y-96456465D01*
X167011558Y-96671191D01*
X167011559Y-96671193D01*
X167011560Y-96671196D01*
X167058536Y-96771936D01*
X167105511Y-96872676D01*
X167105512Y-96872677D01*
X167233023Y-97054781D01*
X167390219Y-97211977D01*
X167572323Y-97339488D01*
X167686261Y-97392618D01*
X167738700Y-97438790D01*
X167757852Y-97505984D01*
X167737636Y-97572865D01*
X167686261Y-97617382D01*
X167572323Y-97670512D01*
X167572319Y-97670514D01*
X167390217Y-97798023D01*
X167233023Y-97955217D01*
X167105514Y-98137319D01*
X167105512Y-98137323D01*
X167011561Y-98338800D01*
X166954022Y-98553535D01*
X166954021Y-98553542D01*
X166934647Y-98774997D01*
X166934647Y-98775002D01*
X150259491Y-98775002D01*
X150259469Y-98771916D01*
X150296823Y-98712869D01*
X150298057Y-98711799D01*
X150421969Y-98605969D01*
X150576176Y-98425416D01*
X150700240Y-98222963D01*
X150733496Y-98142677D01*
X150791104Y-98003597D01*
X150791104Y-98003596D01*
X150791105Y-98003594D01*
X150846535Y-97772711D01*
X150865165Y-97536000D01*
X150846535Y-97299289D01*
X150791105Y-97068406D01*
X150791104Y-97068403D01*
X150791104Y-97068402D01*
X150700242Y-96849040D01*
X150700240Y-96849037D01*
X150576179Y-96646589D01*
X150576178Y-96646586D01*
X150474915Y-96528023D01*
X150421969Y-96466031D01*
X150298161Y-96360289D01*
X150259969Y-96301783D01*
X150259471Y-96231915D01*
X150296824Y-96172869D01*
X150298162Y-96171710D01*
X150421969Y-96065969D01*
X150576176Y-95885416D01*
X150700240Y-95682963D01*
X150733496Y-95602677D01*
X150791104Y-95463597D01*
X150791104Y-95463596D01*
X150791105Y-95463594D01*
X150846535Y-95232711D01*
X150865165Y-94996000D01*
X150846535Y-94759289D01*
X150791105Y-94528406D01*
X150791104Y-94528403D01*
X150791104Y-94528402D01*
X150700242Y-94309040D01*
X150700240Y-94309037D01*
X150576179Y-94106589D01*
X150576178Y-94106586D01*
X150421969Y-93926031D01*
X150410759Y-93916457D01*
X150298160Y-93820288D01*
X150259968Y-93761784D01*
X150259469Y-93691916D01*
X150296823Y-93632869D01*
X150298057Y-93631799D01*
X150421969Y-93525969D01*
X150576176Y-93345416D01*
X150700240Y-93142963D01*
X150733496Y-93062677D01*
X150791104Y-92923597D01*
X150791104Y-92923596D01*
X150791105Y-92923594D01*
X150846535Y-92692711D01*
X150865165Y-92456000D01*
X150846535Y-92219289D01*
X150791105Y-91988406D01*
X150791104Y-91988403D01*
X150791104Y-91988402D01*
X150700242Y-91769040D01*
X150700240Y-91769037D01*
X150576179Y-91566589D01*
X150576178Y-91566586D01*
X150421969Y-91386031D01*
X150410759Y-91376457D01*
X150298160Y-91280288D01*
X150259968Y-91221784D01*
X150259469Y-91151916D01*
X150296823Y-91092869D01*
X150298057Y-91091799D01*
X150421969Y-90985969D01*
X150576176Y-90805416D01*
X150700240Y-90602963D01*
X150726043Y-90540670D01*
X150791104Y-90383597D01*
X150791104Y-90383596D01*
X150791105Y-90383594D01*
X150846535Y-90152711D01*
X150865165Y-89916000D01*
X150846535Y-89679289D01*
X150791105Y-89448406D01*
X150791104Y-89448403D01*
X150791104Y-89448402D01*
X150700242Y-89229040D01*
X150700240Y-89229037D01*
X150576179Y-89026589D01*
X150576178Y-89026586D01*
X150541340Y-88985797D01*
X150421969Y-88846031D01*
X150298160Y-88740288D01*
X150259968Y-88681782D01*
X150259470Y-88611914D01*
X150296823Y-88552868D01*
X150297975Y-88551869D01*
X150421969Y-88445969D01*
X150576176Y-88265416D01*
X150700240Y-88062963D01*
X150739934Y-87967134D01*
X150791104Y-87843597D01*
X150791104Y-87843596D01*
X150791105Y-87843594D01*
X150846535Y-87612711D01*
X150865165Y-87376000D01*
X150846535Y-87139289D01*
X150791105Y-86908406D01*
X150791104Y-86908403D01*
X150791104Y-86908402D01*
X150700242Y-86689040D01*
X150700240Y-86689037D01*
X150616181Y-86551866D01*
X150576178Y-86486588D01*
X150576178Y-86486586D01*
X150541340Y-86445797D01*
X150421969Y-86306031D01*
X150296805Y-86199131D01*
X150241413Y-86151821D01*
X150241410Y-86151820D01*
X150038962Y-86027759D01*
X150038959Y-86027757D01*
X149819596Y-85936895D01*
X149588714Y-85881465D01*
X149411177Y-85867492D01*
X149352000Y-85862835D01*
X149351999Y-85862835D01*
X149115285Y-85881465D01*
X148884404Y-85936895D01*
X148884402Y-85936895D01*
X148665040Y-86027757D01*
X148665037Y-86027759D01*
X148462589Y-86151820D01*
X148462586Y-86151821D01*
X148282031Y-86306031D01*
X148127821Y-86486586D01*
X148127820Y-86486589D01*
X148003759Y-86689037D01*
X148003757Y-86689040D01*
X147912895Y-86908402D01*
X147912895Y-86908404D01*
X147857465Y-87139285D01*
X147838835Y-87375999D01*
X147857465Y-87612714D01*
X147912895Y-87843595D01*
X147912895Y-87843597D01*
X148003757Y-88062959D01*
X148003759Y-88062962D01*
X148127820Y-88265410D01*
X148127821Y-88265413D01*
X148178490Y-88324738D01*
X148282031Y-88445969D01*
X148405838Y-88551710D01*
X148444031Y-88610217D01*
X148444529Y-88680085D01*
X148407176Y-88739131D01*
X148405861Y-88740269D01*
X148349363Y-88788524D01*
X148282031Y-88846031D01*
X148127821Y-89026586D01*
X148127820Y-89026589D01*
X148003759Y-89229037D01*
X148003757Y-89229040D01*
X147912895Y-89448402D01*
X147912895Y-89448404D01*
X147857465Y-89679285D01*
X147838835Y-89916000D01*
X147857465Y-90152714D01*
X147912895Y-90383595D01*
X147912895Y-90383597D01*
X148003757Y-90602959D01*
X148003759Y-90602962D01*
X148127820Y-90805410D01*
X148127821Y-90805413D01*
X148165298Y-90849292D01*
X148282031Y-90985969D01*
X148405838Y-91091710D01*
X148444031Y-91150217D01*
X148444529Y-91220085D01*
X148407176Y-91279131D01*
X148405861Y-91280269D01*
X148293241Y-91376457D01*
X148282031Y-91386031D01*
X148127821Y-91566586D01*
X148127820Y-91566589D01*
X148003759Y-91769037D01*
X148003757Y-91769040D01*
X147912895Y-91988402D01*
X147912895Y-91988404D01*
X147857465Y-92219285D01*
X147838835Y-92456000D01*
X147857465Y-92692714D01*
X147912895Y-92923595D01*
X147912895Y-92923597D01*
X148003757Y-93142959D01*
X148003759Y-93142962D01*
X148127820Y-93345410D01*
X148127821Y-93345413D01*
X148127824Y-93345416D01*
X148282031Y-93525969D01*
X148405838Y-93631710D01*
X148444031Y-93690217D01*
X148444529Y-93760085D01*
X148407176Y-93819131D01*
X148405861Y-93820269D01*
X148293241Y-93916457D01*
X148282031Y-93926031D01*
X148127821Y-94106586D01*
X148127820Y-94106589D01*
X148003759Y-94309037D01*
X148003757Y-94309040D01*
X147912895Y-94528402D01*
X147912895Y-94528404D01*
X147857465Y-94759285D01*
X147838835Y-94995999D01*
X147857465Y-95232714D01*
X147912895Y-95463595D01*
X147912895Y-95463597D01*
X148003757Y-95682959D01*
X148003759Y-95682962D01*
X148127820Y-95885410D01*
X148127821Y-95885413D01*
X148127824Y-95885416D01*
X148282031Y-96065969D01*
X148405838Y-96171710D01*
X148444031Y-96230217D01*
X148444529Y-96300085D01*
X148407176Y-96359131D01*
X148405861Y-96360269D01*
X148293241Y-96456457D01*
X148282031Y-96466031D01*
X148127821Y-96646586D01*
X148127820Y-96646589D01*
X148003759Y-96849037D01*
X148003757Y-96849040D01*
X147912895Y-97068402D01*
X147912895Y-97068404D01*
X147857465Y-97299285D01*
X147838835Y-97536000D01*
X147857465Y-97772714D01*
X147912895Y-98003595D01*
X147912895Y-98003597D01*
X148003757Y-98222959D01*
X148003759Y-98222962D01*
X148127820Y-98425410D01*
X148127821Y-98425413D01*
X148127824Y-98425416D01*
X148282031Y-98605969D01*
X148405838Y-98711710D01*
X148444031Y-98770217D01*
X148444529Y-98840085D01*
X148407176Y-98899131D01*
X148405861Y-98900269D01*
X148349176Y-98948684D01*
X148282031Y-99006031D01*
X148127821Y-99186586D01*
X148127820Y-99186589D01*
X148003759Y-99389037D01*
X148003757Y-99389040D01*
X147912895Y-99608402D01*
X147912895Y-99608404D01*
X147857465Y-99839285D01*
X147838835Y-100075999D01*
X147857465Y-100312714D01*
X147912895Y-100543595D01*
X147912895Y-100543597D01*
X148003757Y-100762959D01*
X148003759Y-100762962D01*
X148127820Y-100965410D01*
X148127821Y-100965413D01*
X148155001Y-100997236D01*
X148282031Y-101145969D01*
X148405838Y-101251710D01*
X148444031Y-101310217D01*
X148444529Y-101380085D01*
X148407176Y-101439131D01*
X148405838Y-101440290D01*
X148282031Y-101546031D01*
X148127821Y-101726586D01*
X148127820Y-101726589D01*
X148003759Y-101929037D01*
X148003757Y-101929040D01*
X147912895Y-102148402D01*
X147912895Y-102148404D01*
X147857465Y-102379285D01*
X147838835Y-102616000D01*
X147857465Y-102852714D01*
X147912895Y-103083595D01*
X147912895Y-103083597D01*
X148003757Y-103302959D01*
X148003759Y-103302962D01*
X148127820Y-103505410D01*
X148127821Y-103505413D01*
X148127824Y-103505416D01*
X148282031Y-103685969D01*
X148405838Y-103791710D01*
X148444031Y-103850217D01*
X148444529Y-103920085D01*
X148407176Y-103979131D01*
X148405861Y-103980269D01*
X148355770Y-104023052D01*
X148282031Y-104086031D01*
X148127821Y-104266586D01*
X148127820Y-104266589D01*
X148003759Y-104469037D01*
X148003757Y-104469040D01*
X147912895Y-104688402D01*
X147912895Y-104688404D01*
X147857465Y-104919285D01*
X147838835Y-105156000D01*
X147857465Y-105392714D01*
X147912895Y-105623595D01*
X147912895Y-105623597D01*
X148003757Y-105842959D01*
X148003759Y-105842962D01*
X148127820Y-106045410D01*
X148127821Y-106045413D01*
X148127824Y-106045416D01*
X148282031Y-106225969D01*
X148405838Y-106331710D01*
X148444031Y-106390217D01*
X148444529Y-106460085D01*
X148407176Y-106519131D01*
X148405861Y-106520269D01*
X148282031Y-106626031D01*
X148127821Y-106806586D01*
X148127820Y-106806589D01*
X148003759Y-107009037D01*
X148003757Y-107009040D01*
X147912895Y-107228402D01*
X147912895Y-107228404D01*
X147857465Y-107459285D01*
X147838835Y-107695999D01*
X147857465Y-107932714D01*
X147912895Y-108163595D01*
X147912895Y-108163597D01*
X148003757Y-108382959D01*
X148003759Y-108382962D01*
X148127820Y-108585410D01*
X148127821Y-108585413D01*
X148127824Y-108585416D01*
X148282031Y-108765969D01*
X148405838Y-108871710D01*
X148444031Y-108930217D01*
X148444529Y-109000085D01*
X148407176Y-109059131D01*
X148405861Y-109060269D01*
X148282031Y-109166031D01*
X148127821Y-109346586D01*
X148127820Y-109346589D01*
X148003759Y-109549037D01*
X148003757Y-109549040D01*
X147912895Y-109768402D01*
X147912895Y-109768404D01*
X147857465Y-109999285D01*
X147838835Y-110236000D01*
X147857465Y-110472714D01*
X147912895Y-110703595D01*
X147912895Y-110703597D01*
X148003757Y-110922959D01*
X148003759Y-110922962D01*
X148127820Y-111125410D01*
X148127821Y-111125413D01*
X148180076Y-111186596D01*
X148282031Y-111305969D01*
X148405838Y-111411710D01*
X148444031Y-111470217D01*
X148444529Y-111540085D01*
X148407176Y-111599131D01*
X148405838Y-111600290D01*
X148282031Y-111706031D01*
X148127821Y-111886586D01*
X148127820Y-111886589D01*
X148003759Y-112089037D01*
X148003757Y-112089040D01*
X147912895Y-112308402D01*
X147912895Y-112308404D01*
X147857465Y-112539285D01*
X147838835Y-112775999D01*
X147857465Y-113012714D01*
X147912895Y-113243595D01*
X147912895Y-113243597D01*
X148003757Y-113462959D01*
X148003759Y-113462962D01*
X148127820Y-113665410D01*
X148127821Y-113665413D01*
X148127824Y-113665416D01*
X148282031Y-113845969D01*
X148405838Y-113951710D01*
X148444031Y-114010217D01*
X148444529Y-114080085D01*
X148407176Y-114139131D01*
X148405861Y-114140269D01*
X148403360Y-114142406D01*
X148282031Y-114246031D01*
X148127821Y-114426586D01*
X148127820Y-114426589D01*
X148003759Y-114629037D01*
X148003757Y-114629040D01*
X147912895Y-114848402D01*
X147912895Y-114848404D01*
X147857465Y-115079285D01*
X147838835Y-115316000D01*
X147857465Y-115552714D01*
X147912895Y-115783595D01*
X147912895Y-115783597D01*
X148003757Y-116002959D01*
X148003759Y-116002962D01*
X148127820Y-116205410D01*
X148127821Y-116205413D01*
X148180076Y-116266596D01*
X148282031Y-116385969D01*
X148405838Y-116491710D01*
X148444031Y-116550217D01*
X148444529Y-116620085D01*
X148407176Y-116679131D01*
X148405838Y-116680290D01*
X148282031Y-116786031D01*
X148127821Y-116966586D01*
X148127820Y-116966589D01*
X148003759Y-117169037D01*
X148003757Y-117169040D01*
X147912895Y-117388402D01*
X147912895Y-117388404D01*
X147857465Y-117619285D01*
X147838835Y-117855999D01*
X124462000Y-117855999D01*
X124462000Y-117780000D01*
X124481685Y-117712961D01*
X124534489Y-117667206D01*
X124586000Y-117656000D01*
X125351999Y-117656000D01*
X125351999Y-116824520D01*
X125337164Y-116730850D01*
X125337162Y-116730844D01*
X125279643Y-116617958D01*
X125279636Y-116617949D01*
X125190050Y-116528363D01*
X125190045Y-116528360D01*
X125128344Y-116496921D01*
X125077548Y-116448946D01*
X125060753Y-116381125D01*
X125083291Y-116314990D01*
X125090328Y-116305930D01*
X125176176Y-116205416D01*
X125300240Y-116002963D01*
X125334729Y-115919700D01*
X125391104Y-115783597D01*
X125391104Y-115783596D01*
X125391105Y-115783594D01*
X125446535Y-115552711D01*
X125465165Y-115316000D01*
X125446535Y-115079289D01*
X125391105Y-114848406D01*
X125391104Y-114848403D01*
X125391104Y-114848402D01*
X125300242Y-114629040D01*
X125300240Y-114629037D01*
X125176179Y-114426589D01*
X125176178Y-114426586D01*
X125021969Y-114246031D01*
X125021968Y-114246031D01*
X124898160Y-114140288D01*
X124859968Y-114081784D01*
X124859469Y-114011916D01*
X124896823Y-113952869D01*
X124898057Y-113951799D01*
X125021969Y-113845969D01*
X125176176Y-113665416D01*
X125300240Y-113462963D01*
X125391105Y-113243594D01*
X125446535Y-113012711D01*
X125465165Y-112776000D01*
X125446535Y-112539289D01*
X125391105Y-112308406D01*
X125391104Y-112308403D01*
X125391104Y-112308402D01*
X125300242Y-112089040D01*
X125300240Y-112089037D01*
X125176179Y-111886589D01*
X125176178Y-111886586D01*
X125141340Y-111845797D01*
X125021969Y-111706031D01*
X124898161Y-111600289D01*
X124859969Y-111541783D01*
X124859471Y-111471915D01*
X124896824Y-111412869D01*
X124898162Y-111411710D01*
X125021969Y-111305969D01*
X125176176Y-111125416D01*
X125300240Y-110922963D01*
X125307267Y-110906000D01*
X125391104Y-110703597D01*
X125391104Y-110703596D01*
X125391105Y-110703594D01*
X125446535Y-110472711D01*
X125465165Y-110236000D01*
X125446535Y-109999289D01*
X125391105Y-109768406D01*
X125391104Y-109768403D01*
X125391104Y-109768402D01*
X125300242Y-109549040D01*
X125300240Y-109549037D01*
X125176179Y-109346589D01*
X125176178Y-109346586D01*
X125021969Y-109166031D01*
X125021969Y-109166030D01*
X124898160Y-109060288D01*
X124859968Y-109001784D01*
X124859469Y-108931916D01*
X124896823Y-108872869D01*
X124898057Y-108871799D01*
X125021969Y-108765969D01*
X125176176Y-108585416D01*
X125300240Y-108382963D01*
X125318517Y-108338840D01*
X125391104Y-108163597D01*
X125391104Y-108163596D01*
X125391105Y-108163594D01*
X125446535Y-107932711D01*
X125465165Y-107696000D01*
X125446535Y-107459289D01*
X125391105Y-107228406D01*
X125391104Y-107228403D01*
X125391104Y-107228402D01*
X125300242Y-107009040D01*
X125300240Y-107009037D01*
X125176179Y-106806589D01*
X125176178Y-106806586D01*
X125021969Y-106626031D01*
X124898160Y-106520288D01*
X124859968Y-106461784D01*
X124859469Y-106391916D01*
X124896823Y-106332869D01*
X124898057Y-106331799D01*
X125021969Y-106225969D01*
X125176176Y-106045416D01*
X125221825Y-105970923D01*
X125281399Y-105873710D01*
X125333211Y-105826835D01*
X125387126Y-105814500D01*
X125609078Y-105814500D01*
X125676117Y-105834185D01*
X125696759Y-105850818D01*
X128184782Y-108338842D01*
X128218266Y-108400163D01*
X128221100Y-108426521D01*
X128221100Y-110628020D01*
X128219318Y-110644157D01*
X128219546Y-110644179D01*
X128218811Y-110651945D01*
X128221100Y-110724753D01*
X128221100Y-110755845D01*
X128222033Y-110763240D01*
X128222491Y-110769058D01*
X128224037Y-110818240D01*
X128224038Y-110818243D01*
X128230064Y-110838988D01*
X128234007Y-110858029D01*
X128236716Y-110879464D01*
X128236717Y-110879468D01*
X128236718Y-110879475D01*
X128247219Y-110905998D01*
X128254834Y-110925233D01*
X128256725Y-110930759D01*
X128270454Y-110978009D01*
X128281450Y-110996602D01*
X128290010Y-111014076D01*
X128297963Y-111034165D01*
X128326889Y-111073976D01*
X128330090Y-111078848D01*
X128355147Y-111121218D01*
X128355151Y-111121222D01*
X128370421Y-111136492D01*
X128383059Y-111151288D01*
X128395759Y-111168768D01*
X128395763Y-111168772D01*
X128433678Y-111200138D01*
X128437989Y-111204060D01*
X130696889Y-113462959D01*
X132606057Y-115372127D01*
X132625763Y-115397808D01*
X132712558Y-115548142D01*
X132712560Y-115548144D01*
X132840347Y-115690066D01*
X132994848Y-115802318D01*
X133169312Y-115879994D01*
X133356113Y-115919700D01*
X133547087Y-115919700D01*
X133733888Y-115879994D01*
X133908352Y-115802318D01*
X134062853Y-115690066D01*
X134190640Y-115548144D01*
X134286127Y-115382756D01*
X134345142Y-115201128D01*
X134365104Y-115011200D01*
X134345142Y-114821272D01*
X134286127Y-114639644D01*
X134190640Y-114474256D01*
X134062853Y-114332334D01*
X133908352Y-114220082D01*
X133733888Y-114142406D01*
X133733886Y-114142405D01*
X133547087Y-114102700D01*
X133356113Y-114102700D01*
X133292515Y-114116217D01*
X133222850Y-114110901D01*
X133179056Y-114082608D01*
X129574419Y-110477970D01*
X129540934Y-110416647D01*
X129538100Y-110390289D01*
X129538100Y-109346584D01*
X129538100Y-108188781D01*
X129539883Y-108172648D01*
X129539655Y-108172627D01*
X129540387Y-108164869D01*
X129540389Y-108164863D01*
X129538100Y-108092039D01*
X129538100Y-108060968D01*
X129537164Y-108053566D01*
X129536707Y-108047753D01*
X129535162Y-107998569D01*
X129529135Y-107977826D01*
X129525190Y-107958777D01*
X129522482Y-107937336D01*
X129504363Y-107891572D01*
X129502472Y-107886048D01*
X129500844Y-107880448D01*
X129488745Y-107838800D01*
X129477749Y-107820208D01*
X129469189Y-107802735D01*
X129461235Y-107782644D01*
X129432311Y-107742834D01*
X129429102Y-107737949D01*
X129417579Y-107718465D01*
X129404053Y-107695593D01*
X129404049Y-107695589D01*
X129404046Y-107695585D01*
X129388775Y-107680314D01*
X129376137Y-107665518D01*
X129363439Y-107648040D01*
X129325521Y-107616672D01*
X129321198Y-107612738D01*
X126459917Y-104751457D01*
X126449764Y-104738785D01*
X126449588Y-104738931D01*
X126444619Y-104732926D01*
X126444616Y-104732920D01*
X126418954Y-104708822D01*
X126391515Y-104683054D01*
X126369533Y-104661072D01*
X126363639Y-104656501D01*
X126359202Y-104652711D01*
X126323333Y-104619028D01*
X126323331Y-104619026D01*
X126304400Y-104608619D01*
X126288148Y-104597944D01*
X126271068Y-104584696D01*
X126271064Y-104584694D01*
X126225902Y-104565150D01*
X126220655Y-104562580D01*
X126177537Y-104538875D01*
X126177538Y-104538875D01*
X126156611Y-104533502D01*
X126138206Y-104527201D01*
X126118374Y-104518619D01*
X126069769Y-104510921D01*
X126064047Y-104509736D01*
X126030388Y-104501094D01*
X126016388Y-104497500D01*
X126016387Y-104497500D01*
X125994781Y-104497500D01*
X125975383Y-104495973D01*
X125966803Y-104494614D01*
X125954049Y-104492594D01*
X125954048Y-104492594D01*
X125905055Y-104497225D01*
X125899219Y-104497500D01*
X125387126Y-104497500D01*
X125320087Y-104477815D01*
X125281399Y-104438290D01*
X125176179Y-104266589D01*
X125176178Y-104266586D01*
X125090350Y-104166095D01*
X125061779Y-104102333D01*
X125072216Y-104033247D01*
X125118347Y-103980772D01*
X125128345Y-103975078D01*
X125190046Y-103943639D01*
X125190050Y-103943636D01*
X125279636Y-103854050D01*
X125279639Y-103854046D01*
X125337166Y-103741144D01*
X125352000Y-103647486D01*
X125352000Y-102816000D01*
X124586000Y-102816000D01*
X124518961Y-102796315D01*
X124473206Y-102743511D01*
X124462000Y-102692000D01*
X124462000Y-102540000D01*
X124481685Y-102472961D01*
X124534489Y-102427206D01*
X124586000Y-102416000D01*
X125351999Y-102416000D01*
X125351999Y-101584520D01*
X125337164Y-101490850D01*
X125337162Y-101490844D01*
X125279643Y-101377958D01*
X125279636Y-101377949D01*
X125190050Y-101288363D01*
X125190045Y-101288360D01*
X125128344Y-101256921D01*
X125077548Y-101208946D01*
X125060753Y-101141125D01*
X125083291Y-101074990D01*
X125090328Y-101065930D01*
X125176176Y-100965416D01*
X125237846Y-100864781D01*
X125281399Y-100793710D01*
X125333211Y-100746835D01*
X125387126Y-100734500D01*
X127082278Y-100734500D01*
X127149317Y-100754185D01*
X127169959Y-100770819D01*
X132045581Y-105646441D01*
X132079066Y-105707764D01*
X132081900Y-105734122D01*
X132081899Y-110556009D01*
X132080119Y-110572146D01*
X132080346Y-110572168D01*
X132079611Y-110579934D01*
X132081900Y-110652742D01*
X132081900Y-110683834D01*
X132082833Y-110691229D01*
X132083291Y-110697047D01*
X132084837Y-110746229D01*
X132084838Y-110746232D01*
X132090864Y-110766977D01*
X132094807Y-110786018D01*
X132097516Y-110807453D01*
X132097517Y-110807457D01*
X132097518Y-110807464D01*
X132101786Y-110818243D01*
X132115634Y-110853222D01*
X132117525Y-110858748D01*
X132131254Y-110905998D01*
X132131255Y-110906000D01*
X132141286Y-110922962D01*
X132142250Y-110924591D01*
X132150810Y-110942065D01*
X132158763Y-110962154D01*
X132187689Y-111001965D01*
X132190890Y-111006837D01*
X132215947Y-111049207D01*
X132215951Y-111049211D01*
X132231221Y-111064481D01*
X132243858Y-111079276D01*
X132256559Y-111096757D01*
X132291202Y-111125416D01*
X132294472Y-111128121D01*
X132298783Y-111132043D01*
X134179451Y-113012711D01*
X135811131Y-114644391D01*
X135844616Y-114705714D01*
X135846771Y-114719110D01*
X135860058Y-114845529D01*
X135860059Y-114845532D01*
X135919070Y-115027149D01*
X135919073Y-115027156D01*
X136014560Y-115192544D01*
X136142347Y-115334466D01*
X136296848Y-115446718D01*
X136471312Y-115524394D01*
X136658113Y-115564100D01*
X136849087Y-115564100D01*
X137035888Y-115524394D01*
X137210352Y-115446718D01*
X137364853Y-115334466D01*
X137492640Y-115192544D01*
X137588127Y-115027156D01*
X137647142Y-114845528D01*
X137667104Y-114655600D01*
X137647142Y-114465672D01*
X137588127Y-114284044D01*
X137492640Y-114118656D01*
X137364853Y-113976734D01*
X137210352Y-113864482D01*
X137035888Y-113786806D01*
X137035886Y-113786805D01*
X136849087Y-113747100D01*
X136827722Y-113747100D01*
X136760683Y-113727415D01*
X136740041Y-113710781D01*
X133435218Y-110405958D01*
X133401733Y-110344635D01*
X133398899Y-110318277D01*
X133398899Y-107932711D01*
X133398899Y-105496377D01*
X133400683Y-105480249D01*
X133400454Y-105480228D01*
X133401187Y-105472466D01*
X133401188Y-105472463D01*
X133398899Y-105399657D01*
X133398900Y-105368568D01*
X133397966Y-105361175D01*
X133397507Y-105355344D01*
X133395962Y-105306169D01*
X133389935Y-105285426D01*
X133385990Y-105266377D01*
X133383282Y-105244936D01*
X133365163Y-105199172D01*
X133363272Y-105193648D01*
X133352334Y-105156000D01*
X133349545Y-105146400D01*
X133338549Y-105127808D01*
X133329989Y-105110335D01*
X133322035Y-105090244D01*
X133293111Y-105050434D01*
X133289902Y-105045549D01*
X133278379Y-105026065D01*
X133264853Y-105003193D01*
X133264849Y-105003189D01*
X133264846Y-105003185D01*
X133249575Y-104987914D01*
X133236937Y-104973118D01*
X133224239Y-104955640D01*
X133186321Y-104924272D01*
X133181998Y-104920338D01*
X127933117Y-99671457D01*
X127922964Y-99658785D01*
X127922788Y-99658931D01*
X127917819Y-99652926D01*
X127917816Y-99652920D01*
X127871552Y-99609475D01*
X127864715Y-99603054D01*
X127842733Y-99581072D01*
X127836839Y-99576501D01*
X127832402Y-99572711D01*
X127796533Y-99539028D01*
X127796531Y-99539026D01*
X127777600Y-99528619D01*
X127761348Y-99517944D01*
X127744268Y-99504696D01*
X127744264Y-99504694D01*
X127699102Y-99485150D01*
X127693855Y-99482580D01*
X127650737Y-99458875D01*
X127650738Y-99458875D01*
X127629811Y-99453502D01*
X127611406Y-99447201D01*
X127591574Y-99438619D01*
X127542969Y-99430921D01*
X127537247Y-99429736D01*
X127503588Y-99421094D01*
X127489588Y-99417500D01*
X127489587Y-99417500D01*
X127467981Y-99417500D01*
X127448583Y-99415973D01*
X127440003Y-99414614D01*
X127427249Y-99412594D01*
X127427248Y-99412594D01*
X127378255Y-99417225D01*
X127372419Y-99417500D01*
X125387126Y-99417500D01*
X125320087Y-99397815D01*
X125281399Y-99358290D01*
X125176179Y-99186589D01*
X125176178Y-99186586D01*
X125021969Y-99006031D01*
X124954824Y-98948684D01*
X124898160Y-98900288D01*
X124859968Y-98841784D01*
X124859469Y-98771916D01*
X124896823Y-98712869D01*
X124898057Y-98711799D01*
X125021969Y-98605969D01*
X125176176Y-98425416D01*
X125300240Y-98222963D01*
X125333496Y-98142677D01*
X125391104Y-98003597D01*
X125391104Y-98003596D01*
X125391105Y-98003594D01*
X125446535Y-97772711D01*
X125465165Y-97536000D01*
X125446535Y-97299289D01*
X125391105Y-97068406D01*
X125391104Y-97068403D01*
X125391104Y-97068402D01*
X125300242Y-96849040D01*
X125300240Y-96849037D01*
X125176179Y-96646589D01*
X125176178Y-96646586D01*
X125021969Y-96466031D01*
X125010759Y-96456457D01*
X124898160Y-96360288D01*
X124859968Y-96301784D01*
X124859469Y-96231916D01*
X124896823Y-96172869D01*
X124898057Y-96171799D01*
X125021969Y-96065969D01*
X125176176Y-95885416D01*
X125300240Y-95682963D01*
X125333496Y-95602677D01*
X125391104Y-95463597D01*
X125391104Y-95463596D01*
X125391105Y-95463594D01*
X125446535Y-95232711D01*
X125465165Y-94996000D01*
X125446535Y-94759289D01*
X125391105Y-94528406D01*
X125391104Y-94528403D01*
X125391104Y-94528402D01*
X125300242Y-94309040D01*
X125300240Y-94309037D01*
X125176179Y-94106589D01*
X125176178Y-94106586D01*
X125021969Y-93926031D01*
X125010759Y-93916457D01*
X124898160Y-93820288D01*
X124859968Y-93761784D01*
X124859469Y-93691916D01*
X124896823Y-93632869D01*
X124898057Y-93631799D01*
X125021969Y-93525969D01*
X125176176Y-93345416D01*
X125300240Y-93142963D01*
X125333496Y-93062677D01*
X125391104Y-92923597D01*
X125391104Y-92923596D01*
X125391105Y-92923594D01*
X125446535Y-92692711D01*
X125465165Y-92456000D01*
X125446535Y-92219289D01*
X125391105Y-91988406D01*
X125391104Y-91988403D01*
X125391104Y-91988402D01*
X125300242Y-91769040D01*
X125300240Y-91769037D01*
X125176179Y-91566589D01*
X125176178Y-91566586D01*
X125021969Y-91386031D01*
X125010759Y-91376457D01*
X124898160Y-91280288D01*
X124859968Y-91221784D01*
X124859469Y-91151916D01*
X124896823Y-91092869D01*
X124898057Y-91091799D01*
X125021969Y-90985969D01*
X125176176Y-90805416D01*
X125300240Y-90602963D01*
X125326043Y-90540670D01*
X125391104Y-90383597D01*
X125391104Y-90383596D01*
X125391105Y-90383594D01*
X125446535Y-90152711D01*
X125465165Y-89916000D01*
X125446535Y-89679289D01*
X125391105Y-89448406D01*
X125391104Y-89448403D01*
X125391104Y-89448402D01*
X125300242Y-89229040D01*
X125300240Y-89229037D01*
X125176179Y-89026589D01*
X125176178Y-89026586D01*
X125021969Y-88846031D01*
X124898160Y-88740288D01*
X124859968Y-88681784D01*
X124859469Y-88611916D01*
X124896823Y-88552869D01*
X124898057Y-88551799D01*
X125021969Y-88445969D01*
X125176176Y-88265416D01*
X125250757Y-88143710D01*
X125302569Y-88096835D01*
X125356485Y-88084500D01*
X129957168Y-88084500D01*
X130024207Y-88104185D01*
X130044849Y-88120819D01*
X130637836Y-88713806D01*
X130671321Y-88775129D01*
X130673475Y-88788518D01*
X130678458Y-88835928D01*
X130678459Y-88835930D01*
X130678459Y-88835932D01*
X130737470Y-89017549D01*
X130737473Y-89017556D01*
X130832960Y-89182944D01*
X130960747Y-89324866D01*
X131115248Y-89437118D01*
X131289712Y-89514794D01*
X131476513Y-89554500D01*
X131667487Y-89554500D01*
X131854288Y-89514794D01*
X132028752Y-89437118D01*
X132183253Y-89324866D01*
X132311040Y-89182944D01*
X132406527Y-89017556D01*
X132465542Y-88835928D01*
X132485504Y-88646000D01*
X132465542Y-88456072D01*
X132406527Y-88274444D01*
X132311040Y-88109056D01*
X132183253Y-87967134D01*
X132028752Y-87854882D01*
X131854288Y-87777206D01*
X131854286Y-87777205D01*
X131854285Y-87777205D01*
X131700853Y-87744592D01*
X131639371Y-87711400D01*
X131638953Y-87710983D01*
X131285374Y-87357404D01*
X130819434Y-86891464D01*
X130816900Y-86888772D01*
X130775273Y-86841785D01*
X130775272Y-86841784D01*
X130775271Y-86841783D01*
X130723628Y-86806136D01*
X130720611Y-86803916D01*
X130671227Y-86765225D01*
X130665235Y-86762528D01*
X130661760Y-86760964D01*
X130642216Y-86749941D01*
X130637210Y-86746486D01*
X130633677Y-86744047D01*
X130633672Y-86744044D01*
X130575015Y-86721798D01*
X130571555Y-86720365D01*
X130514331Y-86694611D01*
X130514332Y-86694611D01*
X130504110Y-86692738D01*
X130482510Y-86686716D01*
X130472801Y-86683035D01*
X130472797Y-86683034D01*
X130472796Y-86683034D01*
X130410511Y-86675470D01*
X130406810Y-86674907D01*
X130345096Y-86663598D01*
X130345090Y-86663598D01*
X130282455Y-86667387D01*
X130278710Y-86667500D01*
X125356485Y-86667500D01*
X125289446Y-86647815D01*
X125250758Y-86608290D01*
X125176179Y-86486588D01*
X125176178Y-86486586D01*
X125021969Y-86306031D01*
X125021968Y-86306031D01*
X124898160Y-86200288D01*
X124859968Y-86141784D01*
X124859469Y-86071916D01*
X124896823Y-86012869D01*
X124898057Y-86011799D01*
X125021969Y-85905969D01*
X125176176Y-85725416D01*
X125300240Y-85522963D01*
X125390807Y-85304315D01*
X125391104Y-85303597D01*
X125391104Y-85303596D01*
X125391105Y-85303594D01*
X125446535Y-85072711D01*
X125465165Y-84836000D01*
X125446535Y-84599289D01*
X125391105Y-84368406D01*
X125391104Y-84368403D01*
X125391104Y-84368402D01*
X125300242Y-84149040D01*
X125300240Y-84149037D01*
X125176179Y-83946589D01*
X125176178Y-83946586D01*
X125021969Y-83766031D01*
X125008748Y-83754739D01*
X124898160Y-83660288D01*
X124859968Y-83601784D01*
X124859469Y-83531916D01*
X124896823Y-83472869D01*
X124898057Y-83471799D01*
X125021969Y-83365969D01*
X125176176Y-83185416D01*
X125300240Y-82982963D01*
X125317825Y-82940510D01*
X125391104Y-82763597D01*
X125391104Y-82763596D01*
X125391105Y-82763594D01*
X125446535Y-82532711D01*
X125465165Y-82296000D01*
X125446535Y-82059289D01*
X125391105Y-81828406D01*
X125391104Y-81828403D01*
X125391104Y-81828402D01*
X125300242Y-81609040D01*
X125300240Y-81609037D01*
X125176179Y-81406589D01*
X125176178Y-81406586D01*
X125021969Y-81226031D01*
X125005508Y-81211972D01*
X124898160Y-81120288D01*
X124859968Y-81061784D01*
X124859469Y-80991916D01*
X124896823Y-80932869D01*
X124898057Y-80931799D01*
X125021969Y-80825969D01*
X125176176Y-80645416D01*
X125300240Y-80442963D01*
X125317825Y-80400510D01*
X125391104Y-80223597D01*
X125391104Y-80223596D01*
X125391105Y-80223594D01*
X125446535Y-79992711D01*
X125465165Y-79756000D01*
X125446535Y-79519289D01*
X125391105Y-79288406D01*
X125391104Y-79288403D01*
X125391104Y-79288402D01*
X125300242Y-79069040D01*
X125300240Y-79069037D01*
X125176179Y-78866589D01*
X125176178Y-78866586D01*
X125021969Y-78686031D01*
X124984670Y-78654175D01*
X124898160Y-78580288D01*
X124859968Y-78521784D01*
X124859469Y-78451916D01*
X124896823Y-78392869D01*
X124898057Y-78391799D01*
X125021969Y-78285969D01*
X125176176Y-78105416D01*
X125300240Y-77902963D01*
X125317825Y-77860510D01*
X125391104Y-77683597D01*
X125391104Y-77683596D01*
X125391105Y-77683594D01*
X125446535Y-77452711D01*
X125465165Y-77216000D01*
X125446535Y-76979289D01*
X125391105Y-76748406D01*
X125391104Y-76748403D01*
X125391104Y-76748402D01*
X125300242Y-76529040D01*
X125300240Y-76529037D01*
X125176179Y-76326589D01*
X125176178Y-76326586D01*
X125021969Y-76146031D01*
X124976547Y-76107237D01*
X124898160Y-76040288D01*
X124859968Y-75981784D01*
X124859469Y-75911916D01*
X124896823Y-75852869D01*
X124898057Y-75851799D01*
X125021969Y-75745969D01*
X125176176Y-75565416D01*
X125300240Y-75362963D01*
X125310350Y-75338557D01*
X125391104Y-75143597D01*
X125391104Y-75143596D01*
X125391105Y-75143594D01*
X125446535Y-74912711D01*
X125465165Y-74676000D01*
X125446535Y-74439289D01*
X125391105Y-74208406D01*
X125391104Y-74208403D01*
X125391104Y-74208402D01*
X125300242Y-73989040D01*
X125300240Y-73989037D01*
X125176179Y-73786589D01*
X125176178Y-73786586D01*
X125021969Y-73606031D01*
X124898160Y-73500288D01*
X124859968Y-73441784D01*
X124859469Y-73371916D01*
X124896823Y-73312869D01*
X124898057Y-73311799D01*
X125021969Y-73205969D01*
X125176176Y-73025416D01*
X125300240Y-72822963D01*
X125341356Y-72723701D01*
X125391104Y-72603597D01*
X125391104Y-72603596D01*
X125391105Y-72603594D01*
X125446535Y-72372711D01*
X125465165Y-72136000D01*
X125446535Y-71899289D01*
X125391105Y-71668406D01*
X125391104Y-71668403D01*
X125391104Y-71668402D01*
X125300242Y-71449040D01*
X125300240Y-71449037D01*
X125176179Y-71246589D01*
X125176178Y-71246586D01*
X125141340Y-71205797D01*
X125021969Y-71066031D01*
X124902596Y-70964076D01*
X124841413Y-70911821D01*
X124841410Y-70911820D01*
X124638962Y-70787759D01*
X124638959Y-70787757D01*
X124419596Y-70696895D01*
X124188714Y-70641465D01*
X123952000Y-70622835D01*
X123715285Y-70641465D01*
X123484404Y-70696895D01*
X123484402Y-70696895D01*
X123265040Y-70787757D01*
X123265037Y-70787759D01*
X123062589Y-70911820D01*
X123062586Y-70911821D01*
X122882031Y-71066031D01*
X122727821Y-71246586D01*
X122727820Y-71246589D01*
X122603759Y-71449037D01*
X122603757Y-71449040D01*
X122512895Y-71668402D01*
X122512895Y-71668404D01*
X122457465Y-71899285D01*
X122438835Y-72136000D01*
X122457465Y-72372714D01*
X122512895Y-72603595D01*
X122512895Y-72603597D01*
X122603757Y-72822959D01*
X122603759Y-72822962D01*
X122727820Y-73025410D01*
X122727821Y-73025413D01*
X122773240Y-73078591D01*
X122882031Y-73205969D01*
X123005838Y-73311710D01*
X123044031Y-73370217D01*
X123044529Y-73440085D01*
X123007176Y-73499131D01*
X123005861Y-73500269D01*
X122882030Y-73606030D01*
X122882031Y-73606031D01*
X122727821Y-73786586D01*
X122727820Y-73786589D01*
X122603759Y-73989037D01*
X122603757Y-73989040D01*
X122512895Y-74208402D01*
X122512895Y-74208404D01*
X122457465Y-74439285D01*
X122438835Y-74675999D01*
X122457465Y-74912714D01*
X122512895Y-75143595D01*
X122512895Y-75143597D01*
X122603757Y-75362959D01*
X122603759Y-75362962D01*
X122727820Y-75565410D01*
X122727821Y-75565413D01*
X122859373Y-75719440D01*
X122882031Y-75745969D01*
X123005838Y-75851710D01*
X123044031Y-75910215D01*
X123044530Y-75980083D01*
X123007176Y-76039130D01*
X123005838Y-76040289D01*
X122882031Y-76146031D01*
X122727821Y-76326586D01*
X122727820Y-76326589D01*
X122603759Y-76529037D01*
X122603757Y-76529040D01*
X122512895Y-76748402D01*
X122512895Y-76748404D01*
X122457465Y-76979285D01*
X122438835Y-77216000D01*
X122457465Y-77452714D01*
X122512895Y-77683595D01*
X122512895Y-77683597D01*
X122603757Y-77902959D01*
X122603759Y-77902962D01*
X122727820Y-78105410D01*
X122727821Y-78105413D01*
X122727824Y-78105416D01*
X122882031Y-78285969D01*
X123005838Y-78391710D01*
X123044031Y-78450217D01*
X123044529Y-78520085D01*
X123007176Y-78579131D01*
X123005861Y-78580269D01*
X122919330Y-78654175D01*
X122882031Y-78686031D01*
X122727821Y-78866586D01*
X122727820Y-78866589D01*
X122603759Y-79069037D01*
X122603757Y-79069040D01*
X122512895Y-79288402D01*
X122512895Y-79288404D01*
X122457465Y-79519285D01*
X122438835Y-79756000D01*
X122457465Y-79992714D01*
X122512895Y-80223595D01*
X122512895Y-80223597D01*
X122603757Y-80442959D01*
X122603759Y-80442962D01*
X122727820Y-80645410D01*
X122727821Y-80645413D01*
X122727824Y-80645416D01*
X122882031Y-80825969D01*
X123005838Y-80931710D01*
X123044031Y-80990217D01*
X123044529Y-81060085D01*
X123007176Y-81119131D01*
X123005861Y-81120269D01*
X122926746Y-81187841D01*
X122882031Y-81226031D01*
X122727821Y-81406586D01*
X122727820Y-81406589D01*
X122603759Y-81609037D01*
X122603757Y-81609040D01*
X122512895Y-81828402D01*
X122512895Y-81828404D01*
X122457465Y-82059285D01*
X122451324Y-82137319D01*
X122438835Y-82296000D01*
X122442204Y-82338800D01*
X122457465Y-82532714D01*
X122512895Y-82763595D01*
X122512895Y-82763597D01*
X122603757Y-82982959D01*
X122603759Y-82982962D01*
X122727820Y-83185410D01*
X122727821Y-83185413D01*
X122882030Y-83365968D01*
X122882031Y-83365969D01*
X123005839Y-83471711D01*
X123044031Y-83530215D01*
X123044530Y-83600083D01*
X123007176Y-83659130D01*
X123005838Y-83660289D01*
X122882031Y-83766031D01*
X122727821Y-83946586D01*
X122727820Y-83946589D01*
X122603759Y-84149037D01*
X122603757Y-84149040D01*
X122512895Y-84368402D01*
X122512895Y-84368404D01*
X122457465Y-84599285D01*
X122440402Y-84816092D01*
X122438835Y-84836000D01*
X122443492Y-84895177D01*
X122457465Y-85072714D01*
X122512895Y-85303595D01*
X122512895Y-85303597D01*
X122603757Y-85522959D01*
X122603759Y-85522962D01*
X122727820Y-85725410D01*
X122727821Y-85725413D01*
X122727824Y-85725416D01*
X122882031Y-85905969D01*
X123005838Y-86011710D01*
X123044031Y-86070217D01*
X123044529Y-86140085D01*
X123007176Y-86199131D01*
X123005861Y-86200269D01*
X122882030Y-86306031D01*
X122882031Y-86306031D01*
X122727821Y-86486586D01*
X122727820Y-86486589D01*
X122603759Y-86689037D01*
X122603757Y-86689040D01*
X122512895Y-86908402D01*
X122512895Y-86908404D01*
X122457465Y-87139285D01*
X122438835Y-87375999D01*
X122457465Y-87612714D01*
X122512895Y-87843595D01*
X122512895Y-87843597D01*
X122603757Y-88062959D01*
X122603759Y-88062962D01*
X122727820Y-88265410D01*
X122727821Y-88265413D01*
X122778490Y-88324738D01*
X122882031Y-88445969D01*
X123005838Y-88551710D01*
X123044031Y-88610217D01*
X123044529Y-88680085D01*
X123007176Y-88739131D01*
X123005861Y-88740269D01*
X122949363Y-88788524D01*
X122882031Y-88846031D01*
X122727821Y-89026586D01*
X122727820Y-89026589D01*
X122603759Y-89229037D01*
X122603757Y-89229040D01*
X122512895Y-89448402D01*
X122512895Y-89448404D01*
X122457465Y-89679285D01*
X122438835Y-89916000D01*
X122457465Y-90152714D01*
X122512895Y-90383595D01*
X122512895Y-90383597D01*
X122603757Y-90602959D01*
X122603759Y-90602962D01*
X122727820Y-90805410D01*
X122727821Y-90805413D01*
X122765298Y-90849292D01*
X122882031Y-90985969D01*
X123005838Y-91091710D01*
X123044031Y-91150217D01*
X123044529Y-91220085D01*
X123007176Y-91279131D01*
X123005861Y-91280269D01*
X122893241Y-91376457D01*
X122882031Y-91386031D01*
X122727821Y-91566586D01*
X122727820Y-91566589D01*
X122603759Y-91769037D01*
X122603757Y-91769040D01*
X122512895Y-91988402D01*
X122512895Y-91988404D01*
X122457465Y-92219285D01*
X122438835Y-92456000D01*
X122457465Y-92692714D01*
X122512895Y-92923595D01*
X122512895Y-92923597D01*
X122603757Y-93142959D01*
X122603759Y-93142962D01*
X122727820Y-93345410D01*
X122727821Y-93345413D01*
X122727824Y-93345416D01*
X122882031Y-93525969D01*
X123005838Y-93631710D01*
X123044031Y-93690217D01*
X123044529Y-93760085D01*
X123007176Y-93819131D01*
X123005861Y-93820269D01*
X122893241Y-93916457D01*
X122882031Y-93926031D01*
X122727821Y-94106586D01*
X122727820Y-94106589D01*
X122603759Y-94309037D01*
X122603757Y-94309040D01*
X122512895Y-94528402D01*
X122512895Y-94528404D01*
X122457465Y-94759285D01*
X122438835Y-94996000D01*
X122457465Y-95232714D01*
X122512895Y-95463595D01*
X122512895Y-95463597D01*
X122603757Y-95682959D01*
X122603759Y-95682962D01*
X122727820Y-95885410D01*
X122727821Y-95885413D01*
X122727824Y-95885416D01*
X122882031Y-96065969D01*
X123005838Y-96171710D01*
X123044031Y-96230217D01*
X123044529Y-96300085D01*
X123007176Y-96359131D01*
X123005861Y-96360269D01*
X122893241Y-96456457D01*
X122882031Y-96466031D01*
X122727821Y-96646586D01*
X122727820Y-96646589D01*
X122603759Y-96849037D01*
X122603757Y-96849040D01*
X122512895Y-97068402D01*
X122512895Y-97068404D01*
X122457465Y-97299285D01*
X122438835Y-97536000D01*
X122457465Y-97772714D01*
X122512895Y-98003595D01*
X122512895Y-98003597D01*
X122603757Y-98222959D01*
X122603759Y-98222962D01*
X122727820Y-98425410D01*
X122727821Y-98425413D01*
X122727824Y-98425416D01*
X122882031Y-98605969D01*
X123005838Y-98711710D01*
X123044031Y-98770217D01*
X123044529Y-98840085D01*
X123007176Y-98899131D01*
X123005861Y-98900269D01*
X122949176Y-98948684D01*
X122882031Y-99006031D01*
X122727821Y-99186586D01*
X122727820Y-99186589D01*
X122603759Y-99389037D01*
X122603757Y-99389040D01*
X122512895Y-99608402D01*
X122512895Y-99608404D01*
X122457465Y-99839285D01*
X122438835Y-100075999D01*
X122457465Y-100312714D01*
X122512895Y-100543595D01*
X122512895Y-100543597D01*
X122603757Y-100762959D01*
X122603759Y-100762962D01*
X122727820Y-100965410D01*
X122727826Y-100965419D01*
X122813649Y-101065905D01*
X122842220Y-101129666D01*
X122831783Y-101198752D01*
X122785652Y-101251228D01*
X122775656Y-101256920D01*
X122713954Y-101288359D01*
X122713949Y-101288363D01*
X122624363Y-101377949D01*
X122624360Y-101377953D01*
X122566833Y-101490855D01*
X122552000Y-101584513D01*
X122552000Y-102416000D01*
X123318000Y-102416000D01*
X123385039Y-102435685D01*
X123430794Y-102488489D01*
X123442000Y-102540000D01*
X123442000Y-102692000D01*
X123422315Y-102759039D01*
X123369511Y-102804794D01*
X123318000Y-102816000D01*
X122552001Y-102816000D01*
X122552001Y-103647479D01*
X122566835Y-103741149D01*
X122566837Y-103741155D01*
X122624356Y-103854041D01*
X122624363Y-103854050D01*
X122713949Y-103943636D01*
X122713953Y-103943639D01*
X122775655Y-103975078D01*
X122826451Y-104023052D01*
X122843246Y-104090873D01*
X122820709Y-104157008D01*
X122813650Y-104166095D01*
X122727821Y-104266586D01*
X122727820Y-104266589D01*
X122603759Y-104469037D01*
X122603757Y-104469040D01*
X122512895Y-104688402D01*
X122512895Y-104688404D01*
X122457465Y-104919285D01*
X122438835Y-105156000D01*
X122457465Y-105392714D01*
X122512895Y-105623595D01*
X122512895Y-105623597D01*
X122603757Y-105842959D01*
X122603759Y-105842962D01*
X122727820Y-106045410D01*
X122727821Y-106045413D01*
X122727824Y-106045416D01*
X122882031Y-106225969D01*
X123005838Y-106331710D01*
X123044031Y-106390217D01*
X123044529Y-106460085D01*
X123007176Y-106519131D01*
X123005861Y-106520269D01*
X122882030Y-106626030D01*
X122882031Y-106626031D01*
X122727821Y-106806586D01*
X122727820Y-106806589D01*
X122603759Y-107009037D01*
X122603757Y-107009040D01*
X122512895Y-107228402D01*
X122512895Y-107228404D01*
X122457465Y-107459285D01*
X122438835Y-107696000D01*
X122457465Y-107932714D01*
X122512895Y-108163595D01*
X122512895Y-108163597D01*
X122603757Y-108382959D01*
X122603759Y-108382962D01*
X122727820Y-108585410D01*
X122727821Y-108585413D01*
X122727824Y-108585416D01*
X122882031Y-108765969D01*
X123005838Y-108871710D01*
X123044031Y-108930215D01*
X123044530Y-109000083D01*
X123007176Y-109059130D01*
X123005838Y-109060289D01*
X122882031Y-109166031D01*
X122727821Y-109346586D01*
X122727820Y-109346589D01*
X122603759Y-109549037D01*
X122603757Y-109549040D01*
X122512895Y-109768402D01*
X122512895Y-109768404D01*
X122457465Y-109999285D01*
X122438835Y-110236000D01*
X122457465Y-110472714D01*
X122512895Y-110703595D01*
X122512895Y-110703597D01*
X122603757Y-110922959D01*
X122603759Y-110922962D01*
X122727820Y-111125410D01*
X122727821Y-111125413D01*
X122780076Y-111186596D01*
X122882031Y-111305969D01*
X123005838Y-111411710D01*
X123044031Y-111470217D01*
X123044529Y-111540085D01*
X123007176Y-111599131D01*
X123005838Y-111600290D01*
X122882031Y-111706031D01*
X122727821Y-111886586D01*
X122727820Y-111886589D01*
X122603759Y-112089037D01*
X122603757Y-112089040D01*
X122512895Y-112308402D01*
X122512895Y-112308404D01*
X122457465Y-112539285D01*
X122438835Y-112776000D01*
X122457465Y-113012714D01*
X122512895Y-113243595D01*
X122512895Y-113243597D01*
X122603757Y-113462959D01*
X122603759Y-113462962D01*
X122727820Y-113665410D01*
X122727821Y-113665413D01*
X122727824Y-113665416D01*
X122882031Y-113845969D01*
X123005838Y-113951710D01*
X123044031Y-114010217D01*
X123044529Y-114080085D01*
X123007176Y-114139131D01*
X123005861Y-114140269D01*
X123003360Y-114142406D01*
X122882031Y-114246031D01*
X122727821Y-114426586D01*
X122727820Y-114426589D01*
X122603759Y-114629037D01*
X122603757Y-114629040D01*
X122512895Y-114848402D01*
X122512895Y-114848404D01*
X122457465Y-115079285D01*
X122438835Y-115315999D01*
X95010500Y-115315999D01*
X95010500Y-101315000D01*
X96259443Y-101315000D01*
X96279641Y-101571641D01*
X96339739Y-101821964D01*
X96438250Y-102059793D01*
X96438252Y-102059796D01*
X96572759Y-102279292D01*
X96572763Y-102279297D01*
X96648548Y-102368030D01*
X96739951Y-102475049D01*
X96819129Y-102542673D01*
X96935702Y-102642236D01*
X96935707Y-102642240D01*
X97155203Y-102776747D01*
X97155206Y-102776749D01*
X97338604Y-102852714D01*
X97393040Y-102875262D01*
X97643360Y-102935359D01*
X97900000Y-102955557D01*
X98156640Y-102935359D01*
X98406960Y-102875262D01*
X98550032Y-102816000D01*
X98644793Y-102776749D01*
X98644794Y-102776748D01*
X98644797Y-102776747D01*
X98864295Y-102642238D01*
X99060049Y-102475049D01*
X99227238Y-102279295D01*
X99361747Y-102059797D01*
X99460262Y-101821960D01*
X99520359Y-101571640D01*
X99540557Y-101315000D01*
X99520359Y-101058360D01*
X99460262Y-100808040D01*
X99421087Y-100713463D01*
X99361749Y-100570206D01*
X99361747Y-100570203D01*
X99227240Y-100350707D01*
X99227236Y-100350702D01*
X99158765Y-100270533D01*
X99060049Y-100154951D01*
X98931315Y-100045002D01*
X98864297Y-99987763D01*
X98864292Y-99987759D01*
X98644796Y-99853252D01*
X98644793Y-99853250D01*
X98406964Y-99754739D01*
X98156641Y-99694641D01*
X97945361Y-99678013D01*
X97900000Y-99674443D01*
X97899999Y-99674443D01*
X97643358Y-99694641D01*
X97393035Y-99754739D01*
X97155206Y-99853250D01*
X97155203Y-99853252D01*
X96935707Y-99987759D01*
X96935702Y-99987763D01*
X96739951Y-100154951D01*
X96572763Y-100350702D01*
X96572759Y-100350707D01*
X96438252Y-100570203D01*
X96438250Y-100570206D01*
X96339739Y-100808035D01*
X96279641Y-101058358D01*
X96259443Y-101315000D01*
X95010500Y-101315000D01*
X95010500Y-98775002D01*
X102974647Y-98775002D01*
X102994021Y-98996457D01*
X102994022Y-98996465D01*
X103051558Y-99211191D01*
X103051559Y-99211193D01*
X103051560Y-99211196D01*
X103098536Y-99311936D01*
X103145511Y-99412676D01*
X103169686Y-99447201D01*
X103273023Y-99594781D01*
X103430219Y-99751977D01*
X103612323Y-99879488D01*
X103813804Y-99973440D01*
X104028537Y-100030978D01*
X104186724Y-100044817D01*
X104249998Y-100050353D01*
X104250000Y-100050353D01*
X104250002Y-100050353D01*
X104311164Y-100045002D01*
X104471463Y-100030978D01*
X104686196Y-99973440D01*
X104887677Y-99879488D01*
X105069781Y-99751977D01*
X105226977Y-99594781D01*
X105354488Y-99412677D01*
X105448440Y-99211196D01*
X105505978Y-98996463D01*
X105525353Y-98775000D01*
X105519092Y-98703440D01*
X105505978Y-98553542D01*
X105505978Y-98553537D01*
X105448440Y-98338804D01*
X105354488Y-98137324D01*
X105354486Y-98137321D01*
X105354485Y-98137319D01*
X105226978Y-97955220D01*
X105212949Y-97941191D01*
X105069781Y-97798023D01*
X104887677Y-97670512D01*
X104773738Y-97617381D01*
X104721299Y-97571210D01*
X104702428Y-97505002D01*
X105514647Y-97505002D01*
X105534021Y-97726457D01*
X105534022Y-97726465D01*
X105591558Y-97941191D01*
X105591559Y-97941193D01*
X105591560Y-97941196D01*
X105620657Y-98003594D01*
X105685511Y-98142676D01*
X105685512Y-98142677D01*
X105813023Y-98324781D01*
X105970219Y-98481977D01*
X106152323Y-98609488D01*
X106353804Y-98703440D01*
X106379472Y-98710317D01*
X106390534Y-98713282D01*
X106450194Y-98749647D01*
X106480723Y-98812494D01*
X106472428Y-98881870D01*
X106427943Y-98935748D01*
X106403234Y-98948684D01*
X106269835Y-99000362D01*
X106269834Y-99000363D01*
X106120604Y-99092762D01*
X106574842Y-99546999D01*
X106608327Y-99608322D01*
X106603343Y-99678013D01*
X106561472Y-99733947D01*
X106557445Y-99736524D01*
X106552744Y-99740182D01*
X106472316Y-99827551D01*
X106412429Y-99863542D01*
X106342591Y-99861441D01*
X106293406Y-99831249D01*
X105838692Y-99376534D01*
X105797815Y-99430664D01*
X105701826Y-99623435D01*
X105642891Y-99830572D01*
X105623022Y-100044999D01*
X105623022Y-100045000D01*
X105642891Y-100259427D01*
X105701826Y-100466564D01*
X105797811Y-100659329D01*
X105797816Y-100659337D01*
X105838691Y-100713463D01*
X106294992Y-100257163D01*
X106356315Y-100223678D01*
X106426006Y-100228662D01*
X106481940Y-100270533D01*
X106486476Y-100277014D01*
X106505813Y-100306612D01*
X106505816Y-100306614D01*
X106566748Y-100354040D01*
X106607561Y-100410750D01*
X106611236Y-100480523D01*
X106578267Y-100539574D01*
X106120604Y-100997236D01*
X106269832Y-101089635D01*
X106269833Y-101089636D01*
X106470638Y-101167427D01*
X106682327Y-101207000D01*
X106897673Y-101207000D01*
X107109361Y-101167427D01*
X107310166Y-101089636D01*
X107310170Y-101089634D01*
X107459393Y-100997237D01*
X107459393Y-100997236D01*
X107005157Y-100543000D01*
X106971672Y-100481677D01*
X106976656Y-100411985D01*
X107018528Y-100356052D01*
X107022554Y-100353475D01*
X107027248Y-100349821D01*
X107027251Y-100349820D01*
X107061413Y-100312711D01*
X107107682Y-100262449D01*
X107167569Y-100226458D01*
X107237407Y-100228557D01*
X107286593Y-100258750D01*
X107741306Y-100713463D01*
X107782186Y-100659331D01*
X107782188Y-100659329D01*
X107878173Y-100466564D01*
X107937108Y-100259427D01*
X107956978Y-100045000D01*
X107956978Y-100044999D01*
X107937108Y-99830572D01*
X107878173Y-99623435D01*
X107782188Y-99430670D01*
X107782183Y-99430662D01*
X107741306Y-99376535D01*
X107285007Y-99832834D01*
X107223684Y-99866319D01*
X107153992Y-99861335D01*
X107098059Y-99819463D01*
X107093518Y-99812976D01*
X107074187Y-99783388D01*
X107074186Y-99783387D01*
X107013249Y-99735958D01*
X106972436Y-99679248D01*
X106968762Y-99609475D01*
X107001731Y-99550424D01*
X107459394Y-99092762D01*
X107310167Y-99000364D01*
X107310166Y-99000363D01*
X107176765Y-98948684D01*
X107121364Y-98906111D01*
X107097773Y-98840344D01*
X107113484Y-98772264D01*
X107163508Y-98723485D01*
X107189466Y-98713282D01*
X107212406Y-98707135D01*
X107226196Y-98703440D01*
X107427677Y-98609488D01*
X107609781Y-98481977D01*
X107766977Y-98324781D01*
X107894488Y-98142677D01*
X107988440Y-97941196D01*
X108045978Y-97726463D01*
X108065353Y-97505000D01*
X108059092Y-97433440D01*
X108047356Y-97299289D01*
X108045978Y-97283537D01*
X107988440Y-97068804D01*
X107894488Y-96867324D01*
X107894486Y-96867321D01*
X107894485Y-96867319D01*
X107766978Y-96685220D01*
X107728342Y-96646584D01*
X107609781Y-96528023D01*
X107427677Y-96400512D01*
X107313738Y-96347381D01*
X107261299Y-96301210D01*
X107242147Y-96234017D01*
X107262363Y-96167135D01*
X107313739Y-96122618D01*
X107427677Y-96069488D01*
X107609781Y-95941977D01*
X107766977Y-95784781D01*
X107894488Y-95602677D01*
X107988440Y-95401196D01*
X108045978Y-95186463D01*
X108065353Y-94965000D01*
X108059092Y-94893440D01*
X108047356Y-94759289D01*
X108045978Y-94743537D01*
X107988440Y-94528804D01*
X107894488Y-94327324D01*
X107894486Y-94327321D01*
X107894485Y-94327319D01*
X107766978Y-94145220D01*
X107728342Y-94106584D01*
X107609781Y-93988023D01*
X107427677Y-93860512D01*
X107313738Y-93807381D01*
X107261299Y-93761210D01*
X107242147Y-93694017D01*
X107262363Y-93627135D01*
X107313739Y-93582618D01*
X107427677Y-93529488D01*
X107609781Y-93401977D01*
X107766977Y-93244781D01*
X107894488Y-93062677D01*
X107988440Y-92861196D01*
X108045978Y-92646463D01*
X108065353Y-92425000D01*
X108059092Y-92353440D01*
X108055521Y-92312618D01*
X108045978Y-92203537D01*
X107988440Y-91988804D01*
X107894488Y-91787324D01*
X107894486Y-91787321D01*
X107894485Y-91787319D01*
X107766978Y-91605220D01*
X107697758Y-91536000D01*
X107609781Y-91448023D01*
X107446480Y-91333678D01*
X107427676Y-91320511D01*
X107326936Y-91273536D01*
X107226196Y-91226560D01*
X107226193Y-91226559D01*
X107226191Y-91226558D01*
X107011465Y-91169022D01*
X107011457Y-91169021D01*
X106790002Y-91149647D01*
X106789998Y-91149647D01*
X106568542Y-91169021D01*
X106568535Y-91169022D01*
X106353800Y-91226561D01*
X106152323Y-91320512D01*
X106152319Y-91320514D01*
X105970217Y-91448023D01*
X105813023Y-91605217D01*
X105685514Y-91787319D01*
X105685512Y-91787323D01*
X105591561Y-91988800D01*
X105534022Y-92203535D01*
X105534021Y-92203542D01*
X105514647Y-92424997D01*
X105514647Y-92425002D01*
X105534021Y-92646457D01*
X105534022Y-92646465D01*
X105591558Y-92861191D01*
X105591559Y-92861193D01*
X105591560Y-92861196D01*
X105620657Y-92923594D01*
X105685511Y-93062676D01*
X105685512Y-93062677D01*
X105813023Y-93244781D01*
X105970219Y-93401977D01*
X106147296Y-93525968D01*
X106152323Y-93529488D01*
X106266261Y-93582618D01*
X106318700Y-93628790D01*
X106337852Y-93695984D01*
X106317636Y-93762865D01*
X106266261Y-93807382D01*
X106152323Y-93860512D01*
X106152319Y-93860514D01*
X105970217Y-93988023D01*
X105813023Y-94145217D01*
X105685514Y-94327319D01*
X105685512Y-94327323D01*
X105591561Y-94528800D01*
X105534022Y-94743535D01*
X105534021Y-94743542D01*
X105514647Y-94964997D01*
X105514647Y-94965002D01*
X105534021Y-95186457D01*
X105534022Y-95186465D01*
X105591558Y-95401191D01*
X105591559Y-95401193D01*
X105591560Y-95401196D01*
X105620657Y-95463594D01*
X105685511Y-95602676D01*
X105685512Y-95602677D01*
X105813023Y-95784781D01*
X105970219Y-95941977D01*
X106147296Y-96065968D01*
X106152323Y-96069488D01*
X106266261Y-96122618D01*
X106318700Y-96168790D01*
X106337852Y-96235984D01*
X106317636Y-96302865D01*
X106266261Y-96347382D01*
X106152323Y-96400512D01*
X106152319Y-96400514D01*
X105970217Y-96528023D01*
X105813023Y-96685217D01*
X105685514Y-96867319D01*
X105685512Y-96867323D01*
X105591561Y-97068800D01*
X105534022Y-97283535D01*
X105534021Y-97283542D01*
X105514647Y-97504997D01*
X105514647Y-97505002D01*
X104702428Y-97505002D01*
X104702147Y-97504017D01*
X104722363Y-97437135D01*
X104773739Y-97392618D01*
X104887677Y-97339488D01*
X105069781Y-97211977D01*
X105226977Y-97054781D01*
X105354488Y-96872677D01*
X105448440Y-96671196D01*
X105505978Y-96456463D01*
X105525353Y-96235000D01*
X105519092Y-96163440D01*
X105505978Y-96013542D01*
X105505978Y-96013537D01*
X105448440Y-95798804D01*
X105354488Y-95597324D01*
X105354486Y-95597321D01*
X105354485Y-95597319D01*
X105226978Y-95415220D01*
X105212949Y-95401191D01*
X105069781Y-95258023D01*
X104887677Y-95130512D01*
X104773738Y-95077381D01*
X104721299Y-95031210D01*
X104702147Y-94964017D01*
X104722363Y-94897135D01*
X104773739Y-94852618D01*
X104887677Y-94799488D01*
X105069781Y-94671977D01*
X105226977Y-94514781D01*
X105354488Y-94332677D01*
X105448440Y-94131196D01*
X105505978Y-93916463D01*
X105525353Y-93695000D01*
X105519092Y-93623440D01*
X105505978Y-93473542D01*
X105505978Y-93473537D01*
X105448440Y-93258804D01*
X105354488Y-93057324D01*
X105354486Y-93057321D01*
X105354485Y-93057319D01*
X105226978Y-92875220D01*
X105212949Y-92861191D01*
X105069781Y-92718023D01*
X104887677Y-92590512D01*
X104773738Y-92537381D01*
X104721299Y-92491210D01*
X104702147Y-92424017D01*
X104722363Y-92357135D01*
X104773739Y-92312618D01*
X104887677Y-92259488D01*
X105069781Y-92131977D01*
X105226977Y-91974781D01*
X105354488Y-91792677D01*
X105448440Y-91591196D01*
X105505978Y-91376463D01*
X105525353Y-91155000D01*
X105522562Y-91123102D01*
X105509294Y-90971441D01*
X105505978Y-90933537D01*
X105448440Y-90718804D01*
X105354488Y-90517324D01*
X105354486Y-90517321D01*
X105354485Y-90517319D01*
X105226978Y-90335220D01*
X105155858Y-90264100D01*
X105069781Y-90178023D01*
X104887677Y-90050512D01*
X104887678Y-90050512D01*
X104887676Y-90050511D01*
X104764342Y-89993000D01*
X104686196Y-89956560D01*
X104686193Y-89956559D01*
X104686191Y-89956558D01*
X104471465Y-89899022D01*
X104471457Y-89899021D01*
X104250002Y-89879647D01*
X104249998Y-89879647D01*
X104028542Y-89899021D01*
X104028535Y-89899022D01*
X103813800Y-89956561D01*
X103612323Y-90050512D01*
X103612319Y-90050514D01*
X103430217Y-90178023D01*
X103273023Y-90335217D01*
X103145514Y-90517319D01*
X103145512Y-90517323D01*
X103051561Y-90718800D01*
X102994022Y-90933535D01*
X102994021Y-90933542D01*
X102974647Y-91154997D01*
X102974647Y-91155002D01*
X102994021Y-91376457D01*
X102994022Y-91376465D01*
X103051558Y-91591191D01*
X103051559Y-91591193D01*
X103051560Y-91591196D01*
X103078782Y-91649574D01*
X103145511Y-91792676D01*
X103145512Y-91792677D01*
X103273023Y-91974781D01*
X103430219Y-92131977D01*
X103600651Y-92251315D01*
X103612323Y-92259488D01*
X103726261Y-92312618D01*
X103778700Y-92358790D01*
X103797852Y-92425984D01*
X103777636Y-92492865D01*
X103726261Y-92537382D01*
X103612323Y-92590512D01*
X103612319Y-92590514D01*
X103430217Y-92718023D01*
X103273023Y-92875217D01*
X103145514Y-93057319D01*
X103145512Y-93057323D01*
X103051561Y-93258800D01*
X102994022Y-93473535D01*
X102994021Y-93473542D01*
X102974647Y-93694997D01*
X102974647Y-93695002D01*
X102994021Y-93916457D01*
X102994022Y-93916465D01*
X103051558Y-94131191D01*
X103051559Y-94131193D01*
X103051560Y-94131196D01*
X103098536Y-94231936D01*
X103145511Y-94332676D01*
X103145512Y-94332677D01*
X103273023Y-94514781D01*
X103430219Y-94671977D01*
X103612323Y-94799488D01*
X103726261Y-94852618D01*
X103778700Y-94898790D01*
X103797852Y-94965984D01*
X103777636Y-95032865D01*
X103726261Y-95077382D01*
X103612323Y-95130512D01*
X103612319Y-95130514D01*
X103430217Y-95258023D01*
X103273023Y-95415217D01*
X103145514Y-95597319D01*
X103145512Y-95597323D01*
X103051561Y-95798800D01*
X102994022Y-96013535D01*
X102994021Y-96013542D01*
X102974647Y-96234997D01*
X102974647Y-96235002D01*
X102994021Y-96456457D01*
X102994022Y-96456465D01*
X103051558Y-96671191D01*
X103051559Y-96671193D01*
X103051560Y-96671196D01*
X103098536Y-96771936D01*
X103145511Y-96872676D01*
X103145512Y-96872677D01*
X103273023Y-97054781D01*
X103430219Y-97211977D01*
X103612323Y-97339488D01*
X103726261Y-97392618D01*
X103778700Y-97438790D01*
X103797852Y-97505984D01*
X103777636Y-97572865D01*
X103726261Y-97617382D01*
X103612323Y-97670512D01*
X103612319Y-97670514D01*
X103430217Y-97798023D01*
X103273023Y-97955217D01*
X103145514Y-98137319D01*
X103145512Y-98137323D01*
X103051561Y-98338800D01*
X102994022Y-98553535D01*
X102994021Y-98553542D01*
X102974647Y-98774997D01*
X102974647Y-98775002D01*
X95010500Y-98775002D01*
X95010500Y-89885000D01*
X96259443Y-89885000D01*
X96279641Y-90141641D01*
X96288376Y-90178023D01*
X96337729Y-90383594D01*
X96339739Y-90391964D01*
X96438250Y-90629793D01*
X96438252Y-90629796D01*
X96572759Y-90849292D01*
X96572763Y-90849297D01*
X96635691Y-90922976D01*
X96739951Y-91045049D01*
X96831340Y-91123102D01*
X96935702Y-91212236D01*
X96935707Y-91212240D01*
X97155203Y-91346747D01*
X97155206Y-91346749D01*
X97323877Y-91416614D01*
X97393040Y-91445262D01*
X97643360Y-91505359D01*
X97900000Y-91525557D01*
X98156640Y-91505359D01*
X98406960Y-91445262D01*
X98563230Y-91380533D01*
X98644793Y-91346749D01*
X98644794Y-91346748D01*
X98644797Y-91346747D01*
X98840927Y-91226558D01*
X98864292Y-91212240D01*
X98864292Y-91212239D01*
X98864295Y-91212238D01*
X99060049Y-91045049D01*
X99227238Y-90849295D01*
X99361747Y-90629797D01*
X99372863Y-90602962D01*
X99460260Y-90391964D01*
X99460262Y-90391960D01*
X99520359Y-90141640D01*
X99540557Y-89885000D01*
X99520359Y-89628360D01*
X99460262Y-89378040D01*
X99438236Y-89324864D01*
X99361749Y-89140206D01*
X99361747Y-89140203D01*
X99227240Y-88920707D01*
X99227236Y-88920702D01*
X99114345Y-88788524D01*
X99060049Y-88724951D01*
X98953030Y-88633548D01*
X98864297Y-88557763D01*
X98864292Y-88557759D01*
X98644796Y-88423252D01*
X98644793Y-88423250D01*
X98406964Y-88324739D01*
X98156641Y-88264641D01*
X97900000Y-88244443D01*
X97643358Y-88264641D01*
X97393035Y-88324739D01*
X97155206Y-88423250D01*
X97155203Y-88423252D01*
X96935707Y-88557759D01*
X96935702Y-88557763D01*
X96739951Y-88724951D01*
X96572763Y-88920702D01*
X96572759Y-88920707D01*
X96438252Y-89140203D01*
X96438250Y-89140206D01*
X96339739Y-89378035D01*
X96279641Y-89628358D01*
X96259443Y-89885000D01*
X95010500Y-89885000D01*
X95010500Y-85315000D01*
X96259443Y-85315000D01*
X96279641Y-85571641D01*
X96339739Y-85821964D01*
X96438250Y-86059793D01*
X96438252Y-86059796D01*
X96572759Y-86279292D01*
X96572763Y-86279297D01*
X96648548Y-86368030D01*
X96739951Y-86475049D01*
X96829893Y-86551866D01*
X96935702Y-86642236D01*
X96935707Y-86642240D01*
X97155203Y-86776747D01*
X97155206Y-86776749D01*
X97333213Y-86850481D01*
X97393040Y-86875262D01*
X97643360Y-86935359D01*
X97900000Y-86955557D01*
X98156640Y-86935359D01*
X98406960Y-86875262D01*
X98525878Y-86826004D01*
X98644793Y-86776749D01*
X98644794Y-86776748D01*
X98644797Y-86776747D01*
X98864295Y-86642238D01*
X99060049Y-86475049D01*
X99227238Y-86279295D01*
X99361747Y-86059797D01*
X99375019Y-86027757D01*
X99460260Y-85821964D01*
X99460262Y-85821960D01*
X99520359Y-85571640D01*
X99540557Y-85315000D01*
X99520359Y-85058360D01*
X99460262Y-84808040D01*
X99421087Y-84713463D01*
X99361749Y-84570206D01*
X99361747Y-84570203D01*
X99227240Y-84350707D01*
X99227236Y-84350702D01*
X99158765Y-84270533D01*
X99060049Y-84154951D01*
X98931315Y-84045002D01*
X98864297Y-83987763D01*
X98864292Y-83987759D01*
X98644796Y-83853252D01*
X98644793Y-83853250D01*
X98406964Y-83754739D01*
X98156641Y-83694641D01*
X97945361Y-83678013D01*
X97900000Y-83674443D01*
X97899999Y-83674443D01*
X97643358Y-83694641D01*
X97393035Y-83754739D01*
X97155206Y-83853250D01*
X97155203Y-83853252D01*
X96935707Y-83987759D01*
X96935702Y-83987763D01*
X96739951Y-84154951D01*
X96572763Y-84350702D01*
X96572759Y-84350707D01*
X96438252Y-84570203D01*
X96438250Y-84570206D01*
X96339739Y-84808035D01*
X96279641Y-85058358D01*
X96259443Y-85315000D01*
X95010500Y-85315000D01*
X95010500Y-73885000D01*
X96259443Y-73885000D01*
X96279641Y-74141641D01*
X96339739Y-74391964D01*
X96438250Y-74629793D01*
X96438252Y-74629796D01*
X96572759Y-74849292D01*
X96572763Y-74849297D01*
X96626924Y-74912711D01*
X96739951Y-75045049D01*
X96831340Y-75123102D01*
X96935702Y-75212236D01*
X96935707Y-75212240D01*
X97155203Y-75346747D01*
X97155206Y-75346749D01*
X97393035Y-75445260D01*
X97393040Y-75445262D01*
X97643360Y-75505359D01*
X97900000Y-75525557D01*
X98156640Y-75505359D01*
X98406960Y-75445262D01*
X98547562Y-75387023D01*
X98644793Y-75346749D01*
X98644794Y-75346748D01*
X98644797Y-75346747D01*
X98864295Y-75212238D01*
X99060049Y-75045049D01*
X99227238Y-74849295D01*
X99233673Y-74838795D01*
X99307203Y-74718804D01*
X99361747Y-74629797D01*
X99370813Y-74607911D01*
X99440659Y-74439285D01*
X99460262Y-74391960D01*
X99520359Y-74141640D01*
X99540557Y-73885000D01*
X99520359Y-73628360D01*
X99460262Y-73378040D01*
X99435903Y-73319232D01*
X99361749Y-73140206D01*
X99361747Y-73140203D01*
X99227240Y-72920707D01*
X99227236Y-72920702D01*
X99143755Y-72822959D01*
X99060049Y-72724951D01*
X98888977Y-72578842D01*
X98864297Y-72557763D01*
X98864292Y-72557759D01*
X98644796Y-72423252D01*
X98644793Y-72423250D01*
X98406964Y-72324739D01*
X98156641Y-72264641D01*
X97900000Y-72244443D01*
X97643358Y-72264641D01*
X97393035Y-72324739D01*
X97155206Y-72423250D01*
X97155203Y-72423252D01*
X96935707Y-72557759D01*
X96935702Y-72557763D01*
X96739951Y-72724951D01*
X96572763Y-72920702D01*
X96572759Y-72920707D01*
X96438252Y-73140203D01*
X96438250Y-73140206D01*
X96339739Y-73378035D01*
X96279641Y-73628358D01*
X96259443Y-73885000D01*
X95010500Y-73885000D01*
X95010500Y-58623199D01*
X102525235Y-58623199D01*
X102543865Y-58859914D01*
X102599295Y-59090795D01*
X102599295Y-59090797D01*
X102690157Y-59310159D01*
X102690159Y-59310162D01*
X102814220Y-59512610D01*
X102814221Y-59512613D01*
X102842094Y-59545248D01*
X102968431Y-59693169D01*
X102968434Y-59693172D01*
X102968440Y-59693178D01*
X102986429Y-59708541D01*
X103024624Y-59767047D01*
X103029900Y-59802833D01*
X103029900Y-74783313D01*
X103025675Y-74815406D01*
X102994022Y-74933534D01*
X102994022Y-74933537D01*
X102992383Y-74952272D01*
X102974647Y-75154997D01*
X102974647Y-75155002D01*
X102994021Y-75376457D01*
X102994022Y-75376465D01*
X103051558Y-75591191D01*
X103051559Y-75591193D01*
X103051560Y-75591196D01*
X103078782Y-75649574D01*
X103145511Y-75792676D01*
X103157855Y-75810305D01*
X103273023Y-75974781D01*
X103430219Y-76131977D01*
X103612323Y-76259488D01*
X103726261Y-76312618D01*
X103778700Y-76358790D01*
X103797852Y-76425984D01*
X103777636Y-76492865D01*
X103726261Y-76537382D01*
X103612323Y-76590512D01*
X103612319Y-76590514D01*
X103430217Y-76718023D01*
X103273023Y-76875217D01*
X103145514Y-77057319D01*
X103145512Y-77057323D01*
X103051561Y-77258800D01*
X102994022Y-77473535D01*
X102994021Y-77473542D01*
X102974647Y-77694997D01*
X102974647Y-77695002D01*
X102994021Y-77916457D01*
X102994022Y-77916465D01*
X103051558Y-78131191D01*
X103051559Y-78131193D01*
X103051560Y-78131196D01*
X103098536Y-78231936D01*
X103145511Y-78332676D01*
X103145512Y-78332677D01*
X103273023Y-78514781D01*
X103430219Y-78671977D01*
X103612322Y-78799488D01*
X103612323Y-78799488D01*
X103726261Y-78852618D01*
X103778700Y-78898790D01*
X103797852Y-78965984D01*
X103777636Y-79032865D01*
X103726261Y-79077382D01*
X103612323Y-79130512D01*
X103612319Y-79130514D01*
X103430217Y-79258023D01*
X103273023Y-79415217D01*
X103145514Y-79597319D01*
X103145512Y-79597323D01*
X103051561Y-79798800D01*
X102994022Y-80013535D01*
X102994021Y-80013542D01*
X102974647Y-80234997D01*
X102974647Y-80235002D01*
X102994021Y-80456457D01*
X102994022Y-80456465D01*
X103051558Y-80671191D01*
X103051559Y-80671193D01*
X103051560Y-80671196D01*
X103098536Y-80771936D01*
X103145511Y-80872676D01*
X103145512Y-80872677D01*
X103273023Y-81054781D01*
X103430219Y-81211977D01*
X103612323Y-81339488D01*
X103676615Y-81369468D01*
X103726261Y-81392618D01*
X103778700Y-81438790D01*
X103797852Y-81505984D01*
X103777636Y-81572865D01*
X103726261Y-81617382D01*
X103612323Y-81670512D01*
X103612319Y-81670514D01*
X103430217Y-81798023D01*
X103273023Y-81955217D01*
X103145514Y-82137319D01*
X103145512Y-82137323D01*
X103051561Y-82338800D01*
X102994022Y-82553535D01*
X102994021Y-82553542D01*
X102974647Y-82774997D01*
X102974647Y-82775002D01*
X102994021Y-82996457D01*
X102994022Y-82996465D01*
X103051558Y-83211191D01*
X103051559Y-83211193D01*
X103051560Y-83211196D01*
X103098536Y-83311936D01*
X103145511Y-83412676D01*
X103145512Y-83412677D01*
X103273023Y-83594781D01*
X103430219Y-83751977D01*
X103612323Y-83879488D01*
X103813804Y-83973440D01*
X104028537Y-84030978D01*
X104186724Y-84044817D01*
X104249998Y-84050353D01*
X104250000Y-84050353D01*
X104250002Y-84050353D01*
X104311164Y-84045002D01*
X104471463Y-84030978D01*
X104686196Y-83973440D01*
X104887677Y-83879488D01*
X105069781Y-83751977D01*
X105226977Y-83594781D01*
X105354488Y-83412677D01*
X105448440Y-83211196D01*
X105505978Y-82996463D01*
X105525353Y-82775000D01*
X105524355Y-82763597D01*
X105505978Y-82553542D01*
X105505978Y-82553537D01*
X105448440Y-82338804D01*
X105354488Y-82137324D01*
X105354486Y-82137321D01*
X105354485Y-82137319D01*
X105226978Y-81955220D01*
X105202707Y-81930949D01*
X105069781Y-81798023D01*
X104887677Y-81670512D01*
X104773738Y-81617381D01*
X104721299Y-81571210D01*
X104702428Y-81505002D01*
X105514647Y-81505002D01*
X105534021Y-81726457D01*
X105534022Y-81726465D01*
X105591558Y-81941191D01*
X105591559Y-81941193D01*
X105591560Y-81941196D01*
X105638536Y-82041936D01*
X105685511Y-82142676D01*
X105685512Y-82142677D01*
X105813023Y-82324781D01*
X105970219Y-82481977D01*
X106152323Y-82609488D01*
X106353804Y-82703440D01*
X106379472Y-82710317D01*
X106390534Y-82713282D01*
X106450194Y-82749647D01*
X106480723Y-82812494D01*
X106472428Y-82881870D01*
X106427943Y-82935748D01*
X106403234Y-82948684D01*
X106269835Y-83000362D01*
X106269834Y-83000363D01*
X106120604Y-83092762D01*
X106574842Y-83546999D01*
X106608327Y-83608322D01*
X106603343Y-83678013D01*
X106561472Y-83733947D01*
X106557445Y-83736524D01*
X106552744Y-83740182D01*
X106472316Y-83827551D01*
X106412429Y-83863542D01*
X106342591Y-83861441D01*
X106293406Y-83831249D01*
X105838692Y-83376534D01*
X105797815Y-83430664D01*
X105701826Y-83623435D01*
X105642891Y-83830572D01*
X105623022Y-84044999D01*
X105623022Y-84045000D01*
X105642891Y-84259427D01*
X105701826Y-84466564D01*
X105797811Y-84659329D01*
X105797816Y-84659337D01*
X105838691Y-84713463D01*
X106294992Y-84257163D01*
X106356315Y-84223678D01*
X106426006Y-84228662D01*
X106481940Y-84270533D01*
X106486476Y-84277014D01*
X106505813Y-84306612D01*
X106505816Y-84306614D01*
X106566748Y-84354040D01*
X106607561Y-84410750D01*
X106611236Y-84480523D01*
X106578267Y-84539574D01*
X106120604Y-84997236D01*
X106269832Y-85089635D01*
X106269833Y-85089636D01*
X106470638Y-85167427D01*
X106682327Y-85207000D01*
X106897673Y-85207000D01*
X107109361Y-85167427D01*
X107310166Y-85089636D01*
X107310170Y-85089634D01*
X107459393Y-84997237D01*
X107459393Y-84997236D01*
X107005157Y-84543000D01*
X106971672Y-84481677D01*
X106976656Y-84411985D01*
X107018528Y-84356052D01*
X107022554Y-84353475D01*
X107027248Y-84349821D01*
X107027251Y-84349820D01*
X107107681Y-84262449D01*
X107167569Y-84226458D01*
X107237407Y-84228557D01*
X107286593Y-84258750D01*
X107741306Y-84713463D01*
X107782186Y-84659331D01*
X107782188Y-84659329D01*
X107878173Y-84466564D01*
X107937108Y-84259427D01*
X107956978Y-84045000D01*
X107956978Y-84044999D01*
X107937108Y-83830572D01*
X107878173Y-83623435D01*
X107782188Y-83430670D01*
X107782183Y-83430662D01*
X107741306Y-83376535D01*
X107285007Y-83832834D01*
X107223684Y-83866319D01*
X107153992Y-83861335D01*
X107098059Y-83819463D01*
X107093518Y-83812976D01*
X107074187Y-83783388D01*
X107074186Y-83783387D01*
X107013249Y-83735958D01*
X106972436Y-83679248D01*
X106968762Y-83609475D01*
X107001731Y-83550424D01*
X107459394Y-83092762D01*
X107310167Y-83000364D01*
X107310166Y-83000363D01*
X107176765Y-82948684D01*
X107121364Y-82906111D01*
X107097773Y-82840344D01*
X107113484Y-82772264D01*
X107163508Y-82723485D01*
X107189466Y-82713282D01*
X107212406Y-82707135D01*
X107226196Y-82703440D01*
X107427677Y-82609488D01*
X107609781Y-82481977D01*
X107766977Y-82324781D01*
X107894488Y-82142677D01*
X107988440Y-81941196D01*
X108045978Y-81726463D01*
X108060594Y-81559400D01*
X114275496Y-81559400D01*
X114295458Y-81749328D01*
X114295459Y-81749331D01*
X114354470Y-81930949D01*
X114354473Y-81930956D01*
X114449960Y-82096344D01*
X114577747Y-82238266D01*
X114732248Y-82350518D01*
X114906712Y-82428194D01*
X115093513Y-82467900D01*
X115284487Y-82467900D01*
X115471288Y-82428194D01*
X115645752Y-82350518D01*
X115800253Y-82238266D01*
X115928040Y-82096344D01*
X116023527Y-81930956D01*
X116082542Y-81749328D01*
X116102504Y-81559400D01*
X116082542Y-81369472D01*
X116023527Y-81187844D01*
X116014112Y-81171536D01*
X115997500Y-81109538D01*
X115997500Y-79069037D01*
X115997500Y-76992650D01*
X116017184Y-76925615D01*
X116033813Y-76904978D01*
X117545403Y-75393389D01*
X117577711Y-75361081D01*
X117600172Y-75325332D01*
X117604194Y-75319666D01*
X117604754Y-75318962D01*
X117630509Y-75286669D01*
X117648826Y-75248630D01*
X117652178Y-75242565D01*
X117674643Y-75206815D01*
X117688583Y-75166973D01*
X117691244Y-75160551D01*
X117697574Y-75147407D01*
X117709559Y-75122520D01*
X117718951Y-75081369D01*
X117720868Y-75074709D01*
X117723815Y-75066284D01*
X117733466Y-75045245D01*
X117776127Y-74971356D01*
X117835142Y-74789728D01*
X117855104Y-74599800D01*
X117835142Y-74409872D01*
X117776127Y-74228244D01*
X117680640Y-74062856D01*
X117552853Y-73920934D01*
X117398352Y-73808682D01*
X117223888Y-73731006D01*
X117223886Y-73731005D01*
X117037087Y-73691300D01*
X116846113Y-73691300D01*
X116659314Y-73731005D01*
X116484846Y-73808683D01*
X116330345Y-73920935D01*
X116202559Y-74062857D01*
X116107073Y-74228243D01*
X116107070Y-74228250D01*
X116048059Y-74409868D01*
X116048058Y-74409872D01*
X116034312Y-74540662D01*
X116029854Y-74583073D01*
X116003269Y-74647687D01*
X115994214Y-74657792D01*
X114664278Y-75987729D01*
X114664277Y-75987730D01*
X114552888Y-76099120D01*
X114530436Y-76134851D01*
X114526411Y-76140523D01*
X114500092Y-76173528D01*
X114481775Y-76211559D01*
X114478412Y-76217645D01*
X114455959Y-76253381D01*
X114455953Y-76253393D01*
X114442019Y-76293216D01*
X114439357Y-76299642D01*
X114421041Y-76337678D01*
X114411645Y-76378838D01*
X114409720Y-76385519D01*
X114395783Y-76425352D01*
X114395781Y-76425358D01*
X114391057Y-76467294D01*
X114389891Y-76474153D01*
X114380501Y-76515295D01*
X114380500Y-76515304D01*
X114380500Y-81109538D01*
X114363888Y-81171536D01*
X114354474Y-81187841D01*
X114354470Y-81187850D01*
X114305200Y-81339488D01*
X114295458Y-81369472D01*
X114275496Y-81559400D01*
X108060594Y-81559400D01*
X108065353Y-81505000D01*
X108059092Y-81433440D01*
X108045978Y-81283542D01*
X108045978Y-81283537D01*
X107988440Y-81068804D01*
X107894488Y-80867324D01*
X107894486Y-80867321D01*
X107894485Y-80867319D01*
X107766978Y-80685220D01*
X107727168Y-80645410D01*
X107609781Y-80528023D01*
X107427677Y-80400512D01*
X107313738Y-80347381D01*
X107261299Y-80301210D01*
X107242147Y-80234017D01*
X107262363Y-80167135D01*
X107313739Y-80122618D01*
X107427677Y-80069488D01*
X107609781Y-79941977D01*
X107766977Y-79784781D01*
X107894488Y-79602677D01*
X107988440Y-79401196D01*
X108045978Y-79186463D01*
X108065353Y-78965000D01*
X108059092Y-78893440D01*
X108045978Y-78743542D01*
X108045978Y-78743537D01*
X107988440Y-78528804D01*
X107894488Y-78327324D01*
X107894486Y-78327321D01*
X107894485Y-78327319D01*
X107766978Y-78145220D01*
X107727168Y-78105410D01*
X107609781Y-77988023D01*
X107427677Y-77860512D01*
X107313738Y-77807381D01*
X107261299Y-77761210D01*
X107242147Y-77694017D01*
X107262363Y-77627135D01*
X107313739Y-77582618D01*
X107427677Y-77529488D01*
X107609781Y-77401977D01*
X107766977Y-77244781D01*
X107894488Y-77062677D01*
X107988440Y-76861196D01*
X108045978Y-76646463D01*
X108065353Y-76425000D01*
X108061314Y-76378838D01*
X108057714Y-76337680D01*
X108045978Y-76203537D01*
X107988440Y-75988804D01*
X107894488Y-75787324D01*
X107894486Y-75787321D01*
X107894485Y-75787319D01*
X107766978Y-75605220D01*
X107697758Y-75536000D01*
X107609781Y-75448023D01*
X107447181Y-75334169D01*
X107427676Y-75320511D01*
X107299223Y-75260613D01*
X107226196Y-75226560D01*
X107226193Y-75226559D01*
X107226191Y-75226558D01*
X107011465Y-75169022D01*
X107011457Y-75169021D01*
X106790002Y-75149647D01*
X106789998Y-75149647D01*
X106568542Y-75169021D01*
X106568535Y-75169022D01*
X106353800Y-75226561D01*
X106152323Y-75320512D01*
X106152319Y-75320514D01*
X105970217Y-75448023D01*
X105813023Y-75605217D01*
X105685514Y-75787319D01*
X105685512Y-75787323D01*
X105591561Y-75988800D01*
X105534022Y-76203535D01*
X105534021Y-76203542D01*
X105514647Y-76424997D01*
X105514647Y-76425002D01*
X105534021Y-76646457D01*
X105534022Y-76646465D01*
X105591558Y-76861191D01*
X105591559Y-76861193D01*
X105591560Y-76861196D01*
X105611974Y-76904973D01*
X105685511Y-77062676D01*
X105685512Y-77062677D01*
X105813023Y-77244781D01*
X105970219Y-77401977D01*
X106152323Y-77529488D01*
X106266261Y-77582618D01*
X106318700Y-77628790D01*
X106337852Y-77695984D01*
X106317636Y-77762865D01*
X106266261Y-77807382D01*
X106152323Y-77860512D01*
X106152319Y-77860514D01*
X105970217Y-77988023D01*
X105813023Y-78145217D01*
X105685514Y-78327319D01*
X105685512Y-78327323D01*
X105591561Y-78528800D01*
X105534022Y-78743535D01*
X105534021Y-78743542D01*
X105514647Y-78964997D01*
X105514647Y-78965002D01*
X105534021Y-79186457D01*
X105534022Y-79186465D01*
X105591558Y-79401191D01*
X105591559Y-79401193D01*
X105591560Y-79401196D01*
X105638536Y-79501936D01*
X105685511Y-79602676D01*
X105697875Y-79620333D01*
X105813023Y-79784781D01*
X105970219Y-79941977D01*
X106152322Y-80069488D01*
X106152323Y-80069488D01*
X106266261Y-80122618D01*
X106318700Y-80168790D01*
X106337852Y-80235984D01*
X106317636Y-80302865D01*
X106266261Y-80347382D01*
X106152323Y-80400512D01*
X106152319Y-80400514D01*
X105970217Y-80528023D01*
X105813023Y-80685217D01*
X105685514Y-80867319D01*
X105685512Y-80867323D01*
X105591561Y-81068800D01*
X105534022Y-81283535D01*
X105534021Y-81283542D01*
X105514647Y-81504997D01*
X105514647Y-81505002D01*
X104702428Y-81505002D01*
X104702147Y-81504017D01*
X104722363Y-81437135D01*
X104773739Y-81392618D01*
X104887677Y-81339488D01*
X105069781Y-81211977D01*
X105226977Y-81054781D01*
X105354488Y-80872677D01*
X105448440Y-80671196D01*
X105505978Y-80456463D01*
X105525353Y-80235000D01*
X105524355Y-80223597D01*
X105505978Y-80013542D01*
X105505978Y-80013537D01*
X105448440Y-79798804D01*
X105354488Y-79597324D01*
X105354486Y-79597321D01*
X105354485Y-79597319D01*
X105226978Y-79415220D01*
X105172802Y-79361044D01*
X105069781Y-79258023D01*
X104887677Y-79130512D01*
X104773738Y-79077381D01*
X104721299Y-79031210D01*
X104702147Y-78964017D01*
X104722363Y-78897135D01*
X104773739Y-78852618D01*
X104887677Y-78799488D01*
X105069781Y-78671977D01*
X105226977Y-78514781D01*
X105354488Y-78332677D01*
X105448440Y-78131196D01*
X105505978Y-77916463D01*
X105525353Y-77695000D01*
X105524355Y-77683597D01*
X105505978Y-77473542D01*
X105505978Y-77473537D01*
X105448440Y-77258804D01*
X105354488Y-77057324D01*
X105354486Y-77057321D01*
X105354485Y-77057319D01*
X105226978Y-76875220D01*
X105212949Y-76861191D01*
X105069781Y-76718023D01*
X104887677Y-76590512D01*
X104773738Y-76537381D01*
X104721299Y-76491210D01*
X104702147Y-76424017D01*
X104722363Y-76357135D01*
X104773739Y-76312618D01*
X104801566Y-76299642D01*
X104887677Y-76259488D01*
X105069781Y-76131977D01*
X105226977Y-75974781D01*
X105354488Y-75792677D01*
X105448440Y-75591196D01*
X105505978Y-75376463D01*
X105524593Y-75163686D01*
X105525353Y-75155002D01*
X105525353Y-75154997D01*
X105515115Y-75037974D01*
X105505978Y-74933537D01*
X105448440Y-74718804D01*
X105354488Y-74517324D01*
X105354486Y-74517321D01*
X105354485Y-74517319D01*
X105226976Y-74335217D01*
X105083219Y-74191460D01*
X105049734Y-74130137D01*
X105046900Y-74103779D01*
X105046900Y-68391348D01*
X120228100Y-68391348D01*
X120242622Y-68520239D01*
X120299806Y-68683663D01*
X120299807Y-68683664D01*
X120330015Y-68731740D01*
X120330016Y-68731740D01*
X121534496Y-67527260D01*
X121595819Y-67493775D01*
X121665511Y-67498759D01*
X121712051Y-67529509D01*
X121816808Y-67639712D01*
X121848729Y-67701863D01*
X121841981Y-67771406D01*
X121814615Y-67812825D01*
X120612858Y-69014582D01*
X120660941Y-69044795D01*
X120824360Y-69101977D01*
X120953251Y-69116499D01*
X120953255Y-69116500D01*
X123985945Y-69116500D01*
X123985948Y-69116499D01*
X124114837Y-69101977D01*
X124278266Y-69044791D01*
X124326341Y-69014582D01*
X123121175Y-67809418D01*
X123087690Y-67748095D01*
X123092674Y-67678404D01*
X123128086Y-67627651D01*
X123198131Y-67567520D01*
X123219648Y-67539722D01*
X123276248Y-67498758D01*
X123346011Y-67494897D01*
X123405385Y-67527942D01*
X124609182Y-68731741D01*
X124639391Y-68683666D01*
X124696577Y-68520237D01*
X124711099Y-68391348D01*
X124711099Y-65633600D01*
X128626496Y-65633600D01*
X128646458Y-65823528D01*
X128646459Y-65823531D01*
X128705470Y-66005149D01*
X128705473Y-66005156D01*
X128800960Y-66170544D01*
X128928747Y-66312466D01*
X129083248Y-66424718D01*
X129257712Y-66502394D01*
X129444513Y-66542100D01*
X129635487Y-66542100D01*
X129822288Y-66502394D01*
X129996752Y-66424718D01*
X130151253Y-66312466D01*
X130279040Y-66170544D01*
X130374527Y-66005156D01*
X130433542Y-65823528D01*
X130448165Y-65684400D01*
X140310496Y-65684400D01*
X140330458Y-65874328D01*
X140330459Y-65874331D01*
X140389470Y-66055949D01*
X140389473Y-66055956D01*
X140484960Y-66221344D01*
X140612747Y-66363266D01*
X140767248Y-66475518D01*
X140941712Y-66553194D01*
X141128513Y-66592900D01*
X141319487Y-66592900D01*
X141506288Y-66553194D01*
X141680752Y-66475518D01*
X141835253Y-66363266D01*
X141963040Y-66221344D01*
X142058527Y-66055956D01*
X142117542Y-65874328D01*
X142137504Y-65684400D01*
X142117542Y-65494472D01*
X142058527Y-65312844D01*
X142000711Y-65212704D01*
X141984100Y-65150706D01*
X141984100Y-62294391D01*
X142003785Y-62227352D01*
X142015951Y-62211418D01*
X142064640Y-62157344D01*
X142160127Y-61991956D01*
X142219142Y-61810328D01*
X142239104Y-61620400D01*
X142219142Y-61430472D01*
X142160127Y-61248844D01*
X142064640Y-61083456D01*
X141936853Y-60941534D01*
X141782352Y-60829282D01*
X141607888Y-60751606D01*
X141607886Y-60751605D01*
X141421087Y-60711900D01*
X141230113Y-60711900D01*
X141043314Y-60751605D01*
X140868846Y-60829283D01*
X140714345Y-60941535D01*
X140586559Y-61083457D01*
X140491073Y-61248843D01*
X140491070Y-61248850D01*
X140432059Y-61430468D01*
X140432058Y-61430472D01*
X140412096Y-61620400D01*
X140432058Y-61810328D01*
X140432059Y-61810331D01*
X140491070Y-61991949D01*
X140491073Y-61991956D01*
X140586559Y-62157343D01*
X140635249Y-62211418D01*
X140665480Y-62274410D01*
X140667100Y-62294391D01*
X140667100Y-64902863D01*
X140647415Y-64969902D01*
X140615988Y-65003179D01*
X140612748Y-65005532D01*
X140612746Y-65005534D01*
X140484959Y-65147457D01*
X140389473Y-65312843D01*
X140389470Y-65312850D01*
X140346965Y-65443668D01*
X140330458Y-65494472D01*
X140310496Y-65684400D01*
X130448165Y-65684400D01*
X130453504Y-65633600D01*
X130433542Y-65443672D01*
X130374527Y-65262044D01*
X130279040Y-65096656D01*
X130230349Y-65042579D01*
X130200119Y-64979589D01*
X130198500Y-64959620D01*
X130198500Y-63157987D01*
X130218184Y-63090952D01*
X130230338Y-63075031D01*
X130279040Y-63020944D01*
X130374527Y-62855556D01*
X130433542Y-62673928D01*
X130453504Y-62484000D01*
X130433542Y-62294072D01*
X130374527Y-62112444D01*
X130279040Y-61947056D01*
X130151253Y-61805134D01*
X129996752Y-61692882D01*
X129822288Y-61615206D01*
X129822286Y-61615205D01*
X129635487Y-61575500D01*
X129444513Y-61575500D01*
X129257714Y-61615205D01*
X129083246Y-61692883D01*
X128928745Y-61805135D01*
X128800959Y-61947057D01*
X128705473Y-62112443D01*
X128705470Y-62112450D01*
X128646459Y-62294068D01*
X128646458Y-62294072D01*
X128626496Y-62484000D01*
X128646458Y-62673928D01*
X128646459Y-62673931D01*
X128705470Y-62855549D01*
X128705473Y-62855556D01*
X128800959Y-63020943D01*
X128849649Y-63075018D01*
X128879880Y-63138010D01*
X128881500Y-63157991D01*
X128881500Y-64959608D01*
X128861815Y-65026647D01*
X128849650Y-65042580D01*
X128800959Y-65096657D01*
X128705473Y-65262043D01*
X128705470Y-65262050D01*
X128646459Y-65443668D01*
X128646458Y-65443672D01*
X128626496Y-65633600D01*
X124711099Y-65633600D01*
X124711099Y-65358651D01*
X124696577Y-65229760D01*
X124639395Y-65066341D01*
X124609182Y-65018258D01*
X123404702Y-66222738D01*
X123343379Y-66256223D01*
X123273687Y-66251239D01*
X123227147Y-66220489D01*
X123122390Y-66110286D01*
X123090469Y-66048135D01*
X123097217Y-65978592D01*
X123124583Y-65937173D01*
X124326340Y-64735416D01*
X124326340Y-64735415D01*
X124278264Y-64705207D01*
X124278263Y-64705206D01*
X124114839Y-64648022D01*
X123985948Y-64633500D01*
X120953251Y-64633500D01*
X120824360Y-64648022D01*
X120660936Y-64705206D01*
X120612857Y-64735415D01*
X120612857Y-64735416D01*
X121818024Y-65940581D01*
X121851509Y-66001904D01*
X121846525Y-66071595D01*
X121811114Y-66122347D01*
X121741068Y-66182480D01*
X121719550Y-66210279D01*
X121662947Y-66251242D01*
X121593184Y-66255101D01*
X121533814Y-66222057D01*
X120330016Y-65018257D01*
X120330015Y-65018257D01*
X120299806Y-65066336D01*
X120242622Y-65229760D01*
X120228100Y-65358651D01*
X120228100Y-68391348D01*
X105046900Y-68391348D01*
X105046900Y-59802833D01*
X105066585Y-59735794D01*
X105090371Y-59708541D01*
X105108359Y-59693178D01*
X105108360Y-59693176D01*
X105108369Y-59693169D01*
X105262576Y-59512616D01*
X105386640Y-59310163D01*
X105428294Y-59209602D01*
X105477504Y-59090797D01*
X105477504Y-59090796D01*
X105477505Y-59090794D01*
X105532935Y-58859911D01*
X105551565Y-58623200D01*
X105532935Y-58386489D01*
X105528785Y-58369205D01*
X112641202Y-58369205D01*
X112660361Y-58600418D01*
X112717317Y-58825335D01*
X112810516Y-59037809D01*
X112922754Y-59209602D01*
X113464714Y-58667642D01*
X113526037Y-58634157D01*
X113595728Y-58639141D01*
X113651662Y-58681012D01*
X113656710Y-58688284D01*
X113664237Y-58699997D01*
X113664239Y-58699999D01*
X113742423Y-58767745D01*
X113780198Y-58826522D01*
X113780198Y-58896392D01*
X113748902Y-58949139D01*
X113207438Y-59490602D01*
X113207439Y-59490603D01*
X113277646Y-59545248D01*
X113481697Y-59655676D01*
X113481706Y-59655679D01*
X113701139Y-59731011D01*
X113929993Y-59769200D01*
X114162007Y-59769200D01*
X114390860Y-59731011D01*
X114610293Y-59655679D01*
X114610301Y-59655676D01*
X114814355Y-59545247D01*
X114814356Y-59545246D01*
X114884559Y-59490603D01*
X114884560Y-59490602D01*
X114343096Y-58949139D01*
X114309611Y-58887816D01*
X114314595Y-58818125D01*
X114349574Y-58767745D01*
X114427761Y-58699998D01*
X114435288Y-58688284D01*
X114488088Y-58642531D01*
X114557246Y-58632584D01*
X114620803Y-58661607D01*
X114627285Y-58667642D01*
X115169244Y-59209602D01*
X115281482Y-59037811D01*
X115374682Y-58825335D01*
X115431638Y-58600418D01*
X115450798Y-58369205D01*
X115450798Y-58369194D01*
X115431638Y-58137981D01*
X115374682Y-57913064D01*
X115281484Y-57700593D01*
X115169244Y-57528796D01*
X114627285Y-58070756D01*
X114565962Y-58104241D01*
X114496270Y-58099257D01*
X114440337Y-58057385D01*
X114435289Y-58050115D01*
X114427760Y-58038400D01*
X114349575Y-57970653D01*
X114311800Y-57911875D01*
X114311800Y-57842006D01*
X114343096Y-57789259D01*
X114884559Y-57247796D01*
X114884559Y-57247795D01*
X114814353Y-57193151D01*
X114610302Y-57082723D01*
X114610293Y-57082720D01*
X114390860Y-57007388D01*
X114162007Y-56969200D01*
X113929993Y-56969200D01*
X113701139Y-57007388D01*
X113481706Y-57082720D01*
X113481697Y-57082723D01*
X113277650Y-57193148D01*
X113207439Y-57247795D01*
X113207439Y-57247796D01*
X113748903Y-57789260D01*
X113782388Y-57850583D01*
X113777404Y-57920275D01*
X113742424Y-57970654D01*
X113664240Y-58038399D01*
X113656709Y-58050118D01*
X113603904Y-58095872D01*
X113534745Y-58105813D01*
X113471190Y-58076787D01*
X113464714Y-58070757D01*
X112922753Y-57528796D01*
X112810516Y-57700590D01*
X112717317Y-57913064D01*
X112660361Y-58137981D01*
X112641202Y-58369194D01*
X112641202Y-58369205D01*
X105528785Y-58369205D01*
X105477505Y-58155606D01*
X105477504Y-58155603D01*
X105477504Y-58155602D01*
X105386642Y-57936240D01*
X105386640Y-57936237D01*
X105262579Y-57733789D01*
X105262578Y-57733786D01*
X105206917Y-57668616D01*
X105108369Y-57553231D01*
X104946471Y-57414957D01*
X104927813Y-57399021D01*
X104927810Y-57399020D01*
X104725362Y-57274959D01*
X104725359Y-57274957D01*
X104505996Y-57184095D01*
X104275114Y-57128665D01*
X104038400Y-57110035D01*
X103801685Y-57128665D01*
X103570804Y-57184095D01*
X103570802Y-57184095D01*
X103351440Y-57274957D01*
X103351437Y-57274959D01*
X103148989Y-57399020D01*
X103148986Y-57399021D01*
X102968431Y-57553231D01*
X102814221Y-57733786D01*
X102814220Y-57733789D01*
X102690159Y-57936237D01*
X102690157Y-57936240D01*
X102599295Y-58155602D01*
X102599295Y-58155604D01*
X102543865Y-58386485D01*
X102525235Y-58623199D01*
X95010500Y-58623199D01*
X95010500Y-50067763D01*
X98145787Y-50067763D01*
X98175413Y-50337013D01*
X98175415Y-50337024D01*
X98243926Y-50599082D01*
X98243928Y-50599088D01*
X98349870Y-50848390D01*
X98490979Y-51079605D01*
X98490982Y-51079610D01*
X98664253Y-51287819D01*
X98664259Y-51287824D01*
X98749611Y-51364299D01*
X98865998Y-51468582D01*
X99091910Y-51618044D01*
X99337176Y-51733020D01*
X99337183Y-51733022D01*
X99337185Y-51733023D01*
X99596557Y-51811057D01*
X99596564Y-51811058D01*
X99596569Y-51811060D01*
X99864561Y-51850500D01*
X99864566Y-51850500D01*
X100067636Y-51850500D01*
X100119133Y-51846730D01*
X100270156Y-51835677D01*
X100407371Y-51805111D01*
X100534546Y-51776782D01*
X100534548Y-51776781D01*
X100534553Y-51776780D01*
X100787558Y-51680014D01*
X101023777Y-51547441D01*
X101238177Y-51381888D01*
X101426186Y-51186881D01*
X101583799Y-50966579D01*
X101663434Y-50811687D01*
X101707649Y-50725690D01*
X101707651Y-50725684D01*
X101707656Y-50725675D01*
X101795118Y-50469305D01*
X101844319Y-50202933D01*
X101850390Y-50036824D01*
X104793800Y-50036824D01*
X104793801Y-51975175D01*
X104796611Y-52028094D01*
X104841329Y-52259311D01*
X104924481Y-52479651D01*
X105043674Y-52682767D01*
X105043679Y-52682774D01*
X105195479Y-52862818D01*
X105195481Y-52862820D01*
X105375525Y-53014620D01*
X105375532Y-53014625D01*
X105578648Y-53133818D01*
X105798986Y-53216970D01*
X106030208Y-53261689D01*
X106083129Y-53264500D01*
X108021470Y-53264499D01*
X108021475Y-53264499D01*
X108033593Y-53263855D01*
X108074392Y-53261689D01*
X108305614Y-53216970D01*
X108525952Y-53133818D01*
X108729068Y-53014625D01*
X108909119Y-52862819D01*
X109060925Y-52682768D01*
X109180118Y-52479652D01*
X109253786Y-52284443D01*
X109295873Y-52228672D01*
X109361431Y-52204508D01*
X109429646Y-52219623D01*
X109478861Y-52269218D01*
X109493800Y-52328225D01*
X109493800Y-55804654D01*
X109500311Y-55865202D01*
X109500311Y-55865204D01*
X109540872Y-55973948D01*
X109551411Y-56002204D01*
X109639039Y-56119261D01*
X109756096Y-56206889D01*
X109893099Y-56257989D01*
X109920350Y-56260918D01*
X109953645Y-56264499D01*
X109953662Y-56264500D01*
X113550938Y-56264500D01*
X113550954Y-56264499D01*
X113577992Y-56261591D01*
X113611501Y-56257989D01*
X113748504Y-56206889D01*
X113865561Y-56119261D01*
X113953189Y-56002204D01*
X114004289Y-55865201D01*
X114007891Y-55831692D01*
X114010799Y-55804654D01*
X114010800Y-55804637D01*
X114010800Y-52207362D01*
X114010799Y-52207345D01*
X114007457Y-52176270D01*
X114004289Y-52146799D01*
X113953189Y-52009796D01*
X113865561Y-51892739D01*
X113748504Y-51805111D01*
X113611503Y-51754011D01*
X113550954Y-51747500D01*
X113550938Y-51747500D01*
X109953662Y-51747500D01*
X109953645Y-51747500D01*
X109893097Y-51754011D01*
X109893095Y-51754011D01*
X109756095Y-51805111D01*
X109639039Y-51892739D01*
X109551410Y-52009796D01*
X109550976Y-52010961D01*
X109550232Y-52011953D01*
X109547163Y-52017576D01*
X109546353Y-52017134D01*
X109509098Y-52066890D01*
X109443631Y-52091299D01*
X109375360Y-52076439D01*
X109325960Y-52027028D01*
X109310799Y-51967617D01*
X109310799Y-50036830D01*
X109307989Y-49983908D01*
X109263270Y-49752686D01*
X109180118Y-49532348D01*
X109060925Y-49329232D01*
X109060920Y-49329225D01*
X108909120Y-49149181D01*
X108909118Y-49149179D01*
X108729074Y-48997379D01*
X108729067Y-48997374D01*
X108525951Y-48878181D01*
X108305611Y-48795029D01*
X108074396Y-48750311D01*
X108021475Y-48747500D01*
X108021471Y-48747500D01*
X107158641Y-48747500D01*
X106083125Y-48747501D01*
X106030205Y-48750311D01*
X105798988Y-48795029D01*
X105578648Y-48878181D01*
X105375532Y-48997374D01*
X105375525Y-48997379D01*
X105195481Y-49149179D01*
X105195479Y-49149181D01*
X105043679Y-49329225D01*
X105043674Y-49329232D01*
X104924481Y-49532348D01*
X104841329Y-49752688D01*
X104796611Y-49983903D01*
X104793800Y-50036824D01*
X101850390Y-50036824D01*
X101854212Y-49932235D01*
X101824586Y-49662982D01*
X101756072Y-49400912D01*
X101650130Y-49151610D01*
X101509018Y-48920390D01*
X101504995Y-48915556D01*
X101335746Y-48712180D01*
X101335740Y-48712175D01*
X101134002Y-48531418D01*
X100908092Y-48381957D01*
X100811759Y-48336798D01*
X100662824Y-48266980D01*
X100662819Y-48266978D01*
X100662814Y-48266976D01*
X100403442Y-48188942D01*
X100403428Y-48188939D01*
X100287791Y-48171921D01*
X100135439Y-48149500D01*
X99932369Y-48149500D01*
X99932364Y-48149500D01*
X99729844Y-48164323D01*
X99729831Y-48164325D01*
X99465453Y-48223217D01*
X99465446Y-48223220D01*
X99212439Y-48319987D01*
X98976226Y-48452557D01*
X98761822Y-48618112D01*
X98573822Y-48813109D01*
X98573816Y-48813116D01*
X98416202Y-49033419D01*
X98416199Y-49033424D01*
X98292350Y-49274309D01*
X98292343Y-49274327D01*
X98204884Y-49530685D01*
X98204881Y-49530699D01*
X98183857Y-49644525D01*
X98161610Y-49764971D01*
X98155681Y-49797068D01*
X98155680Y-49797075D01*
X98145787Y-50067763D01*
X95010500Y-50067763D01*
X95010500Y-49999999D01*
X95027436Y-49590517D01*
X95027856Y-49585448D01*
X95078235Y-49181281D01*
X95079073Y-49176259D01*
X95162654Y-48777643D01*
X95163909Y-48772690D01*
X95280123Y-48382335D01*
X95281769Y-48377542D01*
X95429821Y-47998118D01*
X95431865Y-47993456D01*
X95523507Y-47806000D01*
X109602300Y-47806000D01*
X110128300Y-47806000D01*
X110195339Y-47825685D01*
X110241094Y-47878489D01*
X110252300Y-47930000D01*
X110252300Y-48082000D01*
X110232615Y-48149039D01*
X110179811Y-48194794D01*
X110128300Y-48206000D01*
X109602301Y-48206000D01*
X109602301Y-48826982D01*
X109608447Y-48915559D01*
X109608448Y-48915568D01*
X109657241Y-49123017D01*
X109657246Y-49123032D01*
X109743328Y-49317990D01*
X109863774Y-49493820D01*
X110014479Y-49644525D01*
X110190309Y-49764971D01*
X110385267Y-49851053D01*
X110385282Y-49851058D01*
X110592729Y-49899850D01*
X110592743Y-49899852D01*
X110681317Y-49906000D01*
X111552299Y-49905999D01*
X111552299Y-49905998D01*
X111552300Y-48630000D01*
X111571985Y-48562961D01*
X111624789Y-48517206D01*
X111676300Y-48506000D01*
X111828300Y-48506000D01*
X111895339Y-48525685D01*
X111941094Y-48578489D01*
X111952300Y-48630000D01*
X111952300Y-49905999D01*
X112823282Y-49905999D01*
X112911859Y-49899852D01*
X112911868Y-49899851D01*
X113119317Y-49851058D01*
X113119332Y-49851053D01*
X113314290Y-49764971D01*
X113490120Y-49644525D01*
X113640825Y-49493820D01*
X113761271Y-49317990D01*
X113847353Y-49123032D01*
X113847358Y-49123017D01*
X113896150Y-48915570D01*
X113896152Y-48915556D01*
X113902300Y-48826983D01*
X113902300Y-48206000D01*
X113376300Y-48206000D01*
X113309261Y-48186315D01*
X113263506Y-48133511D01*
X113252300Y-48082000D01*
X113252300Y-47930000D01*
X113271985Y-47862961D01*
X113324789Y-47817206D01*
X113376300Y-47806000D01*
X113902299Y-47806000D01*
X113902299Y-47185018D01*
X113896152Y-47096440D01*
X113896151Y-47096431D01*
X113847358Y-46888982D01*
X113847353Y-46888967D01*
X113761271Y-46694009D01*
X113640825Y-46518179D01*
X113490120Y-46367474D01*
X113314290Y-46247028D01*
X113119332Y-46160946D01*
X113119317Y-46160941D01*
X112911870Y-46112149D01*
X112911856Y-46112147D01*
X112823283Y-46106000D01*
X111952300Y-46106000D01*
X111952300Y-47382000D01*
X111932615Y-47449039D01*
X111879811Y-47494794D01*
X111828300Y-47506000D01*
X111676300Y-47506000D01*
X111609261Y-47486315D01*
X111563506Y-47433511D01*
X111552300Y-47382000D01*
X111552299Y-46106000D01*
X110681319Y-46106001D01*
X110681318Y-46106001D01*
X110592740Y-46112147D01*
X110592731Y-46112148D01*
X110385282Y-46160941D01*
X110385267Y-46160946D01*
X110190309Y-46247028D01*
X110014479Y-46367474D01*
X109863774Y-46518179D01*
X109743328Y-46694009D01*
X109657246Y-46888967D01*
X109657241Y-46888982D01*
X109608449Y-47096429D01*
X109608447Y-47096443D01*
X109602300Y-47185017D01*
X109602300Y-47806000D01*
X95523507Y-47806000D01*
X95610746Y-47627550D01*
X95613173Y-47623066D01*
X95821657Y-47273184D01*
X95824440Y-47268925D01*
X96061116Y-46937439D01*
X96064221Y-46933450D01*
X96327466Y-46622639D01*
X96330894Y-46618915D01*
X96618915Y-46330894D01*
X96622639Y-46327466D01*
X96933450Y-46064221D01*
X96937439Y-46061116D01*
X97268925Y-45824440D01*
X97273184Y-45821657D01*
X97623072Y-45613169D01*
X97627550Y-45610746D01*
X97993456Y-45431865D01*
X97998118Y-45429821D01*
X98377542Y-45281769D01*
X98382335Y-45280123D01*
X98772698Y-45163906D01*
X98777643Y-45162654D01*
X99176259Y-45079073D01*
X99181281Y-45078235D01*
X99585448Y-45027856D01*
X99590517Y-45027436D01*
X100000000Y-45010500D01*
X100003412Y-45010500D01*
X120599053Y-45010500D01*
X120666092Y-45030185D01*
G37*
%TD.AperFunction*%
%TD*%
M02*
