%TF.GenerationSoftware,KiCad,Pcbnew,7.99.0-2684-g11de95778b*%
%TF.CreationDate,2023-09-09T13:36:23-04:00*%
%TF.ProjectId,ArenaController,4172656e-6143-46f6-9e74-726f6c6c6572,v2.0b*%
%TF.SameCoordinates,Original*%
%TF.FileFunction,Copper,L2,Bot*%
%TF.FilePolarity,Positive*%
%FSLAX46Y46*%
G04 Gerber Fmt 4.6, Leading zero omitted, Abs format (unit mm)*
G04 Created by KiCad (PCBNEW 7.99.0-2684-g11de95778b) date 2023-09-09 13:36:23*
%MOMM*%
%LPD*%
G01*
G04 APERTURE LIST*
G04 Aperture macros list*
%AMRoundRect*
0 Rectangle with rounded corners*
0 $1 Rounding radius*
0 $2 $3 $4 $5 $6 $7 $8 $9 X,Y pos of 4 corners*
0 Add a 4 corners polygon primitive as box body*
4,1,4,$2,$3,$4,$5,$6,$7,$8,$9,$2,$3,0*
0 Add four circle primitives for the rounded corners*
1,1,$1+$1,$2,$3*
1,1,$1+$1,$4,$5*
1,1,$1+$1,$6,$7*
1,1,$1+$1,$8,$9*
0 Add four rect primitives between the rounded corners*
20,1,$1+$1,$2,$3,$4,$5,0*
20,1,$1+$1,$4,$5,$6,$7,0*
20,1,$1+$1,$6,$7,$8,$9,0*
20,1,$1+$1,$8,$9,$2,$3,0*%
%AMFreePoly0*
4,1,26,0.335306,0.780194,0.389950,0.741421,0.741421,0.389950,0.788777,0.314585,0.800000,0.248529,0.800000,-0.248529,0.780194,-0.335306,0.741421,-0.389950,0.389950,-0.741421,0.314585,-0.788777,0.248529,-0.800000,0.000000,-0.800000,-0.248529,-0.800000,-0.335306,-0.780194,-0.389950,-0.741421,-0.741421,-0.389950,-0.788777,-0.314585,-0.800000,-0.248529,-0.800000,0.248529,-0.780194,0.335306,
-0.741421,0.389950,-0.389950,0.741421,-0.314585,0.788777,-0.248529,0.800000,0.248529,0.800000,0.335306,0.780194,0.335306,0.780194,$1*%
G04 Aperture macros list end*
%TA.AperFunction,ComponentPad*%
%ADD10C,2.000000*%
%TD*%
%TA.AperFunction,ComponentPad*%
%ADD11C,1.524000*%
%TD*%
%TA.AperFunction,ComponentPad*%
%ADD12R,3.500000X3.500000*%
%TD*%
%TA.AperFunction,ComponentPad*%
%ADD13RoundRect,0.750000X-1.000000X0.750000X-1.000000X-0.750000X1.000000X-0.750000X1.000000X0.750000X0*%
%TD*%
%TA.AperFunction,ComponentPad*%
%ADD14RoundRect,0.875000X-0.875000X0.875000X-0.875000X-0.875000X0.875000X-0.875000X0.875000X0.875000X0*%
%TD*%
%TA.AperFunction,ComponentPad*%
%ADD15RoundRect,0.368300X-1.473200X-1.473200X1.473200X-1.473200X1.473200X1.473200X-1.473200X1.473200X0*%
%TD*%
%TA.AperFunction,ComponentPad*%
%ADD16FreePoly0,180.000000*%
%TD*%
%TA.AperFunction,ComponentPad*%
%ADD17C,1.600000*%
%TD*%
%TA.AperFunction,ComponentPad*%
%ADD18RoundRect,0.200000X0.600000X0.600000X-0.600000X0.600000X-0.600000X-0.600000X0.600000X-0.600000X0*%
%TD*%
%TA.AperFunction,ComponentPad*%
%ADD19R,1.574800X1.574800*%
%TD*%
%TA.AperFunction,ComponentPad*%
%ADD20C,1.574800*%
%TD*%
%TA.AperFunction,ViaPad*%
%ADD21C,0.800000*%
%TD*%
%TA.AperFunction,ViaPad*%
%ADD22C,2.000000*%
%TD*%
%TA.AperFunction,Conductor*%
%ADD23C,0.600000*%
%TD*%
%TA.AperFunction,Conductor*%
%ADD24C,1.000000*%
%TD*%
G04 APERTURE END LIST*
D10*
%TO.P,TP2,1,1*%
%TO.N,GND*%
X114046000Y-58369200D03*
%TD*%
%TO.P,TP3,1,1*%
%TO.N,+5V*%
X172466000Y-59944000D03*
%TD*%
D11*
%TO.P,J1,1*%
%TO.N,+12V*%
X170750000Y-84045000D03*
%TO.P,J1,2*%
%TO.N,/s_Red_1*%
X168210000Y-82775000D03*
%TO.P,J1,3*%
%TO.N,/s_Yellow*%
X170750000Y-81505000D03*
%TO.P,J1,4*%
%TO.N,/s_Green*%
X168210000Y-80235000D03*
%TO.P,J1,5*%
%TO.N,/s_Horn*%
X170750000Y-78965000D03*
%TO.P,J1,6*%
%TO.N,unconnected-(J1-Pad6)*%
X168210000Y-77695000D03*
%TO.P,J1,7*%
%TO.N,unconnected-(J1-Pad7)*%
X170750000Y-76425000D03*
%TO.P,J1,8*%
%TO.N,GND*%
X168210000Y-75155000D03*
%TD*%
%TO.P,J6,1*%
%TO.N,unconnected-(J6-Pad1)*%
X170750000Y-100045000D03*
%TO.P,J6,2*%
%TO.N,unconnected-(J6-Pad2)*%
X168210000Y-98775000D03*
%TO.P,J6,3*%
%TO.N,unconnected-(J6-Pad3)*%
X170750000Y-97505000D03*
%TO.P,J6,4*%
%TO.N,/T_A_Start*%
X168210000Y-96235000D03*
%TO.P,J6,5*%
%TO.N,unconnected-(J6-Pad5)*%
X170750000Y-94965000D03*
%TO.P,J6,6*%
%TO.N,unconnected-(J6-Pad6)*%
X168210000Y-93695000D03*
%TO.P,J6,7*%
%TO.N,/T_A_End*%
X170750000Y-92425000D03*
%TO.P,J6,8*%
%TO.N,GND*%
X168210000Y-91155000D03*
%TD*%
%TO.P,J4,1*%
%TO.N,unconnected-(J4-Pad1)*%
X152191400Y-126055600D03*
%TO.P,J4,2*%
%TO.N,unconnected-(J4-Pad2)*%
X153461400Y-123515600D03*
%TO.P,J4,3*%
%TO.N,unconnected-(J4-Pad3)*%
X154731400Y-126055600D03*
%TO.P,J4,4*%
%TO.N,/G_Start*%
X156001400Y-123515600D03*
%TO.P,J4,5*%
%TO.N,/G_RST*%
X157271400Y-126055600D03*
%TO.P,J4,6*%
%TO.N,/G_Pause*%
X158541400Y-123515600D03*
%TO.P,J4,7*%
%TO.N,/G_End*%
X159811400Y-126055600D03*
%TO.P,J4,8*%
%TO.N,GND*%
X161081400Y-123515600D03*
%TD*%
D12*
%TO.P,J9,1*%
%TO.N,+12V*%
X111752300Y-54006000D03*
D13*
%TO.P,J9,2*%
%TO.N,GND*%
X111752300Y-48006000D03*
D14*
%TO.P,J9,3,MountPin*%
%TO.N,unconnected-(J9-MountPin-Pad3)*%
X107052300Y-51006000D03*
%TD*%
D11*
%TO.P,J2,1*%
%TO.N,+12V*%
X104250000Y-75155000D03*
%TO.P,J2,2*%
%TO.N,/s_Red_2*%
X106790000Y-76425000D03*
%TO.P,J2,3*%
%TO.N,/s_Yellow*%
X104250000Y-77695000D03*
%TO.P,J2,4*%
%TO.N,/s_Green*%
X106790000Y-78965000D03*
%TO.P,J2,5*%
%TO.N,/s_Horn*%
X104250000Y-80235000D03*
%TO.P,J2,6*%
%TO.N,unconnected-(J2-Pad6)*%
X106790000Y-81505000D03*
%TO.P,J2,7*%
%TO.N,unconnected-(J2-Pad7)*%
X104250000Y-82775000D03*
%TO.P,J2,8*%
%TO.N,GND*%
X106790000Y-84045000D03*
%TD*%
D10*
%TO.P,TP1,1,1*%
%TO.N,+12V*%
X104038400Y-58623200D03*
%TD*%
D11*
%TO.P,J5,1*%
%TO.N,unconnected-(J5-Pad1)*%
X104250000Y-91155000D03*
%TO.P,J5,2*%
%TO.N,unconnected-(J5-Pad2)*%
X106790000Y-92425000D03*
%TO.P,J5,3*%
%TO.N,unconnected-(J5-Pad3)*%
X104250000Y-93695000D03*
%TO.P,J5,4*%
%TO.N,/T_B_End*%
X106790000Y-94965000D03*
%TO.P,J5,5*%
%TO.N,unconnected-(J5-Pad5)*%
X104250000Y-96235000D03*
%TO.P,J5,6*%
%TO.N,unconnected-(J5-Pad6)*%
X106790000Y-97505000D03*
%TO.P,J5,7*%
%TO.N,/T_B_Start*%
X104250000Y-98775000D03*
%TO.P,J5,8*%
%TO.N,GND*%
X106790000Y-100045000D03*
%TD*%
D15*
%TO.P,U1,1,IN+*%
%TO.N,+12V*%
X122529600Y-47498000D03*
%TO.P,U1,2,IN-*%
%TO.N,GND*%
X122469600Y-66875000D03*
%TO.P,U1,3,OUT+*%
%TO.N,+5V*%
X167406600Y-47438000D03*
%TO.P,U1,4,OUT-*%
%TO.N,GND*%
X167406600Y-66875000D03*
%TD*%
D10*
%TO.P,TP4,1,1*%
%TO.N,GND*%
X172212000Y-67437000D03*
%TD*%
D16*
%TO.P,U2,1,GP0*%
%TO.N,/G_RST*%
X144780000Y-126615000D03*
D17*
%TO.P,U2,2,GP1*%
%TO.N,/G_Start*%
X144780000Y-124075000D03*
D18*
%TO.P,U2,3*%
%TO.N,N/C*%
X144780000Y-121535000D03*
D17*
%TO.P,U2,4,GP2*%
%TO.N,/G_Pause*%
X144780000Y-118995000D03*
%TO.P,U2,5,GP3*%
%TO.N,/G_End*%
X144780000Y-116455000D03*
D18*
%TO.P,U2,8*%
%TO.N,N/C*%
X144780000Y-108835000D03*
D17*
%TO.P,U2,9,GP6*%
%TO.N,unconnected-(U2-GP6-Pad9)*%
X144780000Y-106295000D03*
%TO.P,U2,10,GP7*%
%TO.N,unconnected-(U2-GP7-Pad10)*%
X144780000Y-103755000D03*
%TO.P,U2,11,GP8*%
%TO.N,unconnected-(U2-GP8-Pad11)*%
X144780000Y-101215000D03*
%TO.P,U2,12,GP9*%
%TO.N,unconnected-(U2-GP9-Pad12)*%
X144780000Y-98675000D03*
D18*
%TO.P,U2,13*%
%TO.N,N/C*%
X144780000Y-96135000D03*
D17*
%TO.P,U2,14,GP10*%
%TO.N,/T_A_Start*%
X144780000Y-93595000D03*
%TO.P,U2,15,GP11*%
%TO.N,/T_A_End*%
X144780000Y-91055000D03*
%TO.P,U2,16,GP12*%
%TO.N,unconnected-(U2-GP12-Pad16)*%
X144780000Y-88515000D03*
%TO.P,U2,17,GP13*%
%TO.N,unconnected-(U2-GP13-Pad17)*%
X144780000Y-85975000D03*
D18*
%TO.P,U2,18*%
%TO.N,N/C*%
X144780000Y-83435000D03*
D17*
%TO.P,U2,19,GP14*%
%TO.N,unconnected-(U2-GP14-Pad19)*%
X144780000Y-80895000D03*
%TO.P,U2,20,GP15*%
%TO.N,/m_Red_1*%
X144780000Y-78355000D03*
%TO.P,U2,21,GP16*%
%TO.N,unconnected-(U2-GP16-Pad21)*%
X127000000Y-78355000D03*
%TO.P,U2,22,GP17*%
%TO.N,unconnected-(U2-GP17-Pad22)*%
X127000000Y-80895000D03*
D18*
%TO.P,U2,23*%
%TO.N,N/C*%
X127000000Y-83435000D03*
D17*
%TO.P,U2,24,GP18*%
%TO.N,/m_Red_2*%
X127000000Y-85975000D03*
%TO.P,U2,25,GP19*%
%TO.N,/m_Yellow*%
X127000000Y-88515000D03*
%TO.P,U2,26,GP20*%
%TO.N,/m_Green*%
X127000000Y-91055000D03*
%TO.P,U2,27,GP21*%
%TO.N,/m_Horn*%
X127000000Y-93595000D03*
D18*
%TO.P,U2,28*%
%TO.N,N/C*%
X127000000Y-96135000D03*
D17*
%TO.P,U2,29,GP22*%
%TO.N,unconnected-(U2-GP22-Pad29)*%
X127000000Y-98675000D03*
%TO.P,U2,30,RUN*%
%TO.N,unconnected-(U2-RUN-Pad30)*%
X127000000Y-101215000D03*
%TO.P,U2,31,GP26*%
%TO.N,/T_B_End*%
X127000000Y-103755000D03*
%TO.P,U2,32,GP27*%
%TO.N,/T_B_Start*%
X127000000Y-106295000D03*
D18*
%TO.P,U2,33*%
%TO.N,N/C*%
X127000000Y-108835000D03*
D17*
%TO.P,U2,36,3V3*%
%TO.N,+3V3*%
X127000000Y-116455000D03*
%TO.P,U2,37*%
%TO.N,N/C*%
X127000000Y-118995000D03*
D18*
%TO.P,U2,38*%
X127000000Y-121535000D03*
D17*
%TO.P,U2,39,VSYS*%
%TO.N,unconnected-(U2-VSYS-Pad39)*%
X127000000Y-124075000D03*
%TO.P,U2,40,VBUS*%
%TO.N,+5V*%
X127000000Y-126615000D03*
D16*
%TO.P,U2,41*%
%TO.N,N/C*%
X138430000Y-78585000D03*
D19*
X135305800Y-96785000D03*
D18*
%TO.P,U2,42*%
X135890000Y-78585000D03*
D20*
X132765800Y-96785000D03*
D17*
%TO.P,U2,43*%
X133350000Y-78585000D03*
D20*
X130225800Y-96785000D03*
%TD*%
D21*
%TO.N,+12V*%
X157099000Y-81915000D03*
%TO.N,GND*%
X156591000Y-94615000D03*
X138557000Y-90551000D03*
X109982000Y-75819000D03*
X119380000Y-105029000D03*
X109347000Y-88138000D03*
X152400000Y-120142000D03*
X116205000Y-71755000D03*
X149098000Y-120650000D03*
X154178000Y-117602000D03*
X162433000Y-102108000D03*
X111633000Y-79629000D03*
X122682000Y-92075000D03*
X116205000Y-102997000D03*
X117221000Y-97790000D03*
X110363000Y-83185000D03*
X113157000Y-101346000D03*
X150622000Y-123952000D03*
X139319000Y-99822000D03*
X110109000Y-70866000D03*
X103378000Y-86614000D03*
X106299000Y-85852000D03*
X123825000Y-89535000D03*
X116840000Y-76200000D03*
X116332000Y-86233000D03*
X141605000Y-105918000D03*
X133350000Y-119888000D03*
X161544000Y-85979000D03*
X116840000Y-81280000D03*
X148336000Y-126492000D03*
X141224000Y-109474000D03*
X133223000Y-105664000D03*
X130302000Y-114935000D03*
X98425000Y-82296000D03*
X112395000Y-108458000D03*
X118237000Y-109474000D03*
X151384000Y-92329000D03*
X150114000Y-117729000D03*
X155067000Y-87884000D03*
X162306000Y-94107000D03*
X154051000Y-100076000D03*
X138684000Y-107823000D03*
D22*
%TO.N,+5V*%
X150495000Y-112522000D03*
%TD*%
D23*
%TO.N,+12V*%
X127254000Y-71755000D02*
X127254000Y-52222400D01*
X145669000Y-73660000D02*
X129159000Y-73660000D01*
X157099000Y-81915000D02*
X151089065Y-75905065D01*
D24*
X104038400Y-74943400D02*
X104250000Y-75155000D01*
X104038400Y-58623200D02*
X104038400Y-74943400D01*
D23*
X127254000Y-52222400D02*
G75*
G03*
X122529600Y-47498000I-4724400J0D01*
G01*
X151089065Y-75905065D02*
G75*
G03*
X145669000Y-73659992I-5420065J-5420035D01*
G01*
X129159000Y-73660000D02*
G75*
G02*
X127254000Y-71755000I0J1905000D01*
G01*
D24*
%TO.N,GND*%
X111752300Y-48006000D02*
X113131600Y-48006000D01*
%TO.N,+5V*%
X120777000Y-113538000D02*
X120473039Y-113841961D01*
X150495000Y-112522000D02*
X123229840Y-112522000D01*
X119126000Y-117094000D02*
X119126000Y-123698000D01*
X122047000Y-126619000D02*
X126996000Y-126619000D01*
X120473039Y-113841961D02*
G75*
G03*
X119126007Y-117094000I3252061J-3252039D01*
G01*
X119126000Y-123698000D02*
G75*
G03*
X122047000Y-126619000I2921000J0D01*
G01*
X126996000Y-126619000D02*
G75*
G03*
X127000000Y-126615000I0J4000D01*
G01*
X123229840Y-112522000D02*
G75*
G03*
X120776988Y-113537988I-40J-3468800D01*
G01*
%TD*%
%TA.AperFunction,Conductor*%
%TO.N,GND*%
G36*
X120666092Y-45030185D02*
G01*
X120711847Y-45082989D01*
X120721791Y-45152147D01*
X120692766Y-45215703D01*
X120654147Y-45245588D01*
X120581402Y-45281665D01*
X120581399Y-45281667D01*
X120432753Y-45401152D01*
X120432752Y-45401153D01*
X120313267Y-45549799D01*
X120313265Y-45549802D01*
X120228532Y-45720652D01*
X120182504Y-45905729D01*
X120179600Y-45948558D01*
X120179601Y-49047440D01*
X120179601Y-49047441D01*
X120182503Y-49090263D01*
X120182503Y-49090264D01*
X120204510Y-49178755D01*
X120227158Y-49269825D01*
X120228532Y-49275347D01*
X120313265Y-49446197D01*
X120313267Y-49446200D01*
X120432752Y-49594846D01*
X120432753Y-49594847D01*
X120581399Y-49714332D01*
X120581402Y-49714334D01*
X120683503Y-49764971D01*
X120752256Y-49799069D01*
X120901245Y-49836121D01*
X120937329Y-49845095D01*
X120937330Y-49845095D01*
X120937334Y-49845096D01*
X120976172Y-49847729D01*
X120980158Y-49848000D01*
X120980158Y-49847999D01*
X120980159Y-49848000D01*
X124079040Y-49847999D01*
X124079041Y-49847999D01*
X124089746Y-49847273D01*
X124121866Y-49845096D01*
X124306944Y-49799069D01*
X124477801Y-49714332D01*
X124626447Y-49594847D01*
X124745932Y-49446201D01*
X124830669Y-49275344D01*
X124830670Y-49275336D01*
X124832987Y-49269034D01*
X124835142Y-49269825D01*
X124865022Y-49218741D01*
X124927305Y-49187076D01*
X124996820Y-49194110D01*
X125029300Y-49213568D01*
X125155050Y-49317990D01*
X125165518Y-49326682D01*
X125169752Y-49330542D01*
X125421457Y-49582247D01*
X125425315Y-49586479D01*
X125652728Y-49860341D01*
X125656173Y-49864904D01*
X125857346Y-50158582D01*
X125860362Y-50163453D01*
X125957035Y-50337013D01*
X126030718Y-50469300D01*
X126033576Y-50474430D01*
X126036125Y-50479549D01*
X126179913Y-50805200D01*
X126181977Y-50810528D01*
X126295102Y-51148046D01*
X126296670Y-51153557D01*
X126378166Y-51500059D01*
X126379219Y-51505691D01*
X126428398Y-51858242D01*
X126428926Y-51863947D01*
X126445434Y-52220975D01*
X126445500Y-52223839D01*
X126445500Y-71907393D01*
X126479620Y-72210229D01*
X126479623Y-72210243D01*
X126547441Y-72507376D01*
X126547445Y-72507388D01*
X126648103Y-72795051D01*
X126780337Y-73069637D01*
X126780339Y-73069640D01*
X126942488Y-73327699D01*
X127132512Y-73565981D01*
X127348019Y-73781488D01*
X127586301Y-73971512D01*
X127831307Y-74125459D01*
X127844362Y-74133662D01*
X127860931Y-74141641D01*
X128118952Y-74265898D01*
X128317055Y-74335217D01*
X128406611Y-74366554D01*
X128406623Y-74366558D01*
X128703756Y-74434377D01*
X128703765Y-74434378D01*
X128703770Y-74434379D01*
X128905660Y-74457125D01*
X129006607Y-74468499D01*
X129006610Y-74468500D01*
X145669000Y-74468500D01*
X146155943Y-74485891D01*
X146160341Y-74486206D01*
X146642612Y-74538055D01*
X146646962Y-74538681D01*
X147124326Y-74624807D01*
X147128598Y-74625736D01*
X147598610Y-74745699D01*
X147602830Y-74746939D01*
X148063045Y-74900115D01*
X148067184Y-74901659D01*
X148515294Y-75087273D01*
X148519321Y-75089112D01*
X148953045Y-75306219D01*
X148956931Y-75308341D01*
X149374070Y-75555842D01*
X149377779Y-75558224D01*
X149776215Y-75834865D01*
X149779742Y-75837506D01*
X150157405Y-76141848D01*
X150160746Y-76144743D01*
X150283991Y-76259488D01*
X150517529Y-76476921D01*
X156213248Y-82172640D01*
X156243498Y-82222003D01*
X156264470Y-82286549D01*
X156264473Y-82286556D01*
X156359960Y-82451944D01*
X156487747Y-82593866D01*
X156642248Y-82706118D01*
X156816712Y-82783794D01*
X157003513Y-82823500D01*
X157194487Y-82823500D01*
X157381288Y-82783794D01*
X157401035Y-82775002D01*
X166934647Y-82775002D01*
X166954021Y-82996457D01*
X166954022Y-82996465D01*
X167011558Y-83211191D01*
X167011559Y-83211193D01*
X167011560Y-83211196D01*
X167058536Y-83311936D01*
X167105511Y-83412676D01*
X167105512Y-83412677D01*
X167233023Y-83594781D01*
X167390219Y-83751977D01*
X167572323Y-83879488D01*
X167773804Y-83973440D01*
X167988537Y-84030978D01*
X168146724Y-84044817D01*
X168209998Y-84050353D01*
X168210000Y-84050353D01*
X168210002Y-84050353D01*
X168271164Y-84045002D01*
X169474647Y-84045002D01*
X169494021Y-84266457D01*
X169494022Y-84266465D01*
X169551558Y-84481191D01*
X169551559Y-84481193D01*
X169551560Y-84481196D01*
X169593065Y-84570203D01*
X169645511Y-84682676D01*
X169663477Y-84708334D01*
X169773023Y-84864781D01*
X169930219Y-85021977D01*
X170112323Y-85149488D01*
X170313804Y-85243440D01*
X170528537Y-85300978D01*
X170686724Y-85314817D01*
X170749998Y-85320353D01*
X170750000Y-85320353D01*
X170750002Y-85320353D01*
X170805365Y-85315509D01*
X170811183Y-85315000D01*
X175459443Y-85315000D01*
X175479641Y-85571641D01*
X175539739Y-85821964D01*
X175638250Y-86059793D01*
X175638252Y-86059796D01*
X175772759Y-86279292D01*
X175772763Y-86279297D01*
X175848548Y-86368030D01*
X175939951Y-86475049D01*
X176065253Y-86582066D01*
X176135702Y-86642236D01*
X176135707Y-86642240D01*
X176355203Y-86776747D01*
X176355206Y-86776749D01*
X176533213Y-86850481D01*
X176593040Y-86875262D01*
X176843360Y-86935359D01*
X177100000Y-86955557D01*
X177356640Y-86935359D01*
X177606960Y-86875262D01*
X177742065Y-86819300D01*
X177844793Y-86776749D01*
X177844794Y-86776748D01*
X177844797Y-86776747D01*
X178064295Y-86642238D01*
X178260049Y-86475049D01*
X178427238Y-86279295D01*
X178561747Y-86059797D01*
X178660262Y-85821960D01*
X178720359Y-85571640D01*
X178740557Y-85315000D01*
X178720359Y-85058360D01*
X178660262Y-84808040D01*
X178658680Y-84804220D01*
X178561749Y-84570206D01*
X178561747Y-84570203D01*
X178427240Y-84350707D01*
X178427236Y-84350702D01*
X178367066Y-84280253D01*
X178260049Y-84154951D01*
X178131315Y-84045002D01*
X178064297Y-83987763D01*
X178064292Y-83987759D01*
X177844796Y-83853252D01*
X177844793Y-83853250D01*
X177606964Y-83754739D01*
X177356641Y-83694641D01*
X177100000Y-83674443D01*
X176843358Y-83694641D01*
X176593035Y-83754739D01*
X176355206Y-83853250D01*
X176355203Y-83853252D01*
X176135707Y-83987759D01*
X176135702Y-83987763D01*
X175939951Y-84154951D01*
X175772763Y-84350702D01*
X175772759Y-84350707D01*
X175638252Y-84570203D01*
X175638250Y-84570206D01*
X175539739Y-84808035D01*
X175479641Y-85058358D01*
X175459443Y-85315000D01*
X170811183Y-85315000D01*
X170971463Y-85300978D01*
X171186196Y-85243440D01*
X171387677Y-85149488D01*
X171569781Y-85021977D01*
X171726977Y-84864781D01*
X171854488Y-84682677D01*
X171948440Y-84481196D01*
X172005978Y-84266463D01*
X172025353Y-84045000D01*
X172022562Y-84013102D01*
X172010609Y-83876470D01*
X172005978Y-83823537D01*
X171948440Y-83608804D01*
X171854488Y-83407324D01*
X171854486Y-83407321D01*
X171854485Y-83407319D01*
X171726978Y-83225220D01*
X171712949Y-83211191D01*
X171569781Y-83068023D01*
X171387677Y-82940512D01*
X171273738Y-82887381D01*
X171221299Y-82841210D01*
X171202147Y-82774017D01*
X171222363Y-82707135D01*
X171273739Y-82662618D01*
X171387677Y-82609488D01*
X171569781Y-82481977D01*
X171726977Y-82324781D01*
X171854488Y-82142677D01*
X171948440Y-81941196D01*
X172005978Y-81726463D01*
X172025353Y-81505000D01*
X172019092Y-81433440D01*
X172011289Y-81344243D01*
X172005978Y-81283537D01*
X171948440Y-81068804D01*
X171854488Y-80867324D01*
X171854486Y-80867321D01*
X171854485Y-80867319D01*
X171726978Y-80685220D01*
X171659945Y-80618187D01*
X171569781Y-80528023D01*
X171387677Y-80400512D01*
X171273738Y-80347381D01*
X171221299Y-80301210D01*
X171202147Y-80234017D01*
X171222363Y-80167135D01*
X171273739Y-80122618D01*
X171387677Y-80069488D01*
X171569781Y-79941977D01*
X171726977Y-79784781D01*
X171854488Y-79602677D01*
X171948440Y-79401196D01*
X172005978Y-79186463D01*
X172025353Y-78965000D01*
X172019092Y-78893440D01*
X172011289Y-78804243D01*
X172005978Y-78743537D01*
X171948440Y-78528804D01*
X171854488Y-78327324D01*
X171854486Y-78327321D01*
X171854485Y-78327319D01*
X171726978Y-78145220D01*
X171664765Y-78083007D01*
X171569781Y-77988023D01*
X171387677Y-77860512D01*
X171366744Y-77850751D01*
X171273739Y-77807382D01*
X171221299Y-77761210D01*
X171202147Y-77694017D01*
X171222363Y-77627135D01*
X171273739Y-77582618D01*
X171281914Y-77578806D01*
X171387677Y-77529488D01*
X171569781Y-77401977D01*
X171726977Y-77244781D01*
X171854488Y-77062677D01*
X171948440Y-76861196D01*
X172005978Y-76646463D01*
X172025353Y-76425000D01*
X172019092Y-76353440D01*
X172015521Y-76312618D01*
X172005978Y-76203537D01*
X171948440Y-75988804D01*
X171854488Y-75787324D01*
X171854486Y-75787321D01*
X171854485Y-75787319D01*
X171726978Y-75605220D01*
X171657758Y-75536000D01*
X171569781Y-75448023D01*
X171425144Y-75346747D01*
X171387676Y-75320511D01*
X171286936Y-75273536D01*
X171186196Y-75226560D01*
X171186193Y-75226559D01*
X171186191Y-75226558D01*
X170971465Y-75169022D01*
X170971457Y-75169021D01*
X170750002Y-75149647D01*
X170749998Y-75149647D01*
X170528542Y-75169021D01*
X170528535Y-75169022D01*
X170313800Y-75226561D01*
X170112323Y-75320512D01*
X170112319Y-75320514D01*
X169930217Y-75448023D01*
X169773023Y-75605217D01*
X169645514Y-75787319D01*
X169645512Y-75787323D01*
X169551561Y-75988800D01*
X169494022Y-76203535D01*
X169494021Y-76203542D01*
X169474647Y-76424997D01*
X169474647Y-76425002D01*
X169494021Y-76646457D01*
X169494022Y-76646465D01*
X169551558Y-76861191D01*
X169551559Y-76861193D01*
X169551560Y-76861196D01*
X169596545Y-76957666D01*
X169645511Y-77062676D01*
X169645512Y-77062677D01*
X169773023Y-77244781D01*
X169930219Y-77401977D01*
X170112323Y-77529488D01*
X170218077Y-77578802D01*
X170226261Y-77582618D01*
X170278700Y-77628790D01*
X170297852Y-77695984D01*
X170277636Y-77762865D01*
X170226261Y-77807382D01*
X170112323Y-77860512D01*
X170112319Y-77860514D01*
X169930217Y-77988023D01*
X169773023Y-78145217D01*
X169645514Y-78327319D01*
X169645512Y-78327323D01*
X169551561Y-78528800D01*
X169494022Y-78743535D01*
X169494021Y-78743542D01*
X169474647Y-78964997D01*
X169474647Y-78965002D01*
X169494021Y-79186457D01*
X169494022Y-79186465D01*
X169551558Y-79401191D01*
X169551559Y-79401193D01*
X169551560Y-79401196D01*
X169586227Y-79475539D01*
X169645511Y-79602676D01*
X169645512Y-79602677D01*
X169773023Y-79784781D01*
X169930219Y-79941977D01*
X170085484Y-80050695D01*
X170112323Y-80069488D01*
X170226261Y-80122618D01*
X170278700Y-80168790D01*
X170297852Y-80235984D01*
X170277636Y-80302865D01*
X170226261Y-80347382D01*
X170112323Y-80400512D01*
X170112319Y-80400514D01*
X169930217Y-80528023D01*
X169773023Y-80685217D01*
X169645514Y-80867319D01*
X169645512Y-80867323D01*
X169551561Y-81068800D01*
X169494022Y-81283535D01*
X169494021Y-81283542D01*
X169474647Y-81504997D01*
X169474647Y-81505002D01*
X169494021Y-81726457D01*
X169494022Y-81726465D01*
X169551558Y-81941191D01*
X169551559Y-81941193D01*
X169551560Y-81941196D01*
X169577247Y-81996281D01*
X169645511Y-82142676D01*
X169645512Y-82142677D01*
X169773023Y-82324781D01*
X169930219Y-82481977D01*
X170090010Y-82593864D01*
X170112323Y-82609488D01*
X170226261Y-82662618D01*
X170278700Y-82708790D01*
X170297852Y-82775984D01*
X170277636Y-82842865D01*
X170226261Y-82887382D01*
X170112323Y-82940512D01*
X170112319Y-82940514D01*
X169930217Y-83068023D01*
X169773023Y-83225217D01*
X169645514Y-83407319D01*
X169645512Y-83407323D01*
X169551561Y-83608800D01*
X169494022Y-83823535D01*
X169494021Y-83823542D01*
X169474647Y-84044997D01*
X169474647Y-84045002D01*
X168271164Y-84045002D01*
X168431463Y-84030978D01*
X168646196Y-83973440D01*
X168847677Y-83879488D01*
X169029781Y-83751977D01*
X169186977Y-83594781D01*
X169314488Y-83412677D01*
X169408440Y-83211196D01*
X169465978Y-82996463D01*
X169485114Y-82777735D01*
X169485353Y-82775002D01*
X169485353Y-82774997D01*
X169465978Y-82553542D01*
X169465978Y-82553537D01*
X169408440Y-82338804D01*
X169314488Y-82137324D01*
X169314486Y-82137321D01*
X169314485Y-82137319D01*
X169186978Y-81955220D01*
X169132953Y-81901195D01*
X169029781Y-81798023D01*
X168847677Y-81670512D01*
X168733738Y-81617381D01*
X168681299Y-81571210D01*
X168662147Y-81504017D01*
X168682363Y-81437135D01*
X168733739Y-81392618D01*
X168764965Y-81378057D01*
X168847677Y-81339488D01*
X169029781Y-81211977D01*
X169186977Y-81054781D01*
X169314488Y-80872677D01*
X169408440Y-80671196D01*
X169465978Y-80456463D01*
X169485068Y-80238254D01*
X169485353Y-80235002D01*
X169485353Y-80234997D01*
X169469229Y-80050700D01*
X169465978Y-80013537D01*
X169408440Y-79798804D01*
X169314488Y-79597324D01*
X169314486Y-79597321D01*
X169314485Y-79597319D01*
X169186978Y-79415220D01*
X169109807Y-79338049D01*
X169029781Y-79258023D01*
X168847677Y-79130512D01*
X168733738Y-79077381D01*
X168681299Y-79031210D01*
X168662147Y-78964017D01*
X168682363Y-78897135D01*
X168733739Y-78852618D01*
X168847677Y-78799488D01*
X169029781Y-78671977D01*
X169186977Y-78514781D01*
X169314488Y-78332677D01*
X169408440Y-78131196D01*
X169465978Y-77916463D01*
X169485068Y-77698254D01*
X169485353Y-77695002D01*
X169485353Y-77694997D01*
X169469229Y-77510700D01*
X169465978Y-77473537D01*
X169408440Y-77258804D01*
X169314488Y-77057324D01*
X169314486Y-77057321D01*
X169314485Y-77057319D01*
X169186978Y-76875220D01*
X169172949Y-76861191D01*
X169029781Y-76718023D01*
X168847677Y-76590512D01*
X168847678Y-76590512D01*
X168847676Y-76590511D01*
X168733739Y-76537382D01*
X168646196Y-76496560D01*
X168646192Y-76496558D01*
X168646185Y-76496556D01*
X168609463Y-76486716D01*
X168549803Y-76450350D01*
X168519275Y-76387503D01*
X168527572Y-76318127D01*
X168572058Y-76264250D01*
X168596766Y-76251315D01*
X168730163Y-76199637D01*
X168730170Y-76199634D01*
X168879393Y-76107237D01*
X168879393Y-76107236D01*
X168298635Y-75526477D01*
X168335421Y-75520339D01*
X168447251Y-75459820D01*
X168533371Y-75366269D01*
X168584448Y-75249823D01*
X168584694Y-75246851D01*
X169161306Y-75823463D01*
X169202186Y-75769331D01*
X169202188Y-75769329D01*
X169298173Y-75576564D01*
X169357108Y-75369427D01*
X169376978Y-75155000D01*
X169376978Y-75154999D01*
X169357108Y-74940572D01*
X169298173Y-74733435D01*
X169202188Y-74540670D01*
X169202183Y-74540662D01*
X169161306Y-74486535D01*
X168580762Y-75067079D01*
X168563734Y-74999838D01*
X168494187Y-74893388D01*
X168393843Y-74815287D01*
X168299320Y-74782837D01*
X168879394Y-74202762D01*
X168730167Y-74110364D01*
X168730166Y-74110363D01*
X168529361Y-74032572D01*
X168317673Y-73993000D01*
X168102327Y-73993000D01*
X167890638Y-74032572D01*
X167689835Y-74110362D01*
X167689834Y-74110363D01*
X167540604Y-74202762D01*
X168121365Y-74783522D01*
X168084579Y-74789661D01*
X167972749Y-74850180D01*
X167886629Y-74943731D01*
X167835552Y-75060177D01*
X167835305Y-75063147D01*
X167258692Y-74486534D01*
X167217815Y-74540664D01*
X167121826Y-74733435D01*
X167062891Y-74940572D01*
X167043022Y-75154999D01*
X167043022Y-75155000D01*
X167062891Y-75369427D01*
X167121826Y-75576564D01*
X167217811Y-75769329D01*
X167217816Y-75769337D01*
X167258692Y-75823464D01*
X167839237Y-75242919D01*
X167856266Y-75310162D01*
X167925813Y-75416612D01*
X168026157Y-75494713D01*
X168120679Y-75527162D01*
X167540604Y-76107236D01*
X167689832Y-76199635D01*
X167689836Y-76199637D01*
X167823235Y-76251316D01*
X167878637Y-76293889D01*
X167902228Y-76359656D01*
X167886517Y-76427736D01*
X167836493Y-76476515D01*
X167810537Y-76486717D01*
X167773804Y-76496559D01*
X167572323Y-76590512D01*
X167572319Y-76590514D01*
X167390217Y-76718023D01*
X167233023Y-76875217D01*
X167105514Y-77057319D01*
X167105512Y-77057323D01*
X167011561Y-77258800D01*
X166954022Y-77473535D01*
X166954021Y-77473542D01*
X166934647Y-77694997D01*
X166934647Y-77695002D01*
X166954021Y-77916457D01*
X166954022Y-77916465D01*
X167011558Y-78131191D01*
X167011559Y-78131193D01*
X167011560Y-78131196D01*
X167058536Y-78231936D01*
X167105511Y-78332676D01*
X167105512Y-78332677D01*
X167233023Y-78514781D01*
X167390219Y-78671977D01*
X167572323Y-78799488D01*
X167686261Y-78852618D01*
X167738700Y-78898790D01*
X167757852Y-78965984D01*
X167737636Y-79032865D01*
X167686261Y-79077382D01*
X167572323Y-79130512D01*
X167572319Y-79130514D01*
X167390217Y-79258023D01*
X167233023Y-79415217D01*
X167105514Y-79597319D01*
X167105512Y-79597323D01*
X167011561Y-79798800D01*
X166954022Y-80013535D01*
X166954021Y-80013542D01*
X166934647Y-80234997D01*
X166934647Y-80235002D01*
X166954021Y-80456457D01*
X166954022Y-80456465D01*
X167011558Y-80671191D01*
X167011559Y-80671193D01*
X167011560Y-80671196D01*
X167058536Y-80771936D01*
X167105511Y-80872676D01*
X167105512Y-80872677D01*
X167233023Y-81054781D01*
X167390219Y-81211977D01*
X167572323Y-81339488D01*
X167655032Y-81378056D01*
X167686261Y-81392618D01*
X167738700Y-81438790D01*
X167757852Y-81505984D01*
X167737636Y-81572865D01*
X167686261Y-81617382D01*
X167572323Y-81670512D01*
X167572319Y-81670514D01*
X167390217Y-81798023D01*
X167233023Y-81955217D01*
X167105514Y-82137319D01*
X167105512Y-82137323D01*
X167011561Y-82338800D01*
X166954022Y-82553535D01*
X166954021Y-82553542D01*
X166934647Y-82774997D01*
X166934647Y-82775002D01*
X157401035Y-82775002D01*
X157555752Y-82706118D01*
X157710253Y-82593866D01*
X157838040Y-82451944D01*
X157933527Y-82286556D01*
X157992542Y-82104928D01*
X158012504Y-81915000D01*
X157992542Y-81725072D01*
X157933527Y-81543444D01*
X157838040Y-81378056D01*
X157710253Y-81236134D01*
X157555752Y-81123882D01*
X157555751Y-81123881D01*
X157388419Y-81049380D01*
X157351174Y-81023782D01*
X151627518Y-75300125D01*
X151627298Y-75299917D01*
X151464609Y-75137228D01*
X151464607Y-75137226D01*
X151047490Y-74771423D01*
X150806247Y-74586310D01*
X150607343Y-74433684D01*
X150607342Y-74433684D01*
X150146053Y-74125459D01*
X150146047Y-74125455D01*
X149729569Y-73885000D01*
X175459443Y-73885000D01*
X175479641Y-74141641D01*
X175539739Y-74391964D01*
X175638250Y-74629793D01*
X175638252Y-74629796D01*
X175772759Y-74849292D01*
X175772763Y-74849297D01*
X175816763Y-74900814D01*
X175939951Y-75045049D01*
X176031340Y-75123102D01*
X176135702Y-75212236D01*
X176135707Y-75212240D01*
X176355203Y-75346747D01*
X176355206Y-75346749D01*
X176533213Y-75420481D01*
X176593040Y-75445262D01*
X176843360Y-75505359D01*
X177100000Y-75525557D01*
X177356640Y-75505359D01*
X177606960Y-75445262D01*
X177725878Y-75396004D01*
X177844793Y-75346749D01*
X177844794Y-75346748D01*
X177844797Y-75346747D01*
X178064295Y-75212238D01*
X178260049Y-75045049D01*
X178427238Y-74849295D01*
X178561747Y-74629797D01*
X178598665Y-74540670D01*
X178628558Y-74468500D01*
X178660262Y-74391960D01*
X178720359Y-74141640D01*
X178740557Y-73885000D01*
X178720359Y-73628360D01*
X178660262Y-73378040D01*
X178639410Y-73327699D01*
X178561749Y-73140206D01*
X178561747Y-73140203D01*
X178427240Y-72920707D01*
X178427236Y-72920702D01*
X178351506Y-72832034D01*
X178260049Y-72724951D01*
X178107858Y-72594968D01*
X178064297Y-72557763D01*
X178064292Y-72557759D01*
X177844796Y-72423252D01*
X177844793Y-72423250D01*
X177606964Y-72324739D01*
X177356641Y-72264641D01*
X177100000Y-72244443D01*
X176843358Y-72264641D01*
X176593035Y-72324739D01*
X176355206Y-72423250D01*
X176355203Y-72423252D01*
X176135707Y-72557759D01*
X176135702Y-72557763D01*
X175939951Y-72724951D01*
X175772763Y-72920702D01*
X175772759Y-72920707D01*
X175638252Y-73140203D01*
X175638250Y-73140206D01*
X175539739Y-73378035D01*
X175479641Y-73628358D01*
X175459443Y-73885000D01*
X149729569Y-73885000D01*
X149665580Y-73848056D01*
X149168007Y-73602679D01*
X149168008Y-73602679D01*
X149168002Y-73602676D01*
X149167999Y-73602675D01*
X148983881Y-73526410D01*
X148655441Y-73390365D01*
X148130080Y-73212028D01*
X148130081Y-73212028D01*
X147630093Y-73078057D01*
X147594191Y-73068437D01*
X147139525Y-72977997D01*
X147050056Y-72960201D01*
X146500001Y-72887785D01*
X145946398Y-72851500D01*
X145946394Y-72851500D01*
X129161706Y-72851500D01*
X129156304Y-72851264D01*
X129112220Y-72847407D01*
X128979404Y-72835787D01*
X128958119Y-72832034D01*
X128794452Y-72788180D01*
X128774140Y-72780787D01*
X128620580Y-72709181D01*
X128601870Y-72698379D01*
X128463063Y-72601185D01*
X128446511Y-72587296D01*
X128326703Y-72467488D01*
X128312814Y-72450938D01*
X128215618Y-72312126D01*
X128204821Y-72293425D01*
X128133209Y-72139852D01*
X128125819Y-72119547D01*
X128081965Y-71955880D01*
X128078212Y-71934594D01*
X128062736Y-71757700D01*
X128062500Y-71752294D01*
X128062500Y-68391348D01*
X165165100Y-68391348D01*
X165179622Y-68520239D01*
X165236806Y-68683663D01*
X165236807Y-68683664D01*
X165267015Y-68731740D01*
X165267016Y-68731740D01*
X166572099Y-67426656D01*
X166611746Y-67490263D01*
X166751868Y-67637671D01*
X166854993Y-67709448D01*
X165549858Y-69014582D01*
X165597941Y-69044795D01*
X165761360Y-69101977D01*
X165890251Y-69116499D01*
X165890255Y-69116500D01*
X168922945Y-69116500D01*
X168922948Y-69116499D01*
X169051837Y-69101977D01*
X169215266Y-69044791D01*
X169263341Y-69014582D01*
X167960197Y-67711439D01*
X167980814Y-67699996D01*
X168135131Y-67567520D01*
X168242827Y-67428386D01*
X169546182Y-68731741D01*
X169576391Y-68683666D01*
X169633577Y-68520237D01*
X169648099Y-68391348D01*
X169648100Y-68391344D01*
X169648100Y-67437005D01*
X170807202Y-67437005D01*
X170826361Y-67668218D01*
X170883317Y-67893135D01*
X170976516Y-68105609D01*
X171088753Y-68277401D01*
X171744972Y-67621183D01*
X171752507Y-67646844D01*
X171830239Y-67767798D01*
X171938900Y-67861952D01*
X172028823Y-67903018D01*
X171373438Y-68558402D01*
X171373439Y-68558403D01*
X171443646Y-68613048D01*
X171647697Y-68723476D01*
X171647706Y-68723479D01*
X171867139Y-68798811D01*
X172095993Y-68837000D01*
X172328007Y-68837000D01*
X172556860Y-68798811D01*
X172776293Y-68723479D01*
X172776301Y-68723476D01*
X172980355Y-68613047D01*
X172980356Y-68613046D01*
X173050559Y-68558403D01*
X173050560Y-68558402D01*
X172395176Y-67903019D01*
X172485100Y-67861952D01*
X172593761Y-67767798D01*
X172671493Y-67646844D01*
X172679027Y-67621184D01*
X173335244Y-68277402D01*
X173447482Y-68105611D01*
X173540682Y-67893135D01*
X173597638Y-67668218D01*
X173616798Y-67437005D01*
X173616798Y-67436994D01*
X173597638Y-67205781D01*
X173540682Y-66980864D01*
X173447484Y-66768393D01*
X173335244Y-66596596D01*
X172679026Y-67252814D01*
X172671493Y-67227156D01*
X172593761Y-67106202D01*
X172485100Y-67012048D01*
X172395176Y-66970980D01*
X173050559Y-66315596D01*
X173050559Y-66315595D01*
X172980353Y-66260951D01*
X172776302Y-66150523D01*
X172776293Y-66150520D01*
X172556860Y-66075188D01*
X172328007Y-66037000D01*
X172095993Y-66037000D01*
X171867139Y-66075188D01*
X171647706Y-66150520D01*
X171647697Y-66150523D01*
X171443650Y-66260948D01*
X171373439Y-66315595D01*
X171373439Y-66315596D01*
X172028823Y-66970980D01*
X171938900Y-67012048D01*
X171830239Y-67106202D01*
X171752507Y-67227156D01*
X171744972Y-67252815D01*
X171088753Y-66596596D01*
X170976516Y-66768390D01*
X170883317Y-66980864D01*
X170826361Y-67205781D01*
X170807202Y-67436994D01*
X170807202Y-67437005D01*
X169648100Y-67437005D01*
X169648100Y-65358655D01*
X169648099Y-65358651D01*
X169633577Y-65229760D01*
X169576395Y-65066341D01*
X169546182Y-65018258D01*
X168241099Y-66323341D01*
X168201454Y-66259737D01*
X168061332Y-66112329D01*
X167958205Y-66040550D01*
X169263340Y-64735416D01*
X169263340Y-64735415D01*
X169215264Y-64705207D01*
X169215263Y-64705206D01*
X169051839Y-64648022D01*
X168922948Y-64633500D01*
X165890251Y-64633500D01*
X165761360Y-64648022D01*
X165597936Y-64705206D01*
X165549857Y-64735415D01*
X165549857Y-64735416D01*
X166853002Y-66038560D01*
X166832386Y-66050004D01*
X166678069Y-66182480D01*
X166570371Y-66321613D01*
X165267016Y-65018257D01*
X165267015Y-65018257D01*
X165236806Y-65066336D01*
X165179622Y-65229760D01*
X165165100Y-65358651D01*
X165165100Y-68391348D01*
X128062500Y-68391348D01*
X128062500Y-59944000D01*
X170952835Y-59944000D01*
X170971465Y-60180714D01*
X171026895Y-60411595D01*
X171026895Y-60411597D01*
X171117757Y-60630959D01*
X171117759Y-60630962D01*
X171241820Y-60833410D01*
X171241821Y-60833413D01*
X171241824Y-60833416D01*
X171396031Y-61013969D01*
X171535797Y-61133340D01*
X171576586Y-61168178D01*
X171576589Y-61168179D01*
X171779037Y-61292240D01*
X171779040Y-61292242D01*
X171998403Y-61383104D01*
X171998404Y-61383104D01*
X171998406Y-61383105D01*
X172229289Y-61438535D01*
X172466000Y-61457165D01*
X172702711Y-61438535D01*
X172933594Y-61383105D01*
X172933596Y-61383104D01*
X172933597Y-61383104D01*
X173152959Y-61292242D01*
X173152960Y-61292241D01*
X173152963Y-61292240D01*
X173355416Y-61168176D01*
X173535969Y-61013969D01*
X173690176Y-60833416D01*
X173814240Y-60630963D01*
X173905105Y-60411594D01*
X173960535Y-60180711D01*
X173979165Y-59944000D01*
X173960535Y-59707289D01*
X173905105Y-59476406D01*
X173905104Y-59476403D01*
X173905104Y-59476402D01*
X173814242Y-59257040D01*
X173814240Y-59257037D01*
X173690179Y-59054589D01*
X173690178Y-59054586D01*
X173655340Y-59013797D01*
X173535969Y-58874031D01*
X173416596Y-58772076D01*
X173355413Y-58719821D01*
X173355410Y-58719820D01*
X173152962Y-58595759D01*
X173152959Y-58595757D01*
X172933596Y-58504895D01*
X172702714Y-58449465D01*
X172466000Y-58430835D01*
X172229285Y-58449465D01*
X171998404Y-58504895D01*
X171998402Y-58504895D01*
X171779040Y-58595757D01*
X171779037Y-58595759D01*
X171576589Y-58719820D01*
X171576586Y-58719821D01*
X171396031Y-58874031D01*
X171241821Y-59054586D01*
X171241820Y-59054589D01*
X171117759Y-59257037D01*
X171117757Y-59257040D01*
X171026895Y-59476402D01*
X171026895Y-59476404D01*
X170971465Y-59707285D01*
X170952835Y-59944000D01*
X128062500Y-59944000D01*
X128062500Y-51993560D01*
X128047377Y-51811060D01*
X128036518Y-51680012D01*
X128024704Y-51537435D01*
X127949372Y-51085993D01*
X127837017Y-50642314D01*
X127822175Y-50599082D01*
X127688405Y-50209421D01*
X127626268Y-50067763D01*
X173145787Y-50067763D01*
X173175413Y-50337013D01*
X173175415Y-50337024D01*
X173212679Y-50479559D01*
X173243928Y-50599088D01*
X173349870Y-50848390D01*
X173421998Y-50966575D01*
X173490979Y-51079605D01*
X173490986Y-51079615D01*
X173664253Y-51287819D01*
X173664259Y-51287824D01*
X173865998Y-51468582D01*
X174091910Y-51618044D01*
X174337176Y-51733020D01*
X174337183Y-51733022D01*
X174337185Y-51733023D01*
X174596557Y-51811057D01*
X174596564Y-51811058D01*
X174596569Y-51811060D01*
X174864561Y-51850500D01*
X174864566Y-51850500D01*
X175067636Y-51850500D01*
X175119133Y-51846730D01*
X175270156Y-51835677D01*
X175407371Y-51805111D01*
X175534546Y-51776782D01*
X175534548Y-51776781D01*
X175534553Y-51776780D01*
X175787558Y-51680014D01*
X176023777Y-51547441D01*
X176238177Y-51381888D01*
X176426186Y-51186881D01*
X176583799Y-50966579D01*
X176666777Y-50805185D01*
X176707649Y-50725690D01*
X176707651Y-50725684D01*
X176707656Y-50725675D01*
X176795118Y-50469305D01*
X176844319Y-50202933D01*
X176854212Y-49932235D01*
X176824586Y-49662982D01*
X176756072Y-49400912D01*
X176650130Y-49151610D01*
X176509018Y-48920390D01*
X176504995Y-48915556D01*
X176335746Y-48712180D01*
X176335740Y-48712175D01*
X176134002Y-48531418D01*
X175908092Y-48381957D01*
X175811759Y-48336798D01*
X175662824Y-48266980D01*
X175662819Y-48266978D01*
X175662814Y-48266976D01*
X175403442Y-48188942D01*
X175403428Y-48188939D01*
X175287791Y-48171921D01*
X175135439Y-48149500D01*
X174932369Y-48149500D01*
X174932364Y-48149500D01*
X174729844Y-48164323D01*
X174729831Y-48164325D01*
X174465453Y-48223217D01*
X174465446Y-48223220D01*
X174212439Y-48319987D01*
X173976226Y-48452557D01*
X173761822Y-48618112D01*
X173573822Y-48813109D01*
X173573816Y-48813116D01*
X173416202Y-49033419D01*
X173416199Y-49033424D01*
X173292350Y-49274309D01*
X173292343Y-49274327D01*
X173204884Y-49530685D01*
X173204881Y-49530699D01*
X173183857Y-49644525D01*
X173156933Y-49790292D01*
X173155681Y-49797068D01*
X173155680Y-49797075D01*
X173145787Y-50067763D01*
X127626268Y-50067763D01*
X127504556Y-49790289D01*
X127504556Y-49790290D01*
X127286722Y-49387768D01*
X127036391Y-49004609D01*
X127036390Y-49004608D01*
X126859749Y-48777660D01*
X126755277Y-48643434D01*
X126445296Y-48306704D01*
X126108566Y-47996723D01*
X125747388Y-47715607D01*
X125605744Y-47623066D01*
X125364232Y-47465278D01*
X124961710Y-47247444D01*
X124961709Y-47247443D01*
X124953784Y-47243967D01*
X124900300Y-47199009D01*
X124879613Y-47132272D01*
X124879599Y-47130413D01*
X124879599Y-45948559D01*
X124878631Y-45934284D01*
X124876696Y-45905734D01*
X124830669Y-45720656D01*
X124777363Y-45613173D01*
X124745934Y-45549802D01*
X124745932Y-45549799D01*
X124626447Y-45401153D01*
X124626446Y-45401152D01*
X124477800Y-45281667D01*
X124477797Y-45281665D01*
X124405053Y-45245588D01*
X124353740Y-45198167D01*
X124336210Y-45130532D01*
X124358030Y-45064157D01*
X124412271Y-45020115D01*
X124460147Y-45010500D01*
X165368920Y-45010500D01*
X165435959Y-45030185D01*
X165481714Y-45082989D01*
X165491658Y-45152147D01*
X165462633Y-45215703D01*
X165446607Y-45231147D01*
X165309753Y-45341152D01*
X165309752Y-45341153D01*
X165190267Y-45489799D01*
X165190265Y-45489802D01*
X165105532Y-45660652D01*
X165059504Y-45845729D01*
X165056600Y-45888558D01*
X165056601Y-48987440D01*
X165056601Y-48987441D01*
X165059503Y-49030263D01*
X165059503Y-49030264D01*
X165105532Y-49215347D01*
X165190265Y-49386197D01*
X165190267Y-49386200D01*
X165309752Y-49534846D01*
X165309753Y-49534847D01*
X165458399Y-49654332D01*
X165458402Y-49654334D01*
X165579378Y-49714332D01*
X165629256Y-49739069D01*
X165778245Y-49776121D01*
X165814329Y-49785095D01*
X165814330Y-49785095D01*
X165814334Y-49785096D01*
X165853172Y-49787729D01*
X165857158Y-49788000D01*
X165857158Y-49787999D01*
X165857159Y-49788000D01*
X168956040Y-49787999D01*
X168956041Y-49787999D01*
X168966746Y-49787273D01*
X168998866Y-49785096D01*
X169183944Y-49739069D01*
X169354801Y-49654332D01*
X169503447Y-49534847D01*
X169622932Y-49386201D01*
X169707669Y-49215344D01*
X169753696Y-49030266D01*
X169756600Y-48987441D01*
X169756599Y-45888560D01*
X169753696Y-45845734D01*
X169707669Y-45660656D01*
X169684120Y-45613173D01*
X169622934Y-45489802D01*
X169622932Y-45489799D01*
X169503447Y-45341153D01*
X169503446Y-45341152D01*
X169427510Y-45280113D01*
X169366592Y-45231146D01*
X169326674Y-45173804D01*
X169324094Y-45103982D01*
X169359672Y-45043849D01*
X169422113Y-45012497D01*
X169444280Y-45010500D01*
X174996588Y-45010500D01*
X175000000Y-45010500D01*
X175409480Y-45027436D01*
X175414553Y-45027856D01*
X175818714Y-45078234D01*
X175823744Y-45079074D01*
X176222350Y-45162652D01*
X176227307Y-45163908D01*
X176617657Y-45280121D01*
X176622464Y-45281772D01*
X176928411Y-45401153D01*
X177001873Y-45429818D01*
X177006552Y-45431870D01*
X177372438Y-45610741D01*
X177376933Y-45613173D01*
X177726803Y-45821650D01*
X177731085Y-45824448D01*
X178062548Y-46061107D01*
X178066560Y-46064231D01*
X178377347Y-46327456D01*
X178381096Y-46330906D01*
X178669092Y-46618902D01*
X178672544Y-46622653D01*
X178935765Y-46933436D01*
X178938894Y-46937455D01*
X179160222Y-47247444D01*
X179175545Y-47268905D01*
X179178349Y-47273196D01*
X179386826Y-47623066D01*
X179389263Y-47627569D01*
X179476492Y-47806000D01*
X179568122Y-47993431D01*
X179570181Y-47998126D01*
X179718221Y-48377518D01*
X179719882Y-48382357D01*
X179740783Y-48452559D01*
X179836090Y-48772690D01*
X179837349Y-48777660D01*
X179920923Y-49176243D01*
X179921767Y-49181300D01*
X179972141Y-49585428D01*
X179972564Y-49590537D01*
X179989500Y-50000000D01*
X179989500Y-130000000D01*
X179972564Y-130409462D01*
X179972141Y-130414571D01*
X179921767Y-130818699D01*
X179920923Y-130823756D01*
X179837349Y-131222339D01*
X179836090Y-131227309D01*
X179719886Y-131617633D01*
X179718221Y-131622481D01*
X179570181Y-132001873D01*
X179568122Y-132006568D01*
X179389266Y-132372424D01*
X179386826Y-132376933D01*
X179178349Y-132726803D01*
X179175545Y-132731094D01*
X178938909Y-133062525D01*
X178935760Y-133066570D01*
X178672553Y-133377337D01*
X178669081Y-133381109D01*
X178381109Y-133669081D01*
X178377337Y-133672553D01*
X178066570Y-133935760D01*
X178062532Y-133938903D01*
X177976649Y-134000223D01*
X177731094Y-134175545D01*
X177726803Y-134178349D01*
X177376933Y-134386826D01*
X177372424Y-134389266D01*
X177006568Y-134568122D01*
X177001873Y-134570181D01*
X176622481Y-134718221D01*
X176617633Y-134719886D01*
X176227309Y-134836090D01*
X176222339Y-134837349D01*
X175823756Y-134920923D01*
X175818699Y-134921767D01*
X175414571Y-134972141D01*
X175409462Y-134972564D01*
X175000000Y-134989500D01*
X144781878Y-134989500D01*
X144778133Y-134989387D01*
X144478848Y-134971283D01*
X144471409Y-134970379D01*
X144178337Y-134916671D01*
X144171061Y-134914878D01*
X144028839Y-134870560D01*
X143886612Y-134826241D01*
X143879610Y-134823585D01*
X143607905Y-134701301D01*
X143601270Y-134697818D01*
X143421662Y-134589242D01*
X143346288Y-134543677D01*
X143340124Y-134539422D01*
X143105582Y-134355670D01*
X143099981Y-134350708D01*
X142889290Y-134140017D01*
X142884329Y-134134417D01*
X142700577Y-133899875D01*
X142696324Y-133893714D01*
X142542181Y-133638729D01*
X142538698Y-133632094D01*
X142416414Y-133360389D01*
X142413761Y-133353396D01*
X142325119Y-133068932D01*
X142323328Y-133061662D01*
X142269620Y-132768590D01*
X142268716Y-132761151D01*
X142266638Y-132726803D01*
X142250613Y-132461866D01*
X142250500Y-132458122D01*
X142250500Y-132405600D01*
X149280843Y-132405600D01*
X149301041Y-132662241D01*
X149361139Y-132912564D01*
X149459650Y-133150393D01*
X149459652Y-133150396D01*
X149594159Y-133369892D01*
X149594163Y-133369897D01*
X149651963Y-133437572D01*
X149761351Y-133565649D01*
X149846917Y-133638729D01*
X149957102Y-133732836D01*
X149957107Y-133732840D01*
X150176603Y-133867347D01*
X150176606Y-133867349D01*
X150349369Y-133938909D01*
X150414440Y-133965862D01*
X150664760Y-134025959D01*
X150921400Y-134046157D01*
X151178040Y-134025959D01*
X151428360Y-133965862D01*
X151587667Y-133899875D01*
X151666193Y-133867349D01*
X151666194Y-133867348D01*
X151666197Y-133867347D01*
X151885695Y-133732838D01*
X152081449Y-133565649D01*
X152248638Y-133369895D01*
X152383147Y-133150397D01*
X152481662Y-132912560D01*
X152541759Y-132662240D01*
X152561957Y-132405600D01*
X160710843Y-132405600D01*
X160731041Y-132662241D01*
X160791139Y-132912564D01*
X160889650Y-133150393D01*
X160889652Y-133150396D01*
X161024159Y-133369892D01*
X161024163Y-133369897D01*
X161081963Y-133437572D01*
X161191351Y-133565649D01*
X161276917Y-133638729D01*
X161387102Y-133732836D01*
X161387107Y-133732840D01*
X161606603Y-133867347D01*
X161606606Y-133867349D01*
X161779369Y-133938909D01*
X161844440Y-133965862D01*
X162094760Y-134025959D01*
X162351400Y-134046157D01*
X162608040Y-134025959D01*
X162858360Y-133965862D01*
X163017667Y-133899875D01*
X163096193Y-133867349D01*
X163096194Y-133867348D01*
X163096197Y-133867347D01*
X163315695Y-133732838D01*
X163511449Y-133565649D01*
X163678638Y-133369895D01*
X163813147Y-133150397D01*
X163911662Y-132912560D01*
X163971759Y-132662240D01*
X163991957Y-132405600D01*
X163971759Y-132148960D01*
X163911662Y-131898640D01*
X163891722Y-131850500D01*
X163813149Y-131660806D01*
X163813147Y-131660803D01*
X163678640Y-131441307D01*
X163678636Y-131441302D01*
X163547553Y-131287824D01*
X163511449Y-131245551D01*
X163340377Y-131099442D01*
X163315697Y-131078363D01*
X163315692Y-131078359D01*
X163096196Y-130943852D01*
X163096193Y-130943850D01*
X162858364Y-130845339D01*
X162608041Y-130785241D01*
X162351400Y-130765043D01*
X162094758Y-130785241D01*
X161844435Y-130845339D01*
X161606606Y-130943850D01*
X161606603Y-130943852D01*
X161387107Y-131078359D01*
X161387102Y-131078363D01*
X161191351Y-131245551D01*
X161024163Y-131441302D01*
X161024159Y-131441307D01*
X160889652Y-131660803D01*
X160889650Y-131660806D01*
X160791139Y-131898635D01*
X160731041Y-132148958D01*
X160710843Y-132405600D01*
X152561957Y-132405600D01*
X152541759Y-132148960D01*
X152481662Y-131898640D01*
X152461722Y-131850500D01*
X152383149Y-131660806D01*
X152383147Y-131660803D01*
X152248640Y-131441307D01*
X152248636Y-131441302D01*
X152117553Y-131287824D01*
X152081449Y-131245551D01*
X151910377Y-131099442D01*
X151885697Y-131078363D01*
X151885692Y-131078359D01*
X151666196Y-130943852D01*
X151666193Y-130943850D01*
X151428364Y-130845339D01*
X151178041Y-130785241D01*
X150921400Y-130765043D01*
X150664758Y-130785241D01*
X150414435Y-130845339D01*
X150176606Y-130943850D01*
X150176603Y-130943852D01*
X149957107Y-131078359D01*
X149957102Y-131078363D01*
X149761351Y-131245551D01*
X149594163Y-131441302D01*
X149594159Y-131441307D01*
X149459652Y-131660803D01*
X149459650Y-131660806D01*
X149361139Y-131898635D01*
X149301041Y-132148958D01*
X149280843Y-132405600D01*
X142250500Y-132405600D01*
X142250500Y-130666764D01*
X142250499Y-130666762D01*
X142245263Y-130620292D01*
X142232087Y-130503351D01*
X142218427Y-130382108D01*
X142154682Y-130102818D01*
X142154678Y-130102806D01*
X142142416Y-130067763D01*
X173145787Y-130067763D01*
X173175413Y-130337013D01*
X173175415Y-130337024D01*
X173243926Y-130599082D01*
X173243928Y-130599088D01*
X173349870Y-130848390D01*
X173421998Y-130966575D01*
X173490979Y-131079605D01*
X173490986Y-131079615D01*
X173664253Y-131287819D01*
X173664259Y-131287824D01*
X173865998Y-131468582D01*
X174091910Y-131618044D01*
X174337176Y-131733020D01*
X174337183Y-131733022D01*
X174337185Y-131733023D01*
X174596557Y-131811057D01*
X174596564Y-131811058D01*
X174596569Y-131811060D01*
X174864561Y-131850500D01*
X174864566Y-131850500D01*
X175067636Y-131850500D01*
X175119133Y-131846730D01*
X175270156Y-131835677D01*
X175382758Y-131810593D01*
X175534546Y-131776782D01*
X175534548Y-131776781D01*
X175534553Y-131776780D01*
X175787558Y-131680014D01*
X176023777Y-131547441D01*
X176238177Y-131381888D01*
X176426186Y-131186881D01*
X176583799Y-130966579D01*
X176687416Y-130765043D01*
X176707649Y-130725690D01*
X176707651Y-130725684D01*
X176707656Y-130725675D01*
X176795118Y-130469305D01*
X176844319Y-130202933D01*
X176854212Y-129932235D01*
X176824586Y-129662982D01*
X176756072Y-129400912D01*
X176650130Y-129151610D01*
X176509018Y-128920390D01*
X176419747Y-128813119D01*
X176335746Y-128712180D01*
X176335740Y-128712175D01*
X176134002Y-128531418D01*
X175908092Y-128381957D01*
X175851266Y-128355318D01*
X175662824Y-128266980D01*
X175662819Y-128266978D01*
X175662814Y-128266976D01*
X175403442Y-128188942D01*
X175403428Y-128188939D01*
X175287791Y-128171921D01*
X175135439Y-128149500D01*
X174932369Y-128149500D01*
X174932364Y-128149500D01*
X174729844Y-128164323D01*
X174729831Y-128164325D01*
X174465453Y-128223217D01*
X174465446Y-128223220D01*
X174212439Y-128319987D01*
X173976226Y-128452557D01*
X173761822Y-128618112D01*
X173573822Y-128813109D01*
X173573816Y-128813116D01*
X173416202Y-129033419D01*
X173416199Y-129033424D01*
X173292350Y-129274309D01*
X173292343Y-129274327D01*
X173204884Y-129530685D01*
X173204881Y-129530699D01*
X173155681Y-129797068D01*
X173155680Y-129797075D01*
X173145787Y-130067763D01*
X142142416Y-130067763D01*
X142060070Y-129832434D01*
X142060068Y-129832428D01*
X141935775Y-129574331D01*
X141783366Y-129331773D01*
X141604757Y-129107805D01*
X141402195Y-128905243D01*
X141178227Y-128726634D01*
X140935669Y-128574225D01*
X140935666Y-128574223D01*
X140677579Y-128449935D01*
X140677565Y-128449929D01*
X140407193Y-128355321D01*
X140407181Y-128355317D01*
X140127891Y-128291572D01*
X140127892Y-128291572D01*
X139843237Y-128259500D01*
X139843233Y-128259500D01*
X139702088Y-128259500D01*
X132083412Y-128259500D01*
X132080000Y-128259500D01*
X131936767Y-128259500D01*
X131936762Y-128259500D01*
X131652108Y-128291572D01*
X131372818Y-128355317D01*
X131372806Y-128355321D01*
X131102434Y-128449929D01*
X131102420Y-128449935D01*
X130844333Y-128574223D01*
X130601774Y-128726633D01*
X130377805Y-128905242D01*
X130175242Y-129107805D01*
X129996633Y-129331774D01*
X129844223Y-129574333D01*
X129719935Y-129832420D01*
X129719929Y-129832434D01*
X129625321Y-130102806D01*
X129625317Y-130102818D01*
X129561572Y-130382108D01*
X129529500Y-130666762D01*
X129529500Y-132458122D01*
X129529387Y-132461867D01*
X129511283Y-132761151D01*
X129510379Y-132768590D01*
X129456671Y-133061662D01*
X129454878Y-133068938D01*
X129366243Y-133353382D01*
X129363585Y-133360389D01*
X129241301Y-133632094D01*
X129237818Y-133638729D01*
X129083680Y-133893707D01*
X129079422Y-133899875D01*
X128895670Y-134134417D01*
X128890701Y-134140026D01*
X128680026Y-134350701D01*
X128674417Y-134355670D01*
X128439875Y-134539422D01*
X128433707Y-134543680D01*
X128178729Y-134697818D01*
X128172094Y-134701301D01*
X127900389Y-134823585D01*
X127893382Y-134826243D01*
X127608938Y-134914878D01*
X127601662Y-134916671D01*
X127308590Y-134970379D01*
X127301151Y-134971283D01*
X127001867Y-134989387D01*
X126998122Y-134989500D01*
X100000000Y-134989500D01*
X99590537Y-134972564D01*
X99585428Y-134972141D01*
X99181300Y-134921767D01*
X99176243Y-134920923D01*
X98777660Y-134837349D01*
X98772690Y-134836090D01*
X98537111Y-134765955D01*
X98382357Y-134719882D01*
X98377518Y-134718221D01*
X97998126Y-134570181D01*
X97993436Y-134568124D01*
X97627569Y-134389263D01*
X97623066Y-134386826D01*
X97273196Y-134178349D01*
X97268905Y-134175545D01*
X97250207Y-134162195D01*
X96937455Y-133938894D01*
X96933436Y-133935765D01*
X96622653Y-133672544D01*
X96618902Y-133669092D01*
X96330906Y-133381096D01*
X96327456Y-133377347D01*
X96064231Y-133066560D01*
X96061107Y-133062548D01*
X95824448Y-132731085D01*
X95821650Y-132726803D01*
X95613173Y-132376933D01*
X95610741Y-132372438D01*
X95431870Y-132006552D01*
X95429818Y-132001873D01*
X95370752Y-131850500D01*
X95281772Y-131622464D01*
X95280121Y-131617657D01*
X95163908Y-131227307D01*
X95162650Y-131222339D01*
X95079074Y-130823744D01*
X95078234Y-130818714D01*
X95027856Y-130414553D01*
X95027436Y-130409480D01*
X95013303Y-130067763D01*
X98145787Y-130067763D01*
X98175413Y-130337013D01*
X98175415Y-130337024D01*
X98243926Y-130599082D01*
X98243928Y-130599088D01*
X98349870Y-130848390D01*
X98421998Y-130966575D01*
X98490979Y-131079605D01*
X98490986Y-131079615D01*
X98664253Y-131287819D01*
X98664259Y-131287824D01*
X98865998Y-131468582D01*
X99091910Y-131618044D01*
X99337176Y-131733020D01*
X99337183Y-131733022D01*
X99337185Y-131733023D01*
X99596557Y-131811057D01*
X99596564Y-131811058D01*
X99596569Y-131811060D01*
X99864561Y-131850500D01*
X99864566Y-131850500D01*
X100067636Y-131850500D01*
X100119133Y-131846730D01*
X100270156Y-131835677D01*
X100382758Y-131810593D01*
X100534546Y-131776782D01*
X100534548Y-131776781D01*
X100534553Y-131776780D01*
X100787558Y-131680014D01*
X101023777Y-131547441D01*
X101238177Y-131381888D01*
X101426186Y-131186881D01*
X101583799Y-130966579D01*
X101687416Y-130765043D01*
X101707649Y-130725690D01*
X101707651Y-130725684D01*
X101707656Y-130725675D01*
X101795118Y-130469305D01*
X101844319Y-130202933D01*
X101854212Y-129932235D01*
X101824586Y-129662982D01*
X101756072Y-129400912D01*
X101650130Y-129151610D01*
X101509018Y-128920390D01*
X101419747Y-128813119D01*
X101335746Y-128712180D01*
X101335740Y-128712175D01*
X101134002Y-128531418D01*
X100908092Y-128381957D01*
X100851266Y-128355318D01*
X100662824Y-128266980D01*
X100662819Y-128266978D01*
X100662814Y-128266976D01*
X100403442Y-128188942D01*
X100403428Y-128188939D01*
X100287791Y-128171921D01*
X100135439Y-128149500D01*
X99932369Y-128149500D01*
X99932364Y-128149500D01*
X99729844Y-128164323D01*
X99729831Y-128164325D01*
X99465453Y-128223217D01*
X99465446Y-128223220D01*
X99212439Y-128319987D01*
X98976226Y-128452557D01*
X98761822Y-128618112D01*
X98573822Y-128813109D01*
X98573816Y-128813116D01*
X98416202Y-129033419D01*
X98416199Y-129033424D01*
X98292350Y-129274309D01*
X98292343Y-129274327D01*
X98204884Y-129530685D01*
X98204881Y-129530699D01*
X98155681Y-129797068D01*
X98155680Y-129797075D01*
X98145787Y-130067763D01*
X95013303Y-130067763D01*
X95010500Y-130000000D01*
X95010500Y-129996588D01*
X95010500Y-123879672D01*
X118117500Y-123879672D01*
X118121167Y-123919246D01*
X118151023Y-124241456D01*
X118151023Y-124241457D01*
X118217791Y-124598629D01*
X118309030Y-124919300D01*
X118317223Y-124948095D01*
X118448478Y-125286903D01*
X118610434Y-125612155D01*
X118708601Y-125770700D01*
X118801714Y-125921082D01*
X119020659Y-126211014D01*
X119020671Y-126211028D01*
X119020673Y-126211030D01*
X119265456Y-126479544D01*
X119533967Y-126724324D01*
X119533985Y-126724340D01*
X119823917Y-126943285D01*
X119823924Y-126943289D01*
X119823925Y-126943290D01*
X120132845Y-127134566D01*
X120458097Y-127296522D01*
X120796905Y-127427777D01*
X121146370Y-127527207D01*
X121146370Y-127527208D01*
X121146372Y-127527208D01*
X121146378Y-127527210D01*
X121503535Y-127593975D01*
X121503540Y-127593975D01*
X121503543Y-127593976D01*
X121677932Y-127610135D01*
X121865328Y-127627500D01*
X121997453Y-127627500D01*
X126125602Y-127627500D01*
X126192641Y-127647185D01*
X126196725Y-127649925D01*
X126343246Y-127752520D01*
X126343248Y-127752521D01*
X126343251Y-127752523D01*
X126468091Y-127810736D01*
X126550750Y-127849281D01*
X126550752Y-127849281D01*
X126550757Y-127849284D01*
X126771913Y-127908543D01*
X126917098Y-127921245D01*
X126999998Y-127928498D01*
X127000000Y-127928498D01*
X127000002Y-127928498D01*
X127057021Y-127923509D01*
X127228087Y-127908543D01*
X127449243Y-127849284D01*
X127656749Y-127752523D01*
X127844300Y-127621198D01*
X128006198Y-127459300D01*
X128137523Y-127271749D01*
X128203029Y-127131269D01*
X128249198Y-127078833D01*
X128316392Y-127059681D01*
X128383273Y-127079896D01*
X128421357Y-127119248D01*
X128469944Y-127199146D01*
X128472907Y-127202788D01*
X128651292Y-127422053D01*
X128777105Y-127539554D01*
X128861299Y-127618187D01*
X128861302Y-127618189D01*
X129096064Y-127783901D01*
X129351203Y-127916104D01*
X129621968Y-128012334D01*
X129903314Y-128070798D01*
X130118248Y-128085500D01*
X130118253Y-128085500D01*
X130261747Y-128085500D01*
X130261752Y-128085500D01*
X130476686Y-128070798D01*
X130758032Y-128012334D01*
X131028797Y-127916104D01*
X131283936Y-127783901D01*
X131518698Y-127618189D01*
X131728708Y-127422053D01*
X131910055Y-127199147D01*
X132059361Y-126953625D01*
X132059363Y-126953620D01*
X132059365Y-126953617D01*
X132126766Y-126798444D01*
X132171529Y-126744796D01*
X132238190Y-126723867D01*
X132305585Y-126742299D01*
X132352315Y-126794241D01*
X132364500Y-126847845D01*
X132364500Y-126879960D01*
X132379630Y-127014249D01*
X132379631Y-127014254D01*
X132439211Y-127184523D01*
X132498043Y-127278153D01*
X132535184Y-127337262D01*
X132662738Y-127464816D01*
X132815478Y-127560789D01*
X132910321Y-127593976D01*
X132985745Y-127620368D01*
X132985750Y-127620369D01*
X133164996Y-127640565D01*
X133165000Y-127640565D01*
X133165004Y-127640565D01*
X133344249Y-127620369D01*
X133344252Y-127620368D01*
X133344255Y-127620368D01*
X133514522Y-127560789D01*
X133667262Y-127464816D01*
X133794816Y-127337262D01*
X133890789Y-127184522D01*
X133950368Y-127014255D01*
X133954477Y-126977792D01*
X133965499Y-126879960D01*
X137814500Y-126879960D01*
X137829630Y-127014249D01*
X137829631Y-127014254D01*
X137889211Y-127184523D01*
X137948043Y-127278153D01*
X137985184Y-127337262D01*
X138112738Y-127464816D01*
X138265478Y-127560789D01*
X138360321Y-127593976D01*
X138435745Y-127620368D01*
X138435750Y-127620369D01*
X138614996Y-127640565D01*
X138615000Y-127640565D01*
X138615004Y-127640565D01*
X138794249Y-127620369D01*
X138794252Y-127620368D01*
X138794255Y-127620368D01*
X138964522Y-127560789D01*
X139117262Y-127464816D01*
X139244816Y-127337262D01*
X139340789Y-127184522D01*
X139400368Y-127014255D01*
X139404477Y-126977792D01*
X139415499Y-126879960D01*
X139415500Y-126879956D01*
X139415500Y-126847845D01*
X139435185Y-126780806D01*
X139487989Y-126735051D01*
X139557147Y-126725107D01*
X139620703Y-126754132D01*
X139653234Y-126798444D01*
X139720634Y-126953617D01*
X139869944Y-127199146D01*
X139872907Y-127202788D01*
X140051292Y-127422053D01*
X140177105Y-127539554D01*
X140261299Y-127618187D01*
X140261302Y-127618189D01*
X140496064Y-127783901D01*
X140751203Y-127916104D01*
X141021968Y-128012334D01*
X141303314Y-128070798D01*
X141518248Y-128085500D01*
X141518253Y-128085500D01*
X141661747Y-128085500D01*
X141661752Y-128085500D01*
X141876686Y-128070798D01*
X142158032Y-128012334D01*
X142428797Y-127916104D01*
X142683936Y-127783901D01*
X142918698Y-127618189D01*
X143128708Y-127422053D01*
X143310055Y-127199147D01*
X143328399Y-127168980D01*
X143380049Y-127121929D01*
X143448939Y-127110271D01*
X143513196Y-127137707D01*
X143547660Y-127183048D01*
X143555630Y-127200983D01*
X143556433Y-127202788D01*
X143603789Y-127278153D01*
X143675480Y-127368049D01*
X143675485Y-127368054D01*
X144026946Y-127719516D01*
X144092897Y-127775208D01*
X144147534Y-127813976D01*
X144147533Y-127813976D01*
X144147541Y-127813981D01*
X144194017Y-127843349D01*
X144330431Y-127895820D01*
X144330434Y-127895821D01*
X144330438Y-127895822D01*
X144386175Y-127908543D01*
X144417208Y-127915626D01*
X144531471Y-127928500D01*
X144531465Y-127928500D01*
X144722506Y-127930333D01*
X144837494Y-127930333D01*
X145028537Y-127928500D01*
X145097338Y-127922696D01*
X145114541Y-127921245D01*
X145160317Y-127913467D01*
X145180592Y-127910023D01*
X145180593Y-127910023D01*
X145234220Y-127897927D01*
X145234222Y-127897926D01*
X145234227Y-127897925D01*
X145367788Y-127838567D01*
X145443153Y-127791211D01*
X145533049Y-127719520D01*
X145793269Y-127459300D01*
X145884516Y-127368054D01*
X145940208Y-127302103D01*
X145978976Y-127247466D01*
X145978976Y-127247467D01*
X145982804Y-127241408D01*
X146008349Y-127200983D01*
X146060820Y-127064569D01*
X146060895Y-127064243D01*
X146080624Y-126977799D01*
X146080626Y-126977792D01*
X146091649Y-126879956D01*
X146093500Y-126863531D01*
X146095333Y-126672496D01*
X146095333Y-126557504D01*
X146093500Y-126366463D01*
X146086245Y-126280461D01*
X146075023Y-126214408D01*
X146075023Y-126214407D01*
X146062927Y-126160779D01*
X146062923Y-126160769D01*
X146031492Y-126090046D01*
X146016184Y-126055602D01*
X150916047Y-126055602D01*
X150935421Y-126277057D01*
X150935422Y-126277065D01*
X150992958Y-126491791D01*
X150992959Y-126491793D01*
X150992960Y-126491796D01*
X151009329Y-126526899D01*
X151086911Y-126693276D01*
X151108663Y-126724340D01*
X151214423Y-126875381D01*
X151371619Y-127032577D01*
X151553723Y-127160088D01*
X151755204Y-127254040D01*
X151969937Y-127311578D01*
X152128124Y-127325417D01*
X152191398Y-127330953D01*
X152191400Y-127330953D01*
X152191402Y-127330953D01*
X152246765Y-127326109D01*
X152412863Y-127311578D01*
X152627596Y-127254040D01*
X152829077Y-127160088D01*
X153011181Y-127032577D01*
X153168377Y-126875381D01*
X153295888Y-126693277D01*
X153349018Y-126579338D01*
X153395190Y-126526899D01*
X153462383Y-126507747D01*
X153529265Y-126527963D01*
X153573781Y-126579338D01*
X153626912Y-126693277D01*
X153754423Y-126875381D01*
X153911619Y-127032577D01*
X154093723Y-127160088D01*
X154295204Y-127254040D01*
X154509937Y-127311578D01*
X154668124Y-127325417D01*
X154731398Y-127330953D01*
X154731400Y-127330953D01*
X154731402Y-127330953D01*
X154786765Y-127326109D01*
X154952863Y-127311578D01*
X155167596Y-127254040D01*
X155369077Y-127160088D01*
X155551181Y-127032577D01*
X155708377Y-126875381D01*
X155835888Y-126693277D01*
X155889018Y-126579338D01*
X155935190Y-126526899D01*
X156002383Y-126507747D01*
X156069265Y-126527963D01*
X156113781Y-126579338D01*
X156166912Y-126693277D01*
X156294423Y-126875381D01*
X156451619Y-127032577D01*
X156633723Y-127160088D01*
X156835204Y-127254040D01*
X157049937Y-127311578D01*
X157208124Y-127325417D01*
X157271398Y-127330953D01*
X157271400Y-127330953D01*
X157271402Y-127330953D01*
X157326765Y-127326109D01*
X157492863Y-127311578D01*
X157707596Y-127254040D01*
X157909077Y-127160088D01*
X158091181Y-127032577D01*
X158248377Y-126875381D01*
X158375888Y-126693277D01*
X158429018Y-126579338D01*
X158475190Y-126526899D01*
X158542383Y-126507747D01*
X158609265Y-126527963D01*
X158653781Y-126579338D01*
X158706912Y-126693277D01*
X158834423Y-126875381D01*
X158991619Y-127032577D01*
X159173723Y-127160088D01*
X159375204Y-127254040D01*
X159589937Y-127311578D01*
X159748124Y-127325417D01*
X159811398Y-127330953D01*
X159811400Y-127330953D01*
X159811402Y-127330953D01*
X159866765Y-127326109D01*
X160032863Y-127311578D01*
X160247596Y-127254040D01*
X160449077Y-127160088D01*
X160631181Y-127032577D01*
X160788377Y-126875381D01*
X160915888Y-126693277D01*
X161009840Y-126491796D01*
X161067378Y-126277063D01*
X161081909Y-126110965D01*
X161086753Y-126055602D01*
X161086753Y-126055597D01*
X161077676Y-125951847D01*
X161067378Y-125834137D01*
X161009840Y-125619404D01*
X160915888Y-125417924D01*
X160915886Y-125417921D01*
X160915885Y-125417919D01*
X160788378Y-125235820D01*
X160765079Y-125212521D01*
X160631181Y-125078623D01*
X160449077Y-124951112D01*
X160449078Y-124951112D01*
X160449076Y-124951111D01*
X160348336Y-124904136D01*
X160247596Y-124857160D01*
X160247593Y-124857159D01*
X160247591Y-124857158D01*
X160032865Y-124799622D01*
X160032857Y-124799621D01*
X159811402Y-124780247D01*
X159811398Y-124780247D01*
X159589942Y-124799621D01*
X159589935Y-124799622D01*
X159375200Y-124857161D01*
X159173723Y-124951112D01*
X159173719Y-124951114D01*
X158991617Y-125078623D01*
X158834423Y-125235817D01*
X158706914Y-125417919D01*
X158706912Y-125417923D01*
X158653782Y-125531861D01*
X158607609Y-125584300D01*
X158540416Y-125603452D01*
X158473535Y-125583236D01*
X158429018Y-125531861D01*
X158403658Y-125477477D01*
X158375888Y-125417924D01*
X158375886Y-125417921D01*
X158375885Y-125417919D01*
X158248378Y-125235820D01*
X158225079Y-125212521D01*
X158091181Y-125078623D01*
X157909077Y-124951112D01*
X157909078Y-124951112D01*
X157909076Y-124951111D01*
X157808336Y-124904136D01*
X157707596Y-124857160D01*
X157707593Y-124857159D01*
X157707591Y-124857158D01*
X157492865Y-124799622D01*
X157492857Y-124799621D01*
X157271402Y-124780247D01*
X157271398Y-124780247D01*
X157049942Y-124799621D01*
X157049935Y-124799622D01*
X156835200Y-124857161D01*
X156633723Y-124951112D01*
X156633719Y-124951114D01*
X156451617Y-125078623D01*
X156294423Y-125235817D01*
X156166914Y-125417919D01*
X156166912Y-125417923D01*
X156113782Y-125531861D01*
X156067609Y-125584300D01*
X156000416Y-125603452D01*
X155933535Y-125583236D01*
X155889018Y-125531861D01*
X155863658Y-125477477D01*
X155835888Y-125417924D01*
X155835886Y-125417921D01*
X155835885Y-125417919D01*
X155708378Y-125235820D01*
X155685079Y-125212521D01*
X155551181Y-125078623D01*
X155369077Y-124951112D01*
X155369078Y-124951112D01*
X155369076Y-124951111D01*
X155268336Y-124904136D01*
X155167596Y-124857160D01*
X155167593Y-124857159D01*
X155167591Y-124857158D01*
X154952865Y-124799622D01*
X154952857Y-124799621D01*
X154731402Y-124780247D01*
X154731398Y-124780247D01*
X154509942Y-124799621D01*
X154509935Y-124799622D01*
X154295200Y-124857161D01*
X154093723Y-124951112D01*
X154093719Y-124951114D01*
X153911617Y-125078623D01*
X153754423Y-125235817D01*
X153626914Y-125417919D01*
X153626912Y-125417923D01*
X153573782Y-125531861D01*
X153527609Y-125584300D01*
X153460416Y-125603452D01*
X153393535Y-125583236D01*
X153349018Y-125531861D01*
X153323658Y-125477477D01*
X153295888Y-125417924D01*
X153295886Y-125417921D01*
X153295885Y-125417919D01*
X153168378Y-125235820D01*
X153145079Y-125212521D01*
X153011181Y-125078623D01*
X152829077Y-124951112D01*
X152829078Y-124951112D01*
X152829076Y-124951111D01*
X152728336Y-124904136D01*
X152627596Y-124857160D01*
X152627593Y-124857159D01*
X152627591Y-124857158D01*
X152412865Y-124799622D01*
X152412857Y-124799621D01*
X152191402Y-124780247D01*
X152191398Y-124780247D01*
X151969942Y-124799621D01*
X151969935Y-124799622D01*
X151755200Y-124857161D01*
X151553723Y-124951112D01*
X151553719Y-124951114D01*
X151371617Y-125078623D01*
X151214423Y-125235817D01*
X151086914Y-125417919D01*
X151086912Y-125417923D01*
X150992961Y-125619400D01*
X150935422Y-125834135D01*
X150935421Y-125834142D01*
X150916047Y-126055597D01*
X150916047Y-126055602D01*
X146016184Y-126055602D01*
X146003567Y-126027212D01*
X145956211Y-125951847D01*
X145884520Y-125861951D01*
X145720792Y-125698223D01*
X145533054Y-125510484D01*
X145467103Y-125454792D01*
X145422879Y-125423412D01*
X145379596Y-125368564D01*
X145372838Y-125299022D01*
X145404749Y-125236865D01*
X145432644Y-125214892D01*
X145436736Y-125212528D01*
X145436749Y-125212523D01*
X145624300Y-125081198D01*
X145786198Y-124919300D01*
X145917523Y-124731749D01*
X146014284Y-124524243D01*
X146073543Y-124303087D01*
X146093498Y-124075000D01*
X146091651Y-124053894D01*
X146085790Y-123986899D01*
X146073543Y-123846913D01*
X146014284Y-123625757D01*
X145962918Y-123515602D01*
X152186047Y-123515602D01*
X152205421Y-123737057D01*
X152205422Y-123737065D01*
X152262958Y-123951791D01*
X152262959Y-123951793D01*
X152262960Y-123951796D01*
X152303782Y-124039339D01*
X152356911Y-124153276D01*
X152356912Y-124153277D01*
X152484423Y-124335381D01*
X152641619Y-124492577D01*
X152823723Y-124620088D01*
X153025204Y-124714040D01*
X153239937Y-124771578D01*
X153398124Y-124785417D01*
X153461398Y-124790953D01*
X153461400Y-124790953D01*
X153461402Y-124790953D01*
X153516765Y-124786109D01*
X153682863Y-124771578D01*
X153897596Y-124714040D01*
X154099077Y-124620088D01*
X154281181Y-124492577D01*
X154438377Y-124335381D01*
X154565888Y-124153277D01*
X154619018Y-124039338D01*
X154665190Y-123986899D01*
X154732383Y-123967747D01*
X154799265Y-123987963D01*
X154843781Y-124039338D01*
X154896912Y-124153277D01*
X155024423Y-124335381D01*
X155181619Y-124492577D01*
X155363723Y-124620088D01*
X155565204Y-124714040D01*
X155779937Y-124771578D01*
X155938124Y-124785417D01*
X156001398Y-124790953D01*
X156001400Y-124790953D01*
X156001402Y-124790953D01*
X156056765Y-124786109D01*
X156222863Y-124771578D01*
X156437596Y-124714040D01*
X156639077Y-124620088D01*
X156821181Y-124492577D01*
X156978377Y-124335381D01*
X157105888Y-124153277D01*
X157159018Y-124039338D01*
X157205190Y-123986899D01*
X157272383Y-123967747D01*
X157339265Y-123987963D01*
X157383781Y-124039338D01*
X157436912Y-124153277D01*
X157564423Y-124335381D01*
X157721619Y-124492577D01*
X157903723Y-124620088D01*
X158105204Y-124714040D01*
X158319937Y-124771578D01*
X158478124Y-124785417D01*
X158541398Y-124790953D01*
X158541400Y-124790953D01*
X158541402Y-124790953D01*
X158596765Y-124786109D01*
X158762863Y-124771578D01*
X158977596Y-124714040D01*
X159179077Y-124620088D01*
X159361181Y-124492577D01*
X159518377Y-124335381D01*
X159645888Y-124153277D01*
X159739840Y-123951796D01*
X159748562Y-123919246D01*
X159784926Y-123859585D01*
X159847773Y-123829055D01*
X159917149Y-123837349D01*
X159971027Y-123881834D01*
X159987604Y-123917405D01*
X159993225Y-123937163D01*
X160089211Y-124129929D01*
X160089216Y-124129937D01*
X160130092Y-124184064D01*
X160710637Y-123603519D01*
X160727666Y-123670762D01*
X160797213Y-123777212D01*
X160897557Y-123855313D01*
X160992079Y-123887762D01*
X160412004Y-124467836D01*
X160561232Y-124560235D01*
X160561233Y-124560236D01*
X160762038Y-124638027D01*
X160973727Y-124677600D01*
X161189073Y-124677600D01*
X161400761Y-124638027D01*
X161601566Y-124560236D01*
X161601570Y-124560234D01*
X161750793Y-124467837D01*
X161750793Y-124467836D01*
X161170035Y-123887077D01*
X161206821Y-123880939D01*
X161318651Y-123820420D01*
X161404771Y-123726869D01*
X161455848Y-123610423D01*
X161456094Y-123607451D01*
X162032706Y-124184063D01*
X162073586Y-124129931D01*
X162073588Y-124129929D01*
X162169573Y-123937164D01*
X162228508Y-123730027D01*
X162248378Y-123515600D01*
X162248378Y-123515599D01*
X162228508Y-123301172D01*
X162169573Y-123094035D01*
X162073588Y-122901270D01*
X162073583Y-122901262D01*
X162032706Y-122847135D01*
X161452162Y-123427679D01*
X161435134Y-123360438D01*
X161365587Y-123253988D01*
X161265243Y-123175887D01*
X161170720Y-123143437D01*
X161750794Y-122563362D01*
X161601567Y-122470964D01*
X161601566Y-122470963D01*
X161400761Y-122393172D01*
X161189073Y-122353600D01*
X160973727Y-122353600D01*
X160762038Y-122393172D01*
X160561235Y-122470962D01*
X160561234Y-122470963D01*
X160412004Y-122563362D01*
X160992765Y-123144122D01*
X160955979Y-123150261D01*
X160844149Y-123210780D01*
X160758029Y-123304331D01*
X160706952Y-123420777D01*
X160706705Y-123423747D01*
X160130092Y-122847134D01*
X160089215Y-122901264D01*
X159993225Y-123094037D01*
X159993222Y-123094043D01*
X159987601Y-123113800D01*
X159950320Y-123172892D01*
X159887010Y-123202448D01*
X159817771Y-123193084D01*
X159764585Y-123147772D01*
X159748563Y-123111958D01*
X159739840Y-123079404D01*
X159645888Y-122877924D01*
X159645886Y-122877921D01*
X159645885Y-122877919D01*
X159518378Y-122695820D01*
X159467411Y-122644853D01*
X159361181Y-122538623D01*
X159179077Y-122411112D01*
X159179078Y-122411112D01*
X159179076Y-122411111D01*
X159055742Y-122353600D01*
X158977596Y-122317160D01*
X158977593Y-122317159D01*
X158977591Y-122317158D01*
X158762865Y-122259622D01*
X158762857Y-122259621D01*
X158541402Y-122240247D01*
X158541398Y-122240247D01*
X158319942Y-122259621D01*
X158319935Y-122259622D01*
X158105200Y-122317161D01*
X157903723Y-122411112D01*
X157903719Y-122411114D01*
X157721617Y-122538623D01*
X157564423Y-122695817D01*
X157436914Y-122877919D01*
X157436912Y-122877923D01*
X157383782Y-122991861D01*
X157337609Y-123044300D01*
X157270416Y-123063452D01*
X157203535Y-123043236D01*
X157159018Y-122991861D01*
X157116774Y-122901270D01*
X157105888Y-122877924D01*
X157105886Y-122877921D01*
X157105885Y-122877919D01*
X156978378Y-122695820D01*
X156927411Y-122644853D01*
X156821181Y-122538623D01*
X156639077Y-122411112D01*
X156639078Y-122411112D01*
X156639076Y-122411111D01*
X156515742Y-122353600D01*
X156437596Y-122317160D01*
X156437593Y-122317159D01*
X156437591Y-122317158D01*
X156222865Y-122259622D01*
X156222857Y-122259621D01*
X156001402Y-122240247D01*
X156001398Y-122240247D01*
X155779942Y-122259621D01*
X155779935Y-122259622D01*
X155565200Y-122317161D01*
X155363723Y-122411112D01*
X155363719Y-122411114D01*
X155181617Y-122538623D01*
X155024423Y-122695817D01*
X154896914Y-122877919D01*
X154896912Y-122877923D01*
X154843782Y-122991861D01*
X154797609Y-123044300D01*
X154730416Y-123063452D01*
X154663535Y-123043236D01*
X154619018Y-122991861D01*
X154576774Y-122901270D01*
X154565888Y-122877924D01*
X154565886Y-122877921D01*
X154565885Y-122877919D01*
X154438378Y-122695820D01*
X154387411Y-122644853D01*
X154281181Y-122538623D01*
X154099077Y-122411112D01*
X154099078Y-122411112D01*
X154099076Y-122411111D01*
X153975742Y-122353600D01*
X153897596Y-122317160D01*
X153897593Y-122317159D01*
X153897591Y-122317158D01*
X153682865Y-122259622D01*
X153682857Y-122259621D01*
X153461402Y-122240247D01*
X153461398Y-122240247D01*
X153239942Y-122259621D01*
X153239935Y-122259622D01*
X153025200Y-122317161D01*
X152823723Y-122411112D01*
X152823719Y-122411114D01*
X152641617Y-122538623D01*
X152484423Y-122695817D01*
X152356914Y-122877919D01*
X152356912Y-122877923D01*
X152262961Y-123079400D01*
X152205422Y-123294135D01*
X152205421Y-123294142D01*
X152186047Y-123515597D01*
X152186047Y-123515602D01*
X145962918Y-123515602D01*
X145917523Y-123418251D01*
X145786198Y-123230700D01*
X145624300Y-123068802D01*
X145566447Y-123028293D01*
X145522824Y-122973718D01*
X145515630Y-122904220D01*
X145547153Y-122841865D01*
X145600679Y-122808335D01*
X145672913Y-122785827D01*
X145820155Y-122696816D01*
X145941816Y-122575155D01*
X146030827Y-122427913D01*
X146082013Y-122263649D01*
X146088500Y-122192265D01*
X146088499Y-120877736D01*
X146088499Y-120877735D01*
X146088499Y-120877727D01*
X146082014Y-120806355D01*
X146082011Y-120806344D01*
X146030828Y-120642090D01*
X146030827Y-120642089D01*
X146030827Y-120642087D01*
X145941816Y-120494845D01*
X145941814Y-120494843D01*
X145941813Y-120494841D01*
X145820158Y-120373186D01*
X145672913Y-120284173D01*
X145672910Y-120284172D01*
X145600679Y-120261664D01*
X145542534Y-120222928D01*
X145514560Y-120158903D01*
X145525641Y-120089918D01*
X145566447Y-120041707D01*
X145624300Y-120001198D01*
X145786198Y-119839300D01*
X145917523Y-119651749D01*
X146014284Y-119444243D01*
X146073543Y-119223087D01*
X146093498Y-118995000D01*
X146073543Y-118766913D01*
X146014284Y-118545757D01*
X145917523Y-118338251D01*
X145786198Y-118150700D01*
X145624300Y-117988802D01*
X145436749Y-117857477D01*
X145393655Y-117837382D01*
X145341215Y-117791210D01*
X145322063Y-117724017D01*
X145342278Y-117657136D01*
X145393655Y-117612618D01*
X145396882Y-117611112D01*
X145436749Y-117592523D01*
X145624300Y-117461198D01*
X145786198Y-117299300D01*
X145917523Y-117111749D01*
X146014284Y-116904243D01*
X146073543Y-116683087D01*
X146093498Y-116455000D01*
X146073543Y-116226913D01*
X146014284Y-116005757D01*
X146011213Y-115999172D01*
X145917524Y-115798254D01*
X145917523Y-115798252D01*
X145917523Y-115798251D01*
X145786198Y-115610700D01*
X145624300Y-115448802D01*
X145436749Y-115317477D01*
X145436745Y-115317475D01*
X145229249Y-115220718D01*
X145229238Y-115220714D01*
X145008089Y-115161457D01*
X145008081Y-115161456D01*
X144780002Y-115141502D01*
X144779998Y-115141502D01*
X144551918Y-115161456D01*
X144551910Y-115161457D01*
X144330761Y-115220714D01*
X144330750Y-115220718D01*
X144123254Y-115317475D01*
X144123252Y-115317476D01*
X144123251Y-115317477D01*
X143935700Y-115448802D01*
X143935698Y-115448803D01*
X143935695Y-115448806D01*
X143773806Y-115610695D01*
X143773803Y-115610698D01*
X143773802Y-115610700D01*
X143697310Y-115719942D01*
X143642476Y-115798252D01*
X143642475Y-115798254D01*
X143545718Y-116005750D01*
X143545714Y-116005761D01*
X143486457Y-116226910D01*
X143486456Y-116226918D01*
X143466502Y-116454998D01*
X143466502Y-116455001D01*
X143486456Y-116683081D01*
X143486457Y-116683089D01*
X143545714Y-116904238D01*
X143545718Y-116904249D01*
X143634914Y-117095530D01*
X143642477Y-117111749D01*
X143773802Y-117299300D01*
X143935700Y-117461198D01*
X144123251Y-117592523D01*
X144166345Y-117612618D01*
X144218784Y-117658791D01*
X144237936Y-117725984D01*
X144217720Y-117792865D01*
X144166345Y-117837382D01*
X144123251Y-117857476D01*
X143998126Y-117945090D01*
X143935700Y-117988802D01*
X143935698Y-117988803D01*
X143935695Y-117988806D01*
X143773806Y-118150695D01*
X143642476Y-118338252D01*
X143642475Y-118338254D01*
X143545718Y-118545750D01*
X143545714Y-118545761D01*
X143486457Y-118766910D01*
X143486456Y-118766918D01*
X143466502Y-118994998D01*
X143466502Y-118995001D01*
X143486456Y-119223081D01*
X143486457Y-119223089D01*
X143545714Y-119444238D01*
X143545718Y-119444249D01*
X143642475Y-119651745D01*
X143642477Y-119651749D01*
X143773802Y-119839300D01*
X143935700Y-120001198D01*
X143993552Y-120041706D01*
X144037175Y-120096281D01*
X144044369Y-120165779D01*
X144012846Y-120228134D01*
X143959318Y-120261664D01*
X143887089Y-120284172D01*
X143739841Y-120373186D01*
X143618186Y-120494841D01*
X143529173Y-120642086D01*
X143477986Y-120806354D01*
X143471500Y-120877737D01*
X143471500Y-122192272D01*
X143477985Y-122263644D01*
X143477988Y-122263655D01*
X143529171Y-122427909D01*
X143529172Y-122427911D01*
X143529173Y-122427913D01*
X143557392Y-122474593D01*
X143618186Y-122575158D01*
X143739841Y-122696813D01*
X143739843Y-122696814D01*
X143739845Y-122696816D01*
X143887087Y-122785827D01*
X143959319Y-122808335D01*
X144017464Y-122847070D01*
X144045439Y-122911095D01*
X144034358Y-122980080D01*
X143993552Y-123028293D01*
X143935697Y-123068804D01*
X143773806Y-123230695D01*
X143773803Y-123230698D01*
X143773802Y-123230700D01*
X143724457Y-123301172D01*
X143642476Y-123418252D01*
X143642475Y-123418254D01*
X143545718Y-123625750D01*
X143545714Y-123625761D01*
X143486457Y-123846910D01*
X143486456Y-123846918D01*
X143466502Y-124074998D01*
X143466502Y-124075001D01*
X143486456Y-124303081D01*
X143486457Y-124303089D01*
X143545714Y-124524238D01*
X143545718Y-124524249D01*
X143642475Y-124731745D01*
X143642477Y-124731749D01*
X143773802Y-124919300D01*
X143935700Y-125081198D01*
X144123251Y-125212523D01*
X144123256Y-125212525D01*
X144127937Y-125215228D01*
X144126861Y-125217090D01*
X144172337Y-125257119D01*
X144191500Y-125324310D01*
X144171295Y-125391194D01*
X144133478Y-125428338D01*
X144116853Y-125438784D01*
X144116847Y-125438788D01*
X144052863Y-125489814D01*
X144026951Y-125510480D01*
X144026949Y-125510482D01*
X143867708Y-125669723D01*
X143806385Y-125703207D01*
X143736693Y-125698223D01*
X143680760Y-125656351D01*
X143657182Y-125598926D01*
X143651371Y-125556642D01*
X143573844Y-125279942D01*
X143554678Y-125235817D01*
X143459365Y-125016382D01*
X143400330Y-124919304D01*
X143310055Y-124770853D01*
X143128708Y-124547947D01*
X143006195Y-124433528D01*
X142918700Y-124351812D01*
X142683935Y-124186098D01*
X142428793Y-124053894D01*
X142158037Y-123957667D01*
X142158034Y-123957666D01*
X141964284Y-123917405D01*
X141876686Y-123899202D01*
X141876684Y-123899201D01*
X141876680Y-123899201D01*
X141740654Y-123889897D01*
X141661752Y-123884500D01*
X141518248Y-123884500D01*
X141444743Y-123889527D01*
X141303319Y-123899201D01*
X141021965Y-123957666D01*
X141021962Y-123957667D01*
X140751206Y-124053894D01*
X140496064Y-124186098D01*
X140261299Y-124351812D01*
X140051289Y-124547950D01*
X139869944Y-124770853D01*
X139720634Y-125016382D01*
X139606158Y-125279935D01*
X139606158Y-125279936D01*
X139528630Y-125556635D01*
X139528629Y-125556641D01*
X139515536Y-125651897D01*
X139486906Y-125715631D01*
X139428363Y-125753769D01*
X139358494Y-125754202D01*
X139299483Y-125716793D01*
X139287697Y-125700983D01*
X139271960Y-125675938D01*
X139244816Y-125632738D01*
X139117262Y-125505184D01*
X139073165Y-125477476D01*
X138964523Y-125409211D01*
X138794254Y-125349631D01*
X138794249Y-125349630D01*
X138615004Y-125329435D01*
X138614996Y-125329435D01*
X138435750Y-125349630D01*
X138435745Y-125349631D01*
X138265476Y-125409211D01*
X138112737Y-125505184D01*
X137985184Y-125632737D01*
X137889211Y-125785476D01*
X137829631Y-125955745D01*
X137829630Y-125955750D01*
X137814500Y-126090039D01*
X137814500Y-126879960D01*
X133965499Y-126879960D01*
X133965500Y-126879956D01*
X133965500Y-126090043D01*
X133965499Y-126090039D01*
X133950369Y-125955750D01*
X133950368Y-125955745D01*
X133917548Y-125861951D01*
X133890789Y-125785478D01*
X133881503Y-125770700D01*
X133821960Y-125675938D01*
X133794816Y-125632738D01*
X133667262Y-125505184D01*
X133623165Y-125477476D01*
X133514523Y-125409211D01*
X133344254Y-125349631D01*
X133344249Y-125349630D01*
X133165004Y-125329435D01*
X133164996Y-125329435D01*
X132985750Y-125349630D01*
X132985745Y-125349631D01*
X132815476Y-125409211D01*
X132662737Y-125505184D01*
X132535184Y-125632737D01*
X132535182Y-125632740D01*
X132492301Y-125700984D01*
X132439966Y-125747275D01*
X132370912Y-125757922D01*
X132307064Y-125729546D01*
X132268693Y-125671156D01*
X132264464Y-125651902D01*
X132251371Y-125556642D01*
X132173844Y-125279942D01*
X132154678Y-125235817D01*
X132059365Y-125016382D01*
X132000330Y-124919304D01*
X131910055Y-124770853D01*
X131728708Y-124547947D01*
X131606195Y-124433528D01*
X131518700Y-124351812D01*
X131283935Y-124186098D01*
X131028793Y-124053894D01*
X130758037Y-123957667D01*
X130758034Y-123957666D01*
X130564284Y-123917405D01*
X130476686Y-123899202D01*
X130476684Y-123899201D01*
X130476680Y-123899201D01*
X130340654Y-123889897D01*
X130261752Y-123884500D01*
X130118248Y-123884500D01*
X130044743Y-123889527D01*
X129903319Y-123899201D01*
X129621965Y-123957666D01*
X129621962Y-123957667D01*
X129351206Y-124053894D01*
X129096064Y-124186098D01*
X128861299Y-124351812D01*
X128651289Y-124547950D01*
X128469944Y-124770853D01*
X128320634Y-125016382D01*
X128206158Y-125279935D01*
X128206158Y-125279936D01*
X128128630Y-125556635D01*
X128128629Y-125556639D01*
X128121962Y-125605144D01*
X128093331Y-125668878D01*
X128034787Y-125707016D01*
X127964919Y-125707448D01*
X127911436Y-125675938D01*
X127844304Y-125608806D01*
X127844300Y-125608802D01*
X127656749Y-125477477D01*
X127632627Y-125466229D01*
X127613655Y-125457382D01*
X127561215Y-125411210D01*
X127542063Y-125344017D01*
X127562278Y-125277136D01*
X127613655Y-125232618D01*
X127616882Y-125231112D01*
X127656749Y-125212523D01*
X127844300Y-125081198D01*
X128006198Y-124919300D01*
X128137523Y-124731749D01*
X128234284Y-124524243D01*
X128293543Y-124303087D01*
X128313498Y-124075000D01*
X128311651Y-124053894D01*
X128305790Y-123986899D01*
X128293543Y-123846913D01*
X128253791Y-123698558D01*
X132689500Y-123698558D01*
X132704157Y-123828648D01*
X132704159Y-123828658D01*
X132745790Y-123947631D01*
X132761878Y-123993606D01*
X132854853Y-124141576D01*
X132978424Y-124265147D01*
X133126394Y-124358122D01*
X133291343Y-124415841D01*
X133291349Y-124415841D01*
X133291351Y-124415842D01*
X133464996Y-124435407D01*
X133465000Y-124435407D01*
X133465004Y-124435407D01*
X133638648Y-124415842D01*
X133638647Y-124415842D01*
X133638657Y-124415841D01*
X133803606Y-124358122D01*
X133951576Y-124265147D01*
X134075147Y-124141576D01*
X134168122Y-123993606D01*
X134225841Y-123828657D01*
X134240499Y-123698558D01*
X137539500Y-123698558D01*
X137554157Y-123828648D01*
X137554159Y-123828658D01*
X137595790Y-123947631D01*
X137611878Y-123993606D01*
X137704853Y-124141576D01*
X137828424Y-124265147D01*
X137976394Y-124358122D01*
X138141343Y-124415841D01*
X138141349Y-124415841D01*
X138141351Y-124415842D01*
X138314996Y-124435407D01*
X138315000Y-124435407D01*
X138315004Y-124435407D01*
X138488648Y-124415842D01*
X138488647Y-124415842D01*
X138488657Y-124415841D01*
X138653606Y-124358122D01*
X138801576Y-124265147D01*
X138925147Y-124141576D01*
X139018122Y-123993606D01*
X139075841Y-123828657D01*
X139090500Y-123698552D01*
X139090500Y-123211448D01*
X139075841Y-123081343D01*
X139018122Y-122916394D01*
X138925147Y-122768424D01*
X138801576Y-122644853D01*
X138653606Y-122551878D01*
X138653605Y-122551877D01*
X138653604Y-122551877D01*
X138488658Y-122494159D01*
X138488648Y-122494157D01*
X138315004Y-122474593D01*
X138314996Y-122474593D01*
X138141351Y-122494157D01*
X138141341Y-122494159D01*
X137976395Y-122551877D01*
X137828423Y-122644853D01*
X137704853Y-122768423D01*
X137611877Y-122916395D01*
X137554159Y-123081341D01*
X137554157Y-123081351D01*
X137539500Y-123211441D01*
X137539500Y-123698558D01*
X134240499Y-123698558D01*
X134240500Y-123698552D01*
X134240500Y-123211448D01*
X134225841Y-123081343D01*
X134168122Y-122916394D01*
X134075147Y-122768424D01*
X133951576Y-122644853D01*
X133803606Y-122551878D01*
X133803605Y-122551877D01*
X133803604Y-122551877D01*
X133638658Y-122494159D01*
X133638648Y-122494157D01*
X133465004Y-122474593D01*
X133464996Y-122474593D01*
X133291351Y-122494157D01*
X133291341Y-122494159D01*
X133126395Y-122551877D01*
X132978423Y-122644853D01*
X132854853Y-122768423D01*
X132761877Y-122916395D01*
X132704159Y-123081341D01*
X132704157Y-123081351D01*
X132689500Y-123211441D01*
X132689500Y-123698558D01*
X128253791Y-123698558D01*
X128234284Y-123625757D01*
X128137523Y-123418251D01*
X128006198Y-123230700D01*
X127844300Y-123068802D01*
X127786447Y-123028293D01*
X127742824Y-122973718D01*
X127735630Y-122904220D01*
X127767153Y-122841865D01*
X127820679Y-122808335D01*
X127892913Y-122785827D01*
X128040155Y-122696816D01*
X128161816Y-122575155D01*
X128250827Y-122427913D01*
X128302013Y-122263649D01*
X128308500Y-122192265D01*
X128308499Y-120877736D01*
X128308499Y-120877735D01*
X128308499Y-120877727D01*
X128302014Y-120806355D01*
X128302011Y-120806344D01*
X128250828Y-120642090D01*
X128250827Y-120642089D01*
X128250827Y-120642087D01*
X128161816Y-120494845D01*
X128161814Y-120494843D01*
X128161813Y-120494841D01*
X128040158Y-120373186D01*
X127892913Y-120284173D01*
X127892910Y-120284172D01*
X127820679Y-120261664D01*
X127762534Y-120222928D01*
X127734560Y-120158903D01*
X127745641Y-120089918D01*
X127786447Y-120041707D01*
X127844300Y-120001198D01*
X128006198Y-119839300D01*
X128137523Y-119651749D01*
X128234284Y-119444243D01*
X128293543Y-119223087D01*
X128313498Y-118995000D01*
X128293543Y-118766913D01*
X128234284Y-118545757D01*
X128137523Y-118338251D01*
X128006198Y-118150700D01*
X127844300Y-117988802D01*
X127656749Y-117857477D01*
X127613655Y-117837382D01*
X127561215Y-117791210D01*
X127542063Y-117724017D01*
X127562278Y-117657136D01*
X127613655Y-117612618D01*
X127616882Y-117611112D01*
X127656749Y-117592523D01*
X127844300Y-117461198D01*
X128006198Y-117299300D01*
X128137523Y-117111749D01*
X128234284Y-116904243D01*
X128293543Y-116683087D01*
X128313498Y-116455000D01*
X128293543Y-116226913D01*
X128234284Y-116005757D01*
X128231213Y-115999172D01*
X128137524Y-115798254D01*
X128137523Y-115798252D01*
X128137523Y-115798251D01*
X128006198Y-115610700D01*
X127844300Y-115448802D01*
X127656749Y-115317477D01*
X127656745Y-115317475D01*
X127449249Y-115220718D01*
X127449238Y-115220714D01*
X127228089Y-115161457D01*
X127228081Y-115161456D01*
X127000002Y-115141502D01*
X126999998Y-115141502D01*
X126771918Y-115161456D01*
X126771910Y-115161457D01*
X126550761Y-115220714D01*
X126550750Y-115220718D01*
X126343254Y-115317475D01*
X126343252Y-115317476D01*
X126343251Y-115317477D01*
X126155700Y-115448802D01*
X126155698Y-115448803D01*
X126155695Y-115448806D01*
X125993806Y-115610695D01*
X125993803Y-115610698D01*
X125993802Y-115610700D01*
X125917310Y-115719942D01*
X125862476Y-115798252D01*
X125862475Y-115798254D01*
X125765718Y-116005750D01*
X125765714Y-116005761D01*
X125706457Y-116226910D01*
X125706456Y-116226918D01*
X125686502Y-116454998D01*
X125686502Y-116455001D01*
X125706456Y-116683081D01*
X125706457Y-116683089D01*
X125765714Y-116904238D01*
X125765718Y-116904249D01*
X125854914Y-117095530D01*
X125862477Y-117111749D01*
X125993802Y-117299300D01*
X126155700Y-117461198D01*
X126343251Y-117592523D01*
X126386345Y-117612618D01*
X126438784Y-117658791D01*
X126457936Y-117725984D01*
X126437720Y-117792865D01*
X126386345Y-117837382D01*
X126343251Y-117857476D01*
X126218126Y-117945090D01*
X126155700Y-117988802D01*
X126155698Y-117988803D01*
X126155695Y-117988806D01*
X125993806Y-118150695D01*
X125862476Y-118338252D01*
X125862475Y-118338254D01*
X125765718Y-118545750D01*
X125765714Y-118545761D01*
X125706457Y-118766910D01*
X125706456Y-118766918D01*
X125686502Y-118994998D01*
X125686502Y-118995001D01*
X125706456Y-119223081D01*
X125706457Y-119223089D01*
X125765714Y-119444238D01*
X125765718Y-119444249D01*
X125862475Y-119651745D01*
X125862477Y-119651749D01*
X125993802Y-119839300D01*
X126155700Y-120001198D01*
X126213552Y-120041706D01*
X126257175Y-120096281D01*
X126264369Y-120165779D01*
X126232846Y-120228134D01*
X126179318Y-120261664D01*
X126107089Y-120284172D01*
X125959841Y-120373186D01*
X125838186Y-120494841D01*
X125749173Y-120642086D01*
X125697986Y-120806354D01*
X125691500Y-120877737D01*
X125691500Y-122192272D01*
X125697985Y-122263644D01*
X125697988Y-122263655D01*
X125749171Y-122427909D01*
X125749172Y-122427911D01*
X125749173Y-122427913D01*
X125777392Y-122474593D01*
X125838186Y-122575158D01*
X125959841Y-122696813D01*
X125959843Y-122696814D01*
X125959845Y-122696816D01*
X126107087Y-122785827D01*
X126179319Y-122808335D01*
X126237464Y-122847070D01*
X126265439Y-122911095D01*
X126254358Y-122980080D01*
X126213552Y-123028293D01*
X126155697Y-123068804D01*
X125993806Y-123230695D01*
X125993803Y-123230698D01*
X125993802Y-123230700D01*
X125944457Y-123301172D01*
X125862476Y-123418252D01*
X125862475Y-123418254D01*
X125765718Y-123625750D01*
X125765714Y-123625761D01*
X125706457Y-123846910D01*
X125706456Y-123846918D01*
X125686502Y-124074998D01*
X125686502Y-124075001D01*
X125706456Y-124303081D01*
X125706457Y-124303089D01*
X125765714Y-124524238D01*
X125765718Y-124524249D01*
X125862475Y-124731745D01*
X125862477Y-124731749D01*
X125993802Y-124919300D01*
X126155700Y-125081198D01*
X126343248Y-125212521D01*
X126343251Y-125212523D01*
X126386345Y-125232618D01*
X126438784Y-125278791D01*
X126457936Y-125345984D01*
X126437720Y-125412865D01*
X126386345Y-125457382D01*
X126343251Y-125477476D01*
X126303681Y-125505184D01*
X126185299Y-125588076D01*
X126119097Y-125610402D01*
X126114179Y-125610500D01*
X122049023Y-125610500D01*
X122044975Y-125610367D01*
X121832271Y-125596425D01*
X121801428Y-125594404D01*
X121793379Y-125593344D01*
X121555998Y-125546126D01*
X121548156Y-125544025D01*
X121449340Y-125510482D01*
X121318961Y-125466224D01*
X121311477Y-125463124D01*
X121094397Y-125356072D01*
X121087367Y-125352013D01*
X120913472Y-125235820D01*
X120886123Y-125217546D01*
X120879690Y-125212610D01*
X120697714Y-125053022D01*
X120691975Y-125047283D01*
X120664870Y-125016375D01*
X120532387Y-124865306D01*
X120527455Y-124858878D01*
X120392986Y-124657632D01*
X120388929Y-124650607D01*
X120281871Y-124433515D01*
X120278777Y-124426045D01*
X120200971Y-124196835D01*
X120198873Y-124189001D01*
X120191767Y-124153275D01*
X120151654Y-123951613D01*
X120150596Y-123943584D01*
X120134632Y-123700025D01*
X120134500Y-123695977D01*
X120134500Y-117095530D01*
X120134575Y-117092488D01*
X120151641Y-116745101D01*
X120152235Y-116739056D01*
X120203045Y-116396526D01*
X120204229Y-116390568D01*
X120288370Y-116054657D01*
X120290134Y-116048842D01*
X120305553Y-116005750D01*
X120406792Y-115722802D01*
X120409119Y-115717186D01*
X120557168Y-115404163D01*
X120560038Y-115398794D01*
X120608777Y-115317477D01*
X120738061Y-115101777D01*
X120741426Y-115096741D01*
X120947713Y-114818594D01*
X120951560Y-114813907D01*
X121185053Y-114556283D01*
X121187085Y-114554149D01*
X121252239Y-114488996D01*
X121252241Y-114488992D01*
X121416965Y-114324267D01*
X121416979Y-114324256D01*
X121488887Y-114252347D01*
X121491415Y-114249957D01*
X121693259Y-114069578D01*
X121698666Y-114065266D01*
X121918016Y-113909631D01*
X121923902Y-113905931D01*
X122159294Y-113775835D01*
X122165548Y-113772824D01*
X122414032Y-113669901D01*
X122420568Y-113667614D01*
X122679015Y-113593159D01*
X122685787Y-113591613D01*
X122950939Y-113546565D01*
X122957825Y-113545789D01*
X123228415Y-113530596D01*
X123231866Y-113530500D01*
X123323280Y-113530502D01*
X123323285Y-113530500D01*
X123326025Y-113530501D01*
X123326068Y-113530500D01*
X149315366Y-113530500D01*
X149382405Y-113550185D01*
X149409656Y-113573968D01*
X149424727Y-113591613D01*
X149425031Y-113591969D01*
X149514725Y-113668575D01*
X149605586Y-113746178D01*
X149605589Y-113746179D01*
X149808037Y-113870240D01*
X149808040Y-113870242D01*
X150027403Y-113961104D01*
X150027404Y-113961104D01*
X150027406Y-113961105D01*
X150258289Y-114016535D01*
X150495000Y-114035165D01*
X150731711Y-114016535D01*
X150962594Y-113961105D01*
X150962596Y-113961104D01*
X150962597Y-113961104D01*
X151181959Y-113870242D01*
X151181960Y-113870241D01*
X151181963Y-113870240D01*
X151384416Y-113746176D01*
X151564969Y-113591969D01*
X151719176Y-113411416D01*
X151843240Y-113208963D01*
X151876426Y-113128846D01*
X151934104Y-112989597D01*
X151934104Y-112989596D01*
X151934105Y-112989594D01*
X151989535Y-112758711D01*
X152008165Y-112522000D01*
X151989535Y-112285289D01*
X151934105Y-112054406D01*
X151934104Y-112054403D01*
X151934104Y-112054402D01*
X151843242Y-111835040D01*
X151843240Y-111835037D01*
X151719179Y-111632589D01*
X151719178Y-111632586D01*
X151646582Y-111547588D01*
X151564969Y-111452031D01*
X151445596Y-111350076D01*
X151384413Y-111297821D01*
X151384410Y-111297820D01*
X151181962Y-111173759D01*
X151181959Y-111173757D01*
X150962596Y-111082895D01*
X150731714Y-111027465D01*
X150495000Y-111008835D01*
X150258285Y-111027465D01*
X150027404Y-111082895D01*
X150027402Y-111082895D01*
X149808040Y-111173757D01*
X149808037Y-111173759D01*
X149605589Y-111297820D01*
X149605586Y-111297821D01*
X149425031Y-111452031D01*
X149425025Y-111452037D01*
X149409656Y-111470032D01*
X149351148Y-111508225D01*
X149315366Y-111513500D01*
X123180107Y-111513500D01*
X123179770Y-111513515D01*
X123034366Y-111513515D01*
X122644883Y-111547587D01*
X122439762Y-111583753D01*
X122259861Y-111615473D01*
X122259856Y-111615474D01*
X122259852Y-111615475D01*
X122095832Y-111659422D01*
X121882201Y-111716662D01*
X121514810Y-111850380D01*
X121514809Y-111850380D01*
X121323838Y-111939429D01*
X121160469Y-112015609D01*
X120821878Y-112211093D01*
X120501613Y-112435344D01*
X120202112Y-112686654D01*
X120202105Y-112686661D01*
X120202105Y-112686660D01*
X120063883Y-112824883D01*
X119997802Y-112890963D01*
X119799116Y-113089649D01*
X119799096Y-113089659D01*
X119701608Y-113187147D01*
X119604123Y-113284633D01*
X119495846Y-113411410D01*
X119317951Y-113619700D01*
X119317949Y-113619703D01*
X119058945Y-113976192D01*
X118828710Y-114351904D01*
X118725190Y-114555075D01*
X118628662Y-114744522D01*
X118460034Y-115151628D01*
X118460034Y-115151629D01*
X118363476Y-115448806D01*
X118323870Y-115570702D01*
X118269240Y-115798254D01*
X118221004Y-115999172D01*
X118152071Y-116434398D01*
X118152071Y-116434399D01*
X118132499Y-116683089D01*
X118117500Y-116873678D01*
X118117500Y-117044453D01*
X118117500Y-123604549D01*
X118117500Y-123698000D01*
X118117500Y-123879672D01*
X95010500Y-123879672D01*
X95010500Y-106295001D01*
X125686502Y-106295001D01*
X125706456Y-106523081D01*
X125706457Y-106523089D01*
X125765714Y-106744238D01*
X125765718Y-106744249D01*
X125862475Y-106951745D01*
X125862477Y-106951749D01*
X125993802Y-107139300D01*
X126155700Y-107301198D01*
X126213552Y-107341706D01*
X126257175Y-107396281D01*
X126264369Y-107465779D01*
X126232846Y-107528134D01*
X126179318Y-107561664D01*
X126107089Y-107584172D01*
X125959841Y-107673186D01*
X125838186Y-107794841D01*
X125749173Y-107942086D01*
X125697986Y-108106354D01*
X125691500Y-108177737D01*
X125691500Y-109492272D01*
X125697985Y-109563644D01*
X125697988Y-109563655D01*
X125749171Y-109727909D01*
X125838186Y-109875158D01*
X125959841Y-109996813D01*
X125959843Y-109996814D01*
X125959845Y-109996816D01*
X126107087Y-110085827D01*
X126271351Y-110137013D01*
X126342735Y-110143500D01*
X127657264Y-110143499D01*
X127657271Y-110143499D01*
X127728644Y-110137014D01*
X127728647Y-110137013D01*
X127728649Y-110137013D01*
X127892913Y-110085827D01*
X128040155Y-109996816D01*
X128161816Y-109875155D01*
X128250827Y-109727913D01*
X128302013Y-109563649D01*
X128308500Y-109492265D01*
X128308499Y-108177736D01*
X128308499Y-108177735D01*
X128308499Y-108177727D01*
X128302014Y-108106355D01*
X128302011Y-108106344D01*
X128250828Y-107942090D01*
X128250827Y-107942089D01*
X128250827Y-107942087D01*
X128161816Y-107794845D01*
X128161814Y-107794843D01*
X128161813Y-107794841D01*
X128040158Y-107673186D01*
X127892913Y-107584173D01*
X127892910Y-107584172D01*
X127820679Y-107561664D01*
X127762534Y-107522928D01*
X127734560Y-107458903D01*
X127745641Y-107389918D01*
X127786447Y-107341707D01*
X127844300Y-107301198D01*
X128006198Y-107139300D01*
X128137523Y-106951749D01*
X128234284Y-106744243D01*
X128293543Y-106523087D01*
X128313498Y-106295000D01*
X128293543Y-106066913D01*
X128234284Y-105845757D01*
X128137523Y-105638251D01*
X128006198Y-105450700D01*
X127844300Y-105288802D01*
X127656749Y-105157477D01*
X127613655Y-105137382D01*
X127561215Y-105091210D01*
X127542063Y-105024017D01*
X127562278Y-104957136D01*
X127613655Y-104912618D01*
X127616882Y-104911112D01*
X127656749Y-104892523D01*
X127844300Y-104761198D01*
X128006198Y-104599300D01*
X128137523Y-104411749D01*
X128234284Y-104204243D01*
X128293543Y-103983087D01*
X128313498Y-103755000D01*
X128293543Y-103526913D01*
X128234284Y-103305757D01*
X128137523Y-103098251D01*
X128006198Y-102910700D01*
X127844300Y-102748802D01*
X127656749Y-102617477D01*
X127613655Y-102597382D01*
X127561215Y-102551210D01*
X127542063Y-102484017D01*
X127562278Y-102417136D01*
X127613655Y-102372618D01*
X127616882Y-102371112D01*
X127656749Y-102352523D01*
X127844300Y-102221198D01*
X128006198Y-102059300D01*
X128137523Y-101871749D01*
X128234284Y-101664243D01*
X128293543Y-101443087D01*
X128313498Y-101215000D01*
X128293543Y-100986913D01*
X128234284Y-100765757D01*
X128137523Y-100558251D01*
X128006198Y-100370700D01*
X127844300Y-100208802D01*
X127656749Y-100077477D01*
X127655507Y-100076898D01*
X127613655Y-100057382D01*
X127561215Y-100011210D01*
X127542063Y-99944017D01*
X127562278Y-99877136D01*
X127613655Y-99832618D01*
X127616882Y-99831112D01*
X127656749Y-99812523D01*
X127844300Y-99681198D01*
X128006198Y-99519300D01*
X128137523Y-99331749D01*
X128234284Y-99124243D01*
X128293543Y-98903087D01*
X128313498Y-98675000D01*
X128293543Y-98446913D01*
X128234284Y-98225757D01*
X128137523Y-98018251D01*
X128006198Y-97830700D01*
X127844300Y-97668802D01*
X127786447Y-97628293D01*
X127742824Y-97573718D01*
X127735630Y-97504220D01*
X127767153Y-97441865D01*
X127820679Y-97408335D01*
X127892913Y-97385827D01*
X128040155Y-97296816D01*
X128161816Y-97175155D01*
X128250827Y-97027913D01*
X128302013Y-96863649D01*
X128308500Y-96792265D01*
X128308500Y-96785000D01*
X128924950Y-96785000D01*
X128944712Y-97010885D01*
X128944714Y-97010895D01*
X129003398Y-97229909D01*
X129003400Y-97229913D01*
X129003401Y-97229917D01*
X129068182Y-97368840D01*
X129099231Y-97435425D01*
X129099233Y-97435429D01*
X129229287Y-97621165D01*
X129229292Y-97621171D01*
X129389628Y-97781507D01*
X129389634Y-97781512D01*
X129575370Y-97911566D01*
X129575372Y-97911567D01*
X129575375Y-97911569D01*
X129780883Y-98007399D01*
X129999910Y-98066087D01*
X130169222Y-98080900D01*
X130225799Y-98085850D01*
X130225800Y-98085850D01*
X130225801Y-98085850D01*
X130282378Y-98080900D01*
X130451690Y-98066087D01*
X130670717Y-98007399D01*
X130876225Y-97911569D01*
X131061970Y-97781509D01*
X131222309Y-97621170D01*
X131352369Y-97435425D01*
X131383418Y-97368839D01*
X131429590Y-97316400D01*
X131496783Y-97297248D01*
X131563665Y-97317463D01*
X131608182Y-97368840D01*
X131639229Y-97435421D01*
X131639233Y-97435429D01*
X131769287Y-97621165D01*
X131769292Y-97621171D01*
X131929628Y-97781507D01*
X131929634Y-97781512D01*
X132115370Y-97911566D01*
X132115372Y-97911567D01*
X132115375Y-97911569D01*
X132320883Y-98007399D01*
X132539910Y-98066087D01*
X132709222Y-98080900D01*
X132765799Y-98085850D01*
X132765800Y-98085850D01*
X132765801Y-98085850D01*
X132822378Y-98080900D01*
X132991690Y-98066087D01*
X133210717Y-98007399D01*
X133416225Y-97911569D01*
X133601970Y-97781509D01*
X133762309Y-97621170D01*
X133787416Y-97585313D01*
X133841990Y-97541689D01*
X133911488Y-97534495D01*
X133973844Y-97566016D01*
X134009258Y-97626246D01*
X134012279Y-97643178D01*
X134016411Y-97681603D01*
X134016411Y-97681604D01*
X134059835Y-97798024D01*
X134067511Y-97818604D01*
X134155139Y-97935661D01*
X134272196Y-98023289D01*
X134409199Y-98074389D01*
X134436450Y-98077318D01*
X134469745Y-98080899D01*
X134469762Y-98080900D01*
X136141838Y-98080900D01*
X136141854Y-98080899D01*
X136168892Y-98077991D01*
X136202401Y-98074389D01*
X136339404Y-98023289D01*
X136456461Y-97935661D01*
X136544089Y-97818604D01*
X136595189Y-97681601D01*
X136600920Y-97628295D01*
X136601699Y-97621054D01*
X136601700Y-97621037D01*
X136601700Y-95948962D01*
X136601699Y-95948945D01*
X136598357Y-95917870D01*
X136595189Y-95888399D01*
X136544089Y-95751396D01*
X136456461Y-95634339D01*
X136339404Y-95546711D01*
X136202403Y-95495611D01*
X136141854Y-95489100D01*
X136141838Y-95489100D01*
X134469762Y-95489100D01*
X134469745Y-95489100D01*
X134409197Y-95495611D01*
X134409195Y-95495611D01*
X134272195Y-95546711D01*
X134155139Y-95634339D01*
X134067511Y-95751395D01*
X134016411Y-95888395D01*
X134016411Y-95888396D01*
X134012279Y-95926821D01*
X133985539Y-95991371D01*
X133928145Y-96031218D01*
X133858320Y-96033709D01*
X133798232Y-95998055D01*
X133787415Y-95984685D01*
X133762312Y-95948834D01*
X133762307Y-95948828D01*
X133601971Y-95788492D01*
X133601965Y-95788487D01*
X133416229Y-95658433D01*
X133416225Y-95658431D01*
X133210717Y-95562601D01*
X133210713Y-95562600D01*
X133210709Y-95562598D01*
X132991695Y-95503914D01*
X132991685Y-95503912D01*
X132765801Y-95484150D01*
X132765799Y-95484150D01*
X132539914Y-95503912D01*
X132539904Y-95503914D01*
X132320890Y-95562598D01*
X132320881Y-95562602D01*
X132115374Y-95658431D01*
X132115370Y-95658433D01*
X131929634Y-95788487D01*
X131929628Y-95788492D01*
X131769292Y-95948828D01*
X131769287Y-95948834D01*
X131639233Y-96134570D01*
X131639231Y-96134574D01*
X131608182Y-96201160D01*
X131562010Y-96253599D01*
X131494816Y-96272751D01*
X131427935Y-96252535D01*
X131383418Y-96201160D01*
X131352369Y-96134575D01*
X131352367Y-96134572D01*
X131352366Y-96134570D01*
X131222312Y-95948834D01*
X131222307Y-95948828D01*
X131061971Y-95788492D01*
X131061965Y-95788487D01*
X130876229Y-95658433D01*
X130876225Y-95658431D01*
X130670717Y-95562601D01*
X130670713Y-95562600D01*
X130670709Y-95562598D01*
X130451695Y-95503914D01*
X130451685Y-95503912D01*
X130225801Y-95484150D01*
X130225799Y-95484150D01*
X129999914Y-95503912D01*
X129999904Y-95503914D01*
X129780890Y-95562598D01*
X129780881Y-95562602D01*
X129575374Y-95658431D01*
X129575370Y-95658433D01*
X129389634Y-95788487D01*
X129389628Y-95788492D01*
X129229292Y-95948828D01*
X129229287Y-95948834D01*
X129099233Y-96134570D01*
X129099231Y-96134574D01*
X129003402Y-96340081D01*
X129003398Y-96340090D01*
X128944714Y-96559104D01*
X128944712Y-96559114D01*
X128924950Y-96784999D01*
X128924950Y-96785000D01*
X128308500Y-96785000D01*
X128308499Y-95477736D01*
X128308499Y-95477735D01*
X128308499Y-95477727D01*
X128302014Y-95406355D01*
X128302011Y-95406344D01*
X128250828Y-95242090D01*
X128250827Y-95242089D01*
X128250827Y-95242087D01*
X128161816Y-95094845D01*
X128161814Y-95094843D01*
X128161813Y-95094841D01*
X128040158Y-94973186D01*
X128028244Y-94965984D01*
X127892913Y-94884173D01*
X127820679Y-94861664D01*
X127762534Y-94822928D01*
X127734560Y-94758903D01*
X127745641Y-94689918D01*
X127786447Y-94641707D01*
X127844300Y-94601198D01*
X128006198Y-94439300D01*
X128137523Y-94251749D01*
X128234284Y-94044243D01*
X128293543Y-93823087D01*
X128313498Y-93595000D01*
X128293543Y-93366913D01*
X128234284Y-93145757D01*
X128137523Y-92938251D01*
X128006198Y-92750700D01*
X127844300Y-92588802D01*
X127656749Y-92457477D01*
X127613655Y-92437382D01*
X127561215Y-92391210D01*
X127542063Y-92324017D01*
X127562278Y-92257136D01*
X127613655Y-92212618D01*
X127616882Y-92211112D01*
X127656749Y-92192523D01*
X127844300Y-92061198D01*
X128006198Y-91899300D01*
X128137523Y-91711749D01*
X128234284Y-91504243D01*
X128293543Y-91283087D01*
X128313498Y-91055000D01*
X128312627Y-91045049D01*
X128297501Y-90872157D01*
X128293543Y-90826913D01*
X128234284Y-90605757D01*
X128137523Y-90398251D01*
X128006198Y-90210700D01*
X127844300Y-90048802D01*
X127656749Y-89917477D01*
X127613655Y-89897382D01*
X127561215Y-89851210D01*
X127542063Y-89784017D01*
X127562278Y-89717136D01*
X127613655Y-89672618D01*
X127616882Y-89671112D01*
X127656749Y-89652523D01*
X127844300Y-89521198D01*
X128006198Y-89359300D01*
X128137523Y-89171749D01*
X128234284Y-88964243D01*
X128293543Y-88743087D01*
X128313498Y-88515000D01*
X128293543Y-88286913D01*
X128234284Y-88065757D01*
X128137523Y-87858251D01*
X128006198Y-87670700D01*
X127844300Y-87508802D01*
X127656749Y-87377477D01*
X127613655Y-87357382D01*
X127561215Y-87311210D01*
X127542063Y-87244017D01*
X127562278Y-87177136D01*
X127613655Y-87132618D01*
X127616882Y-87131112D01*
X127656749Y-87112523D01*
X127844300Y-86981198D01*
X128006198Y-86819300D01*
X128137523Y-86631749D01*
X128234284Y-86424243D01*
X128293543Y-86203087D01*
X128313498Y-85975000D01*
X128293543Y-85746913D01*
X128234284Y-85525757D01*
X128137523Y-85318251D01*
X128006198Y-85130700D01*
X127844300Y-84968802D01*
X127786447Y-84928293D01*
X127742824Y-84873718D01*
X127735630Y-84804220D01*
X127767153Y-84741865D01*
X127820679Y-84708335D01*
X127892913Y-84685827D01*
X128040155Y-84596816D01*
X128161816Y-84475155D01*
X128250827Y-84327913D01*
X128302013Y-84163649D01*
X128308500Y-84092265D01*
X128308499Y-82777736D01*
X128308499Y-82777735D01*
X128308499Y-82777727D01*
X128302014Y-82706355D01*
X128302011Y-82706344D01*
X128250828Y-82542090D01*
X128250827Y-82542089D01*
X128250827Y-82542087D01*
X128161816Y-82394845D01*
X128161814Y-82394843D01*
X128161813Y-82394841D01*
X128040158Y-82273186D01*
X127892913Y-82184173D01*
X127892910Y-82184172D01*
X127820679Y-82161664D01*
X127762534Y-82122928D01*
X127734560Y-82058903D01*
X127745641Y-81989918D01*
X127786447Y-81941707D01*
X127844300Y-81901198D01*
X128006198Y-81739300D01*
X128137523Y-81551749D01*
X128234284Y-81344243D01*
X128293543Y-81123087D01*
X128313498Y-80895000D01*
X128293543Y-80666913D01*
X128234284Y-80445757D01*
X128137523Y-80238251D01*
X128006198Y-80050700D01*
X127844300Y-79888802D01*
X127656749Y-79757477D01*
X127613655Y-79737382D01*
X127561215Y-79691210D01*
X127542063Y-79624017D01*
X127562278Y-79557136D01*
X127613655Y-79512618D01*
X127633206Y-79503501D01*
X127656749Y-79492523D01*
X127844300Y-79361198D01*
X127911439Y-79294058D01*
X127972758Y-79260576D01*
X128042450Y-79265560D01*
X128098384Y-79307431D01*
X128121962Y-79364855D01*
X128128629Y-79413360D01*
X128128630Y-79413364D01*
X128155433Y-79509024D01*
X128206156Y-79690058D01*
X128206157Y-79690060D01*
X128206158Y-79690063D01*
X128206158Y-79690064D01*
X128320634Y-79953617D01*
X128469944Y-80199146D01*
X128499115Y-80235002D01*
X128651292Y-80422053D01*
X128764758Y-80528023D01*
X128861299Y-80618187D01*
X128956264Y-80685220D01*
X129096064Y-80783901D01*
X129351203Y-80916104D01*
X129621968Y-81012334D01*
X129903314Y-81070798D01*
X130118248Y-81085500D01*
X130118253Y-81085500D01*
X130261747Y-81085500D01*
X130261752Y-81085500D01*
X130476686Y-81070798D01*
X130758032Y-81012334D01*
X131028797Y-80916104D01*
X131283936Y-80783901D01*
X131518698Y-80618189D01*
X131728708Y-80422053D01*
X131910055Y-80199147D01*
X132059361Y-79953625D01*
X132059363Y-79953620D01*
X132059365Y-79953617D01*
X132144561Y-79757475D01*
X132173844Y-79690058D01*
X132210920Y-79557727D01*
X132247961Y-79498486D01*
X132311152Y-79468674D01*
X132380428Y-79477757D01*
X132418003Y-79503501D01*
X132505700Y-79591198D01*
X132693251Y-79722523D01*
X132818091Y-79780736D01*
X132900750Y-79819281D01*
X132900752Y-79819281D01*
X132900757Y-79819284D01*
X133121913Y-79878543D01*
X133267098Y-79891245D01*
X133349998Y-79898498D01*
X133350000Y-79898498D01*
X133350002Y-79898498D01*
X133407139Y-79893499D01*
X133578087Y-79878543D01*
X133799243Y-79819284D01*
X134006749Y-79722523D01*
X134194300Y-79591198D01*
X134356198Y-79429300D01*
X134396707Y-79371446D01*
X134451280Y-79327824D01*
X134520778Y-79320630D01*
X134583133Y-79352152D01*
X134616664Y-79405681D01*
X134636294Y-79468674D01*
X134639173Y-79477913D01*
X134711357Y-79597319D01*
X134728186Y-79625158D01*
X134849841Y-79746813D01*
X134849843Y-79746814D01*
X134849845Y-79746816D01*
X134997087Y-79835827D01*
X135161351Y-79887013D01*
X135232735Y-79893500D01*
X136547264Y-79893499D01*
X136547271Y-79893499D01*
X136618644Y-79887014D01*
X136618647Y-79887013D01*
X136618649Y-79887013D01*
X136782913Y-79835827D01*
X136930155Y-79746816D01*
X137051816Y-79625155D01*
X137140827Y-79477913D01*
X137156901Y-79426326D01*
X137195636Y-79368180D01*
X137259661Y-79340205D01*
X137328647Y-79351286D01*
X137362967Y-79375536D01*
X137676946Y-79689516D01*
X137742897Y-79745208D01*
X137797534Y-79783976D01*
X137797533Y-79783976D01*
X137820992Y-79798800D01*
X137844017Y-79813349D01*
X137902458Y-79835828D01*
X137980434Y-79865821D01*
X137980438Y-79865822D01*
X138036175Y-79878543D01*
X138067208Y-79885626D01*
X138181471Y-79898500D01*
X138181465Y-79898500D01*
X138372506Y-79900333D01*
X138487494Y-79900333D01*
X138678537Y-79898500D01*
X138747338Y-79892696D01*
X138764541Y-79891245D01*
X138810317Y-79883467D01*
X138830592Y-79880023D01*
X138830593Y-79880023D01*
X138884220Y-79867927D01*
X138884222Y-79867926D01*
X138884227Y-79867925D01*
X139017788Y-79808567D01*
X139093153Y-79761211D01*
X139183049Y-79689520D01*
X139363547Y-79509021D01*
X139424865Y-79475539D01*
X139494557Y-79480523D01*
X139550491Y-79522394D01*
X139570626Y-79563250D01*
X139606157Y-79690063D01*
X139606158Y-79690064D01*
X139720634Y-79953617D01*
X139869944Y-80199146D01*
X139899115Y-80235002D01*
X140051292Y-80422053D01*
X140164758Y-80528023D01*
X140261299Y-80618187D01*
X140356264Y-80685220D01*
X140496064Y-80783901D01*
X140751203Y-80916104D01*
X141021968Y-81012334D01*
X141303314Y-81070798D01*
X141518248Y-81085500D01*
X141518253Y-81085500D01*
X141661747Y-81085500D01*
X141661752Y-81085500D01*
X141876686Y-81070798D01*
X142158032Y-81012334D01*
X142428797Y-80916104D01*
X142683936Y-80783901D01*
X142918698Y-80618189D01*
X143128708Y-80422053D01*
X143310055Y-80199147D01*
X143459361Y-79953625D01*
X143459363Y-79953620D01*
X143459365Y-79953617D01*
X143544561Y-79757475D01*
X143573844Y-79690058D01*
X143651371Y-79413358D01*
X143658037Y-79364855D01*
X143686667Y-79301123D01*
X143745209Y-79262984D01*
X143815077Y-79262550D01*
X143868563Y-79294061D01*
X143935700Y-79361198D01*
X144102163Y-79477757D01*
X144123251Y-79492523D01*
X144166345Y-79512618D01*
X144218784Y-79558791D01*
X144237936Y-79625984D01*
X144217720Y-79692865D01*
X144166345Y-79737382D01*
X144123251Y-79757476D01*
X144034980Y-79819285D01*
X143935700Y-79888802D01*
X143935698Y-79888803D01*
X143935695Y-79888806D01*
X143773806Y-80050695D01*
X143773803Y-80050698D01*
X143773802Y-80050700D01*
X143694860Y-80163440D01*
X143642476Y-80238252D01*
X143642475Y-80238254D01*
X143545718Y-80445750D01*
X143545714Y-80445761D01*
X143486457Y-80666910D01*
X143486456Y-80666918D01*
X143466502Y-80894998D01*
X143466502Y-80895001D01*
X143486456Y-81123081D01*
X143486457Y-81123089D01*
X143545714Y-81344238D01*
X143545718Y-81344249D01*
X143627216Y-81519022D01*
X143642477Y-81551749D01*
X143773802Y-81739300D01*
X143935700Y-81901198D01*
X143993552Y-81941706D01*
X144037175Y-81996281D01*
X144044369Y-82065779D01*
X144012846Y-82128134D01*
X143959318Y-82161664D01*
X143887089Y-82184172D01*
X143887087Y-82184172D01*
X143887087Y-82184173D01*
X143838006Y-82213843D01*
X143739841Y-82273186D01*
X143618186Y-82394841D01*
X143529173Y-82542086D01*
X143477986Y-82706354D01*
X143474052Y-82749647D01*
X143471749Y-82775002D01*
X143471500Y-82777737D01*
X143471500Y-84092272D01*
X143477985Y-84163644D01*
X143477988Y-84163655D01*
X143529171Y-84327909D01*
X143529172Y-84327911D01*
X143529173Y-84327913D01*
X143588469Y-84426000D01*
X143618186Y-84475158D01*
X143739841Y-84596813D01*
X143739843Y-84596814D01*
X143739845Y-84596816D01*
X143887087Y-84685827D01*
X143959319Y-84708335D01*
X144017464Y-84747070D01*
X144045439Y-84811095D01*
X144034358Y-84880080D01*
X143993552Y-84928293D01*
X143935697Y-84968804D01*
X143773806Y-85130695D01*
X143773803Y-85130698D01*
X143773802Y-85130700D01*
X143720376Y-85207000D01*
X143642476Y-85318252D01*
X143642475Y-85318254D01*
X143545718Y-85525750D01*
X143545714Y-85525761D01*
X143486457Y-85746910D01*
X143486456Y-85746918D01*
X143466502Y-85974998D01*
X143466502Y-85975001D01*
X143486456Y-86203081D01*
X143486457Y-86203089D01*
X143545714Y-86424238D01*
X143545718Y-86424249D01*
X143637538Y-86621158D01*
X143642477Y-86631749D01*
X143773802Y-86819300D01*
X143935700Y-86981198D01*
X144123251Y-87112523D01*
X144166345Y-87132618D01*
X144218784Y-87178791D01*
X144237936Y-87245984D01*
X144217720Y-87312865D01*
X144166345Y-87357382D01*
X144123251Y-87377476D01*
X143998126Y-87465090D01*
X143935700Y-87508802D01*
X143935698Y-87508803D01*
X143935695Y-87508806D01*
X143773806Y-87670695D01*
X143642476Y-87858252D01*
X143642475Y-87858254D01*
X143545718Y-88065750D01*
X143545714Y-88065761D01*
X143486457Y-88286910D01*
X143486456Y-88286918D01*
X143466502Y-88514998D01*
X143466502Y-88515001D01*
X143486456Y-88743081D01*
X143486457Y-88743089D01*
X143545714Y-88964238D01*
X143545718Y-88964249D01*
X143627767Y-89140203D01*
X143642477Y-89171749D01*
X143773802Y-89359300D01*
X143935700Y-89521198D01*
X144123251Y-89652523D01*
X144166345Y-89672618D01*
X144218784Y-89718791D01*
X144237936Y-89785984D01*
X144217720Y-89852865D01*
X144166345Y-89897382D01*
X144123251Y-89917476D01*
X144067433Y-89956561D01*
X143935700Y-90048802D01*
X143935698Y-90048803D01*
X143935695Y-90048806D01*
X143773806Y-90210695D01*
X143642476Y-90398252D01*
X143642475Y-90398254D01*
X143545718Y-90605750D01*
X143545714Y-90605761D01*
X143486457Y-90826910D01*
X143486456Y-90826918D01*
X143466502Y-91054998D01*
X143466502Y-91055001D01*
X143486456Y-91283081D01*
X143486457Y-91283089D01*
X143545714Y-91504238D01*
X143545718Y-91504249D01*
X143592802Y-91605220D01*
X143642477Y-91711749D01*
X143773802Y-91899300D01*
X143935700Y-92061198D01*
X144123251Y-92192523D01*
X144166345Y-92212618D01*
X144218784Y-92258791D01*
X144237936Y-92325984D01*
X144217720Y-92392865D01*
X144166345Y-92437382D01*
X144123251Y-92457476D01*
X144067433Y-92496561D01*
X143935700Y-92588802D01*
X143935698Y-92588803D01*
X143935695Y-92588806D01*
X143773806Y-92750695D01*
X143642476Y-92938252D01*
X143642475Y-92938254D01*
X143545718Y-93145750D01*
X143545714Y-93145761D01*
X143486457Y-93366910D01*
X143486456Y-93366918D01*
X143466502Y-93594998D01*
X143466502Y-93595001D01*
X143486456Y-93823081D01*
X143486457Y-93823089D01*
X143545714Y-94044238D01*
X143545718Y-94044249D01*
X143592802Y-94145220D01*
X143642477Y-94251749D01*
X143773802Y-94439300D01*
X143935700Y-94601198D01*
X143993552Y-94641706D01*
X144037175Y-94696281D01*
X144044369Y-94765779D01*
X144012846Y-94828134D01*
X143959318Y-94861664D01*
X143887089Y-94884172D01*
X143739841Y-94973186D01*
X143618186Y-95094841D01*
X143529173Y-95242086D01*
X143477986Y-95406354D01*
X143471500Y-95477737D01*
X143471500Y-96792272D01*
X143477985Y-96863644D01*
X143477988Y-96863655D01*
X143529171Y-97027909D01*
X143529172Y-97027911D01*
X143529173Y-97027913D01*
X143545418Y-97054785D01*
X143618186Y-97175158D01*
X143739841Y-97296813D01*
X143739843Y-97296814D01*
X143739845Y-97296816D01*
X143887087Y-97385827D01*
X143959319Y-97408335D01*
X144017464Y-97447070D01*
X144045439Y-97511095D01*
X144034358Y-97580080D01*
X143993552Y-97628293D01*
X143935697Y-97668804D01*
X143773806Y-97830695D01*
X143773803Y-97830698D01*
X143773802Y-97830700D01*
X143717177Y-97911569D01*
X143642476Y-98018252D01*
X143642475Y-98018254D01*
X143545718Y-98225750D01*
X143545714Y-98225761D01*
X143486457Y-98446910D01*
X143486456Y-98446918D01*
X143466502Y-98674998D01*
X143466502Y-98675001D01*
X143486456Y-98903081D01*
X143486457Y-98903089D01*
X143545714Y-99124238D01*
X143545718Y-99124249D01*
X143592802Y-99225220D01*
X143642477Y-99331749D01*
X143773802Y-99519300D01*
X143935700Y-99681198D01*
X144123251Y-99812523D01*
X144166345Y-99832618D01*
X144218784Y-99878791D01*
X144237936Y-99945984D01*
X144217720Y-100012865D01*
X144166345Y-100057382D01*
X144123251Y-100077476D01*
X144034212Y-100139823D01*
X143935700Y-100208802D01*
X143935698Y-100208803D01*
X143935695Y-100208806D01*
X143773806Y-100370695D01*
X143773803Y-100370698D01*
X143773802Y-100370700D01*
X143706677Y-100466564D01*
X143642476Y-100558252D01*
X143642475Y-100558254D01*
X143545718Y-100765750D01*
X143545714Y-100765761D01*
X143486457Y-100986910D01*
X143486456Y-100986918D01*
X143466502Y-101214998D01*
X143466502Y-101215001D01*
X143486456Y-101443081D01*
X143486457Y-101443089D01*
X143545714Y-101664238D01*
X143545718Y-101664249D01*
X143615505Y-101813908D01*
X143642477Y-101871749D01*
X143773802Y-102059300D01*
X143935700Y-102221198D01*
X144123251Y-102352523D01*
X144166345Y-102372618D01*
X144218784Y-102418791D01*
X144237936Y-102485984D01*
X144217720Y-102552865D01*
X144166345Y-102597382D01*
X144123251Y-102617476D01*
X143998126Y-102705090D01*
X143935700Y-102748802D01*
X143935698Y-102748803D01*
X143935695Y-102748806D01*
X143773806Y-102910695D01*
X143773803Y-102910698D01*
X143773802Y-102910700D01*
X143742393Y-102955557D01*
X143642476Y-103098252D01*
X143642475Y-103098254D01*
X143545718Y-103305750D01*
X143545714Y-103305761D01*
X143486457Y-103526910D01*
X143486456Y-103526918D01*
X143466502Y-103754998D01*
X143466502Y-103755001D01*
X143486456Y-103983081D01*
X143486457Y-103983089D01*
X143545714Y-104204238D01*
X143545718Y-104204249D01*
X143642475Y-104411745D01*
X143642477Y-104411749D01*
X143773802Y-104599300D01*
X143935700Y-104761198D01*
X144123251Y-104892523D01*
X144166345Y-104912618D01*
X144218784Y-104958791D01*
X144237936Y-105025984D01*
X144217720Y-105092865D01*
X144166345Y-105137382D01*
X144123251Y-105157476D01*
X143998126Y-105245090D01*
X143935700Y-105288802D01*
X143935698Y-105288803D01*
X143935695Y-105288806D01*
X143773806Y-105450695D01*
X143642476Y-105638252D01*
X143642475Y-105638254D01*
X143545718Y-105845750D01*
X143545714Y-105845761D01*
X143486457Y-106066910D01*
X143486456Y-106066918D01*
X143466502Y-106294998D01*
X143466502Y-106295001D01*
X143486456Y-106523081D01*
X143486457Y-106523089D01*
X143545714Y-106744238D01*
X143545718Y-106744249D01*
X143642475Y-106951745D01*
X143642477Y-106951749D01*
X143773802Y-107139300D01*
X143935700Y-107301198D01*
X143993552Y-107341706D01*
X144037175Y-107396281D01*
X144044369Y-107465779D01*
X144012846Y-107528134D01*
X143959318Y-107561664D01*
X143887089Y-107584172D01*
X143739841Y-107673186D01*
X143618186Y-107794841D01*
X143529173Y-107942086D01*
X143477986Y-108106354D01*
X143471500Y-108177737D01*
X143471500Y-109492272D01*
X143477985Y-109563644D01*
X143477988Y-109563655D01*
X143529171Y-109727909D01*
X143618186Y-109875158D01*
X143739841Y-109996813D01*
X143739843Y-109996814D01*
X143739845Y-109996816D01*
X143887087Y-110085827D01*
X144051351Y-110137013D01*
X144122735Y-110143500D01*
X145437264Y-110143499D01*
X145437271Y-110143499D01*
X145508644Y-110137014D01*
X145508647Y-110137013D01*
X145508649Y-110137013D01*
X145672913Y-110085827D01*
X145820155Y-109996816D01*
X145941816Y-109875155D01*
X146030827Y-109727913D01*
X146082013Y-109563649D01*
X146088500Y-109492265D01*
X146088499Y-108177736D01*
X146088499Y-108177735D01*
X146088499Y-108177727D01*
X146082014Y-108106355D01*
X146082011Y-108106344D01*
X146030828Y-107942090D01*
X146030827Y-107942089D01*
X146030827Y-107942087D01*
X145941816Y-107794845D01*
X145941814Y-107794843D01*
X145941813Y-107794841D01*
X145820158Y-107673186D01*
X145672913Y-107584173D01*
X145672910Y-107584172D01*
X145600679Y-107561664D01*
X145542534Y-107522928D01*
X145514560Y-107458903D01*
X145525641Y-107389918D01*
X145566447Y-107341707D01*
X145624300Y-107301198D01*
X145786198Y-107139300D01*
X145917523Y-106951749D01*
X146014284Y-106744243D01*
X146073543Y-106523087D01*
X146093498Y-106295000D01*
X146073543Y-106066913D01*
X146014284Y-105845757D01*
X145917523Y-105638251D01*
X145786198Y-105450700D01*
X145624300Y-105288802D01*
X145436749Y-105157477D01*
X145393655Y-105137382D01*
X145341215Y-105091210D01*
X145322063Y-105024017D01*
X145342278Y-104957136D01*
X145393655Y-104912618D01*
X145396882Y-104911112D01*
X145436749Y-104892523D01*
X145624300Y-104761198D01*
X145786198Y-104599300D01*
X145917523Y-104411749D01*
X146014284Y-104204243D01*
X146073543Y-103983087D01*
X146093498Y-103755000D01*
X146073543Y-103526913D01*
X146014284Y-103305757D01*
X145917523Y-103098251D01*
X145786198Y-102910700D01*
X145624300Y-102748802D01*
X145436749Y-102617477D01*
X145393655Y-102597382D01*
X145341215Y-102551210D01*
X145322063Y-102484017D01*
X145342278Y-102417136D01*
X145393655Y-102372618D01*
X145396882Y-102371112D01*
X145436749Y-102352523D01*
X145624300Y-102221198D01*
X145786198Y-102059300D01*
X145917523Y-101871749D01*
X146014284Y-101664243D01*
X146073543Y-101443087D01*
X146093498Y-101215000D01*
X146073543Y-100986913D01*
X146014284Y-100765757D01*
X145917523Y-100558251D01*
X145786198Y-100370700D01*
X145624300Y-100208802D01*
X145436749Y-100077477D01*
X145435507Y-100076898D01*
X145393655Y-100057382D01*
X145341215Y-100011210D01*
X145322063Y-99944017D01*
X145342278Y-99877136D01*
X145393655Y-99832618D01*
X145396882Y-99831112D01*
X145436749Y-99812523D01*
X145624300Y-99681198D01*
X145786198Y-99519300D01*
X145917523Y-99331749D01*
X146014284Y-99124243D01*
X146073543Y-98903087D01*
X146084749Y-98775002D01*
X166934647Y-98775002D01*
X166954021Y-98996457D01*
X166954022Y-98996465D01*
X167011558Y-99211191D01*
X167011559Y-99211193D01*
X167011560Y-99211196D01*
X167058536Y-99311936D01*
X167105511Y-99412676D01*
X167105512Y-99412677D01*
X167233023Y-99594781D01*
X167390219Y-99751977D01*
X167572323Y-99879488D01*
X167773804Y-99973440D01*
X167988537Y-100030978D01*
X168146724Y-100044817D01*
X168209998Y-100050353D01*
X168210000Y-100050353D01*
X168210002Y-100050353D01*
X168271164Y-100045002D01*
X169474647Y-100045002D01*
X169494021Y-100266457D01*
X169494022Y-100266465D01*
X169551558Y-100481191D01*
X169551559Y-100481193D01*
X169551560Y-100481196D01*
X169587491Y-100558251D01*
X169645511Y-100682676D01*
X169645512Y-100682677D01*
X169773023Y-100864781D01*
X169930219Y-101021977D01*
X170112323Y-101149488D01*
X170313804Y-101243440D01*
X170528537Y-101300978D01*
X170686724Y-101314817D01*
X170749998Y-101320353D01*
X170750000Y-101320353D01*
X170750002Y-101320353D01*
X170805365Y-101315509D01*
X170811183Y-101315000D01*
X175459443Y-101315000D01*
X175479641Y-101571641D01*
X175539739Y-101821964D01*
X175638250Y-102059793D01*
X175638252Y-102059796D01*
X175772759Y-102279292D01*
X175772763Y-102279297D01*
X175835304Y-102352523D01*
X175939951Y-102475049D01*
X176065253Y-102582066D01*
X176135702Y-102642236D01*
X176135707Y-102642240D01*
X176355203Y-102776747D01*
X176355206Y-102776749D01*
X176533213Y-102850481D01*
X176593040Y-102875262D01*
X176843360Y-102935359D01*
X177100000Y-102955557D01*
X177356640Y-102935359D01*
X177606960Y-102875262D01*
X177725878Y-102826004D01*
X177844793Y-102776749D01*
X177844794Y-102776748D01*
X177844797Y-102776747D01*
X178064295Y-102642238D01*
X178260049Y-102475049D01*
X178427238Y-102279295D01*
X178561747Y-102059797D01*
X178561952Y-102059304D01*
X178639639Y-101871749D01*
X178660262Y-101821960D01*
X178720359Y-101571640D01*
X178740557Y-101315000D01*
X178720359Y-101058360D01*
X178660262Y-100808040D01*
X178642745Y-100765750D01*
X178561749Y-100570206D01*
X178561747Y-100570203D01*
X178427240Y-100350707D01*
X178427236Y-100350702D01*
X178367066Y-100280253D01*
X178260049Y-100154951D01*
X178131315Y-100045002D01*
X178064297Y-99987763D01*
X178064292Y-99987759D01*
X177844796Y-99853252D01*
X177844793Y-99853250D01*
X177606964Y-99754739D01*
X177356641Y-99694641D01*
X177100000Y-99674443D01*
X176843358Y-99694641D01*
X176593035Y-99754739D01*
X176355206Y-99853250D01*
X176355203Y-99853252D01*
X176135707Y-99987759D01*
X176135702Y-99987763D01*
X175939951Y-100154951D01*
X175772763Y-100350702D01*
X175772759Y-100350707D01*
X175638252Y-100570203D01*
X175638250Y-100570206D01*
X175539739Y-100808035D01*
X175479641Y-101058358D01*
X175459443Y-101315000D01*
X170811183Y-101315000D01*
X170971463Y-101300978D01*
X171186196Y-101243440D01*
X171387677Y-101149488D01*
X171569781Y-101021977D01*
X171726977Y-100864781D01*
X171854488Y-100682677D01*
X171948440Y-100481196D01*
X172005978Y-100266463D01*
X172025353Y-100045000D01*
X172022562Y-100013102D01*
X172010609Y-99876470D01*
X172005978Y-99823537D01*
X171948440Y-99608804D01*
X171854488Y-99407324D01*
X171854486Y-99407321D01*
X171854485Y-99407319D01*
X171726978Y-99225220D01*
X171712949Y-99211191D01*
X171569781Y-99068023D01*
X171387677Y-98940512D01*
X171273738Y-98887381D01*
X171221299Y-98841210D01*
X171202147Y-98774017D01*
X171222363Y-98707135D01*
X171273739Y-98662618D01*
X171387677Y-98609488D01*
X171569781Y-98481977D01*
X171726977Y-98324781D01*
X171854488Y-98142677D01*
X171948440Y-97941196D01*
X172005978Y-97726463D01*
X172025353Y-97505000D01*
X172019972Y-97443499D01*
X172008853Y-97316400D01*
X172005978Y-97283537D01*
X171948440Y-97068804D01*
X171854488Y-96867324D01*
X171854486Y-96867321D01*
X171854485Y-96867319D01*
X171726978Y-96685220D01*
X171712949Y-96671191D01*
X171569781Y-96528023D01*
X171387677Y-96400512D01*
X171273738Y-96347381D01*
X171221299Y-96301210D01*
X171202147Y-96234017D01*
X171222363Y-96167135D01*
X171273739Y-96122618D01*
X171387677Y-96069488D01*
X171569781Y-95941977D01*
X171726977Y-95784781D01*
X171854488Y-95602677D01*
X171948440Y-95401196D01*
X172005978Y-95186463D01*
X172025353Y-94965000D01*
X172019092Y-94893440D01*
X172016313Y-94861666D01*
X172005978Y-94743537D01*
X171948440Y-94528804D01*
X171854488Y-94327324D01*
X171854486Y-94327321D01*
X171854485Y-94327319D01*
X171726978Y-94145220D01*
X171712949Y-94131191D01*
X171569781Y-93988023D01*
X171387677Y-93860512D01*
X171273738Y-93807381D01*
X171221299Y-93761210D01*
X171202147Y-93694017D01*
X171222363Y-93627135D01*
X171273739Y-93582618D01*
X171387677Y-93529488D01*
X171569781Y-93401977D01*
X171726977Y-93244781D01*
X171854488Y-93062677D01*
X171948440Y-92861196D01*
X172005978Y-92646463D01*
X172025353Y-92425000D01*
X172019092Y-92353440D01*
X172015521Y-92312618D01*
X172005978Y-92203537D01*
X171948440Y-91988804D01*
X171854488Y-91787324D01*
X171854486Y-91787321D01*
X171854485Y-91787319D01*
X171726978Y-91605220D01*
X171657758Y-91536000D01*
X171569781Y-91448023D01*
X171425144Y-91346747D01*
X171387676Y-91320511D01*
X171286936Y-91273536D01*
X171186196Y-91226560D01*
X171186193Y-91226559D01*
X171186191Y-91226558D01*
X170971465Y-91169022D01*
X170971457Y-91169021D01*
X170750002Y-91149647D01*
X170749998Y-91149647D01*
X170528542Y-91169021D01*
X170528535Y-91169022D01*
X170313800Y-91226561D01*
X170112323Y-91320512D01*
X170112319Y-91320514D01*
X169930217Y-91448023D01*
X169773023Y-91605217D01*
X169645514Y-91787319D01*
X169645512Y-91787323D01*
X169551561Y-91988800D01*
X169494022Y-92203535D01*
X169494021Y-92203542D01*
X169474647Y-92424997D01*
X169474647Y-92425002D01*
X169494021Y-92646457D01*
X169494022Y-92646465D01*
X169551558Y-92861191D01*
X169551559Y-92861193D01*
X169551560Y-92861196D01*
X169587491Y-92938251D01*
X169645511Y-93062676D01*
X169645512Y-93062677D01*
X169773023Y-93244781D01*
X169930219Y-93401977D01*
X170112323Y-93529488D01*
X170226261Y-93582618D01*
X170278700Y-93628790D01*
X170297852Y-93695984D01*
X170277636Y-93762865D01*
X170226261Y-93807382D01*
X170112323Y-93860512D01*
X170112319Y-93860514D01*
X169930217Y-93988023D01*
X169773023Y-94145217D01*
X169645514Y-94327319D01*
X169645512Y-94327323D01*
X169551561Y-94528800D01*
X169494022Y-94743535D01*
X169494021Y-94743542D01*
X169474647Y-94964997D01*
X169474647Y-94965002D01*
X169494021Y-95186457D01*
X169494022Y-95186465D01*
X169551558Y-95401191D01*
X169551559Y-95401193D01*
X169551560Y-95401196D01*
X169587247Y-95477727D01*
X169645511Y-95602676D01*
X169645512Y-95602677D01*
X169773023Y-95784781D01*
X169930219Y-95941977D01*
X170112323Y-96069488D01*
X170226261Y-96122618D01*
X170278700Y-96168790D01*
X170297852Y-96235984D01*
X170277636Y-96302865D01*
X170226261Y-96347382D01*
X170112323Y-96400512D01*
X170112319Y-96400514D01*
X169930217Y-96528023D01*
X169773023Y-96685217D01*
X169645514Y-96867319D01*
X169645512Y-96867323D01*
X169551561Y-97068800D01*
X169494022Y-97283535D01*
X169494021Y-97283542D01*
X169474647Y-97504997D01*
X169474647Y-97505002D01*
X169494021Y-97726457D01*
X169494022Y-97726465D01*
X169551558Y-97941191D01*
X169551559Y-97941193D01*
X169551560Y-97941196D01*
X169582430Y-98007397D01*
X169645511Y-98142676D01*
X169645512Y-98142677D01*
X169773023Y-98324781D01*
X169930219Y-98481977D01*
X170112323Y-98609488D01*
X170226261Y-98662618D01*
X170278700Y-98708790D01*
X170297852Y-98775984D01*
X170277636Y-98842865D01*
X170226261Y-98887382D01*
X170112323Y-98940512D01*
X170112319Y-98940514D01*
X169930217Y-99068023D01*
X169773023Y-99225217D01*
X169645514Y-99407319D01*
X169645512Y-99407323D01*
X169551561Y-99608800D01*
X169494022Y-99823535D01*
X169494021Y-99823542D01*
X169474647Y-100044997D01*
X169474647Y-100045002D01*
X168271164Y-100045002D01*
X168431463Y-100030978D01*
X168646196Y-99973440D01*
X168847677Y-99879488D01*
X169029781Y-99751977D01*
X169186977Y-99594781D01*
X169314488Y-99412677D01*
X169408440Y-99211196D01*
X169465978Y-98996463D01*
X169485353Y-98775000D01*
X169479092Y-98703440D01*
X169465978Y-98553542D01*
X169465978Y-98553537D01*
X169408440Y-98338804D01*
X169314488Y-98137324D01*
X169314486Y-98137321D01*
X169314485Y-98137319D01*
X169186978Y-97955220D01*
X169143324Y-97911566D01*
X169029781Y-97798023D01*
X168847677Y-97670512D01*
X168733738Y-97617381D01*
X168681299Y-97571210D01*
X168662147Y-97504017D01*
X168682363Y-97437135D01*
X168733739Y-97392618D01*
X168847677Y-97339488D01*
X169029781Y-97211977D01*
X169186977Y-97054781D01*
X169314488Y-96872677D01*
X169408440Y-96671196D01*
X169465978Y-96456463D01*
X169485353Y-96235000D01*
X169482392Y-96201160D01*
X169470873Y-96069488D01*
X169465978Y-96013537D01*
X169408440Y-95798804D01*
X169314488Y-95597324D01*
X169314486Y-95597321D01*
X169314485Y-95597319D01*
X169186978Y-95415220D01*
X169172949Y-95401191D01*
X169029781Y-95258023D01*
X168847677Y-95130512D01*
X168733738Y-95077381D01*
X168681299Y-95031210D01*
X168662147Y-94964017D01*
X168682363Y-94897135D01*
X168733739Y-94852618D01*
X168847677Y-94799488D01*
X169029781Y-94671977D01*
X169186977Y-94514781D01*
X169314488Y-94332677D01*
X169408440Y-94131196D01*
X169465978Y-93916463D01*
X169485353Y-93695000D01*
X169479092Y-93623440D01*
X169465978Y-93473542D01*
X169465978Y-93473537D01*
X169408440Y-93258804D01*
X169314488Y-93057324D01*
X169314486Y-93057321D01*
X169314485Y-93057319D01*
X169186978Y-92875220D01*
X169172949Y-92861191D01*
X169029781Y-92718023D01*
X168847677Y-92590512D01*
X168847678Y-92590512D01*
X168847676Y-92590511D01*
X168733739Y-92537382D01*
X168646196Y-92496560D01*
X168646192Y-92496558D01*
X168646185Y-92496556D01*
X168609463Y-92486716D01*
X168549803Y-92450350D01*
X168519275Y-92387503D01*
X168527572Y-92318127D01*
X168572058Y-92264250D01*
X168596766Y-92251315D01*
X168730163Y-92199637D01*
X168730170Y-92199634D01*
X168879393Y-92107237D01*
X168879393Y-92107236D01*
X168298635Y-91526477D01*
X168335421Y-91520339D01*
X168447251Y-91459820D01*
X168533371Y-91366269D01*
X168584448Y-91249823D01*
X168584694Y-91246851D01*
X169161306Y-91823463D01*
X169202186Y-91769331D01*
X169202188Y-91769329D01*
X169298173Y-91576564D01*
X169357108Y-91369427D01*
X169376978Y-91155000D01*
X169376978Y-91154999D01*
X169357108Y-90940572D01*
X169298173Y-90733435D01*
X169202188Y-90540670D01*
X169202183Y-90540662D01*
X169161306Y-90486535D01*
X168580762Y-91067079D01*
X168563734Y-90999838D01*
X168494187Y-90893388D01*
X168393843Y-90815287D01*
X168299320Y-90782837D01*
X168879394Y-90202762D01*
X168730167Y-90110364D01*
X168730166Y-90110363D01*
X168529361Y-90032572D01*
X168317673Y-89993000D01*
X168102327Y-89993000D01*
X167890638Y-90032572D01*
X167689835Y-90110362D01*
X167689834Y-90110363D01*
X167540604Y-90202762D01*
X168121365Y-90783522D01*
X168084579Y-90789661D01*
X167972749Y-90850180D01*
X167886629Y-90943731D01*
X167835552Y-91060177D01*
X167835305Y-91063147D01*
X167258692Y-90486534D01*
X167217815Y-90540664D01*
X167121826Y-90733435D01*
X167062891Y-90940572D01*
X167043022Y-91154999D01*
X167043022Y-91155000D01*
X167062891Y-91369427D01*
X167121826Y-91576564D01*
X167217811Y-91769329D01*
X167217816Y-91769337D01*
X167258692Y-91823464D01*
X167839237Y-91242919D01*
X167856266Y-91310162D01*
X167925813Y-91416612D01*
X168026157Y-91494713D01*
X168120679Y-91527162D01*
X167540604Y-92107236D01*
X167689832Y-92199635D01*
X167689836Y-92199637D01*
X167823235Y-92251316D01*
X167878637Y-92293889D01*
X167902228Y-92359656D01*
X167886517Y-92427736D01*
X167836493Y-92476515D01*
X167810537Y-92486717D01*
X167773804Y-92496559D01*
X167572323Y-92590512D01*
X167572319Y-92590514D01*
X167390217Y-92718023D01*
X167233023Y-92875217D01*
X167105514Y-93057319D01*
X167105512Y-93057323D01*
X167011561Y-93258800D01*
X166954022Y-93473535D01*
X166954021Y-93473542D01*
X166934647Y-93694997D01*
X166934647Y-93695002D01*
X166954021Y-93916457D01*
X166954022Y-93916465D01*
X167011558Y-94131191D01*
X167011559Y-94131193D01*
X167011560Y-94131196D01*
X167058536Y-94231936D01*
X167105511Y-94332676D01*
X167105512Y-94332677D01*
X167233023Y-94514781D01*
X167390219Y-94671977D01*
X167514362Y-94758903D01*
X167572323Y-94799488D01*
X167686261Y-94852618D01*
X167738700Y-94898790D01*
X167757852Y-94965984D01*
X167737636Y-95032865D01*
X167686261Y-95077382D01*
X167572323Y-95130512D01*
X167572319Y-95130514D01*
X167390217Y-95258023D01*
X167233023Y-95415217D01*
X167105514Y-95597319D01*
X167105512Y-95597323D01*
X167011561Y-95798800D01*
X166954022Y-96013535D01*
X166954021Y-96013542D01*
X166934647Y-96234997D01*
X166934647Y-96235002D01*
X166954021Y-96456457D01*
X166954022Y-96456465D01*
X167011558Y-96671191D01*
X167011559Y-96671193D01*
X167011560Y-96671196D01*
X167058536Y-96771936D01*
X167105511Y-96872676D01*
X167105512Y-96872677D01*
X167233023Y-97054781D01*
X167390219Y-97211977D01*
X167572323Y-97339488D01*
X167671697Y-97385827D01*
X167686261Y-97392618D01*
X167738700Y-97438790D01*
X167757852Y-97505984D01*
X167737636Y-97572865D01*
X167686261Y-97617382D01*
X167572323Y-97670512D01*
X167572319Y-97670514D01*
X167390217Y-97798023D01*
X167233023Y-97955217D01*
X167105514Y-98137319D01*
X167105512Y-98137323D01*
X167011561Y-98338800D01*
X166954022Y-98553535D01*
X166954021Y-98553542D01*
X166934647Y-98774997D01*
X166934647Y-98775002D01*
X146084749Y-98775002D01*
X146093498Y-98675000D01*
X146073543Y-98446913D01*
X146014284Y-98225757D01*
X145917523Y-98018251D01*
X145786198Y-97830700D01*
X145624300Y-97668802D01*
X145566447Y-97628293D01*
X145522824Y-97573718D01*
X145515630Y-97504220D01*
X145547153Y-97441865D01*
X145600679Y-97408335D01*
X145672913Y-97385827D01*
X145820155Y-97296816D01*
X145941816Y-97175155D01*
X146030827Y-97027913D01*
X146082013Y-96863649D01*
X146088500Y-96792265D01*
X146088499Y-95477736D01*
X146088499Y-95477735D01*
X146088499Y-95477727D01*
X146082014Y-95406355D01*
X146082011Y-95406344D01*
X146030828Y-95242090D01*
X146030827Y-95242089D01*
X146030827Y-95242087D01*
X145941816Y-95094845D01*
X145941814Y-95094843D01*
X145941813Y-95094841D01*
X145820158Y-94973186D01*
X145808244Y-94965984D01*
X145672913Y-94884173D01*
X145600679Y-94861664D01*
X145542534Y-94822928D01*
X145514560Y-94758903D01*
X145525641Y-94689918D01*
X145566447Y-94641707D01*
X145624300Y-94601198D01*
X145786198Y-94439300D01*
X145917523Y-94251749D01*
X146014284Y-94044243D01*
X146073543Y-93823087D01*
X146093498Y-93595000D01*
X146073543Y-93366913D01*
X146014284Y-93145757D01*
X145917523Y-92938251D01*
X145786198Y-92750700D01*
X145624300Y-92588802D01*
X145436749Y-92457477D01*
X145393655Y-92437382D01*
X145341215Y-92391210D01*
X145322063Y-92324017D01*
X145342278Y-92257136D01*
X145393655Y-92212618D01*
X145396882Y-92211112D01*
X145436749Y-92192523D01*
X145624300Y-92061198D01*
X145786198Y-91899300D01*
X145917523Y-91711749D01*
X146014284Y-91504243D01*
X146073543Y-91283087D01*
X146093498Y-91055000D01*
X146092627Y-91045049D01*
X146077501Y-90872157D01*
X146073543Y-90826913D01*
X146014284Y-90605757D01*
X145917523Y-90398251D01*
X145786198Y-90210700D01*
X145624300Y-90048802D01*
X145436749Y-89917477D01*
X145393655Y-89897382D01*
X145379592Y-89885000D01*
X175459443Y-89885000D01*
X175479641Y-90141641D01*
X175539739Y-90391964D01*
X175638250Y-90629793D01*
X175638252Y-90629796D01*
X175772759Y-90849292D01*
X175772763Y-90849297D01*
X175844709Y-90933535D01*
X175939951Y-91045049D01*
X176031340Y-91123102D01*
X176135702Y-91212236D01*
X176135707Y-91212240D01*
X176355203Y-91346747D01*
X176355206Y-91346749D01*
X176533213Y-91420481D01*
X176593040Y-91445262D01*
X176843360Y-91505359D01*
X177100000Y-91525557D01*
X177356640Y-91505359D01*
X177606960Y-91445262D01*
X177725878Y-91396004D01*
X177844793Y-91346749D01*
X177844794Y-91346748D01*
X177844797Y-91346747D01*
X178064295Y-91212238D01*
X178260049Y-91045049D01*
X178427238Y-90849295D01*
X178561747Y-90629797D01*
X178598665Y-90540670D01*
X178657655Y-90398254D01*
X178660262Y-90391960D01*
X178720359Y-90141640D01*
X178740557Y-89885000D01*
X178720359Y-89628360D01*
X178660262Y-89378040D01*
X178574814Y-89171749D01*
X178561749Y-89140206D01*
X178561747Y-89140203D01*
X178427240Y-88920707D01*
X178427236Y-88920702D01*
X178275785Y-88743376D01*
X178260049Y-88724951D01*
X178088977Y-88578842D01*
X178064297Y-88557763D01*
X178064292Y-88557759D01*
X177844796Y-88423252D01*
X177844793Y-88423250D01*
X177606964Y-88324739D01*
X177356641Y-88264641D01*
X177100000Y-88244443D01*
X176843358Y-88264641D01*
X176593035Y-88324739D01*
X176355206Y-88423250D01*
X176355203Y-88423252D01*
X176135707Y-88557759D01*
X176135702Y-88557763D01*
X175939951Y-88724951D01*
X175772763Y-88920702D01*
X175772759Y-88920707D01*
X175638252Y-89140203D01*
X175638250Y-89140206D01*
X175539739Y-89378035D01*
X175479641Y-89628358D01*
X175459443Y-89885000D01*
X145379592Y-89885000D01*
X145341215Y-89851210D01*
X145322063Y-89784017D01*
X145342278Y-89717136D01*
X145393655Y-89672618D01*
X145396882Y-89671112D01*
X145436749Y-89652523D01*
X145624300Y-89521198D01*
X145786198Y-89359300D01*
X145917523Y-89171749D01*
X146014284Y-88964243D01*
X146073543Y-88743087D01*
X146093498Y-88515000D01*
X146073543Y-88286913D01*
X146014284Y-88065757D01*
X145917523Y-87858251D01*
X145786198Y-87670700D01*
X145624300Y-87508802D01*
X145436749Y-87377477D01*
X145393655Y-87357382D01*
X145341215Y-87311210D01*
X145322063Y-87244017D01*
X145342278Y-87177136D01*
X145393655Y-87132618D01*
X145396882Y-87131112D01*
X145436749Y-87112523D01*
X145624300Y-86981198D01*
X145786198Y-86819300D01*
X145917523Y-86631749D01*
X146014284Y-86424243D01*
X146073543Y-86203087D01*
X146093498Y-85975000D01*
X146073543Y-85746913D01*
X146014284Y-85525757D01*
X145917523Y-85318251D01*
X145786198Y-85130700D01*
X145624300Y-84968802D01*
X145566447Y-84928293D01*
X145522824Y-84873718D01*
X145515630Y-84804220D01*
X145547153Y-84741865D01*
X145600679Y-84708335D01*
X145672913Y-84685827D01*
X145820155Y-84596816D01*
X145941816Y-84475155D01*
X146030827Y-84327913D01*
X146082013Y-84163649D01*
X146088500Y-84092265D01*
X146088499Y-82777736D01*
X146088499Y-82777735D01*
X146088499Y-82777727D01*
X146082014Y-82706355D01*
X146082011Y-82706344D01*
X146030828Y-82542090D01*
X146030827Y-82542089D01*
X146030827Y-82542087D01*
X145941816Y-82394845D01*
X145941814Y-82394843D01*
X145941813Y-82394841D01*
X145820158Y-82273186D01*
X145672913Y-82184173D01*
X145672910Y-82184172D01*
X145600679Y-82161664D01*
X145542534Y-82122928D01*
X145514560Y-82058903D01*
X145525641Y-81989918D01*
X145566447Y-81941707D01*
X145624300Y-81901198D01*
X145786198Y-81739300D01*
X145917523Y-81551749D01*
X146014284Y-81344243D01*
X146073543Y-81123087D01*
X146093498Y-80895000D01*
X146073543Y-80666913D01*
X146014284Y-80445757D01*
X145917523Y-80238251D01*
X145786198Y-80050700D01*
X145624300Y-79888802D01*
X145436749Y-79757477D01*
X145393655Y-79737382D01*
X145341215Y-79691210D01*
X145322063Y-79624017D01*
X145342278Y-79557136D01*
X145393655Y-79512618D01*
X145413206Y-79503501D01*
X145436749Y-79492523D01*
X145624300Y-79361198D01*
X145786198Y-79199300D01*
X145917523Y-79011749D01*
X146014284Y-78804243D01*
X146073543Y-78583087D01*
X146093498Y-78355000D01*
X146073543Y-78126913D01*
X146014284Y-77905757D01*
X146008099Y-77892494D01*
X145951381Y-77770860D01*
X145917523Y-77698251D01*
X145786198Y-77510700D01*
X145624300Y-77348802D01*
X145436749Y-77217477D01*
X145436745Y-77217475D01*
X145229249Y-77120718D01*
X145229238Y-77120714D01*
X145008089Y-77061457D01*
X145008081Y-77061456D01*
X144780002Y-77041502D01*
X144779998Y-77041502D01*
X144551918Y-77061456D01*
X144551910Y-77061457D01*
X144330761Y-77120714D01*
X144330750Y-77120718D01*
X144123254Y-77217475D01*
X144123252Y-77217476D01*
X144123251Y-77217477D01*
X143935700Y-77348802D01*
X143935698Y-77348803D01*
X143935695Y-77348806D01*
X143773806Y-77510695D01*
X143773803Y-77510698D01*
X143773802Y-77510700D01*
X143747721Y-77547947D01*
X143642476Y-77698251D01*
X143576972Y-77838727D01*
X143530800Y-77891166D01*
X143463606Y-77910318D01*
X143396725Y-77890102D01*
X143358642Y-77850751D01*
X143358452Y-77850439D01*
X143310055Y-77770853D01*
X143128708Y-77547947D01*
X143009831Y-77436923D01*
X142918700Y-77351812D01*
X142683935Y-77186098D01*
X142445743Y-77062677D01*
X142428797Y-77053896D01*
X142428796Y-77053895D01*
X142428793Y-77053894D01*
X142158037Y-76957667D01*
X142158034Y-76957666D01*
X141981509Y-76920984D01*
X141876686Y-76899202D01*
X141876684Y-76899201D01*
X141876680Y-76899201D01*
X141740654Y-76889897D01*
X141661752Y-76884500D01*
X141518248Y-76884500D01*
X141444743Y-76889527D01*
X141303319Y-76899201D01*
X141021965Y-76957666D01*
X141021962Y-76957667D01*
X140751206Y-77053894D01*
X140496064Y-77186098D01*
X140261299Y-77351812D01*
X140130960Y-77473542D01*
X140054614Y-77544845D01*
X140051289Y-77547950D01*
X139869941Y-77770857D01*
X139869939Y-77770860D01*
X139795971Y-77892494D01*
X139744319Y-77939546D01*
X139675429Y-77951203D01*
X139611172Y-77923765D01*
X139593078Y-77905379D01*
X139574451Y-77882022D01*
X139534520Y-77831951D01*
X139383547Y-77680978D01*
X139183054Y-77480484D01*
X139117103Y-77424792D01*
X139062466Y-77386024D01*
X139062467Y-77386024D01*
X139015984Y-77356651D01*
X138879565Y-77304178D01*
X138879561Y-77304177D01*
X138792799Y-77284375D01*
X138792778Y-77284372D01*
X138678528Y-77271499D01*
X138678534Y-77271499D01*
X138487494Y-77269667D01*
X138372506Y-77269667D01*
X138181463Y-77271500D01*
X138112661Y-77277304D01*
X138095459Y-77278755D01*
X138049682Y-77286532D01*
X138029408Y-77289977D01*
X138029407Y-77289977D01*
X137975779Y-77302072D01*
X137975769Y-77302076D01*
X137842224Y-77361427D01*
X137842215Y-77361431D01*
X137842212Y-77361433D01*
X137842208Y-77361434D01*
X137842205Y-77361437D01*
X137766848Y-77408788D01*
X137766847Y-77408788D01*
X137702863Y-77459814D01*
X137676951Y-77480480D01*
X137676949Y-77480482D01*
X137362967Y-77794463D01*
X137301644Y-77827947D01*
X137231952Y-77822963D01*
X137176019Y-77781091D01*
X137156901Y-77743673D01*
X137140827Y-77692087D01*
X137051816Y-77544845D01*
X137051814Y-77544843D01*
X137051813Y-77544841D01*
X136930158Y-77423186D01*
X136868676Y-77386019D01*
X136782913Y-77334173D01*
X136618649Y-77282987D01*
X136618647Y-77282986D01*
X136618645Y-77282986D01*
X136568667Y-77278444D01*
X136547265Y-77276500D01*
X136547262Y-77276500D01*
X135232727Y-77276500D01*
X135161355Y-77282985D01*
X135161344Y-77282988D01*
X134997090Y-77334171D01*
X134849841Y-77423186D01*
X134728186Y-77544841D01*
X134639171Y-77692089D01*
X134616665Y-77764317D01*
X134577928Y-77822465D01*
X134513903Y-77850439D01*
X134444917Y-77839357D01*
X134396706Y-77798551D01*
X134370559Y-77761210D01*
X134356198Y-77740700D01*
X134194300Y-77578802D01*
X134006749Y-77447477D01*
X133958101Y-77424792D01*
X133799249Y-77350718D01*
X133799238Y-77350714D01*
X133578089Y-77291457D01*
X133578081Y-77291456D01*
X133350002Y-77271502D01*
X133349998Y-77271502D01*
X133121918Y-77291456D01*
X133121910Y-77291457D01*
X132900761Y-77350714D01*
X132900750Y-77350718D01*
X132693254Y-77447475D01*
X132693252Y-77447476D01*
X132656026Y-77473542D01*
X132505700Y-77578802D01*
X132505698Y-77578803D01*
X132505695Y-77578806D01*
X132343802Y-77740699D01*
X132210734Y-77930738D01*
X132156157Y-77974363D01*
X132086659Y-77981555D01*
X132024304Y-77950032D01*
X132003212Y-77924043D01*
X131998602Y-77916463D01*
X131910055Y-77770853D01*
X131728708Y-77547947D01*
X131609831Y-77436923D01*
X131518700Y-77351812D01*
X131283935Y-77186098D01*
X131045743Y-77062677D01*
X131028797Y-77053896D01*
X131028796Y-77053895D01*
X131028793Y-77053894D01*
X130758037Y-76957667D01*
X130758034Y-76957666D01*
X130581509Y-76920984D01*
X130476686Y-76899202D01*
X130476684Y-76899201D01*
X130476680Y-76899201D01*
X130340654Y-76889897D01*
X130261752Y-76884500D01*
X130118248Y-76884500D01*
X130044743Y-76889527D01*
X129903319Y-76899201D01*
X129621965Y-76957666D01*
X129621962Y-76957667D01*
X129351206Y-77053894D01*
X129096064Y-77186098D01*
X128861299Y-77351812D01*
X128730960Y-77473542D01*
X128654614Y-77544845D01*
X128651289Y-77547950D01*
X128469943Y-77770855D01*
X128421356Y-77850752D01*
X128369704Y-77897803D01*
X128300814Y-77909460D01*
X128236557Y-77882022D01*
X128203027Y-77838726D01*
X128199868Y-77831951D01*
X128137523Y-77698251D01*
X128006198Y-77510700D01*
X127844300Y-77348802D01*
X127656749Y-77217477D01*
X127656745Y-77217475D01*
X127449249Y-77120718D01*
X127449238Y-77120714D01*
X127228089Y-77061457D01*
X127228081Y-77061456D01*
X127000002Y-77041502D01*
X126999998Y-77041502D01*
X126771918Y-77061456D01*
X126771910Y-77061457D01*
X126550761Y-77120714D01*
X126550750Y-77120718D01*
X126343254Y-77217475D01*
X126343252Y-77217476D01*
X126343251Y-77217477D01*
X126155700Y-77348802D01*
X126155698Y-77348803D01*
X126155695Y-77348806D01*
X125993806Y-77510695D01*
X125993803Y-77510698D01*
X125993802Y-77510700D01*
X125914860Y-77623440D01*
X125862476Y-77698252D01*
X125862475Y-77698254D01*
X125765718Y-77905750D01*
X125765714Y-77905761D01*
X125706457Y-78126910D01*
X125706456Y-78126918D01*
X125686502Y-78354998D01*
X125686502Y-78355001D01*
X125706456Y-78583081D01*
X125706457Y-78583089D01*
X125765714Y-78804238D01*
X125765718Y-78804249D01*
X125847216Y-78979022D01*
X125862477Y-79011749D01*
X125993802Y-79199300D01*
X126155700Y-79361198D01*
X126322163Y-79477757D01*
X126343251Y-79492523D01*
X126386345Y-79512618D01*
X126438784Y-79558791D01*
X126457936Y-79625984D01*
X126437720Y-79692865D01*
X126386345Y-79737382D01*
X126343251Y-79757476D01*
X126254980Y-79819285D01*
X126155700Y-79888802D01*
X126155698Y-79888803D01*
X126155695Y-79888806D01*
X125993806Y-80050695D01*
X125993803Y-80050698D01*
X125993802Y-80050700D01*
X125914860Y-80163440D01*
X125862476Y-80238252D01*
X125862475Y-80238254D01*
X125765718Y-80445750D01*
X125765714Y-80445761D01*
X125706457Y-80666910D01*
X125706456Y-80666918D01*
X125686502Y-80894998D01*
X125686502Y-80895001D01*
X125706456Y-81123081D01*
X125706457Y-81123089D01*
X125765714Y-81344238D01*
X125765718Y-81344249D01*
X125847216Y-81519022D01*
X125862477Y-81551749D01*
X125993802Y-81739300D01*
X126155700Y-81901198D01*
X126213552Y-81941706D01*
X126257175Y-81996281D01*
X126264369Y-82065779D01*
X126232846Y-82128134D01*
X126179318Y-82161664D01*
X126107089Y-82184172D01*
X126107087Y-82184172D01*
X126107087Y-82184173D01*
X126058006Y-82213843D01*
X125959841Y-82273186D01*
X125838186Y-82394841D01*
X125749173Y-82542086D01*
X125697986Y-82706354D01*
X125694052Y-82749647D01*
X125691749Y-82775002D01*
X125691500Y-82777737D01*
X125691500Y-84092272D01*
X125697985Y-84163644D01*
X125697988Y-84163655D01*
X125749171Y-84327909D01*
X125749172Y-84327911D01*
X125749173Y-84327913D01*
X125808469Y-84426000D01*
X125838186Y-84475158D01*
X125959841Y-84596813D01*
X125959843Y-84596814D01*
X125959845Y-84596816D01*
X126107087Y-84685827D01*
X126179319Y-84708335D01*
X126237464Y-84747070D01*
X126265439Y-84811095D01*
X126254358Y-84880080D01*
X126213552Y-84928293D01*
X126155697Y-84968804D01*
X125993806Y-85130695D01*
X125993803Y-85130698D01*
X125993802Y-85130700D01*
X125940376Y-85207000D01*
X125862476Y-85318252D01*
X125862475Y-85318254D01*
X125765718Y-85525750D01*
X125765714Y-85525761D01*
X125706457Y-85746910D01*
X125706456Y-85746918D01*
X125686502Y-85974998D01*
X125686502Y-85975001D01*
X125706456Y-86203081D01*
X125706457Y-86203089D01*
X125765714Y-86424238D01*
X125765718Y-86424249D01*
X125857538Y-86621158D01*
X125862477Y-86631749D01*
X125993802Y-86819300D01*
X126155700Y-86981198D01*
X126343251Y-87112523D01*
X126386345Y-87132618D01*
X126438784Y-87178791D01*
X126457936Y-87245984D01*
X126437720Y-87312865D01*
X126386345Y-87357382D01*
X126343251Y-87377476D01*
X126218126Y-87465090D01*
X126155700Y-87508802D01*
X126155698Y-87508803D01*
X126155695Y-87508806D01*
X125993806Y-87670695D01*
X125862476Y-87858252D01*
X125862475Y-87858254D01*
X125765718Y-88065750D01*
X125765714Y-88065761D01*
X125706457Y-88286910D01*
X125706456Y-88286918D01*
X125686502Y-88514998D01*
X125686502Y-88515001D01*
X125706456Y-88743081D01*
X125706457Y-88743089D01*
X125765714Y-88964238D01*
X125765718Y-88964249D01*
X125847767Y-89140203D01*
X125862477Y-89171749D01*
X125993802Y-89359300D01*
X126155700Y-89521198D01*
X126343251Y-89652523D01*
X126386345Y-89672618D01*
X126438784Y-89718791D01*
X126457936Y-89785984D01*
X126437720Y-89852865D01*
X126386345Y-89897382D01*
X126343251Y-89917476D01*
X126287433Y-89956561D01*
X126155700Y-90048802D01*
X126155698Y-90048803D01*
X126155695Y-90048806D01*
X125993806Y-90210695D01*
X125862476Y-90398252D01*
X125862475Y-90398254D01*
X125765718Y-90605750D01*
X125765714Y-90605761D01*
X125706457Y-90826910D01*
X125706456Y-90826918D01*
X125686502Y-91054998D01*
X125686502Y-91055001D01*
X125706456Y-91283081D01*
X125706457Y-91283089D01*
X125765714Y-91504238D01*
X125765718Y-91504249D01*
X125812802Y-91605220D01*
X125862477Y-91711749D01*
X125993802Y-91899300D01*
X126155700Y-92061198D01*
X126343251Y-92192523D01*
X126386345Y-92212618D01*
X126438784Y-92258791D01*
X126457936Y-92325984D01*
X126437720Y-92392865D01*
X126386345Y-92437382D01*
X126343251Y-92457476D01*
X126287433Y-92496561D01*
X126155700Y-92588802D01*
X126155698Y-92588803D01*
X126155695Y-92588806D01*
X125993806Y-92750695D01*
X125862476Y-92938252D01*
X125862475Y-92938254D01*
X125765718Y-93145750D01*
X125765714Y-93145761D01*
X125706457Y-93366910D01*
X125706456Y-93366918D01*
X125686502Y-93594998D01*
X125686502Y-93595001D01*
X125706456Y-93823081D01*
X125706457Y-93823089D01*
X125765714Y-94044238D01*
X125765718Y-94044249D01*
X125812802Y-94145220D01*
X125862477Y-94251749D01*
X125993802Y-94439300D01*
X126155700Y-94601198D01*
X126213552Y-94641706D01*
X126257175Y-94696281D01*
X126264369Y-94765779D01*
X126232846Y-94828134D01*
X126179318Y-94861664D01*
X126107089Y-94884172D01*
X125959841Y-94973186D01*
X125838186Y-95094841D01*
X125749173Y-95242086D01*
X125697986Y-95406354D01*
X125691500Y-95477737D01*
X125691500Y-96792272D01*
X125697985Y-96863644D01*
X125697988Y-96863655D01*
X125749171Y-97027909D01*
X125749172Y-97027911D01*
X125749173Y-97027913D01*
X125765418Y-97054785D01*
X125838186Y-97175158D01*
X125959841Y-97296813D01*
X125959843Y-97296814D01*
X125959845Y-97296816D01*
X126107087Y-97385827D01*
X126179319Y-97408335D01*
X126237464Y-97447070D01*
X126265439Y-97511095D01*
X126254358Y-97580080D01*
X126213552Y-97628293D01*
X126155697Y-97668804D01*
X125993806Y-97830695D01*
X125993803Y-97830698D01*
X125993802Y-97830700D01*
X125937177Y-97911569D01*
X125862476Y-98018252D01*
X125862475Y-98018254D01*
X125765718Y-98225750D01*
X125765714Y-98225761D01*
X125706457Y-98446910D01*
X125706456Y-98446918D01*
X125686502Y-98674998D01*
X125686502Y-98675001D01*
X125706456Y-98903081D01*
X125706457Y-98903089D01*
X125765714Y-99124238D01*
X125765718Y-99124249D01*
X125812802Y-99225220D01*
X125862477Y-99331749D01*
X125993802Y-99519300D01*
X126155700Y-99681198D01*
X126343251Y-99812523D01*
X126386345Y-99832618D01*
X126438784Y-99878791D01*
X126457936Y-99945984D01*
X126437720Y-100012865D01*
X126386345Y-100057382D01*
X126343251Y-100077476D01*
X126254212Y-100139823D01*
X126155700Y-100208802D01*
X126155698Y-100208803D01*
X126155695Y-100208806D01*
X125993806Y-100370695D01*
X125993803Y-100370698D01*
X125993802Y-100370700D01*
X125926677Y-100466564D01*
X125862476Y-100558252D01*
X125862475Y-100558254D01*
X125765718Y-100765750D01*
X125765714Y-100765761D01*
X125706457Y-100986910D01*
X125706456Y-100986918D01*
X125686502Y-101214998D01*
X125686502Y-101215001D01*
X125706456Y-101443081D01*
X125706457Y-101443089D01*
X125765714Y-101664238D01*
X125765718Y-101664249D01*
X125835505Y-101813908D01*
X125862477Y-101871749D01*
X125993802Y-102059300D01*
X126155700Y-102221198D01*
X126343251Y-102352523D01*
X126386345Y-102372618D01*
X126438784Y-102418791D01*
X126457936Y-102485984D01*
X126437720Y-102552865D01*
X126386345Y-102597382D01*
X126343251Y-102617476D01*
X126218126Y-102705090D01*
X126155700Y-102748802D01*
X126155698Y-102748803D01*
X126155695Y-102748806D01*
X125993806Y-102910695D01*
X125993803Y-102910698D01*
X125993802Y-102910700D01*
X125962393Y-102955557D01*
X125862476Y-103098252D01*
X125862475Y-103098254D01*
X125765718Y-103305750D01*
X125765714Y-103305761D01*
X125706457Y-103526910D01*
X125706456Y-103526918D01*
X125686502Y-103754998D01*
X125686502Y-103755001D01*
X125706456Y-103983081D01*
X125706457Y-103983089D01*
X125765714Y-104204238D01*
X125765718Y-104204249D01*
X125862475Y-104411745D01*
X125862477Y-104411749D01*
X125993802Y-104599300D01*
X126155700Y-104761198D01*
X126343251Y-104892523D01*
X126386345Y-104912618D01*
X126438784Y-104958791D01*
X126457936Y-105025984D01*
X126437720Y-105092865D01*
X126386345Y-105137382D01*
X126343251Y-105157476D01*
X126218126Y-105245090D01*
X126155700Y-105288802D01*
X126155698Y-105288803D01*
X126155695Y-105288806D01*
X125993806Y-105450695D01*
X125862476Y-105638252D01*
X125862475Y-105638254D01*
X125765718Y-105845750D01*
X125765714Y-105845761D01*
X125706457Y-106066910D01*
X125706456Y-106066918D01*
X125686502Y-106294998D01*
X125686502Y-106295001D01*
X95010500Y-106295001D01*
X95010500Y-101315000D01*
X96259443Y-101315000D01*
X96279641Y-101571641D01*
X96339739Y-101821964D01*
X96438250Y-102059793D01*
X96438252Y-102059796D01*
X96572759Y-102279292D01*
X96572763Y-102279297D01*
X96635304Y-102352523D01*
X96739951Y-102475049D01*
X96865253Y-102582066D01*
X96935702Y-102642236D01*
X96935707Y-102642240D01*
X97155203Y-102776747D01*
X97155206Y-102776749D01*
X97333213Y-102850481D01*
X97393040Y-102875262D01*
X97643360Y-102935359D01*
X97900000Y-102955557D01*
X98156640Y-102935359D01*
X98406960Y-102875262D01*
X98525878Y-102826004D01*
X98644793Y-102776749D01*
X98644794Y-102776748D01*
X98644797Y-102776747D01*
X98864295Y-102642238D01*
X99060049Y-102475049D01*
X99227238Y-102279295D01*
X99361747Y-102059797D01*
X99361952Y-102059304D01*
X99439639Y-101871749D01*
X99460262Y-101821960D01*
X99520359Y-101571640D01*
X99540557Y-101315000D01*
X99520359Y-101058360D01*
X99460262Y-100808040D01*
X99442745Y-100765750D01*
X99361749Y-100570206D01*
X99361747Y-100570203D01*
X99227240Y-100350707D01*
X99227236Y-100350702D01*
X99167066Y-100280253D01*
X99060049Y-100154951D01*
X98931315Y-100045002D01*
X98864297Y-99987763D01*
X98864292Y-99987759D01*
X98644796Y-99853252D01*
X98644793Y-99853250D01*
X98406964Y-99754739D01*
X98156641Y-99694641D01*
X97900000Y-99674443D01*
X97643358Y-99694641D01*
X97393035Y-99754739D01*
X97155206Y-99853250D01*
X97155203Y-99853252D01*
X96935707Y-99987759D01*
X96935702Y-99987763D01*
X96739951Y-100154951D01*
X96572763Y-100350702D01*
X96572759Y-100350707D01*
X96438252Y-100570203D01*
X96438250Y-100570206D01*
X96339739Y-100808035D01*
X96279641Y-101058358D01*
X96259443Y-101315000D01*
X95010500Y-101315000D01*
X95010500Y-98775002D01*
X102974647Y-98775002D01*
X102994021Y-98996457D01*
X102994022Y-98996465D01*
X103051558Y-99211191D01*
X103051559Y-99211193D01*
X103051560Y-99211196D01*
X103098536Y-99311936D01*
X103145511Y-99412676D01*
X103145512Y-99412677D01*
X103273023Y-99594781D01*
X103430219Y-99751977D01*
X103612323Y-99879488D01*
X103813804Y-99973440D01*
X104028537Y-100030978D01*
X104186724Y-100044817D01*
X104249998Y-100050353D01*
X104250000Y-100050353D01*
X104250002Y-100050353D01*
X104311164Y-100045002D01*
X104471463Y-100030978D01*
X104686196Y-99973440D01*
X104887677Y-99879488D01*
X105069781Y-99751977D01*
X105226977Y-99594781D01*
X105354488Y-99412677D01*
X105448440Y-99211196D01*
X105505978Y-98996463D01*
X105525353Y-98775000D01*
X105519092Y-98703440D01*
X105505978Y-98553542D01*
X105505978Y-98553537D01*
X105448440Y-98338804D01*
X105354488Y-98137324D01*
X105354486Y-98137321D01*
X105354485Y-98137319D01*
X105226978Y-97955220D01*
X105183324Y-97911566D01*
X105069781Y-97798023D01*
X104887677Y-97670512D01*
X104773738Y-97617381D01*
X104721299Y-97571210D01*
X104702428Y-97505002D01*
X105514647Y-97505002D01*
X105534021Y-97726457D01*
X105534022Y-97726465D01*
X105591558Y-97941191D01*
X105591559Y-97941193D01*
X105591560Y-97941196D01*
X105622430Y-98007397D01*
X105685511Y-98142676D01*
X105685512Y-98142677D01*
X105813023Y-98324781D01*
X105970219Y-98481977D01*
X106152323Y-98609488D01*
X106353804Y-98703440D01*
X106379472Y-98710317D01*
X106390534Y-98713282D01*
X106450194Y-98749647D01*
X106480723Y-98812494D01*
X106472428Y-98881870D01*
X106427943Y-98935748D01*
X106403234Y-98948684D01*
X106269835Y-99000362D01*
X106269834Y-99000363D01*
X106120604Y-99092762D01*
X106701365Y-99673522D01*
X106664579Y-99679661D01*
X106552749Y-99740180D01*
X106466629Y-99833731D01*
X106415552Y-99950177D01*
X106415305Y-99953147D01*
X105838692Y-99376534D01*
X105797815Y-99430664D01*
X105701826Y-99623435D01*
X105642891Y-99830572D01*
X105623022Y-100044999D01*
X105623022Y-100045000D01*
X105642891Y-100259427D01*
X105701826Y-100466564D01*
X105797811Y-100659329D01*
X105797816Y-100659337D01*
X105838692Y-100713464D01*
X106419237Y-100132919D01*
X106436266Y-100200162D01*
X106505813Y-100306612D01*
X106606157Y-100384713D01*
X106700679Y-100417162D01*
X106120604Y-100997236D01*
X106269832Y-101089635D01*
X106269833Y-101089636D01*
X106470638Y-101167427D01*
X106682327Y-101207000D01*
X106897673Y-101207000D01*
X107109361Y-101167427D01*
X107310166Y-101089636D01*
X107310170Y-101089634D01*
X107459393Y-100997237D01*
X107459393Y-100997236D01*
X106878635Y-100416477D01*
X106915421Y-100410339D01*
X107027251Y-100349820D01*
X107113371Y-100256269D01*
X107164448Y-100139823D01*
X107164694Y-100136851D01*
X107741306Y-100713463D01*
X107782186Y-100659331D01*
X107782188Y-100659329D01*
X107878173Y-100466564D01*
X107937108Y-100259427D01*
X107956978Y-100045000D01*
X107956978Y-100044999D01*
X107937108Y-99830572D01*
X107878173Y-99623435D01*
X107782188Y-99430670D01*
X107782183Y-99430662D01*
X107741306Y-99376535D01*
X107160762Y-99957079D01*
X107143734Y-99889838D01*
X107074187Y-99783388D01*
X106973843Y-99705287D01*
X106879320Y-99672837D01*
X107459394Y-99092762D01*
X107310167Y-99000364D01*
X107310166Y-99000363D01*
X107176765Y-98948684D01*
X107121364Y-98906111D01*
X107097773Y-98840344D01*
X107113484Y-98772264D01*
X107163508Y-98723485D01*
X107189466Y-98713282D01*
X107212406Y-98707135D01*
X107226196Y-98703440D01*
X107427677Y-98609488D01*
X107609781Y-98481977D01*
X107766977Y-98324781D01*
X107894488Y-98142677D01*
X107988440Y-97941196D01*
X108045978Y-97726463D01*
X108065353Y-97505000D01*
X108059972Y-97443499D01*
X108048853Y-97316400D01*
X108045978Y-97283537D01*
X107988440Y-97068804D01*
X107894488Y-96867324D01*
X107894486Y-96867321D01*
X107894485Y-96867319D01*
X107766978Y-96685220D01*
X107752949Y-96671191D01*
X107609781Y-96528023D01*
X107427677Y-96400512D01*
X107313738Y-96347381D01*
X107261299Y-96301210D01*
X107242147Y-96234017D01*
X107262363Y-96167135D01*
X107313739Y-96122618D01*
X107427677Y-96069488D01*
X107609781Y-95941977D01*
X107766977Y-95784781D01*
X107894488Y-95602677D01*
X107988440Y-95401196D01*
X108045978Y-95186463D01*
X108065353Y-94965000D01*
X108059092Y-94893440D01*
X108056313Y-94861666D01*
X108045978Y-94743537D01*
X107988440Y-94528804D01*
X107894488Y-94327324D01*
X107894486Y-94327321D01*
X107894485Y-94327319D01*
X107766978Y-94145220D01*
X107752949Y-94131191D01*
X107609781Y-93988023D01*
X107427677Y-93860512D01*
X107313738Y-93807381D01*
X107261299Y-93761210D01*
X107242147Y-93694017D01*
X107262363Y-93627135D01*
X107313739Y-93582618D01*
X107427677Y-93529488D01*
X107609781Y-93401977D01*
X107766977Y-93244781D01*
X107894488Y-93062677D01*
X107988440Y-92861196D01*
X108045978Y-92646463D01*
X108065353Y-92425000D01*
X108059092Y-92353440D01*
X108055521Y-92312618D01*
X108045978Y-92203537D01*
X107988440Y-91988804D01*
X107894488Y-91787324D01*
X107894486Y-91787321D01*
X107894485Y-91787319D01*
X107766978Y-91605220D01*
X107697758Y-91536000D01*
X107609781Y-91448023D01*
X107465144Y-91346747D01*
X107427676Y-91320511D01*
X107326936Y-91273536D01*
X107226196Y-91226560D01*
X107226193Y-91226559D01*
X107226191Y-91226558D01*
X107011465Y-91169022D01*
X107011457Y-91169021D01*
X106790002Y-91149647D01*
X106789998Y-91149647D01*
X106568542Y-91169021D01*
X106568535Y-91169022D01*
X106353800Y-91226561D01*
X106152323Y-91320512D01*
X106152319Y-91320514D01*
X105970217Y-91448023D01*
X105813023Y-91605217D01*
X105685514Y-91787319D01*
X105685512Y-91787323D01*
X105591561Y-91988800D01*
X105534022Y-92203535D01*
X105534021Y-92203542D01*
X105514647Y-92424997D01*
X105514647Y-92425002D01*
X105534021Y-92646457D01*
X105534022Y-92646465D01*
X105591558Y-92861191D01*
X105591559Y-92861193D01*
X105591560Y-92861196D01*
X105627491Y-92938251D01*
X105685511Y-93062676D01*
X105685512Y-93062677D01*
X105813023Y-93244781D01*
X105970219Y-93401977D01*
X106152323Y-93529488D01*
X106266261Y-93582618D01*
X106318700Y-93628790D01*
X106337852Y-93695984D01*
X106317636Y-93762865D01*
X106266261Y-93807382D01*
X106152323Y-93860512D01*
X106152319Y-93860514D01*
X105970217Y-93988023D01*
X105813023Y-94145217D01*
X105685514Y-94327319D01*
X105685512Y-94327323D01*
X105591561Y-94528800D01*
X105534022Y-94743535D01*
X105534021Y-94743542D01*
X105514647Y-94964997D01*
X105514647Y-94965002D01*
X105534021Y-95186457D01*
X105534022Y-95186465D01*
X105591558Y-95401191D01*
X105591559Y-95401193D01*
X105591560Y-95401196D01*
X105627247Y-95477727D01*
X105685511Y-95602676D01*
X105685512Y-95602677D01*
X105813023Y-95784781D01*
X105970219Y-95941977D01*
X106152323Y-96069488D01*
X106266261Y-96122618D01*
X106318700Y-96168790D01*
X106337852Y-96235984D01*
X106317636Y-96302865D01*
X106266261Y-96347382D01*
X106152323Y-96400512D01*
X106152319Y-96400514D01*
X105970217Y-96528023D01*
X105813023Y-96685217D01*
X105685514Y-96867319D01*
X105685512Y-96867323D01*
X105591561Y-97068800D01*
X105534022Y-97283535D01*
X105534021Y-97283542D01*
X105514647Y-97504997D01*
X105514647Y-97505002D01*
X104702428Y-97505002D01*
X104702147Y-97504017D01*
X104722363Y-97437135D01*
X104773739Y-97392618D01*
X104887677Y-97339488D01*
X105069781Y-97211977D01*
X105226977Y-97054781D01*
X105354488Y-96872677D01*
X105448440Y-96671196D01*
X105505978Y-96456463D01*
X105525353Y-96235000D01*
X105522392Y-96201160D01*
X105510873Y-96069488D01*
X105505978Y-96013537D01*
X105448440Y-95798804D01*
X105354488Y-95597324D01*
X105354486Y-95597321D01*
X105354485Y-95597319D01*
X105226978Y-95415220D01*
X105212949Y-95401191D01*
X105069781Y-95258023D01*
X104887677Y-95130512D01*
X104773738Y-95077381D01*
X104721299Y-95031210D01*
X104702147Y-94964017D01*
X104722363Y-94897135D01*
X104773739Y-94852618D01*
X104887677Y-94799488D01*
X105069781Y-94671977D01*
X105226977Y-94514781D01*
X105354488Y-94332677D01*
X105448440Y-94131196D01*
X105505978Y-93916463D01*
X105525353Y-93695000D01*
X105519092Y-93623440D01*
X105505978Y-93473542D01*
X105505978Y-93473537D01*
X105448440Y-93258804D01*
X105354488Y-93057324D01*
X105354486Y-93057321D01*
X105354485Y-93057319D01*
X105226978Y-92875220D01*
X105212949Y-92861191D01*
X105069781Y-92718023D01*
X104887677Y-92590512D01*
X104884018Y-92588806D01*
X104773739Y-92537382D01*
X104721299Y-92491210D01*
X104702147Y-92424017D01*
X104722363Y-92357135D01*
X104773739Y-92312618D01*
X104887677Y-92259488D01*
X105069781Y-92131977D01*
X105226977Y-91974781D01*
X105354488Y-91792677D01*
X105448440Y-91591196D01*
X105505978Y-91376463D01*
X105525353Y-91155000D01*
X105522562Y-91123102D01*
X105511778Y-90999838D01*
X105505978Y-90933537D01*
X105448440Y-90718804D01*
X105354488Y-90517324D01*
X105354486Y-90517321D01*
X105354485Y-90517319D01*
X105226978Y-90335220D01*
X105226975Y-90335217D01*
X105069781Y-90178023D01*
X104887677Y-90050512D01*
X104887678Y-90050512D01*
X104887676Y-90050511D01*
X104764342Y-89993000D01*
X104686196Y-89956560D01*
X104686193Y-89956559D01*
X104686191Y-89956558D01*
X104471465Y-89899022D01*
X104471457Y-89899021D01*
X104250002Y-89879647D01*
X104249998Y-89879647D01*
X104028542Y-89899021D01*
X104028535Y-89899022D01*
X103813800Y-89956561D01*
X103612323Y-90050512D01*
X103612319Y-90050514D01*
X103430217Y-90178023D01*
X103273023Y-90335217D01*
X103145514Y-90517319D01*
X103145512Y-90517323D01*
X103051561Y-90718800D01*
X102994022Y-90933535D01*
X102994021Y-90933542D01*
X102974647Y-91154997D01*
X102974647Y-91155002D01*
X102994021Y-91376457D01*
X102994022Y-91376465D01*
X103051558Y-91591191D01*
X103051559Y-91591193D01*
X103051560Y-91591196D01*
X103098536Y-91691936D01*
X103145511Y-91792676D01*
X103145512Y-91792677D01*
X103273023Y-91974781D01*
X103430219Y-92131977D01*
X103600651Y-92251315D01*
X103612323Y-92259488D01*
X103726261Y-92312618D01*
X103778700Y-92358790D01*
X103797852Y-92425984D01*
X103777636Y-92492865D01*
X103726261Y-92537382D01*
X103612323Y-92590512D01*
X103612319Y-92590514D01*
X103430217Y-92718023D01*
X103273023Y-92875217D01*
X103145514Y-93057319D01*
X103145512Y-93057323D01*
X103051561Y-93258800D01*
X102994022Y-93473535D01*
X102994021Y-93473542D01*
X102974647Y-93694997D01*
X102974647Y-93695002D01*
X102994021Y-93916457D01*
X102994022Y-93916465D01*
X103051558Y-94131191D01*
X103051559Y-94131193D01*
X103051560Y-94131196D01*
X103098536Y-94231936D01*
X103145511Y-94332676D01*
X103145512Y-94332677D01*
X103273023Y-94514781D01*
X103430219Y-94671977D01*
X103554362Y-94758903D01*
X103612323Y-94799488D01*
X103726261Y-94852618D01*
X103778700Y-94898790D01*
X103797852Y-94965984D01*
X103777636Y-95032865D01*
X103726261Y-95077382D01*
X103612323Y-95130512D01*
X103612319Y-95130514D01*
X103430217Y-95258023D01*
X103273023Y-95415217D01*
X103145514Y-95597319D01*
X103145512Y-95597323D01*
X103051561Y-95798800D01*
X102994022Y-96013535D01*
X102994021Y-96013542D01*
X102974647Y-96234997D01*
X102974647Y-96235002D01*
X102994021Y-96456457D01*
X102994022Y-96456465D01*
X103051558Y-96671191D01*
X103051559Y-96671193D01*
X103051560Y-96671196D01*
X103098536Y-96771936D01*
X103145511Y-96872676D01*
X103145512Y-96872677D01*
X103273023Y-97054781D01*
X103430219Y-97211977D01*
X103612323Y-97339488D01*
X103711697Y-97385827D01*
X103726261Y-97392618D01*
X103778700Y-97438790D01*
X103797852Y-97505984D01*
X103777636Y-97572865D01*
X103726261Y-97617382D01*
X103612323Y-97670512D01*
X103612319Y-97670514D01*
X103430217Y-97798023D01*
X103273023Y-97955217D01*
X103145514Y-98137319D01*
X103145512Y-98137323D01*
X103051561Y-98338800D01*
X102994022Y-98553535D01*
X102994021Y-98553542D01*
X102974647Y-98774997D01*
X102974647Y-98775002D01*
X95010500Y-98775002D01*
X95010500Y-89885000D01*
X96259443Y-89885000D01*
X96279641Y-90141641D01*
X96339739Y-90391964D01*
X96438250Y-90629793D01*
X96438252Y-90629796D01*
X96572759Y-90849292D01*
X96572763Y-90849297D01*
X96644709Y-90933535D01*
X96739951Y-91045049D01*
X96831340Y-91123102D01*
X96935702Y-91212236D01*
X96935707Y-91212240D01*
X97155203Y-91346747D01*
X97155206Y-91346749D01*
X97333213Y-91420481D01*
X97393040Y-91445262D01*
X97643360Y-91505359D01*
X97900000Y-91525557D01*
X98156640Y-91505359D01*
X98406960Y-91445262D01*
X98525878Y-91396004D01*
X98644793Y-91346749D01*
X98644794Y-91346748D01*
X98644797Y-91346747D01*
X98864295Y-91212238D01*
X99060049Y-91045049D01*
X99227238Y-90849295D01*
X99361747Y-90629797D01*
X99398665Y-90540670D01*
X99457655Y-90398254D01*
X99460262Y-90391960D01*
X99520359Y-90141640D01*
X99540557Y-89885000D01*
X99520359Y-89628360D01*
X99460262Y-89378040D01*
X99374814Y-89171749D01*
X99361749Y-89140206D01*
X99361747Y-89140203D01*
X99227240Y-88920707D01*
X99227236Y-88920702D01*
X99075785Y-88743376D01*
X99060049Y-88724951D01*
X98888977Y-88578842D01*
X98864297Y-88557763D01*
X98864292Y-88557759D01*
X98644796Y-88423252D01*
X98644793Y-88423250D01*
X98406964Y-88324739D01*
X98156641Y-88264641D01*
X97900000Y-88244443D01*
X97643358Y-88264641D01*
X97393035Y-88324739D01*
X97155206Y-88423250D01*
X97155203Y-88423252D01*
X96935707Y-88557759D01*
X96935702Y-88557763D01*
X96739951Y-88724951D01*
X96572763Y-88920702D01*
X96572759Y-88920707D01*
X96438252Y-89140203D01*
X96438250Y-89140206D01*
X96339739Y-89378035D01*
X96279641Y-89628358D01*
X96259443Y-89885000D01*
X95010500Y-89885000D01*
X95010500Y-85315000D01*
X96259443Y-85315000D01*
X96279641Y-85571641D01*
X96339739Y-85821964D01*
X96438250Y-86059793D01*
X96438252Y-86059796D01*
X96572759Y-86279292D01*
X96572763Y-86279297D01*
X96648548Y-86368030D01*
X96739951Y-86475049D01*
X96865253Y-86582066D01*
X96935702Y-86642236D01*
X96935707Y-86642240D01*
X97155203Y-86776747D01*
X97155206Y-86776749D01*
X97333213Y-86850481D01*
X97393040Y-86875262D01*
X97643360Y-86935359D01*
X97900000Y-86955557D01*
X98156640Y-86935359D01*
X98406960Y-86875262D01*
X98542065Y-86819300D01*
X98644793Y-86776749D01*
X98644794Y-86776748D01*
X98644797Y-86776747D01*
X98864295Y-86642238D01*
X99060049Y-86475049D01*
X99227238Y-86279295D01*
X99361747Y-86059797D01*
X99460262Y-85821960D01*
X99520359Y-85571640D01*
X99540557Y-85315000D01*
X99520359Y-85058360D01*
X99460262Y-84808040D01*
X99458680Y-84804220D01*
X99361749Y-84570206D01*
X99361747Y-84570203D01*
X99227240Y-84350707D01*
X99227236Y-84350702D01*
X99167066Y-84280253D01*
X99060049Y-84154951D01*
X98931315Y-84045002D01*
X98864297Y-83987763D01*
X98864292Y-83987759D01*
X98644796Y-83853252D01*
X98644793Y-83853250D01*
X98406964Y-83754739D01*
X98156641Y-83694641D01*
X97900000Y-83674443D01*
X97643358Y-83694641D01*
X97393035Y-83754739D01*
X97155206Y-83853250D01*
X97155203Y-83853252D01*
X96935707Y-83987759D01*
X96935702Y-83987763D01*
X96739951Y-84154951D01*
X96572763Y-84350702D01*
X96572759Y-84350707D01*
X96438252Y-84570203D01*
X96438250Y-84570206D01*
X96339739Y-84808035D01*
X96279641Y-85058358D01*
X96259443Y-85315000D01*
X95010500Y-85315000D01*
X95010500Y-73885000D01*
X96259443Y-73885000D01*
X96279641Y-74141641D01*
X96339739Y-74391964D01*
X96438250Y-74629793D01*
X96438252Y-74629796D01*
X96572759Y-74849292D01*
X96572763Y-74849297D01*
X96616763Y-74900814D01*
X96739951Y-75045049D01*
X96831340Y-75123102D01*
X96935702Y-75212236D01*
X96935707Y-75212240D01*
X97155203Y-75346747D01*
X97155206Y-75346749D01*
X97333213Y-75420481D01*
X97393040Y-75445262D01*
X97643360Y-75505359D01*
X97900000Y-75525557D01*
X98156640Y-75505359D01*
X98406960Y-75445262D01*
X98525878Y-75396004D01*
X98644793Y-75346749D01*
X98644794Y-75346748D01*
X98644797Y-75346747D01*
X98864295Y-75212238D01*
X99060049Y-75045049D01*
X99227238Y-74849295D01*
X99361747Y-74629797D01*
X99398665Y-74540670D01*
X99428558Y-74468500D01*
X99460262Y-74391960D01*
X99520359Y-74141640D01*
X99540557Y-73885000D01*
X99520359Y-73628360D01*
X99460262Y-73378040D01*
X99439410Y-73327699D01*
X99361749Y-73140206D01*
X99361747Y-73140203D01*
X99227240Y-72920707D01*
X99227236Y-72920702D01*
X99151506Y-72832034D01*
X99060049Y-72724951D01*
X98907858Y-72594968D01*
X98864297Y-72557763D01*
X98864292Y-72557759D01*
X98644796Y-72423252D01*
X98644793Y-72423250D01*
X98406964Y-72324739D01*
X98156641Y-72264641D01*
X97900000Y-72244443D01*
X97643358Y-72264641D01*
X97393035Y-72324739D01*
X97155206Y-72423250D01*
X97155203Y-72423252D01*
X96935707Y-72557759D01*
X96935702Y-72557763D01*
X96739951Y-72724951D01*
X96572763Y-72920702D01*
X96572759Y-72920707D01*
X96438252Y-73140203D01*
X96438250Y-73140206D01*
X96339739Y-73378035D01*
X96279641Y-73628358D01*
X96259443Y-73885000D01*
X95010500Y-73885000D01*
X95010500Y-58623200D01*
X102525235Y-58623200D01*
X102543865Y-58859914D01*
X102599295Y-59090795D01*
X102599295Y-59090797D01*
X102690157Y-59310159D01*
X102690159Y-59310162D01*
X102814220Y-59512610D01*
X102814221Y-59512613D01*
X102842094Y-59545248D01*
X102968431Y-59693169D01*
X102968434Y-59693172D01*
X102968440Y-59693178D01*
X102986429Y-59708541D01*
X103024624Y-59767047D01*
X103029900Y-59802833D01*
X103029900Y-74783313D01*
X103025675Y-74815406D01*
X102994022Y-74933534D01*
X102994022Y-74933538D01*
X102974647Y-75154997D01*
X102974647Y-75155002D01*
X102994021Y-75376457D01*
X102994022Y-75376465D01*
X103051558Y-75591191D01*
X103051559Y-75591193D01*
X103051560Y-75591196D01*
X103098536Y-75691936D01*
X103145511Y-75792676D01*
X103145512Y-75792677D01*
X103273023Y-75974781D01*
X103430219Y-76131977D01*
X103600651Y-76251315D01*
X103612323Y-76259488D01*
X103726261Y-76312618D01*
X103778700Y-76358790D01*
X103797852Y-76425984D01*
X103777636Y-76492865D01*
X103726261Y-76537382D01*
X103612323Y-76590512D01*
X103612319Y-76590514D01*
X103430217Y-76718023D01*
X103273023Y-76875217D01*
X103145514Y-77057319D01*
X103145512Y-77057323D01*
X103051561Y-77258800D01*
X102994022Y-77473535D01*
X102994021Y-77473542D01*
X102974647Y-77694997D01*
X102974647Y-77695002D01*
X102994021Y-77916457D01*
X102994022Y-77916465D01*
X103051558Y-78131191D01*
X103051559Y-78131193D01*
X103051560Y-78131196D01*
X103098536Y-78231936D01*
X103145511Y-78332676D01*
X103145512Y-78332677D01*
X103273023Y-78514781D01*
X103430219Y-78671977D01*
X103612323Y-78799488D01*
X103726261Y-78852618D01*
X103778700Y-78898790D01*
X103797852Y-78965984D01*
X103777636Y-79032865D01*
X103726261Y-79077382D01*
X103612323Y-79130512D01*
X103612319Y-79130514D01*
X103430217Y-79258023D01*
X103273023Y-79415217D01*
X103145514Y-79597319D01*
X103145512Y-79597323D01*
X103051561Y-79798800D01*
X102994022Y-80013535D01*
X102994021Y-80013542D01*
X102974647Y-80234997D01*
X102974647Y-80235002D01*
X102994021Y-80456457D01*
X102994022Y-80456465D01*
X103051558Y-80671191D01*
X103051559Y-80671193D01*
X103051560Y-80671196D01*
X103098536Y-80771936D01*
X103145511Y-80872676D01*
X103145512Y-80872677D01*
X103273023Y-81054781D01*
X103430219Y-81211977D01*
X103612323Y-81339488D01*
X103695032Y-81378056D01*
X103726261Y-81392618D01*
X103778700Y-81438790D01*
X103797852Y-81505984D01*
X103777636Y-81572865D01*
X103726261Y-81617382D01*
X103612323Y-81670512D01*
X103612319Y-81670514D01*
X103430217Y-81798023D01*
X103273023Y-81955217D01*
X103145514Y-82137319D01*
X103145512Y-82137323D01*
X103051561Y-82338800D01*
X102994022Y-82553535D01*
X102994021Y-82553542D01*
X102974647Y-82774997D01*
X102974647Y-82775002D01*
X102994021Y-82996457D01*
X102994022Y-82996465D01*
X103051558Y-83211191D01*
X103051559Y-83211193D01*
X103051560Y-83211196D01*
X103098536Y-83311936D01*
X103145511Y-83412676D01*
X103145512Y-83412677D01*
X103273023Y-83594781D01*
X103430219Y-83751977D01*
X103612323Y-83879488D01*
X103813804Y-83973440D01*
X104028537Y-84030978D01*
X104186724Y-84044817D01*
X104249998Y-84050353D01*
X104250000Y-84050353D01*
X104250002Y-84050353D01*
X104311164Y-84045002D01*
X104471463Y-84030978D01*
X104686196Y-83973440D01*
X104887677Y-83879488D01*
X105069781Y-83751977D01*
X105226977Y-83594781D01*
X105354488Y-83412677D01*
X105448440Y-83211196D01*
X105505978Y-82996463D01*
X105525114Y-82777735D01*
X105525353Y-82775002D01*
X105525353Y-82774997D01*
X105505978Y-82553542D01*
X105505978Y-82553537D01*
X105448440Y-82338804D01*
X105354488Y-82137324D01*
X105354486Y-82137321D01*
X105354485Y-82137319D01*
X105226978Y-81955220D01*
X105172953Y-81901195D01*
X105069781Y-81798023D01*
X104887677Y-81670512D01*
X104773738Y-81617381D01*
X104721299Y-81571210D01*
X104702428Y-81505002D01*
X105514647Y-81505002D01*
X105534021Y-81726457D01*
X105534022Y-81726465D01*
X105591558Y-81941191D01*
X105591559Y-81941193D01*
X105591560Y-81941196D01*
X105617247Y-81996281D01*
X105685511Y-82142676D01*
X105685512Y-82142677D01*
X105813023Y-82324781D01*
X105970219Y-82481977D01*
X106152323Y-82609488D01*
X106353804Y-82703440D01*
X106379472Y-82710317D01*
X106390534Y-82713282D01*
X106450194Y-82749647D01*
X106480723Y-82812494D01*
X106472428Y-82881870D01*
X106427943Y-82935748D01*
X106403234Y-82948684D01*
X106269835Y-83000362D01*
X106269834Y-83000363D01*
X106120604Y-83092762D01*
X106701365Y-83673522D01*
X106664579Y-83679661D01*
X106552749Y-83740180D01*
X106466629Y-83833731D01*
X106415552Y-83950177D01*
X106415305Y-83953147D01*
X105838692Y-83376534D01*
X105797815Y-83430664D01*
X105701826Y-83623435D01*
X105642891Y-83830572D01*
X105623022Y-84044999D01*
X105623022Y-84045000D01*
X105642891Y-84259427D01*
X105701826Y-84466564D01*
X105797811Y-84659329D01*
X105797816Y-84659337D01*
X105838692Y-84713464D01*
X106419237Y-84132919D01*
X106436266Y-84200162D01*
X106505813Y-84306612D01*
X106606157Y-84384713D01*
X106700679Y-84417162D01*
X106120604Y-84997236D01*
X106269832Y-85089635D01*
X106269833Y-85089636D01*
X106470638Y-85167427D01*
X106682327Y-85207000D01*
X106897673Y-85207000D01*
X107109361Y-85167427D01*
X107310166Y-85089636D01*
X107310170Y-85089634D01*
X107459393Y-84997237D01*
X107459393Y-84997236D01*
X106878635Y-84416477D01*
X106915421Y-84410339D01*
X107027251Y-84349820D01*
X107113371Y-84256269D01*
X107164448Y-84139823D01*
X107164694Y-84136851D01*
X107741306Y-84713463D01*
X107782186Y-84659331D01*
X107782188Y-84659329D01*
X107878173Y-84466564D01*
X107937108Y-84259427D01*
X107956978Y-84045000D01*
X107956978Y-84044999D01*
X107937108Y-83830572D01*
X107878173Y-83623435D01*
X107782188Y-83430670D01*
X107782183Y-83430662D01*
X107741306Y-83376535D01*
X107160762Y-83957079D01*
X107143734Y-83889838D01*
X107074187Y-83783388D01*
X106973843Y-83705287D01*
X106879320Y-83672837D01*
X107459394Y-83092762D01*
X107310167Y-83000364D01*
X107310166Y-83000363D01*
X107176765Y-82948684D01*
X107121364Y-82906111D01*
X107097773Y-82840344D01*
X107113484Y-82772264D01*
X107163508Y-82723485D01*
X107189466Y-82713282D01*
X107215358Y-82706344D01*
X107226196Y-82703440D01*
X107427677Y-82609488D01*
X107609781Y-82481977D01*
X107766977Y-82324781D01*
X107894488Y-82142677D01*
X107988440Y-81941196D01*
X108045978Y-81726463D01*
X108065353Y-81505000D01*
X108059092Y-81433440D01*
X108051289Y-81344243D01*
X108045978Y-81283537D01*
X107988440Y-81068804D01*
X107894488Y-80867324D01*
X107894486Y-80867321D01*
X107894485Y-80867319D01*
X107766978Y-80685220D01*
X107699945Y-80618187D01*
X107609781Y-80528023D01*
X107427677Y-80400512D01*
X107313738Y-80347381D01*
X107261299Y-80301210D01*
X107242147Y-80234017D01*
X107262363Y-80167135D01*
X107313739Y-80122618D01*
X107427677Y-80069488D01*
X107609781Y-79941977D01*
X107766977Y-79784781D01*
X107894488Y-79602677D01*
X107988440Y-79401196D01*
X108045978Y-79186463D01*
X108065353Y-78965000D01*
X108059092Y-78893440D01*
X108051289Y-78804243D01*
X108045978Y-78743537D01*
X107988440Y-78528804D01*
X107894488Y-78327324D01*
X107894486Y-78327321D01*
X107894485Y-78327319D01*
X107766978Y-78145220D01*
X107704765Y-78083007D01*
X107609781Y-77988023D01*
X107427677Y-77860512D01*
X107406744Y-77850751D01*
X107313739Y-77807382D01*
X107261299Y-77761210D01*
X107242147Y-77694017D01*
X107262363Y-77627135D01*
X107313739Y-77582618D01*
X107321914Y-77578806D01*
X107427677Y-77529488D01*
X107609781Y-77401977D01*
X107766977Y-77244781D01*
X107894488Y-77062677D01*
X107988440Y-76861196D01*
X108045978Y-76646463D01*
X108065353Y-76425000D01*
X108059092Y-76353440D01*
X108055521Y-76312618D01*
X108045978Y-76203537D01*
X107988440Y-75988804D01*
X107894488Y-75787324D01*
X107894486Y-75787321D01*
X107894485Y-75787319D01*
X107766978Y-75605220D01*
X107697758Y-75536000D01*
X107609781Y-75448023D01*
X107465144Y-75346747D01*
X107427676Y-75320511D01*
X107326936Y-75273536D01*
X107226196Y-75226560D01*
X107226193Y-75226559D01*
X107226191Y-75226558D01*
X107011465Y-75169022D01*
X107011457Y-75169021D01*
X106790002Y-75149647D01*
X106789998Y-75149647D01*
X106568542Y-75169021D01*
X106568535Y-75169022D01*
X106353800Y-75226561D01*
X106152323Y-75320512D01*
X106152319Y-75320514D01*
X105970217Y-75448023D01*
X105813023Y-75605217D01*
X105685514Y-75787319D01*
X105685512Y-75787323D01*
X105591561Y-75988800D01*
X105534022Y-76203535D01*
X105534021Y-76203542D01*
X105514647Y-76424997D01*
X105514647Y-76425002D01*
X105534021Y-76646457D01*
X105534022Y-76646465D01*
X105591558Y-76861191D01*
X105591559Y-76861193D01*
X105591560Y-76861196D01*
X105636545Y-76957666D01*
X105685511Y-77062676D01*
X105685512Y-77062677D01*
X105813023Y-77244781D01*
X105970219Y-77401977D01*
X106152323Y-77529488D01*
X106258077Y-77578802D01*
X106266261Y-77582618D01*
X106318700Y-77628790D01*
X106337852Y-77695984D01*
X106317636Y-77762865D01*
X106266261Y-77807382D01*
X106152323Y-77860512D01*
X106152319Y-77860514D01*
X105970217Y-77988023D01*
X105813023Y-78145217D01*
X105685514Y-78327319D01*
X105685512Y-78327323D01*
X105591561Y-78528800D01*
X105534022Y-78743535D01*
X105534021Y-78743542D01*
X105514647Y-78964997D01*
X105514647Y-78965002D01*
X105534021Y-79186457D01*
X105534022Y-79186465D01*
X105591558Y-79401191D01*
X105591559Y-79401193D01*
X105591560Y-79401196D01*
X105626227Y-79475539D01*
X105685511Y-79602676D01*
X105685512Y-79602677D01*
X105813023Y-79784781D01*
X105970219Y-79941977D01*
X106125484Y-80050695D01*
X106152323Y-80069488D01*
X106266261Y-80122618D01*
X106318700Y-80168790D01*
X106337852Y-80235984D01*
X106317636Y-80302865D01*
X106266261Y-80347382D01*
X106152323Y-80400512D01*
X106152319Y-80400514D01*
X105970217Y-80528023D01*
X105813023Y-80685217D01*
X105685514Y-80867319D01*
X105685512Y-80867323D01*
X105591561Y-81068800D01*
X105534022Y-81283535D01*
X105534021Y-81283542D01*
X105514647Y-81504997D01*
X105514647Y-81505002D01*
X104702428Y-81505002D01*
X104702147Y-81504017D01*
X104722363Y-81437135D01*
X104773739Y-81392618D01*
X104804965Y-81378057D01*
X104887677Y-81339488D01*
X105069781Y-81211977D01*
X105226977Y-81054781D01*
X105354488Y-80872677D01*
X105448440Y-80671196D01*
X105505978Y-80456463D01*
X105525068Y-80238254D01*
X105525353Y-80235002D01*
X105525353Y-80234997D01*
X105509229Y-80050700D01*
X105505978Y-80013537D01*
X105448440Y-79798804D01*
X105354488Y-79597324D01*
X105354486Y-79597321D01*
X105354485Y-79597319D01*
X105226978Y-79415220D01*
X105149807Y-79338049D01*
X105069781Y-79258023D01*
X104887677Y-79130512D01*
X104773738Y-79077381D01*
X104721299Y-79031210D01*
X104702147Y-78964017D01*
X104722363Y-78897135D01*
X104773739Y-78852618D01*
X104887677Y-78799488D01*
X105069781Y-78671977D01*
X105226977Y-78514781D01*
X105354488Y-78332677D01*
X105448440Y-78131196D01*
X105505978Y-77916463D01*
X105525068Y-77698254D01*
X105525353Y-77695002D01*
X105525353Y-77694997D01*
X105509229Y-77510700D01*
X105505978Y-77473537D01*
X105448440Y-77258804D01*
X105354488Y-77057324D01*
X105354486Y-77057321D01*
X105354485Y-77057319D01*
X105226978Y-76875220D01*
X105212949Y-76861191D01*
X105069781Y-76718023D01*
X104887677Y-76590512D01*
X104773738Y-76537381D01*
X104721299Y-76491210D01*
X104702147Y-76424017D01*
X104722363Y-76357135D01*
X104773739Y-76312618D01*
X104887677Y-76259488D01*
X105069781Y-76131977D01*
X105226977Y-75974781D01*
X105354488Y-75792677D01*
X105448440Y-75591196D01*
X105505978Y-75376463D01*
X105525353Y-75155000D01*
X105522562Y-75123102D01*
X105511778Y-74999838D01*
X105505978Y-74933537D01*
X105448440Y-74718804D01*
X105354488Y-74517324D01*
X105354486Y-74517321D01*
X105354485Y-74517319D01*
X105226976Y-74335217D01*
X105083219Y-74191460D01*
X105049734Y-74130137D01*
X105046900Y-74103779D01*
X105046900Y-68391348D01*
X120228100Y-68391348D01*
X120242622Y-68520239D01*
X120299806Y-68683663D01*
X120299807Y-68683664D01*
X120330015Y-68731740D01*
X120330016Y-68731740D01*
X121635099Y-67426656D01*
X121674746Y-67490263D01*
X121814868Y-67637671D01*
X121917993Y-67709448D01*
X120612858Y-69014582D01*
X120660941Y-69044795D01*
X120824360Y-69101977D01*
X120953251Y-69116499D01*
X120953255Y-69116500D01*
X123985945Y-69116500D01*
X123985948Y-69116499D01*
X124114837Y-69101977D01*
X124278266Y-69044791D01*
X124326341Y-69014582D01*
X123023197Y-67711439D01*
X123043814Y-67699996D01*
X123198131Y-67567520D01*
X123305828Y-67428386D01*
X124609182Y-68731741D01*
X124639391Y-68683666D01*
X124696577Y-68520237D01*
X124711099Y-68391348D01*
X124711100Y-68391344D01*
X124711100Y-65358655D01*
X124711099Y-65358651D01*
X124696577Y-65229760D01*
X124639395Y-65066341D01*
X124609182Y-65018258D01*
X123304099Y-66323341D01*
X123264454Y-66259737D01*
X123124332Y-66112329D01*
X123021205Y-66040550D01*
X124326340Y-64735416D01*
X124326340Y-64735415D01*
X124278264Y-64705207D01*
X124278263Y-64705206D01*
X124114839Y-64648022D01*
X123985948Y-64633500D01*
X120953251Y-64633500D01*
X120824360Y-64648022D01*
X120660936Y-64705206D01*
X120612857Y-64735415D01*
X120612857Y-64735416D01*
X121916002Y-66038560D01*
X121895386Y-66050004D01*
X121741069Y-66182480D01*
X121633371Y-66321613D01*
X120330016Y-65018257D01*
X120330015Y-65018257D01*
X120299806Y-65066336D01*
X120242622Y-65229760D01*
X120228100Y-65358651D01*
X120228100Y-68391348D01*
X105046900Y-68391348D01*
X105046900Y-59802833D01*
X105066585Y-59735794D01*
X105090371Y-59708541D01*
X105108359Y-59693178D01*
X105108360Y-59693176D01*
X105108369Y-59693169D01*
X105262576Y-59512616D01*
X105386640Y-59310163D01*
X105408646Y-59257037D01*
X105477504Y-59090797D01*
X105477504Y-59090796D01*
X105477505Y-59090794D01*
X105532935Y-58859911D01*
X105551565Y-58623200D01*
X105532935Y-58386489D01*
X105528785Y-58369205D01*
X112641202Y-58369205D01*
X112660361Y-58600418D01*
X112717317Y-58825335D01*
X112810516Y-59037809D01*
X112922753Y-59209601D01*
X113578972Y-58553383D01*
X113586507Y-58579044D01*
X113664239Y-58699998D01*
X113772900Y-58794152D01*
X113862823Y-58835218D01*
X113207438Y-59490602D01*
X113207439Y-59490603D01*
X113277646Y-59545248D01*
X113481697Y-59655676D01*
X113481706Y-59655679D01*
X113701139Y-59731011D01*
X113929993Y-59769200D01*
X114162007Y-59769200D01*
X114390860Y-59731011D01*
X114610293Y-59655679D01*
X114610301Y-59655676D01*
X114814355Y-59545247D01*
X114814356Y-59545246D01*
X114884559Y-59490603D01*
X114884560Y-59490602D01*
X114229176Y-58835219D01*
X114319100Y-58794152D01*
X114427761Y-58699998D01*
X114505493Y-58579044D01*
X114513027Y-58553385D01*
X115169244Y-59209602D01*
X115281482Y-59037811D01*
X115374682Y-58825335D01*
X115431638Y-58600418D01*
X115450798Y-58369205D01*
X115450798Y-58369194D01*
X115431638Y-58137981D01*
X115374682Y-57913064D01*
X115281484Y-57700593D01*
X115169244Y-57528796D01*
X114513026Y-58185014D01*
X114505493Y-58159356D01*
X114427761Y-58038402D01*
X114319100Y-57944248D01*
X114229176Y-57903180D01*
X114884559Y-57247796D01*
X114884559Y-57247795D01*
X114814353Y-57193151D01*
X114610302Y-57082723D01*
X114610293Y-57082720D01*
X114390860Y-57007388D01*
X114162007Y-56969200D01*
X113929993Y-56969200D01*
X113701139Y-57007388D01*
X113481706Y-57082720D01*
X113481697Y-57082723D01*
X113277650Y-57193148D01*
X113207439Y-57247795D01*
X113207439Y-57247796D01*
X113862823Y-57903180D01*
X113772900Y-57944248D01*
X113664239Y-58038402D01*
X113586507Y-58159356D01*
X113578972Y-58185015D01*
X112922753Y-57528796D01*
X112810516Y-57700590D01*
X112717317Y-57913064D01*
X112660361Y-58137981D01*
X112641202Y-58369194D01*
X112641202Y-58369205D01*
X105528785Y-58369205D01*
X105477505Y-58155606D01*
X105477504Y-58155603D01*
X105477504Y-58155602D01*
X105386642Y-57936240D01*
X105386640Y-57936237D01*
X105262579Y-57733789D01*
X105262578Y-57733786D01*
X105227740Y-57692997D01*
X105108369Y-57553231D01*
X104988996Y-57451276D01*
X104927813Y-57399021D01*
X104927810Y-57399020D01*
X104725362Y-57274959D01*
X104725359Y-57274957D01*
X104505996Y-57184095D01*
X104275114Y-57128665D01*
X104038400Y-57110035D01*
X103801685Y-57128665D01*
X103570804Y-57184095D01*
X103570802Y-57184095D01*
X103351440Y-57274957D01*
X103351437Y-57274959D01*
X103148989Y-57399020D01*
X103148986Y-57399021D01*
X102968431Y-57553231D01*
X102814221Y-57733786D01*
X102814220Y-57733789D01*
X102690159Y-57936237D01*
X102690157Y-57936240D01*
X102599295Y-58155602D01*
X102599295Y-58155604D01*
X102543865Y-58386485D01*
X102525235Y-58623200D01*
X95010500Y-58623200D01*
X95010500Y-50067763D01*
X98145787Y-50067763D01*
X98175413Y-50337013D01*
X98175415Y-50337024D01*
X98212679Y-50479559D01*
X98243928Y-50599088D01*
X98349870Y-50848390D01*
X98421998Y-50966575D01*
X98490979Y-51079605D01*
X98490986Y-51079615D01*
X98664253Y-51287819D01*
X98664259Y-51287824D01*
X98865998Y-51468582D01*
X99091910Y-51618044D01*
X99337176Y-51733020D01*
X99337183Y-51733022D01*
X99337185Y-51733023D01*
X99596557Y-51811057D01*
X99596564Y-51811058D01*
X99596569Y-51811060D01*
X99864561Y-51850500D01*
X99864566Y-51850500D01*
X100067636Y-51850500D01*
X100119133Y-51846730D01*
X100270156Y-51835677D01*
X100407371Y-51805111D01*
X100534546Y-51776782D01*
X100534548Y-51776781D01*
X100534553Y-51776780D01*
X100787558Y-51680014D01*
X101023777Y-51547441D01*
X101238177Y-51381888D01*
X101426186Y-51186881D01*
X101583799Y-50966579D01*
X101666777Y-50805185D01*
X101707649Y-50725690D01*
X101707651Y-50725684D01*
X101707656Y-50725675D01*
X101795118Y-50469305D01*
X101844319Y-50202933D01*
X101850390Y-50036824D01*
X104793800Y-50036824D01*
X104793801Y-51975175D01*
X104796611Y-52028094D01*
X104841329Y-52259311D01*
X104924481Y-52479651D01*
X105043674Y-52682767D01*
X105043679Y-52682774D01*
X105195479Y-52862818D01*
X105195481Y-52862820D01*
X105375525Y-53014620D01*
X105375532Y-53014625D01*
X105578648Y-53133818D01*
X105798986Y-53216970D01*
X106030208Y-53261689D01*
X106083129Y-53264500D01*
X108021470Y-53264499D01*
X108021475Y-53264499D01*
X108033593Y-53263855D01*
X108074392Y-53261689D01*
X108305614Y-53216970D01*
X108525952Y-53133818D01*
X108729068Y-53014625D01*
X108909119Y-52862819D01*
X109060925Y-52682768D01*
X109180118Y-52479652D01*
X109253786Y-52284443D01*
X109295873Y-52228672D01*
X109361431Y-52204508D01*
X109429646Y-52219623D01*
X109478861Y-52269218D01*
X109493800Y-52328225D01*
X109493800Y-55804654D01*
X109500311Y-55865202D01*
X109500311Y-55865204D01*
X109551411Y-56002204D01*
X109639039Y-56119261D01*
X109756096Y-56206889D01*
X109893099Y-56257989D01*
X109920350Y-56260918D01*
X109953645Y-56264499D01*
X109953662Y-56264500D01*
X113550938Y-56264500D01*
X113550954Y-56264499D01*
X113577992Y-56261591D01*
X113611501Y-56257989D01*
X113748504Y-56206889D01*
X113865561Y-56119261D01*
X113953189Y-56002204D01*
X114004289Y-55865201D01*
X114007891Y-55831692D01*
X114010799Y-55804654D01*
X114010800Y-55804637D01*
X114010800Y-52207362D01*
X114010799Y-52207345D01*
X114007457Y-52176270D01*
X114004289Y-52146799D01*
X113953189Y-52009796D01*
X113865561Y-51892739D01*
X113748504Y-51805111D01*
X113611503Y-51754011D01*
X113550954Y-51747500D01*
X113550938Y-51747500D01*
X109953662Y-51747500D01*
X109953645Y-51747500D01*
X109893097Y-51754011D01*
X109893095Y-51754011D01*
X109756095Y-51805111D01*
X109639039Y-51892739D01*
X109551410Y-52009796D01*
X109550976Y-52010961D01*
X109550232Y-52011953D01*
X109547163Y-52017576D01*
X109546353Y-52017134D01*
X109509098Y-52066890D01*
X109443631Y-52091299D01*
X109375360Y-52076439D01*
X109325960Y-52027028D01*
X109310799Y-51967617D01*
X109310799Y-50036830D01*
X109307989Y-49983908D01*
X109263270Y-49752686D01*
X109180118Y-49532348D01*
X109060925Y-49329232D01*
X109060920Y-49329225D01*
X108909120Y-49149181D01*
X108909118Y-49149179D01*
X108729074Y-48997379D01*
X108729067Y-48997374D01*
X108525951Y-48878181D01*
X108305611Y-48795029D01*
X108074396Y-48750311D01*
X108021475Y-48747500D01*
X108021471Y-48747500D01*
X107159986Y-48747500D01*
X106083125Y-48747501D01*
X106030205Y-48750311D01*
X105798988Y-48795029D01*
X105578648Y-48878181D01*
X105375532Y-48997374D01*
X105375525Y-48997379D01*
X105195481Y-49149179D01*
X105195479Y-49149181D01*
X105043679Y-49329225D01*
X105043674Y-49329232D01*
X104924481Y-49532348D01*
X104841329Y-49752688D01*
X104796611Y-49983903D01*
X104793800Y-50036824D01*
X101850390Y-50036824D01*
X101854212Y-49932235D01*
X101824586Y-49662982D01*
X101756072Y-49400912D01*
X101650130Y-49151610D01*
X101509018Y-48920390D01*
X101504995Y-48915556D01*
X101335746Y-48712180D01*
X101335740Y-48712175D01*
X101134002Y-48531418D01*
X100908092Y-48381957D01*
X100811759Y-48336798D01*
X100662824Y-48266980D01*
X100662819Y-48266978D01*
X100662814Y-48266976D01*
X100403442Y-48188942D01*
X100403428Y-48188939D01*
X100287791Y-48171921D01*
X100135439Y-48149500D01*
X99932369Y-48149500D01*
X99932364Y-48149500D01*
X99729844Y-48164323D01*
X99729831Y-48164325D01*
X99465453Y-48223217D01*
X99465446Y-48223220D01*
X99212439Y-48319987D01*
X98976226Y-48452557D01*
X98761822Y-48618112D01*
X98573822Y-48813109D01*
X98573816Y-48813116D01*
X98416202Y-49033419D01*
X98416199Y-49033424D01*
X98292350Y-49274309D01*
X98292343Y-49274327D01*
X98204884Y-49530685D01*
X98204881Y-49530699D01*
X98183857Y-49644525D01*
X98156933Y-49790292D01*
X98155681Y-49797068D01*
X98155680Y-49797075D01*
X98145787Y-50067763D01*
X95010500Y-50067763D01*
X95010500Y-50000000D01*
X95027436Y-49590517D01*
X95027856Y-49585448D01*
X95078235Y-49181281D01*
X95079073Y-49176259D01*
X95162654Y-48777643D01*
X95163909Y-48772690D01*
X95280123Y-48382335D01*
X95281769Y-48377542D01*
X95429821Y-47998118D01*
X95431865Y-47993456D01*
X95523507Y-47806000D01*
X109602300Y-47806000D01*
X110289917Y-47806000D01*
X110252300Y-47934111D01*
X110252300Y-48077889D01*
X110289917Y-48206000D01*
X109602301Y-48206000D01*
X109602301Y-48826982D01*
X109608447Y-48915559D01*
X109608448Y-48915568D01*
X109657241Y-49123017D01*
X109657246Y-49123032D01*
X109743328Y-49317990D01*
X109863774Y-49493820D01*
X110014479Y-49644525D01*
X110190309Y-49764971D01*
X110385267Y-49851053D01*
X110385282Y-49851058D01*
X110592729Y-49899850D01*
X110592743Y-49899852D01*
X110681317Y-49906000D01*
X111552299Y-49905999D01*
X111552300Y-49905998D01*
X111552300Y-48506000D01*
X111952300Y-48506000D01*
X111952300Y-49905999D01*
X112823282Y-49905999D01*
X112911859Y-49899852D01*
X112911868Y-49899851D01*
X113119317Y-49851058D01*
X113119332Y-49851053D01*
X113314290Y-49764971D01*
X113490120Y-49644525D01*
X113640825Y-49493820D01*
X113761271Y-49317990D01*
X113847353Y-49123032D01*
X113847358Y-49123017D01*
X113896150Y-48915570D01*
X113896152Y-48915556D01*
X113902300Y-48826983D01*
X113902300Y-48206000D01*
X113214683Y-48206000D01*
X113252300Y-48077889D01*
X113252300Y-47934111D01*
X113214683Y-47806000D01*
X113902299Y-47806000D01*
X113902299Y-47185018D01*
X113896152Y-47096440D01*
X113896151Y-47096431D01*
X113847358Y-46888982D01*
X113847353Y-46888967D01*
X113761271Y-46694009D01*
X113640825Y-46518179D01*
X113490120Y-46367474D01*
X113314290Y-46247028D01*
X113119332Y-46160946D01*
X113119317Y-46160941D01*
X112911870Y-46112149D01*
X112911856Y-46112147D01*
X112823283Y-46106000D01*
X111952300Y-46106000D01*
X111952300Y-47506000D01*
X111552300Y-47506000D01*
X111552300Y-46106000D01*
X111552299Y-46106000D01*
X110681319Y-46106001D01*
X110681318Y-46106001D01*
X110592740Y-46112147D01*
X110592731Y-46112148D01*
X110385282Y-46160941D01*
X110385267Y-46160946D01*
X110190309Y-46247028D01*
X110014479Y-46367474D01*
X109863774Y-46518179D01*
X109743328Y-46694009D01*
X109657246Y-46888967D01*
X109657241Y-46888982D01*
X109608449Y-47096429D01*
X109608447Y-47096443D01*
X109602300Y-47185017D01*
X109602300Y-47806000D01*
X95523507Y-47806000D01*
X95610746Y-47627550D01*
X95613173Y-47623066D01*
X95821657Y-47273184D01*
X95824440Y-47268925D01*
X96061116Y-46937439D01*
X96064221Y-46933450D01*
X96327466Y-46622639D01*
X96330894Y-46618915D01*
X96618915Y-46330894D01*
X96622639Y-46327466D01*
X96933450Y-46064221D01*
X96937439Y-46061116D01*
X97268925Y-45824440D01*
X97273184Y-45821657D01*
X97623072Y-45613169D01*
X97627550Y-45610746D01*
X97993456Y-45431865D01*
X97998118Y-45429821D01*
X98377542Y-45281769D01*
X98382335Y-45280123D01*
X98772698Y-45163906D01*
X98777643Y-45162654D01*
X99176259Y-45079073D01*
X99181281Y-45078235D01*
X99585448Y-45027856D01*
X99590517Y-45027436D01*
X100000000Y-45010500D01*
X100003412Y-45010500D01*
X120599053Y-45010500D01*
X120666092Y-45030185D01*
G37*
%TD.AperFunction*%
%TD*%
M02*
