%TF.GenerationSoftware,KiCad,Pcbnew,7.0.7*%
%TF.CreationDate,2023-08-26T12:26:51-04:00*%
%TF.ProjectId,ArenaController,4172656e-6143-46f6-9e74-726f6c6c6572,v0.7*%
%TF.SameCoordinates,Original*%
%TF.FileFunction,Drillmap*%
%TF.FilePolarity,Positive*%
%FSLAX45Y45*%
G04 Gerber Fmt 4.5, Leading zero omitted, Abs format (unit mm)*
G04 Created by KiCad (PCBNEW 7.0.7) date 2023-08-26 12:26:51*
%MOMM*%
%LPD*%
G01*
G04 APERTURE LIST*
%ADD10C,0.200000*%
%ADD11C,0.320000*%
G04 APERTURE END LIST*
D10*
X10000000Y-4500000D02*
G75*
G03*
X9500000Y-5000000I0J-500000D01*
G01*
X9500000Y-13000000D02*
G75*
G03*
X10000000Y-13500000I500000J0D01*
G01*
X18000000Y-5000000D02*
G75*
G03*
X17500000Y-4500000I-500000J0D01*
G01*
X18000000Y-5000000D02*
X18000000Y-13000000D01*
X10000000Y-4500000D02*
X17500000Y-4500000D01*
X9500000Y-13000000D02*
X9500000Y-5000000D01*
X17500000Y-13500000D02*
G75*
G03*
X18000000Y-13000000I0J500000D01*
G01*
X17500000Y-13500000D02*
X10000000Y-13500000D01*
D11*
X9840000Y-4840000D02*
X10160000Y-5160000D01*
X10160000Y-4840000D02*
X9840000Y-5160000D01*
X9840000Y-12840000D02*
X10160000Y-13160000D01*
X10160000Y-12840000D02*
X9840000Y-13160000D01*
X17340000Y-4840000D02*
X17660000Y-5160000D01*
X17660000Y-4840000D02*
X17340000Y-5160000D01*
X17340000Y-12840000D02*
X17660000Y-13160000D01*
X17660000Y-12840000D02*
X17340000Y-13160000D01*
D10*
X9750777Y-13821484D02*
X9750777Y-13621484D01*
X9750777Y-13621484D02*
X9798396Y-13621484D01*
X9798396Y-13621484D02*
X9826967Y-13631008D01*
X9826967Y-13631008D02*
X9846015Y-13650055D01*
X9846015Y-13650055D02*
X9855539Y-13669103D01*
X9855539Y-13669103D02*
X9865063Y-13707198D01*
X9865063Y-13707198D02*
X9865063Y-13735769D01*
X9865063Y-13735769D02*
X9855539Y-13773865D01*
X9855539Y-13773865D02*
X9846015Y-13792912D01*
X9846015Y-13792912D02*
X9826967Y-13811960D01*
X9826967Y-13811960D02*
X9798396Y-13821484D01*
X9798396Y-13821484D02*
X9750777Y-13821484D01*
X9950777Y-13821484D02*
X9950777Y-13688150D01*
X9950777Y-13726246D02*
X9960301Y-13707198D01*
X9960301Y-13707198D02*
X9969824Y-13697674D01*
X9969824Y-13697674D02*
X9988872Y-13688150D01*
X9988872Y-13688150D02*
X10007920Y-13688150D01*
X10074586Y-13821484D02*
X10074586Y-13688150D01*
X10074586Y-13621484D02*
X10065063Y-13631008D01*
X10065063Y-13631008D02*
X10074586Y-13640531D01*
X10074586Y-13640531D02*
X10084110Y-13631008D01*
X10084110Y-13631008D02*
X10074586Y-13621484D01*
X10074586Y-13621484D02*
X10074586Y-13640531D01*
X10198396Y-13821484D02*
X10179348Y-13811960D01*
X10179348Y-13811960D02*
X10169824Y-13792912D01*
X10169824Y-13792912D02*
X10169824Y-13621484D01*
X10303158Y-13821484D02*
X10284110Y-13811960D01*
X10284110Y-13811960D02*
X10274586Y-13792912D01*
X10274586Y-13792912D02*
X10274586Y-13621484D01*
X10531729Y-13821484D02*
X10531729Y-13621484D01*
X10531729Y-13621484D02*
X10598396Y-13764341D01*
X10598396Y-13764341D02*
X10665063Y-13621484D01*
X10665063Y-13621484D02*
X10665063Y-13821484D01*
X10846015Y-13821484D02*
X10846015Y-13716722D01*
X10846015Y-13716722D02*
X10836491Y-13697674D01*
X10836491Y-13697674D02*
X10817444Y-13688150D01*
X10817444Y-13688150D02*
X10779348Y-13688150D01*
X10779348Y-13688150D02*
X10760301Y-13697674D01*
X10846015Y-13811960D02*
X10826967Y-13821484D01*
X10826967Y-13821484D02*
X10779348Y-13821484D01*
X10779348Y-13821484D02*
X10760301Y-13811960D01*
X10760301Y-13811960D02*
X10750777Y-13792912D01*
X10750777Y-13792912D02*
X10750777Y-13773865D01*
X10750777Y-13773865D02*
X10760301Y-13754817D01*
X10760301Y-13754817D02*
X10779348Y-13745293D01*
X10779348Y-13745293D02*
X10826967Y-13745293D01*
X10826967Y-13745293D02*
X10846015Y-13735769D01*
X10941253Y-13688150D02*
X10941253Y-13888150D01*
X10941253Y-13697674D02*
X10960301Y-13688150D01*
X10960301Y-13688150D02*
X10998396Y-13688150D01*
X10998396Y-13688150D02*
X11017444Y-13697674D01*
X11017444Y-13697674D02*
X11026967Y-13707198D01*
X11026967Y-13707198D02*
X11036491Y-13726246D01*
X11036491Y-13726246D02*
X11036491Y-13783388D01*
X11036491Y-13783388D02*
X11026967Y-13802436D01*
X11026967Y-13802436D02*
X11017444Y-13811960D01*
X11017444Y-13811960D02*
X10998396Y-13821484D01*
X10998396Y-13821484D02*
X10960301Y-13821484D01*
X10960301Y-13821484D02*
X10941253Y-13811960D01*
X11122205Y-13802436D02*
X11131729Y-13811960D01*
X11131729Y-13811960D02*
X11122205Y-13821484D01*
X11122205Y-13821484D02*
X11112682Y-13811960D01*
X11112682Y-13811960D02*
X11122205Y-13802436D01*
X11122205Y-13802436D02*
X11122205Y-13821484D01*
X11122205Y-13697674D02*
X11131729Y-13707198D01*
X11131729Y-13707198D02*
X11122205Y-13716722D01*
X11122205Y-13716722D02*
X11112682Y-13707198D01*
X11112682Y-13707198D02*
X11122205Y-13697674D01*
X11122205Y-13697674D02*
X11122205Y-13716722D01*
X9290000Y-14050000D02*
X9490000Y-14250000D01*
X9490000Y-14050000D02*
X9290000Y-14250000D01*
X9731729Y-14041484D02*
X9855539Y-14041484D01*
X9855539Y-14041484D02*
X9788872Y-14117674D01*
X9788872Y-14117674D02*
X9817444Y-14117674D01*
X9817444Y-14117674D02*
X9836491Y-14127198D01*
X9836491Y-14127198D02*
X9846015Y-14136722D01*
X9846015Y-14136722D02*
X9855539Y-14155769D01*
X9855539Y-14155769D02*
X9855539Y-14203388D01*
X9855539Y-14203388D02*
X9846015Y-14222436D01*
X9846015Y-14222436D02*
X9836491Y-14231960D01*
X9836491Y-14231960D02*
X9817444Y-14241484D01*
X9817444Y-14241484D02*
X9760301Y-14241484D01*
X9760301Y-14241484D02*
X9741253Y-14231960D01*
X9741253Y-14231960D02*
X9731729Y-14222436D01*
X9941253Y-14222436D02*
X9950777Y-14231960D01*
X9950777Y-14231960D02*
X9941253Y-14241484D01*
X9941253Y-14241484D02*
X9931729Y-14231960D01*
X9931729Y-14231960D02*
X9941253Y-14222436D01*
X9941253Y-14222436D02*
X9941253Y-14241484D01*
X10026967Y-14060531D02*
X10036491Y-14051008D01*
X10036491Y-14051008D02*
X10055539Y-14041484D01*
X10055539Y-14041484D02*
X10103158Y-14041484D01*
X10103158Y-14041484D02*
X10122205Y-14051008D01*
X10122205Y-14051008D02*
X10131729Y-14060531D01*
X10131729Y-14060531D02*
X10141253Y-14079579D01*
X10141253Y-14079579D02*
X10141253Y-14098627D01*
X10141253Y-14098627D02*
X10131729Y-14127198D01*
X10131729Y-14127198D02*
X10017444Y-14241484D01*
X10017444Y-14241484D02*
X10141253Y-14241484D01*
X10265063Y-14041484D02*
X10284110Y-14041484D01*
X10284110Y-14041484D02*
X10303158Y-14051008D01*
X10303158Y-14051008D02*
X10312682Y-14060531D01*
X10312682Y-14060531D02*
X10322205Y-14079579D01*
X10322205Y-14079579D02*
X10331729Y-14117674D01*
X10331729Y-14117674D02*
X10331729Y-14165293D01*
X10331729Y-14165293D02*
X10322205Y-14203388D01*
X10322205Y-14203388D02*
X10312682Y-14222436D01*
X10312682Y-14222436D02*
X10303158Y-14231960D01*
X10303158Y-14231960D02*
X10284110Y-14241484D01*
X10284110Y-14241484D02*
X10265063Y-14241484D01*
X10265063Y-14241484D02*
X10246015Y-14231960D01*
X10246015Y-14231960D02*
X10236491Y-14222436D01*
X10236491Y-14222436D02*
X10226967Y-14203388D01*
X10226967Y-14203388D02*
X10217444Y-14165293D01*
X10217444Y-14165293D02*
X10217444Y-14117674D01*
X10217444Y-14117674D02*
X10226967Y-14079579D01*
X10226967Y-14079579D02*
X10236491Y-14060531D01*
X10236491Y-14060531D02*
X10246015Y-14051008D01*
X10246015Y-14051008D02*
X10265063Y-14041484D01*
X10455539Y-14041484D02*
X10474586Y-14041484D01*
X10474586Y-14041484D02*
X10493634Y-14051008D01*
X10493634Y-14051008D02*
X10503158Y-14060531D01*
X10503158Y-14060531D02*
X10512682Y-14079579D01*
X10512682Y-14079579D02*
X10522205Y-14117674D01*
X10522205Y-14117674D02*
X10522205Y-14165293D01*
X10522205Y-14165293D02*
X10512682Y-14203388D01*
X10512682Y-14203388D02*
X10503158Y-14222436D01*
X10503158Y-14222436D02*
X10493634Y-14231960D01*
X10493634Y-14231960D02*
X10474586Y-14241484D01*
X10474586Y-14241484D02*
X10455539Y-14241484D01*
X10455539Y-14241484D02*
X10436491Y-14231960D01*
X10436491Y-14231960D02*
X10426967Y-14222436D01*
X10426967Y-14222436D02*
X10417444Y-14203388D01*
X10417444Y-14203388D02*
X10407920Y-14165293D01*
X10407920Y-14165293D02*
X10407920Y-14117674D01*
X10407920Y-14117674D02*
X10417444Y-14079579D01*
X10417444Y-14079579D02*
X10426967Y-14060531D01*
X10426967Y-14060531D02*
X10436491Y-14051008D01*
X10436491Y-14051008D02*
X10455539Y-14041484D01*
X10607920Y-14241484D02*
X10607920Y-14108150D01*
X10607920Y-14127198D02*
X10617444Y-14117674D01*
X10617444Y-14117674D02*
X10636491Y-14108150D01*
X10636491Y-14108150D02*
X10665063Y-14108150D01*
X10665063Y-14108150D02*
X10684110Y-14117674D01*
X10684110Y-14117674D02*
X10693634Y-14136722D01*
X10693634Y-14136722D02*
X10693634Y-14241484D01*
X10693634Y-14136722D02*
X10703158Y-14117674D01*
X10703158Y-14117674D02*
X10722205Y-14108150D01*
X10722205Y-14108150D02*
X10750777Y-14108150D01*
X10750777Y-14108150D02*
X10769825Y-14117674D01*
X10769825Y-14117674D02*
X10779348Y-14136722D01*
X10779348Y-14136722D02*
X10779348Y-14241484D01*
X10874586Y-14241484D02*
X10874586Y-14108150D01*
X10874586Y-14127198D02*
X10884110Y-14117674D01*
X10884110Y-14117674D02*
X10903158Y-14108150D01*
X10903158Y-14108150D02*
X10931729Y-14108150D01*
X10931729Y-14108150D02*
X10950777Y-14117674D01*
X10950777Y-14117674D02*
X10960301Y-14136722D01*
X10960301Y-14136722D02*
X10960301Y-14241484D01*
X10960301Y-14136722D02*
X10969825Y-14117674D01*
X10969825Y-14117674D02*
X10988872Y-14108150D01*
X10988872Y-14108150D02*
X11017444Y-14108150D01*
X11017444Y-14108150D02*
X11036491Y-14117674D01*
X11036491Y-14117674D02*
X11046015Y-14136722D01*
X11046015Y-14136722D02*
X11046015Y-14241484D01*
X11436491Y-14031960D02*
X11265063Y-14289103D01*
X11693634Y-14041484D02*
X11712682Y-14041484D01*
X11712682Y-14041484D02*
X11731729Y-14051008D01*
X11731729Y-14051008D02*
X11741253Y-14060531D01*
X11741253Y-14060531D02*
X11750777Y-14079579D01*
X11750777Y-14079579D02*
X11760301Y-14117674D01*
X11760301Y-14117674D02*
X11760301Y-14165293D01*
X11760301Y-14165293D02*
X11750777Y-14203388D01*
X11750777Y-14203388D02*
X11741253Y-14222436D01*
X11741253Y-14222436D02*
X11731729Y-14231960D01*
X11731729Y-14231960D02*
X11712682Y-14241484D01*
X11712682Y-14241484D02*
X11693634Y-14241484D01*
X11693634Y-14241484D02*
X11674586Y-14231960D01*
X11674586Y-14231960D02*
X11665063Y-14222436D01*
X11665063Y-14222436D02*
X11655539Y-14203388D01*
X11655539Y-14203388D02*
X11646015Y-14165293D01*
X11646015Y-14165293D02*
X11646015Y-14117674D01*
X11646015Y-14117674D02*
X11655539Y-14079579D01*
X11655539Y-14079579D02*
X11665063Y-14060531D01*
X11665063Y-14060531D02*
X11674586Y-14051008D01*
X11674586Y-14051008D02*
X11693634Y-14041484D01*
X11846015Y-14222436D02*
X11855539Y-14231960D01*
X11855539Y-14231960D02*
X11846015Y-14241484D01*
X11846015Y-14241484D02*
X11836491Y-14231960D01*
X11836491Y-14231960D02*
X11846015Y-14222436D01*
X11846015Y-14222436D02*
X11846015Y-14241484D01*
X12046015Y-14241484D02*
X11931729Y-14241484D01*
X11988872Y-14241484D02*
X11988872Y-14041484D01*
X11988872Y-14041484D02*
X11969825Y-14070055D01*
X11969825Y-14070055D02*
X11950777Y-14089103D01*
X11950777Y-14089103D02*
X11931729Y-14098627D01*
X12122206Y-14060531D02*
X12131729Y-14051008D01*
X12131729Y-14051008D02*
X12150777Y-14041484D01*
X12150777Y-14041484D02*
X12198396Y-14041484D01*
X12198396Y-14041484D02*
X12217444Y-14051008D01*
X12217444Y-14051008D02*
X12226967Y-14060531D01*
X12226967Y-14060531D02*
X12236491Y-14079579D01*
X12236491Y-14079579D02*
X12236491Y-14098627D01*
X12236491Y-14098627D02*
X12226967Y-14127198D01*
X12226967Y-14127198D02*
X12112682Y-14241484D01*
X12112682Y-14241484D02*
X12236491Y-14241484D01*
X12407920Y-14041484D02*
X12369825Y-14041484D01*
X12369825Y-14041484D02*
X12350777Y-14051008D01*
X12350777Y-14051008D02*
X12341253Y-14060531D01*
X12341253Y-14060531D02*
X12322206Y-14089103D01*
X12322206Y-14089103D02*
X12312682Y-14127198D01*
X12312682Y-14127198D02*
X12312682Y-14203388D01*
X12312682Y-14203388D02*
X12322206Y-14222436D01*
X12322206Y-14222436D02*
X12331729Y-14231960D01*
X12331729Y-14231960D02*
X12350777Y-14241484D01*
X12350777Y-14241484D02*
X12388872Y-14241484D01*
X12388872Y-14241484D02*
X12407920Y-14231960D01*
X12407920Y-14231960D02*
X12417444Y-14222436D01*
X12417444Y-14222436D02*
X12426967Y-14203388D01*
X12426967Y-14203388D02*
X12426967Y-14155769D01*
X12426967Y-14155769D02*
X12417444Y-14136722D01*
X12417444Y-14136722D02*
X12407920Y-14127198D01*
X12407920Y-14127198D02*
X12388872Y-14117674D01*
X12388872Y-14117674D02*
X12350777Y-14117674D01*
X12350777Y-14117674D02*
X12331729Y-14127198D01*
X12331729Y-14127198D02*
X12322206Y-14136722D01*
X12322206Y-14136722D02*
X12312682Y-14155769D01*
X12550777Y-14041484D02*
X12569825Y-14041484D01*
X12569825Y-14041484D02*
X12588872Y-14051008D01*
X12588872Y-14051008D02*
X12598396Y-14060531D01*
X12598396Y-14060531D02*
X12607920Y-14079579D01*
X12607920Y-14079579D02*
X12617444Y-14117674D01*
X12617444Y-14117674D02*
X12617444Y-14165293D01*
X12617444Y-14165293D02*
X12607920Y-14203388D01*
X12607920Y-14203388D02*
X12598396Y-14222436D01*
X12598396Y-14222436D02*
X12588872Y-14231960D01*
X12588872Y-14231960D02*
X12569825Y-14241484D01*
X12569825Y-14241484D02*
X12550777Y-14241484D01*
X12550777Y-14241484D02*
X12531729Y-14231960D01*
X12531729Y-14231960D02*
X12522206Y-14222436D01*
X12522206Y-14222436D02*
X12512682Y-14203388D01*
X12512682Y-14203388D02*
X12503158Y-14165293D01*
X12503158Y-14165293D02*
X12503158Y-14117674D01*
X12503158Y-14117674D02*
X12512682Y-14079579D01*
X12512682Y-14079579D02*
X12522206Y-14060531D01*
X12522206Y-14060531D02*
X12531729Y-14051008D01*
X12531729Y-14051008D02*
X12550777Y-14041484D01*
X12693634Y-14041484D02*
X12693634Y-14079579D01*
X12769825Y-14041484D02*
X12769825Y-14079579D01*
X13065063Y-14317674D02*
X13055539Y-14308150D01*
X13055539Y-14308150D02*
X13036491Y-14279579D01*
X13036491Y-14279579D02*
X13026968Y-14260531D01*
X13026968Y-14260531D02*
X13017444Y-14231960D01*
X13017444Y-14231960D02*
X13007920Y-14184341D01*
X13007920Y-14184341D02*
X13007920Y-14146246D01*
X13007920Y-14146246D02*
X13017444Y-14098627D01*
X13017444Y-14098627D02*
X13026968Y-14070055D01*
X13026968Y-14070055D02*
X13036491Y-14051008D01*
X13036491Y-14051008D02*
X13055539Y-14022436D01*
X13055539Y-14022436D02*
X13065063Y-14012912D01*
X13226968Y-14108150D02*
X13226968Y-14241484D01*
X13179348Y-14031960D02*
X13131729Y-14174817D01*
X13131729Y-14174817D02*
X13255539Y-14174817D01*
X13484110Y-14241484D02*
X13484110Y-14041484D01*
X13569825Y-14241484D02*
X13569825Y-14136722D01*
X13569825Y-14136722D02*
X13560301Y-14117674D01*
X13560301Y-14117674D02*
X13541253Y-14108150D01*
X13541253Y-14108150D02*
X13512682Y-14108150D01*
X13512682Y-14108150D02*
X13493634Y-14117674D01*
X13493634Y-14117674D02*
X13484110Y-14127198D01*
X13693634Y-14241484D02*
X13674587Y-14231960D01*
X13674587Y-14231960D02*
X13665063Y-14222436D01*
X13665063Y-14222436D02*
X13655539Y-14203388D01*
X13655539Y-14203388D02*
X13655539Y-14146246D01*
X13655539Y-14146246D02*
X13665063Y-14127198D01*
X13665063Y-14127198D02*
X13674587Y-14117674D01*
X13674587Y-14117674D02*
X13693634Y-14108150D01*
X13693634Y-14108150D02*
X13722206Y-14108150D01*
X13722206Y-14108150D02*
X13741253Y-14117674D01*
X13741253Y-14117674D02*
X13750777Y-14127198D01*
X13750777Y-14127198D02*
X13760301Y-14146246D01*
X13760301Y-14146246D02*
X13760301Y-14203388D01*
X13760301Y-14203388D02*
X13750777Y-14222436D01*
X13750777Y-14222436D02*
X13741253Y-14231960D01*
X13741253Y-14231960D02*
X13722206Y-14241484D01*
X13722206Y-14241484D02*
X13693634Y-14241484D01*
X13874587Y-14241484D02*
X13855539Y-14231960D01*
X13855539Y-14231960D02*
X13846015Y-14212912D01*
X13846015Y-14212912D02*
X13846015Y-14041484D01*
X14026968Y-14231960D02*
X14007920Y-14241484D01*
X14007920Y-14241484D02*
X13969825Y-14241484D01*
X13969825Y-14241484D02*
X13950777Y-14231960D01*
X13950777Y-14231960D02*
X13941253Y-14212912D01*
X13941253Y-14212912D02*
X13941253Y-14136722D01*
X13941253Y-14136722D02*
X13950777Y-14117674D01*
X13950777Y-14117674D02*
X13969825Y-14108150D01*
X13969825Y-14108150D02*
X14007920Y-14108150D01*
X14007920Y-14108150D02*
X14026968Y-14117674D01*
X14026968Y-14117674D02*
X14036491Y-14136722D01*
X14036491Y-14136722D02*
X14036491Y-14155769D01*
X14036491Y-14155769D02*
X13941253Y-14174817D01*
X14112682Y-14231960D02*
X14131730Y-14241484D01*
X14131730Y-14241484D02*
X14169825Y-14241484D01*
X14169825Y-14241484D02*
X14188872Y-14231960D01*
X14188872Y-14231960D02*
X14198396Y-14212912D01*
X14198396Y-14212912D02*
X14198396Y-14203388D01*
X14198396Y-14203388D02*
X14188872Y-14184341D01*
X14188872Y-14184341D02*
X14169825Y-14174817D01*
X14169825Y-14174817D02*
X14141253Y-14174817D01*
X14141253Y-14174817D02*
X14122206Y-14165293D01*
X14122206Y-14165293D02*
X14112682Y-14146246D01*
X14112682Y-14146246D02*
X14112682Y-14136722D01*
X14112682Y-14136722D02*
X14122206Y-14117674D01*
X14122206Y-14117674D02*
X14141253Y-14108150D01*
X14141253Y-14108150D02*
X14169825Y-14108150D01*
X14169825Y-14108150D02*
X14188872Y-14117674D01*
X14265063Y-14317674D02*
X14274587Y-14308150D01*
X14274587Y-14308150D02*
X14293634Y-14279579D01*
X14293634Y-14279579D02*
X14303158Y-14260531D01*
X14303158Y-14260531D02*
X14312682Y-14231960D01*
X14312682Y-14231960D02*
X14322206Y-14184341D01*
X14322206Y-14184341D02*
X14322206Y-14146246D01*
X14322206Y-14146246D02*
X14312682Y-14098627D01*
X14312682Y-14098627D02*
X14303158Y-14070055D01*
X14303158Y-14070055D02*
X14293634Y-14051008D01*
X14293634Y-14051008D02*
X14274587Y-14022436D01*
X14274587Y-14022436D02*
X14265063Y-14012912D01*
X14626968Y-14317674D02*
X14617444Y-14308150D01*
X14617444Y-14308150D02*
X14598396Y-14279579D01*
X14598396Y-14279579D02*
X14588872Y-14260531D01*
X14588872Y-14260531D02*
X14579349Y-14231960D01*
X14579349Y-14231960D02*
X14569825Y-14184341D01*
X14569825Y-14184341D02*
X14569825Y-14146246D01*
X14569825Y-14146246D02*
X14579349Y-14098627D01*
X14579349Y-14098627D02*
X14588872Y-14070055D01*
X14588872Y-14070055D02*
X14598396Y-14051008D01*
X14598396Y-14051008D02*
X14617444Y-14022436D01*
X14617444Y-14022436D02*
X14626968Y-14012912D01*
X14703158Y-14108150D02*
X14703158Y-14241484D01*
X14703158Y-14127198D02*
X14712682Y-14117674D01*
X14712682Y-14117674D02*
X14731730Y-14108150D01*
X14731730Y-14108150D02*
X14760301Y-14108150D01*
X14760301Y-14108150D02*
X14779349Y-14117674D01*
X14779349Y-14117674D02*
X14788872Y-14136722D01*
X14788872Y-14136722D02*
X14788872Y-14241484D01*
X14912682Y-14241484D02*
X14893634Y-14231960D01*
X14893634Y-14231960D02*
X14884111Y-14222436D01*
X14884111Y-14222436D02*
X14874587Y-14203388D01*
X14874587Y-14203388D02*
X14874587Y-14146246D01*
X14874587Y-14146246D02*
X14884111Y-14127198D01*
X14884111Y-14127198D02*
X14893634Y-14117674D01*
X14893634Y-14117674D02*
X14912682Y-14108150D01*
X14912682Y-14108150D02*
X14941253Y-14108150D01*
X14941253Y-14108150D02*
X14960301Y-14117674D01*
X14960301Y-14117674D02*
X14969825Y-14127198D01*
X14969825Y-14127198D02*
X14979349Y-14146246D01*
X14979349Y-14146246D02*
X14979349Y-14203388D01*
X14979349Y-14203388D02*
X14969825Y-14222436D01*
X14969825Y-14222436D02*
X14960301Y-14231960D01*
X14960301Y-14231960D02*
X14941253Y-14241484D01*
X14941253Y-14241484D02*
X14912682Y-14241484D01*
X15036492Y-14108150D02*
X15112682Y-14108150D01*
X15065063Y-14041484D02*
X15065063Y-14212912D01*
X15065063Y-14212912D02*
X15074587Y-14231960D01*
X15074587Y-14231960D02*
X15093634Y-14241484D01*
X15093634Y-14241484D02*
X15112682Y-14241484D01*
X15331730Y-14108150D02*
X15331730Y-14308150D01*
X15331730Y-14117674D02*
X15350777Y-14108150D01*
X15350777Y-14108150D02*
X15388873Y-14108150D01*
X15388873Y-14108150D02*
X15407920Y-14117674D01*
X15407920Y-14117674D02*
X15417444Y-14127198D01*
X15417444Y-14127198D02*
X15426968Y-14146246D01*
X15426968Y-14146246D02*
X15426968Y-14203388D01*
X15426968Y-14203388D02*
X15417444Y-14222436D01*
X15417444Y-14222436D02*
X15407920Y-14231960D01*
X15407920Y-14231960D02*
X15388873Y-14241484D01*
X15388873Y-14241484D02*
X15350777Y-14241484D01*
X15350777Y-14241484D02*
X15331730Y-14231960D01*
X15541253Y-14241484D02*
X15522206Y-14231960D01*
X15522206Y-14231960D02*
X15512682Y-14212912D01*
X15512682Y-14212912D02*
X15512682Y-14041484D01*
X15703158Y-14241484D02*
X15703158Y-14136722D01*
X15703158Y-14136722D02*
X15693634Y-14117674D01*
X15693634Y-14117674D02*
X15674587Y-14108150D01*
X15674587Y-14108150D02*
X15636492Y-14108150D01*
X15636492Y-14108150D02*
X15617444Y-14117674D01*
X15703158Y-14231960D02*
X15684111Y-14241484D01*
X15684111Y-14241484D02*
X15636492Y-14241484D01*
X15636492Y-14241484D02*
X15617444Y-14231960D01*
X15617444Y-14231960D02*
X15607920Y-14212912D01*
X15607920Y-14212912D02*
X15607920Y-14193865D01*
X15607920Y-14193865D02*
X15617444Y-14174817D01*
X15617444Y-14174817D02*
X15636492Y-14165293D01*
X15636492Y-14165293D02*
X15684111Y-14165293D01*
X15684111Y-14165293D02*
X15703158Y-14155769D01*
X15769825Y-14108150D02*
X15846015Y-14108150D01*
X15798396Y-14041484D02*
X15798396Y-14212912D01*
X15798396Y-14212912D02*
X15807920Y-14231960D01*
X15807920Y-14231960D02*
X15826968Y-14241484D01*
X15826968Y-14241484D02*
X15846015Y-14241484D01*
X15988873Y-14231960D02*
X15969825Y-14241484D01*
X15969825Y-14241484D02*
X15931730Y-14241484D01*
X15931730Y-14241484D02*
X15912682Y-14231960D01*
X15912682Y-14231960D02*
X15903158Y-14212912D01*
X15903158Y-14212912D02*
X15903158Y-14136722D01*
X15903158Y-14136722D02*
X15912682Y-14117674D01*
X15912682Y-14117674D02*
X15931730Y-14108150D01*
X15931730Y-14108150D02*
X15969825Y-14108150D01*
X15969825Y-14108150D02*
X15988873Y-14117674D01*
X15988873Y-14117674D02*
X15998396Y-14136722D01*
X15998396Y-14136722D02*
X15998396Y-14155769D01*
X15998396Y-14155769D02*
X15903158Y-14174817D01*
X16169825Y-14241484D02*
X16169825Y-14041484D01*
X16169825Y-14231960D02*
X16150777Y-14241484D01*
X16150777Y-14241484D02*
X16112682Y-14241484D01*
X16112682Y-14241484D02*
X16093634Y-14231960D01*
X16093634Y-14231960D02*
X16084111Y-14222436D01*
X16084111Y-14222436D02*
X16074587Y-14203388D01*
X16074587Y-14203388D02*
X16074587Y-14146246D01*
X16074587Y-14146246D02*
X16084111Y-14127198D01*
X16084111Y-14127198D02*
X16093634Y-14117674D01*
X16093634Y-14117674D02*
X16112682Y-14108150D01*
X16112682Y-14108150D02*
X16150777Y-14108150D01*
X16150777Y-14108150D02*
X16169825Y-14117674D01*
X16246015Y-14317674D02*
X16255539Y-14308150D01*
X16255539Y-14308150D02*
X16274587Y-14279579D01*
X16274587Y-14279579D02*
X16284111Y-14260531D01*
X16284111Y-14260531D02*
X16293634Y-14231960D01*
X16293634Y-14231960D02*
X16303158Y-14184341D01*
X16303158Y-14184341D02*
X16303158Y-14146246D01*
X16303158Y-14146246D02*
X16293634Y-14098627D01*
X16293634Y-14098627D02*
X16284111Y-14070055D01*
X16284111Y-14070055D02*
X16274587Y-14051008D01*
X16274587Y-14051008D02*
X16255539Y-14022436D01*
X16255539Y-14022436D02*
X16246015Y-14012912D01*
M02*
