%TF.GenerationSoftware,KiCad,Pcbnew,7.0.2*%
%TF.CreationDate,2023-06-06T19:57:18-04:00*%
%TF.ProjectId,ArenaController,4172656e-6143-46f6-9e74-726f6c6c6572,v0.6*%
%TF.SameCoordinates,Original*%
%TF.FileFunction,Profile,NP*%
%FSLAX46Y46*%
G04 Gerber Fmt 4.6, Leading zero omitted, Abs format (unit mm)*
G04 Created by KiCad (PCBNEW 7.0.2) date 2023-06-06 19:57:18*
%MOMM*%
%LPD*%
G01*
G04 APERTURE LIST*
%ADD10C,0.150000*%
%TA.AperFunction,Profile*%
%ADD11C,0.100000*%
%TD*%
%TA.AperFunction,Profile*%
%ADD12C,0.200000*%
%TD*%
G04 APERTURE END LIST*
D10*
X92038619Y-46119047D02*
X92038619Y-46595237D01*
X92038619Y-46595237D02*
X92514809Y-46642856D01*
X92514809Y-46642856D02*
X92467190Y-46595237D01*
X92467190Y-46595237D02*
X92419571Y-46499999D01*
X92419571Y-46499999D02*
X92419571Y-46261904D01*
X92419571Y-46261904D02*
X92467190Y-46166666D01*
X92467190Y-46166666D02*
X92514809Y-46119047D01*
X92514809Y-46119047D02*
X92610047Y-46071428D01*
X92610047Y-46071428D02*
X92848142Y-46071428D01*
X92848142Y-46071428D02*
X92943380Y-46119047D01*
X92943380Y-46119047D02*
X92991000Y-46166666D01*
X92991000Y-46166666D02*
X93038619Y-46261904D01*
X93038619Y-46261904D02*
X93038619Y-46499999D01*
X93038619Y-46499999D02*
X92991000Y-46595237D01*
X92991000Y-46595237D02*
X92943380Y-46642856D01*
X92943380Y-45642856D02*
X92991000Y-45595237D01*
X92991000Y-45595237D02*
X93038619Y-45642856D01*
X93038619Y-45642856D02*
X92991000Y-45690475D01*
X92991000Y-45690475D02*
X92943380Y-45642856D01*
X92943380Y-45642856D02*
X93038619Y-45642856D01*
X92038619Y-44976190D02*
X92038619Y-44880952D01*
X92038619Y-44880952D02*
X92086238Y-44785714D01*
X92086238Y-44785714D02*
X92133857Y-44738095D01*
X92133857Y-44738095D02*
X92229095Y-44690476D01*
X92229095Y-44690476D02*
X92419571Y-44642857D01*
X92419571Y-44642857D02*
X92657666Y-44642857D01*
X92657666Y-44642857D02*
X92848142Y-44690476D01*
X92848142Y-44690476D02*
X92943380Y-44738095D01*
X92943380Y-44738095D02*
X92991000Y-44785714D01*
X92991000Y-44785714D02*
X93038619Y-44880952D01*
X93038619Y-44880952D02*
X93038619Y-44976190D01*
X93038619Y-44976190D02*
X92991000Y-45071428D01*
X92991000Y-45071428D02*
X92943380Y-45119047D01*
X92943380Y-45119047D02*
X92848142Y-45166666D01*
X92848142Y-45166666D02*
X92657666Y-45214285D01*
X92657666Y-45214285D02*
X92419571Y-45214285D01*
X92419571Y-45214285D02*
X92229095Y-45166666D01*
X92229095Y-45166666D02*
X92133857Y-45119047D01*
X92133857Y-45119047D02*
X92086238Y-45071428D01*
X92086238Y-45071428D02*
X92038619Y-44976190D01*
X92038619Y-44023809D02*
X92038619Y-43928571D01*
X92038619Y-43928571D02*
X92086238Y-43833333D01*
X92086238Y-43833333D02*
X92133857Y-43785714D01*
X92133857Y-43785714D02*
X92229095Y-43738095D01*
X92229095Y-43738095D02*
X92419571Y-43690476D01*
X92419571Y-43690476D02*
X92657666Y-43690476D01*
X92657666Y-43690476D02*
X92848142Y-43738095D01*
X92848142Y-43738095D02*
X92943380Y-43785714D01*
X92943380Y-43785714D02*
X92991000Y-43833333D01*
X92991000Y-43833333D02*
X93038619Y-43928571D01*
X93038619Y-43928571D02*
X93038619Y-44023809D01*
X93038619Y-44023809D02*
X92991000Y-44119047D01*
X92991000Y-44119047D02*
X92943380Y-44166666D01*
X92943380Y-44166666D02*
X92848142Y-44214285D01*
X92848142Y-44214285D02*
X92657666Y-44261904D01*
X92657666Y-44261904D02*
X92419571Y-44261904D01*
X92419571Y-44261904D02*
X92229095Y-44214285D01*
X92229095Y-44214285D02*
X92133857Y-44166666D01*
X92133857Y-44166666D02*
X92086238Y-44119047D01*
X92086238Y-44119047D02*
X92038619Y-44023809D01*
X92038619Y-43071428D02*
X92038619Y-42976190D01*
X92038619Y-42976190D02*
X92086238Y-42880952D01*
X92086238Y-42880952D02*
X92133857Y-42833333D01*
X92133857Y-42833333D02*
X92229095Y-42785714D01*
X92229095Y-42785714D02*
X92419571Y-42738095D01*
X92419571Y-42738095D02*
X92657666Y-42738095D01*
X92657666Y-42738095D02*
X92848142Y-42785714D01*
X92848142Y-42785714D02*
X92943380Y-42833333D01*
X92943380Y-42833333D02*
X92991000Y-42880952D01*
X92991000Y-42880952D02*
X93038619Y-42976190D01*
X93038619Y-42976190D02*
X93038619Y-43071428D01*
X93038619Y-43071428D02*
X92991000Y-43166666D01*
X92991000Y-43166666D02*
X92943380Y-43214285D01*
X92943380Y-43214285D02*
X92848142Y-43261904D01*
X92848142Y-43261904D02*
X92657666Y-43309523D01*
X92657666Y-43309523D02*
X92419571Y-43309523D01*
X92419571Y-43309523D02*
X92229095Y-43261904D01*
X92229095Y-43261904D02*
X92133857Y-43214285D01*
X92133857Y-43214285D02*
X92086238Y-43166666D01*
X92086238Y-43166666D02*
X92038619Y-43071428D01*
X92038619Y-42119047D02*
X92038619Y-42023809D01*
X92038619Y-42023809D02*
X92086238Y-41928571D01*
X92086238Y-41928571D02*
X92133857Y-41880952D01*
X92133857Y-41880952D02*
X92229095Y-41833333D01*
X92229095Y-41833333D02*
X92419571Y-41785714D01*
X92419571Y-41785714D02*
X92657666Y-41785714D01*
X92657666Y-41785714D02*
X92848142Y-41833333D01*
X92848142Y-41833333D02*
X92943380Y-41880952D01*
X92943380Y-41880952D02*
X92991000Y-41928571D01*
X92991000Y-41928571D02*
X93038619Y-42023809D01*
X93038619Y-42023809D02*
X93038619Y-42119047D01*
X93038619Y-42119047D02*
X92991000Y-42214285D01*
X92991000Y-42214285D02*
X92943380Y-42261904D01*
X92943380Y-42261904D02*
X92848142Y-42309523D01*
X92848142Y-42309523D02*
X92657666Y-42357142D01*
X92657666Y-42357142D02*
X92419571Y-42357142D01*
X92419571Y-42357142D02*
X92229095Y-42309523D01*
X92229095Y-42309523D02*
X92133857Y-42261904D01*
X92133857Y-42261904D02*
X92086238Y-42214285D01*
X92086238Y-42214285D02*
X92038619Y-42119047D01*
X93038619Y-40595237D02*
X92371952Y-40595237D01*
X92467190Y-40595237D02*
X92419571Y-40547618D01*
X92419571Y-40547618D02*
X92371952Y-40452380D01*
X92371952Y-40452380D02*
X92371952Y-40309523D01*
X92371952Y-40309523D02*
X92419571Y-40214285D01*
X92419571Y-40214285D02*
X92514809Y-40166666D01*
X92514809Y-40166666D02*
X93038619Y-40166666D01*
X92514809Y-40166666D02*
X92419571Y-40119047D01*
X92419571Y-40119047D02*
X92371952Y-40023809D01*
X92371952Y-40023809D02*
X92371952Y-39880952D01*
X92371952Y-39880952D02*
X92419571Y-39785713D01*
X92419571Y-39785713D02*
X92514809Y-39738094D01*
X92514809Y-39738094D02*
X93038619Y-39738094D01*
X93038619Y-39261904D02*
X92371952Y-39261904D01*
X92467190Y-39261904D02*
X92419571Y-39214285D01*
X92419571Y-39214285D02*
X92371952Y-39119047D01*
X92371952Y-39119047D02*
X92371952Y-38976190D01*
X92371952Y-38976190D02*
X92419571Y-38880952D01*
X92419571Y-38880952D02*
X92514809Y-38833333D01*
X92514809Y-38833333D02*
X93038619Y-38833333D01*
X92514809Y-38833333D02*
X92419571Y-38785714D01*
X92419571Y-38785714D02*
X92371952Y-38690476D01*
X92371952Y-38690476D02*
X92371952Y-38547619D01*
X92371952Y-38547619D02*
X92419571Y-38452380D01*
X92419571Y-38452380D02*
X92514809Y-38404761D01*
X92514809Y-38404761D02*
X93038619Y-38404761D01*
D11*
X99500000Y-45000000D02*
X93139580Y-45000000D01*
X99500000Y-40000000D02*
X93139580Y-40000000D01*
X93726000Y-45000000D02*
X93726000Y-40000000D01*
X93726000Y-45000000D02*
X93726000Y-40000000D01*
X93726000Y-45000000D02*
X93139579Y-43873496D01*
X93726000Y-45000000D02*
X94312421Y-43873496D01*
X93726000Y-40000000D02*
X94312421Y-41126504D01*
X93726000Y-40000000D02*
X93139579Y-41126504D01*
D12*
X100000000Y-45000000D02*
G75*
G03*
X95000000Y-50000000I0J-5000000D01*
G01*
X95000000Y-130000000D02*
G75*
G03*
X100000000Y-135000000I5000000J0D01*
G01*
X175000000Y-50000000D02*
G75*
G03*
X170000000Y-45000000I-5000000J0D01*
G01*
X175000000Y-50000000D02*
X175000000Y-130000000D01*
X100000000Y-45000000D02*
X170000000Y-45000000D01*
X95000000Y-130000000D02*
X95000000Y-50000000D01*
X170000000Y-135000000D02*
G75*
G03*
X175000000Y-130000000I0J5000000D01*
G01*
X170000000Y-135000000D02*
X100000000Y-135000000D01*
D11*
%TO.C,J1*%
X173725000Y-73885000D02*
G75*
G03*
X173725000Y-73885000I-1625000J0D01*
G01*
X173725000Y-85315000D02*
G75*
G03*
X173725000Y-85315000I-1625000J0D01*
G01*
%TO.C,J6*%
X173725000Y-89885000D02*
G75*
G03*
X173725000Y-89885000I-1625000J0D01*
G01*
X173725000Y-101315000D02*
G75*
G03*
X173725000Y-101315000I-1625000J0D01*
G01*
%TO.C,J4*%
X99525000Y-118115000D02*
G75*
G03*
X99525000Y-118115000I-1625000J0D01*
G01*
X99525000Y-106685000D02*
G75*
G03*
X99525000Y-106685000I-1625000J0D01*
G01*
%TO.C,J2*%
X99525000Y-73885000D02*
G75*
G03*
X99525000Y-73885000I-1625000J0D01*
G01*
X99525000Y-85315000D02*
G75*
G03*
X99525000Y-85315000I-1625000J0D01*
G01*
%TO.C,J5*%
X99525000Y-101315000D02*
G75*
G03*
X99525000Y-101315000I-1625000J0D01*
G01*
X99525000Y-89885000D02*
G75*
G03*
X99525000Y-89885000I-1625000J0D01*
G01*
%TD*%
M02*
