%TF.GenerationSoftware,KiCad,Pcbnew,(7.0.0)*%
%TF.CreationDate,2023-04-29T04:17:25-04:00*%
%TF.ProjectId,ArenaController,4172656e-6143-46f6-9e74-726f6c6c6572,v0.4*%
%TF.SameCoordinates,Original*%
%TF.FileFunction,Legend,Top*%
%TF.FilePolarity,Positive*%
%FSLAX46Y46*%
G04 Gerber Fmt 4.6, Leading zero omitted, Abs format (unit mm)*
G04 Created by KiCad (PCBNEW (7.0.0)) date 2023-04-29 04:17:25*
%MOMM*%
%LPD*%
G01*
G04 APERTURE LIST*
%ADD10C,0.300000*%
%ADD11C,0.150000*%
%ADD12C,0.160000*%
%ADD13C,0.127000*%
%ADD14C,0.120000*%
%ADD15C,0.100000*%
G04 APERTURE END LIST*
D10*
X100897928Y-80193428D02*
X99826500Y-80193428D01*
X99826500Y-80193428D02*
X99612214Y-80121999D01*
X99612214Y-80121999D02*
X99469357Y-79979142D01*
X99469357Y-79979142D02*
X99397928Y-79764856D01*
X99397928Y-79764856D02*
X99397928Y-79621999D01*
X99397928Y-81621999D02*
X99397928Y-80907713D01*
X99397928Y-80907713D02*
X100897928Y-80907713D01*
X99540785Y-82979142D02*
X99469357Y-82907714D01*
X99469357Y-82907714D02*
X99397928Y-82693428D01*
X99397928Y-82693428D02*
X99397928Y-82550571D01*
X99397928Y-82550571D02*
X99469357Y-82336285D01*
X99469357Y-82336285D02*
X99612214Y-82193428D01*
X99612214Y-82193428D02*
X99755071Y-82121999D01*
X99755071Y-82121999D02*
X100040785Y-82050571D01*
X100040785Y-82050571D02*
X100255071Y-82050571D01*
X100255071Y-82050571D02*
X100540785Y-82121999D01*
X100540785Y-82121999D02*
X100683642Y-82193428D01*
X100683642Y-82193428D02*
X100826500Y-82336285D01*
X100826500Y-82336285D02*
X100897928Y-82550571D01*
X100897928Y-82550571D02*
X100897928Y-82693428D01*
X100897928Y-82693428D02*
X100826500Y-82907714D01*
X100826500Y-82907714D02*
X100755071Y-82979142D01*
X100897928Y-84050571D02*
X99826500Y-84050571D01*
X99826500Y-84050571D02*
X99612214Y-83979142D01*
X99612214Y-83979142D02*
X99469357Y-83836285D01*
X99469357Y-83836285D02*
X99397928Y-83621999D01*
X99397928Y-83621999D02*
X99397928Y-83479142D01*
X99397928Y-85479142D02*
X99397928Y-84764856D01*
X99397928Y-84764856D02*
X100897928Y-84764856D01*
X99540785Y-86836285D02*
X99469357Y-86764857D01*
X99469357Y-86764857D02*
X99397928Y-86550571D01*
X99397928Y-86550571D02*
X99397928Y-86407714D01*
X99397928Y-86407714D02*
X99469357Y-86193428D01*
X99469357Y-86193428D02*
X99612214Y-86050571D01*
X99612214Y-86050571D02*
X99755071Y-85979142D01*
X99755071Y-85979142D02*
X100040785Y-85907714D01*
X100040785Y-85907714D02*
X100255071Y-85907714D01*
X100255071Y-85907714D02*
X100540785Y-85979142D01*
X100540785Y-85979142D02*
X100683642Y-86050571D01*
X100683642Y-86050571D02*
X100826500Y-86193428D01*
X100826500Y-86193428D02*
X100897928Y-86407714D01*
X100897928Y-86407714D02*
X100897928Y-86550571D01*
X100897928Y-86550571D02*
X100826500Y-86764857D01*
X100826500Y-86764857D02*
X100755071Y-86836285D01*
X100897928Y-87907714D02*
X99826500Y-87907714D01*
X99826500Y-87907714D02*
X99612214Y-87836285D01*
X99612214Y-87836285D02*
X99469357Y-87693428D01*
X99469357Y-87693428D02*
X99397928Y-87479142D01*
X99397928Y-87479142D02*
X99397928Y-87336285D01*
X99397928Y-89336285D02*
X99397928Y-88621999D01*
X99397928Y-88621999D02*
X100897928Y-88621999D01*
X99540785Y-90693428D02*
X99469357Y-90622000D01*
X99469357Y-90622000D02*
X99397928Y-90407714D01*
X99397928Y-90407714D02*
X99397928Y-90264857D01*
X99397928Y-90264857D02*
X99469357Y-90050571D01*
X99469357Y-90050571D02*
X99612214Y-89907714D01*
X99612214Y-89907714D02*
X99755071Y-89836285D01*
X99755071Y-89836285D02*
X100040785Y-89764857D01*
X100040785Y-89764857D02*
X100255071Y-89764857D01*
X100255071Y-89764857D02*
X100540785Y-89836285D01*
X100540785Y-89836285D02*
X100683642Y-89907714D01*
X100683642Y-89907714D02*
X100826500Y-90050571D01*
X100826500Y-90050571D02*
X100897928Y-90264857D01*
X100897928Y-90264857D02*
X100897928Y-90407714D01*
X100897928Y-90407714D02*
X100826500Y-90622000D01*
X100826500Y-90622000D02*
X100755071Y-90693428D01*
X100897928Y-91764857D02*
X99826500Y-91764857D01*
X99826500Y-91764857D02*
X99612214Y-91693428D01*
X99612214Y-91693428D02*
X99469357Y-91550571D01*
X99469357Y-91550571D02*
X99397928Y-91336285D01*
X99397928Y-91336285D02*
X99397928Y-91193428D01*
X99397928Y-93193428D02*
X99397928Y-92479142D01*
X99397928Y-92479142D02*
X100897928Y-92479142D01*
X99540785Y-94550571D02*
X99469357Y-94479143D01*
X99469357Y-94479143D02*
X99397928Y-94264857D01*
X99397928Y-94264857D02*
X99397928Y-94122000D01*
X99397928Y-94122000D02*
X99469357Y-93907714D01*
X99469357Y-93907714D02*
X99612214Y-93764857D01*
X99612214Y-93764857D02*
X99755071Y-93693428D01*
X99755071Y-93693428D02*
X100040785Y-93622000D01*
X100040785Y-93622000D02*
X100255071Y-93622000D01*
X100255071Y-93622000D02*
X100540785Y-93693428D01*
X100540785Y-93693428D02*
X100683642Y-93764857D01*
X100683642Y-93764857D02*
X100826500Y-93907714D01*
X100826500Y-93907714D02*
X100897928Y-94122000D01*
X100897928Y-94122000D02*
X100897928Y-94264857D01*
X100897928Y-94264857D02*
X100826500Y-94479143D01*
X100826500Y-94479143D02*
X100755071Y-94550571D01*
D11*
%TO.C,U3*%
X124535095Y-67003380D02*
X124535095Y-67812904D01*
X124535095Y-67812904D02*
X124582714Y-67908142D01*
X124582714Y-67908142D02*
X124630333Y-67955761D01*
X124630333Y-67955761D02*
X124725571Y-68003380D01*
X124725571Y-68003380D02*
X124916047Y-68003380D01*
X124916047Y-68003380D02*
X125011285Y-67955761D01*
X125011285Y-67955761D02*
X125058904Y-67908142D01*
X125058904Y-67908142D02*
X125106523Y-67812904D01*
X125106523Y-67812904D02*
X125106523Y-67003380D01*
X125487476Y-67003380D02*
X126106523Y-67003380D01*
X126106523Y-67003380D02*
X125773190Y-67384333D01*
X125773190Y-67384333D02*
X125916047Y-67384333D01*
X125916047Y-67384333D02*
X126011285Y-67431952D01*
X126011285Y-67431952D02*
X126058904Y-67479571D01*
X126058904Y-67479571D02*
X126106523Y-67574809D01*
X126106523Y-67574809D02*
X126106523Y-67812904D01*
X126106523Y-67812904D02*
X126058904Y-67908142D01*
X126058904Y-67908142D02*
X126011285Y-67955761D01*
X126011285Y-67955761D02*
X125916047Y-68003380D01*
X125916047Y-68003380D02*
X125630333Y-68003380D01*
X125630333Y-68003380D02*
X125535095Y-67955761D01*
X125535095Y-67955761D02*
X125487476Y-67908142D01*
D12*
G36*
X134470163Y-71482211D02*
G01*
X134471706Y-71474300D01*
X134472313Y-71466579D01*
X134471573Y-71457573D01*
X134468734Y-71448780D01*
X134463765Y-71442186D01*
X134456667Y-71437789D01*
X134447439Y-71435591D01*
X134442027Y-71435316D01*
X134433515Y-71436061D01*
X134425311Y-71438680D01*
X134418560Y-71443185D01*
X134414867Y-71447235D01*
X134410259Y-71454232D01*
X134406548Y-71462032D01*
X134404002Y-71469640D01*
X134402557Y-71475763D01*
X134316974Y-71873000D01*
X134175118Y-71873000D01*
X134258551Y-71482406D01*
X134259943Y-71474454D01*
X134260701Y-71466775D01*
X134259985Y-71457712D01*
X134257839Y-71450185D01*
X134253374Y-71443181D01*
X134246848Y-71438388D01*
X134238261Y-71435808D01*
X134231392Y-71435316D01*
X134221800Y-71436304D01*
X134213421Y-71439266D01*
X134206253Y-71444204D01*
X134200297Y-71451116D01*
X134196404Y-71458068D01*
X134193287Y-71466283D01*
X134190945Y-71475763D01*
X134105362Y-71873000D01*
X133964678Y-71873000D01*
X134082892Y-71310264D01*
X134224748Y-71310264D01*
X134213415Y-71366928D01*
X134233736Y-71366928D01*
X134236228Y-71358554D01*
X134239207Y-71350723D01*
X134242676Y-71343435D01*
X134246632Y-71336691D01*
X134252265Y-71329025D01*
X134258661Y-71322208D01*
X134265821Y-71316240D01*
X134267344Y-71315149D01*
X134275266Y-71310139D01*
X134283522Y-71305978D01*
X134292111Y-71302667D01*
X134301034Y-71300204D01*
X134310292Y-71298591D01*
X134319883Y-71297827D01*
X134323813Y-71297759D01*
X134332814Y-71298073D01*
X134341252Y-71299017D01*
X134349129Y-71300589D01*
X134358185Y-71303439D01*
X134366363Y-71307271D01*
X134373664Y-71312086D01*
X134380087Y-71317884D01*
X134385737Y-71324388D01*
X134390719Y-71331322D01*
X134395033Y-71338684D01*
X134398680Y-71346476D01*
X134401658Y-71354697D01*
X134403969Y-71363348D01*
X134404706Y-71366928D01*
X134425027Y-71366928D01*
X134428352Y-71359571D01*
X134432074Y-71352542D01*
X134436192Y-71345844D01*
X134441899Y-71337935D01*
X134448225Y-71330541D01*
X134455172Y-71323662D01*
X134461176Y-71318530D01*
X134462739Y-71317298D01*
X134469324Y-71312719D01*
X134476379Y-71308750D01*
X134483905Y-71305391D01*
X134491901Y-71302644D01*
X134500367Y-71300506D01*
X134509303Y-71298980D01*
X134518710Y-71298064D01*
X134528586Y-71297759D01*
X134537258Y-71298028D01*
X134545542Y-71298837D01*
X134553438Y-71300185D01*
X134563362Y-71302822D01*
X134572596Y-71306417D01*
X134581140Y-71310970D01*
X134588994Y-71316482D01*
X134596158Y-71322953D01*
X134601078Y-71328436D01*
X134607031Y-71336254D01*
X134612191Y-71344470D01*
X134616557Y-71353083D01*
X134620129Y-71362092D01*
X134622907Y-71371499D01*
X134624891Y-71381302D01*
X134626082Y-71391502D01*
X134626454Y-71399413D01*
X134626479Y-71402099D01*
X134626313Y-71409962D01*
X134625893Y-71416168D01*
X134624739Y-71424067D01*
X134623157Y-71431408D01*
X134556723Y-71740718D01*
X134568056Y-71748729D01*
X134606353Y-71722155D01*
X134677086Y-71826496D01*
X134626479Y-71858150D01*
X134619443Y-71862524D01*
X134612378Y-71866488D01*
X134605284Y-71870042D01*
X134596734Y-71873765D01*
X134588143Y-71876898D01*
X134580952Y-71879057D01*
X134572326Y-71881248D01*
X134563742Y-71882986D01*
X134555199Y-71884271D01*
X134546697Y-71885102D01*
X134538236Y-71885480D01*
X134535425Y-71885505D01*
X134526216Y-71885209D01*
X134517199Y-71884323D01*
X134508374Y-71882846D01*
X134499741Y-71880779D01*
X134491301Y-71878120D01*
X134488531Y-71877103D01*
X134480496Y-71873705D01*
X134472804Y-71869812D01*
X134465456Y-71865425D01*
X134458452Y-71860543D01*
X134451791Y-71855167D01*
X134449647Y-71853265D01*
X134443600Y-71847149D01*
X134438061Y-71840524D01*
X134433030Y-71833392D01*
X134428508Y-71825751D01*
X134424494Y-71817601D01*
X134423269Y-71814772D01*
X134420081Y-71805986D01*
X134417929Y-71798339D01*
X134416235Y-71790397D01*
X134414998Y-71782158D01*
X134414220Y-71773624D01*
X134413899Y-71764794D01*
X134413890Y-71762993D01*
X134414171Y-71754762D01*
X134414877Y-71746878D01*
X134416014Y-71738359D01*
X134417331Y-71730551D01*
X134418384Y-71725086D01*
X134470163Y-71482211D01*
G37*
G36*
X135098161Y-71856586D02*
G01*
X135091110Y-71861252D01*
X135084002Y-71865478D01*
X135076837Y-71869266D01*
X135069615Y-71872615D01*
X135062335Y-71875525D01*
X135053524Y-71878437D01*
X135052048Y-71878861D01*
X135043216Y-71881119D01*
X135034453Y-71882910D01*
X135025759Y-71884233D01*
X135017133Y-71885090D01*
X135008576Y-71885479D01*
X135005739Y-71885505D01*
X134996576Y-71885209D01*
X134987549Y-71884323D01*
X134978660Y-71882846D01*
X134969909Y-71880779D01*
X134961295Y-71878120D01*
X134958454Y-71877103D01*
X134950227Y-71873785D01*
X134942398Y-71869986D01*
X134934968Y-71865707D01*
X134927936Y-71860946D01*
X134921302Y-71855705D01*
X134919180Y-71853851D01*
X134913132Y-71847982D01*
X134907593Y-71841660D01*
X134902563Y-71834885D01*
X134898040Y-71827656D01*
X134894026Y-71819974D01*
X134892801Y-71817312D01*
X134889548Y-71809000D01*
X134886967Y-71800331D01*
X134885060Y-71791305D01*
X134883984Y-71783510D01*
X134883377Y-71775467D01*
X134883227Y-71768854D01*
X134883442Y-71759781D01*
X134884087Y-71751025D01*
X134885162Y-71742588D01*
X134886668Y-71734468D01*
X134887721Y-71729971D01*
X134955132Y-71451339D01*
X134943995Y-71443718D01*
X134793150Y-71545909D01*
X134722222Y-71441569D01*
X134885376Y-71327849D01*
X134892427Y-71323010D01*
X134899535Y-71318629D01*
X134906700Y-71314706D01*
X134913922Y-71311241D01*
X134921202Y-71308234D01*
X134930013Y-71305230D01*
X134931489Y-71304793D01*
X134940314Y-71302402D01*
X134949057Y-71300506D01*
X134957716Y-71299105D01*
X134966294Y-71298198D01*
X134974789Y-71297786D01*
X134977602Y-71297759D01*
X134986826Y-71298054D01*
X134995884Y-71298940D01*
X135004778Y-71300417D01*
X135013506Y-71302485D01*
X135022070Y-71305143D01*
X135024888Y-71306161D01*
X135033181Y-71309552D01*
X135041063Y-71313424D01*
X135048532Y-71317777D01*
X135055589Y-71322610D01*
X135062234Y-71327925D01*
X135064357Y-71329803D01*
X135070405Y-71335759D01*
X135075944Y-71342196D01*
X135080974Y-71349113D01*
X135085497Y-71356511D01*
X135089511Y-71364390D01*
X135090736Y-71367124D01*
X135093989Y-71375509D01*
X135096570Y-71384251D01*
X135098477Y-71393351D01*
X135099553Y-71401207D01*
X135100160Y-71409311D01*
X135100310Y-71415972D01*
X135100152Y-71423909D01*
X135099568Y-71432855D01*
X135098555Y-71441465D01*
X135097111Y-71449738D01*
X135095816Y-71455442D01*
X135028405Y-71738177D01*
X135039542Y-71745798D01*
X135190387Y-71643802D01*
X135261315Y-71747947D01*
X135098161Y-71856586D01*
G37*
G36*
X135196053Y-71141443D02*
G01*
X135195758Y-71149767D01*
X135194872Y-71157884D01*
X135193395Y-71165795D01*
X135191327Y-71173500D01*
X135188669Y-71180999D01*
X135187651Y-71183453D01*
X135184281Y-71190588D01*
X135179793Y-71198426D01*
X135174706Y-71205740D01*
X135169022Y-71212531D01*
X135164595Y-71217061D01*
X135157940Y-71222869D01*
X135150800Y-71228153D01*
X135143173Y-71232913D01*
X135136248Y-71236577D01*
X135130205Y-71239336D01*
X135122750Y-71242191D01*
X135115184Y-71244456D01*
X135107509Y-71246130D01*
X135099724Y-71247213D01*
X135091829Y-71247705D01*
X135089173Y-71247738D01*
X135080863Y-71247442D01*
X135072787Y-71246556D01*
X135064944Y-71245079D01*
X135057336Y-71243012D01*
X135049960Y-71240353D01*
X135047554Y-71239336D01*
X135039391Y-71235398D01*
X135031659Y-71230937D01*
X135024356Y-71225952D01*
X135017484Y-71220444D01*
X135013750Y-71217061D01*
X135007638Y-71210644D01*
X135002124Y-71203704D01*
X134997209Y-71196240D01*
X134992892Y-71188252D01*
X134990694Y-71183453D01*
X134987838Y-71176023D01*
X134985574Y-71168386D01*
X134983900Y-71160544D01*
X134982817Y-71152495D01*
X134982325Y-71144241D01*
X134982292Y-71141443D01*
X134982587Y-71133120D01*
X134983473Y-71125003D01*
X134984950Y-71117092D01*
X134987018Y-71109386D01*
X134989676Y-71101887D01*
X134990694Y-71099434D01*
X134994064Y-71092305D01*
X134998552Y-71084493D01*
X135003639Y-71077223D01*
X135009323Y-71070495D01*
X135013750Y-71066021D01*
X135020377Y-71060137D01*
X135027433Y-71054796D01*
X135034920Y-71049997D01*
X135042837Y-71045740D01*
X135047554Y-71043551D01*
X135054851Y-71040695D01*
X135062382Y-71038431D01*
X135070147Y-71036757D01*
X135078145Y-71035674D01*
X135086377Y-71035182D01*
X135089173Y-71035149D01*
X135097104Y-71035444D01*
X135104926Y-71036330D01*
X135112638Y-71037807D01*
X135120240Y-71039875D01*
X135127732Y-71042533D01*
X135130205Y-71043551D01*
X135137427Y-71046901D01*
X135144292Y-71050649D01*
X135151849Y-71055526D01*
X135158921Y-71060945D01*
X135164595Y-71066021D01*
X135170707Y-71072362D01*
X135176221Y-71079245D01*
X135181136Y-71086670D01*
X135185453Y-71094637D01*
X135187651Y-71099434D01*
X135190507Y-71106864D01*
X135192771Y-71114500D01*
X135194445Y-71122343D01*
X135195528Y-71130391D01*
X135196020Y-71138646D01*
X135196053Y-71141443D01*
G37*
G36*
X135956919Y-71666468D02*
G01*
X135952795Y-71678745D01*
X135948288Y-71690712D01*
X135943397Y-71702369D01*
X135938124Y-71713717D01*
X135932468Y-71724754D01*
X135926428Y-71735482D01*
X135920005Y-71745899D01*
X135913199Y-71756007D01*
X135906010Y-71765805D01*
X135898438Y-71775293D01*
X135890482Y-71784471D01*
X135882144Y-71793340D01*
X135873422Y-71801898D01*
X135864317Y-71810147D01*
X135854829Y-71818085D01*
X135844958Y-71825714D01*
X135834682Y-71832954D01*
X135823980Y-71839728D01*
X135812853Y-71846034D01*
X135801299Y-71851872D01*
X135789320Y-71857244D01*
X135776915Y-71862149D01*
X135764083Y-71866587D01*
X135750826Y-71870557D01*
X135737143Y-71874060D01*
X135723035Y-71877097D01*
X135708500Y-71879666D01*
X135693539Y-71881768D01*
X135678153Y-71883403D01*
X135670300Y-71884045D01*
X135662340Y-71884571D01*
X135654274Y-71884979D01*
X135646102Y-71885271D01*
X135637823Y-71885446D01*
X135629438Y-71885505D01*
X135620182Y-71885367D01*
X135611026Y-71884955D01*
X135601969Y-71884268D01*
X135593012Y-71883307D01*
X135584155Y-71882070D01*
X135575397Y-71880559D01*
X135566739Y-71878773D01*
X135558180Y-71876712D01*
X135549721Y-71874376D01*
X135541361Y-71871766D01*
X135535844Y-71869873D01*
X135527735Y-71866770D01*
X135519822Y-71863395D01*
X135512105Y-71859750D01*
X135504584Y-71855832D01*
X135497258Y-71851644D01*
X135490128Y-71847184D01*
X135483194Y-71842453D01*
X135476456Y-71837450D01*
X135469914Y-71832176D01*
X135463567Y-71826631D01*
X135459445Y-71822783D01*
X135453450Y-71816752D01*
X135447703Y-71810457D01*
X135442203Y-71803898D01*
X135436950Y-71797074D01*
X135431945Y-71789985D01*
X135427186Y-71782632D01*
X135422675Y-71775014D01*
X135418412Y-71767132D01*
X135414396Y-71758986D01*
X135410627Y-71750575D01*
X135408251Y-71744821D01*
X135404934Y-71735934D01*
X135401943Y-71726787D01*
X135399278Y-71717378D01*
X135396940Y-71707708D01*
X135394928Y-71697777D01*
X135393242Y-71687586D01*
X135391882Y-71677133D01*
X135390849Y-71666419D01*
X135390142Y-71655444D01*
X135389761Y-71644208D01*
X135389689Y-71636572D01*
X135389783Y-71627908D01*
X135390064Y-71619304D01*
X135390534Y-71610762D01*
X135391191Y-71602281D01*
X135392036Y-71593860D01*
X135393069Y-71585501D01*
X135394289Y-71577203D01*
X135395697Y-71568966D01*
X135397293Y-71560790D01*
X135399077Y-71552675D01*
X135401049Y-71544621D01*
X135403208Y-71536628D01*
X135405555Y-71528696D01*
X135408090Y-71520826D01*
X135410812Y-71513016D01*
X135413722Y-71505267D01*
X135416837Y-71497611D01*
X135420122Y-71490079D01*
X135423578Y-71482670D01*
X135427205Y-71475384D01*
X135431003Y-71468223D01*
X135434972Y-71461185D01*
X135439112Y-71454270D01*
X135443422Y-71447480D01*
X135447904Y-71440813D01*
X135452557Y-71434269D01*
X135457381Y-71427849D01*
X135462376Y-71421553D01*
X135467541Y-71415381D01*
X135472878Y-71409332D01*
X135478386Y-71403407D01*
X135484064Y-71397605D01*
X135489927Y-71391940D01*
X135495938Y-71386422D01*
X135502096Y-71381052D01*
X135508403Y-71375831D01*
X135514858Y-71370758D01*
X135521461Y-71365832D01*
X135528212Y-71361055D01*
X135535111Y-71356426D01*
X135542158Y-71351945D01*
X135549354Y-71347612D01*
X135556697Y-71343427D01*
X135564188Y-71339390D01*
X135571828Y-71335501D01*
X135579615Y-71331760D01*
X135587551Y-71328168D01*
X135595635Y-71324723D01*
X135603862Y-71321458D01*
X135612231Y-71318403D01*
X135620740Y-71315559D01*
X135629389Y-71312926D01*
X135638179Y-71310504D01*
X135647109Y-71308292D01*
X135656179Y-71306290D01*
X135665390Y-71304500D01*
X135674742Y-71302920D01*
X135684234Y-71301551D01*
X135693866Y-71300392D01*
X135703639Y-71299444D01*
X135713552Y-71298707D01*
X135723606Y-71298180D01*
X135733800Y-71297864D01*
X135744134Y-71297759D01*
X135755399Y-71297917D01*
X135766407Y-71298391D01*
X135777157Y-71299181D01*
X135787649Y-71300287D01*
X135797884Y-71301709D01*
X135807861Y-71303447D01*
X135817580Y-71305500D01*
X135827042Y-71307870D01*
X135836247Y-71310556D01*
X135845193Y-71313558D01*
X135851015Y-71315735D01*
X135859557Y-71319219D01*
X135867817Y-71322929D01*
X135875796Y-71326867D01*
X135883493Y-71331031D01*
X135890908Y-71335421D01*
X135898042Y-71340039D01*
X135904894Y-71344883D01*
X135911465Y-71349953D01*
X135917754Y-71355251D01*
X135923761Y-71360775D01*
X135927609Y-71364584D01*
X135933194Y-71370467D01*
X135938518Y-71376539D01*
X135943581Y-71382799D01*
X135948382Y-71389249D01*
X135952923Y-71395888D01*
X135957202Y-71402715D01*
X135961221Y-71409732D01*
X135964979Y-71416937D01*
X135968475Y-71424331D01*
X135971711Y-71431914D01*
X135973722Y-71437075D01*
X135976551Y-71444883D01*
X135979101Y-71452774D01*
X135981373Y-71460747D01*
X135983367Y-71468802D01*
X135985083Y-71476940D01*
X135986520Y-71485160D01*
X135987679Y-71493463D01*
X135988560Y-71501848D01*
X135989163Y-71510316D01*
X135989488Y-71518866D01*
X135989549Y-71524612D01*
X135845544Y-71552944D01*
X135845291Y-71542258D01*
X135844534Y-71532036D01*
X135843272Y-71522277D01*
X135841505Y-71512982D01*
X135839233Y-71504151D01*
X135836456Y-71495784D01*
X135833174Y-71487880D01*
X135829387Y-71480440D01*
X135825096Y-71473464D01*
X135820299Y-71466951D01*
X135816821Y-71462867D01*
X135811124Y-71457140D01*
X135804806Y-71451977D01*
X135797867Y-71447377D01*
X135790305Y-71443340D01*
X135782122Y-71439866D01*
X135773317Y-71436956D01*
X135763891Y-71434609D01*
X135753843Y-71432825D01*
X135743173Y-71431605D01*
X135731882Y-71430947D01*
X135724009Y-71430822D01*
X135713946Y-71431060D01*
X135704078Y-71431775D01*
X135694406Y-71432965D01*
X135684930Y-71434632D01*
X135675648Y-71436776D01*
X135666563Y-71439395D01*
X135657672Y-71442491D01*
X135648977Y-71446063D01*
X135640566Y-71450053D01*
X135632430Y-71454404D01*
X135624568Y-71459115D01*
X135616981Y-71464186D01*
X135609669Y-71469617D01*
X135602632Y-71475409D01*
X135595870Y-71481561D01*
X135589382Y-71488073D01*
X135583254Y-71494860D01*
X135577475Y-71501934D01*
X135572044Y-71509294D01*
X135566960Y-71516942D01*
X135562225Y-71524877D01*
X135557838Y-71533099D01*
X135553799Y-71541608D01*
X135550108Y-71550404D01*
X135546810Y-71559376D01*
X135543953Y-71568514D01*
X135541535Y-71577817D01*
X135539556Y-71587284D01*
X135538018Y-71596917D01*
X135536919Y-71606714D01*
X135536259Y-71616676D01*
X135536039Y-71626803D01*
X135536171Y-71634731D01*
X135536860Y-71646127D01*
X135538140Y-71656930D01*
X135540011Y-71667138D01*
X135542472Y-71676753D01*
X135545524Y-71685773D01*
X135549167Y-71694198D01*
X135553401Y-71702030D01*
X135558226Y-71709267D01*
X135563641Y-71715911D01*
X135569647Y-71721960D01*
X135576143Y-71727407D01*
X135582955Y-71732319D01*
X135590083Y-71736694D01*
X135597527Y-71740534D01*
X135605287Y-71743839D01*
X135613364Y-71746607D01*
X135621756Y-71748839D01*
X135630464Y-71750536D01*
X135639488Y-71751697D01*
X135648828Y-71752322D01*
X135655230Y-71752441D01*
X135663972Y-71752318D01*
X135672467Y-71751950D01*
X135680715Y-71751335D01*
X135688715Y-71750475D01*
X135696469Y-71749369D01*
X135707635Y-71747249D01*
X135718244Y-71744577D01*
X135728298Y-71741351D01*
X135737795Y-71737572D01*
X135746735Y-71733240D01*
X135755119Y-71728356D01*
X135762947Y-71722918D01*
X135765432Y-71720983D01*
X135772664Y-71714821D01*
X135779560Y-71708206D01*
X135786119Y-71701137D01*
X135792342Y-71693615D01*
X135798227Y-71685640D01*
X135803777Y-71677211D01*
X135808989Y-71668329D01*
X135813866Y-71658994D01*
X135818405Y-71649205D01*
X135822608Y-71638963D01*
X135825223Y-71631883D01*
X135956919Y-71666468D01*
G37*
G36*
X136241608Y-71448799D02*
G01*
X136230471Y-71441960D01*
X136141566Y-71507417D01*
X136066144Y-71404639D01*
X136156221Y-71336447D01*
X136162715Y-71331763D01*
X136169300Y-71327385D01*
X136175977Y-71323313D01*
X136184452Y-71318651D01*
X136193070Y-71314466D01*
X136201831Y-71310759D01*
X136210736Y-71307528D01*
X136219640Y-71304714D01*
X136228401Y-71302376D01*
X136237019Y-71300516D01*
X136245495Y-71299133D01*
X136253826Y-71298226D01*
X136262015Y-71297797D01*
X136265251Y-71297759D01*
X136273612Y-71297979D01*
X136281771Y-71298638D01*
X136289728Y-71299737D01*
X136297482Y-71301276D01*
X136307505Y-71304011D01*
X136317168Y-71307528D01*
X136326470Y-71311827D01*
X136335413Y-71316907D01*
X136343995Y-71322769D01*
X136352024Y-71329339D01*
X136359211Y-71336545D01*
X136365555Y-71344385D01*
X136371057Y-71352860D01*
X136375716Y-71361970D01*
X136378657Y-71369220D01*
X136381124Y-71376826D01*
X136383117Y-71384790D01*
X136384637Y-71393111D01*
X136404762Y-71393111D01*
X136409168Y-71384381D01*
X136413887Y-71376071D01*
X136418918Y-71368179D01*
X136424262Y-71360706D01*
X136429918Y-71353653D01*
X136435887Y-71347018D01*
X136442169Y-71340802D01*
X136448763Y-71335006D01*
X136455669Y-71329628D01*
X136462888Y-71324670D01*
X136467875Y-71321597D01*
X136475549Y-71317337D01*
X136483406Y-71313496D01*
X136491445Y-71310074D01*
X136499666Y-71307071D01*
X136508069Y-71304486D01*
X136516654Y-71302322D01*
X136525421Y-71300576D01*
X136534370Y-71299249D01*
X136543501Y-71298341D01*
X136552814Y-71297852D01*
X136559124Y-71297759D01*
X136567040Y-71297917D01*
X136578560Y-71298746D01*
X136589654Y-71300287D01*
X136600322Y-71302538D01*
X136610564Y-71305500D01*
X136620381Y-71309174D01*
X136629771Y-71313558D01*
X136638735Y-71318654D01*
X136647274Y-71324460D01*
X136655387Y-71330977D01*
X136663073Y-71338205D01*
X136670232Y-71346062D01*
X136676686Y-71354465D01*
X136682436Y-71363414D01*
X136687482Y-71372909D01*
X136691824Y-71382950D01*
X136695462Y-71393538D01*
X136698396Y-71404671D01*
X136699961Y-71412397D01*
X136701213Y-71420365D01*
X136702151Y-71428577D01*
X136702777Y-71437030D01*
X136703090Y-71445727D01*
X136703129Y-71450166D01*
X136702990Y-71458473D01*
X136702573Y-71466687D01*
X136701877Y-71474808D01*
X136701371Y-71479280D01*
X136700260Y-71487798D01*
X136698883Y-71496200D01*
X136697377Y-71504193D01*
X136695592Y-71512784D01*
X136695314Y-71514060D01*
X136689647Y-71539071D01*
X136538803Y-71550404D01*
X136542124Y-71534381D01*
X136543578Y-71526004D01*
X136544616Y-71518066D01*
X136545287Y-71509661D01*
X136545446Y-71503509D01*
X136545165Y-71495467D01*
X136544024Y-71486016D01*
X136542005Y-71477233D01*
X136539109Y-71469118D01*
X136535334Y-71461670D01*
X136530682Y-71454890D01*
X136527470Y-71451143D01*
X136521413Y-71445514D01*
X136514479Y-71440839D01*
X136506667Y-71437118D01*
X136497978Y-71434352D01*
X136488410Y-71432539D01*
X136480124Y-71431776D01*
X136473541Y-71431604D01*
X136465243Y-71431873D01*
X136457274Y-71432682D01*
X136447163Y-71434600D01*
X136437637Y-71437476D01*
X136428698Y-71441310D01*
X136420345Y-71446103D01*
X136412578Y-71451855D01*
X136405397Y-71458566D01*
X136402027Y-71462281D01*
X136395649Y-71470310D01*
X136391150Y-71476869D01*
X136386895Y-71483889D01*
X136382884Y-71491368D01*
X136379117Y-71499308D01*
X136375593Y-71507708D01*
X136372314Y-71516568D01*
X136369278Y-71525889D01*
X136366486Y-71535670D01*
X136363938Y-71545911D01*
X136363143Y-71549427D01*
X136322697Y-71739936D01*
X136457714Y-71739936D01*
X136457714Y-71873000D01*
X136072787Y-71873000D01*
X136072787Y-71739936D01*
X136180840Y-71739936D01*
X136241608Y-71448799D01*
G37*
G36*
X137121557Y-71297901D02*
G01*
X137131274Y-71298329D01*
X137140850Y-71299042D01*
X137150286Y-71300039D01*
X137159581Y-71301322D01*
X137168735Y-71302890D01*
X137177748Y-71304743D01*
X137186620Y-71306881D01*
X137195352Y-71309304D01*
X137203942Y-71312013D01*
X137209591Y-71313976D01*
X137217904Y-71317132D01*
X137225991Y-71320518D01*
X137233850Y-71324134D01*
X137241483Y-71327981D01*
X137248890Y-71332057D01*
X137256069Y-71336364D01*
X137263022Y-71340900D01*
X137269748Y-71345667D01*
X137276248Y-71350664D01*
X137282521Y-71355891D01*
X137286577Y-71359503D01*
X137292496Y-71365072D01*
X137298165Y-71370861D01*
X137303583Y-71376869D01*
X137308751Y-71383097D01*
X137313668Y-71389545D01*
X137318334Y-71396213D01*
X137322749Y-71403101D01*
X137326913Y-71410208D01*
X137330827Y-71417535D01*
X137334490Y-71425083D01*
X137336793Y-71430236D01*
X137340005Y-71438082D01*
X137342902Y-71446086D01*
X137345483Y-71454248D01*
X137347747Y-71462568D01*
X137349696Y-71471046D01*
X137351328Y-71479682D01*
X137352645Y-71488475D01*
X137353646Y-71497427D01*
X137354330Y-71506537D01*
X137354699Y-71515805D01*
X137354769Y-71522071D01*
X137354681Y-71531844D01*
X137354418Y-71541525D01*
X137353979Y-71551115D01*
X137353365Y-71560613D01*
X137352575Y-71570019D01*
X137351609Y-71579334D01*
X137350468Y-71588557D01*
X137349152Y-71597689D01*
X137347659Y-71606729D01*
X137345992Y-71615677D01*
X137344148Y-71624534D01*
X137342130Y-71633300D01*
X137339935Y-71641973D01*
X137337565Y-71650555D01*
X137335020Y-71659046D01*
X137332299Y-71667445D01*
X137329406Y-71675702D01*
X137326345Y-71683815D01*
X137323117Y-71691785D01*
X137319720Y-71699612D01*
X137316156Y-71707294D01*
X137312424Y-71714834D01*
X137308523Y-71722230D01*
X137304455Y-71729482D01*
X137300219Y-71736591D01*
X137295815Y-71743557D01*
X137291243Y-71750379D01*
X137286503Y-71757057D01*
X137281596Y-71763592D01*
X137276520Y-71769984D01*
X137271276Y-71776232D01*
X137265865Y-71782337D01*
X137260284Y-71788288D01*
X137254532Y-71794079D01*
X137248609Y-71799707D01*
X137242515Y-71805173D01*
X137236250Y-71810478D01*
X137229815Y-71815621D01*
X137223208Y-71820602D01*
X137216430Y-71825421D01*
X137209481Y-71830078D01*
X137202362Y-71834574D01*
X137195071Y-71838908D01*
X137187609Y-71843080D01*
X137179977Y-71847090D01*
X137172173Y-71850938D01*
X137164199Y-71854625D01*
X137156053Y-71858150D01*
X137147741Y-71861462D01*
X137139268Y-71864561D01*
X137130632Y-71867446D01*
X137121835Y-71870117D01*
X137112876Y-71872575D01*
X137103755Y-71874819D01*
X137094472Y-71876849D01*
X137085027Y-71878666D01*
X137075421Y-71880269D01*
X137065653Y-71881658D01*
X137055723Y-71882833D01*
X137045631Y-71883795D01*
X137035377Y-71884543D01*
X137024962Y-71885077D01*
X137014385Y-71885398D01*
X137003646Y-71885505D01*
X136994430Y-71885378D01*
X136985321Y-71884996D01*
X136976318Y-71884361D01*
X136967421Y-71883471D01*
X136958632Y-71882328D01*
X136949948Y-71880930D01*
X136941371Y-71879278D01*
X136932901Y-71877371D01*
X136924537Y-71875211D01*
X136916279Y-71872796D01*
X136910833Y-71871046D01*
X136902795Y-71868176D01*
X136894945Y-71865062D01*
X136887284Y-71861705D01*
X136879812Y-71858104D01*
X136872528Y-71854259D01*
X136865434Y-71850170D01*
X136858529Y-71845837D01*
X136851812Y-71841260D01*
X136845285Y-71836440D01*
X136838946Y-71831375D01*
X136834825Y-71827863D01*
X136828825Y-71822366D01*
X136823062Y-71816646D01*
X136817537Y-71810702D01*
X136812248Y-71804535D01*
X136807196Y-71798145D01*
X136802381Y-71791532D01*
X136797803Y-71784695D01*
X136793463Y-71777635D01*
X136789359Y-71770352D01*
X136785492Y-71762845D01*
X136783046Y-71757717D01*
X136779623Y-71749815D01*
X136776538Y-71741718D01*
X136773789Y-71733425D01*
X136771377Y-71724936D01*
X136769301Y-71716252D01*
X136767562Y-71707372D01*
X136766160Y-71698295D01*
X136765094Y-71689024D01*
X136764364Y-71679556D01*
X136763972Y-71669892D01*
X136763897Y-71663341D01*
X136764002Y-71652618D01*
X136764318Y-71642040D01*
X136764604Y-71636377D01*
X136909075Y-71636377D01*
X136909351Y-71646800D01*
X136910181Y-71656745D01*
X136911563Y-71666212D01*
X136913499Y-71675202D01*
X136915987Y-71683715D01*
X136919029Y-71691751D01*
X136922623Y-71699309D01*
X136926770Y-71706389D01*
X136931471Y-71712992D01*
X136936724Y-71719118D01*
X136940533Y-71722937D01*
X136946654Y-71728209D01*
X136953145Y-71732964D01*
X136960008Y-71737199D01*
X136967241Y-71740916D01*
X136974846Y-71744114D01*
X136982821Y-71746794D01*
X136991167Y-71748955D01*
X136999884Y-71750597D01*
X137008972Y-71751721D01*
X137018432Y-71752326D01*
X137024944Y-71752441D01*
X137035003Y-71752179D01*
X137044862Y-71751391D01*
X137054518Y-71750078D01*
X137063974Y-71748240D01*
X137073227Y-71745877D01*
X137082280Y-71742989D01*
X137091130Y-71739576D01*
X137099780Y-71735637D01*
X137108218Y-71731271D01*
X137116339Y-71726576D01*
X137124143Y-71721551D01*
X137131629Y-71716196D01*
X137138797Y-71710511D01*
X137145648Y-71704496D01*
X137152182Y-71698152D01*
X137158398Y-71691478D01*
X137164287Y-71684444D01*
X137169841Y-71677117D01*
X137175058Y-71669496D01*
X137179940Y-71661583D01*
X137184486Y-71653376D01*
X137188696Y-71644877D01*
X137192571Y-71636084D01*
X137196109Y-71626998D01*
X137199269Y-71617650D01*
X137202008Y-71608167D01*
X137204325Y-71598550D01*
X137206221Y-71588799D01*
X137207695Y-71578913D01*
X137208749Y-71568893D01*
X137209381Y-71558738D01*
X137209591Y-71548450D01*
X137209313Y-71537783D01*
X137208478Y-71527617D01*
X137207087Y-71517953D01*
X137205140Y-71508791D01*
X137202636Y-71500130D01*
X137199576Y-71491970D01*
X137195959Y-71484312D01*
X137191786Y-71477155D01*
X137187056Y-71470500D01*
X137181770Y-71464346D01*
X137177937Y-71460522D01*
X137171852Y-71455214D01*
X137165392Y-71450429D01*
X137158557Y-71446165D01*
X137151349Y-71442424D01*
X137143765Y-71439204D01*
X137135808Y-71436507D01*
X137127476Y-71434332D01*
X137118770Y-71432678D01*
X137109689Y-71431547D01*
X137100234Y-71430938D01*
X137093722Y-71430822D01*
X137083669Y-71431094D01*
X137073829Y-71431909D01*
X137064203Y-71433268D01*
X137054790Y-71435170D01*
X137045591Y-71437615D01*
X137036606Y-71440604D01*
X137027835Y-71444137D01*
X137019277Y-71448212D01*
X137011013Y-71452688D01*
X137003023Y-71457518D01*
X136995308Y-71462702D01*
X136987868Y-71468240D01*
X136980702Y-71474133D01*
X136973811Y-71480379D01*
X136967196Y-71486980D01*
X136960854Y-71493935D01*
X136954828Y-71501198D01*
X136949155Y-71508724D01*
X136943837Y-71516512D01*
X136938872Y-71524563D01*
X136934262Y-71532876D01*
X136930006Y-71541452D01*
X136926105Y-71550291D01*
X136922557Y-71559392D01*
X136919397Y-71568630D01*
X136916659Y-71577979D01*
X136914341Y-71587437D01*
X136912445Y-71597005D01*
X136910971Y-71606683D01*
X136909918Y-71616471D01*
X136909286Y-71626369D01*
X136909075Y-71636377D01*
X136764604Y-71636377D01*
X136764845Y-71631607D01*
X136765582Y-71621319D01*
X136766530Y-71611177D01*
X136767689Y-71601179D01*
X136769058Y-71591326D01*
X136770638Y-71581618D01*
X136772429Y-71572055D01*
X136774430Y-71562637D01*
X136776642Y-71553364D01*
X136779064Y-71544236D01*
X136781698Y-71535254D01*
X136784542Y-71526416D01*
X136787596Y-71517723D01*
X136790861Y-71509175D01*
X136794333Y-71500781D01*
X136797957Y-71492549D01*
X136801733Y-71484478D01*
X136805662Y-71476569D01*
X136809744Y-71468822D01*
X136813979Y-71461237D01*
X136818366Y-71453813D01*
X136822906Y-71446551D01*
X136827599Y-71439452D01*
X136832444Y-71432514D01*
X136837441Y-71425737D01*
X136842592Y-71419123D01*
X136847895Y-71412670D01*
X136853351Y-71406380D01*
X136858959Y-71400251D01*
X136864720Y-71394284D01*
X136870623Y-71388485D01*
X136876658Y-71382862D01*
X136882823Y-71377415D01*
X136889120Y-71372143D01*
X136895548Y-71367047D01*
X136902108Y-71362126D01*
X136908799Y-71357381D01*
X136915621Y-71352811D01*
X136922574Y-71348417D01*
X136929658Y-71344198D01*
X136936874Y-71340155D01*
X136944221Y-71336288D01*
X136951700Y-71332596D01*
X136959310Y-71329080D01*
X136967050Y-71325739D01*
X136974923Y-71322574D01*
X136982922Y-71319569D01*
X136990994Y-71316758D01*
X136999139Y-71314141D01*
X137007358Y-71311717D01*
X137015650Y-71309488D01*
X137024016Y-71307452D01*
X137032454Y-71305610D01*
X137040966Y-71303963D01*
X137049551Y-71302509D01*
X137058210Y-71301248D01*
X137066941Y-71300182D01*
X137075746Y-71299310D01*
X137084624Y-71298631D01*
X137093576Y-71298146D01*
X137102601Y-71297856D01*
X137111699Y-71297759D01*
X137121557Y-71297901D01*
G37*
G36*
X138116807Y-71085170D02*
G01*
X138007581Y-71598471D01*
X138005562Y-71607932D01*
X138003460Y-71617216D01*
X138001275Y-71626323D01*
X137999009Y-71635254D01*
X137996659Y-71644007D01*
X137994228Y-71652583D01*
X137991713Y-71660981D01*
X137989117Y-71669203D01*
X137986438Y-71677248D01*
X137983676Y-71685116D01*
X137980832Y-71692806D01*
X137977906Y-71700320D01*
X137974897Y-71707656D01*
X137970230Y-71718329D01*
X137965376Y-71728603D01*
X137960315Y-71738517D01*
X137955024Y-71748107D01*
X137949503Y-71757375D01*
X137943752Y-71766320D01*
X137937770Y-71774942D01*
X137931559Y-71783242D01*
X137925117Y-71791218D01*
X137918445Y-71798872D01*
X137911543Y-71806203D01*
X137904411Y-71813210D01*
X137899528Y-71817703D01*
X137892015Y-71824166D01*
X137884274Y-71830292D01*
X137876307Y-71836082D01*
X137868113Y-71841535D01*
X137859692Y-71846651D01*
X137851045Y-71851431D01*
X137842171Y-71855875D01*
X137833070Y-71859981D01*
X137823743Y-71863751D01*
X137814188Y-71867185D01*
X137807693Y-71869287D01*
X137797765Y-71872185D01*
X137787545Y-71874799D01*
X137777034Y-71877127D01*
X137766230Y-71879170D01*
X137755134Y-71880928D01*
X137743747Y-71882401D01*
X137732067Y-71883588D01*
X137724118Y-71884222D01*
X137716040Y-71884729D01*
X137707832Y-71885109D01*
X137699494Y-71885362D01*
X137691027Y-71885489D01*
X137686744Y-71885505D01*
X137677314Y-71885372D01*
X137668000Y-71884976D01*
X137658803Y-71884315D01*
X137649723Y-71883389D01*
X137640760Y-71882199D01*
X137631913Y-71880744D01*
X137623183Y-71879025D01*
X137614570Y-71877042D01*
X137606074Y-71874794D01*
X137597695Y-71872281D01*
X137592173Y-71870459D01*
X137584073Y-71867485D01*
X137576186Y-71864277D01*
X137568512Y-71860835D01*
X137561051Y-71857160D01*
X137553802Y-71853252D01*
X137546767Y-71849109D01*
X137539945Y-71844734D01*
X137533335Y-71840124D01*
X137526939Y-71835282D01*
X137520755Y-71830205D01*
X137516751Y-71826691D01*
X137510971Y-71821224D01*
X137505428Y-71815519D01*
X137500122Y-71809578D01*
X137495053Y-71803399D01*
X137490221Y-71796984D01*
X137485626Y-71790332D01*
X137481268Y-71783442D01*
X137477147Y-71776316D01*
X137473263Y-71768953D01*
X137469616Y-71761352D01*
X137467316Y-71756154D01*
X137464104Y-71748139D01*
X137461207Y-71739921D01*
X137458627Y-71731501D01*
X137456362Y-71722879D01*
X137454413Y-71714053D01*
X137452781Y-71705025D01*
X137451464Y-71695795D01*
X137450464Y-71686361D01*
X137449779Y-71676725D01*
X137449410Y-71666887D01*
X137449340Y-71660215D01*
X137449396Y-71652379D01*
X137449598Y-71643491D01*
X137449946Y-71634677D01*
X137450440Y-71625936D01*
X137450512Y-71624849D01*
X137451231Y-71617007D01*
X137452361Y-71608697D01*
X137453902Y-71599921D01*
X137455551Y-71592025D01*
X137457156Y-71585184D01*
X137563060Y-71085170D01*
X137711559Y-71085170D01*
X137602334Y-71603160D01*
X137600902Y-71611619D01*
X137599563Y-71619801D01*
X137598426Y-71626998D01*
X137597473Y-71635379D01*
X137596960Y-71643814D01*
X137596863Y-71649468D01*
X137597095Y-71658402D01*
X137597790Y-71666958D01*
X137598949Y-71675136D01*
X137600572Y-71682936D01*
X137603457Y-71692748D01*
X137607167Y-71701889D01*
X137611700Y-71710358D01*
X137617059Y-71718156D01*
X137623241Y-71725281D01*
X137630251Y-71731647D01*
X137638091Y-71737164D01*
X137646762Y-71741832D01*
X137656263Y-71745651D01*
X137663933Y-71747959D01*
X137672071Y-71749789D01*
X137680676Y-71751142D01*
X137689748Y-71752017D01*
X137699287Y-71752415D01*
X137702571Y-71752441D01*
X137710900Y-71752300D01*
X137718987Y-71751876D01*
X137726831Y-71751170D01*
X137738142Y-71749582D01*
X137748907Y-71747358D01*
X137759126Y-71744499D01*
X137768798Y-71741004D01*
X137777925Y-71736874D01*
X137786505Y-71732108D01*
X137794539Y-71726707D01*
X137802027Y-71720671D01*
X137806716Y-71716293D01*
X137813385Y-71709157D01*
X137819690Y-71701302D01*
X137825631Y-71692730D01*
X137831208Y-71683440D01*
X137836420Y-71673432D01*
X137841269Y-71662706D01*
X137844299Y-71655156D01*
X137847167Y-71647288D01*
X137849874Y-71639100D01*
X137852419Y-71630594D01*
X137854801Y-71621768D01*
X137857023Y-71612624D01*
X137859082Y-71603160D01*
X137968112Y-71085170D01*
X138116807Y-71085170D01*
G37*
G36*
X138611936Y-71336838D02*
G01*
X138613475Y-71328546D01*
X138614574Y-71320669D01*
X138615285Y-71312304D01*
X138615453Y-71306161D01*
X138615175Y-71297954D01*
X138614340Y-71290038D01*
X138612362Y-71279939D01*
X138609394Y-71270359D01*
X138605438Y-71261297D01*
X138600492Y-71252755D01*
X138594557Y-71244731D01*
X138587632Y-71237227D01*
X138583799Y-71233669D01*
X138577604Y-71228676D01*
X138570814Y-71224174D01*
X138563430Y-71220163D01*
X138555452Y-71216643D01*
X138546879Y-71213614D01*
X138537713Y-71211076D01*
X138527952Y-71209030D01*
X138517597Y-71207474D01*
X138506648Y-71206410D01*
X138495105Y-71205837D01*
X138487079Y-71205728D01*
X138478987Y-71205866D01*
X138470951Y-71206281D01*
X138462973Y-71206973D01*
X138455053Y-71207941D01*
X138447189Y-71209187D01*
X138439383Y-71210708D01*
X138436277Y-71211394D01*
X138427237Y-71213739D01*
X138418581Y-71216524D01*
X138410310Y-71219748D01*
X138402424Y-71223411D01*
X138394923Y-71227515D01*
X138392508Y-71228980D01*
X138385602Y-71233596D01*
X138379246Y-71238652D01*
X138373439Y-71244147D01*
X138368182Y-71250083D01*
X138363474Y-71256457D01*
X138362027Y-71258680D01*
X138358242Y-71265620D01*
X138355240Y-71272959D01*
X138353021Y-71280696D01*
X138351585Y-71288832D01*
X138350933Y-71297366D01*
X138350889Y-71300299D01*
X138351408Y-71309858D01*
X138352965Y-71318898D01*
X138355560Y-71327419D01*
X138359193Y-71335421D01*
X138363865Y-71342904D01*
X138369574Y-71349868D01*
X138376321Y-71356313D01*
X138384106Y-71362239D01*
X138393052Y-71367698D01*
X138400602Y-71371583D01*
X138408874Y-71375291D01*
X138417867Y-71378819D01*
X138427581Y-71382169D01*
X138438017Y-71385340D01*
X138449174Y-71388333D01*
X138457013Y-71390229D01*
X138465172Y-71392046D01*
X138473652Y-71393783D01*
X138482452Y-71395441D01*
X138491573Y-71397019D01*
X138504491Y-71399273D01*
X138517060Y-71401785D01*
X138529281Y-71404555D01*
X138541154Y-71407583D01*
X138552680Y-71410868D01*
X138563857Y-71414412D01*
X138574686Y-71418214D01*
X138585167Y-71422274D01*
X138595300Y-71426592D01*
X138605085Y-71431167D01*
X138614522Y-71436001D01*
X138623611Y-71441093D01*
X138632352Y-71446442D01*
X138640744Y-71452050D01*
X138648789Y-71457916D01*
X138656486Y-71464039D01*
X138663773Y-71470470D01*
X138670591Y-71477259D01*
X138676938Y-71484405D01*
X138682815Y-71491907D01*
X138688222Y-71499767D01*
X138693159Y-71507985D01*
X138697626Y-71516559D01*
X138701622Y-71525491D01*
X138705148Y-71534780D01*
X138708204Y-71544426D01*
X138710790Y-71554429D01*
X138712906Y-71564789D01*
X138714552Y-71575507D01*
X138715727Y-71586582D01*
X138716432Y-71598014D01*
X138716667Y-71609803D01*
X138716577Y-71617763D01*
X138716307Y-71625618D01*
X138715564Y-71637207D01*
X138714416Y-71648562D01*
X138712862Y-71659683D01*
X138710903Y-71670571D01*
X138708539Y-71681225D01*
X138705770Y-71691646D01*
X138702595Y-71701833D01*
X138699015Y-71711787D01*
X138695029Y-71721507D01*
X138693611Y-71724695D01*
X138689119Y-71734055D01*
X138684291Y-71743158D01*
X138679127Y-71752003D01*
X138673626Y-71760590D01*
X138667788Y-71768919D01*
X138661613Y-71776991D01*
X138655102Y-71784806D01*
X138648255Y-71792363D01*
X138641071Y-71799662D01*
X138633550Y-71806704D01*
X138628349Y-71811255D01*
X138620281Y-71817848D01*
X138611904Y-71824146D01*
X138603218Y-71830149D01*
X138594222Y-71835856D01*
X138584918Y-71841268D01*
X138575304Y-71846385D01*
X138565381Y-71851206D01*
X138555150Y-71855732D01*
X138544609Y-71859962D01*
X138533758Y-71863897D01*
X138526353Y-71866356D01*
X138518847Y-71868675D01*
X138511226Y-71870844D01*
X138503490Y-71872864D01*
X138495640Y-71874734D01*
X138487675Y-71876454D01*
X138479596Y-71878025D01*
X138471402Y-71879446D01*
X138463094Y-71880718D01*
X138454672Y-71881840D01*
X138446135Y-71882812D01*
X138437483Y-71883635D01*
X138428717Y-71884308D01*
X138419837Y-71884832D01*
X138410842Y-71885206D01*
X138401732Y-71885430D01*
X138392508Y-71885505D01*
X138383712Y-71885433D01*
X138375057Y-71885218D01*
X138366542Y-71884859D01*
X138358168Y-71884357D01*
X138349934Y-71883711D01*
X138341840Y-71882922D01*
X138333887Y-71881989D01*
X138326074Y-71880913D01*
X138314618Y-71879030D01*
X138303479Y-71876823D01*
X138292655Y-71874294D01*
X138282147Y-71871442D01*
X138271955Y-71868268D01*
X138268628Y-71867138D01*
X138258898Y-71863579D01*
X138249490Y-71859790D01*
X138240406Y-71855771D01*
X138231644Y-71851521D01*
X138223205Y-71847042D01*
X138215089Y-71842333D01*
X138207295Y-71837393D01*
X138199825Y-71832223D01*
X138192678Y-71826823D01*
X138185853Y-71821193D01*
X138181482Y-71817312D01*
X138175189Y-71811284D01*
X138169205Y-71805071D01*
X138163529Y-71798672D01*
X138158163Y-71792088D01*
X138153106Y-71785318D01*
X138148358Y-71778363D01*
X138143920Y-71771222D01*
X138139790Y-71763896D01*
X138135970Y-71756385D01*
X138132458Y-71748688D01*
X138130289Y-71743453D01*
X138127286Y-71735481D01*
X138124578Y-71727393D01*
X138122166Y-71719187D01*
X138120049Y-71710865D01*
X138118228Y-71702426D01*
X138116702Y-71693870D01*
X138115471Y-71685198D01*
X138114535Y-71676408D01*
X138113895Y-71667502D01*
X138113551Y-71658479D01*
X138113485Y-71652399D01*
X138113562Y-71644266D01*
X138113794Y-71636133D01*
X138114181Y-71628000D01*
X138114462Y-71623481D01*
X138115292Y-71615270D01*
X138116461Y-71606905D01*
X138117971Y-71598386D01*
X138118956Y-71593586D01*
X138124623Y-71567989D01*
X138273318Y-71567989D01*
X138268824Y-71587333D01*
X138267230Y-71595666D01*
X138265966Y-71604396D01*
X138265032Y-71613526D01*
X138264505Y-71621438D01*
X138264207Y-71629627D01*
X138264134Y-71636377D01*
X138264436Y-71646391D01*
X138265343Y-71655989D01*
X138266854Y-71665172D01*
X138268970Y-71673939D01*
X138271690Y-71682290D01*
X138275015Y-71690226D01*
X138278944Y-71697746D01*
X138283478Y-71704851D01*
X138288616Y-71711540D01*
X138294359Y-71717813D01*
X138298524Y-71721764D01*
X138305272Y-71727247D01*
X138312622Y-71732190D01*
X138320572Y-71736593D01*
X138329124Y-71740458D01*
X138338277Y-71743783D01*
X138348031Y-71746569D01*
X138358386Y-71748816D01*
X138369342Y-71750524D01*
X138380899Y-71751692D01*
X138388938Y-71752172D01*
X138397243Y-71752411D01*
X138401496Y-71752441D01*
X138410650Y-71752321D01*
X138419549Y-71751959D01*
X138428193Y-71751356D01*
X138436582Y-71750512D01*
X138444716Y-71749426D01*
X138452595Y-71748100D01*
X138463936Y-71745658D01*
X138474703Y-71742673D01*
X138484896Y-71739146D01*
X138494516Y-71735076D01*
X138503563Y-71730463D01*
X138512035Y-71725307D01*
X138517365Y-71721569D01*
X138524838Y-71715543D01*
X138531576Y-71709115D01*
X138537578Y-71702285D01*
X138542846Y-71695053D01*
X138547378Y-71687420D01*
X138551176Y-71679384D01*
X138554239Y-71670947D01*
X138556566Y-71662108D01*
X138558159Y-71652867D01*
X138559016Y-71643224D01*
X138559180Y-71636572D01*
X138558867Y-71628717D01*
X138557478Y-71618768D01*
X138554977Y-71609416D01*
X138551366Y-71600663D01*
X138546643Y-71592508D01*
X138540808Y-71584952D01*
X138533863Y-71577994D01*
X138525806Y-71571635D01*
X138523618Y-71570138D01*
X138516564Y-71565805D01*
X138508666Y-71561671D01*
X138499922Y-71557736D01*
X138490334Y-71554000D01*
X138479900Y-71550463D01*
X138468622Y-71547126D01*
X138460634Y-71545012D01*
X138452270Y-71542986D01*
X138443531Y-71541049D01*
X138434416Y-71539200D01*
X138424925Y-71537440D01*
X138415059Y-71535769D01*
X138404818Y-71534186D01*
X138395024Y-71532629D01*
X138385279Y-71530791D01*
X138375582Y-71528672D01*
X138365935Y-71526272D01*
X138356336Y-71523592D01*
X138346786Y-71520630D01*
X138337285Y-71517388D01*
X138327833Y-71513865D01*
X138318536Y-71510027D01*
X138309502Y-71505841D01*
X138300731Y-71501308D01*
X138292222Y-71496426D01*
X138283976Y-71491196D01*
X138275992Y-71485618D01*
X138268271Y-71479692D01*
X138260812Y-71473418D01*
X138253662Y-71466738D01*
X138246866Y-71459692D01*
X138240424Y-71452279D01*
X138234337Y-71444500D01*
X138228603Y-71436354D01*
X138223224Y-71427842D01*
X138218198Y-71418964D01*
X138213527Y-71409720D01*
X138210315Y-71402525D01*
X138207418Y-71395083D01*
X138204837Y-71387394D01*
X138202573Y-71379458D01*
X138200624Y-71371274D01*
X138198992Y-71362843D01*
X138197675Y-71354165D01*
X138196674Y-71345240D01*
X138195990Y-71336067D01*
X138195621Y-71326647D01*
X138195551Y-71320229D01*
X138195724Y-71310366D01*
X138196245Y-71300633D01*
X138197112Y-71291031D01*
X138198326Y-71281559D01*
X138199887Y-71272218D01*
X138201795Y-71263008D01*
X138204050Y-71253927D01*
X138206652Y-71244978D01*
X138209600Y-71236159D01*
X138212896Y-71227470D01*
X138215286Y-71221750D01*
X138219152Y-71213322D01*
X138223352Y-71205111D01*
X138227886Y-71197115D01*
X138232752Y-71189336D01*
X138237952Y-71181774D01*
X138243484Y-71174428D01*
X138249350Y-71167298D01*
X138255549Y-71160384D01*
X138262081Y-71153687D01*
X138268947Y-71147207D01*
X138273709Y-71143006D01*
X138281157Y-71136907D01*
X138288922Y-71131065D01*
X138297002Y-71125481D01*
X138305399Y-71120155D01*
X138314112Y-71115086D01*
X138323140Y-71110274D01*
X138332485Y-71105720D01*
X138342145Y-71101424D01*
X138352122Y-71097386D01*
X138362414Y-71093605D01*
X138369452Y-71091227D01*
X138380266Y-71087910D01*
X138391385Y-71084919D01*
X138402811Y-71082254D01*
X138410598Y-71080659D01*
X138418520Y-71079209D01*
X138426579Y-71077903D01*
X138434773Y-71076743D01*
X138443103Y-71075728D01*
X138451569Y-71074858D01*
X138460171Y-71074133D01*
X138468909Y-71073553D01*
X138477783Y-71073118D01*
X138486792Y-71072828D01*
X138495938Y-71072683D01*
X138500561Y-71072665D01*
X138508397Y-71072726D01*
X138519950Y-71073046D01*
X138531263Y-71073642D01*
X138542335Y-71074512D01*
X138553167Y-71075657D01*
X138563758Y-71077076D01*
X138574109Y-71078771D01*
X138584219Y-71080740D01*
X138594089Y-71082984D01*
X138603719Y-71085503D01*
X138613108Y-71088296D01*
X138622278Y-71091299D01*
X138631177Y-71094517D01*
X138639804Y-71097953D01*
X138648160Y-71101604D01*
X138656245Y-71105472D01*
X138664058Y-71109557D01*
X138671600Y-71113857D01*
X138678871Y-71118375D01*
X138685870Y-71123108D01*
X138692598Y-71128058D01*
X138696933Y-71131478D01*
X138703236Y-71136738D01*
X138709252Y-71142188D01*
X138714978Y-71147826D01*
X138720416Y-71153652D01*
X138725566Y-71159668D01*
X138730427Y-71165873D01*
X138735000Y-71172267D01*
X138739284Y-71178849D01*
X138743280Y-71185621D01*
X138746987Y-71192581D01*
X138749298Y-71197326D01*
X138752511Y-71204525D01*
X138755407Y-71211834D01*
X138757988Y-71219253D01*
X138760252Y-71226782D01*
X138762201Y-71234420D01*
X138763834Y-71242169D01*
X138765150Y-71250028D01*
X138766151Y-71257996D01*
X138766836Y-71266074D01*
X138767204Y-71274263D01*
X138767274Y-71279782D01*
X138767136Y-71288134D01*
X138766720Y-71296532D01*
X138766102Y-71304207D01*
X138765243Y-71312103D01*
X138763889Y-71320647D01*
X138762245Y-71328892D01*
X138761608Y-71331757D01*
X138757114Y-71351688D01*
X138608614Y-71351688D01*
X138611936Y-71336838D01*
G37*
G36*
X139239218Y-71085295D02*
G01*
X139249383Y-71085671D01*
X139259290Y-71086298D01*
X139268940Y-71087176D01*
X139278332Y-71088304D01*
X139287467Y-71089683D01*
X139296344Y-71091313D01*
X139304963Y-71093193D01*
X139313325Y-71095324D01*
X139321429Y-71097706D01*
X139326688Y-71099434D01*
X139334363Y-71102168D01*
X139341780Y-71105094D01*
X139351269Y-71109295D01*
X139360300Y-71113838D01*
X139368873Y-71118723D01*
X139376988Y-71123949D01*
X139384645Y-71129518D01*
X139391844Y-71135429D01*
X139395272Y-71138512D01*
X139401839Y-71144860D01*
X139407960Y-71151494D01*
X139413636Y-71158415D01*
X139418866Y-71165623D01*
X139423650Y-71173119D01*
X139427988Y-71180901D01*
X139431881Y-71188970D01*
X139435327Y-71197326D01*
X139438350Y-71205896D01*
X139440969Y-71214606D01*
X139443186Y-71223457D01*
X139445000Y-71232448D01*
X139446410Y-71241580D01*
X139447418Y-71250852D01*
X139448022Y-71260264D01*
X139448224Y-71269817D01*
X139448100Y-71277795D01*
X139447729Y-71285608D01*
X139446850Y-71295768D01*
X139445531Y-71305636D01*
X139443772Y-71315210D01*
X139441574Y-71324491D01*
X139438936Y-71333479D01*
X139435859Y-71342174D01*
X139434155Y-71346412D01*
X139430470Y-71354634D01*
X139426449Y-71362593D01*
X139422093Y-71370290D01*
X139417400Y-71377724D01*
X139412372Y-71384895D01*
X139407008Y-71391804D01*
X139401308Y-71398451D01*
X139395272Y-71404835D01*
X139388998Y-71410916D01*
X139382486Y-71416754D01*
X139375735Y-71422347D01*
X139368747Y-71427696D01*
X139361520Y-71432801D01*
X139354056Y-71437661D01*
X139346353Y-71442277D01*
X139338412Y-71446649D01*
X139330321Y-71450774D01*
X139322072Y-71454648D01*
X139313664Y-71458272D01*
X139305097Y-71461646D01*
X139296372Y-71464769D01*
X139287487Y-71467642D01*
X139278444Y-71470264D01*
X139269242Y-71472637D01*
X139269242Y-71491981D01*
X139277556Y-71494696D01*
X139285571Y-71497785D01*
X139293287Y-71501249D01*
X139300704Y-71505087D01*
X139307822Y-71509300D01*
X139314642Y-71513887D01*
X139321162Y-71518848D01*
X139327384Y-71524184D01*
X139333307Y-71529894D01*
X139338932Y-71535979D01*
X139342515Y-71540243D01*
X139347544Y-71546977D01*
X139352077Y-71554208D01*
X139356116Y-71561938D01*
X139359661Y-71570166D01*
X139362711Y-71578892D01*
X139365266Y-71588115D01*
X139367327Y-71597837D01*
X139368893Y-71608057D01*
X139369965Y-71618775D01*
X139370542Y-71629991D01*
X139370652Y-71637745D01*
X139370468Y-71646919D01*
X139369917Y-71655976D01*
X139368998Y-71664916D01*
X139367712Y-71673740D01*
X139366058Y-71682447D01*
X139364037Y-71691037D01*
X139361648Y-71699510D01*
X139358892Y-71707867D01*
X139355768Y-71716107D01*
X139352277Y-71724230D01*
X139349745Y-71729580D01*
X139345715Y-71737474D01*
X139341394Y-71745183D01*
X139336781Y-71752706D01*
X139331875Y-71760043D01*
X139326678Y-71767195D01*
X139321189Y-71774162D01*
X139315408Y-71780943D01*
X139309335Y-71787539D01*
X139302970Y-71793949D01*
X139296313Y-71800174D01*
X139291713Y-71804221D01*
X139284628Y-71810076D01*
X139277296Y-71815697D01*
X139269717Y-71821085D01*
X139261891Y-71826239D01*
X139253817Y-71831160D01*
X139245496Y-71835847D01*
X139236927Y-71840301D01*
X139228112Y-71844521D01*
X139219049Y-71848507D01*
X139209739Y-71852260D01*
X139203394Y-71854632D01*
X139193712Y-71857915D01*
X139183860Y-71860874D01*
X139173841Y-71863511D01*
X139163653Y-71865825D01*
X139153297Y-71867816D01*
X139142773Y-71869484D01*
X139132080Y-71870829D01*
X139121219Y-71871852D01*
X139110190Y-71872551D01*
X139098992Y-71872928D01*
X139091434Y-71873000D01*
X138785446Y-71873000D01*
X138785446Y-71735442D01*
X138859696Y-71735442D01*
X139005851Y-71735442D01*
X139102766Y-71735442D01*
X139112935Y-71735198D01*
X139122777Y-71734466D01*
X139132293Y-71733247D01*
X139141482Y-71731540D01*
X139150345Y-71729345D01*
X139158882Y-71726663D01*
X139167093Y-71723493D01*
X139174977Y-71719835D01*
X139182535Y-71715689D01*
X139189766Y-71711056D01*
X139194406Y-71707696D01*
X139200936Y-71702279D01*
X139206824Y-71696433D01*
X139212069Y-71690157D01*
X139216672Y-71683452D01*
X139220633Y-71676317D01*
X139223951Y-71668754D01*
X139226628Y-71660761D01*
X139228661Y-71652338D01*
X139230053Y-71643487D01*
X139230802Y-71634206D01*
X139230945Y-71627780D01*
X139230566Y-71617460D01*
X139229431Y-71607898D01*
X139227538Y-71599093D01*
X139224888Y-71591046D01*
X139221481Y-71583755D01*
X139216157Y-71575706D01*
X139209650Y-71568841D01*
X139206716Y-71566426D01*
X139198776Y-71561078D01*
X139191806Y-71557453D01*
X139184287Y-71554407D01*
X139176217Y-71551942D01*
X139167599Y-71550057D01*
X139158431Y-71548752D01*
X139148713Y-71548027D01*
X139141064Y-71547863D01*
X139044148Y-71547863D01*
X139005851Y-71735442D01*
X138859696Y-71735442D01*
X138927474Y-71410306D01*
X139074630Y-71410306D01*
X139171350Y-71410306D01*
X139182126Y-71410064D01*
X139192473Y-71409337D01*
X139202391Y-71408127D01*
X139211879Y-71406432D01*
X139220938Y-71404252D01*
X139229567Y-71401589D01*
X139237768Y-71398441D01*
X139245539Y-71394809D01*
X139252880Y-71390692D01*
X139259792Y-71386091D01*
X139264162Y-71382755D01*
X139270308Y-71377358D01*
X139275849Y-71371496D01*
X139280786Y-71365171D01*
X139285118Y-71358383D01*
X139288846Y-71351131D01*
X139291969Y-71343415D01*
X139294488Y-71335235D01*
X139296402Y-71326592D01*
X139297712Y-71317485D01*
X139298417Y-71307914D01*
X139298551Y-71301276D01*
X139298182Y-71291897D01*
X139297074Y-71283104D01*
X139295227Y-71274898D01*
X139292641Y-71267277D01*
X139288369Y-71258576D01*
X139282944Y-71250791D01*
X139276363Y-71243922D01*
X139274909Y-71242658D01*
X139267082Y-71236916D01*
X139260188Y-71233023D01*
X139252732Y-71229754D01*
X139244715Y-71227107D01*
X139236136Y-71225082D01*
X139226995Y-71223681D01*
X139217293Y-71222903D01*
X139209647Y-71222727D01*
X139112927Y-71222727D01*
X139074630Y-71410306D01*
X138927474Y-71410306D01*
X138966577Y-71222727D01*
X138892327Y-71222727D01*
X138892327Y-71085170D01*
X139228796Y-71085170D01*
X139239218Y-71085295D01*
G37*
D11*
%TO.C,R16*%
X160420380Y-109608857D02*
X159944190Y-109942190D01*
X160420380Y-110180285D02*
X159420380Y-110180285D01*
X159420380Y-110180285D02*
X159420380Y-109799333D01*
X159420380Y-109799333D02*
X159468000Y-109704095D01*
X159468000Y-109704095D02*
X159515619Y-109656476D01*
X159515619Y-109656476D02*
X159610857Y-109608857D01*
X159610857Y-109608857D02*
X159753714Y-109608857D01*
X159753714Y-109608857D02*
X159848952Y-109656476D01*
X159848952Y-109656476D02*
X159896571Y-109704095D01*
X159896571Y-109704095D02*
X159944190Y-109799333D01*
X159944190Y-109799333D02*
X159944190Y-110180285D01*
X160420380Y-108656476D02*
X160420380Y-109227904D01*
X160420380Y-108942190D02*
X159420380Y-108942190D01*
X159420380Y-108942190D02*
X159563238Y-109037428D01*
X159563238Y-109037428D02*
X159658476Y-109132666D01*
X159658476Y-109132666D02*
X159706095Y-109227904D01*
X159420380Y-107799333D02*
X159420380Y-107989809D01*
X159420380Y-107989809D02*
X159468000Y-108085047D01*
X159468000Y-108085047D02*
X159515619Y-108132666D01*
X159515619Y-108132666D02*
X159658476Y-108227904D01*
X159658476Y-108227904D02*
X159848952Y-108275523D01*
X159848952Y-108275523D02*
X160229904Y-108275523D01*
X160229904Y-108275523D02*
X160325142Y-108227904D01*
X160325142Y-108227904D02*
X160372761Y-108180285D01*
X160372761Y-108180285D02*
X160420380Y-108085047D01*
X160420380Y-108085047D02*
X160420380Y-107894571D01*
X160420380Y-107894571D02*
X160372761Y-107799333D01*
X160372761Y-107799333D02*
X160325142Y-107751714D01*
X160325142Y-107751714D02*
X160229904Y-107704095D01*
X160229904Y-107704095D02*
X159991809Y-107704095D01*
X159991809Y-107704095D02*
X159896571Y-107751714D01*
X159896571Y-107751714D02*
X159848952Y-107799333D01*
X159848952Y-107799333D02*
X159801333Y-107894571D01*
X159801333Y-107894571D02*
X159801333Y-108085047D01*
X159801333Y-108085047D02*
X159848952Y-108180285D01*
X159848952Y-108180285D02*
X159896571Y-108227904D01*
X159896571Y-108227904D02*
X159991809Y-108275523D01*
%TO.C,Q4*%
X132682619Y-91105738D02*
X132635000Y-91200976D01*
X132635000Y-91200976D02*
X132539761Y-91296214D01*
X132539761Y-91296214D02*
X132396904Y-91439071D01*
X132396904Y-91439071D02*
X132349285Y-91534309D01*
X132349285Y-91534309D02*
X132349285Y-91629547D01*
X132587380Y-91581928D02*
X132539761Y-91677166D01*
X132539761Y-91677166D02*
X132444523Y-91772404D01*
X132444523Y-91772404D02*
X132254047Y-91820023D01*
X132254047Y-91820023D02*
X131920714Y-91820023D01*
X131920714Y-91820023D02*
X131730238Y-91772404D01*
X131730238Y-91772404D02*
X131635000Y-91677166D01*
X131635000Y-91677166D02*
X131587380Y-91581928D01*
X131587380Y-91581928D02*
X131587380Y-91391452D01*
X131587380Y-91391452D02*
X131635000Y-91296214D01*
X131635000Y-91296214D02*
X131730238Y-91200976D01*
X131730238Y-91200976D02*
X131920714Y-91153357D01*
X131920714Y-91153357D02*
X132254047Y-91153357D01*
X132254047Y-91153357D02*
X132444523Y-91200976D01*
X132444523Y-91200976D02*
X132539761Y-91296214D01*
X132539761Y-91296214D02*
X132587380Y-91391452D01*
X132587380Y-91391452D02*
X132587380Y-91581928D01*
X131920714Y-90296214D02*
X132587380Y-90296214D01*
X131539761Y-90534309D02*
X132254047Y-90772404D01*
X132254047Y-90772404D02*
X132254047Y-90153357D01*
%TO.C,R4*%
X154175333Y-75808380D02*
X153842000Y-75332190D01*
X153603905Y-75808380D02*
X153603905Y-74808380D01*
X153603905Y-74808380D02*
X153984857Y-74808380D01*
X153984857Y-74808380D02*
X154080095Y-74856000D01*
X154080095Y-74856000D02*
X154127714Y-74903619D01*
X154127714Y-74903619D02*
X154175333Y-74998857D01*
X154175333Y-74998857D02*
X154175333Y-75141714D01*
X154175333Y-75141714D02*
X154127714Y-75236952D01*
X154127714Y-75236952D02*
X154080095Y-75284571D01*
X154080095Y-75284571D02*
X153984857Y-75332190D01*
X153984857Y-75332190D02*
X153603905Y-75332190D01*
X155032476Y-75141714D02*
X155032476Y-75808380D01*
X154794381Y-74760761D02*
X154556286Y-75475047D01*
X154556286Y-75475047D02*
X155175333Y-75475047D01*
%TO.C,Q3*%
X137762619Y-91105738D02*
X137715000Y-91200976D01*
X137715000Y-91200976D02*
X137619761Y-91296214D01*
X137619761Y-91296214D02*
X137476904Y-91439071D01*
X137476904Y-91439071D02*
X137429285Y-91534309D01*
X137429285Y-91534309D02*
X137429285Y-91629547D01*
X137667380Y-91581928D02*
X137619761Y-91677166D01*
X137619761Y-91677166D02*
X137524523Y-91772404D01*
X137524523Y-91772404D02*
X137334047Y-91820023D01*
X137334047Y-91820023D02*
X137000714Y-91820023D01*
X137000714Y-91820023D02*
X136810238Y-91772404D01*
X136810238Y-91772404D02*
X136715000Y-91677166D01*
X136715000Y-91677166D02*
X136667380Y-91581928D01*
X136667380Y-91581928D02*
X136667380Y-91391452D01*
X136667380Y-91391452D02*
X136715000Y-91296214D01*
X136715000Y-91296214D02*
X136810238Y-91200976D01*
X136810238Y-91200976D02*
X137000714Y-91153357D01*
X137000714Y-91153357D02*
X137334047Y-91153357D01*
X137334047Y-91153357D02*
X137524523Y-91200976D01*
X137524523Y-91200976D02*
X137619761Y-91296214D01*
X137619761Y-91296214D02*
X137667380Y-91391452D01*
X137667380Y-91391452D02*
X137667380Y-91581928D01*
X136667380Y-90820023D02*
X136667380Y-90200976D01*
X136667380Y-90200976D02*
X137048333Y-90534309D01*
X137048333Y-90534309D02*
X137048333Y-90391452D01*
X137048333Y-90391452D02*
X137095952Y-90296214D01*
X137095952Y-90296214D02*
X137143571Y-90248595D01*
X137143571Y-90248595D02*
X137238809Y-90200976D01*
X137238809Y-90200976D02*
X137476904Y-90200976D01*
X137476904Y-90200976D02*
X137572142Y-90248595D01*
X137572142Y-90248595D02*
X137619761Y-90296214D01*
X137619761Y-90296214D02*
X137667380Y-90391452D01*
X137667380Y-90391452D02*
X137667380Y-90677166D01*
X137667380Y-90677166D02*
X137619761Y-90772404D01*
X137619761Y-90772404D02*
X137572142Y-90820023D01*
%TO.C,C2*%
X137501333Y-48246142D02*
X137453714Y-48293761D01*
X137453714Y-48293761D02*
X137310857Y-48341380D01*
X137310857Y-48341380D02*
X137215619Y-48341380D01*
X137215619Y-48341380D02*
X137072762Y-48293761D01*
X137072762Y-48293761D02*
X136977524Y-48198523D01*
X136977524Y-48198523D02*
X136929905Y-48103285D01*
X136929905Y-48103285D02*
X136882286Y-47912809D01*
X136882286Y-47912809D02*
X136882286Y-47769952D01*
X136882286Y-47769952D02*
X136929905Y-47579476D01*
X136929905Y-47579476D02*
X136977524Y-47484238D01*
X136977524Y-47484238D02*
X137072762Y-47389000D01*
X137072762Y-47389000D02*
X137215619Y-47341380D01*
X137215619Y-47341380D02*
X137310857Y-47341380D01*
X137310857Y-47341380D02*
X137453714Y-47389000D01*
X137453714Y-47389000D02*
X137501333Y-47436619D01*
X137882286Y-47436619D02*
X137929905Y-47389000D01*
X137929905Y-47389000D02*
X138025143Y-47341380D01*
X138025143Y-47341380D02*
X138263238Y-47341380D01*
X138263238Y-47341380D02*
X138358476Y-47389000D01*
X138358476Y-47389000D02*
X138406095Y-47436619D01*
X138406095Y-47436619D02*
X138453714Y-47531857D01*
X138453714Y-47531857D02*
X138453714Y-47627095D01*
X138453714Y-47627095D02*
X138406095Y-47769952D01*
X138406095Y-47769952D02*
X137834667Y-48341380D01*
X137834667Y-48341380D02*
X138453714Y-48341380D01*
%TO.C,J9*%
X106346666Y-45595380D02*
X106346666Y-46309666D01*
X106346666Y-46309666D02*
X106299047Y-46452523D01*
X106299047Y-46452523D02*
X106203809Y-46547761D01*
X106203809Y-46547761D02*
X106060952Y-46595380D01*
X106060952Y-46595380D02*
X105965714Y-46595380D01*
X106870476Y-46595380D02*
X107060952Y-46595380D01*
X107060952Y-46595380D02*
X107156190Y-46547761D01*
X107156190Y-46547761D02*
X107203809Y-46500142D01*
X107203809Y-46500142D02*
X107299047Y-46357285D01*
X107299047Y-46357285D02*
X107346666Y-46166809D01*
X107346666Y-46166809D02*
X107346666Y-45785857D01*
X107346666Y-45785857D02*
X107299047Y-45690619D01*
X107299047Y-45690619D02*
X107251428Y-45643000D01*
X107251428Y-45643000D02*
X107156190Y-45595380D01*
X107156190Y-45595380D02*
X106965714Y-45595380D01*
X106965714Y-45595380D02*
X106870476Y-45643000D01*
X106870476Y-45643000D02*
X106822857Y-45690619D01*
X106822857Y-45690619D02*
X106775238Y-45785857D01*
X106775238Y-45785857D02*
X106775238Y-46023952D01*
X106775238Y-46023952D02*
X106822857Y-46119190D01*
X106822857Y-46119190D02*
X106870476Y-46166809D01*
X106870476Y-46166809D02*
X106965714Y-46214428D01*
X106965714Y-46214428D02*
X107156190Y-46214428D01*
X107156190Y-46214428D02*
X107251428Y-46166809D01*
X107251428Y-46166809D02*
X107299047Y-46119190D01*
X107299047Y-46119190D02*
X107346666Y-46023952D01*
%TO.C,J2*%
X98329780Y-81691333D02*
X99044066Y-81691333D01*
X99044066Y-81691333D02*
X99186923Y-81738952D01*
X99186923Y-81738952D02*
X99282161Y-81834190D01*
X99282161Y-81834190D02*
X99329780Y-81977047D01*
X99329780Y-81977047D02*
X99329780Y-82072285D01*
X98425019Y-81262761D02*
X98377400Y-81215142D01*
X98377400Y-81215142D02*
X98329780Y-81119904D01*
X98329780Y-81119904D02*
X98329780Y-80881809D01*
X98329780Y-80881809D02*
X98377400Y-80786571D01*
X98377400Y-80786571D02*
X98425019Y-80738952D01*
X98425019Y-80738952D02*
X98520257Y-80691333D01*
X98520257Y-80691333D02*
X98615495Y-80691333D01*
X98615495Y-80691333D02*
X98758352Y-80738952D01*
X98758352Y-80738952D02*
X99329780Y-81310380D01*
X99329780Y-81310380D02*
X99329780Y-80691333D01*
%TO.C,L1*%
X133877380Y-55538666D02*
X133877380Y-56014856D01*
X133877380Y-56014856D02*
X132877380Y-56014856D01*
X133877380Y-54681523D02*
X133877380Y-55252951D01*
X133877380Y-54967237D02*
X132877380Y-54967237D01*
X132877380Y-54967237D02*
X133020238Y-55062475D01*
X133020238Y-55062475D02*
X133115476Y-55157713D01*
X133115476Y-55157713D02*
X133163095Y-55252951D01*
%TO.C,R1*%
X128357333Y-93074380D02*
X128024000Y-92598190D01*
X127785905Y-93074380D02*
X127785905Y-92074380D01*
X127785905Y-92074380D02*
X128166857Y-92074380D01*
X128166857Y-92074380D02*
X128262095Y-92122000D01*
X128262095Y-92122000D02*
X128309714Y-92169619D01*
X128309714Y-92169619D02*
X128357333Y-92264857D01*
X128357333Y-92264857D02*
X128357333Y-92407714D01*
X128357333Y-92407714D02*
X128309714Y-92502952D01*
X128309714Y-92502952D02*
X128262095Y-92550571D01*
X128262095Y-92550571D02*
X128166857Y-92598190D01*
X128166857Y-92598190D02*
X127785905Y-92598190D01*
X129309714Y-93074380D02*
X128738286Y-93074380D01*
X129024000Y-93074380D02*
X129024000Y-92074380D01*
X129024000Y-92074380D02*
X128928762Y-92217238D01*
X128928762Y-92217238D02*
X128833524Y-92312476D01*
X128833524Y-92312476D02*
X128738286Y-92360095D01*
%TO.C,Q2*%
X157228619Y-77232738D02*
X157181000Y-77327976D01*
X157181000Y-77327976D02*
X157085761Y-77423214D01*
X157085761Y-77423214D02*
X156942904Y-77566071D01*
X156942904Y-77566071D02*
X156895285Y-77661309D01*
X156895285Y-77661309D02*
X156895285Y-77756547D01*
X157133380Y-77708928D02*
X157085761Y-77804166D01*
X157085761Y-77804166D02*
X156990523Y-77899404D01*
X156990523Y-77899404D02*
X156800047Y-77947023D01*
X156800047Y-77947023D02*
X156466714Y-77947023D01*
X156466714Y-77947023D02*
X156276238Y-77899404D01*
X156276238Y-77899404D02*
X156181000Y-77804166D01*
X156181000Y-77804166D02*
X156133380Y-77708928D01*
X156133380Y-77708928D02*
X156133380Y-77518452D01*
X156133380Y-77518452D02*
X156181000Y-77423214D01*
X156181000Y-77423214D02*
X156276238Y-77327976D01*
X156276238Y-77327976D02*
X156466714Y-77280357D01*
X156466714Y-77280357D02*
X156800047Y-77280357D01*
X156800047Y-77280357D02*
X156990523Y-77327976D01*
X156990523Y-77327976D02*
X157085761Y-77423214D01*
X157085761Y-77423214D02*
X157133380Y-77518452D01*
X157133380Y-77518452D02*
X157133380Y-77708928D01*
X156228619Y-76899404D02*
X156181000Y-76851785D01*
X156181000Y-76851785D02*
X156133380Y-76756547D01*
X156133380Y-76756547D02*
X156133380Y-76518452D01*
X156133380Y-76518452D02*
X156181000Y-76423214D01*
X156181000Y-76423214D02*
X156228619Y-76375595D01*
X156228619Y-76375595D02*
X156323857Y-76327976D01*
X156323857Y-76327976D02*
X156419095Y-76327976D01*
X156419095Y-76327976D02*
X156561952Y-76375595D01*
X156561952Y-76375595D02*
X157133380Y-76947023D01*
X157133380Y-76947023D02*
X157133380Y-76327976D01*
%TO.C,Q5*%
X115728761Y-74998619D02*
X115633523Y-74951000D01*
X115633523Y-74951000D02*
X115538285Y-74855761D01*
X115538285Y-74855761D02*
X115395428Y-74712904D01*
X115395428Y-74712904D02*
X115300190Y-74665285D01*
X115300190Y-74665285D02*
X115204952Y-74665285D01*
X115252571Y-74903380D02*
X115157333Y-74855761D01*
X115157333Y-74855761D02*
X115062095Y-74760523D01*
X115062095Y-74760523D02*
X115014476Y-74570047D01*
X115014476Y-74570047D02*
X115014476Y-74236714D01*
X115014476Y-74236714D02*
X115062095Y-74046238D01*
X115062095Y-74046238D02*
X115157333Y-73951000D01*
X115157333Y-73951000D02*
X115252571Y-73903380D01*
X115252571Y-73903380D02*
X115443047Y-73903380D01*
X115443047Y-73903380D02*
X115538285Y-73951000D01*
X115538285Y-73951000D02*
X115633523Y-74046238D01*
X115633523Y-74046238D02*
X115681142Y-74236714D01*
X115681142Y-74236714D02*
X115681142Y-74570047D01*
X115681142Y-74570047D02*
X115633523Y-74760523D01*
X115633523Y-74760523D02*
X115538285Y-74855761D01*
X115538285Y-74855761D02*
X115443047Y-74903380D01*
X115443047Y-74903380D02*
X115252571Y-74903380D01*
X116585904Y-73903380D02*
X116109714Y-73903380D01*
X116109714Y-73903380D02*
X116062095Y-74379571D01*
X116062095Y-74379571D02*
X116109714Y-74331952D01*
X116109714Y-74331952D02*
X116204952Y-74284333D01*
X116204952Y-74284333D02*
X116443047Y-74284333D01*
X116443047Y-74284333D02*
X116538285Y-74331952D01*
X116538285Y-74331952D02*
X116585904Y-74379571D01*
X116585904Y-74379571D02*
X116633523Y-74474809D01*
X116633523Y-74474809D02*
X116633523Y-74712904D01*
X116633523Y-74712904D02*
X116585904Y-74808142D01*
X116585904Y-74808142D02*
X116538285Y-74855761D01*
X116538285Y-74855761D02*
X116443047Y-74903380D01*
X116443047Y-74903380D02*
X116204952Y-74903380D01*
X116204952Y-74903380D02*
X116109714Y-74855761D01*
X116109714Y-74855761D02*
X116062095Y-74808142D01*
%TO.C,Q1*%
X127602619Y-91105738D02*
X127555000Y-91200976D01*
X127555000Y-91200976D02*
X127459761Y-91296214D01*
X127459761Y-91296214D02*
X127316904Y-91439071D01*
X127316904Y-91439071D02*
X127269285Y-91534309D01*
X127269285Y-91534309D02*
X127269285Y-91629547D01*
X127507380Y-91581928D02*
X127459761Y-91677166D01*
X127459761Y-91677166D02*
X127364523Y-91772404D01*
X127364523Y-91772404D02*
X127174047Y-91820023D01*
X127174047Y-91820023D02*
X126840714Y-91820023D01*
X126840714Y-91820023D02*
X126650238Y-91772404D01*
X126650238Y-91772404D02*
X126555000Y-91677166D01*
X126555000Y-91677166D02*
X126507380Y-91581928D01*
X126507380Y-91581928D02*
X126507380Y-91391452D01*
X126507380Y-91391452D02*
X126555000Y-91296214D01*
X126555000Y-91296214D02*
X126650238Y-91200976D01*
X126650238Y-91200976D02*
X126840714Y-91153357D01*
X126840714Y-91153357D02*
X127174047Y-91153357D01*
X127174047Y-91153357D02*
X127364523Y-91200976D01*
X127364523Y-91200976D02*
X127459761Y-91296214D01*
X127459761Y-91296214D02*
X127507380Y-91391452D01*
X127507380Y-91391452D02*
X127507380Y-91581928D01*
X127507380Y-90200976D02*
X127507380Y-90772404D01*
X127507380Y-90486690D02*
X126507380Y-90486690D01*
X126507380Y-90486690D02*
X126650238Y-90581928D01*
X126650238Y-90581928D02*
X126745476Y-90677166D01*
X126745476Y-90677166D02*
X126793095Y-90772404D01*
%TO.C,R2*%
X139533333Y-93074380D02*
X139200000Y-92598190D01*
X138961905Y-93074380D02*
X138961905Y-92074380D01*
X138961905Y-92074380D02*
X139342857Y-92074380D01*
X139342857Y-92074380D02*
X139438095Y-92122000D01*
X139438095Y-92122000D02*
X139485714Y-92169619D01*
X139485714Y-92169619D02*
X139533333Y-92264857D01*
X139533333Y-92264857D02*
X139533333Y-92407714D01*
X139533333Y-92407714D02*
X139485714Y-92502952D01*
X139485714Y-92502952D02*
X139438095Y-92550571D01*
X139438095Y-92550571D02*
X139342857Y-92598190D01*
X139342857Y-92598190D02*
X138961905Y-92598190D01*
X139914286Y-92169619D02*
X139961905Y-92122000D01*
X139961905Y-92122000D02*
X140057143Y-92074380D01*
X140057143Y-92074380D02*
X140295238Y-92074380D01*
X140295238Y-92074380D02*
X140390476Y-92122000D01*
X140390476Y-92122000D02*
X140438095Y-92169619D01*
X140438095Y-92169619D02*
X140485714Y-92264857D01*
X140485714Y-92264857D02*
X140485714Y-92360095D01*
X140485714Y-92360095D02*
X140438095Y-92502952D01*
X140438095Y-92502952D02*
X139866667Y-93074380D01*
X139866667Y-93074380D02*
X140485714Y-93074380D01*
%TO.C,R7*%
X164672380Y-109005666D02*
X164196190Y-109338999D01*
X164672380Y-109577094D02*
X163672380Y-109577094D01*
X163672380Y-109577094D02*
X163672380Y-109196142D01*
X163672380Y-109196142D02*
X163720000Y-109100904D01*
X163720000Y-109100904D02*
X163767619Y-109053285D01*
X163767619Y-109053285D02*
X163862857Y-109005666D01*
X163862857Y-109005666D02*
X164005714Y-109005666D01*
X164005714Y-109005666D02*
X164100952Y-109053285D01*
X164100952Y-109053285D02*
X164148571Y-109100904D01*
X164148571Y-109100904D02*
X164196190Y-109196142D01*
X164196190Y-109196142D02*
X164196190Y-109577094D01*
X163672380Y-108672332D02*
X163672380Y-108005666D01*
X163672380Y-108005666D02*
X164672380Y-108434237D01*
%TO.C,R5*%
X134453333Y-93074380D02*
X134120000Y-92598190D01*
X133881905Y-93074380D02*
X133881905Y-92074380D01*
X133881905Y-92074380D02*
X134262857Y-92074380D01*
X134262857Y-92074380D02*
X134358095Y-92122000D01*
X134358095Y-92122000D02*
X134405714Y-92169619D01*
X134405714Y-92169619D02*
X134453333Y-92264857D01*
X134453333Y-92264857D02*
X134453333Y-92407714D01*
X134453333Y-92407714D02*
X134405714Y-92502952D01*
X134405714Y-92502952D02*
X134358095Y-92550571D01*
X134358095Y-92550571D02*
X134262857Y-92598190D01*
X134262857Y-92598190D02*
X133881905Y-92598190D01*
X135358095Y-92074380D02*
X134881905Y-92074380D01*
X134881905Y-92074380D02*
X134834286Y-92550571D01*
X134834286Y-92550571D02*
X134881905Y-92502952D01*
X134881905Y-92502952D02*
X134977143Y-92455333D01*
X134977143Y-92455333D02*
X135215238Y-92455333D01*
X135215238Y-92455333D02*
X135310476Y-92502952D01*
X135310476Y-92502952D02*
X135358095Y-92550571D01*
X135358095Y-92550571D02*
X135405714Y-92645809D01*
X135405714Y-92645809D02*
X135405714Y-92883904D01*
X135405714Y-92883904D02*
X135358095Y-92979142D01*
X135358095Y-92979142D02*
X135310476Y-93026761D01*
X135310476Y-93026761D02*
X135215238Y-93074380D01*
X135215238Y-93074380D02*
X134977143Y-93074380D01*
X134977143Y-93074380D02*
X134881905Y-93026761D01*
X134881905Y-93026761D02*
X134834286Y-92979142D01*
%TO.C,Q6*%
X162259261Y-106962619D02*
X162164023Y-106915000D01*
X162164023Y-106915000D02*
X162068785Y-106819761D01*
X162068785Y-106819761D02*
X161925928Y-106676904D01*
X161925928Y-106676904D02*
X161830690Y-106629285D01*
X161830690Y-106629285D02*
X161735452Y-106629285D01*
X161783071Y-106867380D02*
X161687833Y-106819761D01*
X161687833Y-106819761D02*
X161592595Y-106724523D01*
X161592595Y-106724523D02*
X161544976Y-106534047D01*
X161544976Y-106534047D02*
X161544976Y-106200714D01*
X161544976Y-106200714D02*
X161592595Y-106010238D01*
X161592595Y-106010238D02*
X161687833Y-105915000D01*
X161687833Y-105915000D02*
X161783071Y-105867380D01*
X161783071Y-105867380D02*
X161973547Y-105867380D01*
X161973547Y-105867380D02*
X162068785Y-105915000D01*
X162068785Y-105915000D02*
X162164023Y-106010238D01*
X162164023Y-106010238D02*
X162211642Y-106200714D01*
X162211642Y-106200714D02*
X162211642Y-106534047D01*
X162211642Y-106534047D02*
X162164023Y-106724523D01*
X162164023Y-106724523D02*
X162068785Y-106819761D01*
X162068785Y-106819761D02*
X161973547Y-106867380D01*
X161973547Y-106867380D02*
X161783071Y-106867380D01*
X163068785Y-105867380D02*
X162878309Y-105867380D01*
X162878309Y-105867380D02*
X162783071Y-105915000D01*
X162783071Y-105915000D02*
X162735452Y-105962619D01*
X162735452Y-105962619D02*
X162640214Y-106105476D01*
X162640214Y-106105476D02*
X162592595Y-106295952D01*
X162592595Y-106295952D02*
X162592595Y-106676904D01*
X162592595Y-106676904D02*
X162640214Y-106772142D01*
X162640214Y-106772142D02*
X162687833Y-106819761D01*
X162687833Y-106819761D02*
X162783071Y-106867380D01*
X162783071Y-106867380D02*
X162973547Y-106867380D01*
X162973547Y-106867380D02*
X163068785Y-106819761D01*
X163068785Y-106819761D02*
X163116404Y-106772142D01*
X163116404Y-106772142D02*
X163164023Y-106676904D01*
X163164023Y-106676904D02*
X163164023Y-106438809D01*
X163164023Y-106438809D02*
X163116404Y-106343571D01*
X163116404Y-106343571D02*
X163068785Y-106295952D01*
X163068785Y-106295952D02*
X162973547Y-106248333D01*
X162973547Y-106248333D02*
X162783071Y-106248333D01*
X162783071Y-106248333D02*
X162687833Y-106295952D01*
X162687833Y-106295952D02*
X162640214Y-106343571D01*
X162640214Y-106343571D02*
X162592595Y-106438809D01*
%TO.C,R3*%
X117730880Y-72236666D02*
X117254690Y-72569999D01*
X117730880Y-72808094D02*
X116730880Y-72808094D01*
X116730880Y-72808094D02*
X116730880Y-72427142D01*
X116730880Y-72427142D02*
X116778500Y-72331904D01*
X116778500Y-72331904D02*
X116826119Y-72284285D01*
X116826119Y-72284285D02*
X116921357Y-72236666D01*
X116921357Y-72236666D02*
X117064214Y-72236666D01*
X117064214Y-72236666D02*
X117159452Y-72284285D01*
X117159452Y-72284285D02*
X117207071Y-72331904D01*
X117207071Y-72331904D02*
X117254690Y-72427142D01*
X117254690Y-72427142D02*
X117254690Y-72808094D01*
X116730880Y-71903332D02*
X116730880Y-71284285D01*
X116730880Y-71284285D02*
X117111833Y-71617618D01*
X117111833Y-71617618D02*
X117111833Y-71474761D01*
X117111833Y-71474761D02*
X117159452Y-71379523D01*
X117159452Y-71379523D02*
X117207071Y-71331904D01*
X117207071Y-71331904D02*
X117302309Y-71284285D01*
X117302309Y-71284285D02*
X117540404Y-71284285D01*
X117540404Y-71284285D02*
X117635642Y-71331904D01*
X117635642Y-71331904D02*
X117683261Y-71379523D01*
X117683261Y-71379523D02*
X117730880Y-71474761D01*
X117730880Y-71474761D02*
X117730880Y-71760475D01*
X117730880Y-71760475D02*
X117683261Y-71855713D01*
X117683261Y-71855713D02*
X117635642Y-71903332D01*
D13*
%TO.C,U3*%
X150882000Y-69521000D02*
X150882000Y-120471000D01*
X150882000Y-69521000D02*
X150882000Y-120471000D01*
X145432000Y-120471000D02*
X150882000Y-120471000D01*
D14*
X145415000Y-125984000D02*
X145415000Y-120471000D01*
D13*
X140152000Y-73411000D02*
X138755000Y-73411000D01*
X138247000Y-73411000D02*
X138247000Y-73411000D01*
X137739000Y-73411000D02*
X137739000Y-73411000D01*
X137231000Y-73411000D02*
X135834000Y-73411000D01*
X135326000Y-73411000D02*
X135326000Y-73411000D01*
X134818000Y-73411000D02*
X134818000Y-73411000D01*
X134310000Y-73411000D02*
X133441000Y-73411000D01*
X140152000Y-69521000D02*
X150882000Y-69521000D01*
X140152000Y-69521000D02*
X140152000Y-70918000D01*
X140152000Y-71426000D02*
X140152000Y-71426000D01*
X140152000Y-71934000D02*
X140152000Y-71934000D01*
X140152000Y-72442000D02*
X140152000Y-73411000D01*
X133441000Y-73411000D02*
X133441000Y-72014000D01*
X133441000Y-71506000D02*
X133441000Y-71506000D01*
X133441000Y-70998000D02*
X133441000Y-70998000D01*
X133441000Y-70490000D02*
X133441000Y-69521000D01*
X133441000Y-69521000D02*
X140152000Y-69521000D01*
D14*
X127742000Y-125984000D02*
X145415000Y-125984000D01*
X127742000Y-120471000D02*
X127742000Y-125984000D01*
X124460000Y-70866000D02*
X122682000Y-70866000D01*
X122682000Y-72644000D02*
X122682000Y-70866000D01*
D13*
X122372000Y-120471000D02*
X127742000Y-120471000D01*
X122372000Y-120471000D02*
X122372000Y-69521000D01*
X122372000Y-120471000D02*
X122372000Y-69521000D01*
X122372000Y-69521000D02*
X150882000Y-69521000D01*
X122372000Y-69521000D02*
X133441000Y-69521000D01*
D14*
%TO.C,R16*%
X159145500Y-108711276D02*
X159145500Y-109220724D01*
X158100500Y-108711276D02*
X158100500Y-109220724D01*
%TO.C,Q4*%
X133060000Y-91010500D02*
X133060000Y-92685500D01*
X133060000Y-91010500D02*
X133060000Y-90360500D01*
X136180000Y-91010500D02*
X136180000Y-91660500D01*
X136180000Y-91010500D02*
X136180000Y-90360500D01*
%TO.C,R4*%
X154596724Y-74533500D02*
X154087276Y-74533500D01*
X154596724Y-73488500D02*
X154087276Y-73488500D01*
%TO.C,J1*%
X174492000Y-72508000D02*
X173222000Y-72508000D01*
X174492000Y-72508000D02*
X174492000Y-73778000D01*
X173222000Y-72508000D02*
X174492000Y-72508000D01*
X174492000Y-73778000D02*
X173222000Y-72508000D01*
D15*
X175000000Y-72000000D02*
X157100000Y-72000000D01*
X157100000Y-72000000D02*
X157100000Y-87200000D01*
X157100000Y-87200000D02*
X175000000Y-87200000D01*
X175000000Y-87200000D02*
X175000000Y-72000000D01*
D14*
%TO.C,J6*%
X174492000Y-88508000D02*
X173222000Y-88508000D01*
X174492000Y-88508000D02*
X174492000Y-89778000D01*
X173222000Y-88508000D02*
X174492000Y-88508000D01*
X174492000Y-89778000D02*
X173222000Y-88508000D01*
D15*
X175000000Y-88000000D02*
X157100000Y-88000000D01*
X157100000Y-88000000D02*
X157100000Y-103200000D01*
X157100000Y-103200000D02*
X175000000Y-103200000D01*
X175000000Y-103200000D02*
X175000000Y-88000000D01*
D14*
%TO.C,Q3*%
X138140000Y-91010500D02*
X138140000Y-92685500D01*
X138140000Y-91010500D02*
X138140000Y-90360500D01*
X141260000Y-91010500D02*
X141260000Y-91660500D01*
X141260000Y-91010500D02*
X141260000Y-90360500D01*
%TO.C,C2*%
X134258000Y-49978437D02*
X134258000Y-51264000D01*
X134258000Y-49978437D02*
X135322437Y-48914000D01*
X134258000Y-54669563D02*
X134258000Y-53384000D01*
X134258000Y-54669563D02*
X135322437Y-55734000D01*
X135322437Y-48914000D02*
X141078000Y-48914000D01*
X135322437Y-55734000D02*
X141078000Y-55734000D01*
X141078000Y-48914000D02*
X141078000Y-51264000D01*
X141078000Y-55734000D02*
X141078000Y-53384000D01*
%TO.C,J4*%
X95508000Y-119492000D02*
X96778000Y-119492000D01*
X95508000Y-119492000D02*
X95508000Y-118222000D01*
X96778000Y-119492000D02*
X95508000Y-119492000D01*
X95508000Y-118222000D02*
X96778000Y-119492000D01*
D15*
X95000000Y-120000000D02*
X112900000Y-120000000D01*
X112900000Y-120000000D02*
X112900000Y-104800000D01*
X112900000Y-104800000D02*
X95000000Y-104800000D01*
X95000000Y-104800000D02*
X95000000Y-120000000D01*
D14*
%TO.C,J9*%
X114836000Y-45032000D02*
X114836000Y-59732000D01*
X105636000Y-45032000D02*
X114836000Y-45032000D01*
X105636000Y-53832000D02*
X105636000Y-45032000D01*
X115036000Y-58882000D02*
X115036000Y-59932000D01*
X114836000Y-59732000D02*
X112236000Y-59732000D01*
X108336000Y-59732000D02*
X105636000Y-59732000D01*
X105636000Y-59732000D02*
X105636000Y-57832000D01*
X113986000Y-59932000D02*
X115036000Y-59932000D01*
%TO.C,J2*%
X95508000Y-86692000D02*
X96778000Y-86692000D01*
X95508000Y-86692000D02*
X95508000Y-85422000D01*
X96778000Y-86692000D02*
X95508000Y-86692000D01*
X95508000Y-85422000D02*
X96778000Y-86692000D01*
D15*
X95000000Y-87200000D02*
X112900000Y-87200000D01*
X112900000Y-87200000D02*
X112900000Y-72000000D01*
X112900000Y-72000000D02*
X95000000Y-72000000D01*
X95000000Y-72000000D02*
X95000000Y-87200000D01*
D14*
%TO.C,L1*%
X132590000Y-55209221D02*
X132590000Y-55534779D01*
X131570000Y-55209221D02*
X131570000Y-55534779D01*
%TO.C,C1*%
X118558437Y-55226000D02*
X119844000Y-55226000D01*
X118558437Y-55226000D02*
X117494000Y-54161563D01*
X123249563Y-55226000D02*
X121964000Y-55226000D01*
X123249563Y-55226000D02*
X124314000Y-54161563D01*
X117494000Y-54161563D02*
X117494000Y-48406000D01*
X124314000Y-54161563D02*
X124314000Y-48406000D01*
X117494000Y-48406000D02*
X119844000Y-48406000D01*
X124314000Y-48406000D02*
X121964000Y-48406000D01*
%TO.C,R1*%
X129285276Y-93614500D02*
X129794724Y-93614500D01*
X129285276Y-94659500D02*
X129794724Y-94659500D01*
%TO.C,Q2*%
X155926000Y-77137500D02*
X155926000Y-75462500D01*
X155926000Y-77137500D02*
X155926000Y-77787500D01*
X152806000Y-77137500D02*
X152806000Y-76487500D01*
X152806000Y-77137500D02*
X152806000Y-77787500D01*
%TO.C,Q5*%
X115824000Y-73696000D02*
X117499000Y-73696000D01*
X115824000Y-73696000D02*
X115174000Y-73696000D01*
X115824000Y-70576000D02*
X116474000Y-70576000D01*
X115824000Y-70576000D02*
X115174000Y-70576000D01*
%TO.C,U2*%
X125299000Y-52834500D02*
X125299000Y-56359500D01*
X125299000Y-52834500D02*
X125299000Y-50954500D01*
X130479000Y-52834500D02*
X130479000Y-54714500D01*
X130479000Y-52834500D02*
X130479000Y-50954500D01*
%TO.C,Q1*%
X127980000Y-91010500D02*
X127980000Y-92685500D01*
X127980000Y-91010500D02*
X127980000Y-90360500D01*
X131100000Y-91010500D02*
X131100000Y-91660500D01*
X131100000Y-91010500D02*
X131100000Y-90360500D01*
%TO.C,R2*%
X139445276Y-93614500D02*
X139954724Y-93614500D01*
X139445276Y-94659500D02*
X139954724Y-94659500D01*
%TO.C,J5*%
X95508000Y-102692000D02*
X96778000Y-102692000D01*
X95508000Y-102692000D02*
X95508000Y-101422000D01*
X96778000Y-102692000D02*
X95508000Y-102692000D01*
X95508000Y-101422000D02*
X96778000Y-102692000D01*
D15*
X95000000Y-103200000D02*
X112900000Y-103200000D01*
X112900000Y-103200000D02*
X112900000Y-88000000D01*
X112900000Y-88000000D02*
X95000000Y-88000000D01*
X95000000Y-88000000D02*
X95000000Y-103200000D01*
D14*
%TO.C,R7*%
X165212500Y-109093724D02*
X165212500Y-108584276D01*
X166257500Y-109093724D02*
X166257500Y-108584276D01*
%TO.C,R5*%
X134365276Y-93614500D02*
X134874724Y-93614500D01*
X134365276Y-94659500D02*
X134874724Y-94659500D01*
%TO.C,Q6*%
X162354500Y-107340000D02*
X160679500Y-107340000D01*
X162354500Y-107340000D02*
X163004500Y-107340000D01*
X162354500Y-110460000D02*
X161704500Y-110460000D01*
X162354500Y-110460000D02*
X163004500Y-110460000D01*
%TO.C,R3*%
X118271000Y-72324724D02*
X118271000Y-71815276D01*
X119316000Y-72324724D02*
X119316000Y-71815276D01*
%TD*%
M02*
