M48
; DRILL file {KiCad 7.0.2} date Wed Jul 19 17:03:33 2023
; FORMAT={-:-/ absolute / inch / decimal}
; #@! TF.CreationDate,2023-07-19T17:03:33-04:00
; #@! TF.GenerationSoftware,Kicad,Pcbnew,7.0.2
; #@! TF.FileFunction,Plated,1,2,PTH
FMAT,2
INCH
; #@! TA.AperFunction,Plated,PTH,ViaDrill
T1C0.0157
; #@! TA.AperFunction,Plated,PTH,ComponentDrill
T2C0.0300
; #@! TA.AperFunction,Plated,PTH,ComponentDrill
T3C0.0394
; #@! TA.AperFunction,Plated,PTH,ComponentDrill
T4C0.0402
%
G90
G05
T1
X3.83Y-3.055
X3.878Y-3.886
X3.96Y-2.496
X3.985Y-3.02
X4.02Y-2.174
X4.08Y-1.82
X4.128Y-2.524
X4.184Y-4.17
X4.192Y-3.542
X4.198Y-1.88
X4.202Y-2.906
X4.248Y-2.3
X4.284Y-4.788
X4.32Y-4.904
X4.354Y-4.102
X4.398Y-2.873
X4.4439Y-3.3351
X4.454Y-1.868
X4.46Y-2.31
X4.474Y-3.466
X4.4831Y-3.0538
X4.518Y-3.952
X4.535Y-3.211
X4.544Y-4.362
X4.564Y-2.47
X4.578Y-5.196
X4.604Y-2.937
X4.616Y-3.258
X4.65Y-3.738
X4.66Y-4.232
X4.664Y-4.396
X4.682Y-2.919
X4.694Y-3.896
X4.716Y-2.685
X4.718Y-3.49
X4.724Y-4.288
X4.725Y-3.81
X4.73Y-3.586
X4.748Y-4.056
X4.778Y-2.468
X4.902Y-1.812
X4.983Y-1.923
X5.006Y-3.174
X5.014Y-2.962
X5.0374Y-2.6585
X5.1Y-2.92
X5.102Y-5.208
X5.126Y-2.625
X5.138Y-2.494
X5.152Y-3.98
X5.175Y-1.853
X5.18Y-3.49
X5.18Y-4.218
X5.195Y-2.009
X5.196Y-3.22
X5.205Y-2.083
X5.232Y-3.082
X5.234Y-4.38
X5.27Y-1.81
X5.272Y-4.054
X5.308Y-2.486
X5.32Y-3.48
X5.364Y-4.37
X5.396Y-3.056
X5.422Y-4.244
X5.542Y-5.168
X5.662Y-1.932
X5.676Y-4.37
X5.694Y-2.97
X5.704Y-3.24
X5.71Y-2.1935
X5.714Y-3.678
X5.908Y-1.824
X5.984Y-3.492
X6.018Y-3.798
X6.03Y-4.622
X6.044Y-2.531
X6.073Y-2.998
X6.078Y-3.954
X6.09Y-5.16
X6.091Y-2.827
X6.15Y-3.74
X6.158Y-3.338
X6.168Y-3.292
X6.182Y-2.32
X6.196Y-1.974
X6.218Y-3.314
X6.248Y-2.768
X6.295Y-3.86
X6.296Y-4.912
X6.32Y-2.796
X6.328Y-2.93
X6.35Y-2.68
X6.366Y-2.186
X6.384Y-4.074
X6.388Y-3.5
X6.476Y-2.658
X6.478Y-3.404
X6.48Y-1.83
X6.49Y-4.662
X6.494Y-2.142
X6.525Y-2.915
X6.541Y-2.322
X6.585Y-4.134
X6.59Y-2.78
X6.656Y-2.436
X6.744Y-3.232
X6.787Y-4.756
X6.814Y-3.711
X6.84Y-3.042
T2
X4.1043Y-2.9589
X4.1043Y-3.0589
X4.1043Y-3.1589
X4.1043Y-3.2589
X4.1043Y-3.5888
X4.1043Y-3.6888
X4.1043Y-3.7888
X4.1043Y-3.8888
X4.1043Y-4.2502
X4.1043Y-4.3502
X4.1043Y-4.4502
X4.1043Y-4.5502
X4.2043Y-3.0089
X4.2043Y-3.1089
X4.2043Y-3.2089
X4.2043Y-3.3089
X4.2043Y-3.6388
X4.2043Y-3.7388
X4.2043Y-3.8388
X4.2043Y-3.9388
X4.2043Y-4.3002
X4.2043Y-4.4002
X4.2043Y-4.5002
X4.2043Y-4.6002
X6.4256Y-2.9589
X6.4256Y-3.0589
X6.4256Y-3.1589
X6.4256Y-3.2589
X6.4256Y-3.5888
X6.4256Y-3.6888
X6.4256Y-3.7888
X6.4256Y-3.8888
X6.5256Y-3.0089
X6.5256Y-3.1089
X6.5256Y-3.2089
X6.5256Y-3.3089
X6.5256Y-3.6388
X6.5256Y-3.7388
X6.5256Y-3.8388
X6.5256Y-3.9388
T3
X4.362Y-2.38
X4.75Y-2.31
X6.068Y-2.25
X6.098Y-2.086
T4
X4.88Y-2.84
X4.88Y-2.94
X4.88Y-3.04
X4.88Y-3.14
X4.88Y-3.24
X4.88Y-3.34
X4.88Y-3.44
X4.88Y-3.54
X4.88Y-3.64
X4.88Y-3.74
X4.88Y-3.84
X4.88Y-3.94
X4.88Y-4.04
X4.88Y-4.14
X4.88Y-4.24
X4.88Y-4.34
X4.88Y-4.44
X4.88Y-4.54
X4.88Y-4.64
X5.88Y-2.84
X5.88Y-2.94
X5.88Y-3.04
X5.88Y-3.14
X5.88Y-3.24
X5.88Y-3.34
X5.88Y-3.44
X5.88Y-3.54
X5.88Y-3.64
X5.88Y-3.74
X5.88Y-3.84
X5.88Y-3.94
X5.88Y-4.04
X5.88Y-4.14
X5.88Y-4.24
X5.88Y-4.34
X5.88Y-4.44
X5.88Y-4.54
X5.88Y-4.64
T3
G00X4.407Y-1.9665
M15
G01X4.407Y-2.0453
M16
G05
G00X4.6314Y-1.8878
M15
G01X4.5526Y-1.8878
M16
G05
G00X4.6314Y-2.124
M15
G01X4.5526Y-2.124
M16
G05
T0
M30
