%TF.GenerationSoftware,KiCad,Pcbnew,(7.0.0)*%
%TF.CreationDate,2023-04-04T20:57:09-04:00*%
%TF.ProjectId,ArenaController,4172656e-6143-46f6-9e74-726f6c6c6572,v0.4*%
%TF.SameCoordinates,Original*%
%TF.FileFunction,Paste,Top*%
%TF.FilePolarity,Positive*%
%FSLAX46Y46*%
G04 Gerber Fmt 4.6, Leading zero omitted, Abs format (unit mm)*
G04 Created by KiCad (PCBNEW (7.0.0)) date 2023-04-04 20:57:09*
%MOMM*%
%LPD*%
G01*
G04 APERTURE LIST*
G04 Aperture macros list*
%AMRoundRect*
0 Rectangle with rounded corners*
0 $1 Rounding radius*
0 $2 $3 $4 $5 $6 $7 $8 $9 X,Y pos of 4 corners*
0 Add a 4 corners polygon primitive as box body*
4,1,4,$2,$3,$4,$5,$6,$7,$8,$9,$2,$3,0*
0 Add four circle primitives for the rounded corners*
1,1,$1+$1,$2,$3*
1,1,$1+$1,$4,$5*
1,1,$1+$1,$6,$7*
1,1,$1+$1,$8,$9*
0 Add four rect primitives between the rounded corners*
20,1,$1+$1,$2,$3,$4,$5,0*
20,1,$1+$1,$4,$5,$6,$7,0*
20,1,$1+$1,$6,$7,$8,$9,0*
20,1,$1+$1,$8,$9,$2,$3,0*%
G04 Aperture macros list end*
%ADD10RoundRect,0.237500X-0.237500X0.250000X-0.237500X-0.250000X0.237500X-0.250000X0.237500X0.250000X0*%
%ADD11RoundRect,0.150000X0.150000X-0.587500X0.150000X0.587500X-0.150000X0.587500X-0.150000X-0.587500X0*%
%ADD12RoundRect,0.237500X0.250000X0.237500X-0.250000X0.237500X-0.250000X-0.237500X0.250000X-0.237500X0*%
%ADD13RoundRect,0.250000X1.412500X0.550000X-1.412500X0.550000X-1.412500X-0.550000X1.412500X-0.550000X0*%
%ADD14RoundRect,0.218750X-0.256250X0.218750X-0.256250X-0.218750X0.256250X-0.218750X0.256250X0.218750X0*%
%ADD15RoundRect,0.250000X-0.550000X1.412500X-0.550000X-1.412500X0.550000X-1.412500X0.550000X1.412500X0*%
%ADD16RoundRect,0.237500X-0.250000X-0.237500X0.250000X-0.237500X0.250000X0.237500X-0.250000X0.237500X0*%
%ADD17RoundRect,0.150000X-0.150000X0.587500X-0.150000X-0.587500X0.150000X-0.587500X0.150000X0.587500X0*%
%ADD18RoundRect,0.150000X0.587500X0.150000X-0.587500X0.150000X-0.587500X-0.150000X0.587500X-0.150000X0*%
%ADD19RoundRect,0.162500X0.162500X-0.825000X0.162500X0.825000X-0.162500X0.825000X-0.162500X-0.825000X0*%
%ADD20RoundRect,0.237500X0.237500X-0.250000X0.237500X0.250000X-0.237500X0.250000X-0.237500X-0.250000X0*%
%ADD21RoundRect,0.150000X-0.587500X-0.150000X0.587500X-0.150000X0.587500X0.150000X-0.587500X0.150000X0*%
G04 APERTURE END LIST*
D10*
%TO.C,R16*%
X148082000Y-48363500D03*
X148082000Y-50188500D03*
%TD*%
D11*
%TO.C,Q4*%
X133670000Y-91948000D03*
X135570000Y-91948000D03*
X134620000Y-90073000D03*
%TD*%
D12*
%TO.C,R4*%
X155254500Y-74011000D03*
X153429500Y-74011000D03*
%TD*%
D11*
%TO.C,Q3*%
X138750000Y-91948000D03*
X140650000Y-91948000D03*
X139700000Y-90073000D03*
%TD*%
D13*
%TO.C,C2*%
X140205500Y-52324000D03*
X135130500Y-52324000D03*
%TD*%
D14*
%TO.C,L1*%
X132080000Y-54584500D03*
X132080000Y-56159500D03*
%TD*%
D15*
%TO.C,C1*%
X120904000Y-49278500D03*
X120904000Y-54353500D03*
%TD*%
D16*
%TO.C,R1*%
X128627500Y-94137000D03*
X130452500Y-94137000D03*
%TD*%
D17*
%TO.C,Q2*%
X155316000Y-76200000D03*
X153416000Y-76200000D03*
X154366000Y-78075000D03*
%TD*%
D18*
%TO.C,Q5*%
X116761500Y-73086000D03*
X116761500Y-71186000D03*
X114886500Y-72136000D03*
%TD*%
D19*
%TO.C,U2*%
X125984000Y-55372000D03*
X127254000Y-55372000D03*
X128524000Y-55372000D03*
X129794000Y-55372000D03*
X129794000Y-50297000D03*
X128524000Y-50297000D03*
X127254000Y-50297000D03*
X125984000Y-50297000D03*
%TD*%
D11*
%TO.C,Q1*%
X128590000Y-91948000D03*
X130490000Y-91948000D03*
X129540000Y-90073000D03*
%TD*%
D16*
%TO.C,R2*%
X138787500Y-94137000D03*
X140612500Y-94137000D03*
%TD*%
D20*
%TO.C,R7*%
X156210000Y-51609000D03*
X156210000Y-49784000D03*
%TD*%
D16*
%TO.C,R5*%
X133707500Y-94137000D03*
X135532500Y-94137000D03*
%TD*%
D21*
%TO.C,Q6*%
X151795000Y-49746500D03*
X151795000Y-51646500D03*
X153670000Y-50696500D03*
%TD*%
D20*
%TO.C,R3*%
X118793500Y-72982500D03*
X118793500Y-71157500D03*
%TD*%
M02*
