%TF.GenerationSoftware,KiCad,Pcbnew,7.0.2*%
%TF.CreationDate,2023-07-19T17:03:31-04:00*%
%TF.ProjectId,ArenaController,4172656e-6143-46f6-9e74-726f6c6c6572,v0.6*%
%TF.SameCoordinates,Original*%
%TF.FileFunction,Soldermask,Top*%
%TF.FilePolarity,Negative*%
%FSLAX46Y46*%
G04 Gerber Fmt 4.6, Leading zero omitted, Abs format (unit mm)*
G04 Created by KiCad (PCBNEW 7.0.2) date 2023-07-19 17:03:31*
%MOMM*%
%LPD*%
G01*
G04 APERTURE LIST*
G04 Aperture macros list*
%AMRoundRect*
0 Rectangle with rounded corners*
0 $1 Rounding radius*
0 $2 $3 $4 $5 $6 $7 $8 $9 X,Y pos of 4 corners*
0 Add a 4 corners polygon primitive as box body*
4,1,4,$2,$3,$4,$5,$6,$7,$8,$9,$2,$3,0*
0 Add four circle primitives for the rounded corners*
1,1,$1+$1,$2,$3*
1,1,$1+$1,$4,$5*
1,1,$1+$1,$6,$7*
1,1,$1+$1,$8,$9*
0 Add four rect primitives between the rounded corners*
20,1,$1+$1,$2,$3,$4,$5,0*
20,1,$1+$1,$4,$5,$6,$7,0*
20,1,$1+$1,$6,$7,$8,$9,0*
20,1,$1+$1,$8,$9,$2,$3,0*%
G04 Aperture macros list end*
%ADD10RoundRect,0.150000X0.150000X-0.587500X0.150000X0.587500X-0.150000X0.587500X-0.150000X-0.587500X0*%
%ADD11C,2.000000*%
%ADD12RoundRect,0.250000X-0.400000X-0.625000X0.400000X-0.625000X0.400000X0.625000X-0.400000X0.625000X0*%
%ADD13C,1.524000*%
%ADD14C,3.200000*%
%ADD15RoundRect,0.250000X0.550000X-1.412500X0.550000X1.412500X-0.550000X1.412500X-0.550000X-1.412500X0*%
%ADD16R,3.500000X3.500000*%
%ADD17RoundRect,0.750000X-1.000000X0.750000X-1.000000X-0.750000X1.000000X-0.750000X1.000000X0.750000X0*%
%ADD18RoundRect,0.875000X-0.875000X0.875000X-0.875000X-0.875000X0.875000X-0.875000X0.875000X0.875000X0*%
%ADD19RoundRect,0.250001X-1.074999X0.462499X-1.074999X-0.462499X1.074999X-0.462499X1.074999X0.462499X0*%
%ADD20RoundRect,0.150000X0.587500X0.150000X-0.587500X0.150000X-0.587500X-0.150000X0.587500X-0.150000X0*%
%ADD21RoundRect,0.162500X0.162500X-0.825000X0.162500X0.825000X-0.162500X0.825000X-0.162500X-0.825000X0*%
%ADD22RoundRect,0.250000X-0.300000X0.300000X-0.300000X-0.300000X0.300000X-0.300000X0.300000X0.300000X0*%
%ADD23RoundRect,0.250000X-0.625000X0.400000X-0.625000X-0.400000X0.625000X-0.400000X0.625000X0.400000X0*%
%ADD24R,2.000000X2.000000*%
G04 APERTURE END LIST*
D10*
%TO.C,Q4*%
X134330400Y-91818700D03*
X136230400Y-91818700D03*
X135280400Y-89943700D03*
%TD*%
D11*
%TO.C,TP2*%
X120650000Y-58674000D03*
%TD*%
%TO.C,TP3*%
X154127200Y-57150000D03*
%TD*%
D12*
%TO.C,R4*%
X116966400Y-80543400D03*
X120066400Y-80543400D03*
%TD*%
D13*
%TO.C,J1*%
X165750000Y-84045000D03*
X163210000Y-82775000D03*
X165750000Y-81505000D03*
X163210000Y-80235000D03*
X165750000Y-78965000D03*
X163210000Y-77695000D03*
X165750000Y-76425000D03*
X163210000Y-75155000D03*
%TD*%
D14*
%TO.C,H4*%
X170000000Y-130000000D03*
%TD*%
D13*
%TO.C,J6*%
X165750000Y-100045000D03*
X163210000Y-98775000D03*
X165750000Y-97505000D03*
X163210000Y-96235000D03*
X165750000Y-94965000D03*
X163210000Y-93695000D03*
X165750000Y-92425000D03*
X163210000Y-91155000D03*
%TD*%
D10*
%TO.C,Q3*%
X140274000Y-91791000D03*
X142174000Y-91791000D03*
X141224000Y-89916000D03*
%TD*%
D15*
%TO.C,C2*%
X148920200Y-55499000D03*
X148920200Y-50424000D03*
%TD*%
D13*
%TO.C,J4*%
X104250000Y-107955000D03*
X106790000Y-109225000D03*
X104250000Y-110495000D03*
X106790000Y-111765000D03*
X104250000Y-113035000D03*
X106790000Y-114305000D03*
X104250000Y-115575000D03*
X106790000Y-116845000D03*
%TD*%
D16*
%TO.C,J9*%
X116636800Y-53949600D03*
D17*
X116636800Y-47949600D03*
D18*
X111936800Y-50949600D03*
%TD*%
D13*
%TO.C,J2*%
X104250000Y-75155000D03*
X106790000Y-76425000D03*
X104250000Y-77695000D03*
X106790000Y-78965000D03*
X104250000Y-80235000D03*
X106790000Y-81505000D03*
X104250000Y-82775000D03*
X106790000Y-84045000D03*
%TD*%
D11*
%TO.C,TP1*%
X110794800Y-60452000D03*
%TD*%
D19*
%TO.C,L1*%
X141960600Y-51623900D03*
X141960600Y-54598900D03*
%TD*%
D14*
%TO.C,H3*%
X170000000Y-50000000D03*
%TD*%
D15*
%TO.C,C1*%
X130124200Y-55750500D03*
X130124200Y-50675500D03*
%TD*%
D14*
%TO.C,H2*%
X100000000Y-130000000D03*
%TD*%
D12*
%TO.C,R1*%
X127990000Y-94137000D03*
X131090000Y-94137000D03*
%TD*%
D10*
%TO.C,Q2*%
X153990000Y-81074500D03*
X155890000Y-81074500D03*
X154940000Y-79199500D03*
%TD*%
D20*
%TO.C,Q5*%
X116763800Y-70962600D03*
X116763800Y-69062600D03*
X114888800Y-70012600D03*
%TD*%
D21*
%TO.C,U2*%
X134950200Y-55956200D03*
X136220200Y-55956200D03*
X137490200Y-55956200D03*
X138760200Y-55956200D03*
X138760200Y-50881200D03*
X137490200Y-50881200D03*
X136220200Y-50881200D03*
X134950200Y-50881200D03*
%TD*%
D22*
%TO.C,D1*%
X124637800Y-51863800D03*
X124637800Y-54663800D03*
%TD*%
D14*
%TO.C,H1*%
X100000000Y-50000000D03*
%TD*%
D10*
%TO.C,Q1*%
X128590000Y-91948000D03*
X130490000Y-91948000D03*
X129540000Y-90073000D03*
%TD*%
D12*
%TO.C,R2*%
X139674000Y-93980000D03*
X142774000Y-93980000D03*
%TD*%
D13*
%TO.C,J5*%
X104250000Y-91155000D03*
X106790000Y-92425000D03*
X104250000Y-93695000D03*
X106790000Y-94965000D03*
X104250000Y-96235000D03*
X106790000Y-97505000D03*
X104250000Y-98775000D03*
X106790000Y-100045000D03*
%TD*%
D11*
%TO.C,TP4*%
X154889200Y-52984400D03*
%TD*%
D23*
%TO.C,R5*%
X154228800Y-83590800D03*
X154228800Y-86690800D03*
%TD*%
D11*
%TO.C,U3*%
X123952000Y-72136000D03*
X123952000Y-74676000D03*
X123952000Y-77216000D03*
X123952000Y-79756000D03*
X123952000Y-82296000D03*
X123952000Y-84836000D03*
X123952000Y-87376000D03*
X123952000Y-89916000D03*
X123952000Y-92456000D03*
X123952000Y-94996000D03*
X123952000Y-97536000D03*
X123952000Y-100076000D03*
D24*
X123952000Y-102616000D03*
D11*
X123952000Y-105156000D03*
X123952000Y-107696000D03*
X123952000Y-110236000D03*
X123952000Y-112776000D03*
X123952000Y-115316000D03*
D24*
X123952000Y-117856000D03*
D11*
X149352000Y-117856000D03*
X149352000Y-115316000D03*
X149352000Y-112776000D03*
X149352000Y-110236000D03*
X149352000Y-107696000D03*
X149352000Y-105156000D03*
X149352000Y-102616000D03*
X149352000Y-100076000D03*
X149352000Y-97536000D03*
X149352000Y-94996000D03*
X149352000Y-92456000D03*
X149352000Y-89916000D03*
X149352000Y-87376000D03*
D24*
X149352000Y-84836000D03*
D11*
X149352000Y-82296000D03*
X149352000Y-79756000D03*
X149352000Y-77216000D03*
X149352000Y-74676000D03*
X149352000Y-72136000D03*
%TD*%
D12*
%TO.C,R3*%
X133730400Y-94155500D03*
X136830400Y-94155500D03*
%TD*%
M02*
