%TF.GenerationSoftware,KiCad,Pcbnew,(7.0.0)*%
%TF.CreationDate,2023-04-29T04:17:23-04:00*%
%TF.ProjectId,ArenaController,4172656e-6143-46f6-9e74-726f6c6c6572,v0.4*%
%TF.SameCoordinates,Original*%
%TF.FileFunction,Drillmap*%
%TF.FilePolarity,Positive*%
%FSLAX45Y45*%
G04 Gerber Fmt 4.5, Leading zero omitted, Abs format (unit mm)*
G04 Created by KiCad (PCBNEW (7.0.0)) date 2023-04-29 04:17:23*
%MOMM*%
%LPD*%
G01*
G04 APERTURE LIST*
%ADD10C,0.200000*%
%ADD11C,0.320000*%
G04 APERTURE END LIST*
D10*
X10000000Y-4500000D02*
G75*
G03*
X9500000Y-5000000I0J-500000D01*
G01*
X9500000Y-13000000D02*
G75*
G03*
X10000000Y-13500000I500000J0D01*
G01*
X17500000Y-5000000D02*
G75*
G03*
X17000000Y-4500000I-500000J0D01*
G01*
X17500000Y-5000000D02*
X17500000Y-13000000D01*
X10000000Y-4500000D02*
X17000000Y-4500000D01*
X9500000Y-13000000D02*
X9500000Y-5000000D01*
X17000000Y-13500000D02*
G75*
G03*
X17500000Y-13000000I0J500000D01*
G01*
X17000000Y-13500000D02*
X10000000Y-13500000D01*
D11*
X9840000Y-4840000D02*
X10160000Y-5160000D01*
X10160000Y-4840000D02*
X9840000Y-5160000D01*
X9840000Y-12840000D02*
X10160000Y-13160000D01*
X10160000Y-12840000D02*
X9840000Y-13160000D01*
X16840000Y-4840000D02*
X17160000Y-5160000D01*
X17160000Y-4840000D02*
X16840000Y-5160000D01*
X16840000Y-12840000D02*
X17160000Y-13160000D01*
X17160000Y-12840000D02*
X16840000Y-13160000D01*
D10*
X9737619Y-13803476D02*
X9737619Y-13603476D01*
X9737619Y-13603476D02*
X9785238Y-13603476D01*
X9785238Y-13603476D02*
X9813810Y-13613000D01*
X9813810Y-13613000D02*
X9832857Y-13632048D01*
X9832857Y-13632048D02*
X9842381Y-13651095D01*
X9842381Y-13651095D02*
X9851905Y-13689190D01*
X9851905Y-13689190D02*
X9851905Y-13717762D01*
X9851905Y-13717762D02*
X9842381Y-13755857D01*
X9842381Y-13755857D02*
X9832857Y-13774905D01*
X9832857Y-13774905D02*
X9813810Y-13793952D01*
X9813810Y-13793952D02*
X9785238Y-13803476D01*
X9785238Y-13803476D02*
X9737619Y-13803476D01*
X9937619Y-13803476D02*
X9937619Y-13670143D01*
X9937619Y-13708238D02*
X9947143Y-13689190D01*
X9947143Y-13689190D02*
X9956667Y-13679667D01*
X9956667Y-13679667D02*
X9975714Y-13670143D01*
X9975714Y-13670143D02*
X9994762Y-13670143D01*
X10061429Y-13803476D02*
X10061429Y-13670143D01*
X10061429Y-13603476D02*
X10051905Y-13613000D01*
X10051905Y-13613000D02*
X10061429Y-13622524D01*
X10061429Y-13622524D02*
X10070952Y-13613000D01*
X10070952Y-13613000D02*
X10061429Y-13603476D01*
X10061429Y-13603476D02*
X10061429Y-13622524D01*
X10185238Y-13803476D02*
X10166190Y-13793952D01*
X10166190Y-13793952D02*
X10156667Y-13774905D01*
X10156667Y-13774905D02*
X10156667Y-13603476D01*
X10290000Y-13803476D02*
X10270952Y-13793952D01*
X10270952Y-13793952D02*
X10261429Y-13774905D01*
X10261429Y-13774905D02*
X10261429Y-13603476D01*
X10486190Y-13803476D02*
X10486190Y-13603476D01*
X10486190Y-13603476D02*
X10552857Y-13746333D01*
X10552857Y-13746333D02*
X10619524Y-13603476D01*
X10619524Y-13603476D02*
X10619524Y-13803476D01*
X10800476Y-13803476D02*
X10800476Y-13698714D01*
X10800476Y-13698714D02*
X10790952Y-13679667D01*
X10790952Y-13679667D02*
X10771905Y-13670143D01*
X10771905Y-13670143D02*
X10733809Y-13670143D01*
X10733809Y-13670143D02*
X10714762Y-13679667D01*
X10800476Y-13793952D02*
X10781429Y-13803476D01*
X10781429Y-13803476D02*
X10733809Y-13803476D01*
X10733809Y-13803476D02*
X10714762Y-13793952D01*
X10714762Y-13793952D02*
X10705238Y-13774905D01*
X10705238Y-13774905D02*
X10705238Y-13755857D01*
X10705238Y-13755857D02*
X10714762Y-13736809D01*
X10714762Y-13736809D02*
X10733809Y-13727286D01*
X10733809Y-13727286D02*
X10781429Y-13727286D01*
X10781429Y-13727286D02*
X10800476Y-13717762D01*
X10895714Y-13670143D02*
X10895714Y-13870143D01*
X10895714Y-13679667D02*
X10914762Y-13670143D01*
X10914762Y-13670143D02*
X10952857Y-13670143D01*
X10952857Y-13670143D02*
X10971905Y-13679667D01*
X10971905Y-13679667D02*
X10981429Y-13689190D01*
X10981429Y-13689190D02*
X10990952Y-13708238D01*
X10990952Y-13708238D02*
X10990952Y-13765381D01*
X10990952Y-13765381D02*
X10981429Y-13784428D01*
X10981429Y-13784428D02*
X10971905Y-13793952D01*
X10971905Y-13793952D02*
X10952857Y-13803476D01*
X10952857Y-13803476D02*
X10914762Y-13803476D01*
X10914762Y-13803476D02*
X10895714Y-13793952D01*
X11076667Y-13784428D02*
X11086190Y-13793952D01*
X11086190Y-13793952D02*
X11076667Y-13803476D01*
X11076667Y-13803476D02*
X11067143Y-13793952D01*
X11067143Y-13793952D02*
X11076667Y-13784428D01*
X11076667Y-13784428D02*
X11076667Y-13803476D01*
X11076667Y-13679667D02*
X11086190Y-13689190D01*
X11086190Y-13689190D02*
X11076667Y-13698714D01*
X11076667Y-13698714D02*
X11067143Y-13689190D01*
X11067143Y-13689190D02*
X11076667Y-13679667D01*
X11076667Y-13679667D02*
X11076667Y-13698714D01*
X9290000Y-14050000D02*
X9490000Y-14250000D01*
X9490000Y-14050000D02*
X9290000Y-14250000D01*
X9718571Y-14023476D02*
X9842381Y-14023476D01*
X9842381Y-14023476D02*
X9775714Y-14099667D01*
X9775714Y-14099667D02*
X9804286Y-14099667D01*
X9804286Y-14099667D02*
X9823333Y-14109190D01*
X9823333Y-14109190D02*
X9832857Y-14118714D01*
X9832857Y-14118714D02*
X9842381Y-14137762D01*
X9842381Y-14137762D02*
X9842381Y-14185381D01*
X9842381Y-14185381D02*
X9832857Y-14204428D01*
X9832857Y-14204428D02*
X9823333Y-14213952D01*
X9823333Y-14213952D02*
X9804286Y-14223476D01*
X9804286Y-14223476D02*
X9747143Y-14223476D01*
X9747143Y-14223476D02*
X9728095Y-14213952D01*
X9728095Y-14213952D02*
X9718571Y-14204428D01*
X9928095Y-14204428D02*
X9937619Y-14213952D01*
X9937619Y-14213952D02*
X9928095Y-14223476D01*
X9928095Y-14223476D02*
X9918571Y-14213952D01*
X9918571Y-14213952D02*
X9928095Y-14204428D01*
X9928095Y-14204428D02*
X9928095Y-14223476D01*
X10013810Y-14042524D02*
X10023333Y-14033000D01*
X10023333Y-14033000D02*
X10042381Y-14023476D01*
X10042381Y-14023476D02*
X10090000Y-14023476D01*
X10090000Y-14023476D02*
X10109048Y-14033000D01*
X10109048Y-14033000D02*
X10118571Y-14042524D01*
X10118571Y-14042524D02*
X10128095Y-14061571D01*
X10128095Y-14061571D02*
X10128095Y-14080619D01*
X10128095Y-14080619D02*
X10118571Y-14109190D01*
X10118571Y-14109190D02*
X10004286Y-14223476D01*
X10004286Y-14223476D02*
X10128095Y-14223476D01*
X10251905Y-14023476D02*
X10270952Y-14023476D01*
X10270952Y-14023476D02*
X10290000Y-14033000D01*
X10290000Y-14033000D02*
X10299524Y-14042524D01*
X10299524Y-14042524D02*
X10309048Y-14061571D01*
X10309048Y-14061571D02*
X10318571Y-14099667D01*
X10318571Y-14099667D02*
X10318571Y-14147286D01*
X10318571Y-14147286D02*
X10309048Y-14185381D01*
X10309048Y-14185381D02*
X10299524Y-14204428D01*
X10299524Y-14204428D02*
X10290000Y-14213952D01*
X10290000Y-14213952D02*
X10270952Y-14223476D01*
X10270952Y-14223476D02*
X10251905Y-14223476D01*
X10251905Y-14223476D02*
X10232857Y-14213952D01*
X10232857Y-14213952D02*
X10223333Y-14204428D01*
X10223333Y-14204428D02*
X10213810Y-14185381D01*
X10213810Y-14185381D02*
X10204286Y-14147286D01*
X10204286Y-14147286D02*
X10204286Y-14099667D01*
X10204286Y-14099667D02*
X10213810Y-14061571D01*
X10213810Y-14061571D02*
X10223333Y-14042524D01*
X10223333Y-14042524D02*
X10232857Y-14033000D01*
X10232857Y-14033000D02*
X10251905Y-14023476D01*
X10442381Y-14023476D02*
X10461429Y-14023476D01*
X10461429Y-14023476D02*
X10480476Y-14033000D01*
X10480476Y-14033000D02*
X10490000Y-14042524D01*
X10490000Y-14042524D02*
X10499524Y-14061571D01*
X10499524Y-14061571D02*
X10509048Y-14099667D01*
X10509048Y-14099667D02*
X10509048Y-14147286D01*
X10509048Y-14147286D02*
X10499524Y-14185381D01*
X10499524Y-14185381D02*
X10490000Y-14204428D01*
X10490000Y-14204428D02*
X10480476Y-14213952D01*
X10480476Y-14213952D02*
X10461429Y-14223476D01*
X10461429Y-14223476D02*
X10442381Y-14223476D01*
X10442381Y-14223476D02*
X10423333Y-14213952D01*
X10423333Y-14213952D02*
X10413810Y-14204428D01*
X10413810Y-14204428D02*
X10404286Y-14185381D01*
X10404286Y-14185381D02*
X10394762Y-14147286D01*
X10394762Y-14147286D02*
X10394762Y-14099667D01*
X10394762Y-14099667D02*
X10404286Y-14061571D01*
X10404286Y-14061571D02*
X10413810Y-14042524D01*
X10413810Y-14042524D02*
X10423333Y-14033000D01*
X10423333Y-14033000D02*
X10442381Y-14023476D01*
X10594762Y-14223476D02*
X10594762Y-14090143D01*
X10594762Y-14109190D02*
X10604286Y-14099667D01*
X10604286Y-14099667D02*
X10623333Y-14090143D01*
X10623333Y-14090143D02*
X10651905Y-14090143D01*
X10651905Y-14090143D02*
X10670952Y-14099667D01*
X10670952Y-14099667D02*
X10680476Y-14118714D01*
X10680476Y-14118714D02*
X10680476Y-14223476D01*
X10680476Y-14118714D02*
X10690000Y-14099667D01*
X10690000Y-14099667D02*
X10709048Y-14090143D01*
X10709048Y-14090143D02*
X10737619Y-14090143D01*
X10737619Y-14090143D02*
X10756667Y-14099667D01*
X10756667Y-14099667D02*
X10766191Y-14118714D01*
X10766191Y-14118714D02*
X10766191Y-14223476D01*
X10861429Y-14223476D02*
X10861429Y-14090143D01*
X10861429Y-14109190D02*
X10870952Y-14099667D01*
X10870952Y-14099667D02*
X10890000Y-14090143D01*
X10890000Y-14090143D02*
X10918572Y-14090143D01*
X10918572Y-14090143D02*
X10937619Y-14099667D01*
X10937619Y-14099667D02*
X10947143Y-14118714D01*
X10947143Y-14118714D02*
X10947143Y-14223476D01*
X10947143Y-14118714D02*
X10956667Y-14099667D01*
X10956667Y-14099667D02*
X10975714Y-14090143D01*
X10975714Y-14090143D02*
X11004286Y-14090143D01*
X11004286Y-14090143D02*
X11023333Y-14099667D01*
X11023333Y-14099667D02*
X11032857Y-14118714D01*
X11032857Y-14118714D02*
X11032857Y-14223476D01*
X11390952Y-14013952D02*
X11219524Y-14271095D01*
X11615714Y-14023476D02*
X11634762Y-14023476D01*
X11634762Y-14023476D02*
X11653810Y-14033000D01*
X11653810Y-14033000D02*
X11663333Y-14042524D01*
X11663333Y-14042524D02*
X11672857Y-14061571D01*
X11672857Y-14061571D02*
X11682381Y-14099667D01*
X11682381Y-14099667D02*
X11682381Y-14147286D01*
X11682381Y-14147286D02*
X11672857Y-14185381D01*
X11672857Y-14185381D02*
X11663333Y-14204428D01*
X11663333Y-14204428D02*
X11653810Y-14213952D01*
X11653810Y-14213952D02*
X11634762Y-14223476D01*
X11634762Y-14223476D02*
X11615714Y-14223476D01*
X11615714Y-14223476D02*
X11596667Y-14213952D01*
X11596667Y-14213952D02*
X11587143Y-14204428D01*
X11587143Y-14204428D02*
X11577619Y-14185381D01*
X11577619Y-14185381D02*
X11568095Y-14147286D01*
X11568095Y-14147286D02*
X11568095Y-14099667D01*
X11568095Y-14099667D02*
X11577619Y-14061571D01*
X11577619Y-14061571D02*
X11587143Y-14042524D01*
X11587143Y-14042524D02*
X11596667Y-14033000D01*
X11596667Y-14033000D02*
X11615714Y-14023476D01*
X11768095Y-14204428D02*
X11777619Y-14213952D01*
X11777619Y-14213952D02*
X11768095Y-14223476D01*
X11768095Y-14223476D02*
X11758571Y-14213952D01*
X11758571Y-14213952D02*
X11768095Y-14204428D01*
X11768095Y-14204428D02*
X11768095Y-14223476D01*
X11968095Y-14223476D02*
X11853810Y-14223476D01*
X11910952Y-14223476D02*
X11910952Y-14023476D01*
X11910952Y-14023476D02*
X11891905Y-14052048D01*
X11891905Y-14052048D02*
X11872857Y-14071095D01*
X11872857Y-14071095D02*
X11853810Y-14080619D01*
X12044286Y-14042524D02*
X12053810Y-14033000D01*
X12053810Y-14033000D02*
X12072857Y-14023476D01*
X12072857Y-14023476D02*
X12120476Y-14023476D01*
X12120476Y-14023476D02*
X12139524Y-14033000D01*
X12139524Y-14033000D02*
X12149048Y-14042524D01*
X12149048Y-14042524D02*
X12158571Y-14061571D01*
X12158571Y-14061571D02*
X12158571Y-14080619D01*
X12158571Y-14080619D02*
X12149048Y-14109190D01*
X12149048Y-14109190D02*
X12034762Y-14223476D01*
X12034762Y-14223476D02*
X12158571Y-14223476D01*
X12330000Y-14023476D02*
X12291905Y-14023476D01*
X12291905Y-14023476D02*
X12272857Y-14033000D01*
X12272857Y-14033000D02*
X12263333Y-14042524D01*
X12263333Y-14042524D02*
X12244286Y-14071095D01*
X12244286Y-14071095D02*
X12234762Y-14109190D01*
X12234762Y-14109190D02*
X12234762Y-14185381D01*
X12234762Y-14185381D02*
X12244286Y-14204428D01*
X12244286Y-14204428D02*
X12253810Y-14213952D01*
X12253810Y-14213952D02*
X12272857Y-14223476D01*
X12272857Y-14223476D02*
X12310952Y-14223476D01*
X12310952Y-14223476D02*
X12330000Y-14213952D01*
X12330000Y-14213952D02*
X12339524Y-14204428D01*
X12339524Y-14204428D02*
X12349048Y-14185381D01*
X12349048Y-14185381D02*
X12349048Y-14137762D01*
X12349048Y-14137762D02*
X12339524Y-14118714D01*
X12339524Y-14118714D02*
X12330000Y-14109190D01*
X12330000Y-14109190D02*
X12310952Y-14099667D01*
X12310952Y-14099667D02*
X12272857Y-14099667D01*
X12272857Y-14099667D02*
X12253810Y-14109190D01*
X12253810Y-14109190D02*
X12244286Y-14118714D01*
X12244286Y-14118714D02*
X12234762Y-14137762D01*
X12472857Y-14023476D02*
X12491905Y-14023476D01*
X12491905Y-14023476D02*
X12510952Y-14033000D01*
X12510952Y-14033000D02*
X12520476Y-14042524D01*
X12520476Y-14042524D02*
X12530000Y-14061571D01*
X12530000Y-14061571D02*
X12539524Y-14099667D01*
X12539524Y-14099667D02*
X12539524Y-14147286D01*
X12539524Y-14147286D02*
X12530000Y-14185381D01*
X12530000Y-14185381D02*
X12520476Y-14204428D01*
X12520476Y-14204428D02*
X12510952Y-14213952D01*
X12510952Y-14213952D02*
X12491905Y-14223476D01*
X12491905Y-14223476D02*
X12472857Y-14223476D01*
X12472857Y-14223476D02*
X12453810Y-14213952D01*
X12453810Y-14213952D02*
X12444286Y-14204428D01*
X12444286Y-14204428D02*
X12434762Y-14185381D01*
X12434762Y-14185381D02*
X12425238Y-14147286D01*
X12425238Y-14147286D02*
X12425238Y-14099667D01*
X12425238Y-14099667D02*
X12434762Y-14061571D01*
X12434762Y-14061571D02*
X12444286Y-14042524D01*
X12444286Y-14042524D02*
X12453810Y-14033000D01*
X12453810Y-14033000D02*
X12472857Y-14023476D01*
X12615714Y-14023476D02*
X12615714Y-14061571D01*
X12691905Y-14023476D02*
X12691905Y-14061571D01*
X12954762Y-14299667D02*
X12945238Y-14290143D01*
X12945238Y-14290143D02*
X12926191Y-14261571D01*
X12926191Y-14261571D02*
X12916667Y-14242524D01*
X12916667Y-14242524D02*
X12907143Y-14213952D01*
X12907143Y-14213952D02*
X12897619Y-14166333D01*
X12897619Y-14166333D02*
X12897619Y-14128238D01*
X12897619Y-14128238D02*
X12907143Y-14080619D01*
X12907143Y-14080619D02*
X12916667Y-14052048D01*
X12916667Y-14052048D02*
X12926191Y-14033000D01*
X12926191Y-14033000D02*
X12945238Y-14004428D01*
X12945238Y-14004428D02*
X12954762Y-13994905D01*
X13116667Y-14090143D02*
X13116667Y-14223476D01*
X13069048Y-14013952D02*
X13021429Y-14156809D01*
X13021429Y-14156809D02*
X13145238Y-14156809D01*
X13341429Y-14223476D02*
X13341429Y-14023476D01*
X13427143Y-14223476D02*
X13427143Y-14118714D01*
X13427143Y-14118714D02*
X13417619Y-14099667D01*
X13417619Y-14099667D02*
X13398572Y-14090143D01*
X13398572Y-14090143D02*
X13370000Y-14090143D01*
X13370000Y-14090143D02*
X13350952Y-14099667D01*
X13350952Y-14099667D02*
X13341429Y-14109190D01*
X13550952Y-14223476D02*
X13531905Y-14213952D01*
X13531905Y-14213952D02*
X13522381Y-14204428D01*
X13522381Y-14204428D02*
X13512857Y-14185381D01*
X13512857Y-14185381D02*
X13512857Y-14128238D01*
X13512857Y-14128238D02*
X13522381Y-14109190D01*
X13522381Y-14109190D02*
X13531905Y-14099667D01*
X13531905Y-14099667D02*
X13550952Y-14090143D01*
X13550952Y-14090143D02*
X13579524Y-14090143D01*
X13579524Y-14090143D02*
X13598572Y-14099667D01*
X13598572Y-14099667D02*
X13608095Y-14109190D01*
X13608095Y-14109190D02*
X13617619Y-14128238D01*
X13617619Y-14128238D02*
X13617619Y-14185381D01*
X13617619Y-14185381D02*
X13608095Y-14204428D01*
X13608095Y-14204428D02*
X13598572Y-14213952D01*
X13598572Y-14213952D02*
X13579524Y-14223476D01*
X13579524Y-14223476D02*
X13550952Y-14223476D01*
X13731905Y-14223476D02*
X13712857Y-14213952D01*
X13712857Y-14213952D02*
X13703333Y-14194905D01*
X13703333Y-14194905D02*
X13703333Y-14023476D01*
X13884286Y-14213952D02*
X13865238Y-14223476D01*
X13865238Y-14223476D02*
X13827143Y-14223476D01*
X13827143Y-14223476D02*
X13808095Y-14213952D01*
X13808095Y-14213952D02*
X13798572Y-14194905D01*
X13798572Y-14194905D02*
X13798572Y-14118714D01*
X13798572Y-14118714D02*
X13808095Y-14099667D01*
X13808095Y-14099667D02*
X13827143Y-14090143D01*
X13827143Y-14090143D02*
X13865238Y-14090143D01*
X13865238Y-14090143D02*
X13884286Y-14099667D01*
X13884286Y-14099667D02*
X13893810Y-14118714D01*
X13893810Y-14118714D02*
X13893810Y-14137762D01*
X13893810Y-14137762D02*
X13798572Y-14156809D01*
X13970000Y-14213952D02*
X13989048Y-14223476D01*
X13989048Y-14223476D02*
X14027143Y-14223476D01*
X14027143Y-14223476D02*
X14046191Y-14213952D01*
X14046191Y-14213952D02*
X14055714Y-14194905D01*
X14055714Y-14194905D02*
X14055714Y-14185381D01*
X14055714Y-14185381D02*
X14046191Y-14166333D01*
X14046191Y-14166333D02*
X14027143Y-14156809D01*
X14027143Y-14156809D02*
X13998572Y-14156809D01*
X13998572Y-14156809D02*
X13979524Y-14147286D01*
X13979524Y-14147286D02*
X13970000Y-14128238D01*
X13970000Y-14128238D02*
X13970000Y-14118714D01*
X13970000Y-14118714D02*
X13979524Y-14099667D01*
X13979524Y-14099667D02*
X13998572Y-14090143D01*
X13998572Y-14090143D02*
X14027143Y-14090143D01*
X14027143Y-14090143D02*
X14046191Y-14099667D01*
X14122381Y-14299667D02*
X14131905Y-14290143D01*
X14131905Y-14290143D02*
X14150953Y-14261571D01*
X14150953Y-14261571D02*
X14160476Y-14242524D01*
X14160476Y-14242524D02*
X14170000Y-14213952D01*
X14170000Y-14213952D02*
X14179524Y-14166333D01*
X14179524Y-14166333D02*
X14179524Y-14128238D01*
X14179524Y-14128238D02*
X14170000Y-14080619D01*
X14170000Y-14080619D02*
X14160476Y-14052048D01*
X14160476Y-14052048D02*
X14150953Y-14033000D01*
X14150953Y-14033000D02*
X14131905Y-14004428D01*
X14131905Y-14004428D02*
X14122381Y-13994905D01*
X14451905Y-14299667D02*
X14442381Y-14290143D01*
X14442381Y-14290143D02*
X14423333Y-14261571D01*
X14423333Y-14261571D02*
X14413810Y-14242524D01*
X14413810Y-14242524D02*
X14404286Y-14213952D01*
X14404286Y-14213952D02*
X14394762Y-14166333D01*
X14394762Y-14166333D02*
X14394762Y-14128238D01*
X14394762Y-14128238D02*
X14404286Y-14080619D01*
X14404286Y-14080619D02*
X14413810Y-14052048D01*
X14413810Y-14052048D02*
X14423333Y-14033000D01*
X14423333Y-14033000D02*
X14442381Y-14004428D01*
X14442381Y-14004428D02*
X14451905Y-13994905D01*
X14528095Y-14090143D02*
X14528095Y-14223476D01*
X14528095Y-14109190D02*
X14537619Y-14099667D01*
X14537619Y-14099667D02*
X14556667Y-14090143D01*
X14556667Y-14090143D02*
X14585238Y-14090143D01*
X14585238Y-14090143D02*
X14604286Y-14099667D01*
X14604286Y-14099667D02*
X14613810Y-14118714D01*
X14613810Y-14118714D02*
X14613810Y-14223476D01*
X14737619Y-14223476D02*
X14718572Y-14213952D01*
X14718572Y-14213952D02*
X14709048Y-14204428D01*
X14709048Y-14204428D02*
X14699524Y-14185381D01*
X14699524Y-14185381D02*
X14699524Y-14128238D01*
X14699524Y-14128238D02*
X14709048Y-14109190D01*
X14709048Y-14109190D02*
X14718572Y-14099667D01*
X14718572Y-14099667D02*
X14737619Y-14090143D01*
X14737619Y-14090143D02*
X14766191Y-14090143D01*
X14766191Y-14090143D02*
X14785238Y-14099667D01*
X14785238Y-14099667D02*
X14794762Y-14109190D01*
X14794762Y-14109190D02*
X14804286Y-14128238D01*
X14804286Y-14128238D02*
X14804286Y-14185381D01*
X14804286Y-14185381D02*
X14794762Y-14204428D01*
X14794762Y-14204428D02*
X14785238Y-14213952D01*
X14785238Y-14213952D02*
X14766191Y-14223476D01*
X14766191Y-14223476D02*
X14737619Y-14223476D01*
X14861429Y-14090143D02*
X14937619Y-14090143D01*
X14890000Y-14023476D02*
X14890000Y-14194905D01*
X14890000Y-14194905D02*
X14899524Y-14213952D01*
X14899524Y-14213952D02*
X14918572Y-14223476D01*
X14918572Y-14223476D02*
X14937619Y-14223476D01*
X15124286Y-14090143D02*
X15124286Y-14290143D01*
X15124286Y-14099667D02*
X15143333Y-14090143D01*
X15143333Y-14090143D02*
X15181429Y-14090143D01*
X15181429Y-14090143D02*
X15200476Y-14099667D01*
X15200476Y-14099667D02*
X15210000Y-14109190D01*
X15210000Y-14109190D02*
X15219524Y-14128238D01*
X15219524Y-14128238D02*
X15219524Y-14185381D01*
X15219524Y-14185381D02*
X15210000Y-14204428D01*
X15210000Y-14204428D02*
X15200476Y-14213952D01*
X15200476Y-14213952D02*
X15181429Y-14223476D01*
X15181429Y-14223476D02*
X15143333Y-14223476D01*
X15143333Y-14223476D02*
X15124286Y-14213952D01*
X15333810Y-14223476D02*
X15314762Y-14213952D01*
X15314762Y-14213952D02*
X15305238Y-14194905D01*
X15305238Y-14194905D02*
X15305238Y-14023476D01*
X15495714Y-14223476D02*
X15495714Y-14118714D01*
X15495714Y-14118714D02*
X15486191Y-14099667D01*
X15486191Y-14099667D02*
X15467143Y-14090143D01*
X15467143Y-14090143D02*
X15429048Y-14090143D01*
X15429048Y-14090143D02*
X15410000Y-14099667D01*
X15495714Y-14213952D02*
X15476667Y-14223476D01*
X15476667Y-14223476D02*
X15429048Y-14223476D01*
X15429048Y-14223476D02*
X15410000Y-14213952D01*
X15410000Y-14213952D02*
X15400476Y-14194905D01*
X15400476Y-14194905D02*
X15400476Y-14175857D01*
X15400476Y-14175857D02*
X15410000Y-14156809D01*
X15410000Y-14156809D02*
X15429048Y-14147286D01*
X15429048Y-14147286D02*
X15476667Y-14147286D01*
X15476667Y-14147286D02*
X15495714Y-14137762D01*
X15562381Y-14090143D02*
X15638572Y-14090143D01*
X15590953Y-14023476D02*
X15590953Y-14194905D01*
X15590953Y-14194905D02*
X15600476Y-14213952D01*
X15600476Y-14213952D02*
X15619524Y-14223476D01*
X15619524Y-14223476D02*
X15638572Y-14223476D01*
X15781429Y-14213952D02*
X15762381Y-14223476D01*
X15762381Y-14223476D02*
X15724286Y-14223476D01*
X15724286Y-14223476D02*
X15705238Y-14213952D01*
X15705238Y-14213952D02*
X15695714Y-14194905D01*
X15695714Y-14194905D02*
X15695714Y-14118714D01*
X15695714Y-14118714D02*
X15705238Y-14099667D01*
X15705238Y-14099667D02*
X15724286Y-14090143D01*
X15724286Y-14090143D02*
X15762381Y-14090143D01*
X15762381Y-14090143D02*
X15781429Y-14099667D01*
X15781429Y-14099667D02*
X15790953Y-14118714D01*
X15790953Y-14118714D02*
X15790953Y-14137762D01*
X15790953Y-14137762D02*
X15695714Y-14156809D01*
X15962381Y-14223476D02*
X15962381Y-14023476D01*
X15962381Y-14213952D02*
X15943334Y-14223476D01*
X15943334Y-14223476D02*
X15905238Y-14223476D01*
X15905238Y-14223476D02*
X15886191Y-14213952D01*
X15886191Y-14213952D02*
X15876667Y-14204428D01*
X15876667Y-14204428D02*
X15867143Y-14185381D01*
X15867143Y-14185381D02*
X15867143Y-14128238D01*
X15867143Y-14128238D02*
X15876667Y-14109190D01*
X15876667Y-14109190D02*
X15886191Y-14099667D01*
X15886191Y-14099667D02*
X15905238Y-14090143D01*
X15905238Y-14090143D02*
X15943334Y-14090143D01*
X15943334Y-14090143D02*
X15962381Y-14099667D01*
X16038572Y-14299667D02*
X16048095Y-14290143D01*
X16048095Y-14290143D02*
X16067143Y-14261571D01*
X16067143Y-14261571D02*
X16076667Y-14242524D01*
X16076667Y-14242524D02*
X16086191Y-14213952D01*
X16086191Y-14213952D02*
X16095714Y-14166333D01*
X16095714Y-14166333D02*
X16095714Y-14128238D01*
X16095714Y-14128238D02*
X16086191Y-14080619D01*
X16086191Y-14080619D02*
X16076667Y-14052048D01*
X16076667Y-14052048D02*
X16067143Y-14033000D01*
X16067143Y-14033000D02*
X16048095Y-14004428D01*
X16048095Y-14004428D02*
X16038572Y-13994905D01*
M02*
