%TF.GenerationSoftware,KiCad,Pcbnew,7.99.0-2684-g11de95778b*%
%TF.CreationDate,2023-09-09T13:36:23-04:00*%
%TF.ProjectId,ArenaController,4172656e-6143-46f6-9e74-726f6c6c6572,v2.0b*%
%TF.SameCoordinates,Original*%
%TF.FileFunction,Profile,NP*%
%FSLAX46Y46*%
G04 Gerber Fmt 4.6, Leading zero omitted, Abs format (unit mm)*
G04 Created by KiCad (PCBNEW 7.99.0-2684-g11de95778b) date 2023-09-09 13:36:23*
%MOMM*%
%LPD*%
G01*
G04 APERTURE LIST*
%TA.AperFunction,Profile*%
%ADD10C,0.200000*%
%TD*%
%TA.AperFunction,Profile*%
%ADD11C,0.100000*%
%TD*%
G04 APERTURE END LIST*
D10*
X95000000Y-50000000D02*
G75*
G02*
X100000000Y-45000000I5000000J0D01*
G01*
X129540000Y-132460000D02*
G75*
G02*
X127000000Y-135000000I-2540000J0D01*
G01*
X100000000Y-135000000D02*
G75*
G02*
X95000000Y-130000000I0J5000000D01*
G01*
X175000000Y-45000000D02*
G75*
G02*
X180000000Y-50000000I0J-5000000D01*
G01*
X129540000Y-130810000D02*
G75*
G02*
X132080000Y-128270000I2540000J0D01*
G01*
X175000000Y-135000000D02*
X144780000Y-135000000D01*
X132080000Y-128270000D02*
X139700000Y-128270000D01*
X180000000Y-50000000D02*
X180000000Y-130000000D01*
X144780000Y-135000000D02*
G75*
G02*
X142240000Y-132460000I0J2540000D01*
G01*
X100000000Y-45000000D02*
X175000000Y-45000000D01*
X129540000Y-130810000D02*
X129540000Y-132460000D01*
X95000000Y-130000000D02*
X95000000Y-50000000D01*
X142240000Y-130810000D02*
X142240000Y-132460000D01*
X180000000Y-130000000D02*
G75*
G02*
X175000000Y-135000000I-5000000J0D01*
G01*
X127000000Y-135000000D02*
X100000000Y-135000000D01*
X139700000Y-128270000D02*
G75*
G02*
X142240000Y-130810000I0J-2540000D01*
G01*
D11*
%TO.C,J1*%
X178725000Y-73885000D02*
G75*
G02*
X178725000Y-73885000I-1625000J0D01*
G01*
X178725000Y-85315000D02*
G75*
G02*
X178725000Y-85315000I-1625000J0D01*
G01*
%TO.C,J6*%
X178725000Y-89885000D02*
G75*
G02*
X178725000Y-89885000I-1625000J0D01*
G01*
X178725000Y-101315000D02*
G75*
G02*
X178725000Y-101315000I-1625000J0D01*
G01*
%TO.C,J4*%
X152546400Y-132405600D02*
G75*
G02*
X152546400Y-132405600I-1625000J0D01*
G01*
X163976400Y-132405600D02*
G75*
G02*
X163976400Y-132405600I-1625000J0D01*
G01*
%TO.C,J2*%
X99525000Y-73885000D02*
G75*
G02*
X99525000Y-73885000I-1625000J0D01*
G01*
X99525000Y-85315000D02*
G75*
G02*
X99525000Y-85315000I-1625000J0D01*
G01*
%TO.C,J5*%
X99525000Y-89885000D02*
G75*
G02*
X99525000Y-89885000I-1625000J0D01*
G01*
X99525000Y-101315000D02*
G75*
G02*
X99525000Y-101315000I-1625000J0D01*
G01*
%TD*%
M02*
