M48
; DRILL file {KiCad (7.0.0)} date Tue Apr  4 20:57:12 2023
; FORMAT={-:-/ absolute / inch / decimal}
; #@! TF.CreationDate,2023-04-04T20:57:12-04:00
; #@! TF.GenerationSoftware,Kicad,Pcbnew,(7.0.0)
; #@! TF.FileFunction,Plated,1,2,PTH
FMAT,2
INCH
; #@! TA.AperFunction,Plated,PTH,ViaDrill
T1C0.0157
; #@! TA.AperFunction,Plated,PTH,ComponentDrill
T2C0.0300
; #@! TA.AperFunction,Plated,PTH,ComponentDrill
T3C0.0394
; #@! TA.AperFunction,Plated,PTH,ComponentDrill
T4C0.0402
%
G90
G05
T1
X4.15Y-4.5
X4.35Y-5.28
X4.48Y-4.14
X4.53Y-4.27
X4.67Y-2.75
X4.69Y-3.41
X4.74Y-4.42
X5.06Y-2.6895
X5.1Y-2.92
X5.12Y-2.6505
X5.18Y-3.49
X5.22Y-4.44
X5.28Y-3.94
X5.32Y-2.92
X5.33Y-4.22
X5.34Y-4.45
X5.36Y-2.7095
X5.37Y-2.22
X5.3774Y-3.49
X5.5Y-2.92
X5.65Y-3.25
X6.02Y-3.68
X6.08Y-3.5
X6.1Y-2.84
X6.11Y-2.79
X6.15Y-3.27
X6.16Y-2.84
X6.19Y-4.45
X6.31Y-2.64
X6.41Y-2.77
X6.43Y-2.81
X6.47Y-4.32
X6.54Y-4.47
T2
X4.2913Y-2.9589
X4.2913Y-3.0589
X4.2913Y-3.1589
X4.2913Y-3.2589
X4.2913Y-3.5888
X4.2913Y-3.6888
X4.2913Y-3.7888
X4.2913Y-3.8888
X4.2913Y-4.2502
X4.2913Y-4.3502
X4.2913Y-4.4502
X4.2913Y-4.5502
X4.3913Y-3.0089
X4.3913Y-3.1089
X4.3913Y-3.2089
X4.3913Y-3.3089
X4.3913Y-3.6388
X4.3913Y-3.7388
X4.3913Y-3.8388
X4.3913Y-3.9388
X4.3913Y-4.3002
X4.3913Y-4.4002
X4.3913Y-4.5002
X4.3913Y-4.6002
X6.2386Y-2.9589
X6.2386Y-3.0589
X6.2386Y-3.1589
X6.2386Y-3.2589
X6.2386Y-3.5888
X6.2386Y-3.6888
X6.2386Y-3.7888
X6.2386Y-3.8888
X6.3386Y-3.0089
X6.3386Y-3.1089
X6.3386Y-3.2089
X6.3386Y-3.3089
X6.3386Y-3.6388
X6.3386Y-3.7388
X6.3386Y-3.8388
X6.3386Y-3.9388
T3
X6.42Y-4.8
X6.52Y-4.8
X6.62Y-4.8
X6.72Y-4.8
T4
X4.88Y-2.84
X4.88Y-2.94
X4.88Y-3.04
X4.88Y-3.14
X4.88Y-3.24
X4.88Y-3.34
X4.88Y-3.44
X4.88Y-3.54
X4.88Y-3.64
X4.88Y-3.74
X4.88Y-3.84
X4.88Y-3.94
X4.88Y-4.04
X4.88Y-4.14
X4.88Y-4.24
X4.88Y-4.34
X4.88Y-4.44
X4.88Y-4.54
X4.88Y-4.64
X5.88Y-2.84
X5.88Y-2.94
X5.88Y-3.04
X5.88Y-3.14
X5.88Y-3.24
X5.88Y-3.34
X5.88Y-3.44
X5.88Y-3.54
X5.88Y-3.64
X5.88Y-3.74
X5.88Y-3.84
X5.88Y-3.94
X5.88Y-4.04
X5.88Y-4.14
X5.88Y-4.24
X5.88Y-4.34
X5.88Y-4.44
X5.88Y-4.54
X5.88Y-4.64
T3
G00X4.155Y-2.1587
M15
G01X4.155Y-2.2375
M16
G05
G00X4.3794Y-2.08
M15
G01X4.3006Y-2.08
M16
G05
G00X4.3794Y-2.3162
M15
G01X4.3006Y-2.3162
M16
G05
T0
M30
