M48
; DRILL file {KiCad 7.0.7} date Sat Aug 26 12:26:51 2023
; FORMAT={-:-/ absolute / inch / decimal}
; #@! TF.CreationDate,2023-08-26T12:26:51-04:00
; #@! TF.GenerationSoftware,Kicad,Pcbnew,7.0.7
; #@! TF.FileFunction,Plated,1,2,PTH
FMAT,2
INCH
; #@! TA.AperFunction,Plated,PTH,ViaDrill
T1C0.0157
; #@! TA.AperFunction,Plated,PTH,ComponentDrill
T2C0.0300
; #@! TA.AperFunction,Plated,PTH,ComponentDrill
T3C0.0394
; #@! TA.AperFunction,Plated,PTH,ComponentDrill
T4C0.0402
; #@! TA.AperFunction,Plated,PTH,ComponentDrill
T5C0.0787
%
G90
G05
T1
X3.78Y-4.7
X3.84Y-2.23
X3.98Y-4.82
X4.07Y-4.42
X4.18Y-5.07
X4.2Y-2.65
X4.2Y-4.26
X4.25Y-2.29
X4.28Y-2.78
X4.28Y-5.23
X4.36Y-2.63
X4.37Y-3.18
X4.39Y-3.37
X4.46Y-4.03
X4.47Y-3.72
X4.48Y-4.25
X4.49Y-4.4
X4.535Y-3.211
X4.54Y-4.95
X4.55Y-3.64
X4.604Y-2.937
X4.63Y-4.57
X4.65Y-3.38
X4.68Y-3.59
X4.68Y-4.25
X4.71Y-4.04
X4.89Y-5.07
X4.9Y-2.2
X4.94Y-4.79
X4.95Y-2.27
X5.0Y-3.06
X5.01Y-3.19
X5.01Y-4.07
X5.1Y-2.46
X5.1Y-2.584
X5.1Y-4.14
X5.13Y-4.21
X5.14Y-4.29
X5.16Y-1.92
X5.18Y-3.49
X5.22Y-3.02
X5.24Y-3.26
X5.254Y-4.528
X5.31Y-5.04
X5.384Y-4.514
X5.4Y-2.1
X5.42Y-3.16
X5.42Y-3.31
X5.44Y-2.99
X5.48Y-4.0
X5.5Y-4.27
X5.56Y-2.586
X5.564Y-2.426
X5.63Y-1.82
X5.63Y-2.12
X5.64Y-3.05
X5.66Y-3.26
X5.67Y-4.46
X5.68Y-2.87
X5.71Y-3.49
X5.72Y-2.66
X5.73Y-4.21
X5.77Y-1.92
X5.9Y-2.1
X5.96Y-1.89
X5.97Y-3.12
X6.03Y-3.04
X6.04Y-3.52
X6.04Y-3.78
X6.14Y-2.71
X6.17Y-4.2
X6.24Y-3.79
X6.242Y-2.306
X6.27Y-4.01
X6.28Y-3.14
X6.34Y-2.57
X6.34Y-2.89
X6.34Y-3.42
X6.37Y-2.01
X6.37Y-2.72
X6.39Y-2.19
X6.43Y-3.36
X6.43Y-3.69
X6.46Y-3.26
X6.46Y-4.02
X6.47Y-2.84
X6.51Y-2.76
X6.51Y-3.73
X6.52Y-2.24
X6.55Y-2.05
X6.6Y-4.33
X6.708Y-2.774
X6.82Y-3.55
X6.83Y-3.31
X6.91Y-2.49
X6.92Y-3.7
X6.95Y-2.19
X6.96Y-3.11
T2
X4.1043Y-2.9589
X4.1043Y-3.0589
X4.1043Y-3.1589
X4.1043Y-3.2589
X4.1043Y-3.5888
X4.1043Y-3.6888
X4.1043Y-3.7888
X4.1043Y-3.8888
X4.2043Y-3.0089
X4.2043Y-3.1089
X4.2043Y-3.2089
X4.2043Y-3.3089
X4.2043Y-3.6388
X4.2043Y-3.7388
X4.2043Y-3.8388
X4.2043Y-3.9388
X5.9918Y-4.9628
X6.0418Y-4.8628
X6.0918Y-4.9628
X6.1418Y-4.8628
X6.1918Y-4.9628
X6.2418Y-4.8628
X6.2918Y-4.9628
X6.3418Y-4.8628
X6.6224Y-2.9589
X6.6224Y-3.0589
X6.6224Y-3.1589
X6.6224Y-3.2589
X6.6224Y-3.5888
X6.6224Y-3.6888
X6.6224Y-3.7888
X6.6224Y-3.8888
X6.7224Y-3.0089
X6.7224Y-3.1089
X6.7224Y-3.2089
X6.7224Y-3.3089
X6.7224Y-3.6388
X6.7224Y-3.7388
X6.7224Y-3.8388
X6.7224Y-3.9388
T3
X4.096Y-2.308
X4.49Y-2.298
X6.102Y-2.928
X6.754Y-2.25
T4
X4.88Y-2.84
X4.88Y-2.94
X4.88Y-3.04
X4.88Y-3.14
X4.88Y-3.24
X4.88Y-3.34
X4.88Y-3.44
X4.88Y-3.54
X4.88Y-3.64
X4.88Y-3.74
X4.88Y-3.84
X4.88Y-3.94
X4.88Y-4.04
X4.88Y-4.14
X4.88Y-4.24
X4.88Y-4.34
X4.88Y-4.44
X4.88Y-4.54
X4.88Y-4.64
X5.88Y-2.84
X5.88Y-2.94
X5.88Y-3.04
X5.88Y-3.14
X5.88Y-3.24
X5.88Y-3.34
X5.88Y-3.44
X5.88Y-3.54
X5.88Y-3.64
X5.88Y-3.74
X5.88Y-3.84
X5.88Y-3.94
X5.88Y-4.04
X5.88Y-4.14
X5.88Y-4.24
X5.88Y-4.34
X5.88Y-4.44
X5.88Y-4.54
X5.88Y-4.64
T5
X4.8216Y-2.6329
X4.824Y-1.87
X6.5908Y-1.8676
X6.5908Y-2.6329
T3
G00X4.2147Y-1.9687
M15
G01X4.2147Y-2.0475
M16
G05
G00X4.4391Y-1.89
M15
G01X4.3603Y-1.89
M16
G05
G00X4.4391Y-2.1262
M15
G01X4.3603Y-2.1262
M16
G05
T0
M30
