%TF.GenerationSoftware,KiCad,Pcbnew,7.99.0-2684-g11de95778b*%
%TF.CreationDate,2023-09-09T13:36:26-04:00*%
%TF.ProjectId,ArenaController,4172656e-6143-46f6-9e74-726f6c6c6572,v2.0b*%
%TF.SameCoordinates,Original*%
%TF.FileFunction,Drillmap*%
%TF.FilePolarity,Positive*%
%FSLAX45Y45*%
G04 Gerber Fmt 4.5, Leading zero omitted, Abs format (unit mm)*
G04 Created by KiCad (PCBNEW 7.99.0-2684-g11de95778b) date 2023-09-09 13:36:26*
%MOMM*%
%LPD*%
G01*
G04 APERTURE LIST*
%ADD10C,0.200000*%
%ADD11C,0.040000*%
%ADD12C,0.076200*%
%ADD13C,0.100000*%
%ADD14C,0.150000*%
G04 APERTURE END LIST*
D10*
X9500000Y-5000000D02*
G75*
G02*
X10000000Y-4500000I500000J0D01*
G01*
X12954000Y-13246000D02*
G75*
G02*
X12700000Y-13500000I-254000J0D01*
G01*
X10000000Y-13500000D02*
G75*
G02*
X9500000Y-13000000I0J500000D01*
G01*
X17500000Y-4500000D02*
G75*
G02*
X18000000Y-5000000I0J-500000D01*
G01*
X12954000Y-13081000D02*
G75*
G02*
X13208000Y-12827000I254000J0D01*
G01*
X17500000Y-13500000D02*
X14478000Y-13500000D01*
X13208000Y-12827000D02*
X13970000Y-12827000D01*
X18000000Y-5000000D02*
X18000000Y-13000000D01*
X14478000Y-13500000D02*
G75*
G02*
X14224000Y-13246000I0J254000D01*
G01*
X10000000Y-4500000D02*
X17500000Y-4500000D01*
X12954000Y-13081000D02*
X12954000Y-13246000D01*
X9500000Y-13000000D02*
X9500000Y-5000000D01*
X14224000Y-13081000D02*
X14224000Y-13246000D01*
X18000000Y-13000000D02*
G75*
G02*
X17500000Y-13500000I-500000J0D01*
G01*
X12700000Y-13500000D02*
X10000000Y-13500000D01*
X13970000Y-12827000D02*
G75*
G02*
X14224000Y-13081000I0J-254000D01*
G01*
D11*
X9822500Y-8209600D02*
X9862500Y-8249600D01*
X9862500Y-8209600D02*
X9822500Y-8249600D01*
X10317800Y-8641400D02*
X10357800Y-8681400D01*
X10357800Y-8641400D02*
X10317800Y-8681400D01*
X10609900Y-8565200D02*
X10649900Y-8605200D01*
X10649900Y-8565200D02*
X10609900Y-8605200D01*
X10914700Y-8793800D02*
X10954700Y-8833800D01*
X10954700Y-8793800D02*
X10914700Y-8833800D01*
X10978200Y-7561900D02*
X11018200Y-7601900D01*
X11018200Y-7561900D02*
X10978200Y-7601900D01*
X10990900Y-7066600D02*
X11030900Y-7106600D01*
X11030900Y-7066600D02*
X10990900Y-7106600D01*
X11016300Y-8298500D02*
X11056300Y-8338500D01*
X11056300Y-8298500D02*
X11016300Y-8338500D01*
X11143300Y-7942900D02*
X11183300Y-7982900D01*
X11183300Y-7942900D02*
X11143300Y-7982900D01*
X11219500Y-10825800D02*
X11259500Y-10865800D01*
X11259500Y-10825800D02*
X11219500Y-10865800D01*
X11295700Y-10114600D02*
X11335700Y-10154600D01*
X11335700Y-10114600D02*
X11295700Y-10154600D01*
X11600500Y-7155500D02*
X11640500Y-7195500D01*
X11640500Y-7155500D02*
X11600500Y-7195500D01*
X11600500Y-10279700D02*
X11640500Y-10319700D01*
X11640500Y-10279700D02*
X11600500Y-10319700D01*
X11613200Y-8603300D02*
X11653200Y-8643300D01*
X11653200Y-8603300D02*
X11613200Y-8643300D01*
X11664000Y-7600000D02*
X11704000Y-7640000D01*
X11704000Y-7600000D02*
X11664000Y-7640000D01*
X11664000Y-8108000D02*
X11704000Y-8148000D01*
X11704000Y-8108000D02*
X11664000Y-8148000D01*
X11702100Y-9759000D02*
X11742100Y-9799000D01*
X11742100Y-9759000D02*
X11702100Y-9799000D01*
X11803700Y-10927400D02*
X11843700Y-10967400D01*
X11843700Y-10927400D02*
X11803700Y-10967400D01*
X11918000Y-10482900D02*
X11958000Y-10522900D01*
X11958000Y-10482900D02*
X11918000Y-10522900D01*
X12248200Y-9187500D02*
X12288200Y-9227500D01*
X12288200Y-9187500D02*
X12248200Y-9227500D01*
X12362500Y-8933500D02*
X12402500Y-8973500D01*
X12402500Y-8933500D02*
X12362500Y-8973500D01*
X13010200Y-11473500D02*
X13050200Y-11513500D01*
X13050200Y-11473500D02*
X13010200Y-11513500D01*
X13302300Y-10546400D02*
X13342300Y-10586400D01*
X13342300Y-10546400D02*
X13302300Y-10586400D01*
X13315000Y-11968800D02*
X13355000Y-12008800D01*
X13355000Y-11968800D02*
X13315000Y-12008800D01*
X13835700Y-9035100D02*
X13875700Y-9075100D01*
X13875700Y-9035100D02*
X13835700Y-9075100D01*
X13848400Y-10762300D02*
X13888400Y-10802300D01*
X13888400Y-10762300D02*
X13848400Y-10802300D01*
X13911900Y-9962200D02*
X13951900Y-10002200D01*
X13951900Y-9962200D02*
X13911900Y-10002200D01*
X14102400Y-10927400D02*
X14142400Y-10967400D01*
X14142400Y-10927400D02*
X14102400Y-10967400D01*
X14140500Y-10571800D02*
X14180500Y-10611800D01*
X14180500Y-10571800D02*
X14140500Y-10611800D01*
X14813600Y-12629200D02*
X14853600Y-12669200D01*
X14853600Y-12629200D02*
X14813600Y-12669200D01*
X14889800Y-12045000D02*
X14929800Y-12085000D01*
X14929800Y-12045000D02*
X14889800Y-12085000D01*
X14991400Y-11752900D02*
X15031400Y-11792900D01*
X15031400Y-11752900D02*
X14991400Y-11792900D01*
X15042200Y-12375200D02*
X15082200Y-12415200D01*
X15082200Y-12375200D02*
X15042200Y-12415200D01*
X15118400Y-9212900D02*
X15158400Y-9252900D01*
X15158400Y-9212900D02*
X15118400Y-9252900D01*
X15220000Y-11994200D02*
X15260000Y-12034200D01*
X15260000Y-11994200D02*
X15220000Y-12034200D01*
X15385100Y-9987600D02*
X15425100Y-10027600D01*
X15425100Y-9987600D02*
X15385100Y-10027600D01*
X15397800Y-11740200D02*
X15437800Y-11780200D01*
X15437800Y-11740200D02*
X15397800Y-11780200D01*
X15486700Y-8768400D02*
X15526700Y-8808400D01*
X15526700Y-8768400D02*
X15486700Y-8808400D01*
X15639100Y-9441500D02*
X15679100Y-9481500D01*
X15679100Y-9441500D02*
X15639100Y-9481500D01*
X15689900Y-8171500D02*
X15729900Y-8211500D01*
X15729900Y-8171500D02*
X15689900Y-8211500D01*
X16134400Y-8577900D02*
X16174400Y-8617900D01*
X16174400Y-8577900D02*
X16134400Y-8617900D01*
X16210600Y-9390700D02*
X16250600Y-9430700D01*
X16250600Y-9390700D02*
X16210600Y-9430700D01*
X16223300Y-10190800D02*
X16263300Y-10230800D01*
X16263300Y-10190800D02*
X16223300Y-10230800D01*
D12*
X10463100Y-7515500D02*
G75*
G02*
X10463100Y-7515500I-38100J0D01*
G01*
X10463100Y-7769500D02*
G75*
G02*
X10463100Y-7769500I-38100J0D01*
G01*
X10463100Y-8023500D02*
G75*
G02*
X10463100Y-8023500I-38100J0D01*
G01*
X10463100Y-8277500D02*
G75*
G02*
X10463100Y-8277500I-38100J0D01*
G01*
X10463100Y-9115500D02*
G75*
G02*
X10463100Y-9115500I-38100J0D01*
G01*
X10463100Y-9369500D02*
G75*
G02*
X10463100Y-9369500I-38100J0D01*
G01*
X10463100Y-9623500D02*
G75*
G02*
X10463100Y-9623500I-38100J0D01*
G01*
X10463100Y-9877500D02*
G75*
G02*
X10463100Y-9877500I-38100J0D01*
G01*
X10717100Y-7642500D02*
G75*
G02*
X10717100Y-7642500I-38100J0D01*
G01*
X10717100Y-7896500D02*
G75*
G02*
X10717100Y-7896500I-38100J0D01*
G01*
X10717100Y-8150500D02*
G75*
G02*
X10717100Y-8150500I-38100J0D01*
G01*
X10717100Y-8404500D02*
G75*
G02*
X10717100Y-8404500I-38100J0D01*
G01*
X10717100Y-9242500D02*
G75*
G02*
X10717100Y-9242500I-38100J0D01*
G01*
X10717100Y-9496500D02*
G75*
G02*
X10717100Y-9496500I-38100J0D01*
G01*
X10717100Y-9750500D02*
G75*
G02*
X10717100Y-9750500I-38100J0D01*
G01*
X10717100Y-10004500D02*
G75*
G02*
X10717100Y-10004500I-38100J0D01*
G01*
X15257240Y-12605560D02*
G75*
G02*
X15257240Y-12605560I-38100J0D01*
G01*
X15384240Y-12351560D02*
G75*
G02*
X15384240Y-12351560I-38100J0D01*
G01*
X15511240Y-12605560D02*
G75*
G02*
X15511240Y-12605560I-38100J0D01*
G01*
X15638240Y-12351560D02*
G75*
G02*
X15638240Y-12351560I-38100J0D01*
G01*
X15765240Y-12605560D02*
G75*
G02*
X15765240Y-12605560I-38100J0D01*
G01*
X15892240Y-12351560D02*
G75*
G02*
X15892240Y-12351560I-38100J0D01*
G01*
X16019240Y-12605560D02*
G75*
G02*
X16019240Y-12605560I-38100J0D01*
G01*
X16146240Y-12351560D02*
G75*
G02*
X16146240Y-12351560I-38100J0D01*
G01*
X16859100Y-7515500D02*
G75*
G02*
X16859100Y-7515500I-38100J0D01*
G01*
X16859100Y-7769500D02*
G75*
G02*
X16859100Y-7769500I-38100J0D01*
G01*
X16859100Y-8023500D02*
G75*
G02*
X16859100Y-8023500I-38100J0D01*
G01*
X16859100Y-8277500D02*
G75*
G02*
X16859100Y-8277500I-38100J0D01*
G01*
X16859100Y-9115500D02*
G75*
G02*
X16859100Y-9115500I-38100J0D01*
G01*
X16859100Y-9369500D02*
G75*
G02*
X16859100Y-9369500I-38100J0D01*
G01*
X16859100Y-9623500D02*
G75*
G02*
X16859100Y-9623500I-38100J0D01*
G01*
X16859100Y-9877500D02*
G75*
G02*
X16859100Y-9877500I-38100J0D01*
G01*
X17113100Y-7642500D02*
G75*
G02*
X17113100Y-7642500I-38100J0D01*
G01*
X17113100Y-7896500D02*
G75*
G02*
X17113100Y-7896500I-38100J0D01*
G01*
X17113100Y-8150500D02*
G75*
G02*
X17113100Y-8150500I-38100J0D01*
G01*
X17113100Y-8404500D02*
G75*
G02*
X17113100Y-8404500I-38100J0D01*
G01*
X17113100Y-9242500D02*
G75*
G02*
X17113100Y-9242500I-38100J0D01*
G01*
X17113100Y-9496500D02*
G75*
G02*
X17113100Y-9496500I-38100J0D01*
G01*
X17113100Y-9750500D02*
G75*
G02*
X17113100Y-9750500I-38100J0D01*
G01*
X17113100Y-10004500D02*
G75*
G02*
X17113100Y-10004500I-38100J0D01*
G01*
D13*
X10403840Y-5812320D02*
X10403840Y-5912320D01*
X10353840Y-5862320D02*
X10453840Y-5862320D01*
X10705230Y-5050600D02*
X10705230Y-5150600D01*
X10655230Y-5100600D02*
X10755230Y-5100600D01*
D10*
X10655230Y-5000600D02*
X10655230Y-5200600D01*
X10655230Y-5200600D02*
G75*
G02*
X10655230Y-5200600I50000J0D01*
G01*
X10755230Y-5200600D02*
X10755230Y-5000600D01*
X10755230Y-5000600D02*
G75*
G02*
X10655230Y-5000600I-50000J0D01*
G01*
D13*
X11175230Y-4750600D02*
X11175230Y-4850600D01*
X11125230Y-4800600D02*
X11225230Y-4800600D01*
D10*
X11275230Y-4750600D02*
X11075230Y-4750600D01*
X11075230Y-4850600D02*
G75*
G02*
X11125230Y-4800600I0J50000D01*
G01*
X11075230Y-4850600D02*
X11275230Y-4850600D01*
X11275230Y-4750600D02*
G75*
G02*
X11325230Y-4800600I0J-50000D01*
G01*
D13*
X11175230Y-5350600D02*
X11175230Y-5450600D01*
X11125230Y-5400600D02*
X11225230Y-5400600D01*
D10*
X11275230Y-5350600D02*
X11075230Y-5350600D01*
X11075230Y-5450600D02*
G75*
G02*
X11125230Y-5400600I0J50000D01*
G01*
X11075230Y-5450600D02*
X11275230Y-5450600D01*
X11275230Y-5350600D02*
G75*
G02*
X11325230Y-5400600I0J-50000D01*
G01*
D13*
X11404600Y-5786920D02*
X11404600Y-5886920D01*
X11354600Y-5836920D02*
X11454600Y-5836920D01*
X12700000Y-7785500D02*
X12700000Y-7885500D01*
X12650000Y-7835500D02*
X12750000Y-7835500D01*
X12700000Y-8039500D02*
X12700000Y-8139500D01*
X12650000Y-8089500D02*
X12750000Y-8089500D01*
X12700000Y-8293500D02*
X12700000Y-8393500D01*
X12650000Y-8343500D02*
X12750000Y-8343500D01*
X12700000Y-8547500D02*
X12700000Y-8647500D01*
X12650000Y-8597500D02*
X12750000Y-8597500D01*
X12700000Y-8801500D02*
X12700000Y-8901500D01*
X12650000Y-8851500D02*
X12750000Y-8851500D01*
X12700000Y-9055500D02*
X12700000Y-9155500D01*
X12650000Y-9105500D02*
X12750000Y-9105500D01*
X12700000Y-9309500D02*
X12700000Y-9409500D01*
X12650000Y-9359500D02*
X12750000Y-9359500D01*
X12700000Y-9563500D02*
X12700000Y-9663500D01*
X12650000Y-9613500D02*
X12750000Y-9613500D01*
X12700000Y-9817500D02*
X12700000Y-9917500D01*
X12650000Y-9867500D02*
X12750000Y-9867500D01*
X12700000Y-10071500D02*
X12700000Y-10171500D01*
X12650000Y-10121500D02*
X12750000Y-10121500D01*
X12700000Y-10325500D02*
X12700000Y-10425500D01*
X12650000Y-10375500D02*
X12750000Y-10375500D01*
X12700000Y-10579500D02*
X12700000Y-10679500D01*
X12650000Y-10629500D02*
X12750000Y-10629500D01*
X12700000Y-10833500D02*
X12700000Y-10933500D01*
X12650000Y-10883500D02*
X12750000Y-10883500D01*
X12700000Y-11595500D02*
X12700000Y-11695500D01*
X12650000Y-11645500D02*
X12750000Y-11645500D01*
X12700000Y-11849500D02*
X12700000Y-11949500D01*
X12650000Y-11899500D02*
X12750000Y-11899500D01*
X12700000Y-12103500D02*
X12700000Y-12203500D01*
X12650000Y-12153500D02*
X12750000Y-12153500D01*
X12700000Y-12357500D02*
X12700000Y-12457500D01*
X12650000Y-12407500D02*
X12750000Y-12407500D01*
X12700000Y-12611500D02*
X12700000Y-12711500D01*
X12650000Y-12661500D02*
X12750000Y-12661500D01*
X13022580Y-9628500D02*
X13022580Y-9728500D01*
X12972580Y-9678500D02*
X13072580Y-9678500D01*
X13276580Y-9628500D02*
X13276580Y-9728500D01*
X13226580Y-9678500D02*
X13326580Y-9678500D01*
X13335000Y-7808500D02*
X13335000Y-7908500D01*
X13285000Y-7858500D02*
X13385000Y-7858500D01*
X13530580Y-9628500D02*
X13530580Y-9728500D01*
X13480580Y-9678500D02*
X13580580Y-9678500D01*
X13589000Y-7808500D02*
X13589000Y-7908500D01*
X13539000Y-7858500D02*
X13639000Y-7858500D01*
X13843000Y-7808500D02*
X13843000Y-7908500D01*
X13793000Y-7858500D02*
X13893000Y-7858500D01*
X14478000Y-7785500D02*
X14478000Y-7885500D01*
X14428000Y-7835500D02*
X14528000Y-7835500D01*
X14478000Y-8039500D02*
X14478000Y-8139500D01*
X14428000Y-8089500D02*
X14528000Y-8089500D01*
X14478000Y-8293500D02*
X14478000Y-8393500D01*
X14428000Y-8343500D02*
X14528000Y-8343500D01*
X14478000Y-8547500D02*
X14478000Y-8647500D01*
X14428000Y-8597500D02*
X14528000Y-8597500D01*
X14478000Y-8801500D02*
X14478000Y-8901500D01*
X14428000Y-8851500D02*
X14528000Y-8851500D01*
X14478000Y-9055500D02*
X14478000Y-9155500D01*
X14428000Y-9105500D02*
X14528000Y-9105500D01*
X14478000Y-9309500D02*
X14478000Y-9409500D01*
X14428000Y-9359500D02*
X14528000Y-9359500D01*
X14478000Y-9563500D02*
X14478000Y-9663500D01*
X14428000Y-9613500D02*
X14528000Y-9613500D01*
X14478000Y-9817500D02*
X14478000Y-9917500D01*
X14428000Y-9867500D02*
X14528000Y-9867500D01*
X14478000Y-10071500D02*
X14478000Y-10171500D01*
X14428000Y-10121500D02*
X14528000Y-10121500D01*
X14478000Y-10325500D02*
X14478000Y-10425500D01*
X14428000Y-10375500D02*
X14528000Y-10375500D01*
X14478000Y-10579500D02*
X14478000Y-10679500D01*
X14428000Y-10629500D02*
X14528000Y-10629500D01*
X14478000Y-10833500D02*
X14478000Y-10933500D01*
X14428000Y-10883500D02*
X14528000Y-10883500D01*
X14478000Y-11595500D02*
X14478000Y-11695500D01*
X14428000Y-11645500D02*
X14528000Y-11645500D01*
X14478000Y-11849500D02*
X14478000Y-11949500D01*
X14428000Y-11899500D02*
X14528000Y-11899500D01*
X14478000Y-12103500D02*
X14478000Y-12203500D01*
X14428000Y-12153500D02*
X14528000Y-12153500D01*
X14478000Y-12357500D02*
X14478000Y-12457500D01*
X14428000Y-12407500D02*
X14528000Y-12407500D01*
X14478000Y-12611500D02*
X14478000Y-12711500D01*
X14428000Y-12661500D02*
X14528000Y-12661500D01*
X17221200Y-6693700D02*
X17221200Y-6793700D01*
X17171200Y-6743700D02*
X17271200Y-6743700D01*
X17246600Y-5944400D02*
X17246600Y-6044400D01*
X17196600Y-5994400D02*
X17296600Y-5994400D01*
D14*
X15102533Y-11305233D02*
X15102533Y-11199166D01*
X14996466Y-11199166D01*
X14996466Y-11305233D01*
X15102533Y-11305233D01*
D10*
X12246960Y-6787500D02*
X12346960Y-6687500D01*
X12246960Y-6587500D01*
X12146960Y-6687500D01*
X12246960Y-6787500D01*
X12252960Y-4849800D02*
X12352960Y-4749800D01*
X12252960Y-4649800D01*
X12152960Y-4749800D01*
X12252960Y-4849800D01*
X16740660Y-4843800D02*
X16840660Y-4743800D01*
X16740660Y-4643800D01*
X16640660Y-4743800D01*
X16740660Y-4843800D01*
X16740660Y-6787500D02*
X16840660Y-6687500D01*
X16740660Y-6587500D01*
X16640660Y-6687500D01*
X16740660Y-6787500D01*
X9750777Y-13821484D02*
X9750777Y-13621484D01*
X9750777Y-13621484D02*
X9798396Y-13621484D01*
X9798396Y-13621484D02*
X9826967Y-13631008D01*
X9826967Y-13631008D02*
X9846015Y-13650055D01*
X9846015Y-13650055D02*
X9855539Y-13669103D01*
X9855539Y-13669103D02*
X9865063Y-13707198D01*
X9865063Y-13707198D02*
X9865063Y-13735769D01*
X9865063Y-13735769D02*
X9855539Y-13773865D01*
X9855539Y-13773865D02*
X9846015Y-13792912D01*
X9846015Y-13792912D02*
X9826967Y-13811960D01*
X9826967Y-13811960D02*
X9798396Y-13821484D01*
X9798396Y-13821484D02*
X9750777Y-13821484D01*
X9950777Y-13821484D02*
X9950777Y-13688150D01*
X9950777Y-13726246D02*
X9960301Y-13707198D01*
X9960301Y-13707198D02*
X9969824Y-13697674D01*
X9969824Y-13697674D02*
X9988872Y-13688150D01*
X9988872Y-13688150D02*
X10007920Y-13688150D01*
X10074586Y-13821484D02*
X10074586Y-13688150D01*
X10074586Y-13621484D02*
X10065063Y-13631008D01*
X10065063Y-13631008D02*
X10074586Y-13640531D01*
X10074586Y-13640531D02*
X10084110Y-13631008D01*
X10084110Y-13631008D02*
X10074586Y-13621484D01*
X10074586Y-13621484D02*
X10074586Y-13640531D01*
X10198396Y-13821484D02*
X10179348Y-13811960D01*
X10179348Y-13811960D02*
X10169824Y-13792912D01*
X10169824Y-13792912D02*
X10169824Y-13621484D01*
X10303158Y-13821484D02*
X10284110Y-13811960D01*
X10284110Y-13811960D02*
X10274586Y-13792912D01*
X10274586Y-13792912D02*
X10274586Y-13621484D01*
X10531729Y-13821484D02*
X10531729Y-13621484D01*
X10531729Y-13621484D02*
X10598396Y-13764341D01*
X10598396Y-13764341D02*
X10665063Y-13621484D01*
X10665063Y-13621484D02*
X10665063Y-13821484D01*
X10846015Y-13821484D02*
X10846015Y-13716722D01*
X10846015Y-13716722D02*
X10836491Y-13697674D01*
X10836491Y-13697674D02*
X10817444Y-13688150D01*
X10817444Y-13688150D02*
X10779348Y-13688150D01*
X10779348Y-13688150D02*
X10760301Y-13697674D01*
X10846015Y-13811960D02*
X10826967Y-13821484D01*
X10826967Y-13821484D02*
X10779348Y-13821484D01*
X10779348Y-13821484D02*
X10760301Y-13811960D01*
X10760301Y-13811960D02*
X10750777Y-13792912D01*
X10750777Y-13792912D02*
X10750777Y-13773865D01*
X10750777Y-13773865D02*
X10760301Y-13754817D01*
X10760301Y-13754817D02*
X10779348Y-13745293D01*
X10779348Y-13745293D02*
X10826967Y-13745293D01*
X10826967Y-13745293D02*
X10846015Y-13735769D01*
X10941253Y-13688150D02*
X10941253Y-13888150D01*
X10941253Y-13697674D02*
X10960301Y-13688150D01*
X10960301Y-13688150D02*
X10998396Y-13688150D01*
X10998396Y-13688150D02*
X11017444Y-13697674D01*
X11017444Y-13697674D02*
X11026967Y-13707198D01*
X11026967Y-13707198D02*
X11036491Y-13726246D01*
X11036491Y-13726246D02*
X11036491Y-13783388D01*
X11036491Y-13783388D02*
X11026967Y-13802436D01*
X11026967Y-13802436D02*
X11017444Y-13811960D01*
X11017444Y-13811960D02*
X10998396Y-13821484D01*
X10998396Y-13821484D02*
X10960301Y-13821484D01*
X10960301Y-13821484D02*
X10941253Y-13811960D01*
X11122205Y-13802436D02*
X11131729Y-13811960D01*
X11131729Y-13811960D02*
X11122205Y-13821484D01*
X11122205Y-13821484D02*
X11112682Y-13811960D01*
X11112682Y-13811960D02*
X11122205Y-13802436D01*
X11122205Y-13802436D02*
X11122205Y-13821484D01*
X11122205Y-13697674D02*
X11131729Y-13707198D01*
X11131729Y-13707198D02*
X11122205Y-13716722D01*
X11122205Y-13716722D02*
X11112682Y-13707198D01*
X11112682Y-13707198D02*
X11122205Y-13697674D01*
X11122205Y-13697674D02*
X11122205Y-13716722D01*
D11*
X9450000Y-14130000D02*
X9490000Y-14170000D01*
X9490000Y-14130000D02*
X9450000Y-14170000D01*
D10*
X9788872Y-14041484D02*
X9807920Y-14041484D01*
X9807920Y-14041484D02*
X9826967Y-14051008D01*
X9826967Y-14051008D02*
X9836491Y-14060531D01*
X9836491Y-14060531D02*
X9846015Y-14079579D01*
X9846015Y-14079579D02*
X9855539Y-14117674D01*
X9855539Y-14117674D02*
X9855539Y-14165293D01*
X9855539Y-14165293D02*
X9846015Y-14203388D01*
X9846015Y-14203388D02*
X9836491Y-14222436D01*
X9836491Y-14222436D02*
X9826967Y-14231960D01*
X9826967Y-14231960D02*
X9807920Y-14241484D01*
X9807920Y-14241484D02*
X9788872Y-14241484D01*
X9788872Y-14241484D02*
X9769824Y-14231960D01*
X9769824Y-14231960D02*
X9760301Y-14222436D01*
X9760301Y-14222436D02*
X9750777Y-14203388D01*
X9750777Y-14203388D02*
X9741253Y-14165293D01*
X9741253Y-14165293D02*
X9741253Y-14117674D01*
X9741253Y-14117674D02*
X9750777Y-14079579D01*
X9750777Y-14079579D02*
X9760301Y-14060531D01*
X9760301Y-14060531D02*
X9769824Y-14051008D01*
X9769824Y-14051008D02*
X9788872Y-14041484D01*
X9941253Y-14222436D02*
X9950777Y-14231960D01*
X9950777Y-14231960D02*
X9941253Y-14241484D01*
X9941253Y-14241484D02*
X9931729Y-14231960D01*
X9931729Y-14231960D02*
X9941253Y-14222436D01*
X9941253Y-14222436D02*
X9941253Y-14241484D01*
X10122205Y-14108150D02*
X10122205Y-14241484D01*
X10074586Y-14031960D02*
X10026967Y-14174817D01*
X10026967Y-14174817D02*
X10150777Y-14174817D01*
X10265063Y-14041484D02*
X10284110Y-14041484D01*
X10284110Y-14041484D02*
X10303158Y-14051008D01*
X10303158Y-14051008D02*
X10312682Y-14060531D01*
X10312682Y-14060531D02*
X10322205Y-14079579D01*
X10322205Y-14079579D02*
X10331729Y-14117674D01*
X10331729Y-14117674D02*
X10331729Y-14165293D01*
X10331729Y-14165293D02*
X10322205Y-14203388D01*
X10322205Y-14203388D02*
X10312682Y-14222436D01*
X10312682Y-14222436D02*
X10303158Y-14231960D01*
X10303158Y-14231960D02*
X10284110Y-14241484D01*
X10284110Y-14241484D02*
X10265063Y-14241484D01*
X10265063Y-14241484D02*
X10246015Y-14231960D01*
X10246015Y-14231960D02*
X10236491Y-14222436D01*
X10236491Y-14222436D02*
X10226967Y-14203388D01*
X10226967Y-14203388D02*
X10217444Y-14165293D01*
X10217444Y-14165293D02*
X10217444Y-14117674D01*
X10217444Y-14117674D02*
X10226967Y-14079579D01*
X10226967Y-14079579D02*
X10236491Y-14060531D01*
X10236491Y-14060531D02*
X10246015Y-14051008D01*
X10246015Y-14051008D02*
X10265063Y-14041484D01*
X10455539Y-14041484D02*
X10474586Y-14041484D01*
X10474586Y-14041484D02*
X10493634Y-14051008D01*
X10493634Y-14051008D02*
X10503158Y-14060531D01*
X10503158Y-14060531D02*
X10512682Y-14079579D01*
X10512682Y-14079579D02*
X10522205Y-14117674D01*
X10522205Y-14117674D02*
X10522205Y-14165293D01*
X10522205Y-14165293D02*
X10512682Y-14203388D01*
X10512682Y-14203388D02*
X10503158Y-14222436D01*
X10503158Y-14222436D02*
X10493634Y-14231960D01*
X10493634Y-14231960D02*
X10474586Y-14241484D01*
X10474586Y-14241484D02*
X10455539Y-14241484D01*
X10455539Y-14241484D02*
X10436491Y-14231960D01*
X10436491Y-14231960D02*
X10426967Y-14222436D01*
X10426967Y-14222436D02*
X10417444Y-14203388D01*
X10417444Y-14203388D02*
X10407920Y-14165293D01*
X10407920Y-14165293D02*
X10407920Y-14117674D01*
X10407920Y-14117674D02*
X10417444Y-14079579D01*
X10417444Y-14079579D02*
X10426967Y-14060531D01*
X10426967Y-14060531D02*
X10436491Y-14051008D01*
X10436491Y-14051008D02*
X10455539Y-14041484D01*
X10607920Y-14241484D02*
X10607920Y-14108150D01*
X10607920Y-14127198D02*
X10617444Y-14117674D01*
X10617444Y-14117674D02*
X10636491Y-14108150D01*
X10636491Y-14108150D02*
X10665063Y-14108150D01*
X10665063Y-14108150D02*
X10684110Y-14117674D01*
X10684110Y-14117674D02*
X10693634Y-14136722D01*
X10693634Y-14136722D02*
X10693634Y-14241484D01*
X10693634Y-14136722D02*
X10703158Y-14117674D01*
X10703158Y-14117674D02*
X10722205Y-14108150D01*
X10722205Y-14108150D02*
X10750777Y-14108150D01*
X10750777Y-14108150D02*
X10769825Y-14117674D01*
X10769825Y-14117674D02*
X10779348Y-14136722D01*
X10779348Y-14136722D02*
X10779348Y-14241484D01*
X10874586Y-14241484D02*
X10874586Y-14108150D01*
X10874586Y-14127198D02*
X10884110Y-14117674D01*
X10884110Y-14117674D02*
X10903158Y-14108150D01*
X10903158Y-14108150D02*
X10931729Y-14108150D01*
X10931729Y-14108150D02*
X10950777Y-14117674D01*
X10950777Y-14117674D02*
X10960301Y-14136722D01*
X10960301Y-14136722D02*
X10960301Y-14241484D01*
X10960301Y-14136722D02*
X10969825Y-14117674D01*
X10969825Y-14117674D02*
X10988872Y-14108150D01*
X10988872Y-14108150D02*
X11017444Y-14108150D01*
X11017444Y-14108150D02*
X11036491Y-14117674D01*
X11036491Y-14117674D02*
X11046015Y-14136722D01*
X11046015Y-14136722D02*
X11046015Y-14241484D01*
X11436491Y-14031960D02*
X11265063Y-14289103D01*
X11693634Y-14041484D02*
X11712682Y-14041484D01*
X11712682Y-14041484D02*
X11731729Y-14051008D01*
X11731729Y-14051008D02*
X11741253Y-14060531D01*
X11741253Y-14060531D02*
X11750777Y-14079579D01*
X11750777Y-14079579D02*
X11760301Y-14117674D01*
X11760301Y-14117674D02*
X11760301Y-14165293D01*
X11760301Y-14165293D02*
X11750777Y-14203388D01*
X11750777Y-14203388D02*
X11741253Y-14222436D01*
X11741253Y-14222436D02*
X11731729Y-14231960D01*
X11731729Y-14231960D02*
X11712682Y-14241484D01*
X11712682Y-14241484D02*
X11693634Y-14241484D01*
X11693634Y-14241484D02*
X11674586Y-14231960D01*
X11674586Y-14231960D02*
X11665063Y-14222436D01*
X11665063Y-14222436D02*
X11655539Y-14203388D01*
X11655539Y-14203388D02*
X11646015Y-14165293D01*
X11646015Y-14165293D02*
X11646015Y-14117674D01*
X11646015Y-14117674D02*
X11655539Y-14079579D01*
X11655539Y-14079579D02*
X11665063Y-14060531D01*
X11665063Y-14060531D02*
X11674586Y-14051008D01*
X11674586Y-14051008D02*
X11693634Y-14041484D01*
X11846015Y-14222436D02*
X11855539Y-14231960D01*
X11855539Y-14231960D02*
X11846015Y-14241484D01*
X11846015Y-14241484D02*
X11836491Y-14231960D01*
X11836491Y-14231960D02*
X11846015Y-14222436D01*
X11846015Y-14222436D02*
X11846015Y-14241484D01*
X11979348Y-14041484D02*
X11998396Y-14041484D01*
X11998396Y-14041484D02*
X12017444Y-14051008D01*
X12017444Y-14051008D02*
X12026967Y-14060531D01*
X12026967Y-14060531D02*
X12036491Y-14079579D01*
X12036491Y-14079579D02*
X12046015Y-14117674D01*
X12046015Y-14117674D02*
X12046015Y-14165293D01*
X12046015Y-14165293D02*
X12036491Y-14203388D01*
X12036491Y-14203388D02*
X12026967Y-14222436D01*
X12026967Y-14222436D02*
X12017444Y-14231960D01*
X12017444Y-14231960D02*
X11998396Y-14241484D01*
X11998396Y-14241484D02*
X11979348Y-14241484D01*
X11979348Y-14241484D02*
X11960301Y-14231960D01*
X11960301Y-14231960D02*
X11950777Y-14222436D01*
X11950777Y-14222436D02*
X11941253Y-14203388D01*
X11941253Y-14203388D02*
X11931729Y-14165293D01*
X11931729Y-14165293D02*
X11931729Y-14117674D01*
X11931729Y-14117674D02*
X11941253Y-14079579D01*
X11941253Y-14079579D02*
X11950777Y-14060531D01*
X11950777Y-14060531D02*
X11960301Y-14051008D01*
X11960301Y-14051008D02*
X11979348Y-14041484D01*
X12236491Y-14241484D02*
X12122206Y-14241484D01*
X12179348Y-14241484D02*
X12179348Y-14041484D01*
X12179348Y-14041484D02*
X12160301Y-14070055D01*
X12160301Y-14070055D02*
X12141253Y-14089103D01*
X12141253Y-14089103D02*
X12122206Y-14098627D01*
X12417444Y-14041484D02*
X12322206Y-14041484D01*
X12322206Y-14041484D02*
X12312682Y-14136722D01*
X12312682Y-14136722D02*
X12322206Y-14127198D01*
X12322206Y-14127198D02*
X12341253Y-14117674D01*
X12341253Y-14117674D02*
X12388872Y-14117674D01*
X12388872Y-14117674D02*
X12407920Y-14127198D01*
X12407920Y-14127198D02*
X12417444Y-14136722D01*
X12417444Y-14136722D02*
X12426967Y-14155769D01*
X12426967Y-14155769D02*
X12426967Y-14203388D01*
X12426967Y-14203388D02*
X12417444Y-14222436D01*
X12417444Y-14222436D02*
X12407920Y-14231960D01*
X12407920Y-14231960D02*
X12388872Y-14241484D01*
X12388872Y-14241484D02*
X12341253Y-14241484D01*
X12341253Y-14241484D02*
X12322206Y-14231960D01*
X12322206Y-14231960D02*
X12312682Y-14222436D01*
X12493634Y-14041484D02*
X12626967Y-14041484D01*
X12626967Y-14041484D02*
X12541253Y-14241484D01*
X12693634Y-14041484D02*
X12693634Y-14079579D01*
X12769825Y-14041484D02*
X12769825Y-14079579D01*
X13065063Y-14317674D02*
X13055539Y-14308150D01*
X13055539Y-14308150D02*
X13036491Y-14279579D01*
X13036491Y-14279579D02*
X13026968Y-14260531D01*
X13026968Y-14260531D02*
X13017444Y-14231960D01*
X13017444Y-14231960D02*
X13007920Y-14184341D01*
X13007920Y-14184341D02*
X13007920Y-14146246D01*
X13007920Y-14146246D02*
X13017444Y-14098627D01*
X13017444Y-14098627D02*
X13026968Y-14070055D01*
X13026968Y-14070055D02*
X13036491Y-14051008D01*
X13036491Y-14051008D02*
X13055539Y-14022436D01*
X13055539Y-14022436D02*
X13065063Y-14012912D01*
X13226968Y-14108150D02*
X13226968Y-14241484D01*
X13179348Y-14031960D02*
X13131729Y-14174817D01*
X13131729Y-14174817D02*
X13255539Y-14174817D01*
X13322206Y-14060531D02*
X13331729Y-14051008D01*
X13331729Y-14051008D02*
X13350777Y-14041484D01*
X13350777Y-14041484D02*
X13398396Y-14041484D01*
X13398396Y-14041484D02*
X13417444Y-14051008D01*
X13417444Y-14051008D02*
X13426968Y-14060531D01*
X13426968Y-14060531D02*
X13436491Y-14079579D01*
X13436491Y-14079579D02*
X13436491Y-14098627D01*
X13436491Y-14098627D02*
X13426968Y-14127198D01*
X13426968Y-14127198D02*
X13312682Y-14241484D01*
X13312682Y-14241484D02*
X13436491Y-14241484D01*
X13674587Y-14241484D02*
X13674587Y-14041484D01*
X13760301Y-14241484D02*
X13760301Y-14136722D01*
X13760301Y-14136722D02*
X13750777Y-14117674D01*
X13750777Y-14117674D02*
X13731730Y-14108150D01*
X13731730Y-14108150D02*
X13703158Y-14108150D01*
X13703158Y-14108150D02*
X13684110Y-14117674D01*
X13684110Y-14117674D02*
X13674587Y-14127198D01*
X13884110Y-14241484D02*
X13865063Y-14231960D01*
X13865063Y-14231960D02*
X13855539Y-14222436D01*
X13855539Y-14222436D02*
X13846015Y-14203388D01*
X13846015Y-14203388D02*
X13846015Y-14146246D01*
X13846015Y-14146246D02*
X13855539Y-14127198D01*
X13855539Y-14127198D02*
X13865063Y-14117674D01*
X13865063Y-14117674D02*
X13884110Y-14108150D01*
X13884110Y-14108150D02*
X13912682Y-14108150D01*
X13912682Y-14108150D02*
X13931730Y-14117674D01*
X13931730Y-14117674D02*
X13941253Y-14127198D01*
X13941253Y-14127198D02*
X13950777Y-14146246D01*
X13950777Y-14146246D02*
X13950777Y-14203388D01*
X13950777Y-14203388D02*
X13941253Y-14222436D01*
X13941253Y-14222436D02*
X13931730Y-14231960D01*
X13931730Y-14231960D02*
X13912682Y-14241484D01*
X13912682Y-14241484D02*
X13884110Y-14241484D01*
X14065063Y-14241484D02*
X14046015Y-14231960D01*
X14046015Y-14231960D02*
X14036491Y-14212912D01*
X14036491Y-14212912D02*
X14036491Y-14041484D01*
X14217444Y-14231960D02*
X14198396Y-14241484D01*
X14198396Y-14241484D02*
X14160301Y-14241484D01*
X14160301Y-14241484D02*
X14141253Y-14231960D01*
X14141253Y-14231960D02*
X14131730Y-14212912D01*
X14131730Y-14212912D02*
X14131730Y-14136722D01*
X14131730Y-14136722D02*
X14141253Y-14117674D01*
X14141253Y-14117674D02*
X14160301Y-14108150D01*
X14160301Y-14108150D02*
X14198396Y-14108150D01*
X14198396Y-14108150D02*
X14217444Y-14117674D01*
X14217444Y-14117674D02*
X14226968Y-14136722D01*
X14226968Y-14136722D02*
X14226968Y-14155769D01*
X14226968Y-14155769D02*
X14131730Y-14174817D01*
X14303158Y-14231960D02*
X14322206Y-14241484D01*
X14322206Y-14241484D02*
X14360301Y-14241484D01*
X14360301Y-14241484D02*
X14379349Y-14231960D01*
X14379349Y-14231960D02*
X14388872Y-14212912D01*
X14388872Y-14212912D02*
X14388872Y-14203388D01*
X14388872Y-14203388D02*
X14379349Y-14184341D01*
X14379349Y-14184341D02*
X14360301Y-14174817D01*
X14360301Y-14174817D02*
X14331730Y-14174817D01*
X14331730Y-14174817D02*
X14312682Y-14165293D01*
X14312682Y-14165293D02*
X14303158Y-14146246D01*
X14303158Y-14146246D02*
X14303158Y-14136722D01*
X14303158Y-14136722D02*
X14312682Y-14117674D01*
X14312682Y-14117674D02*
X14331730Y-14108150D01*
X14331730Y-14108150D02*
X14360301Y-14108150D01*
X14360301Y-14108150D02*
X14379349Y-14117674D01*
X14455539Y-14317674D02*
X14465063Y-14308150D01*
X14465063Y-14308150D02*
X14484111Y-14279579D01*
X14484111Y-14279579D02*
X14493634Y-14260531D01*
X14493634Y-14260531D02*
X14503158Y-14231960D01*
X14503158Y-14231960D02*
X14512682Y-14184341D01*
X14512682Y-14184341D02*
X14512682Y-14146246D01*
X14512682Y-14146246D02*
X14503158Y-14098627D01*
X14503158Y-14098627D02*
X14493634Y-14070055D01*
X14493634Y-14070055D02*
X14484111Y-14051008D01*
X14484111Y-14051008D02*
X14465063Y-14022436D01*
X14465063Y-14022436D02*
X14455539Y-14012912D01*
D12*
X9490000Y-14414000D02*
G75*
G02*
X9490000Y-14414000I-38100J0D01*
G01*
D10*
X9788872Y-14305484D02*
X9807920Y-14305484D01*
X9807920Y-14305484D02*
X9826967Y-14315008D01*
X9826967Y-14315008D02*
X9836491Y-14324531D01*
X9836491Y-14324531D02*
X9846015Y-14343579D01*
X9846015Y-14343579D02*
X9855539Y-14381674D01*
X9855539Y-14381674D02*
X9855539Y-14429293D01*
X9855539Y-14429293D02*
X9846015Y-14467388D01*
X9846015Y-14467388D02*
X9836491Y-14486436D01*
X9836491Y-14486436D02*
X9826967Y-14495960D01*
X9826967Y-14495960D02*
X9807920Y-14505484D01*
X9807920Y-14505484D02*
X9788872Y-14505484D01*
X9788872Y-14505484D02*
X9769824Y-14495960D01*
X9769824Y-14495960D02*
X9760301Y-14486436D01*
X9760301Y-14486436D02*
X9750777Y-14467388D01*
X9750777Y-14467388D02*
X9741253Y-14429293D01*
X9741253Y-14429293D02*
X9741253Y-14381674D01*
X9741253Y-14381674D02*
X9750777Y-14343579D01*
X9750777Y-14343579D02*
X9760301Y-14324531D01*
X9760301Y-14324531D02*
X9769824Y-14315008D01*
X9769824Y-14315008D02*
X9788872Y-14305484D01*
X9941253Y-14486436D02*
X9950777Y-14495960D01*
X9950777Y-14495960D02*
X9941253Y-14505484D01*
X9941253Y-14505484D02*
X9931729Y-14495960D01*
X9931729Y-14495960D02*
X9941253Y-14486436D01*
X9941253Y-14486436D02*
X9941253Y-14505484D01*
X10017444Y-14305484D02*
X10150777Y-14305484D01*
X10150777Y-14305484D02*
X10065063Y-14505484D01*
X10312682Y-14305484D02*
X10274586Y-14305484D01*
X10274586Y-14305484D02*
X10255539Y-14315008D01*
X10255539Y-14315008D02*
X10246015Y-14324531D01*
X10246015Y-14324531D02*
X10226967Y-14353103D01*
X10226967Y-14353103D02*
X10217444Y-14391198D01*
X10217444Y-14391198D02*
X10217444Y-14467388D01*
X10217444Y-14467388D02*
X10226967Y-14486436D01*
X10226967Y-14486436D02*
X10236491Y-14495960D01*
X10236491Y-14495960D02*
X10255539Y-14505484D01*
X10255539Y-14505484D02*
X10293634Y-14505484D01*
X10293634Y-14505484D02*
X10312682Y-14495960D01*
X10312682Y-14495960D02*
X10322205Y-14486436D01*
X10322205Y-14486436D02*
X10331729Y-14467388D01*
X10331729Y-14467388D02*
X10331729Y-14419769D01*
X10331729Y-14419769D02*
X10322205Y-14400722D01*
X10322205Y-14400722D02*
X10312682Y-14391198D01*
X10312682Y-14391198D02*
X10293634Y-14381674D01*
X10293634Y-14381674D02*
X10255539Y-14381674D01*
X10255539Y-14381674D02*
X10236491Y-14391198D01*
X10236491Y-14391198D02*
X10226967Y-14400722D01*
X10226967Y-14400722D02*
X10217444Y-14419769D01*
X10407920Y-14324531D02*
X10417444Y-14315008D01*
X10417444Y-14315008D02*
X10436491Y-14305484D01*
X10436491Y-14305484D02*
X10484110Y-14305484D01*
X10484110Y-14305484D02*
X10503158Y-14315008D01*
X10503158Y-14315008D02*
X10512682Y-14324531D01*
X10512682Y-14324531D02*
X10522205Y-14343579D01*
X10522205Y-14343579D02*
X10522205Y-14362627D01*
X10522205Y-14362627D02*
X10512682Y-14391198D01*
X10512682Y-14391198D02*
X10398396Y-14505484D01*
X10398396Y-14505484D02*
X10522205Y-14505484D01*
X10607920Y-14505484D02*
X10607920Y-14372150D01*
X10607920Y-14391198D02*
X10617444Y-14381674D01*
X10617444Y-14381674D02*
X10636491Y-14372150D01*
X10636491Y-14372150D02*
X10665063Y-14372150D01*
X10665063Y-14372150D02*
X10684110Y-14381674D01*
X10684110Y-14381674D02*
X10693634Y-14400722D01*
X10693634Y-14400722D02*
X10693634Y-14505484D01*
X10693634Y-14400722D02*
X10703158Y-14381674D01*
X10703158Y-14381674D02*
X10722205Y-14372150D01*
X10722205Y-14372150D02*
X10750777Y-14372150D01*
X10750777Y-14372150D02*
X10769825Y-14381674D01*
X10769825Y-14381674D02*
X10779348Y-14400722D01*
X10779348Y-14400722D02*
X10779348Y-14505484D01*
X10874586Y-14505484D02*
X10874586Y-14372150D01*
X10874586Y-14391198D02*
X10884110Y-14381674D01*
X10884110Y-14381674D02*
X10903158Y-14372150D01*
X10903158Y-14372150D02*
X10931729Y-14372150D01*
X10931729Y-14372150D02*
X10950777Y-14381674D01*
X10950777Y-14381674D02*
X10960301Y-14400722D01*
X10960301Y-14400722D02*
X10960301Y-14505484D01*
X10960301Y-14400722D02*
X10969825Y-14381674D01*
X10969825Y-14381674D02*
X10988872Y-14372150D01*
X10988872Y-14372150D02*
X11017444Y-14372150D01*
X11017444Y-14372150D02*
X11036491Y-14381674D01*
X11036491Y-14381674D02*
X11046015Y-14400722D01*
X11046015Y-14400722D02*
X11046015Y-14505484D01*
X11436491Y-14295960D02*
X11265063Y-14553103D01*
X11693634Y-14305484D02*
X11712682Y-14305484D01*
X11712682Y-14305484D02*
X11731729Y-14315008D01*
X11731729Y-14315008D02*
X11741253Y-14324531D01*
X11741253Y-14324531D02*
X11750777Y-14343579D01*
X11750777Y-14343579D02*
X11760301Y-14381674D01*
X11760301Y-14381674D02*
X11760301Y-14429293D01*
X11760301Y-14429293D02*
X11750777Y-14467388D01*
X11750777Y-14467388D02*
X11741253Y-14486436D01*
X11741253Y-14486436D02*
X11731729Y-14495960D01*
X11731729Y-14495960D02*
X11712682Y-14505484D01*
X11712682Y-14505484D02*
X11693634Y-14505484D01*
X11693634Y-14505484D02*
X11674586Y-14495960D01*
X11674586Y-14495960D02*
X11665063Y-14486436D01*
X11665063Y-14486436D02*
X11655539Y-14467388D01*
X11655539Y-14467388D02*
X11646015Y-14429293D01*
X11646015Y-14429293D02*
X11646015Y-14381674D01*
X11646015Y-14381674D02*
X11655539Y-14343579D01*
X11655539Y-14343579D02*
X11665063Y-14324531D01*
X11665063Y-14324531D02*
X11674586Y-14315008D01*
X11674586Y-14315008D02*
X11693634Y-14305484D01*
X11846015Y-14486436D02*
X11855539Y-14495960D01*
X11855539Y-14495960D02*
X11846015Y-14505484D01*
X11846015Y-14505484D02*
X11836491Y-14495960D01*
X11836491Y-14495960D02*
X11846015Y-14486436D01*
X11846015Y-14486436D02*
X11846015Y-14505484D01*
X11979348Y-14305484D02*
X11998396Y-14305484D01*
X11998396Y-14305484D02*
X12017444Y-14315008D01*
X12017444Y-14315008D02*
X12026967Y-14324531D01*
X12026967Y-14324531D02*
X12036491Y-14343579D01*
X12036491Y-14343579D02*
X12046015Y-14381674D01*
X12046015Y-14381674D02*
X12046015Y-14429293D01*
X12046015Y-14429293D02*
X12036491Y-14467388D01*
X12036491Y-14467388D02*
X12026967Y-14486436D01*
X12026967Y-14486436D02*
X12017444Y-14495960D01*
X12017444Y-14495960D02*
X11998396Y-14505484D01*
X11998396Y-14505484D02*
X11979348Y-14505484D01*
X11979348Y-14505484D02*
X11960301Y-14495960D01*
X11960301Y-14495960D02*
X11950777Y-14486436D01*
X11950777Y-14486436D02*
X11941253Y-14467388D01*
X11941253Y-14467388D02*
X11931729Y-14429293D01*
X11931729Y-14429293D02*
X11931729Y-14381674D01*
X11931729Y-14381674D02*
X11941253Y-14343579D01*
X11941253Y-14343579D02*
X11950777Y-14324531D01*
X11950777Y-14324531D02*
X11960301Y-14315008D01*
X11960301Y-14315008D02*
X11979348Y-14305484D01*
X12112682Y-14305484D02*
X12236491Y-14305484D01*
X12236491Y-14305484D02*
X12169825Y-14381674D01*
X12169825Y-14381674D02*
X12198396Y-14381674D01*
X12198396Y-14381674D02*
X12217444Y-14391198D01*
X12217444Y-14391198D02*
X12226967Y-14400722D01*
X12226967Y-14400722D02*
X12236491Y-14419769D01*
X12236491Y-14419769D02*
X12236491Y-14467388D01*
X12236491Y-14467388D02*
X12226967Y-14486436D01*
X12226967Y-14486436D02*
X12217444Y-14495960D01*
X12217444Y-14495960D02*
X12198396Y-14505484D01*
X12198396Y-14505484D02*
X12141253Y-14505484D01*
X12141253Y-14505484D02*
X12122206Y-14495960D01*
X12122206Y-14495960D02*
X12112682Y-14486436D01*
X12360301Y-14305484D02*
X12379348Y-14305484D01*
X12379348Y-14305484D02*
X12398396Y-14315008D01*
X12398396Y-14315008D02*
X12407920Y-14324531D01*
X12407920Y-14324531D02*
X12417444Y-14343579D01*
X12417444Y-14343579D02*
X12426967Y-14381674D01*
X12426967Y-14381674D02*
X12426967Y-14429293D01*
X12426967Y-14429293D02*
X12417444Y-14467388D01*
X12417444Y-14467388D02*
X12407920Y-14486436D01*
X12407920Y-14486436D02*
X12398396Y-14495960D01*
X12398396Y-14495960D02*
X12379348Y-14505484D01*
X12379348Y-14505484D02*
X12360301Y-14505484D01*
X12360301Y-14505484D02*
X12341253Y-14495960D01*
X12341253Y-14495960D02*
X12331729Y-14486436D01*
X12331729Y-14486436D02*
X12322206Y-14467388D01*
X12322206Y-14467388D02*
X12312682Y-14429293D01*
X12312682Y-14429293D02*
X12312682Y-14381674D01*
X12312682Y-14381674D02*
X12322206Y-14343579D01*
X12322206Y-14343579D02*
X12331729Y-14324531D01*
X12331729Y-14324531D02*
X12341253Y-14315008D01*
X12341253Y-14315008D02*
X12360301Y-14305484D01*
X12550777Y-14305484D02*
X12569825Y-14305484D01*
X12569825Y-14305484D02*
X12588872Y-14315008D01*
X12588872Y-14315008D02*
X12598396Y-14324531D01*
X12598396Y-14324531D02*
X12607920Y-14343579D01*
X12607920Y-14343579D02*
X12617444Y-14381674D01*
X12617444Y-14381674D02*
X12617444Y-14429293D01*
X12617444Y-14429293D02*
X12607920Y-14467388D01*
X12607920Y-14467388D02*
X12598396Y-14486436D01*
X12598396Y-14486436D02*
X12588872Y-14495960D01*
X12588872Y-14495960D02*
X12569825Y-14505484D01*
X12569825Y-14505484D02*
X12550777Y-14505484D01*
X12550777Y-14505484D02*
X12531729Y-14495960D01*
X12531729Y-14495960D02*
X12522206Y-14486436D01*
X12522206Y-14486436D02*
X12512682Y-14467388D01*
X12512682Y-14467388D02*
X12503158Y-14429293D01*
X12503158Y-14429293D02*
X12503158Y-14381674D01*
X12503158Y-14381674D02*
X12512682Y-14343579D01*
X12512682Y-14343579D02*
X12522206Y-14324531D01*
X12522206Y-14324531D02*
X12531729Y-14315008D01*
X12531729Y-14315008D02*
X12550777Y-14305484D01*
X12693634Y-14305484D02*
X12693634Y-14343579D01*
X12769825Y-14305484D02*
X12769825Y-14343579D01*
X13065063Y-14581674D02*
X13055539Y-14572150D01*
X13055539Y-14572150D02*
X13036491Y-14543579D01*
X13036491Y-14543579D02*
X13026968Y-14524531D01*
X13026968Y-14524531D02*
X13017444Y-14495960D01*
X13017444Y-14495960D02*
X13007920Y-14448341D01*
X13007920Y-14448341D02*
X13007920Y-14410246D01*
X13007920Y-14410246D02*
X13017444Y-14362627D01*
X13017444Y-14362627D02*
X13026968Y-14334055D01*
X13026968Y-14334055D02*
X13036491Y-14315008D01*
X13036491Y-14315008D02*
X13055539Y-14286436D01*
X13055539Y-14286436D02*
X13065063Y-14276912D01*
X13226968Y-14372150D02*
X13226968Y-14505484D01*
X13179348Y-14295960D02*
X13131729Y-14438817D01*
X13131729Y-14438817D02*
X13255539Y-14438817D01*
X13369825Y-14305484D02*
X13388872Y-14305484D01*
X13388872Y-14305484D02*
X13407920Y-14315008D01*
X13407920Y-14315008D02*
X13417444Y-14324531D01*
X13417444Y-14324531D02*
X13426968Y-14343579D01*
X13426968Y-14343579D02*
X13436491Y-14381674D01*
X13436491Y-14381674D02*
X13436491Y-14429293D01*
X13436491Y-14429293D02*
X13426968Y-14467388D01*
X13426968Y-14467388D02*
X13417444Y-14486436D01*
X13417444Y-14486436D02*
X13407920Y-14495960D01*
X13407920Y-14495960D02*
X13388872Y-14505484D01*
X13388872Y-14505484D02*
X13369825Y-14505484D01*
X13369825Y-14505484D02*
X13350777Y-14495960D01*
X13350777Y-14495960D02*
X13341253Y-14486436D01*
X13341253Y-14486436D02*
X13331729Y-14467388D01*
X13331729Y-14467388D02*
X13322206Y-14429293D01*
X13322206Y-14429293D02*
X13322206Y-14381674D01*
X13322206Y-14381674D02*
X13331729Y-14343579D01*
X13331729Y-14343579D02*
X13341253Y-14324531D01*
X13341253Y-14324531D02*
X13350777Y-14315008D01*
X13350777Y-14315008D02*
X13369825Y-14305484D01*
X13674587Y-14505484D02*
X13674587Y-14305484D01*
X13760301Y-14505484D02*
X13760301Y-14400722D01*
X13760301Y-14400722D02*
X13750777Y-14381674D01*
X13750777Y-14381674D02*
X13731730Y-14372150D01*
X13731730Y-14372150D02*
X13703158Y-14372150D01*
X13703158Y-14372150D02*
X13684110Y-14381674D01*
X13684110Y-14381674D02*
X13674587Y-14391198D01*
X13884110Y-14505484D02*
X13865063Y-14495960D01*
X13865063Y-14495960D02*
X13855539Y-14486436D01*
X13855539Y-14486436D02*
X13846015Y-14467388D01*
X13846015Y-14467388D02*
X13846015Y-14410246D01*
X13846015Y-14410246D02*
X13855539Y-14391198D01*
X13855539Y-14391198D02*
X13865063Y-14381674D01*
X13865063Y-14381674D02*
X13884110Y-14372150D01*
X13884110Y-14372150D02*
X13912682Y-14372150D01*
X13912682Y-14372150D02*
X13931730Y-14381674D01*
X13931730Y-14381674D02*
X13941253Y-14391198D01*
X13941253Y-14391198D02*
X13950777Y-14410246D01*
X13950777Y-14410246D02*
X13950777Y-14467388D01*
X13950777Y-14467388D02*
X13941253Y-14486436D01*
X13941253Y-14486436D02*
X13931730Y-14495960D01*
X13931730Y-14495960D02*
X13912682Y-14505484D01*
X13912682Y-14505484D02*
X13884110Y-14505484D01*
X14065063Y-14505484D02*
X14046015Y-14495960D01*
X14046015Y-14495960D02*
X14036491Y-14476912D01*
X14036491Y-14476912D02*
X14036491Y-14305484D01*
X14217444Y-14495960D02*
X14198396Y-14505484D01*
X14198396Y-14505484D02*
X14160301Y-14505484D01*
X14160301Y-14505484D02*
X14141253Y-14495960D01*
X14141253Y-14495960D02*
X14131730Y-14476912D01*
X14131730Y-14476912D02*
X14131730Y-14400722D01*
X14131730Y-14400722D02*
X14141253Y-14381674D01*
X14141253Y-14381674D02*
X14160301Y-14372150D01*
X14160301Y-14372150D02*
X14198396Y-14372150D01*
X14198396Y-14372150D02*
X14217444Y-14381674D01*
X14217444Y-14381674D02*
X14226968Y-14400722D01*
X14226968Y-14400722D02*
X14226968Y-14419769D01*
X14226968Y-14419769D02*
X14131730Y-14438817D01*
X14303158Y-14495960D02*
X14322206Y-14505484D01*
X14322206Y-14505484D02*
X14360301Y-14505484D01*
X14360301Y-14505484D02*
X14379349Y-14495960D01*
X14379349Y-14495960D02*
X14388872Y-14476912D01*
X14388872Y-14476912D02*
X14388872Y-14467388D01*
X14388872Y-14467388D02*
X14379349Y-14448341D01*
X14379349Y-14448341D02*
X14360301Y-14438817D01*
X14360301Y-14438817D02*
X14331730Y-14438817D01*
X14331730Y-14438817D02*
X14312682Y-14429293D01*
X14312682Y-14429293D02*
X14303158Y-14410246D01*
X14303158Y-14410246D02*
X14303158Y-14400722D01*
X14303158Y-14400722D02*
X14312682Y-14381674D01*
X14312682Y-14381674D02*
X14331730Y-14372150D01*
X14331730Y-14372150D02*
X14360301Y-14372150D01*
X14360301Y-14372150D02*
X14379349Y-14381674D01*
X14455539Y-14581674D02*
X14465063Y-14572150D01*
X14465063Y-14572150D02*
X14484111Y-14543579D01*
X14484111Y-14543579D02*
X14493634Y-14524531D01*
X14493634Y-14524531D02*
X14503158Y-14495960D01*
X14503158Y-14495960D02*
X14512682Y-14448341D01*
X14512682Y-14448341D02*
X14512682Y-14410246D01*
X14512682Y-14410246D02*
X14503158Y-14362627D01*
X14503158Y-14362627D02*
X14493634Y-14334055D01*
X14493634Y-14334055D02*
X14484111Y-14315008D01*
X14484111Y-14315008D02*
X14465063Y-14286436D01*
X14465063Y-14286436D02*
X14455539Y-14276912D01*
D13*
X9440000Y-14628000D02*
X9440000Y-14728000D01*
X9390000Y-14678000D02*
X9490000Y-14678000D01*
D10*
X9855539Y-14769484D02*
X9741253Y-14769484D01*
X9798396Y-14769484D02*
X9798396Y-14569484D01*
X9798396Y-14569484D02*
X9779348Y-14598055D01*
X9779348Y-14598055D02*
X9760301Y-14617103D01*
X9760301Y-14617103D02*
X9741253Y-14626627D01*
X9941253Y-14750436D02*
X9950777Y-14759960D01*
X9950777Y-14759960D02*
X9941253Y-14769484D01*
X9941253Y-14769484D02*
X9931729Y-14759960D01*
X9931729Y-14759960D02*
X9941253Y-14750436D01*
X9941253Y-14750436D02*
X9941253Y-14769484D01*
X10074586Y-14569484D02*
X10093634Y-14569484D01*
X10093634Y-14569484D02*
X10112682Y-14579008D01*
X10112682Y-14579008D02*
X10122205Y-14588531D01*
X10122205Y-14588531D02*
X10131729Y-14607579D01*
X10131729Y-14607579D02*
X10141253Y-14645674D01*
X10141253Y-14645674D02*
X10141253Y-14693293D01*
X10141253Y-14693293D02*
X10131729Y-14731388D01*
X10131729Y-14731388D02*
X10122205Y-14750436D01*
X10122205Y-14750436D02*
X10112682Y-14759960D01*
X10112682Y-14759960D02*
X10093634Y-14769484D01*
X10093634Y-14769484D02*
X10074586Y-14769484D01*
X10074586Y-14769484D02*
X10055539Y-14759960D01*
X10055539Y-14759960D02*
X10046015Y-14750436D01*
X10046015Y-14750436D02*
X10036491Y-14731388D01*
X10036491Y-14731388D02*
X10026967Y-14693293D01*
X10026967Y-14693293D02*
X10026967Y-14645674D01*
X10026967Y-14645674D02*
X10036491Y-14607579D01*
X10036491Y-14607579D02*
X10046015Y-14588531D01*
X10046015Y-14588531D02*
X10055539Y-14579008D01*
X10055539Y-14579008D02*
X10074586Y-14569484D01*
X10265063Y-14569484D02*
X10284110Y-14569484D01*
X10284110Y-14569484D02*
X10303158Y-14579008D01*
X10303158Y-14579008D02*
X10312682Y-14588531D01*
X10312682Y-14588531D02*
X10322205Y-14607579D01*
X10322205Y-14607579D02*
X10331729Y-14645674D01*
X10331729Y-14645674D02*
X10331729Y-14693293D01*
X10331729Y-14693293D02*
X10322205Y-14731388D01*
X10322205Y-14731388D02*
X10312682Y-14750436D01*
X10312682Y-14750436D02*
X10303158Y-14759960D01*
X10303158Y-14759960D02*
X10284110Y-14769484D01*
X10284110Y-14769484D02*
X10265063Y-14769484D01*
X10265063Y-14769484D02*
X10246015Y-14759960D01*
X10246015Y-14759960D02*
X10236491Y-14750436D01*
X10236491Y-14750436D02*
X10226967Y-14731388D01*
X10226967Y-14731388D02*
X10217444Y-14693293D01*
X10217444Y-14693293D02*
X10217444Y-14645674D01*
X10217444Y-14645674D02*
X10226967Y-14607579D01*
X10226967Y-14607579D02*
X10236491Y-14588531D01*
X10236491Y-14588531D02*
X10246015Y-14579008D01*
X10246015Y-14579008D02*
X10265063Y-14569484D01*
X10455539Y-14569484D02*
X10474586Y-14569484D01*
X10474586Y-14569484D02*
X10493634Y-14579008D01*
X10493634Y-14579008D02*
X10503158Y-14588531D01*
X10503158Y-14588531D02*
X10512682Y-14607579D01*
X10512682Y-14607579D02*
X10522205Y-14645674D01*
X10522205Y-14645674D02*
X10522205Y-14693293D01*
X10522205Y-14693293D02*
X10512682Y-14731388D01*
X10512682Y-14731388D02*
X10503158Y-14750436D01*
X10503158Y-14750436D02*
X10493634Y-14759960D01*
X10493634Y-14759960D02*
X10474586Y-14769484D01*
X10474586Y-14769484D02*
X10455539Y-14769484D01*
X10455539Y-14769484D02*
X10436491Y-14759960D01*
X10436491Y-14759960D02*
X10426967Y-14750436D01*
X10426967Y-14750436D02*
X10417444Y-14731388D01*
X10417444Y-14731388D02*
X10407920Y-14693293D01*
X10407920Y-14693293D02*
X10407920Y-14645674D01*
X10407920Y-14645674D02*
X10417444Y-14607579D01*
X10417444Y-14607579D02*
X10426967Y-14588531D01*
X10426967Y-14588531D02*
X10436491Y-14579008D01*
X10436491Y-14579008D02*
X10455539Y-14569484D01*
X10607920Y-14769484D02*
X10607920Y-14636150D01*
X10607920Y-14655198D02*
X10617444Y-14645674D01*
X10617444Y-14645674D02*
X10636491Y-14636150D01*
X10636491Y-14636150D02*
X10665063Y-14636150D01*
X10665063Y-14636150D02*
X10684110Y-14645674D01*
X10684110Y-14645674D02*
X10693634Y-14664722D01*
X10693634Y-14664722D02*
X10693634Y-14769484D01*
X10693634Y-14664722D02*
X10703158Y-14645674D01*
X10703158Y-14645674D02*
X10722205Y-14636150D01*
X10722205Y-14636150D02*
X10750777Y-14636150D01*
X10750777Y-14636150D02*
X10769825Y-14645674D01*
X10769825Y-14645674D02*
X10779348Y-14664722D01*
X10779348Y-14664722D02*
X10779348Y-14769484D01*
X10874586Y-14769484D02*
X10874586Y-14636150D01*
X10874586Y-14655198D02*
X10884110Y-14645674D01*
X10884110Y-14645674D02*
X10903158Y-14636150D01*
X10903158Y-14636150D02*
X10931729Y-14636150D01*
X10931729Y-14636150D02*
X10950777Y-14645674D01*
X10950777Y-14645674D02*
X10960301Y-14664722D01*
X10960301Y-14664722D02*
X10960301Y-14769484D01*
X10960301Y-14664722D02*
X10969825Y-14645674D01*
X10969825Y-14645674D02*
X10988872Y-14636150D01*
X10988872Y-14636150D02*
X11017444Y-14636150D01*
X11017444Y-14636150D02*
X11036491Y-14645674D01*
X11036491Y-14645674D02*
X11046015Y-14664722D01*
X11046015Y-14664722D02*
X11046015Y-14769484D01*
X11436491Y-14559960D02*
X11265063Y-14817103D01*
X11693634Y-14569484D02*
X11712682Y-14569484D01*
X11712682Y-14569484D02*
X11731729Y-14579008D01*
X11731729Y-14579008D02*
X11741253Y-14588531D01*
X11741253Y-14588531D02*
X11750777Y-14607579D01*
X11750777Y-14607579D02*
X11760301Y-14645674D01*
X11760301Y-14645674D02*
X11760301Y-14693293D01*
X11760301Y-14693293D02*
X11750777Y-14731388D01*
X11750777Y-14731388D02*
X11741253Y-14750436D01*
X11741253Y-14750436D02*
X11731729Y-14759960D01*
X11731729Y-14759960D02*
X11712682Y-14769484D01*
X11712682Y-14769484D02*
X11693634Y-14769484D01*
X11693634Y-14769484D02*
X11674586Y-14759960D01*
X11674586Y-14759960D02*
X11665063Y-14750436D01*
X11665063Y-14750436D02*
X11655539Y-14731388D01*
X11655539Y-14731388D02*
X11646015Y-14693293D01*
X11646015Y-14693293D02*
X11646015Y-14645674D01*
X11646015Y-14645674D02*
X11655539Y-14607579D01*
X11655539Y-14607579D02*
X11665063Y-14588531D01*
X11665063Y-14588531D02*
X11674586Y-14579008D01*
X11674586Y-14579008D02*
X11693634Y-14569484D01*
X11846015Y-14750436D02*
X11855539Y-14759960D01*
X11855539Y-14759960D02*
X11846015Y-14769484D01*
X11846015Y-14769484D02*
X11836491Y-14759960D01*
X11836491Y-14759960D02*
X11846015Y-14750436D01*
X11846015Y-14750436D02*
X11846015Y-14769484D01*
X11979348Y-14569484D02*
X11998396Y-14569484D01*
X11998396Y-14569484D02*
X12017444Y-14579008D01*
X12017444Y-14579008D02*
X12026967Y-14588531D01*
X12026967Y-14588531D02*
X12036491Y-14607579D01*
X12036491Y-14607579D02*
X12046015Y-14645674D01*
X12046015Y-14645674D02*
X12046015Y-14693293D01*
X12046015Y-14693293D02*
X12036491Y-14731388D01*
X12036491Y-14731388D02*
X12026967Y-14750436D01*
X12026967Y-14750436D02*
X12017444Y-14759960D01*
X12017444Y-14759960D02*
X11998396Y-14769484D01*
X11998396Y-14769484D02*
X11979348Y-14769484D01*
X11979348Y-14769484D02*
X11960301Y-14759960D01*
X11960301Y-14759960D02*
X11950777Y-14750436D01*
X11950777Y-14750436D02*
X11941253Y-14731388D01*
X11941253Y-14731388D02*
X11931729Y-14693293D01*
X11931729Y-14693293D02*
X11931729Y-14645674D01*
X11931729Y-14645674D02*
X11941253Y-14607579D01*
X11941253Y-14607579D02*
X11950777Y-14588531D01*
X11950777Y-14588531D02*
X11960301Y-14579008D01*
X11960301Y-14579008D02*
X11979348Y-14569484D01*
X12112682Y-14569484D02*
X12236491Y-14569484D01*
X12236491Y-14569484D02*
X12169825Y-14645674D01*
X12169825Y-14645674D02*
X12198396Y-14645674D01*
X12198396Y-14645674D02*
X12217444Y-14655198D01*
X12217444Y-14655198D02*
X12226967Y-14664722D01*
X12226967Y-14664722D02*
X12236491Y-14683769D01*
X12236491Y-14683769D02*
X12236491Y-14731388D01*
X12236491Y-14731388D02*
X12226967Y-14750436D01*
X12226967Y-14750436D02*
X12217444Y-14759960D01*
X12217444Y-14759960D02*
X12198396Y-14769484D01*
X12198396Y-14769484D02*
X12141253Y-14769484D01*
X12141253Y-14769484D02*
X12122206Y-14759960D01*
X12122206Y-14759960D02*
X12112682Y-14750436D01*
X12331729Y-14769484D02*
X12369825Y-14769484D01*
X12369825Y-14769484D02*
X12388872Y-14759960D01*
X12388872Y-14759960D02*
X12398396Y-14750436D01*
X12398396Y-14750436D02*
X12417444Y-14721865D01*
X12417444Y-14721865D02*
X12426967Y-14683769D01*
X12426967Y-14683769D02*
X12426967Y-14607579D01*
X12426967Y-14607579D02*
X12417444Y-14588531D01*
X12417444Y-14588531D02*
X12407920Y-14579008D01*
X12407920Y-14579008D02*
X12388872Y-14569484D01*
X12388872Y-14569484D02*
X12350777Y-14569484D01*
X12350777Y-14569484D02*
X12331729Y-14579008D01*
X12331729Y-14579008D02*
X12322206Y-14588531D01*
X12322206Y-14588531D02*
X12312682Y-14607579D01*
X12312682Y-14607579D02*
X12312682Y-14655198D01*
X12312682Y-14655198D02*
X12322206Y-14674246D01*
X12322206Y-14674246D02*
X12331729Y-14683769D01*
X12331729Y-14683769D02*
X12350777Y-14693293D01*
X12350777Y-14693293D02*
X12388872Y-14693293D01*
X12388872Y-14693293D02*
X12407920Y-14683769D01*
X12407920Y-14683769D02*
X12417444Y-14674246D01*
X12417444Y-14674246D02*
X12426967Y-14655198D01*
X12598396Y-14636150D02*
X12598396Y-14769484D01*
X12550777Y-14559960D02*
X12503158Y-14702817D01*
X12503158Y-14702817D02*
X12626967Y-14702817D01*
X12693634Y-14569484D02*
X12693634Y-14607579D01*
X12769825Y-14569484D02*
X12769825Y-14607579D01*
X13065063Y-14845674D02*
X13055539Y-14836150D01*
X13055539Y-14836150D02*
X13036491Y-14807579D01*
X13036491Y-14807579D02*
X13026968Y-14788531D01*
X13026968Y-14788531D02*
X13017444Y-14759960D01*
X13017444Y-14759960D02*
X13007920Y-14712341D01*
X13007920Y-14712341D02*
X13007920Y-14674246D01*
X13007920Y-14674246D02*
X13017444Y-14626627D01*
X13017444Y-14626627D02*
X13026968Y-14598055D01*
X13026968Y-14598055D02*
X13036491Y-14579008D01*
X13036491Y-14579008D02*
X13055539Y-14550436D01*
X13055539Y-14550436D02*
X13065063Y-14540912D01*
X13226968Y-14636150D02*
X13226968Y-14769484D01*
X13179348Y-14559960D02*
X13131729Y-14702817D01*
X13131729Y-14702817D02*
X13255539Y-14702817D01*
X13417444Y-14569484D02*
X13379348Y-14569484D01*
X13379348Y-14569484D02*
X13360301Y-14579008D01*
X13360301Y-14579008D02*
X13350777Y-14588531D01*
X13350777Y-14588531D02*
X13331729Y-14617103D01*
X13331729Y-14617103D02*
X13322206Y-14655198D01*
X13322206Y-14655198D02*
X13322206Y-14731388D01*
X13322206Y-14731388D02*
X13331729Y-14750436D01*
X13331729Y-14750436D02*
X13341253Y-14759960D01*
X13341253Y-14759960D02*
X13360301Y-14769484D01*
X13360301Y-14769484D02*
X13398396Y-14769484D01*
X13398396Y-14769484D02*
X13417444Y-14759960D01*
X13417444Y-14759960D02*
X13426968Y-14750436D01*
X13426968Y-14750436D02*
X13436491Y-14731388D01*
X13436491Y-14731388D02*
X13436491Y-14683769D01*
X13436491Y-14683769D02*
X13426968Y-14664722D01*
X13426968Y-14664722D02*
X13417444Y-14655198D01*
X13417444Y-14655198D02*
X13398396Y-14645674D01*
X13398396Y-14645674D02*
X13360301Y-14645674D01*
X13360301Y-14645674D02*
X13341253Y-14655198D01*
X13341253Y-14655198D02*
X13331729Y-14664722D01*
X13331729Y-14664722D02*
X13322206Y-14683769D01*
X13674587Y-14769484D02*
X13674587Y-14569484D01*
X13760301Y-14769484D02*
X13760301Y-14664722D01*
X13760301Y-14664722D02*
X13750777Y-14645674D01*
X13750777Y-14645674D02*
X13731730Y-14636150D01*
X13731730Y-14636150D02*
X13703158Y-14636150D01*
X13703158Y-14636150D02*
X13684110Y-14645674D01*
X13684110Y-14645674D02*
X13674587Y-14655198D01*
X13884110Y-14769484D02*
X13865063Y-14759960D01*
X13865063Y-14759960D02*
X13855539Y-14750436D01*
X13855539Y-14750436D02*
X13846015Y-14731388D01*
X13846015Y-14731388D02*
X13846015Y-14674246D01*
X13846015Y-14674246D02*
X13855539Y-14655198D01*
X13855539Y-14655198D02*
X13865063Y-14645674D01*
X13865063Y-14645674D02*
X13884110Y-14636150D01*
X13884110Y-14636150D02*
X13912682Y-14636150D01*
X13912682Y-14636150D02*
X13931730Y-14645674D01*
X13931730Y-14645674D02*
X13941253Y-14655198D01*
X13941253Y-14655198D02*
X13950777Y-14674246D01*
X13950777Y-14674246D02*
X13950777Y-14731388D01*
X13950777Y-14731388D02*
X13941253Y-14750436D01*
X13941253Y-14750436D02*
X13931730Y-14759960D01*
X13931730Y-14759960D02*
X13912682Y-14769484D01*
X13912682Y-14769484D02*
X13884110Y-14769484D01*
X14065063Y-14769484D02*
X14046015Y-14759960D01*
X14046015Y-14759960D02*
X14036491Y-14740912D01*
X14036491Y-14740912D02*
X14036491Y-14569484D01*
X14217444Y-14759960D02*
X14198396Y-14769484D01*
X14198396Y-14769484D02*
X14160301Y-14769484D01*
X14160301Y-14769484D02*
X14141253Y-14759960D01*
X14141253Y-14759960D02*
X14131730Y-14740912D01*
X14131730Y-14740912D02*
X14131730Y-14664722D01*
X14131730Y-14664722D02*
X14141253Y-14645674D01*
X14141253Y-14645674D02*
X14160301Y-14636150D01*
X14160301Y-14636150D02*
X14198396Y-14636150D01*
X14198396Y-14636150D02*
X14217444Y-14645674D01*
X14217444Y-14645674D02*
X14226968Y-14664722D01*
X14226968Y-14664722D02*
X14226968Y-14683769D01*
X14226968Y-14683769D02*
X14131730Y-14702817D01*
X14303158Y-14759960D02*
X14322206Y-14769484D01*
X14322206Y-14769484D02*
X14360301Y-14769484D01*
X14360301Y-14769484D02*
X14379349Y-14759960D01*
X14379349Y-14759960D02*
X14388872Y-14740912D01*
X14388872Y-14740912D02*
X14388872Y-14731388D01*
X14388872Y-14731388D02*
X14379349Y-14712341D01*
X14379349Y-14712341D02*
X14360301Y-14702817D01*
X14360301Y-14702817D02*
X14331730Y-14702817D01*
X14331730Y-14702817D02*
X14312682Y-14693293D01*
X14312682Y-14693293D02*
X14303158Y-14674246D01*
X14303158Y-14674246D02*
X14303158Y-14664722D01*
X14303158Y-14664722D02*
X14312682Y-14645674D01*
X14312682Y-14645674D02*
X14331730Y-14636150D01*
X14331730Y-14636150D02*
X14360301Y-14636150D01*
X14360301Y-14636150D02*
X14379349Y-14645674D01*
X14626968Y-14693293D02*
X14779349Y-14693293D01*
X14703158Y-14769484D02*
X14703158Y-14617103D01*
X15007920Y-14569484D02*
X15131730Y-14569484D01*
X15131730Y-14569484D02*
X15065063Y-14645674D01*
X15065063Y-14645674D02*
X15093634Y-14645674D01*
X15093634Y-14645674D02*
X15112682Y-14655198D01*
X15112682Y-14655198D02*
X15122206Y-14664722D01*
X15122206Y-14664722D02*
X15131730Y-14683769D01*
X15131730Y-14683769D02*
X15131730Y-14731388D01*
X15131730Y-14731388D02*
X15122206Y-14750436D01*
X15122206Y-14750436D02*
X15112682Y-14759960D01*
X15112682Y-14759960D02*
X15093634Y-14769484D01*
X15093634Y-14769484D02*
X15036492Y-14769484D01*
X15036492Y-14769484D02*
X15017444Y-14759960D01*
X15017444Y-14759960D02*
X15007920Y-14750436D01*
X15360301Y-14759960D02*
X15379349Y-14769484D01*
X15379349Y-14769484D02*
X15417444Y-14769484D01*
X15417444Y-14769484D02*
X15436492Y-14759960D01*
X15436492Y-14759960D02*
X15446015Y-14740912D01*
X15446015Y-14740912D02*
X15446015Y-14731388D01*
X15446015Y-14731388D02*
X15436492Y-14712341D01*
X15436492Y-14712341D02*
X15417444Y-14702817D01*
X15417444Y-14702817D02*
X15388873Y-14702817D01*
X15388873Y-14702817D02*
X15369825Y-14693293D01*
X15369825Y-14693293D02*
X15360301Y-14674246D01*
X15360301Y-14674246D02*
X15360301Y-14664722D01*
X15360301Y-14664722D02*
X15369825Y-14645674D01*
X15369825Y-14645674D02*
X15388873Y-14636150D01*
X15388873Y-14636150D02*
X15417444Y-14636150D01*
X15417444Y-14636150D02*
X15436492Y-14645674D01*
X15560301Y-14769484D02*
X15541254Y-14759960D01*
X15541254Y-14759960D02*
X15531730Y-14740912D01*
X15531730Y-14740912D02*
X15531730Y-14569484D01*
X15665063Y-14769484D02*
X15646015Y-14759960D01*
X15646015Y-14759960D02*
X15636492Y-14750436D01*
X15636492Y-14750436D02*
X15626968Y-14731388D01*
X15626968Y-14731388D02*
X15626968Y-14674246D01*
X15626968Y-14674246D02*
X15636492Y-14655198D01*
X15636492Y-14655198D02*
X15646015Y-14645674D01*
X15646015Y-14645674D02*
X15665063Y-14636150D01*
X15665063Y-14636150D02*
X15693635Y-14636150D01*
X15693635Y-14636150D02*
X15712682Y-14645674D01*
X15712682Y-14645674D02*
X15722206Y-14655198D01*
X15722206Y-14655198D02*
X15731730Y-14674246D01*
X15731730Y-14674246D02*
X15731730Y-14731388D01*
X15731730Y-14731388D02*
X15722206Y-14750436D01*
X15722206Y-14750436D02*
X15712682Y-14759960D01*
X15712682Y-14759960D02*
X15693635Y-14769484D01*
X15693635Y-14769484D02*
X15665063Y-14769484D01*
X15788873Y-14636150D02*
X15865063Y-14636150D01*
X15817444Y-14569484D02*
X15817444Y-14740912D01*
X15817444Y-14740912D02*
X15826968Y-14759960D01*
X15826968Y-14759960D02*
X15846015Y-14769484D01*
X15846015Y-14769484D02*
X15865063Y-14769484D01*
X15922206Y-14759960D02*
X15941254Y-14769484D01*
X15941254Y-14769484D02*
X15979349Y-14769484D01*
X15979349Y-14769484D02*
X15998396Y-14759960D01*
X15998396Y-14759960D02*
X16007920Y-14740912D01*
X16007920Y-14740912D02*
X16007920Y-14731388D01*
X16007920Y-14731388D02*
X15998396Y-14712341D01*
X15998396Y-14712341D02*
X15979349Y-14702817D01*
X15979349Y-14702817D02*
X15950777Y-14702817D01*
X15950777Y-14702817D02*
X15931730Y-14693293D01*
X15931730Y-14693293D02*
X15922206Y-14674246D01*
X15922206Y-14674246D02*
X15922206Y-14664722D01*
X15922206Y-14664722D02*
X15931730Y-14645674D01*
X15931730Y-14645674D02*
X15950777Y-14636150D01*
X15950777Y-14636150D02*
X15979349Y-14636150D01*
X15979349Y-14636150D02*
X15998396Y-14645674D01*
X16074587Y-14845674D02*
X16084111Y-14836150D01*
X16084111Y-14836150D02*
X16103158Y-14807579D01*
X16103158Y-14807579D02*
X16112682Y-14788531D01*
X16112682Y-14788531D02*
X16122206Y-14759960D01*
X16122206Y-14759960D02*
X16131730Y-14712341D01*
X16131730Y-14712341D02*
X16131730Y-14674246D01*
X16131730Y-14674246D02*
X16122206Y-14626627D01*
X16122206Y-14626627D02*
X16112682Y-14598055D01*
X16112682Y-14598055D02*
X16103158Y-14579008D01*
X16103158Y-14579008D02*
X16084111Y-14550436D01*
X16084111Y-14550436D02*
X16074587Y-14540912D01*
D14*
X9468034Y-14995033D02*
X9468034Y-14888966D01*
X9361967Y-14888966D01*
X9361967Y-14995033D01*
X9468034Y-14995033D01*
D10*
X9855539Y-15033484D02*
X9741253Y-15033484D01*
X9798396Y-15033484D02*
X9798396Y-14833484D01*
X9798396Y-14833484D02*
X9779348Y-14862055D01*
X9779348Y-14862055D02*
X9760301Y-14881103D01*
X9760301Y-14881103D02*
X9741253Y-14890627D01*
X9941253Y-15014436D02*
X9950777Y-15023960D01*
X9950777Y-15023960D02*
X9941253Y-15033484D01*
X9941253Y-15033484D02*
X9931729Y-15023960D01*
X9931729Y-15023960D02*
X9941253Y-15014436D01*
X9941253Y-15014436D02*
X9941253Y-15033484D01*
X10131729Y-14833484D02*
X10036491Y-14833484D01*
X10036491Y-14833484D02*
X10026967Y-14928722D01*
X10026967Y-14928722D02*
X10036491Y-14919198D01*
X10036491Y-14919198D02*
X10055539Y-14909674D01*
X10055539Y-14909674D02*
X10103158Y-14909674D01*
X10103158Y-14909674D02*
X10122205Y-14919198D01*
X10122205Y-14919198D02*
X10131729Y-14928722D01*
X10131729Y-14928722D02*
X10141253Y-14947769D01*
X10141253Y-14947769D02*
X10141253Y-14995388D01*
X10141253Y-14995388D02*
X10131729Y-15014436D01*
X10131729Y-15014436D02*
X10122205Y-15023960D01*
X10122205Y-15023960D02*
X10103158Y-15033484D01*
X10103158Y-15033484D02*
X10055539Y-15033484D01*
X10055539Y-15033484D02*
X10036491Y-15023960D01*
X10036491Y-15023960D02*
X10026967Y-15014436D01*
X10265063Y-14833484D02*
X10284110Y-14833484D01*
X10284110Y-14833484D02*
X10303158Y-14843008D01*
X10303158Y-14843008D02*
X10312682Y-14852531D01*
X10312682Y-14852531D02*
X10322205Y-14871579D01*
X10322205Y-14871579D02*
X10331729Y-14909674D01*
X10331729Y-14909674D02*
X10331729Y-14957293D01*
X10331729Y-14957293D02*
X10322205Y-14995388D01*
X10322205Y-14995388D02*
X10312682Y-15014436D01*
X10312682Y-15014436D02*
X10303158Y-15023960D01*
X10303158Y-15023960D02*
X10284110Y-15033484D01*
X10284110Y-15033484D02*
X10265063Y-15033484D01*
X10265063Y-15033484D02*
X10246015Y-15023960D01*
X10246015Y-15023960D02*
X10236491Y-15014436D01*
X10236491Y-15014436D02*
X10226967Y-14995388D01*
X10226967Y-14995388D02*
X10217444Y-14957293D01*
X10217444Y-14957293D02*
X10217444Y-14909674D01*
X10217444Y-14909674D02*
X10226967Y-14871579D01*
X10226967Y-14871579D02*
X10236491Y-14852531D01*
X10236491Y-14852531D02*
X10246015Y-14843008D01*
X10246015Y-14843008D02*
X10265063Y-14833484D01*
X10455539Y-14833484D02*
X10474586Y-14833484D01*
X10474586Y-14833484D02*
X10493634Y-14843008D01*
X10493634Y-14843008D02*
X10503158Y-14852531D01*
X10503158Y-14852531D02*
X10512682Y-14871579D01*
X10512682Y-14871579D02*
X10522205Y-14909674D01*
X10522205Y-14909674D02*
X10522205Y-14957293D01*
X10522205Y-14957293D02*
X10512682Y-14995388D01*
X10512682Y-14995388D02*
X10503158Y-15014436D01*
X10503158Y-15014436D02*
X10493634Y-15023960D01*
X10493634Y-15023960D02*
X10474586Y-15033484D01*
X10474586Y-15033484D02*
X10455539Y-15033484D01*
X10455539Y-15033484D02*
X10436491Y-15023960D01*
X10436491Y-15023960D02*
X10426967Y-15014436D01*
X10426967Y-15014436D02*
X10417444Y-14995388D01*
X10417444Y-14995388D02*
X10407920Y-14957293D01*
X10407920Y-14957293D02*
X10407920Y-14909674D01*
X10407920Y-14909674D02*
X10417444Y-14871579D01*
X10417444Y-14871579D02*
X10426967Y-14852531D01*
X10426967Y-14852531D02*
X10436491Y-14843008D01*
X10436491Y-14843008D02*
X10455539Y-14833484D01*
X10607920Y-15033484D02*
X10607920Y-14900150D01*
X10607920Y-14919198D02*
X10617444Y-14909674D01*
X10617444Y-14909674D02*
X10636491Y-14900150D01*
X10636491Y-14900150D02*
X10665063Y-14900150D01*
X10665063Y-14900150D02*
X10684110Y-14909674D01*
X10684110Y-14909674D02*
X10693634Y-14928722D01*
X10693634Y-14928722D02*
X10693634Y-15033484D01*
X10693634Y-14928722D02*
X10703158Y-14909674D01*
X10703158Y-14909674D02*
X10722205Y-14900150D01*
X10722205Y-14900150D02*
X10750777Y-14900150D01*
X10750777Y-14900150D02*
X10769825Y-14909674D01*
X10769825Y-14909674D02*
X10779348Y-14928722D01*
X10779348Y-14928722D02*
X10779348Y-15033484D01*
X10874586Y-15033484D02*
X10874586Y-14900150D01*
X10874586Y-14919198D02*
X10884110Y-14909674D01*
X10884110Y-14909674D02*
X10903158Y-14900150D01*
X10903158Y-14900150D02*
X10931729Y-14900150D01*
X10931729Y-14900150D02*
X10950777Y-14909674D01*
X10950777Y-14909674D02*
X10960301Y-14928722D01*
X10960301Y-14928722D02*
X10960301Y-15033484D01*
X10960301Y-14928722D02*
X10969825Y-14909674D01*
X10969825Y-14909674D02*
X10988872Y-14900150D01*
X10988872Y-14900150D02*
X11017444Y-14900150D01*
X11017444Y-14900150D02*
X11036491Y-14909674D01*
X11036491Y-14909674D02*
X11046015Y-14928722D01*
X11046015Y-14928722D02*
X11046015Y-15033484D01*
X11436491Y-14823960D02*
X11265063Y-15081103D01*
X11693634Y-14833484D02*
X11712682Y-14833484D01*
X11712682Y-14833484D02*
X11731729Y-14843008D01*
X11731729Y-14843008D02*
X11741253Y-14852531D01*
X11741253Y-14852531D02*
X11750777Y-14871579D01*
X11750777Y-14871579D02*
X11760301Y-14909674D01*
X11760301Y-14909674D02*
X11760301Y-14957293D01*
X11760301Y-14957293D02*
X11750777Y-14995388D01*
X11750777Y-14995388D02*
X11741253Y-15014436D01*
X11741253Y-15014436D02*
X11731729Y-15023960D01*
X11731729Y-15023960D02*
X11712682Y-15033484D01*
X11712682Y-15033484D02*
X11693634Y-15033484D01*
X11693634Y-15033484D02*
X11674586Y-15023960D01*
X11674586Y-15023960D02*
X11665063Y-15014436D01*
X11665063Y-15014436D02*
X11655539Y-14995388D01*
X11655539Y-14995388D02*
X11646015Y-14957293D01*
X11646015Y-14957293D02*
X11646015Y-14909674D01*
X11646015Y-14909674D02*
X11655539Y-14871579D01*
X11655539Y-14871579D02*
X11665063Y-14852531D01*
X11665063Y-14852531D02*
X11674586Y-14843008D01*
X11674586Y-14843008D02*
X11693634Y-14833484D01*
X11846015Y-15014436D02*
X11855539Y-15023960D01*
X11855539Y-15023960D02*
X11846015Y-15033484D01*
X11846015Y-15033484D02*
X11836491Y-15023960D01*
X11836491Y-15023960D02*
X11846015Y-15014436D01*
X11846015Y-15014436D02*
X11846015Y-15033484D01*
X11979348Y-14833484D02*
X11998396Y-14833484D01*
X11998396Y-14833484D02*
X12017444Y-14843008D01*
X12017444Y-14843008D02*
X12026967Y-14852531D01*
X12026967Y-14852531D02*
X12036491Y-14871579D01*
X12036491Y-14871579D02*
X12046015Y-14909674D01*
X12046015Y-14909674D02*
X12046015Y-14957293D01*
X12046015Y-14957293D02*
X12036491Y-14995388D01*
X12036491Y-14995388D02*
X12026967Y-15014436D01*
X12026967Y-15014436D02*
X12017444Y-15023960D01*
X12017444Y-15023960D02*
X11998396Y-15033484D01*
X11998396Y-15033484D02*
X11979348Y-15033484D01*
X11979348Y-15033484D02*
X11960301Y-15023960D01*
X11960301Y-15023960D02*
X11950777Y-15014436D01*
X11950777Y-15014436D02*
X11941253Y-14995388D01*
X11941253Y-14995388D02*
X11931729Y-14957293D01*
X11931729Y-14957293D02*
X11931729Y-14909674D01*
X11931729Y-14909674D02*
X11941253Y-14871579D01*
X11941253Y-14871579D02*
X11950777Y-14852531D01*
X11950777Y-14852531D02*
X11960301Y-14843008D01*
X11960301Y-14843008D02*
X11979348Y-14833484D01*
X12226967Y-14833484D02*
X12131729Y-14833484D01*
X12131729Y-14833484D02*
X12122206Y-14928722D01*
X12122206Y-14928722D02*
X12131729Y-14919198D01*
X12131729Y-14919198D02*
X12150777Y-14909674D01*
X12150777Y-14909674D02*
X12198396Y-14909674D01*
X12198396Y-14909674D02*
X12217444Y-14919198D01*
X12217444Y-14919198D02*
X12226967Y-14928722D01*
X12226967Y-14928722D02*
X12236491Y-14947769D01*
X12236491Y-14947769D02*
X12236491Y-14995388D01*
X12236491Y-14995388D02*
X12226967Y-15014436D01*
X12226967Y-15014436D02*
X12217444Y-15023960D01*
X12217444Y-15023960D02*
X12198396Y-15033484D01*
X12198396Y-15033484D02*
X12150777Y-15033484D01*
X12150777Y-15033484D02*
X12131729Y-15023960D01*
X12131729Y-15023960D02*
X12122206Y-15014436D01*
X12331729Y-15033484D02*
X12369825Y-15033484D01*
X12369825Y-15033484D02*
X12388872Y-15023960D01*
X12388872Y-15023960D02*
X12398396Y-15014436D01*
X12398396Y-15014436D02*
X12417444Y-14985865D01*
X12417444Y-14985865D02*
X12426967Y-14947769D01*
X12426967Y-14947769D02*
X12426967Y-14871579D01*
X12426967Y-14871579D02*
X12417444Y-14852531D01*
X12417444Y-14852531D02*
X12407920Y-14843008D01*
X12407920Y-14843008D02*
X12388872Y-14833484D01*
X12388872Y-14833484D02*
X12350777Y-14833484D01*
X12350777Y-14833484D02*
X12331729Y-14843008D01*
X12331729Y-14843008D02*
X12322206Y-14852531D01*
X12322206Y-14852531D02*
X12312682Y-14871579D01*
X12312682Y-14871579D02*
X12312682Y-14919198D01*
X12312682Y-14919198D02*
X12322206Y-14938246D01*
X12322206Y-14938246D02*
X12331729Y-14947769D01*
X12331729Y-14947769D02*
X12350777Y-14957293D01*
X12350777Y-14957293D02*
X12388872Y-14957293D01*
X12388872Y-14957293D02*
X12407920Y-14947769D01*
X12407920Y-14947769D02*
X12417444Y-14938246D01*
X12417444Y-14938246D02*
X12426967Y-14919198D01*
X12617444Y-15033484D02*
X12503158Y-15033484D01*
X12560301Y-15033484D02*
X12560301Y-14833484D01*
X12560301Y-14833484D02*
X12541253Y-14862055D01*
X12541253Y-14862055D02*
X12522206Y-14881103D01*
X12522206Y-14881103D02*
X12503158Y-14890627D01*
X12693634Y-14833484D02*
X12693634Y-14871579D01*
X12769825Y-14833484D02*
X12769825Y-14871579D01*
X13065063Y-15109674D02*
X13055539Y-15100150D01*
X13055539Y-15100150D02*
X13036491Y-15071579D01*
X13036491Y-15071579D02*
X13026968Y-15052531D01*
X13026968Y-15052531D02*
X13017444Y-15023960D01*
X13017444Y-15023960D02*
X13007920Y-14976341D01*
X13007920Y-14976341D02*
X13007920Y-14938246D01*
X13007920Y-14938246D02*
X13017444Y-14890627D01*
X13017444Y-14890627D02*
X13026968Y-14862055D01*
X13026968Y-14862055D02*
X13036491Y-14843008D01*
X13036491Y-14843008D02*
X13055539Y-14814436D01*
X13055539Y-14814436D02*
X13065063Y-14804912D01*
X13246015Y-15033484D02*
X13131729Y-15033484D01*
X13188872Y-15033484D02*
X13188872Y-14833484D01*
X13188872Y-14833484D02*
X13169825Y-14862055D01*
X13169825Y-14862055D02*
X13150777Y-14881103D01*
X13150777Y-14881103D02*
X13131729Y-14890627D01*
X13484110Y-15033484D02*
X13484110Y-14833484D01*
X13569825Y-15033484D02*
X13569825Y-14928722D01*
X13569825Y-14928722D02*
X13560301Y-14909674D01*
X13560301Y-14909674D02*
X13541253Y-14900150D01*
X13541253Y-14900150D02*
X13512682Y-14900150D01*
X13512682Y-14900150D02*
X13493634Y-14909674D01*
X13493634Y-14909674D02*
X13484110Y-14919198D01*
X13693634Y-15033484D02*
X13674587Y-15023960D01*
X13674587Y-15023960D02*
X13665063Y-15014436D01*
X13665063Y-15014436D02*
X13655539Y-14995388D01*
X13655539Y-14995388D02*
X13655539Y-14938246D01*
X13655539Y-14938246D02*
X13665063Y-14919198D01*
X13665063Y-14919198D02*
X13674587Y-14909674D01*
X13674587Y-14909674D02*
X13693634Y-14900150D01*
X13693634Y-14900150D02*
X13722206Y-14900150D01*
X13722206Y-14900150D02*
X13741253Y-14909674D01*
X13741253Y-14909674D02*
X13750777Y-14919198D01*
X13750777Y-14919198D02*
X13760301Y-14938246D01*
X13760301Y-14938246D02*
X13760301Y-14995388D01*
X13760301Y-14995388D02*
X13750777Y-15014436D01*
X13750777Y-15014436D02*
X13741253Y-15023960D01*
X13741253Y-15023960D02*
X13722206Y-15033484D01*
X13722206Y-15033484D02*
X13693634Y-15033484D01*
X13874587Y-15033484D02*
X13855539Y-15023960D01*
X13855539Y-15023960D02*
X13846015Y-15004912D01*
X13846015Y-15004912D02*
X13846015Y-14833484D01*
X14026968Y-15023960D02*
X14007920Y-15033484D01*
X14007920Y-15033484D02*
X13969825Y-15033484D01*
X13969825Y-15033484D02*
X13950777Y-15023960D01*
X13950777Y-15023960D02*
X13941253Y-15004912D01*
X13941253Y-15004912D02*
X13941253Y-14928722D01*
X13941253Y-14928722D02*
X13950777Y-14909674D01*
X13950777Y-14909674D02*
X13969825Y-14900150D01*
X13969825Y-14900150D02*
X14007920Y-14900150D01*
X14007920Y-14900150D02*
X14026968Y-14909674D01*
X14026968Y-14909674D02*
X14036491Y-14928722D01*
X14036491Y-14928722D02*
X14036491Y-14947769D01*
X14036491Y-14947769D02*
X13941253Y-14966817D01*
X14103158Y-15109674D02*
X14112682Y-15100150D01*
X14112682Y-15100150D02*
X14131730Y-15071579D01*
X14131730Y-15071579D02*
X14141253Y-15052531D01*
X14141253Y-15052531D02*
X14150777Y-15023960D01*
X14150777Y-15023960D02*
X14160301Y-14976341D01*
X14160301Y-14976341D02*
X14160301Y-14938246D01*
X14160301Y-14938246D02*
X14150777Y-14890627D01*
X14150777Y-14890627D02*
X14141253Y-14862055D01*
X14141253Y-14862055D02*
X14131730Y-14843008D01*
X14131730Y-14843008D02*
X14112682Y-14814436D01*
X14112682Y-14814436D02*
X14103158Y-14804912D01*
X9390000Y-15312000D02*
X9490000Y-15212000D01*
X9390000Y-15112000D01*
X9290000Y-15212000D01*
X9390000Y-15312000D01*
X9741253Y-15122531D02*
X9750777Y-15113008D01*
X9750777Y-15113008D02*
X9769824Y-15103484D01*
X9769824Y-15103484D02*
X9817444Y-15103484D01*
X9817444Y-15103484D02*
X9836491Y-15113008D01*
X9836491Y-15113008D02*
X9846015Y-15122531D01*
X9846015Y-15122531D02*
X9855539Y-15141579D01*
X9855539Y-15141579D02*
X9855539Y-15160627D01*
X9855539Y-15160627D02*
X9846015Y-15189198D01*
X9846015Y-15189198D02*
X9731729Y-15303484D01*
X9731729Y-15303484D02*
X9855539Y-15303484D01*
X9941253Y-15284436D02*
X9950777Y-15293960D01*
X9950777Y-15293960D02*
X9941253Y-15303484D01*
X9941253Y-15303484D02*
X9931729Y-15293960D01*
X9931729Y-15293960D02*
X9941253Y-15284436D01*
X9941253Y-15284436D02*
X9941253Y-15303484D01*
X10074586Y-15103484D02*
X10093634Y-15103484D01*
X10093634Y-15103484D02*
X10112682Y-15113008D01*
X10112682Y-15113008D02*
X10122205Y-15122531D01*
X10122205Y-15122531D02*
X10131729Y-15141579D01*
X10131729Y-15141579D02*
X10141253Y-15179674D01*
X10141253Y-15179674D02*
X10141253Y-15227293D01*
X10141253Y-15227293D02*
X10131729Y-15265388D01*
X10131729Y-15265388D02*
X10122205Y-15284436D01*
X10122205Y-15284436D02*
X10112682Y-15293960D01*
X10112682Y-15293960D02*
X10093634Y-15303484D01*
X10093634Y-15303484D02*
X10074586Y-15303484D01*
X10074586Y-15303484D02*
X10055539Y-15293960D01*
X10055539Y-15293960D02*
X10046015Y-15284436D01*
X10046015Y-15284436D02*
X10036491Y-15265388D01*
X10036491Y-15265388D02*
X10026967Y-15227293D01*
X10026967Y-15227293D02*
X10026967Y-15179674D01*
X10026967Y-15179674D02*
X10036491Y-15141579D01*
X10036491Y-15141579D02*
X10046015Y-15122531D01*
X10046015Y-15122531D02*
X10055539Y-15113008D01*
X10055539Y-15113008D02*
X10074586Y-15103484D01*
X10265063Y-15103484D02*
X10284110Y-15103484D01*
X10284110Y-15103484D02*
X10303158Y-15113008D01*
X10303158Y-15113008D02*
X10312682Y-15122531D01*
X10312682Y-15122531D02*
X10322205Y-15141579D01*
X10322205Y-15141579D02*
X10331729Y-15179674D01*
X10331729Y-15179674D02*
X10331729Y-15227293D01*
X10331729Y-15227293D02*
X10322205Y-15265388D01*
X10322205Y-15265388D02*
X10312682Y-15284436D01*
X10312682Y-15284436D02*
X10303158Y-15293960D01*
X10303158Y-15293960D02*
X10284110Y-15303484D01*
X10284110Y-15303484D02*
X10265063Y-15303484D01*
X10265063Y-15303484D02*
X10246015Y-15293960D01*
X10246015Y-15293960D02*
X10236491Y-15284436D01*
X10236491Y-15284436D02*
X10226967Y-15265388D01*
X10226967Y-15265388D02*
X10217444Y-15227293D01*
X10217444Y-15227293D02*
X10217444Y-15179674D01*
X10217444Y-15179674D02*
X10226967Y-15141579D01*
X10226967Y-15141579D02*
X10236491Y-15122531D01*
X10236491Y-15122531D02*
X10246015Y-15113008D01*
X10246015Y-15113008D02*
X10265063Y-15103484D01*
X10455539Y-15103484D02*
X10474586Y-15103484D01*
X10474586Y-15103484D02*
X10493634Y-15113008D01*
X10493634Y-15113008D02*
X10503158Y-15122531D01*
X10503158Y-15122531D02*
X10512682Y-15141579D01*
X10512682Y-15141579D02*
X10522205Y-15179674D01*
X10522205Y-15179674D02*
X10522205Y-15227293D01*
X10522205Y-15227293D02*
X10512682Y-15265388D01*
X10512682Y-15265388D02*
X10503158Y-15284436D01*
X10503158Y-15284436D02*
X10493634Y-15293960D01*
X10493634Y-15293960D02*
X10474586Y-15303484D01*
X10474586Y-15303484D02*
X10455539Y-15303484D01*
X10455539Y-15303484D02*
X10436491Y-15293960D01*
X10436491Y-15293960D02*
X10426967Y-15284436D01*
X10426967Y-15284436D02*
X10417444Y-15265388D01*
X10417444Y-15265388D02*
X10407920Y-15227293D01*
X10407920Y-15227293D02*
X10407920Y-15179674D01*
X10407920Y-15179674D02*
X10417444Y-15141579D01*
X10417444Y-15141579D02*
X10426967Y-15122531D01*
X10426967Y-15122531D02*
X10436491Y-15113008D01*
X10436491Y-15113008D02*
X10455539Y-15103484D01*
X10607920Y-15303484D02*
X10607920Y-15170150D01*
X10607920Y-15189198D02*
X10617444Y-15179674D01*
X10617444Y-15179674D02*
X10636491Y-15170150D01*
X10636491Y-15170150D02*
X10665063Y-15170150D01*
X10665063Y-15170150D02*
X10684110Y-15179674D01*
X10684110Y-15179674D02*
X10693634Y-15198722D01*
X10693634Y-15198722D02*
X10693634Y-15303484D01*
X10693634Y-15198722D02*
X10703158Y-15179674D01*
X10703158Y-15179674D02*
X10722205Y-15170150D01*
X10722205Y-15170150D02*
X10750777Y-15170150D01*
X10750777Y-15170150D02*
X10769825Y-15179674D01*
X10769825Y-15179674D02*
X10779348Y-15198722D01*
X10779348Y-15198722D02*
X10779348Y-15303484D01*
X10874586Y-15303484D02*
X10874586Y-15170150D01*
X10874586Y-15189198D02*
X10884110Y-15179674D01*
X10884110Y-15179674D02*
X10903158Y-15170150D01*
X10903158Y-15170150D02*
X10931729Y-15170150D01*
X10931729Y-15170150D02*
X10950777Y-15179674D01*
X10950777Y-15179674D02*
X10960301Y-15198722D01*
X10960301Y-15198722D02*
X10960301Y-15303484D01*
X10960301Y-15198722D02*
X10969825Y-15179674D01*
X10969825Y-15179674D02*
X10988872Y-15170150D01*
X10988872Y-15170150D02*
X11017444Y-15170150D01*
X11017444Y-15170150D02*
X11036491Y-15179674D01*
X11036491Y-15179674D02*
X11046015Y-15198722D01*
X11046015Y-15198722D02*
X11046015Y-15303484D01*
X11436491Y-15093960D02*
X11265063Y-15351103D01*
X11693634Y-15103484D02*
X11712682Y-15103484D01*
X11712682Y-15103484D02*
X11731729Y-15113008D01*
X11731729Y-15113008D02*
X11741253Y-15122531D01*
X11741253Y-15122531D02*
X11750777Y-15141579D01*
X11750777Y-15141579D02*
X11760301Y-15179674D01*
X11760301Y-15179674D02*
X11760301Y-15227293D01*
X11760301Y-15227293D02*
X11750777Y-15265388D01*
X11750777Y-15265388D02*
X11741253Y-15284436D01*
X11741253Y-15284436D02*
X11731729Y-15293960D01*
X11731729Y-15293960D02*
X11712682Y-15303484D01*
X11712682Y-15303484D02*
X11693634Y-15303484D01*
X11693634Y-15303484D02*
X11674586Y-15293960D01*
X11674586Y-15293960D02*
X11665063Y-15284436D01*
X11665063Y-15284436D02*
X11655539Y-15265388D01*
X11655539Y-15265388D02*
X11646015Y-15227293D01*
X11646015Y-15227293D02*
X11646015Y-15179674D01*
X11646015Y-15179674D02*
X11655539Y-15141579D01*
X11655539Y-15141579D02*
X11665063Y-15122531D01*
X11665063Y-15122531D02*
X11674586Y-15113008D01*
X11674586Y-15113008D02*
X11693634Y-15103484D01*
X11846015Y-15284436D02*
X11855539Y-15293960D01*
X11855539Y-15293960D02*
X11846015Y-15303484D01*
X11846015Y-15303484D02*
X11836491Y-15293960D01*
X11836491Y-15293960D02*
X11846015Y-15284436D01*
X11846015Y-15284436D02*
X11846015Y-15303484D01*
X11979348Y-15103484D02*
X11998396Y-15103484D01*
X11998396Y-15103484D02*
X12017444Y-15113008D01*
X12017444Y-15113008D02*
X12026967Y-15122531D01*
X12026967Y-15122531D02*
X12036491Y-15141579D01*
X12036491Y-15141579D02*
X12046015Y-15179674D01*
X12046015Y-15179674D02*
X12046015Y-15227293D01*
X12046015Y-15227293D02*
X12036491Y-15265388D01*
X12036491Y-15265388D02*
X12026967Y-15284436D01*
X12026967Y-15284436D02*
X12017444Y-15293960D01*
X12017444Y-15293960D02*
X11998396Y-15303484D01*
X11998396Y-15303484D02*
X11979348Y-15303484D01*
X11979348Y-15303484D02*
X11960301Y-15293960D01*
X11960301Y-15293960D02*
X11950777Y-15284436D01*
X11950777Y-15284436D02*
X11941253Y-15265388D01*
X11941253Y-15265388D02*
X11931729Y-15227293D01*
X11931729Y-15227293D02*
X11931729Y-15179674D01*
X11931729Y-15179674D02*
X11941253Y-15141579D01*
X11941253Y-15141579D02*
X11950777Y-15122531D01*
X11950777Y-15122531D02*
X11960301Y-15113008D01*
X11960301Y-15113008D02*
X11979348Y-15103484D01*
X12112682Y-15103484D02*
X12246015Y-15103484D01*
X12246015Y-15103484D02*
X12160301Y-15303484D01*
X12350777Y-15189198D02*
X12331729Y-15179674D01*
X12331729Y-15179674D02*
X12322206Y-15170150D01*
X12322206Y-15170150D02*
X12312682Y-15151103D01*
X12312682Y-15151103D02*
X12312682Y-15141579D01*
X12312682Y-15141579D02*
X12322206Y-15122531D01*
X12322206Y-15122531D02*
X12331729Y-15113008D01*
X12331729Y-15113008D02*
X12350777Y-15103484D01*
X12350777Y-15103484D02*
X12388872Y-15103484D01*
X12388872Y-15103484D02*
X12407920Y-15113008D01*
X12407920Y-15113008D02*
X12417444Y-15122531D01*
X12417444Y-15122531D02*
X12426967Y-15141579D01*
X12426967Y-15141579D02*
X12426967Y-15151103D01*
X12426967Y-15151103D02*
X12417444Y-15170150D01*
X12417444Y-15170150D02*
X12407920Y-15179674D01*
X12407920Y-15179674D02*
X12388872Y-15189198D01*
X12388872Y-15189198D02*
X12350777Y-15189198D01*
X12350777Y-15189198D02*
X12331729Y-15198722D01*
X12331729Y-15198722D02*
X12322206Y-15208246D01*
X12322206Y-15208246D02*
X12312682Y-15227293D01*
X12312682Y-15227293D02*
X12312682Y-15265388D01*
X12312682Y-15265388D02*
X12322206Y-15284436D01*
X12322206Y-15284436D02*
X12331729Y-15293960D01*
X12331729Y-15293960D02*
X12350777Y-15303484D01*
X12350777Y-15303484D02*
X12388872Y-15303484D01*
X12388872Y-15303484D02*
X12407920Y-15293960D01*
X12407920Y-15293960D02*
X12417444Y-15284436D01*
X12417444Y-15284436D02*
X12426967Y-15265388D01*
X12426967Y-15265388D02*
X12426967Y-15227293D01*
X12426967Y-15227293D02*
X12417444Y-15208246D01*
X12417444Y-15208246D02*
X12407920Y-15198722D01*
X12407920Y-15198722D02*
X12388872Y-15189198D01*
X12493634Y-15103484D02*
X12626967Y-15103484D01*
X12626967Y-15103484D02*
X12541253Y-15303484D01*
X12693634Y-15103484D02*
X12693634Y-15141579D01*
X12769825Y-15103484D02*
X12769825Y-15141579D01*
X13065063Y-15379674D02*
X13055539Y-15370150D01*
X13055539Y-15370150D02*
X13036491Y-15341579D01*
X13036491Y-15341579D02*
X13026968Y-15322531D01*
X13026968Y-15322531D02*
X13017444Y-15293960D01*
X13017444Y-15293960D02*
X13007920Y-15246341D01*
X13007920Y-15246341D02*
X13007920Y-15208246D01*
X13007920Y-15208246D02*
X13017444Y-15160627D01*
X13017444Y-15160627D02*
X13026968Y-15132055D01*
X13026968Y-15132055D02*
X13036491Y-15113008D01*
X13036491Y-15113008D02*
X13055539Y-15084436D01*
X13055539Y-15084436D02*
X13065063Y-15074912D01*
X13226968Y-15170150D02*
X13226968Y-15303484D01*
X13179348Y-15093960D02*
X13131729Y-15236817D01*
X13131729Y-15236817D02*
X13255539Y-15236817D01*
X13484110Y-15303484D02*
X13484110Y-15103484D01*
X13569825Y-15303484D02*
X13569825Y-15198722D01*
X13569825Y-15198722D02*
X13560301Y-15179674D01*
X13560301Y-15179674D02*
X13541253Y-15170150D01*
X13541253Y-15170150D02*
X13512682Y-15170150D01*
X13512682Y-15170150D02*
X13493634Y-15179674D01*
X13493634Y-15179674D02*
X13484110Y-15189198D01*
X13693634Y-15303484D02*
X13674587Y-15293960D01*
X13674587Y-15293960D02*
X13665063Y-15284436D01*
X13665063Y-15284436D02*
X13655539Y-15265388D01*
X13655539Y-15265388D02*
X13655539Y-15208246D01*
X13655539Y-15208246D02*
X13665063Y-15189198D01*
X13665063Y-15189198D02*
X13674587Y-15179674D01*
X13674587Y-15179674D02*
X13693634Y-15170150D01*
X13693634Y-15170150D02*
X13722206Y-15170150D01*
X13722206Y-15170150D02*
X13741253Y-15179674D01*
X13741253Y-15179674D02*
X13750777Y-15189198D01*
X13750777Y-15189198D02*
X13760301Y-15208246D01*
X13760301Y-15208246D02*
X13760301Y-15265388D01*
X13760301Y-15265388D02*
X13750777Y-15284436D01*
X13750777Y-15284436D02*
X13741253Y-15293960D01*
X13741253Y-15293960D02*
X13722206Y-15303484D01*
X13722206Y-15303484D02*
X13693634Y-15303484D01*
X13874587Y-15303484D02*
X13855539Y-15293960D01*
X13855539Y-15293960D02*
X13846015Y-15274912D01*
X13846015Y-15274912D02*
X13846015Y-15103484D01*
X14026968Y-15293960D02*
X14007920Y-15303484D01*
X14007920Y-15303484D02*
X13969825Y-15303484D01*
X13969825Y-15303484D02*
X13950777Y-15293960D01*
X13950777Y-15293960D02*
X13941253Y-15274912D01*
X13941253Y-15274912D02*
X13941253Y-15198722D01*
X13941253Y-15198722D02*
X13950777Y-15179674D01*
X13950777Y-15179674D02*
X13969825Y-15170150D01*
X13969825Y-15170150D02*
X14007920Y-15170150D01*
X14007920Y-15170150D02*
X14026968Y-15179674D01*
X14026968Y-15179674D02*
X14036491Y-15198722D01*
X14036491Y-15198722D02*
X14036491Y-15217769D01*
X14036491Y-15217769D02*
X13941253Y-15236817D01*
X14112682Y-15293960D02*
X14131730Y-15303484D01*
X14131730Y-15303484D02*
X14169825Y-15303484D01*
X14169825Y-15303484D02*
X14188872Y-15293960D01*
X14188872Y-15293960D02*
X14198396Y-15274912D01*
X14198396Y-15274912D02*
X14198396Y-15265388D01*
X14198396Y-15265388D02*
X14188872Y-15246341D01*
X14188872Y-15246341D02*
X14169825Y-15236817D01*
X14169825Y-15236817D02*
X14141253Y-15236817D01*
X14141253Y-15236817D02*
X14122206Y-15227293D01*
X14122206Y-15227293D02*
X14112682Y-15208246D01*
X14112682Y-15208246D02*
X14112682Y-15198722D01*
X14112682Y-15198722D02*
X14122206Y-15179674D01*
X14122206Y-15179674D02*
X14141253Y-15170150D01*
X14141253Y-15170150D02*
X14169825Y-15170150D01*
X14169825Y-15170150D02*
X14188872Y-15179674D01*
X14265063Y-15379674D02*
X14274587Y-15370150D01*
X14274587Y-15370150D02*
X14293634Y-15341579D01*
X14293634Y-15341579D02*
X14303158Y-15322531D01*
X14303158Y-15322531D02*
X14312682Y-15293960D01*
X14312682Y-15293960D02*
X14322206Y-15246341D01*
X14322206Y-15246341D02*
X14322206Y-15208246D01*
X14322206Y-15208246D02*
X14312682Y-15160627D01*
X14312682Y-15160627D02*
X14303158Y-15132055D01*
X14303158Y-15132055D02*
X14293634Y-15113008D01*
X14293634Y-15113008D02*
X14274587Y-15084436D01*
X14274587Y-15084436D02*
X14265063Y-15074912D01*
M02*
