%TF.GenerationSoftware,KiCad,Pcbnew,7.0.2*%
%TF.CreationDate,2023-06-06T21:00:26-04:00*%
%TF.ProjectId,ArenaController,4172656e-6143-46f6-9e74-726f6c6c6572,v0.6*%
%TF.SameCoordinates,Original*%
%TF.FileFunction,Drillmap*%
%TF.FilePolarity,Positive*%
%FSLAX45Y45*%
G04 Gerber Fmt 4.5, Leading zero omitted, Abs format (unit mm)*
G04 Created by KiCad (PCBNEW 7.0.2) date 2023-06-06 21:00:26*
%MOMM*%
%LPD*%
G01*
G04 APERTURE LIST*
%ADD10C,0.200000*%
%ADD11C,0.320000*%
G04 APERTURE END LIST*
D10*
X10000000Y-4500000D02*
G75*
G03*
X9500000Y-5000000I0J-500000D01*
G01*
X9500000Y-13000000D02*
G75*
G03*
X10000000Y-13500000I500000J0D01*
G01*
X17500000Y-5000000D02*
G75*
G03*
X17000000Y-4500000I-500000J0D01*
G01*
X17500000Y-5000000D02*
X17500000Y-13000000D01*
X10000000Y-4500000D02*
X17000000Y-4500000D01*
X9500000Y-13000000D02*
X9500000Y-5000000D01*
X17000000Y-13500000D02*
G75*
G03*
X17500000Y-13000000I0J500000D01*
G01*
X17000000Y-13500000D02*
X10000000Y-13500000D01*
D11*
X9840000Y-4840000D02*
X10160000Y-5160000D01*
X10160000Y-4840000D02*
X9840000Y-5160000D01*
X9840000Y-12840000D02*
X10160000Y-13160000D01*
X10160000Y-12840000D02*
X9840000Y-13160000D01*
X16840000Y-4840000D02*
X17160000Y-5160000D01*
X17160000Y-4840000D02*
X16840000Y-5160000D01*
X16840000Y-12840000D02*
X17160000Y-13160000D01*
X17160000Y-12840000D02*
X16840000Y-13160000D01*
D10*
X9737619Y-13822524D02*
X9737619Y-13622524D01*
X9737619Y-13622524D02*
X9785238Y-13622524D01*
X9785238Y-13622524D02*
X9813810Y-13632048D01*
X9813810Y-13632048D02*
X9832857Y-13651095D01*
X9832857Y-13651095D02*
X9842381Y-13670143D01*
X9842381Y-13670143D02*
X9851905Y-13708238D01*
X9851905Y-13708238D02*
X9851905Y-13736809D01*
X9851905Y-13736809D02*
X9842381Y-13774905D01*
X9842381Y-13774905D02*
X9832857Y-13793952D01*
X9832857Y-13793952D02*
X9813810Y-13813000D01*
X9813810Y-13813000D02*
X9785238Y-13822524D01*
X9785238Y-13822524D02*
X9737619Y-13822524D01*
X9937619Y-13822524D02*
X9937619Y-13689190D01*
X9937619Y-13727286D02*
X9947143Y-13708238D01*
X9947143Y-13708238D02*
X9956667Y-13698714D01*
X9956667Y-13698714D02*
X9975714Y-13689190D01*
X9975714Y-13689190D02*
X9994762Y-13689190D01*
X10061429Y-13822524D02*
X10061429Y-13689190D01*
X10061429Y-13622524D02*
X10051905Y-13632048D01*
X10051905Y-13632048D02*
X10061429Y-13641571D01*
X10061429Y-13641571D02*
X10070952Y-13632048D01*
X10070952Y-13632048D02*
X10061429Y-13622524D01*
X10061429Y-13622524D02*
X10061429Y-13641571D01*
X10185238Y-13822524D02*
X10166190Y-13813000D01*
X10166190Y-13813000D02*
X10156667Y-13793952D01*
X10156667Y-13793952D02*
X10156667Y-13622524D01*
X10290000Y-13822524D02*
X10270952Y-13813000D01*
X10270952Y-13813000D02*
X10261429Y-13793952D01*
X10261429Y-13793952D02*
X10261429Y-13622524D01*
X10518571Y-13822524D02*
X10518571Y-13622524D01*
X10518571Y-13622524D02*
X10585238Y-13765381D01*
X10585238Y-13765381D02*
X10651905Y-13622524D01*
X10651905Y-13622524D02*
X10651905Y-13822524D01*
X10832857Y-13822524D02*
X10832857Y-13717762D01*
X10832857Y-13717762D02*
X10823333Y-13698714D01*
X10823333Y-13698714D02*
X10804286Y-13689190D01*
X10804286Y-13689190D02*
X10766190Y-13689190D01*
X10766190Y-13689190D02*
X10747143Y-13698714D01*
X10832857Y-13813000D02*
X10813810Y-13822524D01*
X10813810Y-13822524D02*
X10766190Y-13822524D01*
X10766190Y-13822524D02*
X10747143Y-13813000D01*
X10747143Y-13813000D02*
X10737619Y-13793952D01*
X10737619Y-13793952D02*
X10737619Y-13774905D01*
X10737619Y-13774905D02*
X10747143Y-13755857D01*
X10747143Y-13755857D02*
X10766190Y-13746333D01*
X10766190Y-13746333D02*
X10813810Y-13746333D01*
X10813810Y-13746333D02*
X10832857Y-13736809D01*
X10928095Y-13689190D02*
X10928095Y-13889190D01*
X10928095Y-13698714D02*
X10947143Y-13689190D01*
X10947143Y-13689190D02*
X10985238Y-13689190D01*
X10985238Y-13689190D02*
X11004286Y-13698714D01*
X11004286Y-13698714D02*
X11013810Y-13708238D01*
X11013810Y-13708238D02*
X11023333Y-13727286D01*
X11023333Y-13727286D02*
X11023333Y-13784428D01*
X11023333Y-13784428D02*
X11013810Y-13803476D01*
X11013810Y-13803476D02*
X11004286Y-13813000D01*
X11004286Y-13813000D02*
X10985238Y-13822524D01*
X10985238Y-13822524D02*
X10947143Y-13822524D01*
X10947143Y-13822524D02*
X10928095Y-13813000D01*
X11109048Y-13803476D02*
X11118571Y-13813000D01*
X11118571Y-13813000D02*
X11109048Y-13822524D01*
X11109048Y-13822524D02*
X11099524Y-13813000D01*
X11099524Y-13813000D02*
X11109048Y-13803476D01*
X11109048Y-13803476D02*
X11109048Y-13822524D01*
X11109048Y-13698714D02*
X11118571Y-13708238D01*
X11118571Y-13708238D02*
X11109048Y-13717762D01*
X11109048Y-13717762D02*
X11099524Y-13708238D01*
X11099524Y-13708238D02*
X11109048Y-13698714D01*
X11109048Y-13698714D02*
X11109048Y-13717762D01*
X9290000Y-14050000D02*
X9490000Y-14250000D01*
X9490000Y-14050000D02*
X9290000Y-14250000D01*
X9718571Y-14042524D02*
X9842381Y-14042524D01*
X9842381Y-14042524D02*
X9775714Y-14118714D01*
X9775714Y-14118714D02*
X9804286Y-14118714D01*
X9804286Y-14118714D02*
X9823333Y-14128238D01*
X9823333Y-14128238D02*
X9832857Y-14137762D01*
X9832857Y-14137762D02*
X9842381Y-14156809D01*
X9842381Y-14156809D02*
X9842381Y-14204428D01*
X9842381Y-14204428D02*
X9832857Y-14223476D01*
X9832857Y-14223476D02*
X9823333Y-14233000D01*
X9823333Y-14233000D02*
X9804286Y-14242524D01*
X9804286Y-14242524D02*
X9747143Y-14242524D01*
X9747143Y-14242524D02*
X9728095Y-14233000D01*
X9728095Y-14233000D02*
X9718571Y-14223476D01*
X9928095Y-14223476D02*
X9937619Y-14233000D01*
X9937619Y-14233000D02*
X9928095Y-14242524D01*
X9928095Y-14242524D02*
X9918571Y-14233000D01*
X9918571Y-14233000D02*
X9928095Y-14223476D01*
X9928095Y-14223476D02*
X9928095Y-14242524D01*
X10013810Y-14061571D02*
X10023333Y-14052048D01*
X10023333Y-14052048D02*
X10042381Y-14042524D01*
X10042381Y-14042524D02*
X10090000Y-14042524D01*
X10090000Y-14042524D02*
X10109048Y-14052048D01*
X10109048Y-14052048D02*
X10118571Y-14061571D01*
X10118571Y-14061571D02*
X10128095Y-14080619D01*
X10128095Y-14080619D02*
X10128095Y-14099667D01*
X10128095Y-14099667D02*
X10118571Y-14128238D01*
X10118571Y-14128238D02*
X10004286Y-14242524D01*
X10004286Y-14242524D02*
X10128095Y-14242524D01*
X10251905Y-14042524D02*
X10270952Y-14042524D01*
X10270952Y-14042524D02*
X10290000Y-14052048D01*
X10290000Y-14052048D02*
X10299524Y-14061571D01*
X10299524Y-14061571D02*
X10309048Y-14080619D01*
X10309048Y-14080619D02*
X10318571Y-14118714D01*
X10318571Y-14118714D02*
X10318571Y-14166333D01*
X10318571Y-14166333D02*
X10309048Y-14204428D01*
X10309048Y-14204428D02*
X10299524Y-14223476D01*
X10299524Y-14223476D02*
X10290000Y-14233000D01*
X10290000Y-14233000D02*
X10270952Y-14242524D01*
X10270952Y-14242524D02*
X10251905Y-14242524D01*
X10251905Y-14242524D02*
X10232857Y-14233000D01*
X10232857Y-14233000D02*
X10223333Y-14223476D01*
X10223333Y-14223476D02*
X10213810Y-14204428D01*
X10213810Y-14204428D02*
X10204286Y-14166333D01*
X10204286Y-14166333D02*
X10204286Y-14118714D01*
X10204286Y-14118714D02*
X10213810Y-14080619D01*
X10213810Y-14080619D02*
X10223333Y-14061571D01*
X10223333Y-14061571D02*
X10232857Y-14052048D01*
X10232857Y-14052048D02*
X10251905Y-14042524D01*
X10442381Y-14042524D02*
X10461429Y-14042524D01*
X10461429Y-14042524D02*
X10480476Y-14052048D01*
X10480476Y-14052048D02*
X10490000Y-14061571D01*
X10490000Y-14061571D02*
X10499524Y-14080619D01*
X10499524Y-14080619D02*
X10509048Y-14118714D01*
X10509048Y-14118714D02*
X10509048Y-14166333D01*
X10509048Y-14166333D02*
X10499524Y-14204428D01*
X10499524Y-14204428D02*
X10490000Y-14223476D01*
X10490000Y-14223476D02*
X10480476Y-14233000D01*
X10480476Y-14233000D02*
X10461429Y-14242524D01*
X10461429Y-14242524D02*
X10442381Y-14242524D01*
X10442381Y-14242524D02*
X10423333Y-14233000D01*
X10423333Y-14233000D02*
X10413810Y-14223476D01*
X10413810Y-14223476D02*
X10404286Y-14204428D01*
X10404286Y-14204428D02*
X10394762Y-14166333D01*
X10394762Y-14166333D02*
X10394762Y-14118714D01*
X10394762Y-14118714D02*
X10404286Y-14080619D01*
X10404286Y-14080619D02*
X10413810Y-14061571D01*
X10413810Y-14061571D02*
X10423333Y-14052048D01*
X10423333Y-14052048D02*
X10442381Y-14042524D01*
X10594762Y-14242524D02*
X10594762Y-14109190D01*
X10594762Y-14128238D02*
X10604286Y-14118714D01*
X10604286Y-14118714D02*
X10623333Y-14109190D01*
X10623333Y-14109190D02*
X10651905Y-14109190D01*
X10651905Y-14109190D02*
X10670952Y-14118714D01*
X10670952Y-14118714D02*
X10680476Y-14137762D01*
X10680476Y-14137762D02*
X10680476Y-14242524D01*
X10680476Y-14137762D02*
X10690000Y-14118714D01*
X10690000Y-14118714D02*
X10709048Y-14109190D01*
X10709048Y-14109190D02*
X10737619Y-14109190D01*
X10737619Y-14109190D02*
X10756667Y-14118714D01*
X10756667Y-14118714D02*
X10766191Y-14137762D01*
X10766191Y-14137762D02*
X10766191Y-14242524D01*
X10861429Y-14242524D02*
X10861429Y-14109190D01*
X10861429Y-14128238D02*
X10870952Y-14118714D01*
X10870952Y-14118714D02*
X10890000Y-14109190D01*
X10890000Y-14109190D02*
X10918572Y-14109190D01*
X10918572Y-14109190D02*
X10937619Y-14118714D01*
X10937619Y-14118714D02*
X10947143Y-14137762D01*
X10947143Y-14137762D02*
X10947143Y-14242524D01*
X10947143Y-14137762D02*
X10956667Y-14118714D01*
X10956667Y-14118714D02*
X10975714Y-14109190D01*
X10975714Y-14109190D02*
X11004286Y-14109190D01*
X11004286Y-14109190D02*
X11023333Y-14118714D01*
X11023333Y-14118714D02*
X11032857Y-14137762D01*
X11032857Y-14137762D02*
X11032857Y-14242524D01*
X11423333Y-14033000D02*
X11251905Y-14290143D01*
X11680476Y-14042524D02*
X11699524Y-14042524D01*
X11699524Y-14042524D02*
X11718572Y-14052048D01*
X11718572Y-14052048D02*
X11728095Y-14061571D01*
X11728095Y-14061571D02*
X11737619Y-14080619D01*
X11737619Y-14080619D02*
X11747143Y-14118714D01*
X11747143Y-14118714D02*
X11747143Y-14166333D01*
X11747143Y-14166333D02*
X11737619Y-14204428D01*
X11737619Y-14204428D02*
X11728095Y-14223476D01*
X11728095Y-14223476D02*
X11718572Y-14233000D01*
X11718572Y-14233000D02*
X11699524Y-14242524D01*
X11699524Y-14242524D02*
X11680476Y-14242524D01*
X11680476Y-14242524D02*
X11661429Y-14233000D01*
X11661429Y-14233000D02*
X11651905Y-14223476D01*
X11651905Y-14223476D02*
X11642381Y-14204428D01*
X11642381Y-14204428D02*
X11632857Y-14166333D01*
X11632857Y-14166333D02*
X11632857Y-14118714D01*
X11632857Y-14118714D02*
X11642381Y-14080619D01*
X11642381Y-14080619D02*
X11651905Y-14061571D01*
X11651905Y-14061571D02*
X11661429Y-14052048D01*
X11661429Y-14052048D02*
X11680476Y-14042524D01*
X11832857Y-14223476D02*
X11842381Y-14233000D01*
X11842381Y-14233000D02*
X11832857Y-14242524D01*
X11832857Y-14242524D02*
X11823333Y-14233000D01*
X11823333Y-14233000D02*
X11832857Y-14223476D01*
X11832857Y-14223476D02*
X11832857Y-14242524D01*
X12032857Y-14242524D02*
X11918572Y-14242524D01*
X11975714Y-14242524D02*
X11975714Y-14042524D01*
X11975714Y-14042524D02*
X11956667Y-14071095D01*
X11956667Y-14071095D02*
X11937619Y-14090143D01*
X11937619Y-14090143D02*
X11918572Y-14099667D01*
X12109048Y-14061571D02*
X12118572Y-14052048D01*
X12118572Y-14052048D02*
X12137619Y-14042524D01*
X12137619Y-14042524D02*
X12185238Y-14042524D01*
X12185238Y-14042524D02*
X12204286Y-14052048D01*
X12204286Y-14052048D02*
X12213810Y-14061571D01*
X12213810Y-14061571D02*
X12223333Y-14080619D01*
X12223333Y-14080619D02*
X12223333Y-14099667D01*
X12223333Y-14099667D02*
X12213810Y-14128238D01*
X12213810Y-14128238D02*
X12099524Y-14242524D01*
X12099524Y-14242524D02*
X12223333Y-14242524D01*
X12394762Y-14042524D02*
X12356667Y-14042524D01*
X12356667Y-14042524D02*
X12337619Y-14052048D01*
X12337619Y-14052048D02*
X12328095Y-14061571D01*
X12328095Y-14061571D02*
X12309048Y-14090143D01*
X12309048Y-14090143D02*
X12299524Y-14128238D01*
X12299524Y-14128238D02*
X12299524Y-14204428D01*
X12299524Y-14204428D02*
X12309048Y-14223476D01*
X12309048Y-14223476D02*
X12318572Y-14233000D01*
X12318572Y-14233000D02*
X12337619Y-14242524D01*
X12337619Y-14242524D02*
X12375714Y-14242524D01*
X12375714Y-14242524D02*
X12394762Y-14233000D01*
X12394762Y-14233000D02*
X12404286Y-14223476D01*
X12404286Y-14223476D02*
X12413810Y-14204428D01*
X12413810Y-14204428D02*
X12413810Y-14156809D01*
X12413810Y-14156809D02*
X12404286Y-14137762D01*
X12404286Y-14137762D02*
X12394762Y-14128238D01*
X12394762Y-14128238D02*
X12375714Y-14118714D01*
X12375714Y-14118714D02*
X12337619Y-14118714D01*
X12337619Y-14118714D02*
X12318572Y-14128238D01*
X12318572Y-14128238D02*
X12309048Y-14137762D01*
X12309048Y-14137762D02*
X12299524Y-14156809D01*
X12537619Y-14042524D02*
X12556667Y-14042524D01*
X12556667Y-14042524D02*
X12575714Y-14052048D01*
X12575714Y-14052048D02*
X12585238Y-14061571D01*
X12585238Y-14061571D02*
X12594762Y-14080619D01*
X12594762Y-14080619D02*
X12604286Y-14118714D01*
X12604286Y-14118714D02*
X12604286Y-14166333D01*
X12604286Y-14166333D02*
X12594762Y-14204428D01*
X12594762Y-14204428D02*
X12585238Y-14223476D01*
X12585238Y-14223476D02*
X12575714Y-14233000D01*
X12575714Y-14233000D02*
X12556667Y-14242524D01*
X12556667Y-14242524D02*
X12537619Y-14242524D01*
X12537619Y-14242524D02*
X12518572Y-14233000D01*
X12518572Y-14233000D02*
X12509048Y-14223476D01*
X12509048Y-14223476D02*
X12499524Y-14204428D01*
X12499524Y-14204428D02*
X12490000Y-14166333D01*
X12490000Y-14166333D02*
X12490000Y-14118714D01*
X12490000Y-14118714D02*
X12499524Y-14080619D01*
X12499524Y-14080619D02*
X12509048Y-14061571D01*
X12509048Y-14061571D02*
X12518572Y-14052048D01*
X12518572Y-14052048D02*
X12537619Y-14042524D01*
X12680476Y-14042524D02*
X12680476Y-14080619D01*
X12756667Y-14042524D02*
X12756667Y-14080619D01*
X13051905Y-14318714D02*
X13042381Y-14309190D01*
X13042381Y-14309190D02*
X13023334Y-14280619D01*
X13023334Y-14280619D02*
X13013810Y-14261571D01*
X13013810Y-14261571D02*
X13004286Y-14233000D01*
X13004286Y-14233000D02*
X12994762Y-14185381D01*
X12994762Y-14185381D02*
X12994762Y-14147286D01*
X12994762Y-14147286D02*
X13004286Y-14099667D01*
X13004286Y-14099667D02*
X13013810Y-14071095D01*
X13013810Y-14071095D02*
X13023334Y-14052048D01*
X13023334Y-14052048D02*
X13042381Y-14023476D01*
X13042381Y-14023476D02*
X13051905Y-14013952D01*
X13213810Y-14109190D02*
X13213810Y-14242524D01*
X13166191Y-14033000D02*
X13118572Y-14175857D01*
X13118572Y-14175857D02*
X13242381Y-14175857D01*
X13470953Y-14242524D02*
X13470953Y-14042524D01*
X13556667Y-14242524D02*
X13556667Y-14137762D01*
X13556667Y-14137762D02*
X13547143Y-14118714D01*
X13547143Y-14118714D02*
X13528096Y-14109190D01*
X13528096Y-14109190D02*
X13499524Y-14109190D01*
X13499524Y-14109190D02*
X13480476Y-14118714D01*
X13480476Y-14118714D02*
X13470953Y-14128238D01*
X13680476Y-14242524D02*
X13661429Y-14233000D01*
X13661429Y-14233000D02*
X13651905Y-14223476D01*
X13651905Y-14223476D02*
X13642381Y-14204428D01*
X13642381Y-14204428D02*
X13642381Y-14147286D01*
X13642381Y-14147286D02*
X13651905Y-14128238D01*
X13651905Y-14128238D02*
X13661429Y-14118714D01*
X13661429Y-14118714D02*
X13680476Y-14109190D01*
X13680476Y-14109190D02*
X13709048Y-14109190D01*
X13709048Y-14109190D02*
X13728096Y-14118714D01*
X13728096Y-14118714D02*
X13737619Y-14128238D01*
X13737619Y-14128238D02*
X13747143Y-14147286D01*
X13747143Y-14147286D02*
X13747143Y-14204428D01*
X13747143Y-14204428D02*
X13737619Y-14223476D01*
X13737619Y-14223476D02*
X13728096Y-14233000D01*
X13728096Y-14233000D02*
X13709048Y-14242524D01*
X13709048Y-14242524D02*
X13680476Y-14242524D01*
X13861429Y-14242524D02*
X13842381Y-14233000D01*
X13842381Y-14233000D02*
X13832857Y-14213952D01*
X13832857Y-14213952D02*
X13832857Y-14042524D01*
X14013810Y-14233000D02*
X13994762Y-14242524D01*
X13994762Y-14242524D02*
X13956667Y-14242524D01*
X13956667Y-14242524D02*
X13937619Y-14233000D01*
X13937619Y-14233000D02*
X13928096Y-14213952D01*
X13928096Y-14213952D02*
X13928096Y-14137762D01*
X13928096Y-14137762D02*
X13937619Y-14118714D01*
X13937619Y-14118714D02*
X13956667Y-14109190D01*
X13956667Y-14109190D02*
X13994762Y-14109190D01*
X13994762Y-14109190D02*
X14013810Y-14118714D01*
X14013810Y-14118714D02*
X14023334Y-14137762D01*
X14023334Y-14137762D02*
X14023334Y-14156809D01*
X14023334Y-14156809D02*
X13928096Y-14175857D01*
X14099524Y-14233000D02*
X14118572Y-14242524D01*
X14118572Y-14242524D02*
X14156667Y-14242524D01*
X14156667Y-14242524D02*
X14175715Y-14233000D01*
X14175715Y-14233000D02*
X14185238Y-14213952D01*
X14185238Y-14213952D02*
X14185238Y-14204428D01*
X14185238Y-14204428D02*
X14175715Y-14185381D01*
X14175715Y-14185381D02*
X14156667Y-14175857D01*
X14156667Y-14175857D02*
X14128096Y-14175857D01*
X14128096Y-14175857D02*
X14109048Y-14166333D01*
X14109048Y-14166333D02*
X14099524Y-14147286D01*
X14099524Y-14147286D02*
X14099524Y-14137762D01*
X14099524Y-14137762D02*
X14109048Y-14118714D01*
X14109048Y-14118714D02*
X14128096Y-14109190D01*
X14128096Y-14109190D02*
X14156667Y-14109190D01*
X14156667Y-14109190D02*
X14175715Y-14118714D01*
X14251905Y-14318714D02*
X14261429Y-14309190D01*
X14261429Y-14309190D02*
X14280477Y-14280619D01*
X14280477Y-14280619D02*
X14290000Y-14261571D01*
X14290000Y-14261571D02*
X14299524Y-14233000D01*
X14299524Y-14233000D02*
X14309048Y-14185381D01*
X14309048Y-14185381D02*
X14309048Y-14147286D01*
X14309048Y-14147286D02*
X14299524Y-14099667D01*
X14299524Y-14099667D02*
X14290000Y-14071095D01*
X14290000Y-14071095D02*
X14280477Y-14052048D01*
X14280477Y-14052048D02*
X14261429Y-14023476D01*
X14261429Y-14023476D02*
X14251905Y-14013952D01*
X14613810Y-14318714D02*
X14604286Y-14309190D01*
X14604286Y-14309190D02*
X14585238Y-14280619D01*
X14585238Y-14280619D02*
X14575715Y-14261571D01*
X14575715Y-14261571D02*
X14566191Y-14233000D01*
X14566191Y-14233000D02*
X14556667Y-14185381D01*
X14556667Y-14185381D02*
X14556667Y-14147286D01*
X14556667Y-14147286D02*
X14566191Y-14099667D01*
X14566191Y-14099667D02*
X14575715Y-14071095D01*
X14575715Y-14071095D02*
X14585238Y-14052048D01*
X14585238Y-14052048D02*
X14604286Y-14023476D01*
X14604286Y-14023476D02*
X14613810Y-14013952D01*
X14690000Y-14109190D02*
X14690000Y-14242524D01*
X14690000Y-14128238D02*
X14699524Y-14118714D01*
X14699524Y-14118714D02*
X14718572Y-14109190D01*
X14718572Y-14109190D02*
X14747143Y-14109190D01*
X14747143Y-14109190D02*
X14766191Y-14118714D01*
X14766191Y-14118714D02*
X14775715Y-14137762D01*
X14775715Y-14137762D02*
X14775715Y-14242524D01*
X14899524Y-14242524D02*
X14880477Y-14233000D01*
X14880477Y-14233000D02*
X14870953Y-14223476D01*
X14870953Y-14223476D02*
X14861429Y-14204428D01*
X14861429Y-14204428D02*
X14861429Y-14147286D01*
X14861429Y-14147286D02*
X14870953Y-14128238D01*
X14870953Y-14128238D02*
X14880477Y-14118714D01*
X14880477Y-14118714D02*
X14899524Y-14109190D01*
X14899524Y-14109190D02*
X14928096Y-14109190D01*
X14928096Y-14109190D02*
X14947143Y-14118714D01*
X14947143Y-14118714D02*
X14956667Y-14128238D01*
X14956667Y-14128238D02*
X14966191Y-14147286D01*
X14966191Y-14147286D02*
X14966191Y-14204428D01*
X14966191Y-14204428D02*
X14956667Y-14223476D01*
X14956667Y-14223476D02*
X14947143Y-14233000D01*
X14947143Y-14233000D02*
X14928096Y-14242524D01*
X14928096Y-14242524D02*
X14899524Y-14242524D01*
X15023334Y-14109190D02*
X15099524Y-14109190D01*
X15051905Y-14042524D02*
X15051905Y-14213952D01*
X15051905Y-14213952D02*
X15061429Y-14233000D01*
X15061429Y-14233000D02*
X15080477Y-14242524D01*
X15080477Y-14242524D02*
X15099524Y-14242524D01*
X15318572Y-14109190D02*
X15318572Y-14309190D01*
X15318572Y-14118714D02*
X15337619Y-14109190D01*
X15337619Y-14109190D02*
X15375715Y-14109190D01*
X15375715Y-14109190D02*
X15394762Y-14118714D01*
X15394762Y-14118714D02*
X15404286Y-14128238D01*
X15404286Y-14128238D02*
X15413810Y-14147286D01*
X15413810Y-14147286D02*
X15413810Y-14204428D01*
X15413810Y-14204428D02*
X15404286Y-14223476D01*
X15404286Y-14223476D02*
X15394762Y-14233000D01*
X15394762Y-14233000D02*
X15375715Y-14242524D01*
X15375715Y-14242524D02*
X15337619Y-14242524D01*
X15337619Y-14242524D02*
X15318572Y-14233000D01*
X15528096Y-14242524D02*
X15509048Y-14233000D01*
X15509048Y-14233000D02*
X15499524Y-14213952D01*
X15499524Y-14213952D02*
X15499524Y-14042524D01*
X15690000Y-14242524D02*
X15690000Y-14137762D01*
X15690000Y-14137762D02*
X15680477Y-14118714D01*
X15680477Y-14118714D02*
X15661429Y-14109190D01*
X15661429Y-14109190D02*
X15623334Y-14109190D01*
X15623334Y-14109190D02*
X15604286Y-14118714D01*
X15690000Y-14233000D02*
X15670953Y-14242524D01*
X15670953Y-14242524D02*
X15623334Y-14242524D01*
X15623334Y-14242524D02*
X15604286Y-14233000D01*
X15604286Y-14233000D02*
X15594762Y-14213952D01*
X15594762Y-14213952D02*
X15594762Y-14194905D01*
X15594762Y-14194905D02*
X15604286Y-14175857D01*
X15604286Y-14175857D02*
X15623334Y-14166333D01*
X15623334Y-14166333D02*
X15670953Y-14166333D01*
X15670953Y-14166333D02*
X15690000Y-14156809D01*
X15756667Y-14109190D02*
X15832858Y-14109190D01*
X15785239Y-14042524D02*
X15785239Y-14213952D01*
X15785239Y-14213952D02*
X15794762Y-14233000D01*
X15794762Y-14233000D02*
X15813810Y-14242524D01*
X15813810Y-14242524D02*
X15832858Y-14242524D01*
X15975715Y-14233000D02*
X15956667Y-14242524D01*
X15956667Y-14242524D02*
X15918572Y-14242524D01*
X15918572Y-14242524D02*
X15899524Y-14233000D01*
X15899524Y-14233000D02*
X15890000Y-14213952D01*
X15890000Y-14213952D02*
X15890000Y-14137762D01*
X15890000Y-14137762D02*
X15899524Y-14118714D01*
X15899524Y-14118714D02*
X15918572Y-14109190D01*
X15918572Y-14109190D02*
X15956667Y-14109190D01*
X15956667Y-14109190D02*
X15975715Y-14118714D01*
X15975715Y-14118714D02*
X15985239Y-14137762D01*
X15985239Y-14137762D02*
X15985239Y-14156809D01*
X15985239Y-14156809D02*
X15890000Y-14175857D01*
X16156667Y-14242524D02*
X16156667Y-14042524D01*
X16156667Y-14233000D02*
X16137620Y-14242524D01*
X16137620Y-14242524D02*
X16099524Y-14242524D01*
X16099524Y-14242524D02*
X16080477Y-14233000D01*
X16080477Y-14233000D02*
X16070953Y-14223476D01*
X16070953Y-14223476D02*
X16061429Y-14204428D01*
X16061429Y-14204428D02*
X16061429Y-14147286D01*
X16061429Y-14147286D02*
X16070953Y-14128238D01*
X16070953Y-14128238D02*
X16080477Y-14118714D01*
X16080477Y-14118714D02*
X16099524Y-14109190D01*
X16099524Y-14109190D02*
X16137620Y-14109190D01*
X16137620Y-14109190D02*
X16156667Y-14118714D01*
X16232858Y-14318714D02*
X16242381Y-14309190D01*
X16242381Y-14309190D02*
X16261429Y-14280619D01*
X16261429Y-14280619D02*
X16270953Y-14261571D01*
X16270953Y-14261571D02*
X16280477Y-14233000D01*
X16280477Y-14233000D02*
X16290000Y-14185381D01*
X16290000Y-14185381D02*
X16290000Y-14147286D01*
X16290000Y-14147286D02*
X16280477Y-14099667D01*
X16280477Y-14099667D02*
X16270953Y-14071095D01*
X16270953Y-14071095D02*
X16261429Y-14052048D01*
X16261429Y-14052048D02*
X16242381Y-14023476D01*
X16242381Y-14023476D02*
X16232858Y-14013952D01*
M02*
