%TF.GenerationSoftware,KiCad,Pcbnew,7.99.0-2684-g11de95778b*%
%TF.CreationDate,2023-09-09T13:36:23-04:00*%
%TF.ProjectId,ArenaController,4172656e-6143-46f6-9e74-726f6c6c6572,v2.0b*%
%TF.SameCoordinates,Original*%
%TF.FileFunction,Legend,Top*%
%TF.FilePolarity,Positive*%
%FSLAX46Y46*%
G04 Gerber Fmt 4.6, Leading zero omitted, Abs format (unit mm)*
G04 Created by KiCad (PCBNEW 7.99.0-2684-g11de95778b) date 2023-09-09 13:36:23*
%MOMM*%
%LPD*%
G01*
G04 APERTURE LIST*
%ADD10C,0.300000*%
%ADD11C,0.200000*%
%ADD12C,0.120000*%
%ADD13C,0.100000*%
%ADD14C,0.000000*%
G04 APERTURE END LIST*
D10*
G36*
X177650203Y-112951281D02*
G01*
X177687206Y-112988285D01*
X177731914Y-113077699D01*
X177731914Y-113392289D01*
X177317628Y-113392289D01*
X177317628Y-113077699D01*
X177362335Y-112988284D01*
X177399339Y-112951280D01*
X177488752Y-112906574D01*
X177560790Y-112906574D01*
X177650203Y-112951281D01*
G37*
G36*
X178435916Y-112879851D02*
G01*
X178472921Y-112916856D01*
X178517628Y-113006269D01*
X178517628Y-113392289D01*
X178031914Y-113392289D01*
X178031914Y-113066631D01*
X178084447Y-112909029D01*
X178113624Y-112879852D01*
X178203038Y-112835146D01*
X178346504Y-112835146D01*
X178435916Y-112879851D01*
G37*
G36*
X178435918Y-108451281D02*
G01*
X178472922Y-108488285D01*
X178517628Y-108577697D01*
X178517628Y-108721164D01*
X178472921Y-108810577D01*
X178435916Y-108847582D01*
X178346504Y-108892288D01*
X177988752Y-108892288D01*
X177899339Y-108847582D01*
X177862335Y-108810578D01*
X177817628Y-108721163D01*
X177817628Y-108577698D01*
X177862335Y-108488284D01*
X177899339Y-108451280D01*
X177988752Y-108406574D01*
X178346504Y-108406574D01*
X178435918Y-108451281D01*
G37*
G36*
X178984295Y-113858956D02*
G01*
X176850961Y-113858956D01*
X176850961Y-113542289D01*
X177017628Y-113542289D01*
X177037724Y-113617289D01*
X177092628Y-113672193D01*
X177167628Y-113692289D01*
X177881914Y-113692289D01*
X178667628Y-113692289D01*
X178742628Y-113672193D01*
X178797532Y-113617289D01*
X178817628Y-113542289D01*
X178817628Y-112970860D01*
X178808703Y-112937554D01*
X178801792Y-112903779D01*
X178730364Y-112760921D01*
X178714340Y-112742851D01*
X178702266Y-112721937D01*
X178630837Y-112650508D01*
X178609922Y-112638433D01*
X178591853Y-112622410D01*
X178448996Y-112550982D01*
X178415217Y-112544069D01*
X178381914Y-112535146D01*
X178167628Y-112535146D01*
X178134322Y-112544070D01*
X178100547Y-112550982D01*
X177957689Y-112622410D01*
X177939619Y-112638433D01*
X177918705Y-112650508D01*
X177847276Y-112721937D01*
X177846487Y-112723301D01*
X177845124Y-112721938D01*
X177824207Y-112709861D01*
X177806139Y-112693839D01*
X177663282Y-112622410D01*
X177629501Y-112615497D01*
X177596200Y-112606574D01*
X177453342Y-112606574D01*
X177420041Y-112615496D01*
X177386259Y-112622410D01*
X177243403Y-112693839D01*
X177225334Y-112709861D01*
X177204418Y-112721938D01*
X177132990Y-112793367D01*
X177120915Y-112814281D01*
X177104893Y-112832350D01*
X177033464Y-112975207D01*
X177026551Y-113008987D01*
X177017628Y-113042289D01*
X177017628Y-113542289D01*
X176850961Y-113542289D01*
X176850961Y-112042289D01*
X177517628Y-112042289D01*
X177537724Y-112117289D01*
X177592628Y-112172193D01*
X177667628Y-112192289D01*
X178453342Y-112192289D01*
X178486643Y-112183365D01*
X178520424Y-112176453D01*
X178663282Y-112105024D01*
X178670144Y-112098938D01*
X178678849Y-112096037D01*
X178698836Y-112073496D01*
X178721377Y-112053509D01*
X178724278Y-112044804D01*
X178730364Y-112037942D01*
X178801792Y-111895084D01*
X178808703Y-111861308D01*
X178817628Y-111828003D01*
X178817628Y-111613717D01*
X178808703Y-111580411D01*
X178801792Y-111546636D01*
X178776304Y-111495659D01*
X178797532Y-111474432D01*
X178817628Y-111399432D01*
X178797532Y-111324432D01*
X178742628Y-111269528D01*
X178667628Y-111249432D01*
X177667628Y-111249432D01*
X177592628Y-111269528D01*
X177537724Y-111324432D01*
X177517628Y-111399432D01*
X177537724Y-111474432D01*
X177592628Y-111529336D01*
X177667628Y-111549432D01*
X178462640Y-111549432D01*
X178472922Y-111559714D01*
X178517628Y-111649126D01*
X178517628Y-111792593D01*
X178484396Y-111859056D01*
X178417932Y-111892289D01*
X177667628Y-111892289D01*
X177592628Y-111912385D01*
X177537724Y-111967289D01*
X177517628Y-112042289D01*
X176850961Y-112042289D01*
X176850961Y-110685146D01*
X177017628Y-110685146D01*
X177037724Y-110760146D01*
X177092628Y-110815050D01*
X177167628Y-110835146D01*
X177517628Y-110835146D01*
X177517628Y-110899431D01*
X177537724Y-110974431D01*
X177592628Y-111029335D01*
X177667628Y-111049431D01*
X177742628Y-111029335D01*
X177797532Y-110974431D01*
X177817628Y-110899431D01*
X177817628Y-110835146D01*
X178453342Y-110835146D01*
X178486643Y-110826222D01*
X178520424Y-110819310D01*
X178663282Y-110747881D01*
X178670144Y-110741795D01*
X178678849Y-110738894D01*
X178698836Y-110716353D01*
X178721377Y-110696366D01*
X178724278Y-110687661D01*
X178730364Y-110680799D01*
X178801792Y-110537941D01*
X178808703Y-110504165D01*
X178817628Y-110470860D01*
X178817628Y-110328003D01*
X178797532Y-110253003D01*
X178742628Y-110198099D01*
X178667628Y-110178003D01*
X178592628Y-110198099D01*
X178537724Y-110253003D01*
X178517628Y-110328003D01*
X178517628Y-110435450D01*
X178484396Y-110501913D01*
X178417932Y-110535146D01*
X177817628Y-110535146D01*
X177817628Y-110328003D01*
X177797532Y-110253003D01*
X177742628Y-110198099D01*
X177694284Y-110185145D01*
X177742628Y-110172192D01*
X177797532Y-110117288D01*
X177817628Y-110042288D01*
X177817628Y-109978003D01*
X178453342Y-109978003D01*
X178486643Y-109969079D01*
X178520424Y-109962167D01*
X178663282Y-109890738D01*
X178670144Y-109884652D01*
X178678849Y-109881751D01*
X178698836Y-109859210D01*
X178721377Y-109839223D01*
X178724278Y-109830518D01*
X178730364Y-109823656D01*
X178801792Y-109680798D01*
X178808703Y-109647022D01*
X178817628Y-109613717D01*
X178817628Y-109470860D01*
X178797532Y-109395860D01*
X178742628Y-109340956D01*
X178667628Y-109320860D01*
X178592628Y-109340956D01*
X178537724Y-109395860D01*
X178517628Y-109470860D01*
X178517628Y-109578307D01*
X178484396Y-109644770D01*
X178417932Y-109678003D01*
X177817628Y-109678003D01*
X177817628Y-109470860D01*
X177797532Y-109395860D01*
X177742628Y-109340956D01*
X177667628Y-109320860D01*
X177592628Y-109340956D01*
X177537724Y-109395860D01*
X177517628Y-109470860D01*
X177517628Y-109678003D01*
X177167628Y-109678003D01*
X177092628Y-109698099D01*
X177037724Y-109753003D01*
X177017628Y-109828003D01*
X177037724Y-109903003D01*
X177092628Y-109957907D01*
X177167628Y-109978003D01*
X177517628Y-109978003D01*
X177517628Y-110042288D01*
X177537724Y-110117288D01*
X177592628Y-110172192D01*
X177640971Y-110185145D01*
X177592628Y-110198099D01*
X177537724Y-110253003D01*
X177517628Y-110328003D01*
X177517628Y-110535146D01*
X177167628Y-110535146D01*
X177092628Y-110555242D01*
X177037724Y-110610146D01*
X177017628Y-110685146D01*
X176850961Y-110685146D01*
X176850961Y-108756574D01*
X177517628Y-108756574D01*
X177526551Y-108789875D01*
X177533464Y-108823656D01*
X177604893Y-108966513D01*
X177620915Y-108984581D01*
X177632990Y-109005496D01*
X177704418Y-109076925D01*
X177725333Y-109089000D01*
X177743403Y-109105024D01*
X177886261Y-109176452D01*
X177920036Y-109183363D01*
X177953342Y-109192288D01*
X178381914Y-109192288D01*
X178415217Y-109183364D01*
X178448996Y-109176452D01*
X178591853Y-109105024D01*
X178609922Y-109089000D01*
X178630837Y-109076926D01*
X178702266Y-109005497D01*
X178714340Y-108984582D01*
X178730364Y-108966513D01*
X178801792Y-108823655D01*
X178808703Y-108789879D01*
X178817628Y-108756574D01*
X178817628Y-108542288D01*
X178808703Y-108508982D01*
X178801792Y-108475207D01*
X178730364Y-108332349D01*
X178714340Y-108314279D01*
X178702265Y-108293364D01*
X178630836Y-108221936D01*
X178609921Y-108209861D01*
X178591853Y-108193839D01*
X178448996Y-108122410D01*
X178415215Y-108115497D01*
X178381914Y-108106574D01*
X177953342Y-108106574D01*
X177920041Y-108115496D01*
X177886259Y-108122410D01*
X177743403Y-108193839D01*
X177725334Y-108209861D01*
X177704419Y-108221937D01*
X177632991Y-108293365D01*
X177620915Y-108314280D01*
X177604893Y-108332349D01*
X177533464Y-108475206D01*
X177526551Y-108508986D01*
X177517628Y-108542288D01*
X177517628Y-108756574D01*
X176850961Y-108756574D01*
X176850961Y-107613717D01*
X177517628Y-107613717D01*
X177537724Y-107688717D01*
X177592628Y-107743621D01*
X177667628Y-107763717D01*
X178667628Y-107763717D01*
X178742628Y-107743621D01*
X178797532Y-107688717D01*
X178817628Y-107613717D01*
X178797532Y-107538717D01*
X178742628Y-107483813D01*
X178667628Y-107463717D01*
X177872618Y-107463717D01*
X177862335Y-107453435D01*
X177817628Y-107364020D01*
X177817628Y-107220555D01*
X177850860Y-107154091D01*
X177917324Y-107120860D01*
X178667628Y-107120860D01*
X178742628Y-107100764D01*
X178797532Y-107045860D01*
X178817628Y-106970860D01*
X178797532Y-106895860D01*
X178742628Y-106840956D01*
X178667628Y-106820860D01*
X177881914Y-106820860D01*
X177848608Y-106829784D01*
X177814833Y-106836696D01*
X177671975Y-106908124D01*
X177665111Y-106914210D01*
X177656409Y-106917111D01*
X177636423Y-106939648D01*
X177613880Y-106959639D01*
X177610978Y-106968343D01*
X177604893Y-106975206D01*
X177533464Y-107118063D01*
X177526551Y-107151843D01*
X177517628Y-107185145D01*
X177517628Y-107399431D01*
X177526551Y-107432732D01*
X177533464Y-107466513D01*
X177558952Y-107517488D01*
X177537724Y-107538717D01*
X177517628Y-107613717D01*
X176850961Y-107613717D01*
X176850961Y-104756574D01*
X177017628Y-104756574D01*
X177026469Y-104789570D01*
X177033167Y-104823058D01*
X177036440Y-104826782D01*
X177037724Y-104831574D01*
X177061877Y-104855727D01*
X177084423Y-104881382D01*
X177286352Y-105016001D01*
X177401493Y-105131142D01*
X177462036Y-105252227D01*
X177513552Y-105310322D01*
X177587213Y-105334876D01*
X177663282Y-105319309D01*
X177721377Y-105267793D01*
X177745931Y-105194132D01*
X177730364Y-105118062D01*
X177658935Y-104975206D01*
X177642912Y-104957137D01*
X177630837Y-104936222D01*
X177601189Y-104906574D01*
X178517628Y-104906574D01*
X178517628Y-105185145D01*
X178537724Y-105260145D01*
X178592628Y-105315049D01*
X178667628Y-105335145D01*
X178742628Y-105315049D01*
X178797532Y-105260145D01*
X178817628Y-105185145D01*
X178817628Y-104328002D01*
X178797532Y-104253002D01*
X178742628Y-104198098D01*
X178667628Y-104178002D01*
X178592628Y-104198098D01*
X178537724Y-104253002D01*
X178517628Y-104328002D01*
X178517628Y-104606574D01*
X177167628Y-104606574D01*
X177134631Y-104615415D01*
X177101144Y-104622113D01*
X177097419Y-104625386D01*
X177092628Y-104626670D01*
X177068474Y-104650823D01*
X177042820Y-104673369D01*
X177041230Y-104678067D01*
X177037724Y-104681574D01*
X177028884Y-104714564D01*
X177017939Y-104746920D01*
X177018911Y-104751783D01*
X177017628Y-104756574D01*
X176850961Y-104756574D01*
X176850961Y-104011335D01*
X178984295Y-104011335D01*
X178984295Y-113858956D01*
G37*
X101913671Y-81463428D02*
X100842242Y-81463428D01*
X100842242Y-81463428D02*
X100627957Y-81391999D01*
X100627957Y-81391999D02*
X100485100Y-81249142D01*
X100485100Y-81249142D02*
X100413671Y-81034856D01*
X100413671Y-81034856D02*
X100413671Y-80891999D01*
X100413671Y-82891999D02*
X100413671Y-82177713D01*
X100413671Y-82177713D02*
X101913671Y-82177713D01*
X100556528Y-84249142D02*
X100485100Y-84177714D01*
X100485100Y-84177714D02*
X100413671Y-83963428D01*
X100413671Y-83963428D02*
X100413671Y-83820571D01*
X100413671Y-83820571D02*
X100485100Y-83606285D01*
X100485100Y-83606285D02*
X100627957Y-83463428D01*
X100627957Y-83463428D02*
X100770814Y-83391999D01*
X100770814Y-83391999D02*
X101056528Y-83320571D01*
X101056528Y-83320571D02*
X101270814Y-83320571D01*
X101270814Y-83320571D02*
X101556528Y-83391999D01*
X101556528Y-83391999D02*
X101699385Y-83463428D01*
X101699385Y-83463428D02*
X101842242Y-83606285D01*
X101842242Y-83606285D02*
X101913671Y-83820571D01*
X101913671Y-83820571D02*
X101913671Y-83963428D01*
X101913671Y-83963428D02*
X101842242Y-84177714D01*
X101842242Y-84177714D02*
X101770814Y-84249142D01*
X101913671Y-85320571D02*
X100842242Y-85320571D01*
X100842242Y-85320571D02*
X100627957Y-85249142D01*
X100627957Y-85249142D02*
X100485100Y-85106285D01*
X100485100Y-85106285D02*
X100413671Y-84891999D01*
X100413671Y-84891999D02*
X100413671Y-84749142D01*
X100413671Y-86749142D02*
X100413671Y-86034856D01*
X100413671Y-86034856D02*
X101913671Y-86034856D01*
X100556528Y-88106285D02*
X100485100Y-88034857D01*
X100485100Y-88034857D02*
X100413671Y-87820571D01*
X100413671Y-87820571D02*
X100413671Y-87677714D01*
X100413671Y-87677714D02*
X100485100Y-87463428D01*
X100485100Y-87463428D02*
X100627957Y-87320571D01*
X100627957Y-87320571D02*
X100770814Y-87249142D01*
X100770814Y-87249142D02*
X101056528Y-87177714D01*
X101056528Y-87177714D02*
X101270814Y-87177714D01*
X101270814Y-87177714D02*
X101556528Y-87249142D01*
X101556528Y-87249142D02*
X101699385Y-87320571D01*
X101699385Y-87320571D02*
X101842242Y-87463428D01*
X101842242Y-87463428D02*
X101913671Y-87677714D01*
X101913671Y-87677714D02*
X101913671Y-87820571D01*
X101913671Y-87820571D02*
X101842242Y-88034857D01*
X101842242Y-88034857D02*
X101770814Y-88106285D01*
X101913671Y-89177714D02*
X100842242Y-89177714D01*
X100842242Y-89177714D02*
X100627957Y-89106285D01*
X100627957Y-89106285D02*
X100485100Y-88963428D01*
X100485100Y-88963428D02*
X100413671Y-88749142D01*
X100413671Y-88749142D02*
X100413671Y-88606285D01*
X100413671Y-90606285D02*
X100413671Y-89891999D01*
X100413671Y-89891999D02*
X101913671Y-89891999D01*
X100556528Y-91963428D02*
X100485100Y-91892000D01*
X100485100Y-91892000D02*
X100413671Y-91677714D01*
X100413671Y-91677714D02*
X100413671Y-91534857D01*
X100413671Y-91534857D02*
X100485100Y-91320571D01*
X100485100Y-91320571D02*
X100627957Y-91177714D01*
X100627957Y-91177714D02*
X100770814Y-91106285D01*
X100770814Y-91106285D02*
X101056528Y-91034857D01*
X101056528Y-91034857D02*
X101270814Y-91034857D01*
X101270814Y-91034857D02*
X101556528Y-91106285D01*
X101556528Y-91106285D02*
X101699385Y-91177714D01*
X101699385Y-91177714D02*
X101842242Y-91320571D01*
X101842242Y-91320571D02*
X101913671Y-91534857D01*
X101913671Y-91534857D02*
X101913671Y-91677714D01*
X101913671Y-91677714D02*
X101842242Y-91892000D01*
X101842242Y-91892000D02*
X101770814Y-91963428D01*
X101913671Y-93034857D02*
X100842242Y-93034857D01*
X100842242Y-93034857D02*
X100627957Y-92963428D01*
X100627957Y-92963428D02*
X100485100Y-92820571D01*
X100485100Y-92820571D02*
X100413671Y-92606285D01*
X100413671Y-92606285D02*
X100413671Y-92463428D01*
X100413671Y-94463428D02*
X100413671Y-93749142D01*
X100413671Y-93749142D02*
X101913671Y-93749142D01*
X100556528Y-95820571D02*
X100485100Y-95749143D01*
X100485100Y-95749143D02*
X100413671Y-95534857D01*
X100413671Y-95534857D02*
X100413671Y-95392000D01*
X100413671Y-95392000D02*
X100485100Y-95177714D01*
X100485100Y-95177714D02*
X100627957Y-95034857D01*
X100627957Y-95034857D02*
X100770814Y-94963428D01*
X100770814Y-94963428D02*
X101056528Y-94892000D01*
X101056528Y-94892000D02*
X101270814Y-94892000D01*
X101270814Y-94892000D02*
X101556528Y-94963428D01*
X101556528Y-94963428D02*
X101699385Y-95034857D01*
X101699385Y-95034857D02*
X101842242Y-95177714D01*
X101842242Y-95177714D02*
X101913671Y-95392000D01*
X101913671Y-95392000D02*
X101913671Y-95534857D01*
X101913671Y-95534857D02*
X101842242Y-95749143D01*
X101842242Y-95749143D02*
X101770814Y-95820571D01*
G36*
X97177717Y-66563045D02*
G01*
X97200435Y-66585763D01*
X97230857Y-66646606D01*
X97230857Y-66804053D01*
X96730857Y-66804053D01*
X96730857Y-66646606D01*
X96761278Y-66585763D01*
X96783996Y-66563044D01*
X96844838Y-66532624D01*
X97116875Y-66532624D01*
X97177717Y-66563045D01*
G37*
G36*
X96869053Y-62265856D02*
G01*
X96888000Y-62303749D01*
X96888000Y-62518339D01*
X96730857Y-62518339D01*
X96730857Y-62303749D01*
X96749803Y-62265856D01*
X96787696Y-62246910D01*
X96831161Y-62246910D01*
X96869053Y-62265856D01*
G37*
G36*
X98080857Y-71139766D02*
G01*
X95880857Y-71139766D01*
X95880857Y-70839766D01*
X96430857Y-70839766D01*
X96450953Y-70914766D01*
X96505857Y-70969670D01*
X96580857Y-70989766D01*
X96655857Y-70969670D01*
X96710761Y-70914766D01*
X96730857Y-70839766D01*
X96730857Y-70459041D01*
X97160505Y-70888689D01*
X97190367Y-70905930D01*
X97219137Y-70924925D01*
X97390566Y-70982068D01*
X97414671Y-70983515D01*
X97438000Y-70989766D01*
X97552285Y-70989766D01*
X97585586Y-70980842D01*
X97619367Y-70973930D01*
X97733653Y-70916787D01*
X97751721Y-70900764D01*
X97772636Y-70888690D01*
X97829779Y-70831548D01*
X97841854Y-70810632D01*
X97857878Y-70792563D01*
X97915021Y-70678277D01*
X97921933Y-70644498D01*
X97930857Y-70611195D01*
X97930857Y-70325481D01*
X97921933Y-70292177D01*
X97915021Y-70258399D01*
X97857878Y-70144113D01*
X97841854Y-70126043D01*
X97829780Y-70105129D01*
X97772637Y-70047986D01*
X97705394Y-70009163D01*
X97627748Y-70009163D01*
X97560505Y-70047986D01*
X97521682Y-70115229D01*
X97521682Y-70192875D01*
X97560505Y-70260118D01*
X97600436Y-70300049D01*
X97630857Y-70360891D01*
X97630857Y-70575785D01*
X97600436Y-70636626D01*
X97577717Y-70659344D01*
X97516875Y-70689766D01*
X97462343Y-70689766D01*
X97347598Y-70651518D01*
X96686923Y-69990843D01*
X96669821Y-69980969D01*
X96655857Y-69967005D01*
X96636782Y-69961893D01*
X96619680Y-69952020D01*
X96599932Y-69952020D01*
X96580857Y-69946909D01*
X96561782Y-69952020D01*
X96542034Y-69952020D01*
X96524931Y-69961893D01*
X96505857Y-69967005D01*
X96491892Y-69980969D01*
X96474791Y-69990843D01*
X96464917Y-70007944D01*
X96450953Y-70021909D01*
X96445841Y-70040983D01*
X96435968Y-70058086D01*
X96435968Y-70077834D01*
X96430857Y-70096909D01*
X96430857Y-70839766D01*
X95880857Y-70839766D01*
X95880857Y-68896909D01*
X96430857Y-68896909D01*
X96450953Y-68971909D01*
X96505857Y-69026813D01*
X96580857Y-69046909D01*
X96655857Y-69026813D01*
X96710761Y-68971909D01*
X96730857Y-68896909D01*
X96730857Y-68818034D01*
X96749803Y-68780141D01*
X96787696Y-68761195D01*
X97230857Y-68761195D01*
X97230857Y-68896909D01*
X97250953Y-68971909D01*
X97305857Y-69026813D01*
X97380857Y-69046909D01*
X97455857Y-69026813D01*
X97510761Y-68971909D01*
X97530857Y-68896909D01*
X97530857Y-68761195D01*
X97780857Y-68761195D01*
X97855857Y-68741099D01*
X97910761Y-68686195D01*
X97930857Y-68611195D01*
X97910761Y-68536195D01*
X97855857Y-68481291D01*
X97780857Y-68461195D01*
X97530857Y-68461195D01*
X97530857Y-68439766D01*
X97510761Y-68364766D01*
X97455857Y-68309862D01*
X97380857Y-68289766D01*
X97305857Y-68309862D01*
X97250953Y-68364766D01*
X97230857Y-68439766D01*
X97230857Y-68461195D01*
X96752285Y-68461195D01*
X96718983Y-68470118D01*
X96685203Y-68477031D01*
X96570917Y-68534174D01*
X96564053Y-68540260D01*
X96555352Y-68543161D01*
X96535363Y-68565701D01*
X96512823Y-68585690D01*
X96509922Y-68594391D01*
X96503836Y-68601255D01*
X96446693Y-68715540D01*
X96439779Y-68749322D01*
X96430857Y-68782623D01*
X96430857Y-68896909D01*
X95880857Y-68896909D01*
X95880857Y-68039767D01*
X96430857Y-68039767D01*
X96450953Y-68114767D01*
X96505857Y-68169671D01*
X96580857Y-68189767D01*
X97209428Y-68189767D01*
X97242729Y-68180843D01*
X97276510Y-68173931D01*
X97390796Y-68116788D01*
X97397658Y-68110702D01*
X97406363Y-68107801D01*
X97426353Y-68085257D01*
X97448891Y-68065272D01*
X97451791Y-68056569D01*
X97457878Y-68049706D01*
X97515021Y-67935420D01*
X97521933Y-67901641D01*
X97530857Y-67868338D01*
X97530857Y-67696909D01*
X97525115Y-67675481D01*
X97780857Y-67675481D01*
X97855857Y-67655385D01*
X97910761Y-67600481D01*
X97930857Y-67525481D01*
X97910761Y-67450481D01*
X97855857Y-67395577D01*
X97780857Y-67375481D01*
X96580857Y-67375481D01*
X96505857Y-67395577D01*
X96450953Y-67450481D01*
X96430857Y-67525481D01*
X96450953Y-67600481D01*
X96505857Y-67655385D01*
X96580857Y-67675481D01*
X97202437Y-67675481D01*
X97230857Y-67732320D01*
X97230857Y-67832928D01*
X97211910Y-67870820D01*
X97174018Y-67889767D01*
X96580857Y-67889767D01*
X96505857Y-67909863D01*
X96450953Y-67964767D01*
X96430857Y-68039767D01*
X95880857Y-68039767D01*
X95880857Y-66725481D01*
X96030857Y-66725481D01*
X96039780Y-66758782D01*
X96046693Y-66792563D01*
X96103836Y-66906849D01*
X96119858Y-66924917D01*
X96131933Y-66945832D01*
X96189075Y-67002975D01*
X96209990Y-67015050D01*
X96228060Y-67031074D01*
X96342346Y-67088217D01*
X96376124Y-67095129D01*
X96409428Y-67104053D01*
X97380857Y-67104053D01*
X97455857Y-67083957D01*
X97510761Y-67029053D01*
X97530857Y-66954053D01*
X97516401Y-66900103D01*
X97521933Y-66873070D01*
X97530857Y-66839767D01*
X97530857Y-66611195D01*
X97521933Y-66577893D01*
X97515021Y-66544113D01*
X97457878Y-66429827D01*
X97441854Y-66411757D01*
X97429780Y-66390844D01*
X97372637Y-66333701D01*
X97351721Y-66321625D01*
X97333653Y-66305603D01*
X97219367Y-66248460D01*
X97185586Y-66241547D01*
X97152285Y-66232624D01*
X96809428Y-66232624D01*
X96776124Y-66241547D01*
X96742346Y-66248460D01*
X96628060Y-66305603D01*
X96609990Y-66321626D01*
X96589075Y-66333702D01*
X96531933Y-66390845D01*
X96519859Y-66411757D01*
X96503836Y-66429827D01*
X96446693Y-66544112D01*
X96439779Y-66577894D01*
X96430857Y-66611195D01*
X96430857Y-66797062D01*
X96383996Y-66773632D01*
X96361278Y-66750913D01*
X96330857Y-66690071D01*
X96330857Y-66589463D01*
X96372164Y-66506849D01*
X96387731Y-66430779D01*
X96363177Y-66357118D01*
X96305082Y-66305603D01*
X96229013Y-66290036D01*
X96155352Y-66314590D01*
X96103836Y-66372685D01*
X96046693Y-66486971D01*
X96039780Y-66520751D01*
X96030857Y-66554053D01*
X96030857Y-66725481D01*
X95880857Y-66725481D01*
X95880857Y-65868338D01*
X96430857Y-65868338D01*
X96450953Y-65943338D01*
X96505857Y-65998242D01*
X96580857Y-66018338D01*
X97380857Y-66018338D01*
X97455857Y-65998242D01*
X97510761Y-65943338D01*
X97521682Y-65902579D01*
X97521682Y-65907161D01*
X97531555Y-65924263D01*
X97536667Y-65943338D01*
X97550631Y-65957302D01*
X97560505Y-65974404D01*
X97617648Y-66031547D01*
X97684891Y-66070370D01*
X97762537Y-66070370D01*
X97829780Y-66031547D01*
X97886923Y-65974404D01*
X97896796Y-65957302D01*
X97910761Y-65943338D01*
X97915872Y-65924263D01*
X97925746Y-65907161D01*
X97925746Y-65887412D01*
X97930857Y-65868338D01*
X97925746Y-65849263D01*
X97925746Y-65829515D01*
X97915872Y-65812412D01*
X97910761Y-65793338D01*
X97896796Y-65779373D01*
X97886923Y-65762272D01*
X97829780Y-65705129D01*
X97762537Y-65666306D01*
X97684891Y-65666306D01*
X97617648Y-65705129D01*
X97560505Y-65762272D01*
X97550631Y-65779373D01*
X97536667Y-65793338D01*
X97531555Y-65812412D01*
X97521682Y-65829515D01*
X97521682Y-65834096D01*
X97510761Y-65793338D01*
X97455857Y-65738434D01*
X97380857Y-65718338D01*
X96580857Y-65718338D01*
X96505857Y-65738434D01*
X96450953Y-65793338D01*
X96430857Y-65868338D01*
X95880857Y-65868338D01*
X95880857Y-65420182D01*
X96431126Y-65420182D01*
X96455680Y-65493843D01*
X96513774Y-65545359D01*
X96589844Y-65560926D01*
X96663505Y-65536372D01*
X96715021Y-65478278D01*
X96749803Y-65408713D01*
X96787696Y-65389767D01*
X97780857Y-65389767D01*
X97855857Y-65369671D01*
X97910761Y-65314767D01*
X97930857Y-65239767D01*
X97910761Y-65164767D01*
X97855857Y-65109863D01*
X97780857Y-65089767D01*
X96752285Y-65089767D01*
X96718983Y-65098690D01*
X96685203Y-65105603D01*
X96570917Y-65162746D01*
X96564053Y-65168832D01*
X96555352Y-65171733D01*
X96535363Y-65194273D01*
X96512823Y-65214262D01*
X96509922Y-65222963D01*
X96503836Y-65229827D01*
X96446693Y-65344112D01*
X96431126Y-65420182D01*
X95880857Y-65420182D01*
X95880857Y-64268338D01*
X96430857Y-64268338D01*
X96450953Y-64343338D01*
X96505857Y-64398242D01*
X96580857Y-64418338D01*
X96740381Y-64418338D01*
X96490857Y-64605481D01*
X96442915Y-64666558D01*
X96431934Y-64743423D01*
X96460857Y-64815481D01*
X96521934Y-64863423D01*
X96598799Y-64874404D01*
X96670857Y-64845481D01*
X97023924Y-64580680D01*
X97274791Y-64831547D01*
X97342034Y-64870370D01*
X97419680Y-64870370D01*
X97486923Y-64831547D01*
X97525746Y-64764304D01*
X97525746Y-64686658D01*
X97486923Y-64619415D01*
X97285846Y-64418338D01*
X97780857Y-64418338D01*
X97855857Y-64398242D01*
X97910761Y-64343338D01*
X97930857Y-64268338D01*
X97910761Y-64193338D01*
X97855857Y-64138434D01*
X97780857Y-64118338D01*
X96580857Y-64118338D01*
X96505857Y-64138434D01*
X96450953Y-64193338D01*
X96430857Y-64268338D01*
X95880857Y-64268338D01*
X95880857Y-63639767D01*
X96430857Y-63639767D01*
X96439780Y-63673068D01*
X96446693Y-63706849D01*
X96503836Y-63821135D01*
X96555352Y-63879230D01*
X96629013Y-63903784D01*
X96705082Y-63888217D01*
X96763177Y-63836702D01*
X96787731Y-63763041D01*
X96772164Y-63686971D01*
X96730857Y-63604357D01*
X96730857Y-63446606D01*
X96761278Y-63385763D01*
X96783996Y-63363044D01*
X96844838Y-63332624D01*
X97116875Y-63332624D01*
X97177717Y-63363045D01*
X97200435Y-63385763D01*
X97230857Y-63446606D01*
X97230857Y-63604357D01*
X97189550Y-63686971D01*
X97173983Y-63763040D01*
X97198537Y-63836702D01*
X97256632Y-63888217D01*
X97332701Y-63903784D01*
X97406363Y-63879230D01*
X97457878Y-63821135D01*
X97515021Y-63706849D01*
X97521933Y-63673070D01*
X97530857Y-63639767D01*
X97530857Y-63411195D01*
X97521933Y-63377893D01*
X97515021Y-63344113D01*
X97457878Y-63229827D01*
X97441854Y-63211757D01*
X97429780Y-63190844D01*
X97372637Y-63133701D01*
X97351721Y-63121625D01*
X97333653Y-63105603D01*
X97219367Y-63048460D01*
X97185586Y-63041547D01*
X97152285Y-63032624D01*
X96809428Y-63032624D01*
X96776124Y-63041547D01*
X96742346Y-63048460D01*
X96628060Y-63105603D01*
X96609990Y-63121626D01*
X96589075Y-63133702D01*
X96531933Y-63190845D01*
X96519859Y-63211757D01*
X96503836Y-63229827D01*
X96446693Y-63344112D01*
X96439779Y-63377894D01*
X96430857Y-63411195D01*
X96430857Y-63639767D01*
X95880857Y-63639767D01*
X95880857Y-62668339D01*
X96430857Y-62668339D01*
X96450953Y-62743339D01*
X96505857Y-62798243D01*
X96580857Y-62818339D01*
X97209428Y-62818339D01*
X97242729Y-62809415D01*
X97276510Y-62802503D01*
X97390796Y-62745360D01*
X97397658Y-62739274D01*
X97406363Y-62736373D01*
X97426353Y-62713829D01*
X97448891Y-62693844D01*
X97451791Y-62685141D01*
X97457878Y-62678278D01*
X97515021Y-62563992D01*
X97521933Y-62530213D01*
X97530857Y-62496910D01*
X97530857Y-62268339D01*
X97521933Y-62235035D01*
X97515021Y-62201257D01*
X97457878Y-62086971D01*
X97406363Y-62028876D01*
X97332701Y-62004322D01*
X97256632Y-62019889D01*
X97198537Y-62071404D01*
X97173983Y-62145066D01*
X97189550Y-62221135D01*
X97230857Y-62303749D01*
X97230857Y-62461500D01*
X97211910Y-62499392D01*
X97188000Y-62511348D01*
X97188000Y-62268339D01*
X97179076Y-62235035D01*
X97172164Y-62201257D01*
X97115021Y-62086971D01*
X97108934Y-62080107D01*
X97106034Y-62071405D01*
X97083496Y-62051419D01*
X97063506Y-62028876D01*
X97054801Y-62025974D01*
X97047939Y-62019889D01*
X96933653Y-61962746D01*
X96899872Y-61955833D01*
X96866571Y-61946910D01*
X96752285Y-61946910D01*
X96718983Y-61955833D01*
X96685203Y-61962746D01*
X96570917Y-62019889D01*
X96564053Y-62025975D01*
X96555352Y-62028876D01*
X96535365Y-62051415D01*
X96512823Y-62071405D01*
X96509922Y-62080107D01*
X96503836Y-62086971D01*
X96446693Y-62201257D01*
X96439780Y-62235037D01*
X96430857Y-62268339D01*
X96430857Y-62554053D01*
X96439780Y-62587354D01*
X96445312Y-62614389D01*
X96430857Y-62668339D01*
X95880857Y-62668339D01*
X95880857Y-61754053D01*
X96430857Y-61754053D01*
X96450953Y-61829053D01*
X96505857Y-61883957D01*
X96580857Y-61904053D01*
X96655857Y-61883957D01*
X96710761Y-61829053D01*
X96730857Y-61754053D01*
X96730857Y-61675178D01*
X96749803Y-61637285D01*
X96787696Y-61618339D01*
X97230857Y-61618339D01*
X97230857Y-61754053D01*
X97250953Y-61829053D01*
X97305857Y-61883957D01*
X97380857Y-61904053D01*
X97455857Y-61883957D01*
X97510761Y-61829053D01*
X97530857Y-61754053D01*
X97530857Y-61618339D01*
X97780857Y-61618339D01*
X97855857Y-61598243D01*
X97910761Y-61543339D01*
X97930857Y-61468339D01*
X97910761Y-61393339D01*
X97855857Y-61338435D01*
X97780857Y-61318339D01*
X97530857Y-61318339D01*
X97530857Y-61296910D01*
X97510761Y-61221910D01*
X97455857Y-61167006D01*
X97380857Y-61146910D01*
X97305857Y-61167006D01*
X97250953Y-61221910D01*
X97230857Y-61296910D01*
X97230857Y-61318339D01*
X96752285Y-61318339D01*
X96718983Y-61327262D01*
X96685203Y-61334175D01*
X96570917Y-61391318D01*
X96564053Y-61397404D01*
X96555352Y-61400305D01*
X96535363Y-61422845D01*
X96512823Y-61442834D01*
X96509922Y-61451535D01*
X96503836Y-61458399D01*
X96446693Y-61572684D01*
X96439779Y-61606466D01*
X96430857Y-61639767D01*
X96430857Y-61754053D01*
X95880857Y-61754053D01*
X95880857Y-60725482D01*
X96430857Y-60725482D01*
X96439780Y-60758783D01*
X96446693Y-60792564D01*
X96503836Y-60906850D01*
X96519858Y-60924918D01*
X96531934Y-60945834D01*
X96589076Y-61002976D01*
X96609990Y-61015050D01*
X96628060Y-61031074D01*
X96742346Y-61088217D01*
X96776124Y-61095129D01*
X96809428Y-61104053D01*
X96923714Y-61104053D01*
X96957015Y-61095129D01*
X96990796Y-61088217D01*
X97105082Y-61031074D01*
X97123150Y-61015051D01*
X97144066Y-61002976D01*
X97201208Y-60945834D01*
X97213282Y-60924919D01*
X97229306Y-60906850D01*
X97286449Y-60792564D01*
X97289769Y-60776339D01*
X97297806Y-60761862D01*
X97350954Y-60549268D01*
X97389849Y-60471479D01*
X97412568Y-60448760D01*
X97473410Y-60418339D01*
X97516875Y-60418339D01*
X97577717Y-60448760D01*
X97600435Y-60471478D01*
X97630857Y-60532321D01*
X97630857Y-60758284D01*
X97581412Y-60906619D01*
X97576759Y-60984125D01*
X97611483Y-61053573D01*
X97676280Y-61096355D01*
X97753786Y-61101008D01*
X97823234Y-61066284D01*
X97866016Y-61001487D01*
X97923159Y-60830059D01*
X97924606Y-60805953D01*
X97930857Y-60782625D01*
X97930857Y-60496910D01*
X97921933Y-60463608D01*
X97915021Y-60429828D01*
X97857878Y-60315542D01*
X97841854Y-60297472D01*
X97829780Y-60276559D01*
X97772637Y-60219416D01*
X97751721Y-60207340D01*
X97733653Y-60191318D01*
X97619367Y-60134175D01*
X97585586Y-60127262D01*
X97552285Y-60118339D01*
X97438000Y-60118339D01*
X97404696Y-60127262D01*
X97370918Y-60134175D01*
X97256632Y-60191318D01*
X97238562Y-60207341D01*
X97217648Y-60219416D01*
X97160505Y-60276559D01*
X97148430Y-60297472D01*
X97132407Y-60315542D01*
X97075264Y-60429827D01*
X97071943Y-60446052D01*
X97063907Y-60460529D01*
X97010757Y-60673126D01*
X96971864Y-60750914D01*
X96949146Y-60773632D01*
X96888304Y-60804053D01*
X96844838Y-60804053D01*
X96783996Y-60773632D01*
X96761278Y-60750914D01*
X96730857Y-60690072D01*
X96730857Y-60464108D01*
X96780302Y-60315773D01*
X96784955Y-60238267D01*
X96750230Y-60168818D01*
X96685434Y-60126037D01*
X96607928Y-60121384D01*
X96538479Y-60156109D01*
X96495697Y-60220905D01*
X96438555Y-60392334D01*
X96437107Y-60416439D01*
X96430857Y-60439768D01*
X96430857Y-60725482D01*
X95880857Y-60725482D01*
X95880857Y-59968339D01*
X98080857Y-59968339D01*
X98080857Y-71139766D01*
G37*
G36*
X96928658Y-109135216D02*
G01*
X96965663Y-109172221D01*
X97010371Y-109261635D01*
X97010371Y-109405100D01*
X96965663Y-109494514D01*
X96928658Y-109531519D01*
X96839247Y-109576225D01*
X96481495Y-109576225D01*
X96392082Y-109531519D01*
X96355078Y-109494515D01*
X96310371Y-109405100D01*
X96310371Y-109261635D01*
X96355078Y-109172220D01*
X96392082Y-109135216D01*
X96481495Y-109090511D01*
X96839247Y-109090511D01*
X96928658Y-109135216D01*
G37*
G36*
X96796085Y-104916167D02*
G01*
X96743551Y-105073769D01*
X96714373Y-105102947D01*
X96624961Y-105147653D01*
X96481495Y-105147653D01*
X96392082Y-105102947D01*
X96355078Y-105065943D01*
X96310371Y-104976528D01*
X96310371Y-104590510D01*
X96796085Y-104590510D01*
X96796085Y-104916167D01*
G37*
G36*
X97510371Y-104905100D02*
G01*
X97465664Y-104994514D01*
X97428660Y-105031517D01*
X97339247Y-105076225D01*
X97267210Y-105076225D01*
X97177796Y-105031518D01*
X97140792Y-104994514D01*
X97096085Y-104905100D01*
X97096085Y-104590510D01*
X97510371Y-104590510D01*
X97510371Y-104905100D01*
G37*
G36*
X97977038Y-113971464D02*
G01*
X95843704Y-113971464D01*
X95843704Y-113654797D01*
X96010371Y-113654797D01*
X96030467Y-113729797D01*
X96085371Y-113784701D01*
X96160371Y-113804797D01*
X96235371Y-113784701D01*
X96290275Y-113729797D01*
X96310371Y-113654797D01*
X96310371Y-113088357D01*
X96911448Y-113689434D01*
X96941307Y-113706673D01*
X96970080Y-113725670D01*
X97184365Y-113797099D01*
X97208471Y-113798546D01*
X97231800Y-113804797D01*
X97374657Y-113804797D01*
X97407958Y-113795873D01*
X97441739Y-113788961D01*
X97584596Y-113717532D01*
X97602664Y-113701509D01*
X97623580Y-113689434D01*
X97695008Y-113618006D01*
X97707082Y-113597091D01*
X97723106Y-113579022D01*
X97794535Y-113436164D01*
X97801447Y-113402383D01*
X97810371Y-113369082D01*
X97810371Y-113011940D01*
X97801447Y-112978638D01*
X97794535Y-112944858D01*
X97723106Y-112802000D01*
X97707082Y-112783930D01*
X97695008Y-112763016D01*
X97623580Y-112691588D01*
X97556337Y-112652765D01*
X97478691Y-112652765D01*
X97411448Y-112691588D01*
X97372625Y-112758831D01*
X97372625Y-112836477D01*
X97411448Y-112903720D01*
X97465664Y-112957936D01*
X97510371Y-113047350D01*
X97510371Y-113333672D01*
X97465664Y-113423086D01*
X97428660Y-113460089D01*
X97339247Y-113504797D01*
X97256143Y-113504797D01*
X97098541Y-113452263D01*
X96266437Y-112620159D01*
X96249335Y-112610285D01*
X96235371Y-112596321D01*
X96216296Y-112591209D01*
X96199194Y-112581336D01*
X96179446Y-112581336D01*
X96160371Y-112576225D01*
X96141296Y-112581336D01*
X96121548Y-112581336D01*
X96104445Y-112591209D01*
X96085371Y-112596321D01*
X96071406Y-112610285D01*
X96054305Y-112620159D01*
X96044431Y-112637260D01*
X96030467Y-112651225D01*
X96025355Y-112670299D01*
X96015482Y-112687402D01*
X96015482Y-112707150D01*
X96010371Y-112726225D01*
X96010371Y-113654797D01*
X95843704Y-113654797D01*
X95843704Y-111011940D01*
X96010371Y-111011940D01*
X96030467Y-111086940D01*
X96085371Y-111141844D01*
X96160371Y-111161940D01*
X96946085Y-111161940D01*
X96979386Y-111153016D01*
X97013167Y-111146104D01*
X97156024Y-111074675D01*
X97162887Y-111068588D01*
X97171590Y-111065688D01*
X97191578Y-111043147D01*
X97214119Y-111023159D01*
X97217019Y-111014456D01*
X97223106Y-111007593D01*
X97294535Y-110864737D01*
X97301448Y-110830954D01*
X97310371Y-110797654D01*
X97310371Y-110583368D01*
X97301448Y-110550067D01*
X97294535Y-110516285D01*
X97269047Y-110465309D01*
X97290275Y-110444082D01*
X97310371Y-110369082D01*
X97290275Y-110294082D01*
X97235371Y-110239178D01*
X97160371Y-110219082D01*
X96160371Y-110219082D01*
X96085371Y-110239178D01*
X96030467Y-110294082D01*
X96010371Y-110369082D01*
X96030467Y-110444082D01*
X96085371Y-110498986D01*
X96160371Y-110519082D01*
X96955381Y-110519082D01*
X96965663Y-110529364D01*
X97010371Y-110618778D01*
X97010371Y-110762243D01*
X96977139Y-110828707D01*
X96910675Y-110861940D01*
X96160371Y-110861940D01*
X96085371Y-110882036D01*
X96030467Y-110936940D01*
X96010371Y-111011940D01*
X95843704Y-111011940D01*
X95843704Y-109440511D01*
X96010371Y-109440511D01*
X96019294Y-109473812D01*
X96026207Y-109507593D01*
X96097636Y-109650450D01*
X96113658Y-109668518D01*
X96125733Y-109689433D01*
X96197161Y-109760862D01*
X96218076Y-109772937D01*
X96236146Y-109788961D01*
X96379004Y-109860389D01*
X96412779Y-109867300D01*
X96446085Y-109876225D01*
X96874657Y-109876225D01*
X96907960Y-109867301D01*
X96941739Y-109860389D01*
X97084596Y-109788961D01*
X97102665Y-109772937D01*
X97123581Y-109760862D01*
X97195009Y-109689433D01*
X97207083Y-109668518D01*
X97223106Y-109650450D01*
X97294535Y-109507594D01*
X97301448Y-109473811D01*
X97310371Y-109440511D01*
X97310371Y-109226225D01*
X97301448Y-109192924D01*
X97294535Y-109159142D01*
X97223106Y-109016286D01*
X97207083Y-108998217D01*
X97195009Y-108977303D01*
X97123581Y-108905874D01*
X97102665Y-108893798D01*
X97084596Y-108877775D01*
X96941739Y-108806347D01*
X96907960Y-108799434D01*
X96874657Y-108790511D01*
X96446085Y-108790511D01*
X96412779Y-108799435D01*
X96379004Y-108806347D01*
X96236146Y-108877775D01*
X96218076Y-108893798D01*
X96197161Y-108905874D01*
X96125733Y-108977303D01*
X96113658Y-108998217D01*
X96097636Y-109016286D01*
X96026207Y-109159143D01*
X96019294Y-109192923D01*
X96010371Y-109226225D01*
X96010371Y-109440511D01*
X95843704Y-109440511D01*
X95843704Y-108511939D01*
X96010371Y-108511939D01*
X96030467Y-108586939D01*
X96085371Y-108641843D01*
X96160371Y-108661939D01*
X96235371Y-108641843D01*
X96290275Y-108586939D01*
X96310371Y-108511939D01*
X96310371Y-108404492D01*
X96343603Y-108338027D01*
X96410067Y-108304796D01*
X97010371Y-108304796D01*
X97010371Y-108511939D01*
X97030467Y-108586939D01*
X97085371Y-108641843D01*
X97160371Y-108661939D01*
X97235371Y-108641843D01*
X97290275Y-108586939D01*
X97310371Y-108511939D01*
X97310371Y-108304796D01*
X97660371Y-108304796D01*
X97735371Y-108284700D01*
X97790275Y-108229796D01*
X97810371Y-108154796D01*
X97790275Y-108079796D01*
X97735371Y-108024892D01*
X97660371Y-108004796D01*
X97310371Y-108004796D01*
X97310371Y-107940511D01*
X97290275Y-107865511D01*
X97235371Y-107810607D01*
X97187027Y-107797653D01*
X97235371Y-107784700D01*
X97290275Y-107729796D01*
X97310371Y-107654796D01*
X97310371Y-107447653D01*
X97660371Y-107447653D01*
X97735371Y-107427557D01*
X97790275Y-107372653D01*
X97810371Y-107297653D01*
X97790275Y-107222653D01*
X97735371Y-107167749D01*
X97660371Y-107147653D01*
X97310371Y-107147653D01*
X97310371Y-107083368D01*
X97290275Y-107008368D01*
X97235371Y-106953464D01*
X97160371Y-106933368D01*
X97085371Y-106953464D01*
X97030467Y-107008368D01*
X97010371Y-107083368D01*
X97010371Y-107147653D01*
X96374657Y-107147653D01*
X96341356Y-107156575D01*
X96307574Y-107163489D01*
X96164718Y-107234918D01*
X96157854Y-107241004D01*
X96149152Y-107243905D01*
X96129163Y-107266445D01*
X96106623Y-107286434D01*
X96103722Y-107295136D01*
X96097636Y-107302000D01*
X96026207Y-107444857D01*
X96019294Y-107478637D01*
X96010371Y-107511939D01*
X96010371Y-107654796D01*
X96030467Y-107729796D01*
X96085371Y-107784700D01*
X96160371Y-107804796D01*
X96235371Y-107784700D01*
X96290275Y-107729796D01*
X96310371Y-107654796D01*
X96310371Y-107547349D01*
X96343603Y-107480884D01*
X96410067Y-107447653D01*
X97010371Y-107447653D01*
X97010371Y-107654796D01*
X97030467Y-107729796D01*
X97085371Y-107784700D01*
X97133714Y-107797653D01*
X97085371Y-107810607D01*
X97030467Y-107865511D01*
X97010371Y-107940511D01*
X97010371Y-108004796D01*
X96374657Y-108004796D01*
X96341356Y-108013718D01*
X96307574Y-108020632D01*
X96164718Y-108092061D01*
X96157854Y-108098147D01*
X96149152Y-108101048D01*
X96129163Y-108123588D01*
X96106623Y-108143577D01*
X96103722Y-108152279D01*
X96097636Y-108159143D01*
X96026207Y-108302000D01*
X96019294Y-108335780D01*
X96010371Y-108369082D01*
X96010371Y-108511939D01*
X95843704Y-108511939D01*
X95843704Y-106583368D01*
X96010371Y-106583368D01*
X96030467Y-106658368D01*
X96085371Y-106713272D01*
X96160371Y-106733368D01*
X97160371Y-106733368D01*
X97235371Y-106713272D01*
X97290275Y-106658368D01*
X97310371Y-106583368D01*
X97290275Y-106508368D01*
X97235371Y-106453464D01*
X97160371Y-106433368D01*
X96365361Y-106433368D01*
X96355078Y-106423086D01*
X96310371Y-106333671D01*
X96310371Y-106190206D01*
X96343603Y-106123741D01*
X96410067Y-106090510D01*
X97160371Y-106090510D01*
X97235371Y-106070414D01*
X97290275Y-106015510D01*
X97310371Y-105940510D01*
X97290275Y-105865510D01*
X97235371Y-105810606D01*
X97160371Y-105790510D01*
X96374657Y-105790510D01*
X96341356Y-105799432D01*
X96307574Y-105806346D01*
X96164718Y-105877775D01*
X96157854Y-105883861D01*
X96149152Y-105886762D01*
X96129163Y-105909302D01*
X96106623Y-105929291D01*
X96103722Y-105937993D01*
X96097636Y-105944857D01*
X96026207Y-106087714D01*
X96019294Y-106121494D01*
X96010371Y-106154796D01*
X96010371Y-106369082D01*
X96019294Y-106402383D01*
X96026207Y-106436164D01*
X96051695Y-106487139D01*
X96030467Y-106508368D01*
X96010371Y-106583368D01*
X95843704Y-106583368D01*
X95843704Y-105011939D01*
X96010371Y-105011939D01*
X96019294Y-105045240D01*
X96026207Y-105079021D01*
X96097636Y-105221878D01*
X96113658Y-105239946D01*
X96125733Y-105260861D01*
X96197161Y-105332290D01*
X96218076Y-105344365D01*
X96236146Y-105360389D01*
X96379004Y-105431817D01*
X96412779Y-105438728D01*
X96446085Y-105447653D01*
X96660371Y-105447653D01*
X96693674Y-105438729D01*
X96727453Y-105431817D01*
X96870310Y-105360389D01*
X96888379Y-105344365D01*
X96909294Y-105332291D01*
X96980723Y-105260862D01*
X96981511Y-105259497D01*
X96982876Y-105260862D01*
X97003790Y-105272936D01*
X97021860Y-105288960D01*
X97164718Y-105360389D01*
X97198498Y-105367301D01*
X97231800Y-105376225D01*
X97374657Y-105376225D01*
X97407958Y-105367301D01*
X97441739Y-105360389D01*
X97584596Y-105288960D01*
X97602664Y-105272937D01*
X97623580Y-105260862D01*
X97695008Y-105189434D01*
X97707082Y-105168519D01*
X97723106Y-105150450D01*
X97794535Y-105007592D01*
X97801447Y-104973811D01*
X97810371Y-104940510D01*
X97810371Y-104440510D01*
X97790275Y-104365510D01*
X97735371Y-104310606D01*
X97660371Y-104290510D01*
X96160371Y-104290510D01*
X96085371Y-104310606D01*
X96030467Y-104365510D01*
X96010371Y-104440510D01*
X96010371Y-105011939D01*
X95843704Y-105011939D01*
X95843704Y-104123843D01*
X97977038Y-104123843D01*
X97977038Y-113971464D01*
G37*
G36*
X178452742Y-69014252D02*
G01*
X178433796Y-69052142D01*
X178395904Y-69071089D01*
X178352438Y-69071089D01*
X178314545Y-69052142D01*
X178295600Y-69014251D01*
X178295600Y-68799661D01*
X178452742Y-68799661D01*
X178452742Y-69014252D01*
G37*
G36*
X178452742Y-64671395D02*
G01*
X178422322Y-64732235D01*
X178399603Y-64754954D01*
X178338761Y-64785375D01*
X178066724Y-64785375D01*
X178005882Y-64754954D01*
X177983163Y-64732235D01*
X177952742Y-64671393D01*
X177952742Y-64513947D01*
X178452742Y-64513947D01*
X178452742Y-64671395D01*
G37*
G36*
X179302742Y-71349660D02*
G01*
X177102742Y-71349660D01*
X177102742Y-70821089D01*
X177252742Y-70821089D01*
X177261664Y-70854389D01*
X177268578Y-70888172D01*
X177325721Y-71002457D01*
X177341744Y-71020526D01*
X177353819Y-71041440D01*
X177410962Y-71098583D01*
X177431876Y-71110657D01*
X177449946Y-71126681D01*
X177564232Y-71183824D01*
X177598010Y-71190736D01*
X177631314Y-71199660D01*
X177745600Y-71199660D01*
X177778900Y-71190737D01*
X177812683Y-71183824D01*
X177926968Y-71126681D01*
X177945037Y-71110657D01*
X177965951Y-71098583D01*
X178023094Y-71041440D01*
X178035168Y-71020526D01*
X178051192Y-71002457D01*
X178108335Y-70888171D01*
X178111655Y-70871946D01*
X178119692Y-70857469D01*
X178172840Y-70644875D01*
X178211735Y-70567086D01*
X178234453Y-70544367D01*
X178295296Y-70513946D01*
X178338761Y-70513946D01*
X178399603Y-70544367D01*
X178422322Y-70567086D01*
X178452742Y-70627926D01*
X178452742Y-70853889D01*
X178403297Y-71002226D01*
X178398645Y-71079733D01*
X178433370Y-71149181D01*
X178498166Y-71191963D01*
X178575673Y-71196615D01*
X178645121Y-71161890D01*
X178687903Y-71097094D01*
X178745045Y-70925665D01*
X178746491Y-70901557D01*
X178752742Y-70878232D01*
X178752742Y-70592517D01*
X178743818Y-70559215D01*
X178736906Y-70525435D01*
X178679764Y-70411150D01*
X178663740Y-70393080D01*
X178651666Y-70372166D01*
X178594523Y-70315023D01*
X178573607Y-70302947D01*
X178555539Y-70286925D01*
X178441253Y-70229782D01*
X178407472Y-70222869D01*
X178374171Y-70213946D01*
X178259885Y-70213946D01*
X178226583Y-70222869D01*
X178192803Y-70229782D01*
X178078517Y-70286925D01*
X178060447Y-70302948D01*
X178039534Y-70315023D01*
X177982391Y-70372166D01*
X177970316Y-70393079D01*
X177954293Y-70411149D01*
X177897150Y-70525434D01*
X177893829Y-70541659D01*
X177885793Y-70556136D01*
X177832644Y-70768730D01*
X177793749Y-70846520D01*
X177771031Y-70869239D01*
X177710189Y-70899660D01*
X177666724Y-70899660D01*
X177605882Y-70869239D01*
X177583163Y-70846520D01*
X177552742Y-70785678D01*
X177552742Y-70559714D01*
X177602187Y-70411380D01*
X177606840Y-70333874D01*
X177572116Y-70264426D01*
X177507319Y-70221644D01*
X177429813Y-70216991D01*
X177360364Y-70251715D01*
X177317583Y-70316512D01*
X177260440Y-70487940D01*
X177258992Y-70512045D01*
X177252742Y-70535374D01*
X177252742Y-70821089D01*
X177102742Y-70821089D01*
X177102742Y-69849660D01*
X177252742Y-69849660D01*
X177272838Y-69924660D01*
X177327742Y-69979564D01*
X177402742Y-69999660D01*
X177652742Y-69999660D01*
X177652742Y-70021089D01*
X177672838Y-70096089D01*
X177727742Y-70150993D01*
X177802742Y-70171089D01*
X177877742Y-70150993D01*
X177932646Y-70096089D01*
X177952742Y-70021089D01*
X177952742Y-69999660D01*
X178431314Y-69999660D01*
X178464615Y-69990736D01*
X178498396Y-69983824D01*
X178612682Y-69926681D01*
X178619544Y-69920595D01*
X178628249Y-69917694D01*
X178648239Y-69895150D01*
X178670777Y-69875165D01*
X178673677Y-69866462D01*
X178679764Y-69859599D01*
X178736906Y-69745314D01*
X178743818Y-69711533D01*
X178752742Y-69678232D01*
X178752742Y-69563946D01*
X178732646Y-69488946D01*
X178677742Y-69434042D01*
X178602742Y-69413946D01*
X178527742Y-69434042D01*
X178472838Y-69488946D01*
X178452742Y-69563946D01*
X178452742Y-69642823D01*
X178433796Y-69680713D01*
X178395904Y-69699660D01*
X177952742Y-69699660D01*
X177952742Y-69563946D01*
X177932646Y-69488946D01*
X177877742Y-69434042D01*
X177802742Y-69413946D01*
X177727742Y-69434042D01*
X177672838Y-69488946D01*
X177652742Y-69563946D01*
X177652742Y-69699660D01*
X177402742Y-69699660D01*
X177327742Y-69719756D01*
X177272838Y-69774660D01*
X177252742Y-69849660D01*
X177102742Y-69849660D01*
X177102742Y-69049661D01*
X177652742Y-69049661D01*
X177661664Y-69082961D01*
X177668578Y-69116744D01*
X177725721Y-69231029D01*
X177777237Y-69289123D01*
X177850898Y-69313677D01*
X177926968Y-69298110D01*
X177985062Y-69246594D01*
X178009616Y-69172933D01*
X177994049Y-69096864D01*
X177952742Y-69014250D01*
X177952742Y-68856499D01*
X177971687Y-68818607D01*
X177995600Y-68806651D01*
X177995600Y-69049661D01*
X178004523Y-69082964D01*
X178011436Y-69116743D01*
X178068578Y-69231027D01*
X178074663Y-69237889D01*
X178077565Y-69246595D01*
X178100109Y-69266586D01*
X178120093Y-69289122D01*
X178128795Y-69292022D01*
X178135660Y-69298110D01*
X178249946Y-69355253D01*
X178283724Y-69362165D01*
X178317028Y-69371089D01*
X178431314Y-69371089D01*
X178464615Y-69362165D01*
X178498396Y-69355253D01*
X178612682Y-69298110D01*
X178619544Y-69292024D01*
X178628249Y-69289123D01*
X178648239Y-69266579D01*
X178670777Y-69246594D01*
X178673677Y-69237891D01*
X178679764Y-69231028D01*
X178736906Y-69116743D01*
X178743818Y-69082962D01*
X178752742Y-69049661D01*
X178752742Y-68763946D01*
X178743818Y-68730644D01*
X178738286Y-68703610D01*
X178752742Y-68649661D01*
X178732646Y-68574661D01*
X178677742Y-68519757D01*
X178602742Y-68499661D01*
X177974171Y-68499661D01*
X177940865Y-68508585D01*
X177907090Y-68515497D01*
X177792804Y-68572638D01*
X177785939Y-68578725D01*
X177777237Y-68581626D01*
X177757251Y-68604163D01*
X177734709Y-68624153D01*
X177731807Y-68632857D01*
X177725721Y-68639721D01*
X177668578Y-68754007D01*
X177661665Y-68787787D01*
X177652742Y-68821089D01*
X177652742Y-69049661D01*
X177102742Y-69049661D01*
X177102742Y-67906804D01*
X177652742Y-67906804D01*
X177661664Y-67940104D01*
X177668578Y-67973887D01*
X177725721Y-68088172D01*
X177741744Y-68106241D01*
X177753819Y-68127155D01*
X177810962Y-68184298D01*
X177831876Y-68196372D01*
X177849946Y-68212396D01*
X177964232Y-68269539D01*
X177998010Y-68276451D01*
X178031314Y-68285375D01*
X178374171Y-68285375D01*
X178407472Y-68276451D01*
X178441253Y-68269539D01*
X178555539Y-68212396D01*
X178573607Y-68196373D01*
X178594523Y-68184298D01*
X178651666Y-68127155D01*
X178663740Y-68106240D01*
X178679764Y-68088171D01*
X178736906Y-67973886D01*
X178743818Y-67940105D01*
X178752742Y-67906804D01*
X178752742Y-67678232D01*
X178743818Y-67644930D01*
X178736906Y-67611150D01*
X178679764Y-67496865D01*
X178628249Y-67438770D01*
X178554588Y-67414216D01*
X178478518Y-67429783D01*
X178420423Y-67481298D01*
X178395869Y-67554959D01*
X178411436Y-67631029D01*
X178452742Y-67713641D01*
X178452742Y-67871395D01*
X178422322Y-67932235D01*
X178399603Y-67954954D01*
X178338761Y-67985375D01*
X178066724Y-67985375D01*
X178005882Y-67954954D01*
X177983163Y-67932235D01*
X177952742Y-67871393D01*
X177952742Y-67713643D01*
X177994049Y-67631029D01*
X178009616Y-67554960D01*
X177985062Y-67481299D01*
X177926968Y-67429783D01*
X177850898Y-67414216D01*
X177777237Y-67438770D01*
X177725721Y-67496864D01*
X177668578Y-67611149D01*
X177661664Y-67644931D01*
X177652742Y-67678232D01*
X177652742Y-67906804D01*
X177102742Y-67906804D01*
X177102742Y-67049661D01*
X177252742Y-67049661D01*
X177272838Y-67124661D01*
X177327742Y-67179565D01*
X177402742Y-67199661D01*
X178602742Y-67199661D01*
X178677742Y-67179565D01*
X178732646Y-67124661D01*
X178752742Y-67049661D01*
X178732646Y-66974661D01*
X178677742Y-66919757D01*
X178602742Y-66899661D01*
X178443219Y-66899661D01*
X178692742Y-66712518D01*
X178740684Y-66651441D01*
X178751665Y-66574576D01*
X178722741Y-66502518D01*
X178661665Y-66454576D01*
X178584799Y-66443595D01*
X178512741Y-66472518D01*
X178159675Y-66737319D01*
X177908808Y-66486452D01*
X177841565Y-66447629D01*
X177763919Y-66447629D01*
X177696676Y-66486452D01*
X177657853Y-66553695D01*
X177657853Y-66631341D01*
X177696676Y-66698584D01*
X177897753Y-66899661D01*
X177402742Y-66899661D01*
X177327742Y-66919757D01*
X177272838Y-66974661D01*
X177252742Y-67049661D01*
X177102742Y-67049661D01*
X177102742Y-66078232D01*
X177252742Y-66078232D01*
X177272838Y-66153232D01*
X177327742Y-66208136D01*
X177402742Y-66228232D01*
X178431314Y-66228232D01*
X178464615Y-66219308D01*
X178498396Y-66212396D01*
X178612682Y-66155253D01*
X178619544Y-66149167D01*
X178628249Y-66146266D01*
X178648239Y-66123722D01*
X178670777Y-66103737D01*
X178673677Y-66095034D01*
X178679764Y-66088171D01*
X178736906Y-65973886D01*
X178752473Y-65897817D01*
X178727918Y-65824155D01*
X178669823Y-65772640D01*
X178593754Y-65757074D01*
X178520093Y-65781628D01*
X178468578Y-65839723D01*
X178433796Y-65909285D01*
X178395904Y-65928232D01*
X177402742Y-65928232D01*
X177327742Y-65948328D01*
X177272838Y-66003232D01*
X177252742Y-66078232D01*
X177102742Y-66078232D01*
X177102742Y-65449661D01*
X177252742Y-65449661D01*
X177257853Y-65468735D01*
X177257853Y-65488484D01*
X177267726Y-65505586D01*
X177272838Y-65524661D01*
X177286802Y-65538625D01*
X177296676Y-65555727D01*
X177353819Y-65612870D01*
X177421062Y-65651693D01*
X177498708Y-65651693D01*
X177565951Y-65612870D01*
X177623094Y-65555727D01*
X177632967Y-65538625D01*
X177646932Y-65524661D01*
X177652043Y-65505586D01*
X177661917Y-65488484D01*
X177661917Y-65483902D01*
X177672838Y-65524661D01*
X177727742Y-65579565D01*
X177802742Y-65599661D01*
X178602742Y-65599661D01*
X178677742Y-65579565D01*
X178732646Y-65524661D01*
X178752742Y-65449661D01*
X178732646Y-65374661D01*
X178677742Y-65319757D01*
X178602742Y-65299661D01*
X177802742Y-65299661D01*
X177727742Y-65319757D01*
X177672838Y-65374661D01*
X177661917Y-65415419D01*
X177661917Y-65410838D01*
X177652043Y-65393735D01*
X177646932Y-65374661D01*
X177632967Y-65360696D01*
X177623094Y-65343595D01*
X177565951Y-65286452D01*
X177498708Y-65247629D01*
X177421062Y-65247629D01*
X177353819Y-65286452D01*
X177296676Y-65343595D01*
X177286802Y-65360696D01*
X177272838Y-65374661D01*
X177267726Y-65393735D01*
X177257853Y-65410838D01*
X177257853Y-65430586D01*
X177252742Y-65449661D01*
X177102742Y-65449661D01*
X177102742Y-64706804D01*
X177652742Y-64706804D01*
X177661664Y-64740104D01*
X177668578Y-64773887D01*
X177725721Y-64888172D01*
X177741744Y-64906241D01*
X177753819Y-64927155D01*
X177810962Y-64984298D01*
X177831876Y-64996372D01*
X177849946Y-65012396D01*
X177964232Y-65069539D01*
X177998010Y-65076451D01*
X178031314Y-65085375D01*
X178374171Y-65085375D01*
X178407472Y-65076451D01*
X178441253Y-65069539D01*
X178555539Y-65012396D01*
X178573607Y-64996373D01*
X178594523Y-64984298D01*
X178651666Y-64927155D01*
X178663740Y-64906240D01*
X178679764Y-64888171D01*
X178736906Y-64773886D01*
X178743818Y-64740105D01*
X178752742Y-64706804D01*
X178752742Y-64520937D01*
X178799602Y-64544366D01*
X178822320Y-64567084D01*
X178852742Y-64627928D01*
X178852742Y-64728538D01*
X178811436Y-64811150D01*
X178795869Y-64887220D01*
X178820423Y-64960881D01*
X178878518Y-65012396D01*
X178954588Y-65027963D01*
X179028249Y-65003409D01*
X179079764Y-64945314D01*
X179136906Y-64831029D01*
X179143818Y-64797248D01*
X179152742Y-64763947D01*
X179152742Y-64592518D01*
X179143817Y-64559212D01*
X179136906Y-64525437D01*
X179079765Y-64411151D01*
X179063740Y-64393080D01*
X179051666Y-64372166D01*
X178994523Y-64315023D01*
X178973608Y-64302948D01*
X178955538Y-64286924D01*
X178841252Y-64229782D01*
X178807467Y-64222868D01*
X178774171Y-64213947D01*
X177802742Y-64213947D01*
X177727742Y-64234043D01*
X177672838Y-64288947D01*
X177652742Y-64363947D01*
X177667197Y-64417895D01*
X177661664Y-64444931D01*
X177652742Y-64478232D01*
X177652742Y-64706804D01*
X177102742Y-64706804D01*
X177102742Y-63792518D01*
X177252742Y-63792518D01*
X177272838Y-63867518D01*
X177327742Y-63922422D01*
X177402742Y-63942518D01*
X178602742Y-63942518D01*
X178677742Y-63922422D01*
X178732646Y-63867518D01*
X178752742Y-63792518D01*
X178732646Y-63717518D01*
X178677742Y-63662614D01*
X178602742Y-63642518D01*
X177981161Y-63642518D01*
X177952742Y-63585679D01*
X177952742Y-63485071D01*
X177971687Y-63447179D01*
X178009581Y-63428233D01*
X178602742Y-63428233D01*
X178677742Y-63408137D01*
X178732646Y-63353233D01*
X178752742Y-63278233D01*
X178732646Y-63203233D01*
X178677742Y-63148329D01*
X178602742Y-63128233D01*
X177974171Y-63128233D01*
X177940865Y-63137157D01*
X177907090Y-63144069D01*
X177792804Y-63201210D01*
X177785939Y-63207297D01*
X177777237Y-63210198D01*
X177757251Y-63232735D01*
X177734709Y-63252725D01*
X177731807Y-63261429D01*
X177725721Y-63268293D01*
X177668578Y-63382579D01*
X177661665Y-63416359D01*
X177652742Y-63449661D01*
X177652742Y-63621090D01*
X177658484Y-63642518D01*
X177402742Y-63642518D01*
X177327742Y-63662614D01*
X177272838Y-63717518D01*
X177252742Y-63792518D01*
X177102742Y-63792518D01*
X177102742Y-62706804D01*
X177252742Y-62706804D01*
X177272838Y-62781804D01*
X177327742Y-62836708D01*
X177402742Y-62856804D01*
X177652742Y-62856804D01*
X177652742Y-62878233D01*
X177672838Y-62953233D01*
X177727742Y-63008137D01*
X177802742Y-63028233D01*
X177877742Y-63008137D01*
X177932646Y-62953233D01*
X177952742Y-62878233D01*
X177952742Y-62856804D01*
X178431314Y-62856804D01*
X178464615Y-62847880D01*
X178498396Y-62840968D01*
X178612682Y-62783825D01*
X178619544Y-62777739D01*
X178628249Y-62774838D01*
X178648239Y-62752294D01*
X178670777Y-62732309D01*
X178673677Y-62723606D01*
X178679764Y-62716743D01*
X178736906Y-62602458D01*
X178743818Y-62568677D01*
X178752742Y-62535376D01*
X178752742Y-62421090D01*
X178732646Y-62346090D01*
X178677742Y-62291186D01*
X178602742Y-62271090D01*
X178527742Y-62291186D01*
X178472838Y-62346090D01*
X178452742Y-62421090D01*
X178452742Y-62499967D01*
X178433796Y-62537857D01*
X178395904Y-62556804D01*
X177952742Y-62556804D01*
X177952742Y-62421090D01*
X177932646Y-62346090D01*
X177877742Y-62291186D01*
X177802742Y-62271090D01*
X177727742Y-62291186D01*
X177672838Y-62346090D01*
X177652742Y-62421090D01*
X177652742Y-62556804D01*
X177402742Y-62556804D01*
X177327742Y-62576900D01*
X177272838Y-62631804D01*
X177252742Y-62706804D01*
X177102742Y-62706804D01*
X177102742Y-60821090D01*
X177252742Y-60821090D01*
X177261581Y-60854078D01*
X177268280Y-60887574D01*
X177271554Y-60891300D01*
X177272838Y-60896090D01*
X177296987Y-60920239D01*
X177319537Y-60945898D01*
X177478609Y-61051946D01*
X177565179Y-61138515D01*
X177611436Y-61231029D01*
X177662952Y-61289124D01*
X177736613Y-61313678D01*
X177812682Y-61298111D01*
X177870777Y-61246596D01*
X177895331Y-61172935D01*
X177879764Y-61096865D01*
X177822621Y-60982579D01*
X177812433Y-60971090D01*
X178452742Y-60971090D01*
X178452742Y-61163947D01*
X178472838Y-61238947D01*
X178527742Y-61293851D01*
X178602742Y-61313947D01*
X178677742Y-61293851D01*
X178732646Y-61238947D01*
X178752742Y-61163947D01*
X178752742Y-60478233D01*
X178732646Y-60403233D01*
X178677742Y-60348329D01*
X178602742Y-60328233D01*
X178527742Y-60348329D01*
X178472838Y-60403233D01*
X178452742Y-60478233D01*
X178452742Y-60671090D01*
X177402742Y-60671090D01*
X177369753Y-60679929D01*
X177336258Y-60686628D01*
X177332531Y-60689902D01*
X177327742Y-60691186D01*
X177303592Y-60715335D01*
X177277934Y-60737885D01*
X177276344Y-60742583D01*
X177272838Y-60746090D01*
X177263998Y-60779080D01*
X177253053Y-60811436D01*
X177254025Y-60816299D01*
X177252742Y-60821090D01*
X177102742Y-60821090D01*
X177102742Y-60178233D01*
X179302742Y-60178233D01*
X179302742Y-71349660D01*
G37*
D11*
G36*
X162717821Y-47099023D02*
G01*
X162782000Y-47163202D01*
X162819915Y-47314861D01*
X162819915Y-47623575D01*
X162781999Y-47775235D01*
X162717823Y-47839413D01*
X162658213Y-47869219D01*
X162514951Y-47869219D01*
X162455341Y-47839414D01*
X162391164Y-47775236D01*
X162353249Y-47623575D01*
X162353249Y-47314862D01*
X162391164Y-47163202D01*
X162455343Y-47099023D01*
X162514951Y-47069219D01*
X162658213Y-47069219D01*
X162717821Y-47099023D01*
G37*
G36*
X165030894Y-48180330D02*
G01*
X160856556Y-48180330D01*
X160856556Y-47619168D01*
X160967667Y-47619168D01*
X161003994Y-47669168D01*
X161062773Y-47688266D01*
X161343725Y-47688266D01*
X161343725Y-47969219D01*
X161362823Y-48027998D01*
X161412823Y-48064325D01*
X161474627Y-48064325D01*
X161524627Y-48027998D01*
X161543725Y-47969219D01*
X161543725Y-47688266D01*
X161824678Y-47688266D01*
X161883457Y-47669168D01*
X161907638Y-47635885D01*
X162153249Y-47635885D01*
X162157095Y-47647722D01*
X162156235Y-47660139D01*
X162203854Y-47850614D01*
X162218027Y-47873264D01*
X162230157Y-47897071D01*
X162325395Y-47992311D01*
X162339838Y-47999670D01*
X162351385Y-48011043D01*
X162446622Y-48058662D01*
X162469420Y-48062095D01*
X162491344Y-48069219D01*
X162681820Y-48069219D01*
X162703743Y-48062095D01*
X162726541Y-48058662D01*
X162821779Y-48011043D01*
X162833327Y-47999668D01*
X162847769Y-47992310D01*
X162943007Y-47897071D01*
X162955138Y-47873262D01*
X162969310Y-47850615D01*
X162987278Y-47778742D01*
X163248487Y-47778742D01*
X163255610Y-47800665D01*
X163259044Y-47823463D01*
X163306663Y-47918701D01*
X163318036Y-47930248D01*
X163325395Y-47944690D01*
X163373013Y-47992310D01*
X163387456Y-47999669D01*
X163399004Y-48011043D01*
X163494241Y-48058662D01*
X163517039Y-48062095D01*
X163538963Y-48069219D01*
X163729439Y-48069219D01*
X163751362Y-48062095D01*
X163774160Y-48058662D01*
X163869398Y-48011043D01*
X163880946Y-47999668D01*
X163895388Y-47992310D01*
X163943007Y-47944690D01*
X163950364Y-47930249D01*
X163961739Y-47918701D01*
X164009358Y-47823464D01*
X164012791Y-47800665D01*
X164019915Y-47778742D01*
X164019915Y-47000121D01*
X164158143Y-47000121D01*
X164194470Y-47050121D01*
X164253249Y-47069219D01*
X164438963Y-47069219D01*
X164438963Y-47969219D01*
X164458061Y-48027998D01*
X164508061Y-48064325D01*
X164569865Y-48064325D01*
X164619865Y-48027998D01*
X164638963Y-47969219D01*
X164638963Y-47069219D01*
X164824677Y-47069219D01*
X164883456Y-47050121D01*
X164919783Y-47000121D01*
X164919783Y-46938317D01*
X164883456Y-46888317D01*
X164824677Y-46869219D01*
X164253249Y-46869219D01*
X164194470Y-46888317D01*
X164158143Y-46938317D01*
X164158143Y-47000121D01*
X164019915Y-47000121D01*
X164019915Y-46969219D01*
X164000817Y-46910440D01*
X163950817Y-46874113D01*
X163889013Y-46874113D01*
X163839013Y-46910440D01*
X163819915Y-46969219D01*
X163819915Y-47755135D01*
X163790110Y-47814743D01*
X163765441Y-47839413D01*
X163705832Y-47869219D01*
X163562570Y-47869219D01*
X163502960Y-47839414D01*
X163478293Y-47814746D01*
X163448487Y-47755134D01*
X163448487Y-46969219D01*
X163429389Y-46910440D01*
X163379389Y-46874113D01*
X163317585Y-46874113D01*
X163267585Y-46910440D01*
X163248487Y-46969219D01*
X163248487Y-47778742D01*
X162987278Y-47778742D01*
X163016929Y-47660139D01*
X163016068Y-47647722D01*
X163019915Y-47635885D01*
X163019915Y-47302552D01*
X163016068Y-47290714D01*
X163016929Y-47278298D01*
X162969310Y-47087822D01*
X162955137Y-47065173D01*
X162943007Y-47041365D01*
X162847769Y-46946127D01*
X162833326Y-46938768D01*
X162821779Y-46927395D01*
X162726541Y-46879776D01*
X162703743Y-46876342D01*
X162681820Y-46869219D01*
X162491344Y-46869219D01*
X162469420Y-46876342D01*
X162446622Y-46879776D01*
X162351385Y-46927395D01*
X162339837Y-46938768D01*
X162325395Y-46946127D01*
X162230157Y-47041365D01*
X162218025Y-47065174D01*
X162203854Y-47087823D01*
X162156235Y-47278298D01*
X162157095Y-47290714D01*
X162153249Y-47302552D01*
X162153249Y-47635885D01*
X161907638Y-47635885D01*
X161919784Y-47619168D01*
X161919784Y-47557364D01*
X161883457Y-47507364D01*
X161824678Y-47488266D01*
X161543725Y-47488266D01*
X161543725Y-47207314D01*
X161524627Y-47148535D01*
X161474627Y-47112208D01*
X161412823Y-47112208D01*
X161362823Y-47148535D01*
X161343725Y-47207314D01*
X161343725Y-47488266D01*
X161062773Y-47488266D01*
X161003994Y-47507364D01*
X160967667Y-47557364D01*
X160967667Y-47619168D01*
X160856556Y-47619168D01*
X160856556Y-46758108D01*
X165030894Y-46758108D01*
X165030894Y-48180330D01*
G37*
G36*
X130279866Y-58410677D02*
G01*
X130279866Y-55673203D01*
X130896823Y-55673203D01*
X130896823Y-57891905D01*
X132116083Y-57891905D01*
X132116083Y-58410677D01*
X130279866Y-58410677D01*
G37*
G36*
X132591624Y-58410677D02*
G01*
X132591624Y-55673935D01*
X133241554Y-55673935D01*
X133509733Y-56643335D01*
X133601324Y-57022156D01*
X133618177Y-57022156D01*
X133709035Y-56643335D01*
X133978679Y-55673935D01*
X134627877Y-55673935D01*
X134627877Y-58410677D01*
X134103976Y-58410677D01*
X134103976Y-57563642D01*
X134104125Y-57533692D01*
X134104571Y-57502093D01*
X134105315Y-57468846D01*
X134106357Y-57433949D01*
X134107697Y-57397405D01*
X134109334Y-57359211D01*
X134110757Y-57329484D01*
X134112348Y-57298830D01*
X134113501Y-57277878D01*
X134115307Y-57245869D01*
X134117151Y-57213590D01*
X134119033Y-57181040D01*
X134120955Y-57148220D01*
X134122914Y-57115129D01*
X134124913Y-57081767D01*
X134126950Y-57048136D01*
X134129026Y-57014233D01*
X134131141Y-56980061D01*
X134133294Y-56945617D01*
X134134750Y-56922505D01*
X134136981Y-56887901D01*
X134139276Y-56853605D01*
X134141635Y-56819619D01*
X134144058Y-56785943D01*
X134146546Y-56752575D01*
X134149099Y-56719516D01*
X134151716Y-56686767D01*
X134154397Y-56654326D01*
X134157142Y-56622195D01*
X134159952Y-56590373D01*
X134161861Y-56569330D01*
X134164701Y-56538377D01*
X134167451Y-56508442D01*
X134170978Y-56470111D01*
X134174344Y-56433589D01*
X134177549Y-56398876D01*
X134180595Y-56365972D01*
X134183480Y-56334877D01*
X134186205Y-56305590D01*
X134187507Y-56291626D01*
X134174318Y-56291626D01*
X133964757Y-57026552D01*
X133751533Y-57686008D01*
X133451115Y-57686008D01*
X133234227Y-57026552D01*
X133038589Y-56291626D01*
X133023934Y-56291626D01*
X133027669Y-56327385D01*
X133030760Y-56358028D01*
X133033943Y-56390480D01*
X133037218Y-56424741D01*
X133040584Y-56460811D01*
X133044041Y-56498689D01*
X133046694Y-56528285D01*
X133049399Y-56558899D01*
X133050312Y-56569330D01*
X133053159Y-56600946D01*
X133055928Y-56632871D01*
X133058620Y-56665105D01*
X133061234Y-56697649D01*
X133063772Y-56730501D01*
X133066232Y-56763663D01*
X133068615Y-56797134D01*
X133070920Y-56830914D01*
X133073148Y-56865003D01*
X133075299Y-56899401D01*
X133076690Y-56922505D01*
X133078863Y-56957128D01*
X133080984Y-56991481D01*
X133083053Y-57025564D01*
X133085071Y-57059376D01*
X133087037Y-57092918D01*
X133088952Y-57126189D01*
X133090816Y-57159190D01*
X133092627Y-57191920D01*
X133094388Y-57224380D01*
X133096096Y-57256569D01*
X133097207Y-57277878D01*
X133098909Y-57309151D01*
X133100444Y-57339496D01*
X133101811Y-57368914D01*
X133103374Y-57406695D01*
X133104639Y-57442828D01*
X133105607Y-57477312D01*
X133106277Y-57510147D01*
X133106649Y-57541334D01*
X133106732Y-57563642D01*
X133106732Y-58410677D01*
X132591624Y-58410677D01*
G37*
G36*
X135110012Y-58410677D02*
G01*
X135110012Y-58056769D01*
X135133960Y-58036767D01*
X135157717Y-58016878D01*
X135181284Y-57997102D01*
X135204660Y-57977439D01*
X135227846Y-57957890D01*
X135250842Y-57938453D01*
X135273647Y-57919129D01*
X135296263Y-57899919D01*
X135318687Y-57880821D01*
X135362966Y-57842966D01*
X135406483Y-57805562D01*
X135449239Y-57768611D01*
X135491234Y-57732112D01*
X135532467Y-57696065D01*
X135572938Y-57660471D01*
X135612649Y-57625328D01*
X135651598Y-57590638D01*
X135689786Y-57556400D01*
X135727212Y-57522615D01*
X135763877Y-57489281D01*
X135781924Y-57472784D01*
X135817330Y-57439986D01*
X135851740Y-57407537D01*
X135885153Y-57375437D01*
X135917571Y-57343686D01*
X135948992Y-57312285D01*
X135979417Y-57281233D01*
X136008847Y-57250530D01*
X136037280Y-57220176D01*
X136064717Y-57190171D01*
X136091159Y-57160516D01*
X136116604Y-57131209D01*
X136141053Y-57102252D01*
X136164506Y-57073644D01*
X136186963Y-57045386D01*
X136208424Y-57017476D01*
X136228889Y-56989916D01*
X136248320Y-56962544D01*
X136266498Y-56935385D01*
X136283423Y-56908437D01*
X136299093Y-56881701D01*
X136313510Y-56855177D01*
X136326674Y-56828864D01*
X136344068Y-56789793D01*
X136358642Y-56751198D01*
X136370395Y-56713080D01*
X136379327Y-56675438D01*
X136385439Y-56638273D01*
X136388729Y-56601584D01*
X136389356Y-56577390D01*
X136388345Y-56541787D01*
X136385312Y-56507795D01*
X136380257Y-56475412D01*
X136373179Y-56444640D01*
X136364079Y-56415477D01*
X136352957Y-56387925D01*
X136334983Y-56353693D01*
X136313413Y-56322323D01*
X136288248Y-56293815D01*
X136274318Y-56280635D01*
X136244070Y-56256420D01*
X136219430Y-56240378D01*
X136193117Y-56226152D01*
X136165128Y-56213742D01*
X136135466Y-56203149D01*
X136104129Y-56194371D01*
X136071117Y-56187409D01*
X136036432Y-56182264D01*
X136000071Y-56178934D01*
X135962037Y-56177421D01*
X135948986Y-56177320D01*
X135919543Y-56178041D01*
X135881006Y-56181247D01*
X135843293Y-56187017D01*
X135806405Y-56195352D01*
X135770341Y-56206251D01*
X135735101Y-56219715D01*
X135700686Y-56235744D01*
X135667095Y-56254337D01*
X135658826Y-56259386D01*
X135626288Y-56280131D01*
X135594254Y-56301701D01*
X135562724Y-56324095D01*
X135531697Y-56347313D01*
X135501175Y-56371356D01*
X135471156Y-56396223D01*
X135448972Y-56415414D01*
X135427072Y-56435069D01*
X135412629Y-56448429D01*
X135081436Y-56115771D01*
X135107488Y-56089630D01*
X135133620Y-56064331D01*
X135159832Y-56039873D01*
X135186124Y-56016257D01*
X135212497Y-55993482D01*
X135238950Y-55971549D01*
X135265482Y-55950457D01*
X135292095Y-55930207D01*
X135318788Y-55910798D01*
X135345562Y-55892231D01*
X135372415Y-55874506D01*
X135399348Y-55857621D01*
X135426362Y-55841579D01*
X135453456Y-55826377D01*
X135480630Y-55812018D01*
X135507884Y-55798499D01*
X135535610Y-55785722D01*
X135564018Y-55773770D01*
X135593106Y-55762641D01*
X135622876Y-55752337D01*
X135653328Y-55742858D01*
X135684460Y-55734202D01*
X135716273Y-55726371D01*
X135748768Y-55719365D01*
X135781944Y-55713182D01*
X135815802Y-55707824D01*
X135850340Y-55703290D01*
X135885560Y-55699581D01*
X135921460Y-55696696D01*
X135958042Y-55694635D01*
X135995306Y-55693398D01*
X136033250Y-55692986D01*
X136068149Y-55693396D01*
X136102504Y-55694624D01*
X136136316Y-55696670D01*
X136169583Y-55699535D01*
X136202307Y-55703219D01*
X136234487Y-55707721D01*
X136266123Y-55713042D01*
X136297216Y-55719181D01*
X136327764Y-55726139D01*
X136357769Y-55733916D01*
X136387230Y-55742511D01*
X136416147Y-55751925D01*
X136444520Y-55762158D01*
X136472349Y-55773209D01*
X136499635Y-55785078D01*
X136526376Y-55797767D01*
X136552572Y-55811116D01*
X136590490Y-55832428D01*
X136626760Y-55855286D01*
X136661382Y-55879689D01*
X136694354Y-55905638D01*
X136725679Y-55933132D01*
X136755354Y-55962172D01*
X136783381Y-55992758D01*
X136809759Y-56024889D01*
X136834489Y-56058566D01*
X136857570Y-56093789D01*
X136878914Y-56130357D01*
X136898159Y-56168072D01*
X136915304Y-56206933D01*
X136930350Y-56246941D01*
X136943297Y-56288094D01*
X136954144Y-56330394D01*
X136960209Y-56359231D01*
X136965341Y-56388578D01*
X136969540Y-56418433D01*
X136972806Y-56448799D01*
X136975138Y-56479673D01*
X136976538Y-56511058D01*
X136977005Y-56542951D01*
X136975794Y-56585194D01*
X136972162Y-56627564D01*
X136966108Y-56670064D01*
X136957633Y-56712693D01*
X136950638Y-56741183D01*
X136942566Y-56769731D01*
X136933419Y-56798336D01*
X136923195Y-56826998D01*
X136911895Y-56855718D01*
X136899518Y-56884495D01*
X136886066Y-56913329D01*
X136871537Y-56942220D01*
X136855933Y-56971168D01*
X136839252Y-57000174D01*
X136821698Y-57029120D01*
X136803474Y-57058071D01*
X136784580Y-57087028D01*
X136765017Y-57115991D01*
X136744784Y-57144960D01*
X136723881Y-57173934D01*
X136702309Y-57202914D01*
X136680066Y-57231899D01*
X136657154Y-57260891D01*
X136633572Y-57289888D01*
X136609321Y-57318891D01*
X136584399Y-57347900D01*
X136558808Y-57376914D01*
X136532547Y-57405934D01*
X136505617Y-57434960D01*
X136478016Y-57463991D01*
X136450032Y-57493000D01*
X136421768Y-57521957D01*
X136393223Y-57550862D01*
X136364398Y-57579717D01*
X136335292Y-57608519D01*
X136305905Y-57637270D01*
X136276238Y-57665970D01*
X136246291Y-57694618D01*
X136216063Y-57723214D01*
X136185555Y-57751759D01*
X136154766Y-57780252D01*
X136123696Y-57808694D01*
X136092346Y-57837085D01*
X136060716Y-57865423D01*
X136028805Y-57893711D01*
X135996614Y-57921947D01*
X136032588Y-57918354D01*
X136062063Y-57915584D01*
X136092157Y-57912905D01*
X136122868Y-57910317D01*
X136154198Y-57907822D01*
X136186146Y-57905417D01*
X136218713Y-57903105D01*
X136243543Y-57901430D01*
X136276573Y-57899198D01*
X136308619Y-57897263D01*
X136339680Y-57895626D01*
X136369756Y-57894286D01*
X136405966Y-57893030D01*
X136440639Y-57892240D01*
X136473772Y-57891914D01*
X136480215Y-57891905D01*
X137114025Y-57891905D01*
X137114025Y-58410677D01*
X135110012Y-58410677D01*
G37*
G36*
X138574353Y-58461235D02*
G01*
X138531606Y-58460797D01*
X138489645Y-58459483D01*
X138448470Y-58457293D01*
X138408081Y-58454228D01*
X138368477Y-58450287D01*
X138329659Y-58445470D01*
X138291626Y-58439777D01*
X138254379Y-58433208D01*
X138217918Y-58425763D01*
X138182243Y-58417443D01*
X138158896Y-58411409D01*
X138124641Y-58401882D01*
X138091121Y-58391711D01*
X138058335Y-58380897D01*
X138026283Y-58369438D01*
X137994966Y-58357335D01*
X137964382Y-58344588D01*
X137934533Y-58331197D01*
X137905417Y-58317162D01*
X137877036Y-58302483D01*
X137849389Y-58287160D01*
X137831366Y-58276587D01*
X137804859Y-58260346D01*
X137778919Y-58243769D01*
X137753545Y-58226858D01*
X137728738Y-58209611D01*
X137704498Y-58192030D01*
X137680825Y-58174114D01*
X137657718Y-58155863D01*
X137627791Y-58131007D01*
X137598871Y-58105557D01*
X137577842Y-58086078D01*
X137855546Y-57696266D01*
X137883449Y-57718860D01*
X137911746Y-57740845D01*
X137940436Y-57762222D01*
X137969520Y-57782991D01*
X137998997Y-57803152D01*
X138028868Y-57822705D01*
X138040926Y-57830355D01*
X138071491Y-57848559D01*
X138102736Y-57865618D01*
X138134661Y-57881532D01*
X138167265Y-57896301D01*
X138200549Y-57909925D01*
X138234513Y-57922405D01*
X138248289Y-57927076D01*
X138283451Y-57937419D01*
X138312096Y-57944431D01*
X138341199Y-57950322D01*
X138370760Y-57955090D01*
X138400779Y-57958737D01*
X138431256Y-57961261D01*
X138462191Y-57962664D01*
X138485693Y-57962979D01*
X138523233Y-57962224D01*
X138559652Y-57959957D01*
X138594949Y-57956179D01*
X138629124Y-57950889D01*
X138662177Y-57944089D01*
X138694108Y-57935777D01*
X138724917Y-57925954D01*
X138754604Y-57914619D01*
X138783089Y-57901842D01*
X138809925Y-57887692D01*
X138835112Y-57872167D01*
X138864279Y-57850829D01*
X138890869Y-57827344D01*
X138914883Y-57801713D01*
X138936321Y-57773935D01*
X138955108Y-57743993D01*
X138970710Y-57711868D01*
X138983129Y-57677561D01*
X138990771Y-57648544D01*
X138996375Y-57618130D01*
X138999941Y-57586319D01*
X139001470Y-57553111D01*
X139001533Y-57544591D01*
X139000323Y-57507529D01*
X138996691Y-57472180D01*
X138990637Y-57438544D01*
X138982162Y-57406621D01*
X138971265Y-57376411D01*
X138957948Y-57347914D01*
X138942208Y-57321130D01*
X138924047Y-57296059D01*
X138903465Y-57272701D01*
X138880462Y-57251056D01*
X138863781Y-57237578D01*
X138837301Y-57218722D01*
X138809521Y-57201720D01*
X138780441Y-57186573D01*
X138750059Y-57173281D01*
X138718376Y-57161844D01*
X138685393Y-57152261D01*
X138651108Y-57144533D01*
X138615523Y-57138660D01*
X138578637Y-57134641D01*
X138540450Y-57132477D01*
X138514269Y-57132065D01*
X138482281Y-57132535D01*
X138451529Y-57133943D01*
X138422014Y-57136290D01*
X138386859Y-57140544D01*
X138353635Y-57146265D01*
X138322344Y-57153452D01*
X138292985Y-57162107D01*
X138263676Y-57172429D01*
X138232077Y-57185076D01*
X138205149Y-57196869D01*
X138176756Y-57210149D01*
X138146897Y-57224919D01*
X138115573Y-57241176D01*
X138082783Y-57258922D01*
X138065839Y-57268353D01*
X137791066Y-57090300D01*
X137863606Y-55743545D01*
X139498323Y-55743545D01*
X139498323Y-56262316D01*
X138397032Y-56262316D01*
X138353069Y-56762770D01*
X138381580Y-56752931D01*
X138414896Y-56742352D01*
X138447234Y-56733113D01*
X138478592Y-56725213D01*
X138508972Y-56718653D01*
X138523794Y-56715875D01*
X138554217Y-56710895D01*
X138586134Y-56706945D01*
X138619544Y-56704026D01*
X138654449Y-56702137D01*
X138684678Y-56701350D01*
X138703313Y-56701221D01*
X138734027Y-56701567D01*
X138764439Y-56702606D01*
X138794546Y-56704338D01*
X138824351Y-56706762D01*
X138853851Y-56709879D01*
X138883049Y-56713689D01*
X138926276Y-56720702D01*
X138968821Y-56729273D01*
X139010683Y-56739404D01*
X139051863Y-56751092D01*
X139092360Y-56764339D01*
X139132174Y-56779145D01*
X139158337Y-56789881D01*
X139196765Y-56807342D01*
X139233737Y-56826477D01*
X139269253Y-56847287D01*
X139303315Y-56869771D01*
X139335920Y-56893930D01*
X139367071Y-56919763D01*
X139396765Y-56947270D01*
X139425005Y-56976452D01*
X139451789Y-57007308D01*
X139477117Y-57039839D01*
X139493194Y-57062456D01*
X139515848Y-57097685D01*
X139536274Y-57134678D01*
X139554471Y-57173436D01*
X139570440Y-57213959D01*
X139579848Y-57241954D01*
X139588266Y-57270734D01*
X139595693Y-57300298D01*
X139602130Y-57330646D01*
X139607577Y-57361778D01*
X139612034Y-57393695D01*
X139615500Y-57426396D01*
X139617976Y-57459881D01*
X139619461Y-57494150D01*
X139619956Y-57529204D01*
X139619381Y-57565863D01*
X139617655Y-57601836D01*
X139614779Y-57637121D01*
X139610751Y-57671720D01*
X139605574Y-57705631D01*
X139599245Y-57738856D01*
X139591766Y-57771394D01*
X139583137Y-57803245D01*
X139573357Y-57834408D01*
X139562426Y-57864885D01*
X139550344Y-57894675D01*
X139537112Y-57923778D01*
X139522730Y-57952195D01*
X139507196Y-57979924D01*
X139490512Y-58006966D01*
X139472678Y-58033321D01*
X139453999Y-58058950D01*
X139434599Y-58083811D01*
X139414478Y-58107905D01*
X139393635Y-58131232D01*
X139372071Y-58153792D01*
X139349786Y-58175585D01*
X139326779Y-58196611D01*
X139303051Y-58216870D01*
X139278602Y-58236362D01*
X139253432Y-58255086D01*
X139227540Y-58273044D01*
X139200927Y-58290234D01*
X139173593Y-58306658D01*
X139145538Y-58322314D01*
X139116761Y-58337203D01*
X139087263Y-58351325D01*
X139057267Y-58364635D01*
X139026996Y-58377085D01*
X138996450Y-58388677D01*
X138965630Y-58399411D01*
X138934535Y-58409285D01*
X138903165Y-58418301D01*
X138871520Y-58426459D01*
X138839600Y-58433757D01*
X138807406Y-58440197D01*
X138774937Y-58445779D01*
X138742193Y-58450501D01*
X138709175Y-58454365D01*
X138675881Y-58457371D01*
X138642313Y-58459517D01*
X138608470Y-58460805D01*
X138574353Y-58461235D01*
G37*
G36*
X141015072Y-58461235D02*
G01*
X140979892Y-58460857D01*
X140945245Y-58459724D01*
X140911130Y-58457834D01*
X140877548Y-58455190D01*
X140844497Y-58451789D01*
X140811980Y-58447633D01*
X140779994Y-58442722D01*
X140748541Y-58437055D01*
X140717621Y-58430632D01*
X140687233Y-58423453D01*
X140657377Y-58415519D01*
X140628053Y-58406830D01*
X140599262Y-58397384D01*
X140571004Y-58387183D01*
X140543277Y-58376227D01*
X140516083Y-58364515D01*
X140476512Y-58345978D01*
X140438305Y-58326914D01*
X140401464Y-58307321D01*
X140365989Y-58287200D01*
X140331878Y-58266552D01*
X140299133Y-58245375D01*
X140267753Y-58223670D01*
X140237738Y-58201437D01*
X140209089Y-58178676D01*
X140181805Y-58155386D01*
X140164374Y-58139567D01*
X140491171Y-57770272D01*
X140518312Y-57793445D01*
X140541518Y-57811391D01*
X140566053Y-57828811D01*
X140591916Y-57845703D01*
X140619108Y-57862070D01*
X140647627Y-57877909D01*
X140677474Y-57893222D01*
X140700731Y-57904361D01*
X140732525Y-57918100D01*
X140764524Y-57930007D01*
X140796730Y-57940082D01*
X140829142Y-57948325D01*
X140861760Y-57954736D01*
X140894583Y-57959316D01*
X140927613Y-57962063D01*
X140960850Y-57962979D01*
X140993146Y-57962194D01*
X141024915Y-57959837D01*
X141056155Y-57955908D01*
X141086867Y-57950408D01*
X141117052Y-57943337D01*
X141146708Y-57934695D01*
X141175836Y-57924481D01*
X141204436Y-57912696D01*
X141232508Y-57899339D01*
X141260052Y-57884411D01*
X141278121Y-57873586D01*
X141304572Y-57855795D01*
X141330070Y-57835943D01*
X141354615Y-57814029D01*
X141378207Y-57790055D01*
X141400846Y-57764021D01*
X141422532Y-57735925D01*
X141443264Y-57705769D01*
X141463043Y-57673552D01*
X141481870Y-57639274D01*
X141499743Y-57602935D01*
X141511129Y-57577564D01*
X141527104Y-57537514D01*
X141536882Y-57509361D01*
X141545961Y-57480046D01*
X141554341Y-57449569D01*
X141562023Y-57417930D01*
X141569007Y-57385129D01*
X141575293Y-57351166D01*
X141580880Y-57316041D01*
X141585768Y-57279754D01*
X141589959Y-57242304D01*
X141593450Y-57203693D01*
X141596244Y-57163920D01*
X141598339Y-57122984D01*
X141599736Y-57080887D01*
X141600434Y-57037627D01*
X141600522Y-57015561D01*
X141600238Y-56974723D01*
X141599388Y-56935007D01*
X141597971Y-56896413D01*
X141595988Y-56858941D01*
X141593438Y-56822590D01*
X141590321Y-56787362D01*
X141586637Y-56753256D01*
X141582387Y-56720272D01*
X141577569Y-56688410D01*
X141572186Y-56657669D01*
X141566235Y-56628051D01*
X141556247Y-56585727D01*
X141544983Y-56545928D01*
X141532444Y-56508653D01*
X141527981Y-56496790D01*
X141514007Y-56462597D01*
X141499285Y-56430363D01*
X141483816Y-56400087D01*
X141467600Y-56371768D01*
X141450637Y-56345407D01*
X141432927Y-56321003D01*
X141408152Y-56291511D01*
X141382048Y-56265499D01*
X141354617Y-56242968D01*
X141340403Y-56233007D01*
X141311586Y-56215147D01*
X141282288Y-56199668D01*
X141252510Y-56186571D01*
X141222250Y-56175854D01*
X141191510Y-56167520D01*
X141160289Y-56161566D01*
X141128587Y-56157994D01*
X141096404Y-56156804D01*
X141063929Y-56157895D01*
X141031990Y-56161168D01*
X141000588Y-56166625D01*
X140969722Y-56174263D01*
X140939394Y-56184084D01*
X140909602Y-56196087D01*
X140897835Y-56201500D01*
X140869613Y-56216684D01*
X140843109Y-56234301D01*
X140818322Y-56254351D01*
X140795253Y-56276834D01*
X140773901Y-56301749D01*
X140754266Y-56329098D01*
X140746893Y-56340718D01*
X140730428Y-56371459D01*
X140716754Y-56405061D01*
X140707824Y-56434004D01*
X140700679Y-56464778D01*
X140695321Y-56497385D01*
X140691749Y-56531823D01*
X140689963Y-56568093D01*
X140689740Y-56586915D01*
X140690700Y-56624136D01*
X140693578Y-56659412D01*
X140698376Y-56692744D01*
X140705093Y-56724130D01*
X140713729Y-56753572D01*
X140724284Y-56781068D01*
X140741343Y-56814705D01*
X140761814Y-56844884D01*
X140785696Y-56871606D01*
X140798917Y-56883670D01*
X140827436Y-56905309D01*
X140858039Y-56924062D01*
X140890725Y-56939930D01*
X140925495Y-56952913D01*
X140962349Y-56963011D01*
X140991357Y-56968691D01*
X141021537Y-56972748D01*
X141052889Y-56975183D01*
X141085413Y-56975994D01*
X141116486Y-56974975D01*
X141147787Y-56971918D01*
X141179317Y-56966823D01*
X141211076Y-56959691D01*
X141243065Y-56950520D01*
X141275282Y-56939312D01*
X141307728Y-56926065D01*
X141340403Y-56910781D01*
X141373250Y-56893035D01*
X141405845Y-56872405D01*
X141430126Y-56855038D01*
X141454265Y-56836049D01*
X141478263Y-56815436D01*
X141502118Y-56793201D01*
X141525833Y-56769343D01*
X141549405Y-56743862D01*
X141572836Y-56716758D01*
X141596125Y-56688032D01*
X141623969Y-57091765D01*
X141596281Y-57119225D01*
X141567898Y-57145552D01*
X141538819Y-57170745D01*
X141509045Y-57194805D01*
X141478575Y-57217731D01*
X141447410Y-57239524D01*
X141415549Y-57260184D01*
X141382993Y-57279710D01*
X141349741Y-57298103D01*
X141315794Y-57315362D01*
X141292776Y-57326238D01*
X141258412Y-57341428D01*
X141224563Y-57355124D01*
X141191230Y-57367325D01*
X141158412Y-57378033D01*
X141126108Y-57387246D01*
X141094321Y-57394966D01*
X141063048Y-57401191D01*
X141032291Y-57405922D01*
X141002048Y-57409160D01*
X140972321Y-57410903D01*
X140952790Y-57411235D01*
X140909500Y-57410462D01*
X140867009Y-57408144D01*
X140825316Y-57404280D01*
X140784422Y-57398870D01*
X140744327Y-57391915D01*
X140705030Y-57383414D01*
X140666532Y-57373368D01*
X140628832Y-57361776D01*
X140591931Y-57348638D01*
X140555828Y-57333955D01*
X140532203Y-57323307D01*
X140497846Y-57305990D01*
X140464841Y-57287012D01*
X140433188Y-57266371D01*
X140402888Y-57244070D01*
X140373940Y-57220106D01*
X140346345Y-57194482D01*
X140320102Y-57167195D01*
X140295212Y-57138248D01*
X140271673Y-57107638D01*
X140249488Y-57075367D01*
X140235448Y-57052931D01*
X140215937Y-57017708D01*
X140198345Y-56980734D01*
X140182673Y-56942008D01*
X140168919Y-56901530D01*
X140157084Y-56859301D01*
X140150261Y-56830175D01*
X140144290Y-56800271D01*
X140139173Y-56769588D01*
X140134908Y-56738126D01*
X140131496Y-56705886D01*
X140128937Y-56672868D01*
X140127231Y-56639071D01*
X140126378Y-56604495D01*
X140126272Y-56586915D01*
X140126790Y-56552503D01*
X140128344Y-56518691D01*
X140130934Y-56485481D01*
X140134561Y-56452872D01*
X140139223Y-56420863D01*
X140144922Y-56389456D01*
X140151657Y-56358650D01*
X140159428Y-56328445D01*
X140168235Y-56298841D01*
X140178078Y-56269838D01*
X140188957Y-56241437D01*
X140200873Y-56213636D01*
X140213824Y-56186436D01*
X140227812Y-56159837D01*
X140242836Y-56133840D01*
X140258896Y-56108443D01*
X140275900Y-56083625D01*
X140293574Y-56059545D01*
X140311918Y-56036204D01*
X140330932Y-56013601D01*
X140350616Y-55991736D01*
X140370969Y-55970610D01*
X140402754Y-55940306D01*
X140436047Y-55911663D01*
X140459079Y-55893491D01*
X140482781Y-55876057D01*
X140507153Y-55859362D01*
X140532195Y-55843405D01*
X140557906Y-55828186D01*
X140584287Y-55813706D01*
X140611338Y-55799965D01*
X140638858Y-55787010D01*
X140666648Y-55774892D01*
X140694706Y-55763609D01*
X140723033Y-55753162D01*
X140751630Y-55743550D01*
X140780495Y-55734775D01*
X140809630Y-55726835D01*
X140839033Y-55719731D01*
X140868706Y-55713463D01*
X140898648Y-55708030D01*
X140928859Y-55703433D01*
X140959338Y-55699672D01*
X140990087Y-55696747D01*
X141021105Y-55694658D01*
X141052392Y-55693404D01*
X141083948Y-55692986D01*
X141122700Y-55693650D01*
X141161194Y-55695640D01*
X141199430Y-55698956D01*
X141237409Y-55703599D01*
X141275130Y-55709569D01*
X141312594Y-55716866D01*
X141349800Y-55725489D01*
X141386748Y-55735439D01*
X141423439Y-55746715D01*
X141459872Y-55759318D01*
X141484018Y-55768457D01*
X141519809Y-55783349D01*
X141554918Y-55799721D01*
X141589344Y-55817575D01*
X141623087Y-55836910D01*
X141656148Y-55857726D01*
X141688526Y-55880024D01*
X141720222Y-55903803D01*
X141751235Y-55929062D01*
X141781565Y-55955803D01*
X141811213Y-55984026D01*
X141830598Y-56003663D01*
X141858883Y-56034419D01*
X141886034Y-56066784D01*
X141912051Y-56100759D01*
X141936936Y-56136344D01*
X141952895Y-56160962D01*
X141968351Y-56186296D01*
X141983304Y-56212345D01*
X141997752Y-56239110D01*
X142011697Y-56266590D01*
X142025138Y-56294785D01*
X142038075Y-56323697D01*
X142050509Y-56353324D01*
X142062438Y-56383666D01*
X142073864Y-56414724D01*
X142084778Y-56446437D01*
X142094987Y-56478929D01*
X142104493Y-56512200D01*
X142113294Y-56546249D01*
X142121391Y-56581076D01*
X142128785Y-56616682D01*
X142135474Y-56653067D01*
X142141458Y-56690230D01*
X142146739Y-56728171D01*
X142151316Y-56766892D01*
X142155189Y-56806390D01*
X142158357Y-56846667D01*
X142160821Y-56887723D01*
X142162582Y-56929557D01*
X142163638Y-56972170D01*
X142163990Y-57015561D01*
X142163615Y-57061792D01*
X142162490Y-57107244D01*
X142160615Y-57151918D01*
X142157991Y-57195813D01*
X142154616Y-57238929D01*
X142150492Y-57281267D01*
X142145617Y-57322826D01*
X142139993Y-57363607D01*
X142133619Y-57403610D01*
X142126495Y-57442834D01*
X142118621Y-57481279D01*
X142109997Y-57518946D01*
X142100623Y-57555834D01*
X142090499Y-57591944D01*
X142079626Y-57627275D01*
X142068002Y-57661828D01*
X142055835Y-57695614D01*
X142043147Y-57728644D01*
X142029938Y-57760918D01*
X142016208Y-57792437D01*
X142001957Y-57823200D01*
X141987185Y-57853207D01*
X141971892Y-57882459D01*
X141956078Y-57910956D01*
X141939743Y-57938696D01*
X141922888Y-57965681D01*
X141905511Y-57991911D01*
X141887614Y-58017384D01*
X141869195Y-58042103D01*
X141850256Y-58066065D01*
X141830796Y-58089272D01*
X141810815Y-58111723D01*
X141790398Y-58133359D01*
X141769633Y-58154302D01*
X141737830Y-58184417D01*
X141705242Y-58212974D01*
X141671867Y-58239973D01*
X141637708Y-58265413D01*
X141602762Y-58289295D01*
X141567031Y-58311618D01*
X141530514Y-58332383D01*
X141493211Y-58351589D01*
X141455123Y-58369237D01*
X141442252Y-58374773D01*
X141403511Y-58390225D01*
X141364500Y-58404156D01*
X141325218Y-58416568D01*
X141285666Y-58427461D01*
X141245843Y-58436833D01*
X141205750Y-58444685D01*
X141165386Y-58451018D01*
X141124752Y-58455831D01*
X141083847Y-58459124D01*
X141042672Y-58460897D01*
X141015072Y-58461235D01*
G37*
G36*
X143753278Y-58461235D02*
G01*
X143714657Y-58460571D01*
X143676281Y-58458581D01*
X143638150Y-58455265D01*
X143600264Y-58450622D01*
X143562622Y-58444652D01*
X143525225Y-58437355D01*
X143488073Y-58428732D01*
X143451165Y-58418782D01*
X143414502Y-58407506D01*
X143378084Y-58394903D01*
X143353941Y-58385764D01*
X143318150Y-58370872D01*
X143283041Y-58354500D01*
X143248615Y-58336646D01*
X143214871Y-58317311D01*
X143181811Y-58296495D01*
X143149432Y-58274197D01*
X143117737Y-58250419D01*
X143086724Y-58225159D01*
X143056394Y-58198418D01*
X143026746Y-58170196D01*
X143007360Y-58150558D01*
X142979069Y-58119678D01*
X142951899Y-58087214D01*
X142925849Y-58053166D01*
X142900920Y-58017533D01*
X142884923Y-57992898D01*
X142869424Y-57967559D01*
X142854423Y-57941516D01*
X142839920Y-57914768D01*
X142825916Y-57887317D01*
X142812409Y-57859161D01*
X142799400Y-57830301D01*
X142786889Y-57800737D01*
X142774877Y-57770469D01*
X142763362Y-57739497D01*
X142752537Y-57707784D01*
X142742410Y-57675292D01*
X142732982Y-57642021D01*
X142724252Y-57607972D01*
X142716221Y-57573145D01*
X142708888Y-57537539D01*
X142702253Y-57501154D01*
X142696317Y-57463991D01*
X142691079Y-57426050D01*
X142686540Y-57387330D01*
X142682699Y-57347831D01*
X142679556Y-57307554D01*
X142677112Y-57266498D01*
X142675366Y-57224664D01*
X142674318Y-57182051D01*
X142673969Y-57138660D01*
X142674341Y-57092429D01*
X142675457Y-57046977D01*
X142677318Y-57002304D01*
X142679922Y-56958409D01*
X142683271Y-56915292D01*
X142687364Y-56872954D01*
X142692201Y-56831395D01*
X142697783Y-56790614D01*
X142704108Y-56750611D01*
X142711178Y-56711387D01*
X142718992Y-56672942D01*
X142727550Y-56635275D01*
X142736852Y-56598387D01*
X142746898Y-56562277D01*
X142757689Y-56526946D01*
X142769224Y-56492393D01*
X142781480Y-56458610D01*
X142794251Y-56425589D01*
X142807537Y-56393329D01*
X142821339Y-56361830D01*
X142835656Y-56331093D01*
X142850488Y-56301117D01*
X142865835Y-56271902D01*
X142881697Y-56243449D01*
X142898075Y-56215757D01*
X142914968Y-56188826D01*
X142932376Y-56162657D01*
X142950299Y-56137249D01*
X142968738Y-56112602D01*
X142987691Y-56088717D01*
X143007160Y-56065593D01*
X143027144Y-56043231D01*
X143047557Y-56021509D01*
X143068314Y-56000492D01*
X143100093Y-55970286D01*
X143132646Y-55941665D01*
X143165970Y-55914627D01*
X143200068Y-55889174D01*
X143234938Y-55865306D01*
X143270582Y-55843021D01*
X143306998Y-55822321D01*
X143344187Y-55803205D01*
X143382148Y-55785673D01*
X143394974Y-55780181D01*
X143433846Y-55764598D01*
X143472975Y-55750548D01*
X143512362Y-55738031D01*
X143552007Y-55727047D01*
X143591909Y-55717595D01*
X143632069Y-55709676D01*
X143672486Y-55703290D01*
X143713161Y-55698436D01*
X143754094Y-55695115D01*
X143795284Y-55693327D01*
X143822887Y-55692986D01*
X143858064Y-55693358D01*
X143892703Y-55694475D01*
X143926803Y-55696335D01*
X143960365Y-55698940D01*
X143993390Y-55702289D01*
X144025876Y-55706382D01*
X144057824Y-55711219D01*
X144089234Y-55716800D01*
X144120106Y-55723126D01*
X144150440Y-55730195D01*
X144180236Y-55738009D01*
X144209493Y-55746567D01*
X144238213Y-55755869D01*
X144266394Y-55765916D01*
X144294037Y-55776706D01*
X144321143Y-55788241D01*
X144360714Y-55806410D01*
X144398921Y-55825198D01*
X144435762Y-55844604D01*
X144471238Y-55864628D01*
X144505348Y-55885270D01*
X144538093Y-55906531D01*
X144569473Y-55928410D01*
X144599488Y-55950907D01*
X144628137Y-55974022D01*
X144655421Y-55997756D01*
X144672852Y-56013921D01*
X144346788Y-56383217D01*
X144319840Y-56359253D01*
X144296737Y-56340854D01*
X144272259Y-56323143D01*
X144246407Y-56306118D01*
X144219182Y-56289781D01*
X144190582Y-56274130D01*
X144160609Y-56259167D01*
X144137228Y-56248395D01*
X144105423Y-56234999D01*
X144073389Y-56223390D01*
X144041126Y-56213567D01*
X144008634Y-56205530D01*
X143975913Y-56199279D01*
X143942963Y-56194814D01*
X143909784Y-56192135D01*
X143876376Y-56191242D01*
X143844977Y-56192027D01*
X143813977Y-56194384D01*
X143783376Y-56198313D01*
X143753175Y-56203813D01*
X143723373Y-56210884D01*
X143693970Y-56219526D01*
X143664966Y-56229740D01*
X143636362Y-56241525D01*
X143608157Y-56254882D01*
X143580351Y-56269810D01*
X143562036Y-56280635D01*
X143535192Y-56298426D01*
X143509340Y-56318279D01*
X143484479Y-56340192D01*
X143460610Y-56364166D01*
X143437733Y-56390200D01*
X143415848Y-56418296D01*
X143394954Y-56448452D01*
X143375053Y-56480670D01*
X143356143Y-56514947D01*
X143338225Y-56551286D01*
X143326830Y-56576657D01*
X143310855Y-56616707D01*
X143301077Y-56644860D01*
X143291998Y-56674175D01*
X143283618Y-56704652D01*
X143275935Y-56736291D01*
X143268952Y-56769092D01*
X143262666Y-56803055D01*
X143257079Y-56838180D01*
X143252190Y-56874467D01*
X143248000Y-56911917D01*
X143244508Y-56950528D01*
X143241715Y-56990302D01*
X143239620Y-57031237D01*
X143238223Y-57073335D01*
X143237524Y-57116594D01*
X143237437Y-57138660D01*
X143237721Y-57179498D01*
X143238571Y-57219214D01*
X143239987Y-57257808D01*
X143241971Y-57295280D01*
X143244521Y-57331631D01*
X143247638Y-57366859D01*
X143251322Y-57400965D01*
X143255572Y-57433949D01*
X143260389Y-57465812D01*
X143265773Y-57496552D01*
X143271724Y-57526170D01*
X143281712Y-57568494D01*
X143292976Y-57608293D01*
X143305514Y-57645568D01*
X143309977Y-57657432D01*
X143323965Y-57691499D01*
X143338725Y-57723635D01*
X143354259Y-57753838D01*
X143370565Y-57782110D01*
X143387644Y-57808449D01*
X143405495Y-57832857D01*
X143430500Y-57862395D01*
X143456878Y-57888499D01*
X143484630Y-57911167D01*
X143499021Y-57921214D01*
X143528296Y-57939074D01*
X143557869Y-57954553D01*
X143587739Y-57967651D01*
X143617906Y-57978367D01*
X143648372Y-57986701D01*
X143679135Y-57992655D01*
X143710196Y-57996227D01*
X143741554Y-57997418D01*
X143774821Y-57996326D01*
X143807300Y-57993053D01*
X143838992Y-57987597D01*
X143869896Y-57979958D01*
X143900014Y-57970137D01*
X143929345Y-57958134D01*
X143940857Y-57952721D01*
X143968849Y-57937501D01*
X143995124Y-57919777D01*
X144019682Y-57899548D01*
X144042523Y-57876815D01*
X144063646Y-57851577D01*
X144083052Y-57823835D01*
X144090333Y-57812037D01*
X144106798Y-57780753D01*
X144120472Y-57746893D01*
X144129403Y-57717950D01*
X144136547Y-57687359D01*
X144141905Y-57655119D01*
X144145477Y-57621230D01*
X144147263Y-57585693D01*
X144147486Y-57567306D01*
X144146526Y-57529960D01*
X144143648Y-57494586D01*
X144138850Y-57461181D01*
X144132133Y-57429748D01*
X144123497Y-57400285D01*
X144112942Y-57372792D01*
X144095883Y-57339201D01*
X144075412Y-57309114D01*
X144051530Y-57282529D01*
X144038309Y-57270551D01*
X144010111Y-57248912D01*
X143979737Y-57230159D01*
X143947188Y-57214291D01*
X143912463Y-57201308D01*
X143875564Y-57191210D01*
X143846461Y-57185530D01*
X143816135Y-57181473D01*
X143784586Y-57179039D01*
X143751813Y-57178227D01*
X143721759Y-57179246D01*
X143691317Y-57182303D01*
X143660485Y-57187398D01*
X143629264Y-57194530D01*
X143597653Y-57203701D01*
X143565654Y-57214909D01*
X143533265Y-57228156D01*
X143500487Y-57243440D01*
X143467743Y-57261025D01*
X143435091Y-57281542D01*
X143410662Y-57298853D01*
X143386284Y-57317812D01*
X143361958Y-57338420D01*
X143337684Y-57360677D01*
X143313461Y-57384582D01*
X143289289Y-57410136D01*
X143265169Y-57437338D01*
X143241101Y-57466189D01*
X143213990Y-57062456D01*
X143241802Y-57034354D01*
X143270284Y-57007476D01*
X143299436Y-56981821D01*
X143329257Y-56957390D01*
X143359748Y-56934182D01*
X143390909Y-56912198D01*
X143422740Y-56891438D01*
X143455241Y-56871901D01*
X143488411Y-56853588D01*
X143522251Y-56836498D01*
X143545183Y-56825785D01*
X143579547Y-56810857D01*
X143613396Y-56797397D01*
X143646729Y-56785406D01*
X143679547Y-56774883D01*
X143711850Y-56765828D01*
X143743638Y-56758242D01*
X143774911Y-56752124D01*
X143805668Y-56747474D01*
X143835910Y-56744293D01*
X143865637Y-56742580D01*
X143885169Y-56742254D01*
X143928328Y-56743026D01*
X143970701Y-56745345D01*
X144012288Y-56749209D01*
X144053090Y-56754618D01*
X144093106Y-56761574D01*
X144132336Y-56770074D01*
X144170781Y-56780121D01*
X144208440Y-56791713D01*
X144245313Y-56804850D01*
X144281401Y-56819534D01*
X144305023Y-56830181D01*
X144339505Y-56847505D01*
X144372608Y-56866503D01*
X144404334Y-56887175D01*
X144434681Y-56909522D01*
X144463651Y-56933543D01*
X144491242Y-56959239D01*
X144517455Y-56986609D01*
X144542289Y-57015653D01*
X144565746Y-57046372D01*
X144587824Y-57078765D01*
X144601778Y-57101291D01*
X144621289Y-57136513D01*
X144638881Y-57173487D01*
X144654553Y-57212213D01*
X144668307Y-57252691D01*
X144680142Y-57294920D01*
X144686965Y-57324046D01*
X144692936Y-57353950D01*
X144698054Y-57384633D01*
X144702318Y-57416095D01*
X144705730Y-57448335D01*
X144708289Y-57481353D01*
X144709995Y-57515151D01*
X144710848Y-57549726D01*
X144710954Y-57567306D01*
X144710436Y-57601718D01*
X144708882Y-57635530D01*
X144706292Y-57668740D01*
X144702665Y-57701349D01*
X144698003Y-57733358D01*
X144692304Y-57764765D01*
X144685569Y-57795571D01*
X144677798Y-57825776D01*
X144668991Y-57855380D01*
X144659148Y-57884383D01*
X144648269Y-57912785D01*
X144636353Y-57940585D01*
X144623402Y-57967785D01*
X144609414Y-57994384D01*
X144594390Y-58020381D01*
X144578330Y-58045778D01*
X144561420Y-58070421D01*
X144543846Y-58094344D01*
X144525608Y-58117545D01*
X144506706Y-58140025D01*
X144477108Y-58172392D01*
X144446016Y-58203137D01*
X144413429Y-58232259D01*
X144379349Y-58259757D01*
X144343774Y-58285633D01*
X144319228Y-58301982D01*
X144294017Y-58317610D01*
X144268143Y-58332516D01*
X144241604Y-58346702D01*
X144228086Y-58353524D01*
X144200815Y-58366567D01*
X144173223Y-58378768D01*
X144145311Y-58390129D01*
X144117078Y-58400647D01*
X144088524Y-58410324D01*
X144059650Y-58419160D01*
X144030456Y-58427154D01*
X144000940Y-58434307D01*
X143971105Y-58440618D01*
X143940948Y-58446088D01*
X143910471Y-58450716D01*
X143879674Y-58454503D01*
X143848556Y-58457448D01*
X143817117Y-58459552D01*
X143785358Y-58460814D01*
X143753278Y-58461235D01*
G37*
G36*
X148557198Y-55673761D02*
G01*
X148605647Y-55675435D01*
X148653300Y-55678226D01*
X148700157Y-55682133D01*
X148746219Y-55687156D01*
X148791485Y-55693295D01*
X148835955Y-55700551D01*
X148879630Y-55708923D01*
X148922509Y-55718411D01*
X148964592Y-55729016D01*
X149005880Y-55740737D01*
X149046372Y-55753574D01*
X149086068Y-55767527D01*
X149124968Y-55782597D01*
X149163073Y-55798783D01*
X149200382Y-55816085D01*
X149236867Y-55834560D01*
X149272315Y-55854267D01*
X149306728Y-55875204D01*
X149340104Y-55897372D01*
X149372444Y-55920770D01*
X149403749Y-55945400D01*
X149434017Y-55971260D01*
X149463248Y-55998351D01*
X149491444Y-56026673D01*
X149518604Y-56056225D01*
X149544727Y-56087008D01*
X149569815Y-56119022D01*
X149593866Y-56152267D01*
X149616881Y-56186742D01*
X149638860Y-56222449D01*
X149659803Y-56259386D01*
X149679678Y-56297602D01*
X149698271Y-56337146D01*
X149715582Y-56378019D01*
X149731610Y-56420219D01*
X149746356Y-56463748D01*
X149759820Y-56508605D01*
X149772002Y-56554790D01*
X149782901Y-56602302D01*
X149792518Y-56651143D01*
X149800853Y-56701312D01*
X149807906Y-56752809D01*
X149813676Y-56805635D01*
X149818164Y-56859788D01*
X149821369Y-56915269D01*
X149823293Y-56972078D01*
X149823934Y-57030216D01*
X149823301Y-57088376D01*
X149821404Y-57145254D01*
X149818241Y-57200850D01*
X149813813Y-57255164D01*
X149808120Y-57308195D01*
X149801162Y-57359944D01*
X149792939Y-57410410D01*
X149783451Y-57459595D01*
X149772697Y-57507497D01*
X149760679Y-57554117D01*
X149747395Y-57599454D01*
X149732847Y-57643510D01*
X149717033Y-57686283D01*
X149699954Y-57727773D01*
X149681610Y-57767982D01*
X149662001Y-57806908D01*
X149641261Y-57844578D01*
X149619526Y-57881017D01*
X149596794Y-57916225D01*
X149573066Y-57950202D01*
X149548342Y-57982949D01*
X149522622Y-58014465D01*
X149495906Y-58044750D01*
X149468194Y-58073805D01*
X149439486Y-58101628D01*
X149409782Y-58128221D01*
X149379082Y-58153583D01*
X149347386Y-58177715D01*
X149314693Y-58200615D01*
X149281005Y-58222285D01*
X149246321Y-58242724D01*
X149210640Y-58261933D01*
X149174198Y-58279945D01*
X149137047Y-58296794D01*
X149099185Y-58312482D01*
X149060614Y-58327008D01*
X149021333Y-58340372D01*
X148981342Y-58352573D01*
X148940641Y-58363613D01*
X148899231Y-58373491D01*
X148857110Y-58382206D01*
X148814280Y-58389759D01*
X148770740Y-58396151D01*
X148726490Y-58401380D01*
X148681530Y-58405447D01*
X148635860Y-58408352D01*
X148589481Y-58410095D01*
X148542392Y-58410677D01*
X147751045Y-58410677D01*
X147751045Y-56171458D01*
X148370201Y-56171458D01*
X148370201Y-57912421D01*
X148473515Y-57912421D01*
X148513299Y-57911674D01*
X148552143Y-57909433D01*
X148590047Y-57905698D01*
X148627011Y-57900468D01*
X148663034Y-57893745D01*
X148698117Y-57885528D01*
X148732259Y-57875816D01*
X148765462Y-57864611D01*
X148797724Y-57851911D01*
X148829046Y-57837717D01*
X148849405Y-57827425D01*
X148878999Y-57810547D01*
X148907331Y-57791790D01*
X148934400Y-57771152D01*
X148960207Y-57748633D01*
X148984752Y-57724234D01*
X149008035Y-57697955D01*
X149030056Y-57669795D01*
X149050814Y-57639754D01*
X149070310Y-57607834D01*
X149088544Y-57574032D01*
X149099998Y-57550453D01*
X149115974Y-57513136D01*
X149130378Y-57473448D01*
X149143211Y-57431391D01*
X149150893Y-57402036D01*
X149157877Y-57371627D01*
X149164162Y-57340166D01*
X149169749Y-57307651D01*
X149174638Y-57274083D01*
X149178828Y-57239461D01*
X149182320Y-57203787D01*
X149185114Y-57167059D01*
X149187209Y-57129277D01*
X149188605Y-57090443D01*
X149189304Y-57050555D01*
X149189391Y-57030216D01*
X149189042Y-56989824D01*
X149187994Y-56950532D01*
X149186248Y-56912338D01*
X149183804Y-56875244D01*
X149180661Y-56839249D01*
X149176820Y-56804352D01*
X149172281Y-56770555D01*
X149167043Y-56737857D01*
X149161107Y-56706258D01*
X149154472Y-56675758D01*
X149147139Y-56646358D01*
X149139108Y-56618056D01*
X149125751Y-56577664D01*
X149110823Y-56539746D01*
X149099998Y-56515840D01*
X149082606Y-56481760D01*
X149063951Y-56449586D01*
X149044035Y-56419318D01*
X149022856Y-56390956D01*
X149000414Y-56364501D01*
X148976711Y-56339951D01*
X148951745Y-56317308D01*
X148925517Y-56296571D01*
X148898027Y-56277741D01*
X148869275Y-56260817D01*
X148849405Y-56250593D01*
X148818710Y-56236451D01*
X148787074Y-56223699D01*
X148754499Y-56212339D01*
X148720983Y-56202370D01*
X148686527Y-56193792D01*
X148651130Y-56186605D01*
X148614794Y-56180809D01*
X148577517Y-56176404D01*
X148539300Y-56173390D01*
X148500143Y-56171767D01*
X148473515Y-56171458D01*
X148370201Y-56171458D01*
X147751045Y-56171458D01*
X147751045Y-55673203D01*
X148507954Y-55673203D01*
X148557198Y-55673761D01*
G37*
G36*
X151468910Y-58461235D02*
G01*
X151436959Y-58460888D01*
X151405219Y-58459849D01*
X151373692Y-58458118D01*
X151342377Y-58455694D01*
X151311273Y-58452577D01*
X151280381Y-58448767D01*
X151249701Y-58444265D01*
X151219232Y-58439070D01*
X151188976Y-58433182D01*
X151158931Y-58426602D01*
X151129098Y-58419329D01*
X151099477Y-58411363D01*
X151070068Y-58402705D01*
X151040870Y-58393354D01*
X151011884Y-58383311D01*
X150983111Y-58372575D01*
X150954740Y-58361060D01*
X150926782Y-58348864D01*
X150899236Y-58335987D01*
X150872102Y-58322429D01*
X150845381Y-58308189D01*
X150819071Y-58293268D01*
X150793174Y-58277666D01*
X150767688Y-58261383D01*
X150742615Y-58244419D01*
X150717954Y-58226773D01*
X150693706Y-58208446D01*
X150669869Y-58189438D01*
X150646445Y-58169749D01*
X150623432Y-58149379D01*
X150600832Y-58128327D01*
X150578644Y-58106594D01*
X150556955Y-58084094D01*
X150535848Y-58060925D01*
X150515326Y-58037085D01*
X150495388Y-58012576D01*
X150476034Y-57987397D01*
X150457263Y-57961548D01*
X150439077Y-57935030D01*
X150421474Y-57907842D01*
X150404455Y-57879984D01*
X150388021Y-57851456D01*
X150372170Y-57822258D01*
X150356902Y-57792391D01*
X150342219Y-57761854D01*
X150328120Y-57730647D01*
X150314605Y-57698771D01*
X150301673Y-57666224D01*
X150289517Y-57632937D01*
X150278146Y-57599019D01*
X150267558Y-57564472D01*
X150257755Y-57529296D01*
X150248736Y-57493489D01*
X150240502Y-57457053D01*
X150233051Y-57419987D01*
X150226385Y-57382292D01*
X150220503Y-57343967D01*
X150215406Y-57305012D01*
X150211092Y-57265428D01*
X150207563Y-57225213D01*
X150204818Y-57184369D01*
X150202858Y-57142896D01*
X150201681Y-57100793D01*
X150201289Y-57058060D01*
X150201970Y-57001794D01*
X150204014Y-56946570D01*
X150207420Y-56892389D01*
X150212189Y-56839249D01*
X150218319Y-56787150D01*
X150225813Y-56736094D01*
X150234668Y-56686080D01*
X150244887Y-56637107D01*
X150256467Y-56589176D01*
X150269410Y-56542287D01*
X150283715Y-56496440D01*
X150299383Y-56451635D01*
X150316413Y-56407872D01*
X150334806Y-56365150D01*
X150354561Y-56323471D01*
X150375679Y-56282833D01*
X150398038Y-56243220D01*
X150421337Y-56204797D01*
X150445574Y-56167565D01*
X150470750Y-56131524D01*
X150496865Y-56096674D01*
X150523919Y-56063014D01*
X150551911Y-56030545D01*
X150580843Y-55999267D01*
X150610713Y-55969179D01*
X150641522Y-55940282D01*
X150673269Y-55912576D01*
X150705956Y-55886060D01*
X150739581Y-55860735D01*
X150774146Y-55836601D01*
X150809649Y-55813658D01*
X150846090Y-55791905D01*
X150883279Y-55771408D01*
X150921023Y-55752234D01*
X150959323Y-55734383D01*
X150998177Y-55717853D01*
X151037587Y-55702646D01*
X151077552Y-55688762D01*
X151118073Y-55676199D01*
X151159149Y-55664959D01*
X151200780Y-55655042D01*
X151242966Y-55646447D01*
X151285707Y-55639174D01*
X151329004Y-55633223D01*
X151372856Y-55628595D01*
X151417264Y-55625289D01*
X151462226Y-55623306D01*
X151507744Y-55622644D01*
X151540064Y-55623059D01*
X151571995Y-55624304D01*
X151603537Y-55626380D01*
X151634689Y-55629285D01*
X151665453Y-55633020D01*
X151695826Y-55637585D01*
X151725811Y-55642980D01*
X151755406Y-55649206D01*
X151784613Y-55656261D01*
X151813429Y-55664147D01*
X151841857Y-55672862D01*
X151869895Y-55682408D01*
X151897544Y-55692783D01*
X151924804Y-55703989D01*
X151951675Y-55716024D01*
X151978156Y-55728890D01*
X152016929Y-55749075D01*
X152054388Y-55769788D01*
X152090534Y-55791030D01*
X152125366Y-55812799D01*
X152158884Y-55835096D01*
X152191088Y-55857922D01*
X152221979Y-55881275D01*
X152251555Y-55905157D01*
X152279818Y-55929567D01*
X152306768Y-55954505D01*
X152324004Y-55971423D01*
X151984018Y-56354640D01*
X151959712Y-56332017D01*
X151934788Y-56310677D01*
X151909245Y-56290618D01*
X151883084Y-56271842D01*
X151856305Y-56254348D01*
X151828908Y-56238136D01*
X151800893Y-56223207D01*
X151772259Y-56209560D01*
X151742962Y-56197367D01*
X151712588Y-56186800D01*
X151681138Y-56177858D01*
X151648611Y-56170542D01*
X151615009Y-56164852D01*
X151580330Y-56160788D01*
X151544575Y-56158349D01*
X151507744Y-56157536D01*
X151471710Y-56158470D01*
X151436423Y-56161271D01*
X151401884Y-56165940D01*
X151368091Y-56172477D01*
X151335045Y-56180881D01*
X151302746Y-56191153D01*
X151271195Y-56203292D01*
X151240390Y-56217299D01*
X151210332Y-56233174D01*
X151181022Y-56250916D01*
X151161896Y-56263782D01*
X151134018Y-56284371D01*
X151107259Y-56306569D01*
X151081622Y-56330378D01*
X151057105Y-56355797D01*
X151033708Y-56382825D01*
X151011432Y-56411464D01*
X150990277Y-56441713D01*
X150970242Y-56473571D01*
X150951328Y-56507040D01*
X150933534Y-56542119D01*
X150922294Y-56566399D01*
X150906711Y-56603901D01*
X150892662Y-56642769D01*
X150880144Y-56683001D01*
X150869160Y-56724599D01*
X150859708Y-56767563D01*
X150854258Y-56796964D01*
X150849490Y-56826971D01*
X150845403Y-56857585D01*
X150841997Y-56888806D01*
X150839272Y-56920634D01*
X150837228Y-56953069D01*
X150835866Y-56986111D01*
X150835185Y-57019759D01*
X150835099Y-57036810D01*
X150835440Y-57071661D01*
X150836462Y-57105870D01*
X150838165Y-57139438D01*
X150840549Y-57172365D01*
X150843615Y-57204651D01*
X150847361Y-57236296D01*
X150851789Y-57267299D01*
X150856898Y-57297662D01*
X150862688Y-57327383D01*
X150869160Y-57356463D01*
X150876313Y-57384902D01*
X150888319Y-57426359D01*
X150901858Y-57466373D01*
X150916930Y-57504944D01*
X150922294Y-57517480D01*
X150939392Y-57554025D01*
X150957714Y-57588921D01*
X150977259Y-57622169D01*
X150998028Y-57653768D01*
X151020021Y-57683718D01*
X151043237Y-57712020D01*
X151067677Y-57738673D01*
X151093340Y-57763677D01*
X151120227Y-57787033D01*
X151148338Y-57808740D01*
X151167758Y-57822295D01*
X151197859Y-57841021D01*
X151228809Y-57857904D01*
X151260610Y-57872946D01*
X151293261Y-57886146D01*
X151326762Y-57897504D01*
X151361113Y-57907020D01*
X151396314Y-57914694D01*
X151432365Y-57920527D01*
X151469266Y-57924518D01*
X151507017Y-57926666D01*
X151532657Y-57927076D01*
X151569763Y-57926022D01*
X151605976Y-57922862D01*
X151641295Y-57917596D01*
X151675722Y-57910223D01*
X151709256Y-57900743D01*
X151741897Y-57889157D01*
X151773645Y-57875464D01*
X151804499Y-57859665D01*
X151834736Y-57842022D01*
X151864262Y-57823166D01*
X151893079Y-57803096D01*
X151921186Y-57781812D01*
X151948583Y-57759315D01*
X151975271Y-57735605D01*
X152001248Y-57710680D01*
X152026516Y-57684543D01*
X152366502Y-58059700D01*
X152345559Y-58084054D01*
X152324130Y-58107659D01*
X152302214Y-58130514D01*
X152279811Y-58152619D01*
X152256922Y-58173974D01*
X152233546Y-58194579D01*
X152209684Y-58214434D01*
X152185335Y-58233539D01*
X152160499Y-58251895D01*
X152135177Y-58269500D01*
X152109369Y-58286356D01*
X152083074Y-58302462D01*
X152056292Y-58317817D01*
X152029023Y-58332423D01*
X152001268Y-58346279D01*
X151973027Y-58359386D01*
X151944353Y-58371719D01*
X151915302Y-58383256D01*
X151885872Y-58393998D01*
X151856065Y-58403945D01*
X151825880Y-58413095D01*
X151795317Y-58421450D01*
X151764377Y-58429009D01*
X151733058Y-58435772D01*
X151701362Y-58441740D01*
X151669288Y-58446912D01*
X151636836Y-58451289D01*
X151604006Y-58454869D01*
X151570799Y-58457654D01*
X151537214Y-58459643D01*
X151503251Y-58460837D01*
X151468910Y-58461235D01*
G37*
G36*
X152784890Y-57242707D02*
G01*
X152784890Y-56806734D01*
X154717095Y-56806734D01*
X154717095Y-57242707D01*
X152784890Y-57242707D01*
G37*
G36*
X156110164Y-55673761D02*
G01*
X156158613Y-55675435D01*
X156206266Y-55678226D01*
X156253123Y-55682133D01*
X156299185Y-55687156D01*
X156344451Y-55693295D01*
X156388921Y-55700551D01*
X156432596Y-55708923D01*
X156475475Y-55718411D01*
X156517558Y-55729016D01*
X156558846Y-55740737D01*
X156599337Y-55753574D01*
X156639034Y-55767527D01*
X156677934Y-55782597D01*
X156716039Y-55798783D01*
X156753348Y-55816085D01*
X156789833Y-55834560D01*
X156825281Y-55854267D01*
X156859694Y-55875204D01*
X156893070Y-55897372D01*
X156925410Y-55920770D01*
X156956714Y-55945400D01*
X156986982Y-55971260D01*
X157016214Y-55998351D01*
X157044410Y-56026673D01*
X157071570Y-56056225D01*
X157097693Y-56087008D01*
X157122780Y-56119022D01*
X157146832Y-56152267D01*
X157169847Y-56186742D01*
X157191826Y-56222449D01*
X157212769Y-56259386D01*
X157232644Y-56297602D01*
X157251237Y-56337146D01*
X157268548Y-56378019D01*
X157284576Y-56420219D01*
X157299322Y-56463748D01*
X157312786Y-56508605D01*
X157324968Y-56554790D01*
X157335867Y-56602302D01*
X157345484Y-56651143D01*
X157353819Y-56701312D01*
X157360871Y-56752809D01*
X157366642Y-56805635D01*
X157371130Y-56859788D01*
X157374335Y-56915269D01*
X157376259Y-56972078D01*
X157376900Y-57030216D01*
X157376267Y-57088376D01*
X157374370Y-57145254D01*
X157371207Y-57200850D01*
X157366779Y-57255164D01*
X157361086Y-57308195D01*
X157354128Y-57359944D01*
X157345905Y-57410410D01*
X157336417Y-57459595D01*
X157325663Y-57507497D01*
X157313645Y-57554117D01*
X157300361Y-57599454D01*
X157285813Y-57643510D01*
X157269999Y-57686283D01*
X157252920Y-57727773D01*
X157234576Y-57767982D01*
X157214967Y-57806908D01*
X157194227Y-57844578D01*
X157172491Y-57881017D01*
X157149760Y-57916225D01*
X157126032Y-57950202D01*
X157101308Y-57982949D01*
X157075588Y-58014465D01*
X157048872Y-58044750D01*
X157021160Y-58073805D01*
X156992452Y-58101628D01*
X156962748Y-58128221D01*
X156932048Y-58153583D01*
X156900352Y-58177715D01*
X156867659Y-58200615D01*
X156833971Y-58222285D01*
X156799286Y-58242724D01*
X156763606Y-58261933D01*
X156727164Y-58279945D01*
X156690013Y-58296794D01*
X156652151Y-58312482D01*
X156613580Y-58327008D01*
X156574299Y-58340372D01*
X156534308Y-58352573D01*
X156493607Y-58363613D01*
X156452196Y-58373491D01*
X156410076Y-58382206D01*
X156367246Y-58389759D01*
X156323706Y-58396151D01*
X156279456Y-58401380D01*
X156234496Y-58405447D01*
X156188826Y-58408352D01*
X156142447Y-58410095D01*
X156095358Y-58410677D01*
X155304011Y-58410677D01*
X155304011Y-56171458D01*
X155923166Y-56171458D01*
X155923166Y-57912421D01*
X156026481Y-57912421D01*
X156066265Y-57911674D01*
X156105109Y-57909433D01*
X156143013Y-57905698D01*
X156179976Y-57900468D01*
X156216000Y-57893745D01*
X156251082Y-57885528D01*
X156285225Y-57875816D01*
X156318428Y-57864611D01*
X156350690Y-57851911D01*
X156382012Y-57837717D01*
X156402371Y-57827425D01*
X156431965Y-57810547D01*
X156460296Y-57791790D01*
X156487366Y-57771152D01*
X156513173Y-57748633D01*
X156537718Y-57724234D01*
X156561001Y-57697955D01*
X156583021Y-57669795D01*
X156603780Y-57639754D01*
X156623276Y-57607834D01*
X156641509Y-57574032D01*
X156652964Y-57550453D01*
X156668940Y-57513136D01*
X156683344Y-57473448D01*
X156696176Y-57431391D01*
X156703859Y-57402036D01*
X156710842Y-57371627D01*
X156717128Y-57340166D01*
X156722715Y-57307651D01*
X156727604Y-57274083D01*
X156731794Y-57239461D01*
X156735286Y-57203787D01*
X156738079Y-57167059D01*
X156740174Y-57129277D01*
X156741571Y-57090443D01*
X156742270Y-57050555D01*
X156742357Y-57030216D01*
X156742008Y-56989824D01*
X156740960Y-56950532D01*
X156739214Y-56912338D01*
X156736770Y-56875244D01*
X156733627Y-56839249D01*
X156729786Y-56804352D01*
X156725247Y-56770555D01*
X156720009Y-56737857D01*
X156714072Y-56706258D01*
X156707438Y-56675758D01*
X156700105Y-56646358D01*
X156692073Y-56618056D01*
X156678717Y-56577664D01*
X156663789Y-56539746D01*
X156652964Y-56515840D01*
X156635572Y-56481760D01*
X156616917Y-56449586D01*
X156597000Y-56419318D01*
X156575821Y-56390956D01*
X156553380Y-56364501D01*
X156529677Y-56339951D01*
X156504711Y-56317308D01*
X156478483Y-56296571D01*
X156450993Y-56277741D01*
X156422240Y-56260817D01*
X156402371Y-56250593D01*
X156371676Y-56236451D01*
X156340040Y-56223699D01*
X156307465Y-56212339D01*
X156273949Y-56202370D01*
X156239493Y-56193792D01*
X156204096Y-56186605D01*
X156167760Y-56180809D01*
X156130483Y-56176404D01*
X156092266Y-56173390D01*
X156053108Y-56171767D01*
X156026481Y-56171458D01*
X155923166Y-56171458D01*
X155304011Y-56171458D01*
X155304011Y-55673203D01*
X156060919Y-55673203D01*
X156110164Y-55673761D01*
G37*
G36*
X159021875Y-58461235D02*
G01*
X158989924Y-58460888D01*
X158958185Y-58459849D01*
X158926658Y-58458118D01*
X158895342Y-58455694D01*
X158864239Y-58452577D01*
X158833347Y-58448767D01*
X158802666Y-58444265D01*
X158772198Y-58439070D01*
X158741942Y-58433182D01*
X158711897Y-58426602D01*
X158682064Y-58419329D01*
X158652443Y-58411363D01*
X158623034Y-58402705D01*
X158593836Y-58393354D01*
X158564850Y-58383311D01*
X158536076Y-58372575D01*
X158507706Y-58361060D01*
X158479748Y-58348864D01*
X158452202Y-58335987D01*
X158425068Y-58322429D01*
X158398346Y-58308189D01*
X158372037Y-58293268D01*
X158346139Y-58277666D01*
X158320654Y-58261383D01*
X158295581Y-58244419D01*
X158270920Y-58226773D01*
X158246672Y-58208446D01*
X158222835Y-58189438D01*
X158199411Y-58169749D01*
X158176398Y-58149379D01*
X158153798Y-58128327D01*
X158131610Y-58106594D01*
X158109920Y-58084094D01*
X158088814Y-58060925D01*
X158068292Y-58037085D01*
X158048354Y-58012576D01*
X158029000Y-57987397D01*
X158010229Y-57961548D01*
X157992043Y-57935030D01*
X157974440Y-57907842D01*
X157957421Y-57879984D01*
X157940986Y-57851456D01*
X157925135Y-57822258D01*
X157909868Y-57792391D01*
X157895185Y-57761854D01*
X157881086Y-57730647D01*
X157867570Y-57698771D01*
X157854639Y-57666224D01*
X157842483Y-57632937D01*
X157831111Y-57599019D01*
X157820524Y-57564472D01*
X157810721Y-57529296D01*
X157801702Y-57493489D01*
X157793467Y-57457053D01*
X157786017Y-57419987D01*
X157779351Y-57382292D01*
X157773469Y-57343967D01*
X157768372Y-57305012D01*
X157764058Y-57265428D01*
X157760529Y-57225213D01*
X157757784Y-57184369D01*
X157755824Y-57142896D01*
X157754647Y-57100793D01*
X157754255Y-57058060D01*
X157754936Y-57001794D01*
X157756980Y-56946570D01*
X157760386Y-56892389D01*
X157765154Y-56839249D01*
X157771285Y-56787150D01*
X157778779Y-56736094D01*
X157787634Y-56686080D01*
X157797852Y-56637107D01*
X157809433Y-56589176D01*
X157822376Y-56542287D01*
X157836681Y-56496440D01*
X157852349Y-56451635D01*
X157869379Y-56407872D01*
X157887772Y-56365150D01*
X157907527Y-56323471D01*
X157928644Y-56282833D01*
X157951004Y-56243220D01*
X157974303Y-56204797D01*
X157998540Y-56167565D01*
X158023716Y-56131524D01*
X158049831Y-56096674D01*
X158076885Y-56063014D01*
X158104877Y-56030545D01*
X158133808Y-55999267D01*
X158163679Y-55969179D01*
X158194487Y-55940282D01*
X158226235Y-55912576D01*
X158258922Y-55886060D01*
X158292547Y-55860735D01*
X158327111Y-55836601D01*
X158362614Y-55813658D01*
X158399056Y-55791905D01*
X158436245Y-55771408D01*
X158473989Y-55752234D01*
X158512288Y-55734383D01*
X158551143Y-55717853D01*
X158590553Y-55702646D01*
X158630518Y-55688762D01*
X158671039Y-55676199D01*
X158712114Y-55664959D01*
X158753745Y-55655042D01*
X158795932Y-55646447D01*
X158838673Y-55639174D01*
X158881970Y-55633223D01*
X158925822Y-55628595D01*
X158970229Y-55625289D01*
X159015192Y-55623306D01*
X159060710Y-55622644D01*
X159093030Y-55623059D01*
X159124961Y-55624304D01*
X159156503Y-55626380D01*
X159187655Y-55629285D01*
X159218418Y-55633020D01*
X159248792Y-55637585D01*
X159278777Y-55642980D01*
X159308372Y-55649206D01*
X159337578Y-55656261D01*
X159366395Y-55664147D01*
X159394823Y-55672862D01*
X159422861Y-55682408D01*
X159450510Y-55692783D01*
X159477770Y-55703989D01*
X159504640Y-55716024D01*
X159531122Y-55728890D01*
X159569895Y-55749075D01*
X159607354Y-55769788D01*
X159643500Y-55791030D01*
X159678331Y-55812799D01*
X159711850Y-55835096D01*
X159744054Y-55857922D01*
X159774944Y-55881275D01*
X159804521Y-55905157D01*
X159832784Y-55929567D01*
X159859733Y-55954505D01*
X159876970Y-55971423D01*
X159536984Y-56354640D01*
X159512678Y-56332017D01*
X159487753Y-56310677D01*
X159462211Y-56290618D01*
X159436050Y-56271842D01*
X159409271Y-56254348D01*
X159381874Y-56238136D01*
X159353859Y-56223207D01*
X159325225Y-56209560D01*
X159295927Y-56197367D01*
X159265553Y-56186800D01*
X159234103Y-56177858D01*
X159201577Y-56170542D01*
X159167975Y-56164852D01*
X159133296Y-56160788D01*
X159097541Y-56158349D01*
X159060710Y-56157536D01*
X159024676Y-56158470D01*
X158989389Y-56161271D01*
X158954849Y-56165940D01*
X158921057Y-56172477D01*
X158888011Y-56180881D01*
X158855712Y-56191153D01*
X158824160Y-56203292D01*
X158793356Y-56217299D01*
X158763298Y-56233174D01*
X158733988Y-56250916D01*
X158714862Y-56263782D01*
X158686983Y-56284371D01*
X158660225Y-56306569D01*
X158634588Y-56330378D01*
X158610071Y-56355797D01*
X158586674Y-56382825D01*
X158564398Y-56411464D01*
X158543243Y-56441713D01*
X158523208Y-56473571D01*
X158504294Y-56507040D01*
X158486500Y-56542119D01*
X158475260Y-56566399D01*
X158459677Y-56603901D01*
X158445627Y-56642769D01*
X158433110Y-56683001D01*
X158422126Y-56724599D01*
X158412674Y-56767563D01*
X158407224Y-56796964D01*
X158402456Y-56826971D01*
X158398368Y-56857585D01*
X158394962Y-56888806D01*
X158392238Y-56920634D01*
X158390194Y-56953069D01*
X158388832Y-56986111D01*
X158388150Y-57019759D01*
X158388065Y-57036810D01*
X158388406Y-57071661D01*
X158389428Y-57105870D01*
X158391131Y-57139438D01*
X158393515Y-57172365D01*
X158396580Y-57204651D01*
X158400327Y-57236296D01*
X158404755Y-57267299D01*
X158409864Y-57297662D01*
X158415654Y-57327383D01*
X158422126Y-57356463D01*
X158429278Y-57384902D01*
X158441285Y-57426359D01*
X158454824Y-57466373D01*
X158469895Y-57504944D01*
X158475260Y-57517480D01*
X158492358Y-57554025D01*
X158510680Y-57588921D01*
X158530225Y-57622169D01*
X158550994Y-57653768D01*
X158572987Y-57683718D01*
X158596203Y-57712020D01*
X158620643Y-57738673D01*
X158646306Y-57763677D01*
X158673193Y-57787033D01*
X158701304Y-57808740D01*
X158720724Y-57822295D01*
X158750825Y-57841021D01*
X158781775Y-57857904D01*
X158813576Y-57872946D01*
X158846227Y-57886146D01*
X158879728Y-57897504D01*
X158914078Y-57907020D01*
X158949279Y-57914694D01*
X158985331Y-57920527D01*
X159022232Y-57924518D01*
X159059983Y-57926666D01*
X159085623Y-57927076D01*
X159122729Y-57926022D01*
X159158941Y-57922862D01*
X159194261Y-57917596D01*
X159228688Y-57910223D01*
X159262222Y-57900743D01*
X159294863Y-57889157D01*
X159326610Y-57875464D01*
X159357465Y-57859665D01*
X159387702Y-57842022D01*
X159417228Y-57823166D01*
X159446045Y-57803096D01*
X159474152Y-57781812D01*
X159501549Y-57759315D01*
X159528237Y-57735605D01*
X159554214Y-57710680D01*
X159579482Y-57684543D01*
X159919468Y-58059700D01*
X159898525Y-58084054D01*
X159877096Y-58107659D01*
X159855180Y-58130514D01*
X159832777Y-58152619D01*
X159809888Y-58173974D01*
X159786512Y-58194579D01*
X159762650Y-58214434D01*
X159738301Y-58233539D01*
X159713465Y-58251895D01*
X159688143Y-58269500D01*
X159662335Y-58286356D01*
X159636039Y-58302462D01*
X159609258Y-58317817D01*
X159581989Y-58332423D01*
X159554234Y-58346279D01*
X159525993Y-58359386D01*
X159497319Y-58371719D01*
X159468267Y-58383256D01*
X159438838Y-58393998D01*
X159409031Y-58403945D01*
X159378846Y-58413095D01*
X159348283Y-58421450D01*
X159317342Y-58429009D01*
X159286024Y-58435772D01*
X159254328Y-58441740D01*
X159222254Y-58446912D01*
X159189802Y-58451289D01*
X159156972Y-58454869D01*
X159123765Y-58457654D01*
X159090179Y-58459643D01*
X159056216Y-58460837D01*
X159021875Y-58461235D01*
G37*
G36*
X127994704Y-48238237D02*
G01*
X125291662Y-48238237D01*
X125291662Y-48029219D01*
X125402773Y-48029219D01*
X125421871Y-48087998D01*
X125471871Y-48124325D01*
X125533675Y-48124325D01*
X125583675Y-48087998D01*
X125602773Y-48029219D01*
X125878963Y-48029219D01*
X125898061Y-48087998D01*
X125948061Y-48124325D01*
X126009865Y-48124325D01*
X126059865Y-48087998D01*
X126078963Y-48029219D01*
X126078963Y-47405775D01*
X126463567Y-48078833D01*
X126467744Y-48082628D01*
X126469489Y-48087998D01*
X126490287Y-48103109D01*
X126509311Y-48120392D01*
X126514922Y-48121007D01*
X126519489Y-48124325D01*
X126545192Y-48124325D01*
X126570746Y-48127126D01*
X126575648Y-48124325D01*
X126581293Y-48124325D01*
X126602088Y-48109216D01*
X126624407Y-48096463D01*
X126626726Y-48091316D01*
X126631293Y-48087998D01*
X126639235Y-48063552D01*
X126649796Y-48040115D01*
X126648646Y-48034587D01*
X126650391Y-48029219D01*
X126650391Y-47679168D01*
X126931476Y-47679168D01*
X126967803Y-47729168D01*
X127026582Y-47748266D01*
X127307534Y-47748266D01*
X127307534Y-48029219D01*
X127326632Y-48087998D01*
X127376632Y-48124325D01*
X127438436Y-48124325D01*
X127488436Y-48087998D01*
X127507534Y-48029219D01*
X127507534Y-47748266D01*
X127788487Y-47748266D01*
X127847266Y-47729168D01*
X127883593Y-47679168D01*
X127883593Y-47617364D01*
X127847266Y-47567364D01*
X127788487Y-47548266D01*
X127507534Y-47548266D01*
X127507534Y-47267314D01*
X127488436Y-47208535D01*
X127438436Y-47172208D01*
X127376632Y-47172208D01*
X127326632Y-47208535D01*
X127307534Y-47267314D01*
X127307534Y-47548266D01*
X127026582Y-47548266D01*
X126967803Y-47567364D01*
X126931476Y-47617364D01*
X126931476Y-47679168D01*
X126650391Y-47679168D01*
X126650391Y-47029219D01*
X126631293Y-46970440D01*
X126581293Y-46934113D01*
X126519489Y-46934113D01*
X126469489Y-46970440D01*
X126450391Y-47029219D01*
X126450391Y-47652662D01*
X126065787Y-46979605D01*
X126061609Y-46975809D01*
X126059865Y-46970440D01*
X126039066Y-46955328D01*
X126020043Y-46938046D01*
X126014431Y-46937430D01*
X126009865Y-46934113D01*
X125984162Y-46934113D01*
X125958608Y-46931312D01*
X125953706Y-46934113D01*
X125948061Y-46934113D01*
X125927261Y-46949224D01*
X125904947Y-46961976D01*
X125902628Y-46967121D01*
X125898061Y-46970440D01*
X125890117Y-46994886D01*
X125879558Y-47018323D01*
X125880707Y-47023850D01*
X125878963Y-47029219D01*
X125878963Y-48029219D01*
X125602773Y-48029219D01*
X125602773Y-47029219D01*
X125583675Y-46970440D01*
X125533675Y-46934113D01*
X125471871Y-46934113D01*
X125421871Y-46970440D01*
X125402773Y-47029219D01*
X125402773Y-48029219D01*
X125291662Y-48029219D01*
X125291662Y-46820201D01*
X127994704Y-46820201D01*
X127994704Y-48238237D01*
G37*
G36*
X162717821Y-66536023D02*
G01*
X162782000Y-66600202D01*
X162819915Y-66751861D01*
X162819915Y-67060575D01*
X162781999Y-67212235D01*
X162717823Y-67276413D01*
X162658213Y-67306219D01*
X162514951Y-67306219D01*
X162455341Y-67276414D01*
X162391164Y-67212236D01*
X162353249Y-67060575D01*
X162353249Y-66751862D01*
X162391164Y-66600202D01*
X162455343Y-66536023D01*
X162514951Y-66506219D01*
X162658213Y-66506219D01*
X162717821Y-66536023D01*
G37*
G36*
X165030894Y-67617330D02*
G01*
X160856556Y-67617330D01*
X160856556Y-67056168D01*
X160967667Y-67056168D01*
X161003994Y-67106168D01*
X161062773Y-67125266D01*
X161824678Y-67125266D01*
X161883457Y-67106168D01*
X161907638Y-67072885D01*
X162153249Y-67072885D01*
X162157095Y-67084722D01*
X162156235Y-67097139D01*
X162203854Y-67287614D01*
X162218027Y-67310264D01*
X162230157Y-67334071D01*
X162325395Y-67429311D01*
X162339838Y-67436670D01*
X162351385Y-67448043D01*
X162446622Y-67495662D01*
X162469420Y-67499095D01*
X162491344Y-67506219D01*
X162681820Y-67506219D01*
X162703743Y-67499095D01*
X162726541Y-67495662D01*
X162821779Y-67448043D01*
X162833327Y-67436668D01*
X162847769Y-67429310D01*
X162943007Y-67334071D01*
X162955138Y-67310262D01*
X162969310Y-67287615D01*
X162987278Y-67215742D01*
X163248487Y-67215742D01*
X163255610Y-67237665D01*
X163259044Y-67260463D01*
X163306663Y-67355701D01*
X163318036Y-67367248D01*
X163325395Y-67381690D01*
X163373013Y-67429310D01*
X163387456Y-67436669D01*
X163399004Y-67448043D01*
X163494241Y-67495662D01*
X163517039Y-67499095D01*
X163538963Y-67506219D01*
X163729439Y-67506219D01*
X163751362Y-67499095D01*
X163774160Y-67495662D01*
X163869398Y-67448043D01*
X163880946Y-67436668D01*
X163895388Y-67429310D01*
X163943007Y-67381690D01*
X163950364Y-67367249D01*
X163961739Y-67355701D01*
X164009358Y-67260464D01*
X164012791Y-67237665D01*
X164019915Y-67215742D01*
X164019915Y-66437121D01*
X164158143Y-66437121D01*
X164194470Y-66487121D01*
X164253249Y-66506219D01*
X164438963Y-66506219D01*
X164438963Y-67406219D01*
X164458061Y-67464998D01*
X164508061Y-67501325D01*
X164569865Y-67501325D01*
X164619865Y-67464998D01*
X164638963Y-67406219D01*
X164638963Y-66506219D01*
X164824677Y-66506219D01*
X164883456Y-66487121D01*
X164919783Y-66437121D01*
X164919783Y-66375317D01*
X164883456Y-66325317D01*
X164824677Y-66306219D01*
X164253249Y-66306219D01*
X164194470Y-66325317D01*
X164158143Y-66375317D01*
X164158143Y-66437121D01*
X164019915Y-66437121D01*
X164019915Y-66406219D01*
X164000817Y-66347440D01*
X163950817Y-66311113D01*
X163889013Y-66311113D01*
X163839013Y-66347440D01*
X163819915Y-66406219D01*
X163819915Y-67192135D01*
X163790110Y-67251743D01*
X163765441Y-67276413D01*
X163705832Y-67306219D01*
X163562570Y-67306219D01*
X163502960Y-67276414D01*
X163478293Y-67251746D01*
X163448487Y-67192134D01*
X163448487Y-66406219D01*
X163429389Y-66347440D01*
X163379389Y-66311113D01*
X163317585Y-66311113D01*
X163267585Y-66347440D01*
X163248487Y-66406219D01*
X163248487Y-67215742D01*
X162987278Y-67215742D01*
X163016929Y-67097139D01*
X163016068Y-67084722D01*
X163019915Y-67072885D01*
X163019915Y-66739552D01*
X163016068Y-66727714D01*
X163016929Y-66715298D01*
X162969310Y-66524822D01*
X162955137Y-66502173D01*
X162943007Y-66478365D01*
X162847769Y-66383127D01*
X162833326Y-66375768D01*
X162821779Y-66364395D01*
X162726541Y-66316776D01*
X162703743Y-66313342D01*
X162681820Y-66306219D01*
X162491344Y-66306219D01*
X162469420Y-66313342D01*
X162446622Y-66316776D01*
X162351385Y-66364395D01*
X162339837Y-66375768D01*
X162325395Y-66383127D01*
X162230157Y-66478365D01*
X162218025Y-66502174D01*
X162203854Y-66524823D01*
X162156235Y-66715298D01*
X162157095Y-66727714D01*
X162153249Y-66739552D01*
X162153249Y-67072885D01*
X161907638Y-67072885D01*
X161919784Y-67056168D01*
X161919784Y-66994364D01*
X161883457Y-66944364D01*
X161824678Y-66925266D01*
X161062773Y-66925266D01*
X161003994Y-66944364D01*
X160967667Y-66994364D01*
X160967667Y-67056168D01*
X160856556Y-67056168D01*
X160856556Y-66195108D01*
X165030894Y-66195108D01*
X165030894Y-67617330D01*
G37*
G36*
X127999597Y-67615237D02*
G01*
X125296556Y-67615237D01*
X125296556Y-67406219D01*
X126640868Y-67406219D01*
X126659966Y-67464998D01*
X126709966Y-67501325D01*
X126771770Y-67501325D01*
X126821770Y-67464998D01*
X126840868Y-67406219D01*
X127117058Y-67406219D01*
X127136156Y-67464998D01*
X127186156Y-67501325D01*
X127247960Y-67501325D01*
X127297960Y-67464998D01*
X127317058Y-67406219D01*
X127317058Y-66782775D01*
X127701662Y-67455833D01*
X127705839Y-67459628D01*
X127707584Y-67464998D01*
X127728382Y-67480109D01*
X127747406Y-67497392D01*
X127753017Y-67498007D01*
X127757584Y-67501325D01*
X127783287Y-67501325D01*
X127808841Y-67504126D01*
X127813743Y-67501325D01*
X127819388Y-67501325D01*
X127840183Y-67486216D01*
X127862502Y-67473463D01*
X127864821Y-67468316D01*
X127869388Y-67464998D01*
X127877330Y-67440552D01*
X127887891Y-67417115D01*
X127886741Y-67411587D01*
X127888486Y-67406219D01*
X127888486Y-66406219D01*
X127869388Y-66347440D01*
X127819388Y-66311113D01*
X127757584Y-66311113D01*
X127707584Y-66347440D01*
X127688486Y-66406219D01*
X127688486Y-67029662D01*
X127303882Y-66356605D01*
X127299704Y-66352809D01*
X127297960Y-66347440D01*
X127277161Y-66332328D01*
X127258138Y-66315046D01*
X127252526Y-66314430D01*
X127247960Y-66311113D01*
X127222257Y-66311113D01*
X127196703Y-66308312D01*
X127191801Y-66311113D01*
X127186156Y-66311113D01*
X127165356Y-66326224D01*
X127143042Y-66338976D01*
X127140723Y-66344121D01*
X127136156Y-66347440D01*
X127128212Y-66371886D01*
X127117653Y-66395323D01*
X127118802Y-66400850D01*
X127117058Y-66406219D01*
X127117058Y-67406219D01*
X126840868Y-67406219D01*
X126840868Y-66406219D01*
X126821770Y-66347440D01*
X126771770Y-66311113D01*
X126709966Y-66311113D01*
X126659966Y-66347440D01*
X126640868Y-66406219D01*
X126640868Y-67406219D01*
X125296556Y-67406219D01*
X125296556Y-67056168D01*
X125407667Y-67056168D01*
X125443994Y-67106168D01*
X125502773Y-67125266D01*
X126264678Y-67125266D01*
X126323457Y-67106168D01*
X126359784Y-67056168D01*
X126359784Y-66994364D01*
X126323457Y-66944364D01*
X126264678Y-66925266D01*
X125502773Y-66925266D01*
X125443994Y-66944364D01*
X125407667Y-66994364D01*
X125407667Y-67056168D01*
X125296556Y-67056168D01*
X125296556Y-66197201D01*
X127999597Y-66197201D01*
X127999597Y-67615237D01*
G37*
D12*
%TO.C,TP2*%
X115546000Y-58369200D02*
G75*
G02*
X115546000Y-58369200I-1500000J0D01*
G01*
%TO.C,R1*%
X118805936Y-82613666D02*
X120260064Y-82613666D01*
X118805936Y-84433666D02*
X120260064Y-84433666D01*
%TO.C,TP3*%
X173966000Y-59944000D02*
G75*
G02*
X173966000Y-59944000I-1500000J0D01*
G01*
%TO.C,Q4*%
X113362500Y-75739000D02*
X112712500Y-75739000D01*
X113362500Y-75739000D02*
X114012500Y-75739000D01*
X113362500Y-78859000D02*
X112712500Y-78859000D01*
X113362500Y-78859000D02*
X115037500Y-78859000D01*
%TO.C,R4*%
X118805936Y-72369000D02*
X120260064Y-72369000D01*
X118805936Y-74189000D02*
X120260064Y-74189000D01*
%TO.C,J1*%
X182972000Y-72508000D02*
X184242000Y-72508000D01*
X184242000Y-72508000D02*
X182972000Y-72508000D01*
X184242000Y-72508000D02*
X184242000Y-73778000D01*
X184242000Y-73778000D02*
X182972000Y-72508000D01*
D13*
X184750000Y-72000000D02*
X166850000Y-72000000D01*
X166850000Y-87200000D01*
X184750000Y-87200000D01*
X184750000Y-72000000D01*
D12*
%TO.C,J6*%
X182972000Y-88508000D02*
X184242000Y-88508000D01*
X184242000Y-88508000D02*
X182972000Y-88508000D01*
X184242000Y-88508000D02*
X184242000Y-89778000D01*
X184242000Y-89778000D02*
X182972000Y-88508000D01*
D13*
X184750000Y-88000000D02*
X166850000Y-88000000D01*
X166850000Y-103200000D01*
X184750000Y-103200000D01*
X184750000Y-88000000D01*
D12*
%TO.C,Q3*%
X113362500Y-85689000D02*
X112712500Y-85689000D01*
X113362500Y-85689000D02*
X114012500Y-85689000D01*
X113362500Y-88809000D02*
X112712500Y-88809000D01*
X113362500Y-88809000D02*
X115037500Y-88809000D01*
D14*
%TO.C,kibuzzard-638A219C*%
G36*
X166152653Y-130496890D02*
G01*
X165891668Y-130371160D01*
X166152653Y-130243525D01*
X166152653Y-130496890D01*
G37*
G36*
X166165988Y-128128975D02*
G01*
X166165988Y-128369005D01*
X166058356Y-128308045D01*
X166007873Y-128185173D01*
X166034543Y-128089923D01*
X166105028Y-128056585D01*
X166165988Y-128128975D01*
G37*
G36*
X166343153Y-125857263D02*
G01*
X166394588Y-125974420D01*
X166344106Y-126094435D01*
X166230758Y-126143965D01*
X166114553Y-126097293D01*
X166061213Y-125975373D01*
X166114553Y-125855358D01*
X166229806Y-125810590D01*
X166343153Y-125857263D01*
G37*
G36*
X168694486Y-125129088D02*
G01*
X168752669Y-125175540D01*
X168799590Y-125299412D01*
X168753607Y-125421407D01*
X168696363Y-125466452D01*
X168616597Y-125481466D01*
X168536597Y-125466921D01*
X168478649Y-125423284D01*
X168431728Y-125297535D01*
X168476772Y-125171787D01*
X168533547Y-125128150D01*
X168613782Y-125113604D01*
X168694486Y-125129088D01*
G37*
G36*
X168694486Y-129092990D02*
G01*
X168752669Y-129139442D01*
X168799590Y-129263314D01*
X168753607Y-129385309D01*
X168696363Y-129430353D01*
X168616597Y-129445368D01*
X168536597Y-129430822D01*
X168478649Y-129387186D01*
X168431728Y-129261437D01*
X168476772Y-129135688D01*
X168533547Y-129092051D01*
X168613782Y-129077506D01*
X168694486Y-129092990D01*
G37*
G36*
X169369917Y-125297535D02*
G01*
X169369917Y-126479949D01*
X169369917Y-126962299D01*
X169369917Y-127801250D01*
X169369917Y-129261437D01*
X169369917Y-130334055D01*
X169369917Y-131070295D01*
X169369917Y-131308420D01*
X169367343Y-131413244D01*
X169359630Y-131517816D01*
X169346794Y-131621883D01*
X169328868Y-131725195D01*
X169305894Y-131827503D01*
X169277928Y-131928560D01*
X169245036Y-132028124D01*
X169207299Y-132125953D01*
X169164807Y-132221813D01*
X169117663Y-132315473D01*
X169065980Y-132406707D01*
X169009882Y-132495294D01*
X168949506Y-132581023D01*
X168884995Y-132663685D01*
X168816506Y-132743083D01*
X168744204Y-132819024D01*
X168668263Y-132891327D01*
X168588865Y-132959815D01*
X168506202Y-133024326D01*
X168420474Y-133084703D01*
X168331886Y-133140800D01*
X168240653Y-133192483D01*
X168146993Y-133239628D01*
X168051133Y-133282119D01*
X167953303Y-133319857D01*
X167853740Y-133352748D01*
X167752683Y-133380714D01*
X167650375Y-133403688D01*
X167547063Y-133421614D01*
X167442996Y-133434450D01*
X167338424Y-133442164D01*
X167233600Y-133444737D01*
X167128776Y-133442164D01*
X167024204Y-133434450D01*
X166920137Y-133421614D01*
X166816825Y-133403688D01*
X166714517Y-133380714D01*
X166613460Y-133352748D01*
X166513897Y-133319857D01*
X166416067Y-133282119D01*
X166320207Y-133239628D01*
X166226547Y-133192483D01*
X166135314Y-133140800D01*
X166046726Y-133084703D01*
X165960998Y-133024326D01*
X165878335Y-132959815D01*
X165798937Y-132891327D01*
X165722996Y-132819024D01*
X165650694Y-132743083D01*
X165582205Y-132663685D01*
X165517694Y-132581023D01*
X165457318Y-132495294D01*
X165401220Y-132406707D01*
X165349537Y-132315473D01*
X165302393Y-132221813D01*
X165259901Y-132125953D01*
X165222164Y-132028124D01*
X165189272Y-131928560D01*
X165161306Y-131827503D01*
X165138332Y-131725195D01*
X165120406Y-131621883D01*
X165107570Y-131517816D01*
X165099857Y-131413244D01*
X165097283Y-131308420D01*
X165097283Y-131070295D01*
X165097283Y-130369255D01*
X165335408Y-130369255D01*
X165362078Y-130459743D01*
X165432563Y-130523560D01*
X166497458Y-131037910D01*
X166594613Y-131070295D01*
X166659383Y-131042673D01*
X166716533Y-130959805D01*
X166748918Y-130857888D01*
X166730821Y-130796928D01*
X166695578Y-130762638D01*
X166640333Y-130733110D01*
X166434593Y-130634050D01*
X166434593Y-130334994D01*
X167724156Y-130334994D01*
X167735417Y-130458657D01*
X167769201Y-130581903D01*
X167825506Y-130704732D01*
X167884392Y-130796933D01*
X167955947Y-130878341D01*
X168044159Y-130947550D01*
X168153016Y-131003151D01*
X168278999Y-131039750D01*
X168418590Y-131051949D01*
X168559588Y-131039515D01*
X168689794Y-131002213D01*
X168803343Y-130945673D01*
X168894371Y-130875526D01*
X168968037Y-130793648D01*
X169029504Y-130701917D01*
X169076894Y-130606667D01*
X169108331Y-130514232D01*
X169125927Y-130423675D01*
X169131792Y-130334055D01*
X169124284Y-130243263D01*
X169101762Y-130149186D01*
X169052964Y-130022498D01*
X169013550Y-129957747D01*
X168966629Y-129898627D01*
X168900940Y-129873289D01*
X168795836Y-129914580D01*
X168717008Y-129979800D01*
X168690733Y-130040328D01*
X168728270Y-130130417D01*
X168752669Y-130164200D01*
X168782698Y-130238336D01*
X168797713Y-130348131D01*
X168777068Y-130469657D01*
X168715132Y-130586491D01*
X168596890Y-130682210D01*
X168516890Y-130710363D01*
X168427036Y-130719747D01*
X168337182Y-130710363D01*
X168257181Y-130682210D01*
X168140816Y-130588368D01*
X168077473Y-130469188D01*
X168056358Y-130348131D01*
X168072311Y-130229890D01*
X168120171Y-130137925D01*
X168161462Y-130042205D01*
X168136124Y-129980269D01*
X168060112Y-129910826D01*
X167955947Y-129871412D01*
X167935640Y-129882528D01*
X167866797Y-129920210D01*
X167833013Y-129972762D01*
X167806738Y-130017806D01*
X167751371Y-130155755D01*
X167730960Y-130246078D01*
X167724156Y-130334994D01*
X166434593Y-130334994D01*
X166434593Y-130106365D01*
X166640333Y-130007305D01*
X166697483Y-129977778D01*
X166733678Y-129943488D01*
X166750823Y-129882528D01*
X166718438Y-129780610D01*
X166659860Y-129697743D01*
X166594613Y-129670120D01*
X166497458Y-129702505D01*
X165434468Y-130216855D01*
X165360173Y-130279720D01*
X165335408Y-130369255D01*
X165097283Y-130369255D01*
X165097283Y-129025278D01*
X165718313Y-129025278D01*
X165750698Y-129129100D01*
X165802133Y-129206253D01*
X165834518Y-129233875D01*
X165771653Y-129254830D01*
X165738792Y-129304837D01*
X165727838Y-129397705D01*
X165740697Y-129495813D01*
X165779273Y-129546295D01*
X165827851Y-129562488D01*
X165893573Y-129565345D01*
X166562228Y-129565345D01*
X166617473Y-129565345D01*
X166699388Y-129531055D01*
X166731773Y-129399610D01*
X166719391Y-129302455D01*
X166688411Y-129259560D01*
X168101403Y-129259560D01*
X168117669Y-129389688D01*
X168121700Y-129399610D01*
X168166467Y-129509806D01*
X168247797Y-129619915D01*
X168354151Y-129707501D01*
X168478023Y-129760053D01*
X168619412Y-129777570D01*
X168761818Y-129757628D01*
X168888740Y-129697804D01*
X168993374Y-129608888D01*
X169068917Y-129501673D01*
X169114666Y-129383432D01*
X169129915Y-129261437D01*
X169115604Y-129139676D01*
X169072671Y-129022139D01*
X168999474Y-128915393D01*
X168894371Y-128826008D01*
X168764633Y-128765480D01*
X168617536Y-128745304D01*
X168476251Y-128762613D01*
X168352692Y-128814539D01*
X168246858Y-128901082D01*
X168166050Y-129010148D01*
X168117564Y-129129640D01*
X168101403Y-129259560D01*
X166688411Y-129259560D01*
X166682243Y-129251020D01*
X166631761Y-129232923D01*
X166566038Y-129230065D01*
X166165988Y-129230065D01*
X166078358Y-129185298D01*
X166042163Y-129089095D01*
X166057403Y-129006228D01*
X166072643Y-128940505D01*
X166000253Y-128835730D01*
X165866903Y-128799535D01*
X165778321Y-128823348D01*
X165739268Y-128883355D01*
X165723076Y-128950030D01*
X165718313Y-129025278D01*
X165097283Y-129025278D01*
X165097283Y-128180410D01*
X165706883Y-128180410D01*
X165722864Y-128326778D01*
X165770807Y-128456000D01*
X165850711Y-128568078D01*
X165957285Y-128654332D01*
X166085237Y-128706085D01*
X166234568Y-128723335D01*
X166357547Y-128710000D01*
X166472482Y-128669995D01*
X166579373Y-128603320D01*
X166651525Y-128530216D01*
X166707961Y-128432823D01*
X166744394Y-128315427D01*
X166756538Y-128182315D01*
X166750037Y-128073393D01*
X168123925Y-128073393D01*
X168157327Y-128182315D01*
X168167092Y-128214156D01*
X168206506Y-128264831D01*
X168244043Y-128298614D01*
X168167092Y-128317383D01*
X168134717Y-128365711D01*
X168123925Y-128458146D01*
X168135655Y-128553396D01*
X168170846Y-128602663D01*
X168218706Y-128620494D01*
X168281580Y-128623309D01*
X168945984Y-128623309D01*
X169010735Y-128620494D01*
X169060472Y-128604540D01*
X169098478Y-128555273D01*
X169111146Y-128460023D01*
X169098478Y-128363835D01*
X169060472Y-128315506D01*
X169012612Y-128297676D01*
X168947861Y-128294861D01*
X168615659Y-128294861D01*
X168497417Y-128248878D01*
X168452373Y-128128760D01*
X168495541Y-128010518D01*
X168615659Y-127966412D01*
X168945984Y-127966412D01*
X169041703Y-127955151D01*
X169093786Y-127906353D01*
X169111146Y-127801250D01*
X169098478Y-127704592D01*
X169060472Y-127654856D01*
X169012612Y-127638902D01*
X168947861Y-127636087D01*
X168617536Y-127636087D01*
X168486886Y-127649955D01*
X168370209Y-127691558D01*
X168267504Y-127760897D01*
X168187738Y-127851090D01*
X168139878Y-127955255D01*
X168157328Y-128182315D01*
X168123925Y-128073393D01*
X166750037Y-128073393D01*
X166745942Y-128004793D01*
X166714152Y-127877992D01*
X166661169Y-127801911D01*
X166586993Y-127776550D01*
X166499363Y-127801315D01*
X166413638Y-127906090D01*
X166434593Y-127982290D01*
X166442213Y-128003245D01*
X166459358Y-128078017D01*
X166465073Y-128176600D01*
X166428878Y-128302330D01*
X166339343Y-128365195D01*
X166339343Y-127913710D01*
X166283146Y-127785123D01*
X166211708Y-127741546D01*
X166109791Y-127727020D01*
X165997158Y-127743213D01*
X165893573Y-127791790D01*
X165811896Y-127862513D01*
X165753556Y-127950858D01*
X165718551Y-128056823D01*
X165706883Y-128180410D01*
X165097283Y-128180410D01*
X165097283Y-127435555D01*
X165727838Y-127435555D01*
X165739745Y-127532234D01*
X165775463Y-127582240D01*
X165824041Y-127600338D01*
X165887858Y-127603195D01*
X166562228Y-127603195D01*
X166627951Y-127600338D01*
X166678433Y-127584145D01*
X166717010Y-127534139D01*
X166729868Y-127437460D01*
X166717010Y-127339829D01*
X166678433Y-127290775D01*
X166629856Y-127272678D01*
X166564133Y-127269820D01*
X166226948Y-127269820D01*
X166106933Y-127223148D01*
X166096388Y-127195028D01*
X167786092Y-127195028D01*
X167797823Y-127291216D01*
X167833013Y-127339545D01*
X167878058Y-127357375D01*
X167941871Y-127360191D01*
X168135186Y-127360191D01*
X168127678Y-127422127D01*
X168152077Y-127497200D01*
X168201814Y-127523476D01*
X168313486Y-127532861D01*
X168422343Y-127505646D01*
X168454250Y-127437141D01*
X168448619Y-127360191D01*
X168726393Y-127360191D01*
X168852976Y-127348929D01*
X168952449Y-127315146D01*
X169024811Y-127258841D01*
X169073818Y-127180847D01*
X169103222Y-127082000D01*
X169113023Y-126962299D01*
X169110208Y-126899425D01*
X169094255Y-126849688D01*
X169044988Y-126810274D01*
X168949738Y-126797136D01*
X168823989Y-126840304D01*
X168806159Y-126890040D01*
X168803343Y-126957607D01*
X168780821Y-127017666D01*
X168707624Y-127033619D01*
X168448619Y-127033619D01*
X168456127Y-126911624D01*
X168453311Y-126846873D01*
X168437358Y-126797136D01*
X168388091Y-126759130D01*
X168292841Y-126746461D01*
X168196653Y-126758661D01*
X168183257Y-126768805D01*
X168148324Y-126795260D01*
X168130494Y-126844996D01*
X168127678Y-126908809D01*
X168135186Y-127033619D01*
X167951255Y-127033619D01*
X167855536Y-127043003D01*
X167803453Y-127093209D01*
X167786092Y-127195028D01*
X166096388Y-127195028D01*
X166061213Y-127101228D01*
X166105028Y-126981213D01*
X166226948Y-126936445D01*
X166562228Y-126936445D01*
X166659383Y-126925015D01*
X166712247Y-126875485D01*
X166729868Y-126768805D01*
X166717010Y-126670698D01*
X166678433Y-126620215D01*
X166629856Y-126604023D01*
X166564133Y-126601165D01*
X166228853Y-126601165D01*
X166096244Y-126615241D01*
X165977817Y-126657469D01*
X165873571Y-126727848D01*
X165792608Y-126819394D01*
X165744031Y-126925121D01*
X165727838Y-127045030D01*
X165771653Y-127187905D01*
X165811658Y-127239340D01*
X165849758Y-127273630D01*
X165771653Y-127292680D01*
X165738792Y-127341734D01*
X165727838Y-127435555D01*
X165097283Y-127435555D01*
X165097283Y-125646760D01*
X165727838Y-125646760D01*
X165754508Y-125753917D01*
X165834518Y-125797255D01*
X165795466Y-125831545D01*
X165752603Y-125905840D01*
X165729743Y-126023950D01*
X165746359Y-126133911D01*
X165796207Y-126237734D01*
X165879286Y-126335418D01*
X165984484Y-126414264D01*
X166100689Y-126461571D01*
X166227901Y-126477340D01*
X166355218Y-126461677D01*
X166471741Y-126414687D01*
X166577468Y-126336370D01*
X166661077Y-126239745D01*
X166711242Y-126137827D01*
X166715403Y-126111149D01*
X168114541Y-126111149D01*
X168146447Y-126213437D01*
X168197122Y-126289449D01*
X168229028Y-126316663D01*
X168167092Y-126337309D01*
X168134717Y-126386576D01*
X168123925Y-126478072D01*
X168136593Y-126574730D01*
X168174600Y-126624466D01*
X168222459Y-126640420D01*
X168287210Y-126643235D01*
X168945984Y-126643235D01*
X169000412Y-126643235D01*
X169081117Y-126609452D01*
X169113023Y-126479949D01*
X169100824Y-126384230D01*
X169064225Y-126333555D01*
X169014489Y-126315725D01*
X168949738Y-126312910D01*
X168555600Y-126312910D01*
X168469265Y-126268804D01*
X168433605Y-126174023D01*
X168448619Y-126092380D01*
X168463634Y-126027629D01*
X168392314Y-125924402D01*
X168260935Y-125888742D01*
X168173661Y-125912203D01*
X168135186Y-125971324D01*
X168119233Y-126037013D01*
X168114541Y-126111149D01*
X166715403Y-126111149D01*
X166727963Y-126030618D01*
X166702722Y-125889410D01*
X166626998Y-125795350D01*
X166702246Y-125754393D01*
X166727963Y-125615328D01*
X166715581Y-125530793D01*
X166678433Y-125484835D01*
X166627951Y-125468643D01*
X166562228Y-125465785D01*
X165895478Y-125465785D01*
X165829756Y-125468643D01*
X165779273Y-125485788D01*
X165739268Y-125536270D01*
X165727838Y-125646760D01*
X165097283Y-125646760D01*
X165097283Y-125295659D01*
X168101403Y-125295659D01*
X168117669Y-125425787D01*
X168166467Y-125545905D01*
X168217745Y-125615328D01*
X168247797Y-125656013D01*
X168354151Y-125743599D01*
X168478023Y-125796151D01*
X168619412Y-125813668D01*
X168761818Y-125793727D01*
X168888740Y-125733902D01*
X168993374Y-125644987D01*
X169068917Y-125537772D01*
X169114666Y-125419530D01*
X169129915Y-125297535D01*
X169115604Y-125175775D01*
X169072671Y-125058237D01*
X168999474Y-124951492D01*
X168894371Y-124862107D01*
X168764633Y-124801578D01*
X168617536Y-124781402D01*
X168476251Y-124798711D01*
X168352692Y-124850637D01*
X168246858Y-124937181D01*
X168166050Y-125046246D01*
X168117564Y-125165739D01*
X168101403Y-125295659D01*
X165097283Y-125295659D01*
X165097283Y-124494245D01*
X167658467Y-124494245D01*
X167671135Y-124590902D01*
X167709141Y-124640639D01*
X167758878Y-124656592D01*
X167823629Y-124659407D01*
X168717008Y-124659407D01*
X168890617Y-124646269D01*
X169009797Y-124606856D01*
X169072202Y-124538351D01*
X169105516Y-124419171D01*
X169113962Y-124269023D01*
X169094255Y-124186442D01*
X169044988Y-124158289D01*
X168949738Y-124148905D01*
X168816481Y-124186442D01*
X168800528Y-124218348D01*
X168797713Y-124269961D01*
X168779883Y-124319698D01*
X168694486Y-124330959D01*
X167825506Y-124330959D01*
X167759816Y-124333774D01*
X167709141Y-124351604D01*
X167671135Y-124401341D01*
X167658467Y-124494245D01*
X165097283Y-124494245D01*
X165097283Y-124148905D01*
X165097283Y-123910780D01*
X165099857Y-123805956D01*
X165107570Y-123701384D01*
X165120406Y-123597317D01*
X165138332Y-123494005D01*
X165161306Y-123391697D01*
X165189272Y-123290640D01*
X165222164Y-123191076D01*
X165259901Y-123093247D01*
X165302393Y-122997387D01*
X165349537Y-122903727D01*
X165401220Y-122812494D01*
X165457318Y-122723906D01*
X165517694Y-122638177D01*
X165582205Y-122555515D01*
X165650694Y-122476117D01*
X165722996Y-122400176D01*
X165798937Y-122327874D01*
X165878335Y-122259385D01*
X165960998Y-122194874D01*
X166046726Y-122134497D01*
X166135314Y-122078400D01*
X166226547Y-122026717D01*
X166320207Y-121979572D01*
X166416067Y-121937081D01*
X166513897Y-121899343D01*
X166613460Y-121866452D01*
X166714517Y-121838486D01*
X166816825Y-121815512D01*
X166920137Y-121797586D01*
X167024204Y-121784750D01*
X167128776Y-121777036D01*
X167233600Y-121774463D01*
X167338424Y-121777036D01*
X167442996Y-121784750D01*
X167547063Y-121797586D01*
X167650375Y-121815512D01*
X167752683Y-121838486D01*
X167853740Y-121866452D01*
X167953303Y-121899343D01*
X168051133Y-121937081D01*
X168146993Y-121979572D01*
X168240653Y-122026717D01*
X168331886Y-122078400D01*
X168420474Y-122134497D01*
X168506202Y-122194874D01*
X168588865Y-122259385D01*
X168668263Y-122327874D01*
X168744204Y-122400176D01*
X168816506Y-122476117D01*
X168884995Y-122555515D01*
X168949506Y-122638177D01*
X169009882Y-122723906D01*
X169065980Y-122812494D01*
X169117663Y-122903727D01*
X169164807Y-122997387D01*
X169207299Y-123093247D01*
X169245036Y-123191076D01*
X169277928Y-123290640D01*
X169305894Y-123391697D01*
X169328868Y-123494005D01*
X169346794Y-123597317D01*
X169359630Y-123701384D01*
X169367343Y-123805956D01*
X169369917Y-123910780D01*
X169369917Y-124148905D01*
X169369917Y-124269023D01*
X169369917Y-125297535D01*
G37*
D12*
%TO.C,J4*%
X162458400Y-139547600D02*
X163728400Y-138277600D01*
X163728400Y-138277600D02*
X163728400Y-139547600D01*
X163728400Y-139547600D02*
X162458400Y-139547600D01*
X163728400Y-139547600D02*
X163728400Y-138277600D01*
D13*
X164236400Y-140055600D02*
X149036400Y-140055600D01*
X149036400Y-122155600D01*
X164236400Y-122155600D01*
X164236400Y-140055600D01*
D12*
%TO.C,J9*%
X107152300Y-40206000D02*
X116352300Y-40206000D01*
X107152300Y-49006000D02*
X107152300Y-40206000D01*
X107152300Y-54906000D02*
X107152300Y-53006000D01*
X109852300Y-54906000D02*
X107152300Y-54906000D01*
X115502300Y-55106000D02*
X116552300Y-55106000D01*
X116352300Y-40206000D02*
X116352300Y-54906000D01*
X116352300Y-54906000D02*
X113752300Y-54906000D01*
X116552300Y-54056000D02*
X116552300Y-55106000D01*
%TO.C,J2*%
X90758000Y-85422000D02*
X92028000Y-86692000D01*
X90758000Y-86692000D02*
X90758000Y-85422000D01*
X90758000Y-86692000D02*
X92028000Y-86692000D01*
X92028000Y-86692000D02*
X90758000Y-86692000D01*
D13*
X90250000Y-87200000D02*
X108150000Y-87200000D01*
X108150000Y-72000000D01*
X90250000Y-72000000D01*
X90250000Y-87200000D01*
D12*
%TO.C,TP1*%
X105538400Y-58623200D02*
G75*
G02*
X105538400Y-58623200I-1500000J0D01*
G01*
%TO.C,R2*%
X118805936Y-87736000D02*
X120260064Y-87736000D01*
X118805936Y-89556000D02*
X120260064Y-89556000D01*
%TO.C,Q2*%
X161495500Y-77942000D02*
X159820500Y-77942000D01*
X161495500Y-77942000D02*
X162145500Y-77942000D01*
X161495500Y-81062000D02*
X160845500Y-81062000D01*
X161495500Y-81062000D02*
X162145500Y-81062000D01*
%TO.C,Q5*%
X113362500Y-70764000D02*
X112712500Y-70764000D01*
X113362500Y-70764000D02*
X114012500Y-70764000D01*
X113362500Y-73884000D02*
X112712500Y-73884000D01*
X113362500Y-73884000D02*
X115037500Y-73884000D01*
%TO.C,R3*%
X118805936Y-77491333D02*
X120260064Y-77491333D01*
X118805936Y-79311333D02*
X120260064Y-79311333D01*
%TO.C,Q1*%
X113362500Y-80714000D02*
X112712500Y-80714000D01*
X113362500Y-80714000D02*
X114012500Y-80714000D01*
X113362500Y-83834000D02*
X112712500Y-83834000D01*
X113362500Y-83834000D02*
X115037500Y-83834000D01*
%TO.C,J5*%
X90758000Y-101422000D02*
X92028000Y-102692000D01*
X90758000Y-102692000D02*
X90758000Y-101422000D01*
X90758000Y-102692000D02*
X92028000Y-102692000D01*
X92028000Y-102692000D02*
X90758000Y-102692000D01*
D13*
X90250000Y-103200000D02*
X108150000Y-103200000D01*
X108150000Y-88000000D01*
X90250000Y-88000000D01*
X90250000Y-103200000D01*
D12*
%TO.C,U1*%
X120688100Y-45656500D02*
X122008100Y-45656500D01*
X122488100Y-45656500D02*
X122488100Y-45656500D01*
X122968100Y-45656500D02*
X122968100Y-45656500D01*
X123448100Y-45656500D02*
X124768100Y-45656500D01*
X125248100Y-45656500D02*
X125248100Y-45656500D01*
X125728100Y-45656500D02*
X125728100Y-45656500D01*
X126208100Y-45656500D02*
X127528100Y-45656500D01*
X128008100Y-45656500D02*
X128008100Y-45656500D01*
X128488100Y-45656500D02*
X128488100Y-45656500D01*
X128968100Y-45656500D02*
X130288100Y-45656500D01*
X130768100Y-45656500D02*
X130768100Y-45656500D01*
X131248100Y-45656500D02*
X131248100Y-45656500D01*
X131728100Y-45656500D02*
X133048100Y-45656500D01*
X133528100Y-45656500D02*
X133528100Y-45656500D01*
X134008100Y-45656500D02*
X134008100Y-45656500D01*
X134488100Y-45656500D02*
X135808100Y-45656500D01*
X136288100Y-45656500D02*
X136288100Y-45656500D01*
X136768100Y-45656500D02*
X136768100Y-45656500D01*
X137248100Y-45656500D02*
X138568100Y-45656500D01*
X139048100Y-45656500D02*
X139048100Y-45656500D01*
X139528100Y-45656500D02*
X139528100Y-45656500D01*
X140008100Y-45656500D02*
X141328100Y-45656500D01*
X141808100Y-45656500D02*
X141808100Y-45656500D01*
X142288100Y-45656500D02*
X142288100Y-45656500D01*
X142768100Y-45656500D02*
X144088100Y-45656500D01*
X144568100Y-45656500D02*
X144568100Y-45656500D01*
X145048100Y-45656500D02*
X145048100Y-45656500D01*
X145528100Y-45656500D02*
X146848100Y-45656500D01*
X147328100Y-45656500D02*
X147328100Y-45656500D01*
X147808100Y-45656500D02*
X147808100Y-45656500D01*
X148288100Y-45656500D02*
X149608100Y-45656500D01*
X150088100Y-45656500D02*
X150088100Y-45656500D01*
X150568100Y-45656500D02*
X150568100Y-45656500D01*
X151048100Y-45656500D02*
X152368100Y-45656500D01*
X152848100Y-45656500D02*
X152848100Y-45656500D01*
X153328100Y-45656500D02*
X153328100Y-45656500D01*
X153808100Y-45656500D02*
X155128100Y-45656500D01*
X155608100Y-45656500D02*
X155608100Y-45656500D01*
X156088100Y-45656500D02*
X156088100Y-45656500D01*
X156568100Y-45656500D02*
X157888100Y-45656500D01*
X158368100Y-45656500D02*
X158368100Y-45656500D01*
X158848100Y-45656500D02*
X158848100Y-45656500D01*
X159328100Y-45656500D02*
X160648100Y-45656500D01*
X161128100Y-45656500D02*
X161128100Y-45656500D01*
X161608100Y-45656500D02*
X161608100Y-45656500D01*
X162088100Y-45656500D02*
X163408100Y-45656500D01*
X163888100Y-45656500D02*
X163888100Y-45656500D01*
X164368100Y-45656500D02*
X164368100Y-45656500D01*
X164848100Y-45656500D02*
X166168100Y-45656500D01*
X166648100Y-45656500D02*
X166648100Y-45656500D01*
X167128100Y-45656500D02*
X167128100Y-45656500D01*
X167608100Y-45656500D02*
X168928100Y-45656500D01*
X169188100Y-45656500D02*
X169188100Y-46976500D01*
X169188100Y-47456500D02*
X169188100Y-47456500D01*
X169188100Y-47936500D02*
X169188100Y-47936500D01*
X169188100Y-48416500D02*
X169188100Y-49736500D01*
X169188100Y-50216500D02*
X169188100Y-50216500D01*
X169188100Y-50696500D02*
X169188100Y-50696500D01*
X169188100Y-51176500D02*
X169188100Y-52496500D01*
X169188100Y-52976500D02*
X169188100Y-52976500D01*
X169188100Y-53456500D02*
X169188100Y-53456500D01*
X169188100Y-53936500D02*
X169188100Y-55256500D01*
X169188100Y-55736500D02*
X169188100Y-55736500D01*
X169188100Y-56216500D02*
X169188100Y-56216500D01*
X169188100Y-56696500D02*
X169188100Y-58016500D01*
X169188100Y-58496500D02*
X169188100Y-58496500D01*
X169188100Y-58976500D02*
X169188100Y-58976500D01*
X169188100Y-59456500D02*
X169188100Y-60776500D01*
X169188100Y-61256500D02*
X169188100Y-61256500D01*
X169188100Y-61736500D02*
X169188100Y-61736500D01*
X169188100Y-62216500D02*
X169188100Y-63536500D01*
X169188100Y-64016500D02*
X169188100Y-64016500D01*
X169188100Y-64496500D02*
X169188100Y-64496500D01*
X169188100Y-64976500D02*
X169188100Y-66296500D01*
X169188100Y-66776500D02*
X169188100Y-66776500D01*
X169188100Y-67256500D02*
X169188100Y-67256500D01*
X169188100Y-67736500D02*
X169188100Y-68656500D01*
X169188100Y-68656500D02*
X167868100Y-68656500D01*
X167388100Y-68656500D02*
X167388100Y-68656500D01*
X166908100Y-68656500D02*
X166908100Y-68656500D01*
X166428100Y-68656500D02*
X165108100Y-68656500D01*
X164628100Y-68656500D02*
X164628100Y-68656500D01*
X164148100Y-68656500D02*
X164148100Y-68656500D01*
X163668100Y-68656500D02*
X162348100Y-68656500D01*
X161868100Y-68656500D02*
X161868100Y-68656500D01*
X161388100Y-68656500D02*
X161388100Y-68656500D01*
X160908100Y-68656500D02*
X159588100Y-68656500D01*
X159108100Y-68656500D02*
X159108100Y-68656500D01*
X158628100Y-68656500D02*
X158628100Y-68656500D01*
X158148100Y-68656500D02*
X156828100Y-68656500D01*
X156348100Y-68656500D02*
X156348100Y-68656500D01*
X155868100Y-68656500D02*
X155868100Y-68656500D01*
X155388100Y-68656500D02*
X154068100Y-68656500D01*
X153588100Y-68656500D02*
X153588100Y-68656500D01*
X153108100Y-68656500D02*
X153108100Y-68656500D01*
X152628100Y-68656500D02*
X151308100Y-68656500D01*
X150828100Y-68656500D02*
X150828100Y-68656500D01*
X150348100Y-68656500D02*
X150348100Y-68656500D01*
X149868100Y-68656500D02*
X148548100Y-68656500D01*
X148068100Y-68656500D02*
X148068100Y-68656500D01*
X147588100Y-68656500D02*
X147588100Y-68656500D01*
X147108100Y-68656500D02*
X145788100Y-68656500D01*
X145308100Y-68656500D02*
X145308100Y-68656500D01*
X144828100Y-68656500D02*
X144828100Y-68656500D01*
X144348100Y-68656500D02*
X143028100Y-68656500D01*
X142548100Y-68656500D02*
X142548100Y-68656500D01*
X142068100Y-68656500D02*
X142068100Y-68656500D01*
X141588100Y-68656500D02*
X140268100Y-68656500D01*
X139788100Y-68656500D02*
X139788100Y-68656500D01*
X139308100Y-68656500D02*
X139308100Y-68656500D01*
X138828100Y-68656500D02*
X137508100Y-68656500D01*
X137028100Y-68656500D02*
X137028100Y-68656500D01*
X136548100Y-68656500D02*
X136548100Y-68656500D01*
X136068100Y-68656500D02*
X134748100Y-68656500D01*
X134268100Y-68656500D02*
X134268100Y-68656500D01*
X133788100Y-68656500D02*
X133788100Y-68656500D01*
X133308100Y-68656500D02*
X131988100Y-68656500D01*
X131508100Y-68656500D02*
X131508100Y-68656500D01*
X131028100Y-68656500D02*
X131028100Y-68656500D01*
X130548100Y-68656500D02*
X129228100Y-68656500D01*
X128748100Y-68656500D02*
X128748100Y-68656500D01*
X128268100Y-68656500D02*
X128268100Y-68656500D01*
X127788100Y-68656500D02*
X126468100Y-68656500D01*
X125988100Y-68656500D02*
X125988100Y-68656500D01*
X125508100Y-68656500D02*
X125508100Y-68656500D01*
X125028100Y-68656500D02*
X123708100Y-68656500D01*
X123228100Y-68656500D02*
X123228100Y-68656500D01*
X122748100Y-68656500D02*
X122748100Y-68656500D01*
X122268100Y-68656500D02*
X120948100Y-68656500D01*
X120688100Y-68656500D02*
X120688100Y-67336500D01*
X120688100Y-66856500D02*
X120688100Y-66856500D01*
X120688100Y-66376500D02*
X120688100Y-66376500D01*
X120688100Y-65896500D02*
X120688100Y-64576500D01*
X120688100Y-64096500D02*
X120688100Y-64096500D01*
X120688100Y-63616500D02*
X120688100Y-63616500D01*
X120688100Y-63136500D02*
X120688100Y-61816500D01*
X120688100Y-61336500D02*
X120688100Y-61336500D01*
X120688100Y-60856500D02*
X120688100Y-60856500D01*
X120688100Y-60376500D02*
X120688100Y-59056500D01*
X120688100Y-58576500D02*
X120688100Y-58576500D01*
X120688100Y-58096500D02*
X120688100Y-58096500D01*
X120688100Y-57616500D02*
X120688100Y-56296500D01*
X120688100Y-55816500D02*
X120688100Y-55816500D01*
X120688100Y-55336500D02*
X120688100Y-55336500D01*
X120688100Y-54856500D02*
X120688100Y-53536500D01*
X120688100Y-53056500D02*
X120688100Y-53056500D01*
X120688100Y-52576500D02*
X120688100Y-52576500D01*
X120688100Y-52096500D02*
X120688100Y-50776500D01*
X120688100Y-50296500D02*
X120688100Y-50296500D01*
X120688100Y-49816500D02*
X120688100Y-49816500D01*
X120688100Y-49336500D02*
X120688100Y-48016500D01*
X120688100Y-47536500D02*
X120688100Y-47536500D01*
X120688100Y-47056500D02*
X120688100Y-47056500D01*
X120688100Y-46576500D02*
X120688100Y-45656500D01*
%TO.C,TP4*%
X173712000Y-67437000D02*
G75*
G02*
X173712000Y-67437000I-1500000J0D01*
G01*
%TO.C,R5*%
X151958064Y-77576000D02*
X150503936Y-77576000D01*
X151958064Y-79396000D02*
X150503936Y-79396000D01*
%TO.C,U2*%
X125330000Y-79835000D02*
X125330000Y-79415000D01*
X125330000Y-82375000D02*
X125330000Y-81955000D01*
X125330000Y-84915000D02*
X125330000Y-84495000D01*
X125330000Y-87455000D02*
X125330000Y-87035000D01*
X125330000Y-89995000D02*
X125330000Y-89575000D01*
X125330000Y-92535000D02*
X125330000Y-92115000D01*
X125330000Y-95075000D02*
X125330000Y-94655000D01*
X125330000Y-97615000D02*
X125330000Y-97195000D01*
X125330000Y-100155000D02*
X125330000Y-99735000D01*
X125330000Y-102695000D02*
X125330000Y-102275000D01*
X125330000Y-105235000D02*
X125330000Y-104815000D01*
X125330000Y-107775000D02*
X125330000Y-107355000D01*
X125330000Y-110315000D02*
X125330000Y-109895000D01*
X125330000Y-112855000D02*
X125330000Y-112435000D01*
X125330000Y-115395000D02*
X125330000Y-114975000D01*
X125330000Y-117935000D02*
X125330000Y-117515000D01*
X125330000Y-120475000D02*
X125330000Y-120055000D01*
X125330000Y-123015000D02*
X125330000Y-122595000D01*
X125330000Y-125555000D02*
X125330000Y-125135000D01*
X125890000Y-128045000D02*
X132080000Y-128045000D01*
D13*
X128890000Y-84885000D02*
X128890000Y-77485000D01*
D12*
X131790000Y-129175000D02*
X132080000Y-128675000D01*
X132080000Y-128675000D02*
X132080000Y-128045000D01*
X132120000Y-129365000D02*
X131790000Y-129175000D01*
X132290000Y-76925000D02*
X125890000Y-76925000D01*
X134830000Y-76925000D02*
X134410000Y-76925000D01*
X137370000Y-76925000D02*
X136950000Y-76925000D01*
X139660000Y-129365000D02*
X132120000Y-129365000D01*
X139700000Y-128045000D02*
X139700000Y-128675000D01*
X139700000Y-128045000D02*
X145890000Y-128045000D01*
X139700000Y-128675000D02*
X139990000Y-129175000D01*
X139990000Y-129175000D02*
X139660000Y-129365000D01*
D13*
X142390000Y-85385000D02*
X129390000Y-85385000D01*
X142890000Y-77485000D02*
X142890000Y-84885000D01*
D12*
X145890000Y-76925000D02*
X139490000Y-76925000D01*
X145890000Y-128045000D02*
X139700000Y-128045000D01*
X146450000Y-79835000D02*
X146450000Y-79415000D01*
X146450000Y-82375000D02*
X146450000Y-81955000D01*
X146450000Y-84915000D02*
X146450000Y-84495000D01*
X146450000Y-87455000D02*
X146450000Y-87035000D01*
X146450000Y-89995000D02*
X146450000Y-89575000D01*
X146450000Y-92535000D02*
X146450000Y-92115000D01*
X146450000Y-95075000D02*
X146450000Y-94655000D01*
X146450000Y-97615000D02*
X146450000Y-97195000D01*
X146450000Y-100155000D02*
X146450000Y-99735000D01*
X146450000Y-102695000D02*
X146450000Y-102275000D01*
X146450000Y-105235000D02*
X146450000Y-104815000D01*
X146450000Y-107775000D02*
X146450000Y-107355000D01*
X146450000Y-110315000D02*
X146450000Y-109895000D01*
X146450000Y-112855000D02*
X146450000Y-112435000D01*
X146450000Y-115395000D02*
X146450000Y-114975000D01*
X146450000Y-117935000D02*
X146450000Y-117515000D01*
X146450000Y-120475000D02*
X146450000Y-120055000D01*
X146450000Y-123015000D02*
X146450000Y-122595000D01*
X146450000Y-125555000D02*
X146450000Y-125135000D01*
X125360001Y-77295000D02*
G75*
G02*
X125890000Y-76925028I528299J-192200D01*
G01*
X125890000Y-128044999D02*
G75*
G02*
X125360037Y-127674986I-1700J562099D01*
G01*
D13*
X128390000Y-76985000D02*
G75*
G02*
X128890000Y-77485000I0J-500000D01*
G01*
X129390000Y-85385000D02*
G75*
G02*
X128890000Y-84885000I0J500000D01*
G01*
X142890000Y-77485000D02*
G75*
G02*
X143390000Y-76985000I500000J0D01*
G01*
X142890000Y-84885000D02*
G75*
G02*
X142390000Y-85385000I-500000J0D01*
G01*
D12*
X145890000Y-76925001D02*
G75*
G02*
X146419999Y-77295000I1773J-562054D01*
G01*
X146419999Y-127675000D02*
G75*
G02*
X145890000Y-128044999I-528228J192058D01*
G01*
%TD*%
M02*
