  0
SECTION
  2
HEADER
  9
$ANGBASE
  50
0.0
  9
$ANGDIR
  70
1
  9
$MEASUREMENT
  70
0
  0
ENDSEC
  0
SECTION
  2
TABLES
  0
TABLE
  2
LTYPE
  70
4
  0
LTYPE
  5
40F
  2
CONTINUOUS
  70
0
  3
Solid line
  72
65
  73
0
  40
0.0
  0
LTYPE
  5
410
  2
DASHDOT
 70
0
  3
Dash Dot ____ _ ____ _
 72
65
 73
4
 40
2.0
 49
1.25
 49
-0.25
 49
0.25
 49
-0.25
  0
LTYPE
  5
411
  2
DASHED
 70
0
  3
Dashed __ __ __ __ __
 72
65
 73
2
 40
0.75
 49
0.5
 49
-0.25
  0
LTYPE
  5
43B
  2
DOTTED
 70
0
  3
Dotted .  .  .  .
 72
65
 73
2
 40
0.2
 49
0.0
 49
-0.2
  0
ENDTAB
  0
TABLE
  2
STYLE
  70
4
  0
STYLE
  2
KICAD
  70
0
  40
0
  41
1
  42
1
  50
0
  71
0
  3
isocp.shx
  0
STYLE
  2
KICADB
  70
0
  40
0
  41
1
  42
1
  50
0
  71
0
  3
isocp.shx
  0
STYLE
  2
KICADI
  70
0
  40
0
  41
1
  42
1
  50
15
  71
0
  3
isocp.shx
  0
STYLE
  2
KICADBI
  70
0
  40
0
  41
1
  42
1
  50
15
  71
0
  3
isocp.shx
  0
ENDTAB
  0
TABLE
  2
LAYER
  70
1
  0
LAYER
  2
BLACK
  70
0
  62
7
  6
CONTINUOUS
  0
ENDTAB
  0
ENDSEC
  0
SECTION
  2
ENTITIES
0
LINE
8
BLACK
6
CONTINUOUS
10
6.75905
20
-1.72305
11
6.76858
21
-1.72629
0
LINE
8
BLACK
6
CONTINUOUS
10
6.76858
20
-1.72629
11
6.77761
21
-1.73074
0
LINE
8
BLACK
6
CONTINUOUS
10
6.77761
20
-1.73074
11
6.78599
21
-1.73633
0
LINE
8
BLACK
6
CONTINUOUS
10
6.78599
20
-1.73633
11
6.79355
21
-1.74297
0
LINE
8
BLACK
6
CONTINUOUS
10
6.79355
20
-1.74297
11
6.80019
21
-1.75054
0
LINE
8
BLACK
6
CONTINUOUS
10
6.80019
20
-1.75054
11
6.80579
21
-1.75891
0
LINE
8
BLACK
6
CONTINUOUS
10
6.80579
20
-1.75891
11
6.81024
21
-1.76794
0
LINE
8
BLACK
6
CONTINUOUS
10
6.81024
20
-1.76794
11
6.81348
21
-1.77748
0
LINE
8
BLACK
6
CONTINUOUS
10
6.81348
20
-1.77748
11
6.81544
21
-1.78735
0
LINE
8
BLACK
6
CONTINUOUS
10
6.81544
20
-1.78735
11
6.8161
21
-1.7974
0
LINE
8
BLACK
6
CONTINUOUS
10
6.8161
20
-1.7974
11
6.8161
21
-5.7598
0
LINE
8
BLACK
6
CONTINUOUS
10
6.8161
20
-5.7598
11
6.81544
21
-5.76985
0
LINE
8
BLACK
6
CONTINUOUS
10
6.81544
20
-5.76985
11
6.81348
21
-5.77972
0
LINE
8
BLACK
6
CONTINUOUS
10
6.81348
20
-5.77972
11
6.81024
21
-5.78925
0
LINE
8
BLACK
6
CONTINUOUS
10
6.81024
20
-5.78925
11
6.80579
21
-5.79828
0
LINE
8
BLACK
6
CONTINUOUS
10
6.80579
20
-5.79828
11
6.80019
21
-5.80665
0
LINE
8
BLACK
6
CONTINUOUS
10
6.80019
20
-5.80665
11
6.79355
21
-5.81422
0
LINE
8
BLACK
6
CONTINUOUS
10
6.79355
20
-5.81422
11
6.78599
21
-5.82086
0
LINE
8
BLACK
6
CONTINUOUS
10
6.78599
20
-5.82086
11
6.77761
21
-5.82646
0
LINE
8
BLACK
6
CONTINUOUS
10
6.77761
20
-5.82646
11
6.76858
21
-5.83091
0
LINE
8
BLACK
6
CONTINUOUS
10
6.76858
20
-5.83091
11
6.75905
21
-5.83415
0
LINE
8
BLACK
6
CONTINUOUS
10
6.75905
20
-5.83415
11
6.74918
21
-5.83611
0
LINE
8
BLACK
6
CONTINUOUS
10
6.74918
20
-5.83611
11
6.73913
21
-5.83677
0
LINE
8
BLACK
6
CONTINUOUS
10
6.73913
20
-5.83677
11
3.48027
21
-5.83677
0
LINE
8
BLACK
6
CONTINUOUS
10
3.48027
20
-5.83677
11
3.47023
21
-5.83611
0
LINE
8
BLACK
6
CONTINUOUS
10
3.47023
20
-5.83611
11
3.46035
21
-5.83415
0
LINE
8
BLACK
6
CONTINUOUS
10
3.46035
20
-5.83415
11
3.45082
21
-5.83091
0
LINE
8
BLACK
6
CONTINUOUS
10
3.45082
20
-5.83091
11
3.44179
21
-5.82646
0
LINE
8
BLACK
6
CONTINUOUS
10
3.44179
20
-5.82646
11
3.43342
21
-5.82086
0
LINE
8
BLACK
6
CONTINUOUS
10
3.43342
20
-5.82086
11
3.42585
21
-5.81422
0
LINE
8
BLACK
6
CONTINUOUS
10
3.42585
20
-5.81422
11
3.41921
21
-5.80665
0
LINE
8
BLACK
6
CONTINUOUS
10
3.41921
20
-5.80665
11
3.41361
21
-5.79828
0
LINE
8
BLACK
6
CONTINUOUS
10
3.41361
20
-5.79828
11
3.40916
21
-5.78925
0
LINE
8
BLACK
6
CONTINUOUS
10
3.40916
20
-5.78925
11
3.40593
21
-5.77972
0
LINE
8
BLACK
6
CONTINUOUS
10
3.40593
20
-5.77972
11
3.40396
21
-5.76985
0
LINE
8
BLACK
6
CONTINUOUS
10
3.40396
20
-5.76985
11
3.4033
21
-5.7598
0
LINE
8
BLACK
6
CONTINUOUS
10
3.4033
20
-5.7598
11
3.4033
21
-2.38256
0
LINE
8
BLACK
6
CONTINUOUS
10
3.4033
20
-2.38256
11
3.40394
21
-2.37114
0
LINE
8
BLACK
6
CONTINUOUS
10
3.40394
20
-2.37114
11
3.40586
21
-2.35987
0
LINE
8
BLACK
6
CONTINUOUS
10
3.40586
20
-2.35987
11
3.40902
21
-2.34888
0
LINE
8
BLACK
6
CONTINUOUS
10
3.40902
20
-2.34888
11
3.4134
21
-2.33832
0
LINE
8
BLACK
6
CONTINUOUS
10
3.4134
20
-2.33832
11
3.41893
21
-2.32831
0
LINE
8
BLACK
6
CONTINUOUS
10
3.41893
20
-2.32831
11
3.42555
21
-2.31898
0
LINE
8
BLACK
6
CONTINUOUS
10
3.42555
20
-2.31898
11
3.43317
21
-2.31046
0
LINE
8
BLACK
6
CONTINUOUS
10
3.43317
20
-2.31046
11
3.44169
21
-2.30284
0
LINE
8
BLACK
6
CONTINUOUS
10
3.44169
20
-2.30284
11
3.45102
21
-2.29622
0
LINE
8
BLACK
6
CONTINUOUS
10
3.45102
20
-2.29622
11
3.46103
21
-2.29069
0
LINE
8
BLACK
6
CONTINUOUS
10
3.46103
20
-2.29069
11
3.47159
21
-2.28631
0
LINE
8
BLACK
6
CONTINUOUS
10
3.47159
20
-2.28631
11
3.48258
21
-2.28315
0
LINE
8
BLACK
6
CONTINUOUS
10
3.48258
20
-2.28315
11
3.49385
21
-2.28123
0
LINE
8
BLACK
6
CONTINUOUS
10
3.49385
20
-2.28123
11
3.50527
21
-2.28059
0
LINE
8
BLACK
6
CONTINUOUS
10
3.50527
20
-2.28059
11
3.50527
21
-2.28059
0
LINE
8
BLACK
6
CONTINUOUS
10
3.50527
20
-2.28059
11
4.42102
21
-2.28059
0
LINE
8
BLACK
6
CONTINUOUS
10
4.42102
20
-2.28059
11
4.42133
21
-2.28072
0
LINE
8
BLACK
6
CONTINUOUS
10
4.42133
20
-2.28072
11
4.43112
21
-2.27972
0
LINE
8
BLACK
6
CONTINUOUS
10
4.43112
20
-2.27972
11
4.44107
21
-2.2774
0
LINE
8
BLACK
6
CONTINUOUS
10
4.44107
20
-2.2774
11
4.45064
21
-2.27383
0
LINE
8
BLACK
6
CONTINUOUS
10
4.45064
20
-2.27383
11
4.45968
21
-2.26907
0
LINE
8
BLACK
6
CONTINUOUS
10
4.45968
20
-2.26907
11
4.46803
21
-2.26319
0
LINE
8
BLACK
6
CONTINUOUS
10
4.46803
20
-2.26319
11
4.47558
21
-2.2563
0
LINE
8
BLACK
6
CONTINUOUS
10
4.47558
20
-2.2563
11
4.48218
21
-2.2485
0
LINE
8
BLACK
6
CONTINUOUS
10
4.48218
20
-2.2485
11
4.48773
21
-2.23993
0
LINE
8
BLACK
6
CONTINUOUS
10
4.48773
20
-2.23993
11
4.49215
21
-2.23071
0
LINE
8
BLACK
6
CONTINUOUS
10
4.49215
20
-2.23071
11
4.49536
21
-2.22101
0
LINE
8
BLACK
6
CONTINUOUS
10
4.49536
20
-2.22101
11
4.4973
21
-2.21098
0
LINE
8
BLACK
6
CONTINUOUS
10
4.4973
20
-2.21098
11
4.49793
21
-2.20113
0
LINE
8
BLACK
6
CONTINUOUS
10
4.49793
20
-2.20113
11
4.49779
21
-2.20079
0
LINE
8
BLACK
6
CONTINUOUS
10
4.49779
20
-2.20079
11
4.49779
21
-1.75409
0
LINE
8
BLACK
6
CONTINUOUS
10
4.49779
20
-1.75409
11
4.49837
21
-1.7527
0
LINE
8
BLACK
6
CONTINUOUS
10
4.49837
20
-1.7527
11
4.49976
21
-1.75212
0
LINE
8
BLACK
6
CONTINUOUS
10
4.49976
20
-1.75212
11
4.50115
21
-1.7527
0
LINE
8
BLACK
6
CONTINUOUS
10
4.50115
20
-1.7527
11
4.50173
21
-1.75409
0
LINE
8
BLACK
6
CONTINUOUS
10
4.50173
20
-1.75409
11
4.50173
21
-1.78237
0
LINE
8
BLACK
6
CONTINUOUS
10
4.50173
20
-1.78237
11
4.50204
21
-1.78115
0
LINE
8
BLACK
6
CONTINUOUS
10
4.50204
20
-1.78115
11
4.50603
21
-1.77107
0
LINE
8
BLACK
6
CONTINUOUS
10
4.50603
20
-1.77107
11
4.51123
21
-1.76154
0
LINE
8
BLACK
6
CONTINUOUS
10
4.51123
20
-1.76154
11
4.51754
21
-1.75273
0
LINE
8
BLACK
6
CONTINUOUS
10
4.51754
20
-1.75273
11
4.52489
21
-1.74475
0
LINE
8
BLACK
6
CONTINUOUS
10
4.52489
20
-1.74475
11
4.53316
21
-1.73773
0
LINE
8
BLACK
6
CONTINUOUS
10
4.53316
20
-1.73773
11
4.54223
21
-1.73177
0
LINE
8
BLACK
6
CONTINUOUS
10
4.54223
20
-1.73177
11
4.55195
21
-1.72697
0
LINE
8
BLACK
6
CONTINUOUS
10
4.55195
20
-1.72697
11
4.56219
21
-1.72339
0
LINE
8
BLACK
6
CONTINUOUS
10
4.56219
20
-1.72339
11
4.57279
21
-1.72109
0
LINE
8
BLACK
6
CONTINUOUS
10
4.57279
20
-1.72109
11
4.58359
21
-1.7201
0
LINE
8
BLACK
6
CONTINUOUS
10
4.58359
20
-1.7201
11
4.59424
21
-1.72043
0
LINE
8
BLACK
6
CONTINUOUS
10
4.59424
20
-1.72043
11
4.59425
21
-1.72043
0
LINE
8
BLACK
6
CONTINUOUS
10
4.59425
20
-1.72043
11
6.73913
21
-1.72043
0
LINE
8
BLACK
6
CONTINUOUS
10
6.73913
20
-1.72043
11
6.74918
21
-1.72109
0
LINE
8
BLACK
6
CONTINUOUS
10
6.74918
20
-1.72109
11
6.75905
21
-1.72305
0
LINE
8
BLACK
6
CONTINUOUS
10
3.49343
20
-2.28506
11
3.48177
21
-2.2872
0
LINE
8
BLACK
6
CONTINUOUS
10
3.48177
20
-2.2872
11
3.47045
21
-2.29073
0
LINE
8
BLACK
6
CONTINUOUS
10
3.47045
20
-2.29073
11
3.45963
21
-2.2956
0
LINE
8
BLACK
6
CONTINUOUS
10
3.45963
20
-2.2956
11
3.44948
21
-2.30173
0
LINE
8
BLACK
6
CONTINUOUS
10
3.44948
20
-2.30173
11
3.44015
21
-2.30905
0
LINE
8
BLACK
6
CONTINUOUS
10
3.44015
20
-2.30905
11
3.43176
21
-2.31743
0
LINE
8
BLACK
6
CONTINUOUS
10
3.43176
20
-2.31743
11
3.42445
21
-2.32677
0
LINE
8
BLACK
6
CONTINUOUS
10
3.42445
20
-2.32677
11
3.41831
21
-2.33692
0
LINE
8
BLACK
6
CONTINUOUS
10
3.41831
20
-2.33692
11
3.41344
21
-2.34773
0
LINE
8
BLACK
6
CONTINUOUS
10
3.41344
20
-2.34773
11
3.40991
21
-2.35906
0
LINE
8
BLACK
6
CONTINUOUS
10
3.40991
20
-2.35906
11
3.40778
21
-2.37072
0
LINE
8
BLACK
6
CONTINUOUS
10
3.40778
20
-2.37072
11
3.40708
21
-2.38218
0
LINE
8
BLACK
6
CONTINUOUS
10
3.40708
20
-2.38218
11
3.40724
21
-2.38256
0
LINE
8
BLACK
6
CONTINUOUS
10
3.40724
20
-2.38256
11
3.40724
21
-5.7598
0
LINE
8
BLACK
6
CONTINUOUS
10
3.40724
20
-5.7598
11
3.4071
21
-5.76013
0
LINE
8
BLACK
6
CONTINUOUS
10
3.4071
20
-5.76013
11
3.40771
21
-5.76935
0
LINE
8
BLACK
6
CONTINUOUS
10
3.40771
20
-5.76935
11
3.40958
21
-5.77874
0
LINE
8
BLACK
6
CONTINUOUS
10
3.40958
20
-5.77874
11
3.41265
21
-5.78781
0
LINE
8
BLACK
6
CONTINUOUS
10
3.41265
20
-5.78781
11
3.41689
21
-5.79639
0
LINE
8
BLACK
6
CONTINUOUS
10
3.41689
20
-5.79639
11
3.42221
21
-5.80435
0
LINE
8
BLACK
6
CONTINUOUS
10
3.42221
20
-5.80435
11
3.42852
21
-5.81155
0
LINE
8
BLACK
6
CONTINUOUS
10
3.42852
20
-5.81155
11
3.43572
21
-5.81786
0
LINE
8
BLACK
6
CONTINUOUS
10
3.43572
20
-5.81786
11
3.44368
21
-5.82318
0
LINE
8
BLACK
6
CONTINUOUS
10
3.44368
20
-5.82318
11
3.45226
21
-5.82742
0
LINE
8
BLACK
6
CONTINUOUS
10
3.45226
20
-5.82742
11
3.46133
21
-5.83049
0
LINE
8
BLACK
6
CONTINUOUS
10
3.46133
20
-5.83049
11
3.47072
21
-5.83236
0
LINE
8
BLACK
6
CONTINUOUS
10
3.47072
20
-5.83236
11
3.47995
21
-5.83297
0
LINE
8
BLACK
6
CONTINUOUS
10
3.47995
20
-5.83297
11
3.48027
21
-5.83283
0
LINE
8
BLACK
6
CONTINUOUS
10
3.48027
20
-5.83283
11
6.73913
21
-5.83283
0
LINE
8
BLACK
6
CONTINUOUS
10
6.73913
20
-5.83283
11
6.73946
21
-5.83297
0
LINE
8
BLACK
6
CONTINUOUS
10
6.73946
20
-5.83297
11
6.74868
21
-5.83236
0
LINE
8
BLACK
6
CONTINUOUS
10
6.74868
20
-5.83236
11
6.75807
21
-5.83049
0
LINE
8
BLACK
6
CONTINUOUS
10
6.75807
20
-5.83049
11
6.76714
21
-5.82742
0
LINE
8
BLACK
6
CONTINUOUS
10
6.76714
20
-5.82742
11
6.77572
21
-5.82318
0
LINE
8
BLACK
6
CONTINUOUS
10
6.77572
20
-5.82318
11
6.78368
21
-5.81786
0
LINE
8
BLACK
6
CONTINUOUS
10
6.78368
20
-5.81786
11
6.79088
21
-5.81155
0
LINE
8
BLACK
6
CONTINUOUS
10
6.79088
20
-5.81155
11
6.79719
21
-5.80435
0
LINE
8
BLACK
6
CONTINUOUS
10
6.79719
20
-5.80435
11
6.80251
21
-5.79639
0
LINE
8
BLACK
6
CONTINUOUS
10
6.80251
20
-5.79639
11
6.80675
21
-5.78781
0
LINE
8
BLACK
6
CONTINUOUS
10
6.80675
20
-5.78781
11
6.80982
21
-5.77874
0
LINE
8
BLACK
6
CONTINUOUS
10
6.80982
20
-5.77874
11
6.81169
21
-5.76935
0
LINE
8
BLACK
6
CONTINUOUS
10
6.81169
20
-5.76935
11
6.8123
21
-5.76013
0
LINE
8
BLACK
6
CONTINUOUS
10
6.8123
20
-5.76013
11
6.81216
21
-5.7598
0
LINE
8
BLACK
6
CONTINUOUS
10
6.81216
20
-5.7598
11
6.81216
21
-1.7974
0
LINE
8
BLACK
6
CONTINUOUS
10
6.81216
20
-1.7974
11
6.8123
21
-1.79707
0
LINE
8
BLACK
6
CONTINUOUS
10
6.8123
20
-1.79707
11
6.81169
21
-1.78784
0
LINE
8
BLACK
6
CONTINUOUS
10
6.81169
20
-1.78784
11
6.80982
21
-1.77846
0
LINE
8
BLACK
6
CONTINUOUS
10
6.80982
20
-1.77846
11
6.80675
21
-1.76939
0
LINE
8
BLACK
6
CONTINUOUS
10
6.80675
20
-1.76939
11
6.80251
21
-1.7608
0
LINE
8
BLACK
6
CONTINUOUS
10
6.80251
20
-1.7608
11
6.79719
21
-1.75284
0
LINE
8
BLACK
6
CONTINUOUS
10
6.79719
20
-1.75284
11
6.79088
21
-1.74565
0
LINE
8
BLACK
6
CONTINUOUS
10
6.79088
20
-1.74565
11
6.78368
21
-1.73933
0
LINE
8
BLACK
6
CONTINUOUS
10
6.78368
20
-1.73933
11
6.77572
21
-1.73401
0
LINE
8
BLACK
6
CONTINUOUS
10
6.77572
20
-1.73401
11
6.76714
21
-1.72978
0
LINE
8
BLACK
6
CONTINUOUS
10
6.76714
20
-1.72978
11
6.75807
21
-1.7267
0
LINE
8
BLACK
6
CONTINUOUS
10
6.75807
20
-1.7267
11
6.74868
21
-1.72484
0
LINE
8
BLACK
6
CONTINUOUS
10
6.74868
20
-1.72484
11
6.73946
21
-1.72423
0
LINE
8
BLACK
6
CONTINUOUS
10
6.73946
20
-1.72423
11
6.73913
21
-1.72437
0
LINE
8
BLACK
6
CONTINUOUS
10
6.73913
20
-1.72437
11
4.59425
21
-1.72437
0
LINE
8
BLACK
6
CONTINUOUS
10
4.59425
20
-1.72437
11
4.59416
21
-1.72433
0
LINE
8
BLACK
6
CONTINUOUS
10
4.59416
20
-1.72433
11
4.59407
21
-1.72436
0
LINE
8
BLACK
6
CONTINUOUS
10
4.59407
20
-1.72436
11
4.59374
21
-1.72419
0
LINE
8
BLACK
6
CONTINUOUS
10
4.59374
20
-1.72419
11
4.5837
21
-1.72387
0
LINE
8
BLACK
6
CONTINUOUS
10
4.5837
20
-1.72387
11
4.57336
21
-1.72482
0
LINE
8
BLACK
6
CONTINUOUS
10
4.57336
20
-1.72482
11
4.56321
21
-1.72702
0
LINE
8
BLACK
6
CONTINUOUS
10
4.56321
20
-1.72702
11
4.55341
21
-1.73045
0
LINE
8
BLACK
6
CONTINUOUS
10
4.55341
20
-1.73045
11
4.5441
21
-1.73505
0
LINE
8
BLACK
6
CONTINUOUS
10
4.5441
20
-1.73505
11
4.53542
21
-1.74075
0
LINE
8
BLACK
6
CONTINUOUS
10
4.53542
20
-1.74075
11
4.52751
21
-1.74747
0
LINE
8
BLACK
6
CONTINUOUS
10
4.52751
20
-1.74747
11
4.52047
21
-1.75511
0
LINE
8
BLACK
6
CONTINUOUS
10
4.52047
20
-1.75511
11
4.51442
21
-1.76355
0
LINE
8
BLACK
6
CONTINUOUS
10
4.51442
20
-1.76355
11
4.50945
21
-1.77267
0
LINE
8
BLACK
6
CONTINUOUS
10
4.50945
20
-1.77267
11
4.50563
21
-1.78232
0
LINE
8
BLACK
6
CONTINUOUS
10
4.50563
20
-1.78232
11
4.50302
21
-1.79237
0
LINE
8
BLACK
6
CONTINUOUS
10
4.50302
20
-1.79237
11
4.50173
21
-1.80215
0
LINE
8
BLACK
6
CONTINUOUS
10
4.50173
20
-1.80215
11
4.50173
21
-2.20079
0
LINE
8
BLACK
6
CONTINUOUS
10
4.50173
20
-2.20079
11
4.50105
21
-2.21146
0
LINE
8
BLACK
6
CONTINUOUS
10
4.50105
20
-2.21146
11
4.49901
21
-2.22197
0
LINE
8
BLACK
6
CONTINUOUS
10
4.49901
20
-2.22197
11
4.49565
21
-2.23212
0
LINE
8
BLACK
6
CONTINUOUS
10
4.49565
20
-2.23212
11
4.49102
21
-2.24177
0
LINE
8
BLACK
6
CONTINUOUS
10
4.49102
20
-2.24177
11
4.48521
21
-2.25075
0
LINE
8
BLACK
6
CONTINUOUS
10
4.48521
20
-2.25075
11
4.47829
21
-2.25892
0
LINE
8
BLACK
6
CONTINUOUS
10
4.47829
20
-2.25892
11
4.4704
21
-2.26613
0
LINE
8
BLACK
6
CONTINUOUS
10
4.4704
20
-2.26613
11
4.46164
21
-2.27228
0
LINE
8
BLACK
6
CONTINUOUS
10
4.46164
20
-2.27228
11
4.45218
21
-2.27727
0
LINE
8
BLACK
6
CONTINUOUS
10
4.45218
20
-2.27727
11
4.44216
21
-2.28101
0
LINE
8
BLACK
6
CONTINUOUS
10
4.44216
20
-2.28101
11
4.43174
21
-2.28345
0
LINE
8
BLACK
6
CONTINUOUS
10
4.43174
20
-2.28345
11
4.42109
21
-2.28453
0
LINE
8
BLACK
6
CONTINUOUS
10
4.42109
20
-2.28453
11
4.42109
21
-2.28453
0
LINE
8
BLACK
6
CONTINUOUS
10
4.42109
20
-2.28453
11
4.42106
21
-2.28451
0
LINE
8
BLACK
6
CONTINUOUS
10
4.42106
20
-2.28451
11
4.42102
21
-2.28453
0
LINE
8
BLACK
6
CONTINUOUS
10
4.42102
20
-2.28453
11
3.50527
21
-2.28453
0
LINE
8
BLACK
6
CONTINUOUS
10
3.50527
20
-2.28453
11
3.50489
21
-2.28437
0
LINE
8
BLACK
6
CONTINUOUS
10
3.50489
20
-2.28437
11
3.49343
21
-2.28506
0
LINE
8
BLACK
6
CONTINUOUS
10
6.37698
20
-2.58621
11
6.37698
21
-2.58623
0
LINE
8
BLACK
6
CONTINUOUS
10
6.37698
20
-2.58623
11
6.37698
21
-2.58623
0
LINE
8
BLACK
6
CONTINUOUS
10
6.37698
20
-2.58623
11
6.37606
21
-2.60013
0
LINE
8
BLACK
6
CONTINUOUS
10
6.37606
20
-2.60013
11
6.3737
21
-2.61385
0
LINE
8
BLACK
6
CONTINUOUS
10
6.3737
20
-2.61385
11
6.36993
21
-2.62726
0
LINE
8
BLACK
6
CONTINUOUS
10
6.36993
20
-2.62726
11
6.36479
21
-2.6402
0
LINE
8
BLACK
6
CONTINUOUS
10
6.36479
20
-2.6402
11
6.35834
21
-2.65255
0
LINE
8
BLACK
6
CONTINUOUS
10
6.35834
20
-2.65255
11
6.35065
21
-2.66415
0
LINE
8
BLACK
6
CONTINUOUS
10
6.35065
20
-2.66415
11
6.3418
21
-2.6749
0
LINE
8
BLACK
6
CONTINUOUS
10
6.3418
20
-2.6749
11
6.33188
21
-2.68468
0
LINE
8
BLACK
6
CONTINUOUS
10
6.33188
20
-2.68468
11
6.321
21
-2.69337
0
LINE
8
BLACK
6
CONTINUOUS
10
6.321
20
-2.69337
11
6.30928
21
-2.7009
0
LINE
8
BLACK
6
CONTINUOUS
10
6.30928
20
-2.7009
11
6.29684
21
-2.70716
0
LINE
8
BLACK
6
CONTINUOUS
10
6.29684
20
-2.70716
11
6.28382
21
-2.71211
0
LINE
8
BLACK
6
CONTINUOUS
10
6.28382
20
-2.71211
11
6.27036
21
-2.71568
0
LINE
8
BLACK
6
CONTINUOUS
10
6.27036
20
-2.71568
11
6.25661
21
-2.71784
0
LINE
8
BLACK
6
CONTINUOUS
10
6.25661
20
-2.71784
11
6.2427
21
-2.71856
0
LINE
8
BLACK
6
CONTINUOUS
10
6.2427
20
-2.71856
11
6.2427
21
-2.71856
0
LINE
8
BLACK
6
CONTINUOUS
10
6.2427
20
-2.71856
11
5.00655
21
-2.71856
0
LINE
8
BLACK
6
CONTINUOUS
10
5.00655
20
-2.71856
11
4.99264
21
-2.71784
0
LINE
8
BLACK
6
CONTINUOUS
10
4.99264
20
-2.71784
11
4.97888
21
-2.71568
0
LINE
8
BLACK
6
CONTINUOUS
10
4.97888
20
-2.71568
11
4.96542
21
-2.71211
0
LINE
8
BLACK
6
CONTINUOUS
10
4.96542
20
-2.71211
11
4.9524
21
-2.70716
0
LINE
8
BLACK
6
CONTINUOUS
10
4.9524
20
-2.70716
11
4.93997
21
-2.70089
0
LINE
8
BLACK
6
CONTINUOUS
10
4.93997
20
-2.70089
11
4.92825
21
-2.69337
0
LINE
8
BLACK
6
CONTINUOUS
10
4.92825
20
-2.69337
11
4.91737
21
-2.68468
0
LINE
8
BLACK
6
CONTINUOUS
10
4.91737
20
-2.68468
11
4.90745
21
-2.6749
0
LINE
8
BLACK
6
CONTINUOUS
10
4.90745
20
-2.6749
11
4.8986
21
-2.66415
0
LINE
8
BLACK
6
CONTINUOUS
10
4.8986
20
-2.66415
11
4.8909
21
-2.65254
0
LINE
8
BLACK
6
CONTINUOUS
10
4.8909
20
-2.65254
11
4.88445
21
-2.6402
0
LINE
8
BLACK
6
CONTINUOUS
10
4.88445
20
-2.6402
11
4.87932
21
-2.62726
0
LINE
8
BLACK
6
CONTINUOUS
10
4.87932
20
-2.62726
11
4.87555
21
-2.61385
0
LINE
8
BLACK
6
CONTINUOUS
10
4.87555
20
-2.61385
11
4.87319
21
-2.60013
0
LINE
8
BLACK
6
CONTINUOUS
10
4.87319
20
-2.60013
11
4.87226
21
-2.58624
0
LINE
8
BLACK
6
CONTINUOUS
10
4.87226
20
-2.58624
11
4.87226
21
-2.58623
0
LINE
8
BLACK
6
CONTINUOUS
10
4.87226
20
-2.58623
11
4.87227
21
-2.58621
0
LINE
8
BLACK
6
CONTINUOUS
10
4.87227
20
-2.58621
11
4.87226
21
-2.5862
0
LINE
8
BLACK
6
CONTINUOUS
10
4.87226
20
-2.5862
11
4.87226
21
-1.91812
0
LINE
8
BLACK
6
CONTINUOUS
10
4.87226
20
-1.91812
11
4.87299
21
-1.90429
0
LINE
8
BLACK
6
CONTINUOUS
10
4.87299
20
-1.90429
11
4.87515
21
-1.8906
0
LINE
8
BLACK
6
CONTINUOUS
10
4.87515
20
-1.8906
11
4.87874
21
-1.87722
0
LINE
8
BLACK
6
CONTINUOUS
10
4.87874
20
-1.87722
11
4.8837
21
-1.86428
0
LINE
8
BLACK
6
CONTINUOUS
10
4.8837
20
-1.86428
11
4.88999
21
-1.85194
0
LINE
8
BLACK
6
CONTINUOUS
10
4.88999
20
-1.85194
11
4.89754
21
-1.84032
0
LINE
8
BLACK
6
CONTINUOUS
10
4.89754
20
-1.84032
11
4.90626
21
-1.82955
0
LINE
8
BLACK
6
CONTINUOUS
10
4.90626
20
-1.82955
11
4.91605
21
-1.81976
0
LINE
8
BLACK
6
CONTINUOUS
10
4.91605
20
-1.81976
11
4.92682
21
-1.81104
0
LINE
8
BLACK
6
CONTINUOUS
10
4.92682
20
-1.81104
11
4.93844
21
-1.80349
0
LINE
8
BLACK
6
CONTINUOUS
10
4.93844
20
-1.80349
11
4.95079
21
-1.7972
0
LINE
8
BLACK
6
CONTINUOUS
10
4.95079
20
-1.7972
11
4.96372
21
-1.79224
0
LINE
8
BLACK
6
CONTINUOUS
10
4.96372
20
-1.79224
11
4.9771
21
-1.78865
0
LINE
8
BLACK
6
CONTINUOUS
10
4.9771
20
-1.78865
11
4.99079
21
-1.78648
0
LINE
8
BLACK
6
CONTINUOUS
10
4.99079
20
-1.78648
11
5.00462
21
-1.78576
0
LINE
8
BLACK
6
CONTINUOUS
10
5.00462
20
-1.78576
11
5.00462
21
-1.78576
0
LINE
8
BLACK
6
CONTINUOUS
10
5.00462
20
-1.78576
11
6.24462
21
-1.78576
0
LINE
8
BLACK
6
CONTINUOUS
10
6.24462
20
-1.78576
11
6.25846
21
-1.78648
0
LINE
8
BLACK
6
CONTINUOUS
10
6.25846
20
-1.78648
11
6.27214
21
-1.78865
0
LINE
8
BLACK
6
CONTINUOUS
10
6.27214
20
-1.78865
11
6.28552
21
-1.79224
0
LINE
8
BLACK
6
CONTINUOUS
10
6.28552
20
-1.79224
11
6.29846
21
-1.7972
0
LINE
8
BLACK
6
CONTINUOUS
10
6.29846
20
-1.7972
11
6.3108
21
-1.80349
0
LINE
8
BLACK
6
CONTINUOUS
10
6.3108
20
-1.80349
11
6.32242
21
-1.81104
0
LINE
8
BLACK
6
CONTINUOUS
10
6.32242
20
-1.81104
11
6.33319
21
-1.81976
0
LINE
8
BLACK
6
CONTINUOUS
10
6.33319
20
-1.81976
11
6.34299
21
-1.82955
0
LINE
8
BLACK
6
CONTINUOUS
10
6.34299
20
-1.82955
11
6.35171
21
-1.84032
0
LINE
8
BLACK
6
CONTINUOUS
10
6.35171
20
-1.84032
11
6.35925
21
-1.85194
0
LINE
8
BLACK
6
CONTINUOUS
10
6.35925
20
-1.85194
11
6.36554
21
-1.86428
0
LINE
8
BLACK
6
CONTINUOUS
10
6.36554
20
-1.86428
11
6.37051
21
-1.87722
0
LINE
8
BLACK
6
CONTINUOUS
10
6.37051
20
-1.87722
11
6.37409
21
-1.8906
0
LINE
8
BLACK
6
CONTINUOUS
10
6.37409
20
-1.8906
11
6.37626
21
-1.90429
0
LINE
8
BLACK
6
CONTINUOUS
10
6.37626
20
-1.90429
11
6.37699
21
-1.91812
0
LINE
8
BLACK
6
CONTINUOUS
10
6.37699
20
-1.91812
11
6.37698
21
-1.91812
0
LINE
8
BLACK
6
CONTINUOUS
10
6.37698
20
-1.91812
11
6.37698
21
-2.5862
0
LINE
8
BLACK
6
CONTINUOUS
10
6.37698
20
-2.5862
11
6.37698
21
-2.58621
0
LINE
8
BLACK
6
CONTINUOUS
10
5.00425
20
-1.79033
11
4.99126
21
-1.79101
0
LINE
8
BLACK
6
CONTINUOUS
10
4.99126
20
-1.79101
11
4.97805
21
-1.7931
0
LINE
8
BLACK
6
CONTINUOUS
10
4.97805
20
-1.7931
11
4.96513
21
-1.79656
0
LINE
8
BLACK
6
CONTINUOUS
10
4.96513
20
-1.79656
11
4.95264
21
-1.80136
0
LINE
8
BLACK
6
CONTINUOUS
10
4.95264
20
-1.80136
11
4.94072
21
-1.80743
0
LINE
8
BLACK
6
CONTINUOUS
10
4.94072
20
-1.80743
11
4.9295
21
-1.81472
0
LINE
8
BLACK
6
CONTINUOUS
10
4.9295
20
-1.81472
11
4.9191
21
-1.82314
0
LINE
8
BLACK
6
CONTINUOUS
10
4.9191
20
-1.82314
11
4.90964
21
-1.8326
0
LINE
8
BLACK
6
CONTINUOUS
10
4.90964
20
-1.8326
11
4.90122
21
-1.84299
0
LINE
8
BLACK
6
CONTINUOUS
10
4.90122
20
-1.84299
11
4.89393
21
-1.85421
0
LINE
8
BLACK
6
CONTINUOUS
10
4.89393
20
-1.85421
11
4.88786
21
-1.86613
0
LINE
8
BLACK
6
CONTINUOUS
10
4.88786
20
-1.86613
11
4.88307
21
-1.87862
0
LINE
8
BLACK
6
CONTINUOUS
10
4.88307
20
-1.87862
11
4.8796
21
-1.89155
0
LINE
8
BLACK
6
CONTINUOUS
10
4.8796
20
-1.89155
11
4.87751
21
-1.90476
0
LINE
8
BLACK
6
CONTINUOUS
10
4.87751
20
-1.90476
11
4.87683
21
-1.91775
0
LINE
8
BLACK
6
CONTINUOUS
10
4.87683
20
-1.91775
11
4.87698
21
-1.91812
0
LINE
8
BLACK
6
CONTINUOUS
10
4.87698
20
-1.91812
11
4.87698
21
-2.5862
0
LINE
8
BLACK
6
CONTINUOUS
10
4.87698
20
-2.5862
11
4.87684
21
-2.58655
0
LINE
8
BLACK
6
CONTINUOUS
10
4.87684
20
-2.58655
11
4.87771
21
-2.59959
0
LINE
8
BLACK
6
CONTINUOUS
10
4.87771
20
-2.59959
11
4.87999
21
-2.61285
0
LINE
8
BLACK
6
CONTINUOUS
10
4.87999
20
-2.61285
11
4.88363
21
-2.6258
0
LINE
8
BLACK
6
CONTINUOUS
10
4.88363
20
-2.6258
11
4.88859
21
-2.63831
0
LINE
8
BLACK
6
CONTINUOUS
10
4.88859
20
-2.63831
11
4.89482
21
-2.65023
0
LINE
8
BLACK
6
CONTINUOUS
10
4.89482
20
-2.65023
11
4.90226
21
-2.66144
0
LINE
8
BLACK
6
CONTINUOUS
10
4.90226
20
-2.66144
11
4.91081
21
-2.67183
0
LINE
8
BLACK
6
CONTINUOUS
10
4.91081
20
-2.67183
11
4.92039
21
-2.68127
0
LINE
8
BLACK
6
CONTINUOUS
10
4.92039
20
-2.68127
11
4.9309
21
-2.68967
0
LINE
8
BLACK
6
CONTINUOUS
10
4.9309
20
-2.68967
11
4.94222
21
-2.69694
0
LINE
8
BLACK
6
CONTINUOUS
10
4.94222
20
-2.69694
11
4.95424
21
-2.70299
0
LINE
8
BLACK
6
CONTINUOUS
10
4.95424
20
-2.70299
11
4.96681
21
-2.70777
0
LINE
8
BLACK
6
CONTINUOUS
10
4.96681
20
-2.70777
11
4.97982
21
-2.71122
0
LINE
8
BLACK
6
CONTINUOUS
10
4.97982
20
-2.71122
11
4.99311
21
-2.71331
0
LINE
8
BLACK
6
CONTINUOUS
10
4.99311
20
-2.71331
11
5.00618
21
-2.71399
0
LINE
8
BLACK
6
CONTINUOUS
10
5.00618
20
-2.71399
11
5.00655
21
-2.71383
0
LINE
8
BLACK
6
CONTINUOUS
10
5.00655
20
-2.71383
11
6.2427
21
-2.71383
0
LINE
8
BLACK
6
CONTINUOUS
10
6.2427
20
-2.71383
11
6.24294
21
-2.71393
0
LINE
8
BLACK
6
CONTINUOUS
10
6.24294
20
-2.71393
11
6.24307
21
-2.71399
0
LINE
8
BLACK
6
CONTINUOUS
10
6.24307
20
-2.71399
11
6.25613
21
-2.71331
0
LINE
8
BLACK
6
CONTINUOUS
10
6.25613
20
-2.71331
11
6.26943
21
-2.71123
0
LINE
8
BLACK
6
CONTINUOUS
10
6.26943
20
-2.71123
11
6.28243
21
-2.70778
0
LINE
8
BLACK
6
CONTINUOUS
10
6.28243
20
-2.70778
11
6.29501
21
-2.703
0
LINE
8
BLACK
6
CONTINUOUS
10
6.29501
20
-2.703
11
6.30702
21
-2.69694
0
LINE
8
BLACK
6
CONTINUOUS
10
6.30702
20
-2.69694
11
6.31834
21
-2.68967
0
LINE
8
BLACK
6
CONTINUOUS
10
6.31834
20
-2.68967
11
6.32885
21
-2.68127
0
LINE
8
BLACK
6
CONTINUOUS
10
6.32885
20
-2.68127
11
6.33844
21
-2.67183
0
LINE
8
BLACK
6
CONTINUOUS
10
6.33844
20
-2.67183
11
6.34699
21
-2.66145
0
LINE
8
BLACK
6
CONTINUOUS
10
6.34699
20
-2.66145
11
6.35442
21
-2.65023
0
LINE
8
BLACK
6
CONTINUOUS
10
6.35442
20
-2.65023
11
6.36065
21
-2.63831
0
LINE
8
BLACK
6
CONTINUOUS
10
6.36065
20
-2.63831
11
6.36562
21
-2.6258
0
LINE
8
BLACK
6
CONTINUOUS
10
6.36562
20
-2.6258
11
6.36926
21
-2.61285
0
LINE
8
BLACK
6
CONTINUOUS
10
6.36926
20
-2.61285
11
6.37154
21
-2.59959
0
LINE
8
BLACK
6
CONTINUOUS
10
6.37154
20
-2.59959
11
6.37241
21
-2.58655
0
LINE
8
BLACK
6
CONTINUOUS
10
6.37241
20
-2.58655
11
6.37226
21
-2.5862
0
LINE
8
BLACK
6
CONTINUOUS
10
6.37226
20
-2.5862
11
6.37226
21
-1.91812
0
LINE
8
BLACK
6
CONTINUOUS
10
6.37226
20
-1.91812
11
6.37242
21
-1.91774
0
LINE
8
BLACK
6
CONTINUOUS
10
6.37242
20
-1.91774
11
6.37174
21
-1.90476
0
LINE
8
BLACK
6
CONTINUOUS
10
6.37174
20
-1.90476
11
6.36964
21
-1.89155
0
LINE
8
BLACK
6
CONTINUOUS
10
6.36964
20
-1.89155
11
6.36618
21
-1.87862
0
LINE
8
BLACK
6
CONTINUOUS
10
6.36618
20
-1.87862
11
6.36139
21
-1.86613
0
LINE
8
BLACK
6
CONTINUOUS
10
6.36139
20
-1.86613
11
6.35531
21
-1.85421
0
LINE
8
BLACK
6
CONTINUOUS
10
6.35531
20
-1.85421
11
6.34803
21
-1.84299
0
LINE
8
BLACK
6
CONTINUOUS
10
6.34803
20
-1.84299
11
6.33961
21
-1.8326
0
LINE
8
BLACK
6
CONTINUOUS
10
6.33961
20
-1.8326
11
6.33015
21
-1.82314
0
LINE
8
BLACK
6
CONTINUOUS
10
6.33015
20
-1.82314
11
6.31975
21
-1.81472
0
LINE
8
BLACK
6
CONTINUOUS
10
6.31975
20
-1.81472
11
6.30853
21
-1.80743
0
LINE
8
BLACK
6
CONTINUOUS
10
6.30853
20
-1.80743
11
6.29661
21
-1.80136
0
LINE
8
BLACK
6
CONTINUOUS
10
6.29661
20
-1.80136
11
6.28412
21
-1.79656
0
LINE
8
BLACK
6
CONTINUOUS
10
6.28412
20
-1.79656
11
6.2712
21
-1.7931
0
LINE
8
BLACK
6
CONTINUOUS
10
6.2712
20
-1.7931
11
6.25798
21
-1.79101
0
LINE
8
BLACK
6
CONTINUOUS
10
6.25798
20
-1.79101
11
6.245
21
-1.79033
0
LINE
8
BLACK
6
CONTINUOUS
10
6.245
20
-1.79033
11
6.24462
21
-1.79048
0
LINE
8
BLACK
6
CONTINUOUS
10
6.24462
20
-1.79048
11
5.00462
21
-1.79048
0
LINE
8
BLACK
6
CONTINUOUS
10
5.00462
20
-1.79048
11
5.00425
21
-1.79033
0
LINE
8
BLACK
6
CONTINUOUS
10
6.44269
20
-5.18811
11
6.4451
21
-5.17864
0
LINE
8
BLACK
6
CONTINUOUS
10
6.4451
20
-5.17864
11
6.44888
21
-5.16962
0
LINE
8
BLACK
6
CONTINUOUS
10
6.44888
20
-5.16962
11
6.45395
21
-5.16127
0
LINE
8
BLACK
6
CONTINUOUS
10
6.45395
20
-5.16127
11
6.4602
21
-5.15375
0
LINE
8
BLACK
6
CONTINUOUS
10
6.4602
20
-5.15375
11
6.46749
21
-5.14725
0
LINE
8
BLACK
6
CONTINUOUS
10
6.46749
20
-5.14725
11
6.47566
21
-5.14189
0
LINE
8
BLACK
6
CONTINUOUS
10
6.47566
20
-5.14189
11
6.48454
21
-5.13779
0
LINE
8
BLACK
6
CONTINUOUS
10
6.48454
20
-5.13779
11
6.49392
21
-5.13506
0
LINE
8
BLACK
6
CONTINUOUS
10
6.49392
20
-5.13506
11
6.50361
21
-5.13374
0
LINE
8
BLACK
6
CONTINUOUS
10
6.50361
20
-5.13374
11
6.51338
21
-5.13387
0
LINE
8
BLACK
6
CONTINUOUS
10
6.51338
20
-5.13387
11
6.52303
21
-5.13544
0
LINE
8
BLACK
6
CONTINUOUS
10
6.52303
20
-5.13544
11
6.53234
21
-5.13842
0
LINE
8
BLACK
6
CONTINUOUS
10
6.53234
20
-5.13842
11
6.5411
21
-5.14274
0
LINE
8
BLACK
6
CONTINUOUS
10
6.5411
20
-5.14274
11
6.54913
21
-5.14831
0
LINE
8
BLACK
6
CONTINUOUS
10
6.54913
20
-5.14831
11
6.55625
21
-5.15501
0
LINE
8
BLACK
6
CONTINUOUS
10
6.55625
20
-5.15501
11
6.5623
21
-5.16269
0
LINE
8
BLACK
6
CONTINUOUS
10
6.5623
20
-5.16269
11
6.56715
21
-5.17117
0
LINE
8
BLACK
6
CONTINUOUS
10
6.56715
20
-5.17117
11
6.5707
21
-5.18028
0
LINE
8
BLACK
6
CONTINUOUS
10
6.5707
20
-5.18028
11
6.57285
21
-5.18982
0
LINE
8
BLACK
6
CONTINUOUS
10
6.57285
20
-5.18982
11
6.57358
21
-5.19956
0
LINE
8
BLACK
6
CONTINUOUS
10
6.57358
20
-5.19956
11
6.57349
21
-5.20301
0
LINE
8
BLACK
6
CONTINUOUS
10
6.57349
20
-5.20301
11
6.57225
21
-5.21271
0
LINE
8
BLACK
6
CONTINUOUS
10
6.57225
20
-5.21271
11
6.5696
21
-5.22212
0
LINE
8
BLACK
6
CONTINUOUS
10
6.5696
20
-5.22212
11
6.56559
21
-5.23103
0
LINE
8
BLACK
6
CONTINUOUS
10
6.56559
20
-5.23103
11
6.5603
21
-5.23925
0
LINE
8
BLACK
6
CONTINUOUS
10
6.5603
20
-5.23925
11
6.55386
21
-5.2466
0
LINE
8
BLACK
6
CONTINUOUS
10
6.55386
20
-5.2466
11
6.5464
21
-5.25291
0
LINE
8
BLACK
6
CONTINUOUS
10
6.5464
20
-5.25291
11
6.53808
21
-5.25806
0
LINE
8
BLACK
6
CONTINUOUS
10
6.53808
20
-5.25806
11
6.5291
21
-5.26192
0
LINE
8
BLACK
6
CONTINUOUS
10
6.5291
20
-5.26192
11
6.51965
21
-5.2644
0
LINE
8
BLACK
6
CONTINUOUS
10
6.51965
20
-5.2644
11
6.50994
21
-5.26547
0
LINE
8
BLACK
6
CONTINUOUS
10
6.50994
20
-5.26547
11
6.50017
21
-5.26508
0
LINE
8
BLACK
6
CONTINUOUS
10
6.50017
20
-5.26508
11
6.49057
21
-5.26326
0
LINE
8
BLACK
6
CONTINUOUS
10
6.49057
20
-5.26326
11
6.48134
21
-5.26004
0
LINE
8
BLACK
6
CONTINUOUS
10
6.48134
20
-5.26004
11
6.47269
21
-5.25549
0
LINE
8
BLACK
6
CONTINUOUS
10
6.47269
20
-5.25549
11
6.46481
21
-5.24971
0
LINE
8
BLACK
6
CONTINUOUS
10
6.46481
20
-5.24971
11
6.45786
21
-5.24283
0
LINE
8
BLACK
6
CONTINUOUS
10
6.45786
20
-5.24283
11
6.45202
21
-5.235
0
LINE
8
BLACK
6
CONTINUOUS
10
6.45202
20
-5.235
11
6.44739
21
-5.22639
0
LINE
8
BLACK
6
CONTINUOUS
10
6.44739
20
-5.22639
11
6.44409
21
-5.21719
0
LINE
8
BLACK
6
CONTINUOUS
10
6.44409
20
-5.21719
11
6.44218
21
-5.2076
0
LINE
8
BLACK
6
CONTINUOUS
10
6.44218
20
-5.2076
11
6.44179
21
-5.19956
0
LINE
8
BLACK
6
CONTINUOUS
10
6.44179
20
-5.19956
11
6.44171
21
-5.19784
0
LINE
8
BLACK
6
CONTINUOUS
10
6.44171
20
-5.19784
11
6.44269
21
-5.18811
0
LINE
8
BLACK
6
CONTINUOUS
10
6.44848
20
-5.21878
11
6.45221
21
-5.2278
0
LINE
8
BLACK
6
CONTINUOUS
10
6.45221
20
-5.2278
11
6.45731
21
-5.23612
0
LINE
8
BLACK
6
CONTINUOUS
10
6.45731
20
-5.23612
11
6.46365
21
-5.24354
0
LINE
8
BLACK
6
CONTINUOUS
10
6.46365
20
-5.24354
11
6.47107
21
-5.24988
0
LINE
8
BLACK
6
CONTINUOUS
10
6.47107
20
-5.24988
11
6.4794
21
-5.25498
0
LINE
8
BLACK
6
CONTINUOUS
10
6.4794
20
-5.25498
11
6.48841
21
-5.25872
0
LINE
8
BLACK
6
CONTINUOUS
10
6.48841
20
-5.25872
11
6.4979
21
-5.261
0
LINE
8
BLACK
6
CONTINUOUS
10
6.4979
20
-5.261
11
6.50763
21
-5.26176
0
LINE
8
BLACK
6
CONTINUOUS
10
6.50763
20
-5.26176
11
6.51736
21
-5.261
0
LINE
8
BLACK
6
CONTINUOUS
10
6.51736
20
-5.261
11
6.52685
21
-5.25872
0
LINE
8
BLACK
6
CONTINUOUS
10
6.52685
20
-5.25872
11
6.53587
21
-5.25498
0
LINE
8
BLACK
6
CONTINUOUS
10
6.53587
20
-5.25498
11
6.54419
21
-5.24988
0
LINE
8
BLACK
6
CONTINUOUS
10
6.54419
20
-5.24988
11
6.55162
21
-5.24354
0
LINE
8
BLACK
6
CONTINUOUS
10
6.55162
20
-5.24354
11
6.55795
21
-5.23612
0
LINE
8
BLACK
6
CONTINUOUS
10
6.55795
20
-5.23612
11
6.56305
21
-5.2278
0
LINE
8
BLACK
6
CONTINUOUS
10
6.56305
20
-5.2278
11
6.56679
21
-5.21878
0
LINE
8
BLACK
6
CONTINUOUS
10
6.56679
20
-5.21878
11
6.56907
21
-5.20929
0
LINE
8
BLACK
6
CONTINUOUS
10
6.56907
20
-5.20929
11
6.56983
21
-5.19956
0
LINE
8
BLACK
6
CONTINUOUS
10
6.56983
20
-5.19956
11
6.56907
21
-5.18983
0
LINE
8
BLACK
6
CONTINUOUS
10
6.56907
20
-5.18983
11
6.56679
21
-5.18034
0
LINE
8
BLACK
6
CONTINUOUS
10
6.56679
20
-5.18034
11
6.56305
21
-5.17132
0
LINE
8
BLACK
6
CONTINUOUS
10
6.56305
20
-5.17132
11
6.55795
21
-5.163
0
LINE
8
BLACK
6
CONTINUOUS
10
6.55795
20
-5.163
11
6.55162
21
-5.15558
0
LINE
8
BLACK
6
CONTINUOUS
10
6.55162
20
-5.15558
11
6.54419
21
-5.14924
0
LINE
8
BLACK
6
CONTINUOUS
10
6.54419
20
-5.14924
11
6.53587
21
-5.14414
0
LINE
8
BLACK
6
CONTINUOUS
10
6.53587
20
-5.14414
11
6.52685
21
-5.14041
0
LINE
8
BLACK
6
CONTINUOUS
10
6.52685
20
-5.14041
11
6.51736
21
-5.13813
0
LINE
8
BLACK
6
CONTINUOUS
10
6.51736
20
-5.13813
11
6.50763
21
-5.13736
0
LINE
8
BLACK
6
CONTINUOUS
10
6.50763
20
-5.13736
11
6.4979
21
-5.13813
0
LINE
8
BLACK
6
CONTINUOUS
10
6.4979
20
-5.13813
11
6.48841
21
-5.14041
0
LINE
8
BLACK
6
CONTINUOUS
10
6.48841
20
-5.14041
11
6.4794
21
-5.14414
0
LINE
8
BLACK
6
CONTINUOUS
10
6.4794
20
-5.14414
11
6.47107
21
-5.14924
0
LINE
8
BLACK
6
CONTINUOUS
10
6.47107
20
-5.14924
11
6.46365
21
-5.15558
0
LINE
8
BLACK
6
CONTINUOUS
10
6.46365
20
-5.15558
11
6.45731
21
-5.163
0
LINE
8
BLACK
6
CONTINUOUS
10
6.45731
20
-5.163
11
6.45221
21
-5.17132
0
LINE
8
BLACK
6
CONTINUOUS
10
6.45221
20
-5.17132
11
6.44848
21
-5.18034
0
LINE
8
BLACK
6
CONTINUOUS
10
6.44848
20
-5.18034
11
6.4462
21
-5.18983
0
LINE
8
BLACK
6
CONTINUOUS
10
6.4462
20
-5.18983
11
6.44543
21
-5.19956
0
LINE
8
BLACK
6
CONTINUOUS
10
6.44543
20
-5.19956
11
6.4462
21
-5.20929
0
LINE
8
BLACK
6
CONTINUOUS
10
6.4462
20
-5.20929
11
6.44848
21
-5.21878
0
LINE
8
BLACK
6
CONTINUOUS
10
6.44269
20
-4.73811
11
6.4451
21
-4.72864
0
LINE
8
BLACK
6
CONTINUOUS
10
6.4451
20
-4.72864
11
6.44888
21
-4.71962
0
LINE
8
BLACK
6
CONTINUOUS
10
6.44888
20
-4.71962
11
6.45395
21
-4.71127
0
LINE
8
BLACK
6
CONTINUOUS
10
6.45395
20
-4.71127
11
6.4602
21
-4.70375
0
LINE
8
BLACK
6
CONTINUOUS
10
6.4602
20
-4.70375
11
6.46749
21
-4.69725
0
LINE
8
BLACK
6
CONTINUOUS
10
6.46749
20
-4.69725
11
6.47566
21
-4.69189
0
LINE
8
BLACK
6
CONTINUOUS
10
6.47566
20
-4.69189
11
6.48454
21
-4.68779
0
LINE
8
BLACK
6
CONTINUOUS
10
6.48454
20
-4.68779
11
6.49392
21
-4.68506
0
LINE
8
BLACK
6
CONTINUOUS
10
6.49392
20
-4.68506
11
6.50361
21
-4.68374
0
LINE
8
BLACK
6
CONTINUOUS
10
6.50361
20
-4.68374
11
6.51338
21
-4.68387
0
LINE
8
BLACK
6
CONTINUOUS
10
6.51338
20
-4.68387
11
6.52303
21
-4.68544
0
LINE
8
BLACK
6
CONTINUOUS
10
6.52303
20
-4.68544
11
6.53234
21
-4.68842
0
LINE
8
BLACK
6
CONTINUOUS
10
6.53234
20
-4.68842
11
6.5411
21
-4.69274
0
LINE
8
BLACK
6
CONTINUOUS
10
6.5411
20
-4.69274
11
6.54913
21
-4.69831
0
LINE
8
BLACK
6
CONTINUOUS
10
6.54913
20
-4.69831
11
6.55625
21
-4.70501
0
LINE
8
BLACK
6
CONTINUOUS
10
6.55625
20
-4.70501
11
6.5623
21
-4.71269
0
LINE
8
BLACK
6
CONTINUOUS
10
6.5623
20
-4.71269
11
6.56715
21
-4.72117
0
LINE
8
BLACK
6
CONTINUOUS
10
6.56715
20
-4.72117
11
6.5707
21
-4.73028
0
LINE
8
BLACK
6
CONTINUOUS
10
6.5707
20
-4.73028
11
6.57285
21
-4.73982
0
LINE
8
BLACK
6
CONTINUOUS
10
6.57285
20
-4.73982
11
6.57358
21
-4.74956
0
LINE
8
BLACK
6
CONTINUOUS
10
6.57358
20
-4.74956
11
6.57349
21
-4.75301
0
LINE
8
BLACK
6
CONTINUOUS
10
6.57349
20
-4.75301
11
6.57225
21
-4.76271
0
LINE
8
BLACK
6
CONTINUOUS
10
6.57225
20
-4.76271
11
6.5696
21
-4.77212
0
LINE
8
BLACK
6
CONTINUOUS
10
6.5696
20
-4.77212
11
6.56559
21
-4.78103
0
LINE
8
BLACK
6
CONTINUOUS
10
6.56559
20
-4.78103
11
6.5603
21
-4.78925
0
LINE
8
BLACK
6
CONTINUOUS
10
6.5603
20
-4.78925
11
6.55386
21
-4.7966
0
LINE
8
BLACK
6
CONTINUOUS
10
6.55386
20
-4.7966
11
6.5464
21
-4.80291
0
LINE
8
BLACK
6
CONTINUOUS
10
6.5464
20
-4.80291
11
6.53808
21
-4.80806
0
LINE
8
BLACK
6
CONTINUOUS
10
6.53808
20
-4.80806
11
6.5291
21
-4.81192
0
LINE
8
BLACK
6
CONTINUOUS
10
6.5291
20
-4.81192
11
6.51965
21
-4.8144
0
LINE
8
BLACK
6
CONTINUOUS
10
6.51965
20
-4.8144
11
6.50994
21
-4.81547
0
LINE
8
BLACK
6
CONTINUOUS
10
6.50994
20
-4.81547
11
6.50017
21
-4.81508
0
LINE
8
BLACK
6
CONTINUOUS
10
6.50017
20
-4.81508
11
6.49057
21
-4.81326
0
LINE
8
BLACK
6
CONTINUOUS
10
6.49057
20
-4.81326
11
6.48134
21
-4.81004
0
LINE
8
BLACK
6
CONTINUOUS
10
6.48134
20
-4.81004
11
6.47269
21
-4.80549
0
LINE
8
BLACK
6
CONTINUOUS
10
6.47269
20
-4.80549
11
6.46481
21
-4.79971
0
LINE
8
BLACK
6
CONTINUOUS
10
6.46481
20
-4.79971
11
6.45786
21
-4.79283
0
LINE
8
BLACK
6
CONTINUOUS
10
6.45786
20
-4.79283
11
6.45202
21
-4.785
0
LINE
8
BLACK
6
CONTINUOUS
10
6.45202
20
-4.785
11
6.44739
21
-4.77639
0
LINE
8
BLACK
6
CONTINUOUS
10
6.44739
20
-4.77639
11
6.44409
21
-4.76719
0
LINE
8
BLACK
6
CONTINUOUS
10
6.44409
20
-4.76719
11
6.44218
21
-4.7576
0
LINE
8
BLACK
6
CONTINUOUS
10
6.44218
20
-4.7576
11
6.44179
21
-4.74956
0
LINE
8
BLACK
6
CONTINUOUS
10
6.44179
20
-4.74956
11
6.44171
21
-4.74784
0
LINE
8
BLACK
6
CONTINUOUS
10
6.44171
20
-4.74784
11
6.44269
21
-4.73811
0
LINE
8
BLACK
6
CONTINUOUS
10
6.44848
20
-4.76878
11
6.45221
21
-4.7778
0
LINE
8
BLACK
6
CONTINUOUS
10
6.45221
20
-4.7778
11
6.45731
21
-4.78612
0
LINE
8
BLACK
6
CONTINUOUS
10
6.45731
20
-4.78612
11
6.46365
21
-4.79354
0
LINE
8
BLACK
6
CONTINUOUS
10
6.46365
20
-4.79354
11
6.47107
21
-4.79988
0
LINE
8
BLACK
6
CONTINUOUS
10
6.47107
20
-4.79988
11
6.4794
21
-4.80498
0
LINE
8
BLACK
6
CONTINUOUS
10
6.4794
20
-4.80498
11
6.48841
21
-4.80872
0
LINE
8
BLACK
6
CONTINUOUS
10
6.48841
20
-4.80872
11
6.4979
21
-4.811
0
LINE
8
BLACK
6
CONTINUOUS
10
6.4979
20
-4.811
11
6.50763
21
-4.81176
0
LINE
8
BLACK
6
CONTINUOUS
10
6.50763
20
-4.81176
11
6.51736
21
-4.811
0
LINE
8
BLACK
6
CONTINUOUS
10
6.51736
20
-4.811
11
6.52685
21
-4.80872
0
LINE
8
BLACK
6
CONTINUOUS
10
6.52685
20
-4.80872
11
6.53587
21
-4.80498
0
LINE
8
BLACK
6
CONTINUOUS
10
6.53587
20
-4.80498
11
6.54419
21
-4.79988
0
LINE
8
BLACK
6
CONTINUOUS
10
6.54419
20
-4.79988
11
6.55162
21
-4.79354
0
LINE
8
BLACK
6
CONTINUOUS
10
6.55162
20
-4.79354
11
6.55795
21
-4.78612
0
LINE
8
BLACK
6
CONTINUOUS
10
6.55795
20
-4.78612
11
6.56305
21
-4.7778
0
LINE
8
BLACK
6
CONTINUOUS
10
6.56305
20
-4.7778
11
6.56679
21
-4.76878
0
LINE
8
BLACK
6
CONTINUOUS
10
6.56679
20
-4.76878
11
6.56907
21
-4.75929
0
LINE
8
BLACK
6
CONTINUOUS
10
6.56907
20
-4.75929
11
6.56983
21
-4.74956
0
LINE
8
BLACK
6
CONTINUOUS
10
6.56983
20
-4.74956
11
6.56907
21
-4.73983
0
LINE
8
BLACK
6
CONTINUOUS
10
6.56907
20
-4.73983
11
6.56679
21
-4.73034
0
LINE
8
BLACK
6
CONTINUOUS
10
6.56679
20
-4.73034
11
6.56305
21
-4.72132
0
LINE
8
BLACK
6
CONTINUOUS
10
6.56305
20
-4.72132
11
6.55795
21
-4.713
0
LINE
8
BLACK
6
CONTINUOUS
10
6.55795
20
-4.713
11
6.55162
21
-4.70558
0
LINE
8
BLACK
6
CONTINUOUS
10
6.55162
20
-4.70558
11
6.54419
21
-4.69924
0
LINE
8
BLACK
6
CONTINUOUS
10
6.54419
20
-4.69924
11
6.53587
21
-4.69414
0
LINE
8
BLACK
6
CONTINUOUS
10
6.53587
20
-4.69414
11
6.52685
21
-4.69041
0
LINE
8
BLACK
6
CONTINUOUS
10
6.52685
20
-4.69041
11
6.51736
21
-4.68813
0
LINE
8
BLACK
6
CONTINUOUS
10
6.51736
20
-4.68813
11
6.50763
21
-4.68736
0
LINE
8
BLACK
6
CONTINUOUS
10
6.50763
20
-4.68736
11
6.4979
21
-4.68813
0
LINE
8
BLACK
6
CONTINUOUS
10
6.4979
20
-4.68813
11
6.48841
21
-4.69041
0
LINE
8
BLACK
6
CONTINUOUS
10
6.48841
20
-4.69041
11
6.4794
21
-4.69414
0
LINE
8
BLACK
6
CONTINUOUS
10
6.4794
20
-4.69414
11
6.47107
21
-4.69924
0
LINE
8
BLACK
6
CONTINUOUS
10
6.47107
20
-4.69924
11
6.46365
21
-4.70558
0
LINE
8
BLACK
6
CONTINUOUS
10
6.46365
20
-4.70558
11
6.45731
21
-4.713
0
LINE
8
BLACK
6
CONTINUOUS
10
6.45731
20
-4.713
11
6.45221
21
-4.72132
0
LINE
8
BLACK
6
CONTINUOUS
10
6.45221
20
-4.72132
11
6.44848
21
-4.73034
0
LINE
8
BLACK
6
CONTINUOUS
10
6.44848
20
-4.73034
11
6.4462
21
-4.73983
0
LINE
8
BLACK
6
CONTINUOUS
10
6.4462
20
-4.73983
11
6.44543
21
-4.74956
0
LINE
8
BLACK
6
CONTINUOUS
10
6.44543
20
-4.74956
11
6.4462
21
-4.75929
0
LINE
8
BLACK
6
CONTINUOUS
10
6.4462
20
-4.75929
11
6.44848
21
-4.76878
0
LINE
8
BLACK
6
CONTINUOUS
10
6.44269
20
-4.43536
11
6.4451
21
-4.42588
0
LINE
8
BLACK
6
CONTINUOUS
10
6.4451
20
-4.42588
11
6.44888
21
-4.41687
0
LINE
8
BLACK
6
CONTINUOUS
10
6.44888
20
-4.41687
11
6.45395
21
-4.40851
0
LINE
8
BLACK
6
CONTINUOUS
10
6.45395
20
-4.40851
11
6.4602
21
-4.401
0
LINE
8
BLACK
6
CONTINUOUS
10
6.4602
20
-4.401
11
6.46749
21
-4.39449
0
LINE
8
BLACK
6
CONTINUOUS
10
6.46749
20
-4.39449
11
6.47566
21
-4.38913
0
LINE
8
BLACK
6
CONTINUOUS
10
6.47566
20
-4.38913
11
6.48454
21
-4.38504
0
LINE
8
BLACK
6
CONTINUOUS
10
6.48454
20
-4.38504
11
6.49392
21
-4.3823
0
LINE
8
BLACK
6
CONTINUOUS
10
6.49392
20
-4.3823
11
6.50361
21
-4.38099
0
LINE
8
BLACK
6
CONTINUOUS
10
6.50361
20
-4.38099
11
6.51338
21
-4.38111
0
LINE
8
BLACK
6
CONTINUOUS
10
6.51338
20
-4.38111
11
6.52303
21
-4.38268
0
LINE
8
BLACK
6
CONTINUOUS
10
6.52303
20
-4.38268
11
6.53234
21
-4.38566
0
LINE
8
BLACK
6
CONTINUOUS
10
6.53234
20
-4.38566
11
6.5411
21
-4.38999
0
LINE
8
BLACK
6
CONTINUOUS
10
6.5411
20
-4.38999
11
6.54913
21
-4.39556
0
LINE
8
BLACK
6
CONTINUOUS
10
6.54913
20
-4.39556
11
6.55625
21
-4.40226
0
LINE
8
BLACK
6
CONTINUOUS
10
6.55625
20
-4.40226
11
6.5623
21
-4.40993
0
LINE
8
BLACK
6
CONTINUOUS
10
6.5623
20
-4.40993
11
6.56715
21
-4.41842
0
LINE
8
BLACK
6
CONTINUOUS
10
6.56715
20
-4.41842
11
6.5707
21
-4.42753
0
LINE
8
BLACK
6
CONTINUOUS
10
6.5707
20
-4.42753
11
6.57285
21
-4.43706
0
LINE
8
BLACK
6
CONTINUOUS
10
6.57285
20
-4.43706
11
6.57358
21
-4.44681
0
LINE
8
BLACK
6
CONTINUOUS
10
6.57358
20
-4.44681
11
6.57349
21
-4.45026
0
LINE
8
BLACK
6
CONTINUOUS
10
6.57349
20
-4.45026
11
6.57225
21
-4.45995
0
LINE
8
BLACK
6
CONTINUOUS
10
6.57225
20
-4.45995
11
6.5696
21
-4.46936
0
LINE
8
BLACK
6
CONTINUOUS
10
6.5696
20
-4.46936
11
6.56559
21
-4.47827
0
LINE
8
BLACK
6
CONTINUOUS
10
6.56559
20
-4.47827
11
6.5603
21
-4.48649
0
LINE
8
BLACK
6
CONTINUOUS
10
6.5603
20
-4.48649
11
6.55386
21
-4.49384
0
LINE
8
BLACK
6
CONTINUOUS
10
6.55386
20
-4.49384
11
6.5464
21
-4.50016
0
LINE
8
BLACK
6
CONTINUOUS
10
6.5464
20
-4.50016
11
6.53808
21
-4.5053
0
LINE
8
BLACK
6
CONTINUOUS
10
6.53808
20
-4.5053
11
6.5291
21
-4.50916
0
LINE
8
BLACK
6
CONTINUOUS
10
6.5291
20
-4.50916
11
6.51965
21
-4.51165
0
LINE
8
BLACK
6
CONTINUOUS
10
6.51965
20
-4.51165
11
6.50994
21
-4.51271
0
LINE
8
BLACK
6
CONTINUOUS
10
6.50994
20
-4.51271
11
6.50017
21
-4.51233
0
LINE
8
BLACK
6
CONTINUOUS
10
6.50017
20
-4.51233
11
6.49057
21
-4.5105
0
LINE
8
BLACK
6
CONTINUOUS
10
6.49057
20
-4.5105
11
6.48134
21
-4.50728
0
LINE
8
BLACK
6
CONTINUOUS
10
6.48134
20
-4.50728
11
6.47269
21
-4.50273
0
LINE
8
BLACK
6
CONTINUOUS
10
6.47269
20
-4.50273
11
6.46481
21
-4.49695
0
LINE
8
BLACK
6
CONTINUOUS
10
6.46481
20
-4.49695
11
6.45786
21
-4.49007
0
LINE
8
BLACK
6
CONTINUOUS
10
6.45786
20
-4.49007
11
6.45202
21
-4.48224
0
LINE
8
BLACK
6
CONTINUOUS
10
6.45202
20
-4.48224
11
6.44739
21
-4.47363
0
LINE
8
BLACK
6
CONTINUOUS
10
6.44739
20
-4.47363
11
6.44409
21
-4.46443
0
LINE
8
BLACK
6
CONTINUOUS
10
6.44409
20
-4.46443
11
6.44218
21
-4.45484
0
LINE
8
BLACK
6
CONTINUOUS
10
6.44218
20
-4.45484
11
6.44179
21
-4.44681
0
LINE
8
BLACK
6
CONTINUOUS
10
6.44179
20
-4.44681
11
6.44171
21
-4.44508
0
LINE
8
BLACK
6
CONTINUOUS
10
6.44171
20
-4.44508
11
6.44269
21
-4.43536
0
LINE
8
BLACK
6
CONTINUOUS
10
6.44848
20
-4.46603
11
6.45221
21
-4.47505
0
LINE
8
BLACK
6
CONTINUOUS
10
6.45221
20
-4.47505
11
6.45731
21
-4.48337
0
LINE
8
BLACK
6
CONTINUOUS
10
6.45731
20
-4.48337
11
6.46365
21
-4.49079
0
LINE
8
BLACK
6
CONTINUOUS
10
6.46365
20
-4.49079
11
6.47107
21
-4.49713
0
LINE
8
BLACK
6
CONTINUOUS
10
6.47107
20
-4.49713
11
6.4794
21
-4.50223
0
LINE
8
BLACK
6
CONTINUOUS
10
6.4794
20
-4.50223
11
6.48841
21
-4.50596
0
LINE
8
BLACK
6
CONTINUOUS
10
6.48841
20
-4.50596
11
6.4979
21
-4.50824
0
LINE
8
BLACK
6
CONTINUOUS
10
6.4979
20
-4.50824
11
6.50763
21
-4.50901
0
LINE
8
BLACK
6
CONTINUOUS
10
6.50763
20
-4.50901
11
6.51736
21
-4.50824
0
LINE
8
BLACK
6
CONTINUOUS
10
6.51736
20
-4.50824
11
6.52685
21
-4.50596
0
LINE
8
BLACK
6
CONTINUOUS
10
6.52685
20
-4.50596
11
6.53587
21
-4.50223
0
LINE
8
BLACK
6
CONTINUOUS
10
6.53587
20
-4.50223
11
6.54419
21
-4.49713
0
LINE
8
BLACK
6
CONTINUOUS
10
6.54419
20
-4.49713
11
6.55162
21
-4.49079
0
LINE
8
BLACK
6
CONTINUOUS
10
6.55162
20
-4.49079
11
6.55795
21
-4.48337
0
LINE
8
BLACK
6
CONTINUOUS
10
6.55795
20
-4.48337
11
6.56305
21
-4.47505
0
LINE
8
BLACK
6
CONTINUOUS
10
6.56305
20
-4.47505
11
6.56679
21
-4.46603
0
LINE
8
BLACK
6
CONTINUOUS
10
6.56679
20
-4.46603
11
6.56907
21
-4.45654
0
LINE
8
BLACK
6
CONTINUOUS
10
6.56907
20
-4.45654
11
6.56983
21
-4.44681
0
LINE
8
BLACK
6
CONTINUOUS
10
6.56983
20
-4.44681
11
6.56907
21
-4.43708
0
LINE
8
BLACK
6
CONTINUOUS
10
6.56907
20
-4.43708
11
6.56679
21
-4.42759
0
LINE
8
BLACK
6
CONTINUOUS
10
6.56679
20
-4.42759
11
6.56305
21
-4.41857
0
LINE
8
BLACK
6
CONTINUOUS
10
6.56305
20
-4.41857
11
6.55795
21
-4.41025
0
LINE
8
BLACK
6
CONTINUOUS
10
6.55795
20
-4.41025
11
6.55162
21
-4.40283
0
LINE
8
BLACK
6
CONTINUOUS
10
6.55162
20
-4.40283
11
6.54419
21
-4.39649
0
LINE
8
BLACK
6
CONTINUOUS
10
6.54419
20
-4.39649
11
6.53587
21
-4.39139
0
LINE
8
BLACK
6
CONTINUOUS
10
6.53587
20
-4.39139
11
6.52685
21
-4.38765
0
LINE
8
BLACK
6
CONTINUOUS
10
6.52685
20
-4.38765
11
6.51736
21
-4.38537
0
LINE
8
BLACK
6
CONTINUOUS
10
6.51736
20
-4.38537
11
6.50763
21
-4.38461
0
LINE
8
BLACK
6
CONTINUOUS
10
6.50763
20
-4.38461
11
6.4979
21
-4.38537
0
LINE
8
BLACK
6
CONTINUOUS
10
6.4979
20
-4.38537
11
6.48841
21
-4.38765
0
LINE
8
BLACK
6
CONTINUOUS
10
6.48841
20
-4.38765
11
6.4794
21
-4.39139
0
LINE
8
BLACK
6
CONTINUOUS
10
6.4794
20
-4.39139
11
6.47107
21
-4.39649
0
LINE
8
BLACK
6
CONTINUOUS
10
6.47107
20
-4.39649
11
6.46365
21
-4.40283
0
LINE
8
BLACK
6
CONTINUOUS
10
6.46365
20
-4.40283
11
6.45731
21
-4.41025
0
LINE
8
BLACK
6
CONTINUOUS
10
6.45731
20
-4.41025
11
6.45221
21
-4.41857
0
LINE
8
BLACK
6
CONTINUOUS
10
6.45221
20
-4.41857
11
6.44848
21
-4.42759
0
LINE
8
BLACK
6
CONTINUOUS
10
6.44848
20
-4.42759
11
6.4462
21
-4.43708
0
LINE
8
BLACK
6
CONTINUOUS
10
6.4462
20
-4.43708
11
6.44543
21
-4.44681
0
LINE
8
BLACK
6
CONTINUOUS
10
6.44543
20
-4.44681
11
6.4462
21
-4.45654
0
LINE
8
BLACK
6
CONTINUOUS
10
6.4462
20
-4.45654
11
6.44848
21
-4.46603
0
LINE
8
BLACK
6
CONTINUOUS
10
3.64742
20
-4.18417
11
3.64982
21
-4.1747
0
LINE
8
BLACK
6
CONTINUOUS
10
3.64982
20
-4.1747
11
3.6536
21
-4.16569
0
LINE
8
BLACK
6
CONTINUOUS
10
3.6536
20
-4.16569
11
3.65867
21
-4.15733
0
LINE
8
BLACK
6
CONTINUOUS
10
3.65867
20
-4.15733
11
3.66492
21
-4.14982
0
LINE
8
BLACK
6
CONTINUOUS
10
3.66492
20
-4.14982
11
3.67221
21
-4.14331
0
LINE
8
BLACK
6
CONTINUOUS
10
3.67221
20
-4.14331
11
3.68039
21
-4.13795
0
LINE
8
BLACK
6
CONTINUOUS
10
3.68039
20
-4.13795
11
3.68926
21
-4.13386
0
LINE
8
BLACK
6
CONTINUOUS
10
3.68926
20
-4.13386
11
3.69865
21
-4.13112
0
LINE
8
BLACK
6
CONTINUOUS
10
3.69865
20
-4.13112
11
3.70833
21
-4.1298
0
LINE
8
BLACK
6
CONTINUOUS
10
3.70833
20
-4.1298
11
3.71811
21
-4.12993
0
LINE
8
BLACK
6
CONTINUOUS
10
3.71811
20
-4.12993
11
3.72775
21
-4.1315
0
LINE
8
BLACK
6
CONTINUOUS
10
3.72775
20
-4.1315
11
3.73706
21
-4.13448
0
LINE
8
BLACK
6
CONTINUOUS
10
3.73706
20
-4.13448
11
3.74583
21
-4.13881
0
LINE
8
BLACK
6
CONTINUOUS
10
3.74583
20
-4.13881
11
3.75386
21
-4.14438
0
LINE
8
BLACK
6
CONTINUOUS
10
3.75386
20
-4.14438
11
3.76098
21
-4.15107
0
LINE
8
BLACK
6
CONTINUOUS
10
3.76098
20
-4.15107
11
3.76703
21
-4.15875
0
LINE
8
BLACK
6
CONTINUOUS
10
3.76703
20
-4.15875
11
3.77188
21
-4.16724
0
LINE
8
BLACK
6
CONTINUOUS
10
3.77188
20
-4.16724
11
3.77542
21
-4.17635
0
LINE
8
BLACK
6
CONTINUOUS
10
3.77542
20
-4.17635
11
3.77758
21
-4.18588
0
LINE
8
BLACK
6
CONTINUOUS
10
3.77758
20
-4.18588
11
3.7783
21
-4.19563
0
LINE
8
BLACK
6
CONTINUOUS
10
3.7783
20
-4.19563
11
3.77821
21
-4.19908
0
LINE
8
BLACK
6
CONTINUOUS
10
3.77821
20
-4.19908
11
3.77698
21
-4.20877
0
LINE
8
BLACK
6
CONTINUOUS
10
3.77698
20
-4.20877
11
3.77433
21
-4.21818
0
LINE
8
BLACK
6
CONTINUOUS
10
3.77433
20
-4.21818
11
3.77031
21
-4.22709
0
LINE
8
BLACK
6
CONTINUOUS
10
3.77031
20
-4.22709
11
3.76502
21
-4.23531
0
LINE
8
BLACK
6
CONTINUOUS
10
3.76502
20
-4.23531
11
3.75858
21
-4.24266
0
LINE
8
BLACK
6
CONTINUOUS
10
3.75858
20
-4.24266
11
3.75112
21
-4.24898
0
LINE
8
BLACK
6
CONTINUOUS
10
3.75112
20
-4.24898
11
3.74281
21
-4.25412
0
LINE
8
BLACK
6
CONTINUOUS
10
3.74281
20
-4.25412
11
3.73383
21
-4.25798
0
LINE
8
BLACK
6
CONTINUOUS
10
3.73383
20
-4.25798
11
3.72438
21
-4.26047
0
LINE
8
BLACK
6
CONTINUOUS
10
3.72438
20
-4.26047
11
3.71466
21
-4.26153
0
LINE
8
BLACK
6
CONTINUOUS
10
3.71466
20
-4.26153
11
3.70489
21
-4.26115
0
LINE
8
BLACK
6
CONTINUOUS
10
3.70489
20
-4.26115
11
3.69529
21
-4.25932
0
LINE
8
BLACK
6
CONTINUOUS
10
3.69529
20
-4.25932
11
3.68606
21
-4.2561
0
LINE
8
BLACK
6
CONTINUOUS
10
3.68606
20
-4.2561
11
3.67741
21
-4.25155
0
LINE
8
BLACK
6
CONTINUOUS
10
3.67741
20
-4.25155
11
3.66953
21
-4.24577
0
LINE
8
BLACK
6
CONTINUOUS
10
3.66953
20
-4.24577
11
3.66259
21
-4.23889
0
LINE
8
BLACK
6
CONTINUOUS
10
3.66259
20
-4.23889
11
3.65674
21
-4.23106
0
LINE
8
BLACK
6
CONTINUOUS
10
3.65674
20
-4.23106
11
3.65211
21
-4.22245
0
LINE
8
BLACK
6
CONTINUOUS
10
3.65211
20
-4.22245
11
3.64881
21
-4.21325
0
LINE
8
BLACK
6
CONTINUOUS
10
3.64881
20
-4.21325
11
3.6469
21
-4.20366
0
LINE
8
BLACK
6
CONTINUOUS
10
3.6469
20
-4.20366
11
3.64652
21
-4.19563
0
LINE
8
BLACK
6
CONTINUOUS
10
3.64652
20
-4.19563
11
3.64644
21
-4.1939
0
LINE
8
BLACK
6
CONTINUOUS
10
3.64644
20
-4.1939
11
3.64742
21
-4.18417
0
LINE
8
BLACK
6
CONTINUOUS
10
3.6532
20
-4.21485
11
3.65694
21
-4.22386
0
LINE
8
BLACK
6
CONTINUOUS
10
3.65694
20
-4.22386
11
3.66204
21
-4.23219
0
LINE
8
BLACK
6
CONTINUOUS
10
3.66204
20
-4.23219
11
3.66838
21
-4.23961
0
LINE
8
BLACK
6
CONTINUOUS
10
3.66838
20
-4.23961
11
3.6758
21
-4.24595
0
LINE
8
BLACK
6
CONTINUOUS
10
3.6758
20
-4.24595
11
3.68412
21
-4.25105
0
LINE
8
BLACK
6
CONTINUOUS
10
3.68412
20
-4.25105
11
3.69314
21
-4.25478
0
LINE
8
BLACK
6
CONTINUOUS
10
3.69314
20
-4.25478
11
3.70263
21
-4.25706
0
LINE
8
BLACK
6
CONTINUOUS
10
3.70263
20
-4.25706
11
3.71236
21
-4.25783
0
LINE
8
BLACK
6
CONTINUOUS
10
3.71236
20
-4.25783
11
3.72209
21
-4.25706
0
LINE
8
BLACK
6
CONTINUOUS
10
3.72209
20
-4.25706
11
3.73158
21
-4.25478
0
LINE
8
BLACK
6
CONTINUOUS
10
3.73158
20
-4.25478
11
3.7406
21
-4.25105
0
LINE
8
BLACK
6
CONTINUOUS
10
3.7406
20
-4.25105
11
3.74892
21
-4.24595
0
LINE
8
BLACK
6
CONTINUOUS
10
3.74892
20
-4.24595
11
3.75634
21
-4.23961
0
LINE
8
BLACK
6
CONTINUOUS
10
3.75634
20
-4.23961
11
3.76268
21
-4.23219
0
LINE
8
BLACK
6
CONTINUOUS
10
3.76268
20
-4.23219
11
3.76778
21
-4.22386
0
LINE
8
BLACK
6
CONTINUOUS
10
3.76778
20
-4.22386
11
3.77151
21
-4.21485
0
LINE
8
BLACK
6
CONTINUOUS
10
3.77151
20
-4.21485
11
3.77379
21
-4.20536
0
LINE
8
BLACK
6
CONTINUOUS
10
3.77379
20
-4.20536
11
3.77456
21
-4.19563
0
LINE
8
BLACK
6
CONTINUOUS
10
3.77456
20
-4.19563
11
3.77379
21
-4.1859
0
LINE
8
BLACK
6
CONTINUOUS
10
3.77379
20
-4.1859
11
3.77151
21
-4.17641
0
LINE
8
BLACK
6
CONTINUOUS
10
3.77151
20
-4.17641
11
3.76778
21
-4.16739
0
LINE
8
BLACK
6
CONTINUOUS
10
3.76778
20
-4.16739
11
3.76268
21
-4.15907
0
LINE
8
BLACK
6
CONTINUOUS
10
3.76268
20
-4.15907
11
3.75634
21
-4.15164
0
LINE
8
BLACK
6
CONTINUOUS
10
3.75634
20
-4.15164
11
3.74892
21
-4.14531
0
LINE
8
BLACK
6
CONTINUOUS
10
3.74892
20
-4.14531
11
3.7406
21
-4.14021
0
LINE
8
BLACK
6
CONTINUOUS
10
3.7406
20
-4.14021
11
3.73158
21
-4.13647
0
LINE
8
BLACK
6
CONTINUOUS
10
3.73158
20
-4.13647
11
3.72209
21
-4.13419
0
LINE
8
BLACK
6
CONTINUOUS
10
3.72209
20
-4.13419
11
3.71236
21
-4.13343
0
LINE
8
BLACK
6
CONTINUOUS
10
3.71236
20
-4.13343
11
3.70263
21
-4.13419
0
LINE
8
BLACK
6
CONTINUOUS
10
3.70263
20
-4.13419
11
3.69314
21
-4.13647
0
LINE
8
BLACK
6
CONTINUOUS
10
3.69314
20
-4.13647
11
3.68412
21
-4.14021
0
LINE
8
BLACK
6
CONTINUOUS
10
3.68412
20
-4.14021
11
3.6758
21
-4.14531
0
LINE
8
BLACK
6
CONTINUOUS
10
3.6758
20
-4.14531
11
3.66838
21
-4.15164
0
LINE
8
BLACK
6
CONTINUOUS
10
3.66838
20
-4.15164
11
3.66204
21
-4.15907
0
LINE
8
BLACK
6
CONTINUOUS
10
3.66204
20
-4.15907
11
3.65694
21
-4.16739
0
LINE
8
BLACK
6
CONTINUOUS
10
3.65694
20
-4.16739
11
3.6532
21
-4.17641
0
LINE
8
BLACK
6
CONTINUOUS
10
3.6532
20
-4.17641
11
3.65092
21
-4.1859
0
LINE
8
BLACK
6
CONTINUOUS
10
3.65092
20
-4.1859
11
3.65016
21
-4.19563
0
LINE
8
BLACK
6
CONTINUOUS
10
3.65016
20
-4.19563
11
3.65092
21
-4.20536
0
LINE
8
BLACK
6
CONTINUOUS
10
3.65092
20
-4.20536
11
3.6532
21
-4.21485
0
LINE
8
BLACK
6
CONTINUOUS
10
6.44269
20
-3.98536
11
6.4451
21
-3.97588
0
LINE
8
BLACK
6
CONTINUOUS
10
6.4451
20
-3.97588
11
6.44888
21
-3.96687
0
LINE
8
BLACK
6
CONTINUOUS
10
6.44888
20
-3.96687
11
6.45395
21
-3.95851
0
LINE
8
BLACK
6
CONTINUOUS
10
6.45395
20
-3.95851
11
6.4602
21
-3.951
0
LINE
8
BLACK
6
CONTINUOUS
10
6.4602
20
-3.951
11
6.46749
21
-3.94449
0
LINE
8
BLACK
6
CONTINUOUS
10
6.46749
20
-3.94449
11
6.47566
21
-3.93913
0
LINE
8
BLACK
6
CONTINUOUS
10
6.47566
20
-3.93913
11
6.48454
21
-3.93504
0
LINE
8
BLACK
6
CONTINUOUS
10
6.48454
20
-3.93504
11
6.49392
21
-3.9323
0
LINE
8
BLACK
6
CONTINUOUS
10
6.49392
20
-3.9323
11
6.50361
21
-3.93099
0
LINE
8
BLACK
6
CONTINUOUS
10
6.50361
20
-3.93099
11
6.51338
21
-3.93111
0
LINE
8
BLACK
6
CONTINUOUS
10
6.51338
20
-3.93111
11
6.52303
21
-3.93268
0
LINE
8
BLACK
6
CONTINUOUS
10
6.52303
20
-3.93268
11
6.53234
21
-3.93566
0
LINE
8
BLACK
6
CONTINUOUS
10
6.53234
20
-3.93566
11
6.5411
21
-3.93999
0
LINE
8
BLACK
6
CONTINUOUS
10
6.5411
20
-3.93999
11
6.54913
21
-3.94556
0
LINE
8
BLACK
6
CONTINUOUS
10
6.54913
20
-3.94556
11
6.55625
21
-3.95226
0
LINE
8
BLACK
6
CONTINUOUS
10
6.55625
20
-3.95226
11
6.5623
21
-3.95993
0
LINE
8
BLACK
6
CONTINUOUS
10
6.5623
20
-3.95993
11
6.56715
21
-3.96842
0
LINE
8
BLACK
6
CONTINUOUS
10
6.56715
20
-3.96842
11
6.5707
21
-3.97753
0
LINE
8
BLACK
6
CONTINUOUS
10
6.5707
20
-3.97753
11
6.57285
21
-3.98706
0
LINE
8
BLACK
6
CONTINUOUS
10
6.57285
20
-3.98706
11
6.57358
21
-3.99681
0
LINE
8
BLACK
6
CONTINUOUS
10
6.57358
20
-3.99681
11
6.57349
21
-4.00026
0
LINE
8
BLACK
6
CONTINUOUS
10
6.57349
20
-4.00026
11
6.57225
21
-4.00995
0
LINE
8
BLACK
6
CONTINUOUS
10
6.57225
20
-4.00995
11
6.5696
21
-4.01936
0
LINE
8
BLACK
6
CONTINUOUS
10
6.5696
20
-4.01936
11
6.56559
21
-4.02827
0
LINE
8
BLACK
6
CONTINUOUS
10
6.56559
20
-4.02827
11
6.5603
21
-4.03649
0
LINE
8
BLACK
6
CONTINUOUS
10
6.5603
20
-4.03649
11
6.55386
21
-4.04384
0
LINE
8
BLACK
6
CONTINUOUS
10
6.55386
20
-4.04384
11
6.5464
21
-4.05016
0
LINE
8
BLACK
6
CONTINUOUS
10
6.5464
20
-4.05016
11
6.53808
21
-4.0553
0
LINE
8
BLACK
6
CONTINUOUS
10
6.53808
20
-4.0553
11
6.5291
21
-4.05916
0
LINE
8
BLACK
6
CONTINUOUS
10
6.5291
20
-4.05916
11
6.51965
21
-4.06165
0
LINE
8
BLACK
6
CONTINUOUS
10
6.51965
20
-4.06165
11
6.50994
21
-4.06271
0
LINE
8
BLACK
6
CONTINUOUS
10
6.50994
20
-4.06271
11
6.50017
21
-4.06233
0
LINE
8
BLACK
6
CONTINUOUS
10
6.50017
20
-4.06233
11
6.49057
21
-4.0605
0
LINE
8
BLACK
6
CONTINUOUS
10
6.49057
20
-4.0605
11
6.48134
21
-4.05728
0
LINE
8
BLACK
6
CONTINUOUS
10
6.48134
20
-4.05728
11
6.47269
21
-4.05273
0
LINE
8
BLACK
6
CONTINUOUS
10
6.47269
20
-4.05273
11
6.46481
21
-4.04695
0
LINE
8
BLACK
6
CONTINUOUS
10
6.46481
20
-4.04695
11
6.45786
21
-4.04007
0
LINE
8
BLACK
6
CONTINUOUS
10
6.45786
20
-4.04007
11
6.45202
21
-4.03224
0
LINE
8
BLACK
6
CONTINUOUS
10
6.45202
20
-4.03224
11
6.44739
21
-4.02363
0
LINE
8
BLACK
6
CONTINUOUS
10
6.44739
20
-4.02363
11
6.44409
21
-4.01443
0
LINE
8
BLACK
6
CONTINUOUS
10
6.44409
20
-4.01443
11
6.44218
21
-4.00484
0
LINE
8
BLACK
6
CONTINUOUS
10
6.44218
20
-4.00484
11
6.44179
21
-3.99681
0
LINE
8
BLACK
6
CONTINUOUS
10
6.44179
20
-3.99681
11
6.44171
21
-3.99508
0
LINE
8
BLACK
6
CONTINUOUS
10
6.44171
20
-3.99508
11
6.44269
21
-3.98536
0
LINE
8
BLACK
6
CONTINUOUS
10
6.44848
20
-4.01603
11
6.45221
21
-4.02505
0
LINE
8
BLACK
6
CONTINUOUS
10
6.45221
20
-4.02505
11
6.45731
21
-4.03337
0
LINE
8
BLACK
6
CONTINUOUS
10
6.45731
20
-4.03337
11
6.46365
21
-4.04079
0
LINE
8
BLACK
6
CONTINUOUS
10
6.46365
20
-4.04079
11
6.47107
21
-4.04713
0
LINE
8
BLACK
6
CONTINUOUS
10
6.47107
20
-4.04713
11
6.4794
21
-4.05223
0
LINE
8
BLACK
6
CONTINUOUS
10
6.4794
20
-4.05223
11
6.48841
21
-4.05596
0
LINE
8
BLACK
6
CONTINUOUS
10
6.48841
20
-4.05596
11
6.4979
21
-4.05824
0
LINE
8
BLACK
6
CONTINUOUS
10
6.4979
20
-4.05824
11
6.50763
21
-4.05901
0
LINE
8
BLACK
6
CONTINUOUS
10
6.50763
20
-4.05901
11
6.51736
21
-4.05824
0
LINE
8
BLACK
6
CONTINUOUS
10
6.51736
20
-4.05824
11
6.52685
21
-4.05596
0
LINE
8
BLACK
6
CONTINUOUS
10
6.52685
20
-4.05596
11
6.53587
21
-4.05223
0
LINE
8
BLACK
6
CONTINUOUS
10
6.53587
20
-4.05223
11
6.54419
21
-4.04713
0
LINE
8
BLACK
6
CONTINUOUS
10
6.54419
20
-4.04713
11
6.55162
21
-4.04079
0
LINE
8
BLACK
6
CONTINUOUS
10
6.55162
20
-4.04079
11
6.55795
21
-4.03337
0
LINE
8
BLACK
6
CONTINUOUS
10
6.55795
20
-4.03337
11
6.56305
21
-4.02505
0
LINE
8
BLACK
6
CONTINUOUS
10
6.56305
20
-4.02505
11
6.56679
21
-4.01603
0
LINE
8
BLACK
6
CONTINUOUS
10
6.56679
20
-4.01603
11
6.56907
21
-4.00654
0
LINE
8
BLACK
6
CONTINUOUS
10
6.56907
20
-4.00654
11
6.56983
21
-3.99681
0
LINE
8
BLACK
6
CONTINUOUS
10
6.56983
20
-3.99681
11
6.56907
21
-3.98708
0
LINE
8
BLACK
6
CONTINUOUS
10
6.56907
20
-3.98708
11
6.56679
21
-3.97759
0
LINE
8
BLACK
6
CONTINUOUS
10
6.56679
20
-3.97759
11
6.56305
21
-3.96857
0
LINE
8
BLACK
6
CONTINUOUS
10
6.56305
20
-3.96857
11
6.55795
21
-3.96025
0
LINE
8
BLACK
6
CONTINUOUS
10
6.55795
20
-3.96025
11
6.55162
21
-3.95283
0
LINE
8
BLACK
6
CONTINUOUS
10
6.55162
20
-3.95283
11
6.54419
21
-3.94649
0
LINE
8
BLACK
6
CONTINUOUS
10
6.54419
20
-3.94649
11
6.53587
21
-3.94139
0
LINE
8
BLACK
6
CONTINUOUS
10
6.53587
20
-3.94139
11
6.52685
21
-3.93765
0
LINE
8
BLACK
6
CONTINUOUS
10
6.52685
20
-3.93765
11
6.51736
21
-3.93537
0
LINE
8
BLACK
6
CONTINUOUS
10
6.51736
20
-3.93537
11
6.50763
21
-3.93461
0
LINE
8
BLACK
6
CONTINUOUS
10
6.50763
20
-3.93461
11
6.4979
21
-3.93537
0
LINE
8
BLACK
6
CONTINUOUS
10
6.4979
20
-3.93537
11
6.48841
21
-3.93765
0
LINE
8
BLACK
6
CONTINUOUS
10
6.48841
20
-3.93765
11
6.4794
21
-3.94139
0
LINE
8
BLACK
6
CONTINUOUS
10
6.4794
20
-3.94139
11
6.47107
21
-3.94649
0
LINE
8
BLACK
6
CONTINUOUS
10
6.47107
20
-3.94649
11
6.46365
21
-3.95283
0
LINE
8
BLACK
6
CONTINUOUS
10
6.46365
20
-3.95283
11
6.45731
21
-3.96025
0
LINE
8
BLACK
6
CONTINUOUS
10
6.45731
20
-3.96025
11
6.45221
21
-3.96857
0
LINE
8
BLACK
6
CONTINUOUS
10
6.45221
20
-3.96857
11
6.44848
21
-3.97759
0
LINE
8
BLACK
6
CONTINUOUS
10
6.44848
20
-3.97759
11
6.4462
21
-3.98708
0
LINE
8
BLACK
6
CONTINUOUS
10
6.4462
20
-3.98708
11
6.44543
21
-3.99681
0
LINE
8
BLACK
6
CONTINUOUS
10
6.44543
20
-3.99681
11
6.4462
21
-4.00654
0
LINE
8
BLACK
6
CONTINUOUS
10
6.4462
20
-4.00654
11
6.44848
21
-4.01603
0
LINE
8
BLACK
6
CONTINUOUS
10
3.64742
20
-3.73417
11
3.64982
21
-3.7247
0
LINE
8
BLACK
6
CONTINUOUS
10
3.64982
20
-3.7247
11
3.6536
21
-3.71569
0
LINE
8
BLACK
6
CONTINUOUS
10
3.6536
20
-3.71569
11
3.65867
21
-3.70733
0
LINE
8
BLACK
6
CONTINUOUS
10
3.65867
20
-3.70733
11
3.66492
21
-3.69982
0
LINE
8
BLACK
6
CONTINUOUS
10
3.66492
20
-3.69982
11
3.67221
21
-3.69331
0
LINE
8
BLACK
6
CONTINUOUS
10
3.67221
20
-3.69331
11
3.68039
21
-3.68795
0
LINE
8
BLACK
6
CONTINUOUS
10
3.68039
20
-3.68795
11
3.68926
21
-3.68386
0
LINE
8
BLACK
6
CONTINUOUS
10
3.68926
20
-3.68386
11
3.69865
21
-3.68112
0
LINE
8
BLACK
6
CONTINUOUS
10
3.69865
20
-3.68112
11
3.70833
21
-3.6798
0
LINE
8
BLACK
6
CONTINUOUS
10
3.70833
20
-3.6798
11
3.71811
21
-3.67993
0
LINE
8
BLACK
6
CONTINUOUS
10
3.71811
20
-3.67993
11
3.72775
21
-3.6815
0
LINE
8
BLACK
6
CONTINUOUS
10
3.72775
20
-3.6815
11
3.73706
21
-3.68448
0
LINE
8
BLACK
6
CONTINUOUS
10
3.73706
20
-3.68448
11
3.74583
21
-3.68881
0
LINE
8
BLACK
6
CONTINUOUS
10
3.74583
20
-3.68881
11
3.75386
21
-3.69438
0
LINE
8
BLACK
6
CONTINUOUS
10
3.75386
20
-3.69438
11
3.76098
21
-3.70107
0
LINE
8
BLACK
6
CONTINUOUS
10
3.76098
20
-3.70107
11
3.76703
21
-3.70875
0
LINE
8
BLACK
6
CONTINUOUS
10
3.76703
20
-3.70875
11
3.77188
21
-3.71724
0
LINE
8
BLACK
6
CONTINUOUS
10
3.77188
20
-3.71724
11
3.77542
21
-3.72635
0
LINE
8
BLACK
6
CONTINUOUS
10
3.77542
20
-3.72635
11
3.77758
21
-3.73588
0
LINE
8
BLACK
6
CONTINUOUS
10
3.77758
20
-3.73588
11
3.7783
21
-3.74563
0
LINE
8
BLACK
6
CONTINUOUS
10
3.7783
20
-3.74563
11
3.77821
21
-3.74908
0
LINE
8
BLACK
6
CONTINUOUS
10
3.77821
20
-3.74908
11
3.77698
21
-3.75877
0
LINE
8
BLACK
6
CONTINUOUS
10
3.77698
20
-3.75877
11
3.77433
21
-3.76818
0
LINE
8
BLACK
6
CONTINUOUS
10
3.77433
20
-3.76818
11
3.77031
21
-3.77709
0
LINE
8
BLACK
6
CONTINUOUS
10
3.77031
20
-3.77709
11
3.76502
21
-3.78531
0
LINE
8
BLACK
6
CONTINUOUS
10
3.76502
20
-3.78531
11
3.75858
21
-3.79266
0
LINE
8
BLACK
6
CONTINUOUS
10
3.75858
20
-3.79266
11
3.75112
21
-3.79898
0
LINE
8
BLACK
6
CONTINUOUS
10
3.75112
20
-3.79898
11
3.74281
21
-3.80412
0
LINE
8
BLACK
6
CONTINUOUS
10
3.74281
20
-3.80412
11
3.73383
21
-3.80798
0
LINE
8
BLACK
6
CONTINUOUS
10
3.73383
20
-3.80798
11
3.72438
21
-3.81047
0
LINE
8
BLACK
6
CONTINUOUS
10
3.72438
20
-3.81047
11
3.71466
21
-3.81153
0
LINE
8
BLACK
6
CONTINUOUS
10
3.71466
20
-3.81153
11
3.70489
21
-3.81115
0
LINE
8
BLACK
6
CONTINUOUS
10
3.70489
20
-3.81115
11
3.69529
21
-3.80932
0
LINE
8
BLACK
6
CONTINUOUS
10
3.69529
20
-3.80932
11
3.68606
21
-3.8061
0
LINE
8
BLACK
6
CONTINUOUS
10
3.68606
20
-3.8061
11
3.67741
21
-3.80155
0
LINE
8
BLACK
6
CONTINUOUS
10
3.67741
20
-3.80155
11
3.66953
21
-3.79577
0
LINE
8
BLACK
6
CONTINUOUS
10
3.66953
20
-3.79577
11
3.66259
21
-3.78889
0
LINE
8
BLACK
6
CONTINUOUS
10
3.66259
20
-3.78889
11
3.65674
21
-3.78106
0
LINE
8
BLACK
6
CONTINUOUS
10
3.65674
20
-3.78106
11
3.65211
21
-3.77245
0
LINE
8
BLACK
6
CONTINUOUS
10
3.65211
20
-3.77245
11
3.64881
21
-3.76325
0
LINE
8
BLACK
6
CONTINUOUS
10
3.64881
20
-3.76325
11
3.6469
21
-3.75366
0
LINE
8
BLACK
6
CONTINUOUS
10
3.6469
20
-3.75366
11
3.64652
21
-3.74563
0
LINE
8
BLACK
6
CONTINUOUS
10
3.64652
20
-3.74563
11
3.64644
21
-3.7439
0
LINE
8
BLACK
6
CONTINUOUS
10
3.64644
20
-3.7439
11
3.64742
21
-3.73417
0
LINE
8
BLACK
6
CONTINUOUS
10
3.6532
20
-3.76485
11
3.65694
21
-3.77386
0
LINE
8
BLACK
6
CONTINUOUS
10
3.65694
20
-3.77386
11
3.66204
21
-3.78219
0
LINE
8
BLACK
6
CONTINUOUS
10
3.66204
20
-3.78219
11
3.66838
21
-3.78961
0
LINE
8
BLACK
6
CONTINUOUS
10
3.66838
20
-3.78961
11
3.6758
21
-3.79595
0
LINE
8
BLACK
6
CONTINUOUS
10
3.6758
20
-3.79595
11
3.68412
21
-3.80105
0
LINE
8
BLACK
6
CONTINUOUS
10
3.68412
20
-3.80105
11
3.69314
21
-3.80478
0
LINE
8
BLACK
6
CONTINUOUS
10
3.69314
20
-3.80478
11
3.70263
21
-3.80706
0
LINE
8
BLACK
6
CONTINUOUS
10
3.70263
20
-3.80706
11
3.71236
21
-3.80783
0
LINE
8
BLACK
6
CONTINUOUS
10
3.71236
20
-3.80783
11
3.72209
21
-3.80706
0
LINE
8
BLACK
6
CONTINUOUS
10
3.72209
20
-3.80706
11
3.73158
21
-3.80478
0
LINE
8
BLACK
6
CONTINUOUS
10
3.73158
20
-3.80478
11
3.7406
21
-3.80105
0
LINE
8
BLACK
6
CONTINUOUS
10
3.7406
20
-3.80105
11
3.74892
21
-3.79595
0
LINE
8
BLACK
6
CONTINUOUS
10
3.74892
20
-3.79595
11
3.75634
21
-3.78961
0
LINE
8
BLACK
6
CONTINUOUS
10
3.75634
20
-3.78961
11
3.76268
21
-3.78219
0
LINE
8
BLACK
6
CONTINUOUS
10
3.76268
20
-3.78219
11
3.76778
21
-3.77386
0
LINE
8
BLACK
6
CONTINUOUS
10
3.76778
20
-3.77386
11
3.77151
21
-3.76485
0
LINE
8
BLACK
6
CONTINUOUS
10
3.77151
20
-3.76485
11
3.77379
21
-3.75536
0
LINE
8
BLACK
6
CONTINUOUS
10
3.77379
20
-3.75536
11
3.77456
21
-3.74563
0
LINE
8
BLACK
6
CONTINUOUS
10
3.77456
20
-3.74563
11
3.77379
21
-3.7359
0
LINE
8
BLACK
6
CONTINUOUS
10
3.77379
20
-3.7359
11
3.77151
21
-3.72641
0
LINE
8
BLACK
6
CONTINUOUS
10
3.77151
20
-3.72641
11
3.76778
21
-3.71739
0
LINE
8
BLACK
6
CONTINUOUS
10
3.76778
20
-3.71739
11
3.76268
21
-3.70907
0
LINE
8
BLACK
6
CONTINUOUS
10
3.76268
20
-3.70907
11
3.75634
21
-3.70164
0
LINE
8
BLACK
6
CONTINUOUS
10
3.75634
20
-3.70164
11
3.74892
21
-3.69531
0
LINE
8
BLACK
6
CONTINUOUS
10
3.74892
20
-3.69531
11
3.7406
21
-3.69021
0
LINE
8
BLACK
6
CONTINUOUS
10
3.7406
20
-3.69021
11
3.73158
21
-3.68647
0
LINE
8
BLACK
6
CONTINUOUS
10
3.73158
20
-3.68647
11
3.72209
21
-3.68419
0
LINE
8
BLACK
6
CONTINUOUS
10
3.72209
20
-3.68419
11
3.71236
21
-3.68343
0
LINE
8
BLACK
6
CONTINUOUS
10
3.71236
20
-3.68343
11
3.70263
21
-3.68419
0
LINE
8
BLACK
6
CONTINUOUS
10
3.70263
20
-3.68419
11
3.69314
21
-3.68647
0
LINE
8
BLACK
6
CONTINUOUS
10
3.69314
20
-3.68647
11
3.68412
21
-3.69021
0
LINE
8
BLACK
6
CONTINUOUS
10
3.68412
20
-3.69021
11
3.6758
21
-3.69531
0
LINE
8
BLACK
6
CONTINUOUS
10
3.6758
20
-3.69531
11
3.66838
21
-3.70164
0
LINE
8
BLACK
6
CONTINUOUS
10
3.66838
20
-3.70164
11
3.66204
21
-3.70907
0
LINE
8
BLACK
6
CONTINUOUS
10
3.66204
20
-3.70907
11
3.65694
21
-3.71739
0
LINE
8
BLACK
6
CONTINUOUS
10
3.65694
20
-3.71739
11
3.6532
21
-3.72641
0
LINE
8
BLACK
6
CONTINUOUS
10
3.6532
20
-3.72641
11
3.65092
21
-3.7359
0
LINE
8
BLACK
6
CONTINUOUS
10
3.65092
20
-3.7359
11
3.65016
21
-3.74563
0
LINE
8
BLACK
6
CONTINUOUS
10
3.65016
20
-3.74563
11
3.65092
21
-3.75536
0
LINE
8
BLACK
6
CONTINUOUS
10
3.65092
20
-3.75536
11
3.6532
21
-3.76485
0
LINE
8
BLACK
6
CONTINUOUS
10
6.44269
20
-3.58181
11
6.4451
21
-3.57234
0
LINE
8
BLACK
6
CONTINUOUS
10
6.4451
20
-3.57234
11
6.44888
21
-3.56333
0
LINE
8
BLACK
6
CONTINUOUS
10
6.44888
20
-3.56333
11
6.45395
21
-3.55497
0
LINE
8
BLACK
6
CONTINUOUS
10
6.45395
20
-3.55497
11
6.4602
21
-3.54745
0
LINE
8
BLACK
6
CONTINUOUS
10
6.4602
20
-3.54745
11
6.46749
21
-3.54095
0
LINE
8
BLACK
6
CONTINUOUS
10
6.46749
20
-3.54095
11
6.47566
21
-3.53559
0
LINE
8
BLACK
6
CONTINUOUS
10
6.47566
20
-3.53559
11
6.48454
21
-3.5315
0
LINE
8
BLACK
6
CONTINUOUS
10
6.48454
20
-3.5315
11
6.49392
21
-3.52876
0
LINE
8
BLACK
6
CONTINUOUS
10
6.49392
20
-3.52876
11
6.50361
21
-3.52744
0
LINE
8
BLACK
6
CONTINUOUS
10
6.50361
20
-3.52744
11
6.51338
21
-3.52757
0
LINE
8
BLACK
6
CONTINUOUS
10
6.51338
20
-3.52757
11
6.52303
21
-3.52914
0
LINE
8
BLACK
6
CONTINUOUS
10
6.52303
20
-3.52914
11
6.53234
21
-3.53212
0
LINE
8
BLACK
6
CONTINUOUS
10
6.53234
20
-3.53212
11
6.5411
21
-3.53644
0
LINE
8
BLACK
6
CONTINUOUS
10
6.5411
20
-3.53644
11
6.54913
21
-3.54202
0
LINE
8
BLACK
6
CONTINUOUS
10
6.54913
20
-3.54202
11
6.55625
21
-3.54871
0
LINE
8
BLACK
6
CONTINUOUS
10
6.55625
20
-3.54871
11
6.5623
21
-3.55639
0
LINE
8
BLACK
6
CONTINUOUS
10
6.5623
20
-3.55639
11
6.56715
21
-3.56487
0
LINE
8
BLACK
6
CONTINUOUS
10
6.56715
20
-3.56487
11
6.5707
21
-3.57398
0
LINE
8
BLACK
6
CONTINUOUS
10
6.5707
20
-3.57398
11
6.57285
21
-3.58352
0
LINE
8
BLACK
6
CONTINUOUS
10
6.57285
20
-3.58352
11
6.57358
21
-3.59326
0
LINE
8
BLACK
6
CONTINUOUS
10
6.57358
20
-3.59326
11
6.57349
21
-3.59672
0
LINE
8
BLACK
6
CONTINUOUS
10
6.57349
20
-3.59672
11
6.57225
21
-3.60641
0
LINE
8
BLACK
6
CONTINUOUS
10
6.57225
20
-3.60641
11
6.5696
21
-3.61582
0
LINE
8
BLACK
6
CONTINUOUS
10
6.5696
20
-3.61582
11
6.56559
21
-3.62473
0
LINE
8
BLACK
6
CONTINUOUS
10
6.56559
20
-3.62473
11
6.5603
21
-3.63295
0
LINE
8
BLACK
6
CONTINUOUS
10
6.5603
20
-3.63295
11
6.55386
21
-3.6403
0
LINE
8
BLACK
6
CONTINUOUS
10
6.55386
20
-3.6403
11
6.5464
21
-3.64661
0
LINE
8
BLACK
6
CONTINUOUS
10
6.5464
20
-3.64661
11
6.53808
21
-3.65176
0
LINE
8
BLACK
6
CONTINUOUS
10
6.53808
20
-3.65176
11
6.5291
21
-3.65562
0
LINE
8
BLACK
6
CONTINUOUS
10
6.5291
20
-3.65562
11
6.51965
21
-3.6581
0
LINE
8
BLACK
6
CONTINUOUS
10
6.51965
20
-3.6581
11
6.50994
21
-3.65917
0
LINE
8
BLACK
6
CONTINUOUS
10
6.50994
20
-3.65917
11
6.50017
21
-3.65878
0
LINE
8
BLACK
6
CONTINUOUS
10
6.50017
20
-3.65878
11
6.49057
21
-3.65696
0
LINE
8
BLACK
6
CONTINUOUS
10
6.49057
20
-3.65696
11
6.48134
21
-3.65374
0
LINE
8
BLACK
6
CONTINUOUS
10
6.48134
20
-3.65374
11
6.47269
21
-3.64919
0
LINE
8
BLACK
6
CONTINUOUS
10
6.47269
20
-3.64919
11
6.46481
21
-3.64341
0
LINE
8
BLACK
6
CONTINUOUS
10
6.46481
20
-3.64341
11
6.45786
21
-3.63653
0
LINE
8
BLACK
6
CONTINUOUS
10
6.45786
20
-3.63653
11
6.45202
21
-3.6287
0
LINE
8
BLACK
6
CONTINUOUS
10
6.45202
20
-3.6287
11
6.44739
21
-3.62009
0
LINE
8
BLACK
6
CONTINUOUS
10
6.44739
20
-3.62009
11
6.44409
21
-3.61089
0
LINE
8
BLACK
6
CONTINUOUS
10
6.44409
20
-3.61089
11
6.44218
21
-3.6013
0
LINE
8
BLACK
6
CONTINUOUS
10
6.44218
20
-3.6013
11
6.44179
21
-3.59326
0
LINE
8
BLACK
6
CONTINUOUS
10
6.44179
20
-3.59326
11
6.44171
21
-3.59154
0
LINE
8
BLACK
6
CONTINUOUS
10
6.44171
20
-3.59154
11
6.44269
21
-3.58181
0
LINE
8
BLACK
6
CONTINUOUS
10
6.44848
20
-3.61248
11
6.45221
21
-3.6215
0
LINE
8
BLACK
6
CONTINUOUS
10
6.45221
20
-3.6215
11
6.45731
21
-3.62982
0
LINE
8
BLACK
6
CONTINUOUS
10
6.45731
20
-3.62982
11
6.46365
21
-3.63725
0
LINE
8
BLACK
6
CONTINUOUS
10
6.46365
20
-3.63725
11
6.47107
21
-3.64358
0
LINE
8
BLACK
6
CONTINUOUS
10
6.47107
20
-3.64358
11
6.4794
21
-3.64868
0
LINE
8
BLACK
6
CONTINUOUS
10
6.4794
20
-3.64868
11
6.48841
21
-3.65242
0
LINE
8
BLACK
6
CONTINUOUS
10
6.48841
20
-3.65242
11
6.4979
21
-3.6547
0
LINE
8
BLACK
6
CONTINUOUS
10
6.4979
20
-3.6547
11
6.50763
21
-3.65546
0
LINE
8
BLACK
6
CONTINUOUS
10
6.50763
20
-3.65546
11
6.51736
21
-3.6547
0
LINE
8
BLACK
6
CONTINUOUS
10
6.51736
20
-3.6547
11
6.52685
21
-3.65242
0
LINE
8
BLACK
6
CONTINUOUS
10
6.52685
20
-3.65242
11
6.53587
21
-3.64868
0
LINE
8
BLACK
6
CONTINUOUS
10
6.53587
20
-3.64868
11
6.54419
21
-3.64358
0
LINE
8
BLACK
6
CONTINUOUS
10
6.54419
20
-3.64358
11
6.55162
21
-3.63725
0
LINE
8
BLACK
6
CONTINUOUS
10
6.55162
20
-3.63725
11
6.55795
21
-3.62982
0
LINE
8
BLACK
6
CONTINUOUS
10
6.55795
20
-3.62982
11
6.56305
21
-3.6215
0
LINE
8
BLACK
6
CONTINUOUS
10
6.56305
20
-3.6215
11
6.56679
21
-3.61248
0
LINE
8
BLACK
6
CONTINUOUS
10
6.56679
20
-3.61248
11
6.56907
21
-3.60299
0
LINE
8
BLACK
6
CONTINUOUS
10
6.56907
20
-3.60299
11
6.56983
21
-3.59326
0
LINE
8
BLACK
6
CONTINUOUS
10
6.56983
20
-3.59326
11
6.56907
21
-3.58353
0
LINE
8
BLACK
6
CONTINUOUS
10
6.56907
20
-3.58353
11
6.56679
21
-3.57404
0
LINE
8
BLACK
6
CONTINUOUS
10
6.56679
20
-3.57404
11
6.56305
21
-3.56503
0
LINE
8
BLACK
6
CONTINUOUS
10
6.56305
20
-3.56503
11
6.55795
21
-3.5567
0
LINE
8
BLACK
6
CONTINUOUS
10
6.55795
20
-3.5567
11
6.55162
21
-3.54928
0
LINE
8
BLACK
6
CONTINUOUS
10
6.55162
20
-3.54928
11
6.54419
21
-3.54294
0
LINE
8
BLACK
6
CONTINUOUS
10
6.54419
20
-3.54294
11
6.53587
21
-3.53784
0
LINE
8
BLACK
6
CONTINUOUS
10
6.53587
20
-3.53784
11
6.52685
21
-3.53411
0
LINE
8
BLACK
6
CONTINUOUS
10
6.52685
20
-3.53411
11
6.51736
21
-3.53183
0
LINE
8
BLACK
6
CONTINUOUS
10
6.51736
20
-3.53183
11
6.50763
21
-3.53106
0
LINE
8
BLACK
6
CONTINUOUS
10
6.50763
20
-3.53106
11
6.4979
21
-3.53183
0
LINE
8
BLACK
6
CONTINUOUS
10
6.4979
20
-3.53183
11
6.48841
21
-3.53411
0
LINE
8
BLACK
6
CONTINUOUS
10
6.48841
20
-3.53411
11
6.4794
21
-3.53784
0
LINE
8
BLACK
6
CONTINUOUS
10
6.4794
20
-3.53784
11
6.47107
21
-3.54294
0
LINE
8
BLACK
6
CONTINUOUS
10
6.47107
20
-3.54294
11
6.46365
21
-3.54928
0
LINE
8
BLACK
6
CONTINUOUS
10
6.46365
20
-3.54928
11
6.45731
21
-3.5567
0
LINE
8
BLACK
6
CONTINUOUS
10
6.45731
20
-3.5567
11
6.45221
21
-3.56503
0
LINE
8
BLACK
6
CONTINUOUS
10
6.45221
20
-3.56503
11
6.44848
21
-3.57404
0
LINE
8
BLACK
6
CONTINUOUS
10
6.44848
20
-3.57404
11
6.4462
21
-3.58353
0
LINE
8
BLACK
6
CONTINUOUS
10
6.4462
20
-3.58353
11
6.44543
21
-3.59326
0
LINE
8
BLACK
6
CONTINUOUS
10
6.44543
20
-3.59326
11
6.4462
21
-3.60299
0
LINE
8
BLACK
6
CONTINUOUS
10
6.4462
20
-3.60299
11
6.44848
21
-3.61248
0
LINE
8
BLACK
6
CONTINUOUS
10
3.64742
20
-3.57394
11
3.64982
21
-3.56447
0
LINE
8
BLACK
6
CONTINUOUS
10
3.64982
20
-3.56447
11
3.6536
21
-3.55545
0
LINE
8
BLACK
6
CONTINUOUS
10
3.6536
20
-3.55545
11
3.65867
21
-3.5471
0
LINE
8
BLACK
6
CONTINUOUS
10
3.65867
20
-3.5471
11
3.66492
21
-3.53958
0
LINE
8
BLACK
6
CONTINUOUS
10
3.66492
20
-3.53958
11
3.67221
21
-3.53307
0
LINE
8
BLACK
6
CONTINUOUS
10
3.67221
20
-3.53307
11
3.68039
21
-3.52771
0
LINE
8
BLACK
6
CONTINUOUS
10
3.68039
20
-3.52771
11
3.68926
21
-3.52362
0
LINE
8
BLACK
6
CONTINUOUS
10
3.68926
20
-3.52362
11
3.69865
21
-3.52089
0
LINE
8
BLACK
6
CONTINUOUS
10
3.69865
20
-3.52089
11
3.70833
21
-3.51957
0
LINE
8
BLACK
6
CONTINUOUS
10
3.70833
20
-3.51957
11
3.71811
21
-3.5197
0
LINE
8
BLACK
6
CONTINUOUS
10
3.71811
20
-3.5197
11
3.72775
21
-3.52127
0
LINE
8
BLACK
6
CONTINUOUS
10
3.72775
20
-3.52127
11
3.73706
21
-3.52425
0
LINE
8
BLACK
6
CONTINUOUS
10
3.73706
20
-3.52425
11
3.74583
21
-3.52857
0
LINE
8
BLACK
6
CONTINUOUS
10
3.74583
20
-3.52857
11
3.75386
21
-3.53414
0
LINE
8
BLACK
6
CONTINUOUS
10
3.75386
20
-3.53414
11
3.76098
21
-3.54084
0
LINE
8
BLACK
6
CONTINUOUS
10
3.76098
20
-3.54084
11
3.76703
21
-3.54851
0
LINE
8
BLACK
6
CONTINUOUS
10
3.76703
20
-3.54851
11
3.77188
21
-3.557
0
LINE
8
BLACK
6
CONTINUOUS
10
3.77188
20
-3.557
11
3.77542
21
-3.56611
0
LINE
8
BLACK
6
CONTINUOUS
10
3.77542
20
-3.56611
11
3.77758
21
-3.57564
0
LINE
8
BLACK
6
CONTINUOUS
10
3.77758
20
-3.57564
11
3.7783
21
-3.58539
0
LINE
8
BLACK
6
CONTINUOUS
10
3.7783
20
-3.58539
11
3.77821
21
-3.58884
0
LINE
8
BLACK
6
CONTINUOUS
10
3.77821
20
-3.58884
11
3.77698
21
-3.59854
0
LINE
8
BLACK
6
CONTINUOUS
10
3.77698
20
-3.59854
11
3.77433
21
-3.60794
0
LINE
8
BLACK
6
CONTINUOUS
10
3.77433
20
-3.60794
11
3.77031
21
-3.61686
0
LINE
8
BLACK
6
CONTINUOUS
10
3.77031
20
-3.61686
11
3.76502
21
-3.62508
0
LINE
8
BLACK
6
CONTINUOUS
10
3.76502
20
-3.62508
11
3.75858
21
-3.63243
0
LINE
8
BLACK
6
CONTINUOUS
10
3.75858
20
-3.63243
11
3.75112
21
-3.63874
0
LINE
8
BLACK
6
CONTINUOUS
10
3.75112
20
-3.63874
11
3.74281
21
-3.64388
0
LINE
8
BLACK
6
CONTINUOUS
10
3.74281
20
-3.64388
11
3.73383
21
-3.64774
0
LINE
8
BLACK
6
CONTINUOUS
10
3.73383
20
-3.64774
11
3.72438
21
-3.65023
0
LINE
8
BLACK
6
CONTINUOUS
10
3.72438
20
-3.65023
11
3.71466
21
-3.65129
0
LINE
8
BLACK
6
CONTINUOUS
10
3.71466
20
-3.65129
11
3.70489
21
-3.65091
0
LINE
8
BLACK
6
CONTINUOUS
10
3.70489
20
-3.65091
11
3.69529
21
-3.64909
0
LINE
8
BLACK
6
CONTINUOUS
10
3.69529
20
-3.64909
11
3.68606
21
-3.64587
0
LINE
8
BLACK
6
CONTINUOUS
10
3.68606
20
-3.64587
11
3.67741
21
-3.64131
0
LINE
8
BLACK
6
CONTINUOUS
10
3.67741
20
-3.64131
11
3.66953
21
-3.63553
0
LINE
8
BLACK
6
CONTINUOUS
10
3.66953
20
-3.63553
11
3.66259
21
-3.62865
0
LINE
8
BLACK
6
CONTINUOUS
10
3.66259
20
-3.62865
11
3.65674
21
-3.62082
0
LINE
8
BLACK
6
CONTINUOUS
10
3.65674
20
-3.62082
11
3.65211
21
-3.61221
0
LINE
8
BLACK
6
CONTINUOUS
10
3.65211
20
-3.61221
11
3.64881
21
-3.60301
0
LINE
8
BLACK
6
CONTINUOUS
10
3.64881
20
-3.60301
11
3.6469
21
-3.59343
0
LINE
8
BLACK
6
CONTINUOUS
10
3.6469
20
-3.59343
11
3.64652
21
-3.58539
0
LINE
8
BLACK
6
CONTINUOUS
10
3.64652
20
-3.58539
11
3.64644
21
-3.58366
0
LINE
8
BLACK
6
CONTINUOUS
10
3.64644
20
-3.58366
11
3.64742
21
-3.57394
0
LINE
8
BLACK
6
CONTINUOUS
10
3.6532
20
-3.60461
11
3.65694
21
-3.61363
0
LINE
8
BLACK
6
CONTINUOUS
10
3.65694
20
-3.61363
11
3.66204
21
-3.62195
0
LINE
8
BLACK
6
CONTINUOUS
10
3.66204
20
-3.62195
11
3.66838
21
-3.62937
0
LINE
8
BLACK
6
CONTINUOUS
10
3.66838
20
-3.62937
11
3.6758
21
-3.63571
0
LINE
8
BLACK
6
CONTINUOUS
10
3.6758
20
-3.63571
11
3.68412
21
-3.64081
0
LINE
8
BLACK
6
CONTINUOUS
10
3.68412
20
-3.64081
11
3.69314
21
-3.64455
0
LINE
8
BLACK
6
CONTINUOUS
10
3.69314
20
-3.64455
11
3.70263
21
-3.64682
0
LINE
8
BLACK
6
CONTINUOUS
10
3.70263
20
-3.64682
11
3.71236
21
-3.64759
0
LINE
8
BLACK
6
CONTINUOUS
10
3.71236
20
-3.64759
11
3.72209
21
-3.64682
0
LINE
8
BLACK
6
CONTINUOUS
10
3.72209
20
-3.64682
11
3.73158
21
-3.64455
0
LINE
8
BLACK
6
CONTINUOUS
10
3.73158
20
-3.64455
11
3.7406
21
-3.64081
0
LINE
8
BLACK
6
CONTINUOUS
10
3.7406
20
-3.64081
11
3.74892
21
-3.63571
0
LINE
8
BLACK
6
CONTINUOUS
10
3.74892
20
-3.63571
11
3.75634
21
-3.62937
0
LINE
8
BLACK
6
CONTINUOUS
10
3.75634
20
-3.62937
11
3.76268
21
-3.62195
0
LINE
8
BLACK
6
CONTINUOUS
10
3.76268
20
-3.62195
11
3.76778
21
-3.61363
0
LINE
8
BLACK
6
CONTINUOUS
10
3.76778
20
-3.61363
11
3.77151
21
-3.60461
0
LINE
8
BLACK
6
CONTINUOUS
10
3.77151
20
-3.60461
11
3.77379
21
-3.59512
0
LINE
8
BLACK
6
CONTINUOUS
10
3.77379
20
-3.59512
11
3.77456
21
-3.58539
0
LINE
8
BLACK
6
CONTINUOUS
10
3.77456
20
-3.58539
11
3.77379
21
-3.57566
0
LINE
8
BLACK
6
CONTINUOUS
10
3.77379
20
-3.57566
11
3.77151
21
-3.56617
0
LINE
8
BLACK
6
CONTINUOUS
10
3.77151
20
-3.56617
11
3.76778
21
-3.55715
0
LINE
8
BLACK
6
CONTINUOUS
10
3.76778
20
-3.55715
11
3.76268
21
-3.54883
0
LINE
8
BLACK
6
CONTINUOUS
10
3.76268
20
-3.54883
11
3.75634
21
-3.54141
0
LINE
8
BLACK
6
CONTINUOUS
10
3.75634
20
-3.54141
11
3.74892
21
-3.53507
0
LINE
8
BLACK
6
CONTINUOUS
10
3.74892
20
-3.53507
11
3.7406
21
-3.52997
0
LINE
8
BLACK
6
CONTINUOUS
10
3.7406
20
-3.52997
11
3.73158
21
-3.52623
0
LINE
8
BLACK
6
CONTINUOUS
10
3.73158
20
-3.52623
11
3.72209
21
-3.52396
0
LINE
8
BLACK
6
CONTINUOUS
10
3.72209
20
-3.52396
11
3.71236
21
-3.52319
0
LINE
8
BLACK
6
CONTINUOUS
10
3.71236
20
-3.52319
11
3.70263
21
-3.52396
0
LINE
8
BLACK
6
CONTINUOUS
10
3.70263
20
-3.52396
11
3.69314
21
-3.52623
0
LINE
8
BLACK
6
CONTINUOUS
10
3.69314
20
-3.52623
11
3.68412
21
-3.52997
0
LINE
8
BLACK
6
CONTINUOUS
10
3.68412
20
-3.52997
11
3.6758
21
-3.53507
0
LINE
8
BLACK
6
CONTINUOUS
10
3.6758
20
-3.53507
11
3.66838
21
-3.54141
0
LINE
8
BLACK
6
CONTINUOUS
10
3.66838
20
-3.54141
11
3.66204
21
-3.54883
0
LINE
8
BLACK
6
CONTINUOUS
10
3.66204
20
-3.54883
11
3.65694
21
-3.55715
0
LINE
8
BLACK
6
CONTINUOUS
10
3.65694
20
-3.55715
11
3.6532
21
-3.56617
0
LINE
8
BLACK
6
CONTINUOUS
10
3.6532
20
-3.56617
11
3.65092
21
-3.57566
0
LINE
8
BLACK
6
CONTINUOUS
10
3.65092
20
-3.57566
11
3.65016
21
-3.58539
0
LINE
8
BLACK
6
CONTINUOUS
10
3.65016
20
-3.58539
11
3.65092
21
-3.59512
0
LINE
8
BLACK
6
CONTINUOUS
10
3.65092
20
-3.59512
11
3.6532
21
-3.60461
0
LINE
8
BLACK
6
CONTINUOUS
10
6.44269
20
-3.13181
11
6.4451
21
-3.12234
0
LINE
8
BLACK
6
CONTINUOUS
10
6.4451
20
-3.12234
11
6.44888
21
-3.11333
0
LINE
8
BLACK
6
CONTINUOUS
10
6.44888
20
-3.11333
11
6.45395
21
-3.10497
0
LINE
8
BLACK
6
CONTINUOUS
10
6.45395
20
-3.10497
11
6.4602
21
-3.09745
0
LINE
8
BLACK
6
CONTINUOUS
10
6.4602
20
-3.09745
11
6.46749
21
-3.09095
0
LINE
8
BLACK
6
CONTINUOUS
10
6.46749
20
-3.09095
11
6.47566
21
-3.08559
0
LINE
8
BLACK
6
CONTINUOUS
10
6.47566
20
-3.08559
11
6.48454
21
-3.0815
0
LINE
8
BLACK
6
CONTINUOUS
10
6.48454
20
-3.0815
11
6.49392
21
-3.07876
0
LINE
8
BLACK
6
CONTINUOUS
10
6.49392
20
-3.07876
11
6.50361
21
-3.07744
0
LINE
8
BLACK
6
CONTINUOUS
10
6.50361
20
-3.07744
11
6.51338
21
-3.07757
0
LINE
8
BLACK
6
CONTINUOUS
10
6.51338
20
-3.07757
11
6.52303
21
-3.07914
0
LINE
8
BLACK
6
CONTINUOUS
10
6.52303
20
-3.07914
11
6.53234
21
-3.08212
0
LINE
8
BLACK
6
CONTINUOUS
10
6.53234
20
-3.08212
11
6.5411
21
-3.08644
0
LINE
8
BLACK
6
CONTINUOUS
10
6.5411
20
-3.08644
11
6.54913
21
-3.09201
0
LINE
8
BLACK
6
CONTINUOUS
10
6.54913
20
-3.09201
11
6.55625
21
-3.09871
0
LINE
8
BLACK
6
CONTINUOUS
10
6.55625
20
-3.09871
11
6.5623
21
-3.10639
0
LINE
8
BLACK
6
CONTINUOUS
10
6.5623
20
-3.10639
11
6.56715
21
-3.11487
0
LINE
8
BLACK
6
CONTINUOUS
10
6.56715
20
-3.11487
11
6.5707
21
-3.12398
0
LINE
8
BLACK
6
CONTINUOUS
10
6.5707
20
-3.12398
11
6.57285
21
-3.13352
0
LINE
8
BLACK
6
CONTINUOUS
10
6.57285
20
-3.13352
11
6.57358
21
-3.14326
0
LINE
8
BLACK
6
CONTINUOUS
10
6.57358
20
-3.14326
11
6.57349
21
-3.14672
0
LINE
8
BLACK
6
CONTINUOUS
10
6.57349
20
-3.14672
11
6.57225
21
-3.15641
0
LINE
8
BLACK
6
CONTINUOUS
10
6.57225
20
-3.15641
11
6.5696
21
-3.16582
0
LINE
8
BLACK
6
CONTINUOUS
10
6.5696
20
-3.16582
11
6.56559
21
-3.17473
0
LINE
8
BLACK
6
CONTINUOUS
10
6.56559
20
-3.17473
11
6.5603
21
-3.18295
0
LINE
8
BLACK
6
CONTINUOUS
10
6.5603
20
-3.18295
11
6.55386
21
-3.1903
0
LINE
8
BLACK
6
CONTINUOUS
10
6.55386
20
-3.1903
11
6.5464
21
-3.19661
0
LINE
8
BLACK
6
CONTINUOUS
10
6.5464
20
-3.19661
11
6.53808
21
-3.20176
0
LINE
8
BLACK
6
CONTINUOUS
10
6.53808
20
-3.20176
11
6.5291
21
-3.20562
0
LINE
8
BLACK
6
CONTINUOUS
10
6.5291
20
-3.20562
11
6.51965
21
-3.2081
0
LINE
8
BLACK
6
CONTINUOUS
10
6.51965
20
-3.2081
11
6.50994
21
-3.20917
0
LINE
8
BLACK
6
CONTINUOUS
10
6.50994
20
-3.20917
11
6.50017
21
-3.20878
0
LINE
8
BLACK
6
CONTINUOUS
10
6.50017
20
-3.20878
11
6.49057
21
-3.20696
0
LINE
8
BLACK
6
CONTINUOUS
10
6.49057
20
-3.20696
11
6.48134
21
-3.20374
0
LINE
8
BLACK
6
CONTINUOUS
10
6.48134
20
-3.20374
11
6.47269
21
-3.19919
0
LINE
8
BLACK
6
CONTINUOUS
10
6.47269
20
-3.19919
11
6.46481
21
-3.19341
0
LINE
8
BLACK
6
CONTINUOUS
10
6.46481
20
-3.19341
11
6.45786
21
-3.18653
0
LINE
8
BLACK
6
CONTINUOUS
10
6.45786
20
-3.18653
11
6.45202
21
-3.1787
0
LINE
8
BLACK
6
CONTINUOUS
10
6.45202
20
-3.1787
11
6.44739
21
-3.17009
0
LINE
8
BLACK
6
CONTINUOUS
10
6.44739
20
-3.17009
11
6.44409
21
-3.16089
0
LINE
8
BLACK
6
CONTINUOUS
10
6.44409
20
-3.16089
11
6.44218
21
-3.1513
0
LINE
8
BLACK
6
CONTINUOUS
10
6.44218
20
-3.1513
11
6.44179
21
-3.14326
0
LINE
8
BLACK
6
CONTINUOUS
10
6.44179
20
-3.14326
11
6.44171
21
-3.14154
0
LINE
8
BLACK
6
CONTINUOUS
10
6.44171
20
-3.14154
11
6.44269
21
-3.13181
0
LINE
8
BLACK
6
CONTINUOUS
10
6.44848
20
-3.16248
11
6.45221
21
-3.1715
0
LINE
8
BLACK
6
CONTINUOUS
10
6.45221
20
-3.1715
11
6.45731
21
-3.17982
0
LINE
8
BLACK
6
CONTINUOUS
10
6.45731
20
-3.17982
11
6.46365
21
-3.18725
0
LINE
8
BLACK
6
CONTINUOUS
10
6.46365
20
-3.18725
11
6.47107
21
-3.19358
0
LINE
8
BLACK
6
CONTINUOUS
10
6.47107
20
-3.19358
11
6.4794
21
-3.19868
0
LINE
8
BLACK
6
CONTINUOUS
10
6.4794
20
-3.19868
11
6.48841
21
-3.20242
0
LINE
8
BLACK
6
CONTINUOUS
10
6.48841
20
-3.20242
11
6.4979
21
-3.2047
0
LINE
8
BLACK
6
CONTINUOUS
10
6.4979
20
-3.2047
11
6.50763
21
-3.20546
0
LINE
8
BLACK
6
CONTINUOUS
10
6.50763
20
-3.20546
11
6.51736
21
-3.2047
0
LINE
8
BLACK
6
CONTINUOUS
10
6.51736
20
-3.2047
11
6.52685
21
-3.20242
0
LINE
8
BLACK
6
CONTINUOUS
10
6.52685
20
-3.20242
11
6.53587
21
-3.19868
0
LINE
8
BLACK
6
CONTINUOUS
10
6.53587
20
-3.19868
11
6.54419
21
-3.19358
0
LINE
8
BLACK
6
CONTINUOUS
10
6.54419
20
-3.19358
11
6.55162
21
-3.18725
0
LINE
8
BLACK
6
CONTINUOUS
10
6.55162
20
-3.18725
11
6.55795
21
-3.17982
0
LINE
8
BLACK
6
CONTINUOUS
10
6.55795
20
-3.17982
11
6.56305
21
-3.1715
0
LINE
8
BLACK
6
CONTINUOUS
10
6.56305
20
-3.1715
11
6.56679
21
-3.16248
0
LINE
8
BLACK
6
CONTINUOUS
10
6.56679
20
-3.16248
11
6.56907
21
-3.15299
0
LINE
8
BLACK
6
CONTINUOUS
10
6.56907
20
-3.15299
11
6.56983
21
-3.14326
0
LINE
8
BLACK
6
CONTINUOUS
10
6.56983
20
-3.14326
11
6.56907
21
-3.13353
0
LINE
8
BLACK
6
CONTINUOUS
10
6.56907
20
-3.13353
11
6.56679
21
-3.12404
0
LINE
8
BLACK
6
CONTINUOUS
10
6.56679
20
-3.12404
11
6.56305
21
-3.11503
0
LINE
8
BLACK
6
CONTINUOUS
10
6.56305
20
-3.11503
11
6.55795
21
-3.1067
0
LINE
8
BLACK
6
CONTINUOUS
10
6.55795
20
-3.1067
11
6.55162
21
-3.09928
0
LINE
8
BLACK
6
CONTINUOUS
10
6.55162
20
-3.09928
11
6.54419
21
-3.09294
0
LINE
8
BLACK
6
CONTINUOUS
10
6.54419
20
-3.09294
11
6.53587
21
-3.08784
0
LINE
8
BLACK
6
CONTINUOUS
10
6.53587
20
-3.08784
11
6.52685
21
-3.08411
0
LINE
8
BLACK
6
CONTINUOUS
10
6.52685
20
-3.08411
11
6.51736
21
-3.08183
0
LINE
8
BLACK
6
CONTINUOUS
10
6.51736
20
-3.08183
11
6.50763
21
-3.08106
0
LINE
8
BLACK
6
CONTINUOUS
10
6.50763
20
-3.08106
11
6.4979
21
-3.08183
0
LINE
8
BLACK
6
CONTINUOUS
10
6.4979
20
-3.08183
11
6.48841
21
-3.08411
0
LINE
8
BLACK
6
CONTINUOUS
10
6.48841
20
-3.08411
11
6.4794
21
-3.08784
0
LINE
8
BLACK
6
CONTINUOUS
10
6.4794
20
-3.08784
11
6.47107
21
-3.09294
0
LINE
8
BLACK
6
CONTINUOUS
10
6.47107
20
-3.09294
11
6.46365
21
-3.09928
0
LINE
8
BLACK
6
CONTINUOUS
10
6.46365
20
-3.09928
11
6.45731
21
-3.1067
0
LINE
8
BLACK
6
CONTINUOUS
10
6.45731
20
-3.1067
11
6.45221
21
-3.11503
0
LINE
8
BLACK
6
CONTINUOUS
10
6.45221
20
-3.11503
11
6.44848
21
-3.12404
0
LINE
8
BLACK
6
CONTINUOUS
10
6.44848
20
-3.12404
11
6.4462
21
-3.13353
0
LINE
8
BLACK
6
CONTINUOUS
10
6.4462
20
-3.13353
11
6.44543
21
-3.14326
0
LINE
8
BLACK
6
CONTINUOUS
10
6.44543
20
-3.14326
11
6.4462
21
-3.15299
0
LINE
8
BLACK
6
CONTINUOUS
10
6.4462
20
-3.15299
11
6.44848
21
-3.16248
0
LINE
8
BLACK
6
CONTINUOUS
10
3.64742
20
-3.12394
11
3.64982
21
-3.11447
0
LINE
8
BLACK
6
CONTINUOUS
10
3.64982
20
-3.11447
11
3.6536
21
-3.10545
0
LINE
8
BLACK
6
CONTINUOUS
10
3.6536
20
-3.10545
11
3.65867
21
-3.0971
0
LINE
8
BLACK
6
CONTINUOUS
10
3.65867
20
-3.0971
11
3.66492
21
-3.08958
0
LINE
8
BLACK
6
CONTINUOUS
10
3.66492
20
-3.08958
11
3.67221
21
-3.08307
0
LINE
8
BLACK
6
CONTINUOUS
10
3.67221
20
-3.08307
11
3.68039
21
-3.07771
0
LINE
8
BLACK
6
CONTINUOUS
10
3.68039
20
-3.07771
11
3.68926
21
-3.07362
0
LINE
8
BLACK
6
CONTINUOUS
10
3.68926
20
-3.07362
11
3.69865
21
-3.07089
0
LINE
8
BLACK
6
CONTINUOUS
10
3.69865
20
-3.07089
11
3.70833
21
-3.06957
0
LINE
8
BLACK
6
CONTINUOUS
10
3.70833
20
-3.06957
11
3.71811
21
-3.0697
0
LINE
8
BLACK
6
CONTINUOUS
10
3.71811
20
-3.0697
11
3.72775
21
-3.07127
0
LINE
8
BLACK
6
CONTINUOUS
10
3.72775
20
-3.07127
11
3.73706
21
-3.07425
0
LINE
8
BLACK
6
CONTINUOUS
10
3.73706
20
-3.07425
11
3.74583
21
-3.07857
0
LINE
8
BLACK
6
CONTINUOUS
10
3.74583
20
-3.07857
11
3.75386
21
-3.08414
0
LINE
8
BLACK
6
CONTINUOUS
10
3.75386
20
-3.08414
11
3.76098
21
-3.09084
0
LINE
8
BLACK
6
CONTINUOUS
10
3.76098
20
-3.09084
11
3.76703
21
-3.09851
0
LINE
8
BLACK
6
CONTINUOUS
10
3.76703
20
-3.09851
11
3.77188
21
-3.107
0
LINE
8
BLACK
6
CONTINUOUS
10
3.77188
20
-3.107
11
3.77542
21
-3.11611
0
LINE
8
BLACK
6
CONTINUOUS
10
3.77542
20
-3.11611
11
3.77758
21
-3.12564
0
LINE
8
BLACK
6
CONTINUOUS
10
3.77758
20
-3.12564
11
3.7783
21
-3.13539
0
LINE
8
BLACK
6
CONTINUOUS
10
3.7783
20
-3.13539
11
3.77821
21
-3.13884
0
LINE
8
BLACK
6
CONTINUOUS
10
3.77821
20
-3.13884
11
3.77698
21
-3.14854
0
LINE
8
BLACK
6
CONTINUOUS
10
3.77698
20
-3.14854
11
3.77433
21
-3.15794
0
LINE
8
BLACK
6
CONTINUOUS
10
3.77433
20
-3.15794
11
3.77031
21
-3.16686
0
LINE
8
BLACK
6
CONTINUOUS
10
3.77031
20
-3.16686
11
3.76502
21
-3.17508
0
LINE
8
BLACK
6
CONTINUOUS
10
3.76502
20
-3.17508
11
3.75858
21
-3.18242
0
LINE
8
BLACK
6
CONTINUOUS
10
3.75858
20
-3.18242
11
3.75112
21
-3.18874
0
LINE
8
BLACK
6
CONTINUOUS
10
3.75112
20
-3.18874
11
3.74281
21
-3.19388
0
LINE
8
BLACK
6
CONTINUOUS
10
3.74281
20
-3.19388
11
3.73383
21
-3.19774
0
LINE
8
BLACK
6
CONTINUOUS
10
3.73383
20
-3.19774
11
3.72438
21
-3.20023
0
LINE
8
BLACK
6
CONTINUOUS
10
3.72438
20
-3.20023
11
3.71466
21
-3.20129
0
LINE
8
BLACK
6
CONTINUOUS
10
3.71466
20
-3.20129
11
3.70489
21
-3.20091
0
LINE
8
BLACK
6
CONTINUOUS
10
3.70489
20
-3.20091
11
3.69529
21
-3.19909
0
LINE
8
BLACK
6
CONTINUOUS
10
3.69529
20
-3.19909
11
3.68606
21
-3.19587
0
LINE
8
BLACK
6
CONTINUOUS
10
3.68606
20
-3.19587
11
3.67741
21
-3.19131
0
LINE
8
BLACK
6
CONTINUOUS
10
3.67741
20
-3.19131
11
3.66953
21
-3.18553
0
LINE
8
BLACK
6
CONTINUOUS
10
3.66953
20
-3.18553
11
3.66259
21
-3.17865
0
LINE
8
BLACK
6
CONTINUOUS
10
3.66259
20
-3.17865
11
3.65674
21
-3.17082
0
LINE
8
BLACK
6
CONTINUOUS
10
3.65674
20
-3.17082
11
3.65211
21
-3.16221
0
LINE
8
BLACK
6
CONTINUOUS
10
3.65211
20
-3.16221
11
3.64881
21
-3.15301
0
LINE
8
BLACK
6
CONTINUOUS
10
3.64881
20
-3.15301
11
3.6469
21
-3.14343
0
LINE
8
BLACK
6
CONTINUOUS
10
3.6469
20
-3.14343
11
3.64652
21
-3.13539
0
LINE
8
BLACK
6
CONTINUOUS
10
3.64652
20
-3.13539
11
3.64644
21
-3.13366
0
LINE
8
BLACK
6
CONTINUOUS
10
3.64644
20
-3.13366
11
3.64742
21
-3.12394
0
LINE
8
BLACK
6
CONTINUOUS
10
3.6532
20
-3.15461
11
3.65694
21
-3.16363
0
LINE
8
BLACK
6
CONTINUOUS
10
3.65694
20
-3.16363
11
3.66204
21
-3.17195
0
LINE
8
BLACK
6
CONTINUOUS
10
3.66204
20
-3.17195
11
3.66838
21
-3.17937
0
LINE
8
BLACK
6
CONTINUOUS
10
3.66838
20
-3.17937
11
3.6758
21
-3.18571
0
LINE
8
BLACK
6
CONTINUOUS
10
3.6758
20
-3.18571
11
3.68412
21
-3.19081
0
LINE
8
BLACK
6
CONTINUOUS
10
3.68412
20
-3.19081
11
3.69314
21
-3.19455
0
LINE
8
BLACK
6
CONTINUOUS
10
3.69314
20
-3.19455
11
3.70263
21
-3.19682
0
LINE
8
BLACK
6
CONTINUOUS
10
3.70263
20
-3.19682
11
3.71236
21
-3.19759
0
LINE
8
BLACK
6
CONTINUOUS
10
3.71236
20
-3.19759
11
3.72209
21
-3.19682
0
LINE
8
BLACK
6
CONTINUOUS
10
3.72209
20
-3.19682
11
3.73158
21
-3.19455
0
LINE
8
BLACK
6
CONTINUOUS
10
3.73158
20
-3.19455
11
3.7406
21
-3.19081
0
LINE
8
BLACK
6
CONTINUOUS
10
3.7406
20
-3.19081
11
3.74892
21
-3.18571
0
LINE
8
BLACK
6
CONTINUOUS
10
3.74892
20
-3.18571
11
3.75634
21
-3.17937
0
LINE
8
BLACK
6
CONTINUOUS
10
3.75634
20
-3.17937
11
3.76268
21
-3.17195
0
LINE
8
BLACK
6
CONTINUOUS
10
3.76268
20
-3.17195
11
3.76778
21
-3.16363
0
LINE
8
BLACK
6
CONTINUOUS
10
3.76778
20
-3.16363
11
3.77151
21
-3.15461
0
LINE
8
BLACK
6
CONTINUOUS
10
3.77151
20
-3.15461
11
3.77379
21
-3.14512
0
LINE
8
BLACK
6
CONTINUOUS
10
3.77379
20
-3.14512
11
3.77456
21
-3.13539
0
LINE
8
BLACK
6
CONTINUOUS
10
3.77456
20
-3.13539
11
3.77379
21
-3.12566
0
LINE
8
BLACK
6
CONTINUOUS
10
3.77379
20
-3.12566
11
3.77151
21
-3.11617
0
LINE
8
BLACK
6
CONTINUOUS
10
3.77151
20
-3.11617
11
3.76778
21
-3.10715
0
LINE
8
BLACK
6
CONTINUOUS
10
3.76778
20
-3.10715
11
3.76268
21
-3.09883
0
LINE
8
BLACK
6
CONTINUOUS
10
3.76268
20
-3.09883
11
3.75634
21
-3.09141
0
LINE
8
BLACK
6
CONTINUOUS
10
3.75634
20
-3.09141
11
3.74892
21
-3.08507
0
LINE
8
BLACK
6
CONTINUOUS
10
3.74892
20
-3.08507
11
3.7406
21
-3.07997
0
LINE
8
BLACK
6
CONTINUOUS
10
3.7406
20
-3.07997
11
3.73158
21
-3.07623
0
LINE
8
BLACK
6
CONTINUOUS
10
3.73158
20
-3.07623
11
3.72209
21
-3.07396
0
LINE
8
BLACK
6
CONTINUOUS
10
3.72209
20
-3.07396
11
3.71236
21
-3.07319
0
LINE
8
BLACK
6
CONTINUOUS
10
3.71236
20
-3.07319
11
3.70263
21
-3.07396
0
LINE
8
BLACK
6
CONTINUOUS
10
3.70263
20
-3.07396
11
3.69314
21
-3.07623
0
LINE
8
BLACK
6
CONTINUOUS
10
3.69314
20
-3.07623
11
3.68412
21
-3.07997
0
LINE
8
BLACK
6
CONTINUOUS
10
3.68412
20
-3.07997
11
3.6758
21
-3.08507
0
LINE
8
BLACK
6
CONTINUOUS
10
3.6758
20
-3.08507
11
3.66838
21
-3.09141
0
LINE
8
BLACK
6
CONTINUOUS
10
3.66838
20
-3.09141
11
3.66204
21
-3.09883
0
LINE
8
BLACK
6
CONTINUOUS
10
3.66204
20
-3.09883
11
3.65694
21
-3.10715
0
LINE
8
BLACK
6
CONTINUOUS
10
3.65694
20
-3.10715
11
3.6532
21
-3.11617
0
LINE
8
BLACK
6
CONTINUOUS
10
3.6532
20
-3.11617
11
3.65092
21
-3.12566
0
LINE
8
BLACK
6
CONTINUOUS
10
3.65092
20
-3.12566
11
3.65016
21
-3.13539
0
LINE
8
BLACK
6
CONTINUOUS
10
3.65016
20
-3.13539
11
3.65092
21
-3.14512
0
LINE
8
BLACK
6
CONTINUOUS
10
3.65092
20
-3.14512
11
3.6532
21
-3.15461
  0
ENDSEC
  0
EOF
